<?xml version="1.0" encoding="UTF-8"?>
<!DOCTYPE svg PUBLIC "-//W3C//DTD SVG 1.1//EN" "http://www.w3.org/Graphics/SVG/1.1/DTD/svg11.dtd">
<svg xmlns="http://www.w3.org/2000/svg" version="1.1" width="175px" height="175px" style="shape-rendering:geometricPrecision; text-rendering:geometricPrecision; image-rendering:optimizeQuality; fill-rule:evenodd; clip-rule:evenodd" xmlns:xlink="http://www.w3.org/1999/xlink">
<g><path style="opacity:0.688" fill="#ffb8c0" d="M 86.5,20.5 C 93.436,22.7155 95.1027,27.0489 91.5,33.5C 85.4278,36.9791 81.7612,35.1458 80.5,28C 80.9278,24.087 82.9278,21.587 86.5,20.5 Z M 85.5,23.5 C 90.1522,24.1035 91.6522,26.7702 90,31.5C 86.2589,34.0455 84.0923,32.8788 83.5,28C 83.5186,26.167 84.1852,24.667 85.5,23.5 Z"/></g>
<g><path style="opacity:0.721" fill="#ffb8c0" d="M 100.5,22.5 C 101.5,22.5 102.5,22.5 103.5,22.5C 103.167,24.5 102.833,26.5 102.5,28.5C 104.5,28.8333 106.5,29.1667 108.5,29.5C 108.116,27.3352 108.783,25.6685 110.5,24.5C 110.833,25 111.167,25.5 111.5,26C 110.496,29.7006 109.496,33.3672 108.5,37C 107.4,37.4317 106.733,36.9317 106.5,35.5C 106.68,34.4461 107.013,33.4461 107.5,32.5C 105.892,31.6816 104.225,31.0149 102.5,30.5C 101.684,32.2873 100.684,33.9539 99.5,35.5C 99.1667,34.8333 98.8333,34.1667 98.5,33.5C 99.4263,29.8697 100.093,26.203 100.5,22.5 Z"/></g>
<g><path style="opacity:0.696" fill="#ffb8c0" d="M 71.5,22.5 C 72.4972,22.4701 73.1639,22.9701 73.5,24C 72.7636,26.1394 71.7636,28.1394 70.5,30C 72.9768,31.6427 75.3102,33.476 77.5,35.5C 76.635,36.5827 75.635,36.7494 74.5,36C 72.6951,35.028 71.0284,33.8613 69.5,32.5C 69.1667,34.5 68.8333,36.5 68.5,38.5C 66.2408,34.8612 64.5742,30.8612 63.5,26.5C 63.8076,25.6919 64.3076,25.0253 65,24.5C 66.1853,26.3772 67.1853,28.3772 68,30.5C 69.0764,27.7627 70.243,25.096 71.5,22.5 Z"/></g>
<g><path style="opacity:1" fill="#dba290" d="M 95.5,41.5 C 99.3714,41.185 103.038,41.5184 106.5,42.5C 105.432,43.4345 104.099,43.7678 102.5,43.5C 99.6146,43.1936 96.9479,43.5269 94.5,44.5C 92.7376,44.3573 91.0709,44.6906 89.5,45.5C 88.7025,45.0431 88.3691,44.3764 88.5,43.5C 91.0673,43.2785 93.4006,42.6118 95.5,41.5 Z"/></g>
<g><path style="opacity:0.275" fill="#f9d9d8" d="M 95.5,41.5 C 93.4006,42.6118 91.0673,43.2785 88.5,43.5C 86.5853,43.2155 84.9187,43.5489 83.5,44.5C 82.8333,44.5 82.1667,44.5 81.5,44.5C 79.5,45.1667 77.5,45.8333 75.5,46.5C 76.0577,45.2101 77.0577,44.3768 78.5,44C 84.0146,42.1096 89.6812,41.2763 95.5,41.5 Z"/></g>
<g><path style="opacity:1" fill="#fddbd0" d="M 106.5,42.5 C 108.415,42.2155 110.081,42.5489 111.5,43.5C 110.127,43.3433 108.793,43.51 107.5,44C 113.326,45.0897 117.992,47.9231 121.5,52.5C 118.236,51.6758 114.902,51.3424 111.5,51.5C 111.5,49.8333 111.5,48.1667 111.5,46.5C 108.084,46.4725 105.084,45.4725 102.5,43.5C 104.099,43.7678 105.432,43.4345 106.5,42.5 Z"/></g>
<g><path style="opacity:1" fill="#edc2b5" d="M 111.5,43.5 C 115.933,44.2145 119.6,46.2145 122.5,49.5C 122.737,50.791 122.404,51.791 121.5,52.5C 117.992,47.9231 113.326,45.0897 107.5,44C 108.793,43.51 110.127,43.3433 111.5,43.5 Z"/></g>
<g><path style="opacity:1" fill="#fdbbaa" d="M 83.5,44.5 C 84.9187,43.5489 86.5853,43.2155 88.5,43.5C 88.3691,44.3764 88.7025,45.0431 89.5,45.5C 91.0709,44.6906 92.7376,44.3573 94.5,44.5C 94.3691,45.3764 94.7025,46.0431 95.5,46.5C 97.5879,45.821 99.5879,45.4877 101.5,45.5C 103.213,45.8793 104.213,46.8793 104.5,48.5C 100.293,47.9308 96.1265,47.2641 92,46.5C 90.951,48.1066 89.451,48.7733 87.5,48.5C 87.5,47.1667 87.5,45.8333 87.5,44.5C 86.1667,44.5 84.8333,44.5 83.5,44.5 Z"/></g>
<g><path style="opacity:1" fill="#f2998f" d="M 104.5,48.5 C 105.347,49.9663 106.68,50.7996 108.5,51C 104.551,51.8068 104.551,52.3068 108.5,52.5C 109.551,53.2223 110.218,54.2223 110.5,55.5C 106.337,54.014 102.67,51.6806 99.5,48.5C 98.4826,51.028 97.3159,51.028 96,48.5C 92.8852,49.4083 90.7185,50.7416 89.5,52.5C 87.1089,53.6942 84.7756,54.6942 82.5,55.5C 81.8333,55.5 81.1667,55.5 80.5,55.5C 82.5355,52.864 85.2022,51.0307 88.5,50C 87.944,49.6174 87.6107,49.1174 87.5,48.5C 89.451,48.7733 90.951,48.1066 92,46.5C 96.1265,47.2641 100.293,47.9308 104.5,48.5 Z"/></g>
<g><path style="opacity:1" fill="#f7b096" d="M 81.5,44.5 C 82.1667,45.8333 82.8333,47.1667 83.5,48.5C 78.3281,48.2339 77.6615,49.4006 81.5,52C 79.5665,52.7826 78.0665,52.2826 77,50.5C 76.6258,51.4162 76.1258,52.2496 75.5,53C 77.4257,53.4224 78.4257,54.5891 78.5,56.5C 78.1667,57.5 77.5,58.1667 76.5,58.5C 75.791,57.596 74.791,57.2627 73.5,57.5C 74.3414,55.6208 74.6747,53.6208 74.5,51.5C 72.5853,51.2155 70.9187,51.5489 69.5,52.5C 68.375,51.6522 68.375,50.6522 69.5,49.5C 71.2163,47.9752 73.2163,46.9752 75.5,46.5C 77.5,45.8333 79.5,45.1667 81.5,44.5 Z"/></g>
<g><path style="opacity:1" fill="#fee6dd" d="M 58.5,51.5 C 57.1336,49.6495 55.467,49.3162 53.5,50.5C 54.1667,50.8333 54.8333,51.1667 55.5,51.5C 54.7573,52.1818 54.0906,52.8485 53.5,53.5C 52.4168,53.4606 51.4168,53.1272 50.5,52.5C 49.8243,53.6016 49.1577,54.6016 48.5,55.5C 47.9033,55.2648 47.5699,54.7648 47.5,54C 48.752,51.0572 49.752,48.0572 50.5,45C 55.3994,44.5976 58.0661,46.7642 58.5,51.5 Z"/></g>
<g><path style="opacity:1" fill="#fec9bd" d="M 102.5,43.5 C 105.084,45.4725 108.084,46.4725 111.5,46.5C 111.5,48.1667 111.5,49.8333 111.5,51.5C 114.902,51.3424 118.236,51.6758 121.5,52.5C 121.304,54.6456 120.304,54.8122 118.5,53C 115.183,52.5017 111.85,52.335 108.5,52.5C 104.551,52.3068 104.551,51.8068 108.5,51C 106.68,50.7996 105.347,49.9663 104.5,48.5C 104.213,46.8793 103.213,45.8793 101.5,45.5C 99.5879,45.4877 97.5879,45.821 95.5,46.5C 94.7025,46.0431 94.3691,45.3764 94.5,44.5C 96.9479,43.5269 99.6146,43.1936 102.5,43.5 Z"/></g>
<g><path style="opacity:0.008" fill="#fefffe" d="M 45.5,52.5 C 46.525,52.8966 46.6917,53.5632 46,54.5C 45.5357,53.9056 45.369,53.2389 45.5,52.5 Z"/></g>
<g><path style="opacity:1" fill="#f8a186" d="M 81.5,44.5 C 82.1667,44.5 82.8333,44.5 83.5,44.5C 84.8333,44.5 86.1667,44.5 87.5,44.5C 87.5,45.8333 87.5,47.1667 87.5,48.5C 87.6107,49.1174 87.944,49.6174 88.5,50C 85.2022,51.0307 82.5355,52.864 80.5,55.5C 79.8333,55.8333 79.1667,56.1667 78.5,56.5C 78.4257,54.5891 77.4257,53.4224 75.5,53C 76.1258,52.2496 76.6258,51.4162 77,50.5C 78.0665,52.2826 79.5665,52.7826 81.5,52C 77.6615,49.4006 78.3281,48.2339 83.5,48.5C 82.8333,47.1667 82.1667,45.8333 81.5,44.5 Z"/></g>
<g><path style="opacity:1" fill="#fcdee2" d="M 122.5,49.5 C 125.164,51.4844 126.831,54.1511 127.5,57.5C 126.348,56.375 125.348,56.375 124.5,57.5C 124.5,57.8333 124.5,58.1667 124.5,58.5C 122.194,58.0074 119.861,57.6741 117.5,57.5C 117.36,59.1238 118.027,60.2904 119.5,61C 118.66,62.6665 119.16,62.8331 121,61.5C 121.167,62 121.333,62.5 121.5,63C 119.716,62.9887 118.383,64.1554 117.5,66.5C 118.039,62.5843 116.706,59.5843 113.5,57.5C 112.5,56.8333 111.5,56.1667 110.5,55.5C 110.218,54.2223 109.551,53.2223 108.5,52.5C 111.85,52.335 115.183,52.5017 118.5,53C 120.304,54.8122 121.304,54.6456 121.5,52.5C 122.404,51.791 122.737,50.791 122.5,49.5 Z"/></g>
<g><path style="opacity:1" fill="#fee7de" d="M 53.5,53.5 C 54.6225,55.5184 54.6225,57.5184 53.5,59.5C 54.3202,61.1112 55.6536,61.7778 57.5,61.5C 57.6309,62.3764 57.2975,63.0431 56.5,63.5C 53.9639,63.1556 51.7972,62.1556 50,60.5C 49.3162,61.7839 49.4829,62.9505 50.5,64C 49.9341,64.9947 49.2674,65.828 48.5,66.5C 48.5,62.8333 48.5,59.1667 48.5,55.5C 49.1577,54.6016 49.8243,53.6016 50.5,52.5C 51.4168,53.1272 52.4168,53.4606 53.5,53.5 Z"/></g>
<g><path style="opacity:1" fill="#ffd7c1" d="M 73.5,57.5 C 73.1667,57.5 72.8333,57.5 72.5,57.5C 70.054,58.0993 67.3873,58.0993 64.5,57.5C 65.8606,55.4727 67.5273,53.806 69.5,52.5C 70.9187,51.5489 72.5853,51.2155 74.5,51.5C 74.6747,53.6208 74.3414,55.6208 73.5,57.5 Z"/></g>
<g><path style="opacity:1" fill="#fde2d6" d="M 58.5,51.5 C 59.8486,52.9525 61.5153,53.9525 63.5,54.5C 62.4324,55.4345 61.099,55.7678 59.5,55.5C 57.9519,55.8212 57.2852,56.8212 57.5,58.5C 61.2965,59.0886 61.2965,60.0886 57.5,61.5C 55.6536,61.7778 54.3202,61.1112 53.5,59.5C 54.6225,57.5184 54.6225,55.5184 53.5,53.5C 54.0906,52.8485 54.7573,52.1818 55.5,51.5C 54.8333,51.1667 54.1667,50.8333 53.5,50.5C 55.467,49.3162 57.1336,49.6495 58.5,51.5 Z"/></g>
<g><path style="opacity:1" fill="#995858" d="M 89.5,52.5 C 93.0122,51.9455 96.0122,52.6122 98.5,54.5C 97.2242,56.587 95.7242,58.587 94,60.5C 93.586,60.0426 93.086,59.7093 92.5,59.5C 90.9853,61.0822 89.3186,62.4155 87.5,63.5C 86.8333,63.5 86.1667,63.5 85.5,63.5C 86.1667,62.8333 86.8333,62.1667 87.5,61.5C 88.2178,59.8632 88.3845,58.1966 88,56.5C 86.1712,56.4351 84.3379,56.1018 82.5,55.5C 84.7756,54.6942 87.1089,53.6942 89.5,52.5 Z"/></g>
<g><path style="opacity:1" fill="#e2736f" d="M 110.5,55.5 C 111.5,56.1667 112.5,56.8333 113.5,57.5C 112.89,58.391 112.557,59.391 112.5,60.5C 111.859,58.9577 110.859,57.6243 109.5,56.5C 107.019,57.7197 105.019,59.3863 103.5,61.5C 101.053,61.615 99.0532,62.615 97.5,64.5C 97.1959,62.2043 96.1959,61.871 94.5,63.5C 94.4614,62.2438 94.9614,61.2438 96,60.5C 98.7905,61.7816 100.957,60.9483 102.5,58C 101.91,56.4905 101.244,54.9905 100.5,53.5C 99.8165,53.8627 99.1499,54.1961 98.5,54.5C 96.0122,52.6122 93.0122,51.9455 89.5,52.5C 90.7185,50.7416 92.8852,49.4083 96,48.5C 97.3159,51.028 98.4826,51.028 99.5,48.5C 102.67,51.6806 106.337,54.014 110.5,55.5 Z"/></g>
<g><path style="opacity:1" fill="#ffe0cb" d="M 72.5,57.5 C 72.1441,62.0916 70.3108,63.0916 67,60.5C 66.5357,61.0944 66.369,61.7611 66.5,62.5C 67.4451,64.5652 68.1117,66.3986 68.5,68C 65.8285,68.4848 64.4952,67.3181 64.5,64.5C 65.0671,62.0314 65.0671,59.698 64.5,57.5C 67.3873,58.0993 70.054,58.0993 72.5,57.5 Z"/></g>
<g><path style="opacity:1" fill="#885b59" d="M 80.5,55.5 C 81.1667,55.5 81.8333,55.5 82.5,55.5C 84.3379,56.1018 86.1712,56.4351 88,56.5C 88.3845,58.1966 88.2178,59.8632 87.5,61.5C 86.1529,60.8288 84.9862,60.8288 84,61.5C 83.6667,60.8333 83.3333,60.1667 83,59.5C 81.4506,62.0026 79.7839,62.0026 78,59.5C 77.6012,59.7284 77.4346,60.0618 77.5,60.5C 76.8333,60.5 76.5,60.1667 76.5,59.5C 76.5,59.1667 76.5,58.8333 76.5,58.5C 77.5,58.1667 78.1667,57.5 78.5,56.5C 79.1667,56.1667 79.8333,55.8333 80.5,55.5 Z"/></g>
<g><path style="opacity:1" fill="#efc0a0" d="M 69.5,49.5 C 68.375,50.6522 68.375,51.6522 69.5,52.5C 67.5273,53.806 65.8606,55.4727 64.5,57.5C 65.0671,59.698 65.0671,62.0314 64.5,64.5C 63.1667,66.1667 63.1667,67.8333 64.5,69.5C 64.44,70.0431 64.1067,70.3764 63.5,70.5C 62.8302,68.7086 62.1635,67.0419 61.5,65.5C 61.2317,62.8806 61.565,60.3806 62.5,58C 61.0577,57.6232 60.0577,56.7899 59.5,55.5C 61.099,55.7678 62.4324,55.4345 63.5,54.5C 64.7772,52.8516 65.7772,51.0183 66.5,49C 67.7494,48.2599 68.7494,48.4265 69.5,49.5 Z"/></g>
<g><path style="opacity:0.005" fill="#fefffe" d="M 129.5,61.5 C 128.833,61.5 128.5,61.1667 128.5,60.5C 129.648,59.105 130.648,59.2716 131.5,61C 130.906,61.4643 130.239,61.631 129.5,61.5 Z"/></g>
<g><path style="opacity:1" fill="#fc695e" d="M 112.5,60.5 C 112.5,61.5 112.5,62.5 112.5,63.5C 111.448,63.3505 110.448,63.5172 109.5,64C 110.982,67.7569 110.316,68.2569 107.5,65.5C 108.246,64.2638 108.579,62.9305 108.5,61.5C 106.833,61.5 105.167,61.5 103.5,61.5C 105.019,59.3863 107.019,57.7197 109.5,56.5C 110.859,57.6243 111.859,58.9577 112.5,60.5 Z"/></g>
<g><path style="opacity:1" fill="#be847c" d="M 76.5,59.5 C 76.5,60.1667 76.8333,60.5 77.5,60.5C 77.6567,61.8734 77.49,63.2068 77,64.5C 75.692,63.8487 74.8586,64.5154 74.5,66.5C 73.597,63.9075 74.2636,61.5742 76.5,59.5 Z"/></g>
<g><path style="opacity:1" fill="#ffe1e3" d="M 124.5,58.5 C 124.342,61.9023 124.676,65.2356 125.5,68.5C 125.5,71.5 125.5,74.5 125.5,77.5C 123.654,74.662 121.988,71.662 120.5,68.5C 119.831,70.6309 119.165,72.6309 118.5,74.5C 117.908,71.8728 117.575,69.2062 117.5,66.5C 118.383,64.1554 119.716,62.9887 121.5,63C 121.333,62.5 121.167,62 121,61.5C 119.16,62.8331 118.66,62.6665 119.5,61C 118.027,60.2904 117.36,59.1238 117.5,57.5C 119.861,57.6741 122.194,58.0074 124.5,58.5 Z"/></g>
<g><path style="opacity:1" fill="#fee0d3" d="M 59.5,55.5 C 60.0577,56.7899 61.0577,57.6232 62.5,58C 61.565,60.3806 61.2317,62.8806 61.5,65.5C 61.7845,67.4147 61.4511,69.0813 60.5,70.5C 60.1788,68.9519 59.1788,68.2852 57.5,68.5C 57.6495,69.552 57.4828,70.552 57,71.5C 54.5714,70.9707 52.7381,69.6374 51.5,67.5C 50.4822,68.1925 49.4822,68.8592 48.5,69.5C 48.5,68.8333 48.5,68.1667 48.5,67.5C 48.5,67.1667 48.5,66.8333 48.5,66.5C 49.2674,65.828 49.9341,64.9947 50.5,64C 49.4829,62.9505 49.3162,61.7839 50,60.5C 51.7972,62.1556 53.9639,63.1556 56.5,63.5C 57.2975,63.0431 57.6309,62.3764 57.5,61.5C 61.2965,60.0886 61.2965,59.0886 57.5,58.5C 57.2852,56.8212 57.9519,55.8212 59.5,55.5 Z"/></g>
<g><path style="opacity:1" fill="#ca7272" d="M 94.5,63.5 C 92.0502,64.7114 90.0502,66.378 88.5,68.5C 86.1534,67.3931 85.82,65.7264 87.5,63.5C 89.3186,62.4155 90.9853,61.0822 92.5,59.5C 93.086,59.7093 93.586,60.0426 94,60.5C 95.7242,58.587 97.2242,56.587 98.5,54.5C 99.1499,54.1961 99.8165,53.8627 100.5,53.5C 101.244,54.9905 101.91,56.4905 102.5,58C 100.957,60.9483 98.7905,61.7816 96,60.5C 94.9614,61.2438 94.4614,62.2438 94.5,63.5 Z"/></g>
<g><path style="opacity:0.878" fill="#e1b4b3" d="M 124.5,57.5 C 125.348,56.375 126.348,56.375 127.5,57.5C 128.11,58.391 128.443,59.391 128.5,60.5C 128.5,61.1667 128.833,61.5 129.5,61.5C 130.15,63.4352 130.483,65.4352 130.5,67.5C 130.5,69.8333 130.5,72.1667 130.5,74.5C 129.833,71.8333 129.167,69.1667 128.5,66.5C 128.208,62.9336 126.874,59.9336 124.5,57.5 Z"/></g>
<g><path style="opacity:1" fill="#fdcbb4" d="M 72.5,57.5 C 72.8333,57.5 73.1667,57.5 73.5,57.5C 74.791,57.2627 75.791,57.596 76.5,58.5C 76.5,58.8333 76.5,59.1667 76.5,59.5C 74.2636,61.5742 73.597,63.9075 74.5,66.5C 74.4431,67.609 74.1098,68.609 73.5,69.5C 71.31,70.7476 70.9766,72.4143 72.5,74.5C 71.5,75.8333 70.5,75.8333 69.5,74.5C 68.4101,71.2368 68.7434,68.0701 70.5,65C 69.3066,63.9054 67.9733,63.072 66.5,62.5C 66.369,61.7611 66.5357,61.0944 67,60.5C 70.3108,63.0916 72.1441,62.0916 72.5,57.5 Z"/></g>
<g><path style="opacity:1" fill="#fed8d2" d="M 124.5,57.5 C 126.874,59.9336 128.208,62.9336 128.5,66.5C 129.063,73.1407 128.063,73.8074 125.5,68.5C 124.676,65.2356 124.342,61.9023 124.5,58.5C 124.5,58.1667 124.5,57.8333 124.5,57.5 Z"/></g>
<g><path style="opacity:1" fill="#ffdcc4" d="M 66.5,62.5 C 67.9733,63.072 69.3066,63.9054 70.5,65C 68.7434,68.0701 68.4101,71.2368 69.5,74.5C 68.5084,74.3284 67.8417,74.6618 67.5,75.5C 66.1634,74.6851 65.1634,73.5185 64.5,72C 65.7736,71.0228 65.7736,70.1894 64.5,69.5C 63.1667,67.8333 63.1667,66.1667 64.5,64.5C 64.4952,67.3181 65.8285,68.4848 68.5,68C 68.1117,66.3986 67.4451,64.5652 66.5,62.5 Z"/></g>
<g><path style="opacity:1" fill="#8f625e" d="M 87.5,61.5 C 86.8333,62.1667 86.1667,62.8333 85.5,63.5C 84.1917,64.2323 82.8584,65.0656 81.5,66C 83.5922,66.9525 83.9255,68.2859 82.5,70C 80.4636,70.4536 78.6303,71.2869 77,72.5C 75.3576,72.0222 74.1909,71.0222 73.5,69.5C 74.1098,68.609 74.4431,67.609 74.5,66.5C 74.8586,64.5154 75.692,63.8487 77,64.5C 77.49,63.2068 77.6567,61.8734 77.5,60.5C 77.4346,60.0618 77.6012,59.7284 78,59.5C 79.7839,62.0026 81.4506,62.0026 83,59.5C 83.3333,60.1667 83.6667,60.8333 84,61.5C 84.9862,60.8288 86.1529,60.8288 87.5,61.5 Z"/></g>
<g><path style="opacity:1" fill="#f2a492" d="M 97.5,64.5 C 97.5,64.8333 97.5,65.1667 97.5,65.5C 97.5,66.8333 96.8333,67.5 95.5,67.5C 95.6309,66.6236 95.2975,65.9569 94.5,65.5C 93.3554,66.7757 93.3554,68.109 94.5,69.5C 93.2723,71.321 91.6056,72.321 89.5,72.5C 92.3382,70.6941 92.0048,69.6941 88.5,69.5C 88.5,69.1667 88.5,68.8333 88.5,68.5C 90.0502,66.378 92.0502,64.7114 94.5,63.5C 96.1959,61.871 97.1959,62.2043 97.5,64.5 Z"/></g>
<g><path style="opacity:1" fill="#fd7e6c" d="M 112.5,60.5 C 113.289,60.7828 113.956,61.2828 114.5,62C 113.464,63.7755 113.464,65.6089 114.5,67.5C 113.167,67.5 112.5,68.1667 112.5,69.5C 109.827,70.7026 107.16,70.7026 104.5,69.5C 103.913,70.2334 103.913,71.2334 104.5,72.5C 101.738,70.5006 99.4048,68.1673 97.5,65.5C 97.5,65.1667 97.5,64.8333 97.5,64.5C 99.0532,62.615 101.053,61.615 103.5,61.5C 105.167,61.5 106.833,61.5 108.5,61.5C 108.579,62.9305 108.246,64.2638 107.5,65.5C 110.316,68.2569 110.982,67.7569 109.5,64C 110.448,63.5172 111.448,63.3505 112.5,63.5C 112.5,62.5 112.5,61.5 112.5,60.5 Z"/></g>
<g><path style="opacity:1" fill="#ffe4db" d="M 60.5,70.5 C 59.7839,72.5563 59.1172,74.723 58.5,77C 59.056,77.3826 59.3893,77.8826 59.5,78.5C 59.3379,80.5273 59.5045,82.5273 60,84.5C 61.7198,85.3841 62.8865,86.7175 63.5,88.5C 61.7681,87.0516 59.7681,86.2183 57.5,86C 57.9574,85.586 58.2907,85.086 58.5,84.5C 57.8108,82.556 57.3108,80.556 57,78.5C 56.6667,78.8333 56.3333,79.1667 56,79.5C 54.7135,76.8554 52.5468,75.8554 49.5,76.5C 49.0074,74.1944 48.6741,71.861 48.5,69.5C 49.4822,68.8592 50.4822,68.1925 51.5,67.5C 52.7381,69.6374 54.5714,70.9707 57,71.5C 57.4828,70.552 57.6495,69.552 57.5,68.5C 59.1788,68.2852 60.1788,68.9519 60.5,70.5 Z"/></g>
<g><path style="opacity:1" fill="#b57e7e" d="M 85.5,63.5 C 86.1667,63.5 86.8333,63.5 87.5,63.5C 85.82,65.7264 86.1534,67.3931 88.5,68.5C 88.5,68.8333 88.5,69.1667 88.5,69.5C 86.8621,70.1589 85.1955,70.8256 83.5,71.5C 82.2888,72.2739 82.2888,73.1072 83.5,74C 80.7652,73.8023 78.0985,73.969 75.5,74.5C 76.325,75.3857 77.325,75.719 78.5,75.5C 78.5,76.5 78.5,77.5 78.5,78.5C 76.2279,77.5589 74.2279,76.2255 72.5,74.5C 70.9766,72.4143 71.31,70.7476 73.5,69.5C 74.1909,71.0222 75.3576,72.0222 77,72.5C 78.6303,71.2869 80.4636,70.4536 82.5,70C 83.9255,68.2859 83.5922,66.9525 81.5,66C 82.8584,65.0656 84.1917,64.2323 85.5,63.5 Z"/></g>
<g><path style="opacity:0.962" fill="#ffebed" d="M 48.5,67.5 C 48.5,68.1667 48.5,68.8333 48.5,69.5C 48.6741,71.861 49.0074,74.1944 49.5,76.5C 51.428,78.4741 53.7613,79.9741 56.5,81C 55.8333,82.3333 54.8333,83.3333 53.5,84C 57.1271,85.2211 57.1271,86.8878 53.5,89C 54.448,89.4828 55.448,89.6495 56.5,89.5C 56.69,91.9589 55.69,93.6255 53.5,94.5C 52.5826,94.5064 52.0826,93.5064 52,91.5C 51.5,93.3333 50.3333,94.5 48.5,95C 49.7911,96.2917 49.7911,97.4583 48.5,98.5C 47.6586,96.6208 47.3253,94.6208 47.5,92.5C 46.9862,90.4884 46.8195,88.4884 47,86.5C 47.3333,86.8333 47.6667,87.1667 48,87.5C 51.0197,85.4573 51.5197,83.2906 49.5,81C 49.6448,80.228 49.9781,79.5613 50.5,79C 49.0325,77.9025 48.1992,76.4025 48,74.5C 47.6667,75.5 47.3333,76.5 47,77.5C 46.3224,75.4024 46.4891,73.4024 47.5,71.5C 47.2322,69.901 47.5655,68.5676 48.5,67.5 Z"/></g>
<g><path style="opacity:1" fill="#fecec7" d="M 128.5,66.5 C 129.167,69.1667 129.833,71.8333 130.5,74.5C 130.5,74.8333 130.5,75.1667 130.5,75.5C 129.691,77.2922 129.191,79.2922 129,81.5C 127.968,79.9733 126.801,78.64 125.5,77.5C 125.5,74.5 125.5,71.5 125.5,68.5C 128.063,73.8074 129.063,73.1407 128.5,66.5 Z"/></g>
<g><path style="opacity:1" fill="#c97a64" d="M 95.5,67.5 C 95.5,68.5 95.5,69.5 95.5,70.5C 95.67,71.8221 95.3366,72.9887 94.5,74C 92.5273,74.4955 90.5273,74.6621 88.5,74.5C 88.3284,73.5084 88.6618,72.8417 89.5,72.5C 91.6056,72.321 93.2723,71.321 94.5,69.5C 93.3554,68.109 93.3554,66.7757 94.5,65.5C 95.2975,65.9569 95.6309,66.6236 95.5,67.5 Z"/></g>
<g><path style="opacity:1" fill="#f89063" d="M 97.5,65.5 C 99.4048,68.1673 101.738,70.5006 104.5,72.5C 105.675,72.281 106.675,72.6143 107.5,73.5C 105.637,74.6888 103.97,76.0221 102.5,77.5C 102.5,78.8333 102.5,80.1667 102.5,81.5C 101.698,80.0484 101.198,78.3817 101,76.5C 100.346,77.6956 99.8457,77.6956 99.5,76.5C 100.025,75.8076 100.692,75.3076 101.5,75C 101.272,74.6012 100.938,74.4346 100.5,74.5C 100.033,71.7026 98.3667,70.3692 95.5,70.5C 95.5,69.5 95.5,68.5 95.5,67.5C 96.8333,67.5 97.5,66.8333 97.5,65.5 Z"/></g>
<g><path style="opacity:1" fill="#fa8b6e" d="M 112.5,69.5 C 113.531,71.9608 114.198,74.6275 114.5,77.5C 114.795,79.7354 114.461,81.7354 113.5,83.5C 113.5,81.8333 113.5,80.1667 113.5,78.5C 111.11,78.1449 108.777,77.4783 106.5,76.5C 105.075,76.6233 103.742,76.9566 102.5,77.5C 103.97,76.0221 105.637,74.6888 107.5,73.5C 106.675,72.6143 105.675,72.281 104.5,72.5C 103.913,71.2334 103.913,70.2334 104.5,69.5C 107.16,70.7026 109.827,70.7026 112.5,69.5 Z"/></g>
<g><path style="opacity:1" fill="#f89b9c" d="M 113.5,57.5 C 116.706,59.5843 118.039,62.5843 117.5,66.5C 117.575,69.2062 117.908,71.8728 118.5,74.5C 117.833,74.5 117.5,74.8333 117.5,75.5C 115.903,73.1522 114.903,70.4855 114.5,67.5C 113.464,65.6089 113.464,63.7755 114.5,62C 113.956,61.2828 113.289,60.7828 112.5,60.5C 112.557,59.391 112.89,58.391 113.5,57.5 Z"/></g>
<g><path style="opacity:1" fill="#ffc2c7" d="M 114.5,67.5 C 114.903,70.4855 115.903,73.1522 117.5,75.5C 117.203,80.4217 116.203,81.0884 114.5,77.5C 114.198,74.6275 113.531,71.9608 112.5,69.5C 112.5,68.1667 113.167,67.5 114.5,67.5 Z"/></g>
<g><path style="opacity:1" fill="#fcd5c0" d="M 69.5,74.5 C 70.5,75.8333 71.5,75.8333 72.5,74.5C 74.2279,76.2255 76.2279,77.5589 78.5,78.5C 78.5,78.8333 78.5,79.1667 78.5,79.5C 77.596,80.209 77.2627,81.209 77.5,82.5C 75.0901,82.0791 73.2568,80.7458 72,78.5C 71.5357,79.0944 71.369,79.7611 71.5,80.5C 70.8333,80.5 70.1667,80.5 69.5,80.5C 69.1667,79.8333 68.8333,79.1667 68.5,78.5C 68.4431,77.391 68.1098,76.391 67.5,75.5C 67.8417,74.6618 68.5084,74.3284 69.5,74.5 Z"/></g>
<g><path style="opacity:1" fill="#c69799" d="M 88.5,69.5 C 92.0048,69.6941 92.3382,70.6941 89.5,72.5C 88.6618,72.8417 88.3284,73.5084 88.5,74.5C 85.1069,76.073 83.7736,78.7396 84.5,82.5C 82.901,82.2322 81.5676,82.5655 80.5,83.5C 78.8235,82.8166 78.1568,81.4832 78.5,79.5C 78.5,79.1667 78.5,78.8333 78.5,78.5C 78.5,77.5 78.5,76.5 78.5,75.5C 77.325,75.719 76.325,75.3857 75.5,74.5C 78.0985,73.969 80.7652,73.8023 83.5,74C 82.2888,73.1072 82.2888,72.2739 83.5,71.5C 85.1955,70.8256 86.8621,70.1589 88.5,69.5 Z"/></g>
<g><path style="opacity:1" fill="#fabda7" d="M 95.5,70.5 C 98.3667,70.3692 100.033,71.7026 100.5,74.5C 99.1667,75.1667 97.8333,75.8333 96.5,76.5C 93.4467,76.8893 90.78,76.2227 88.5,74.5C 90.5273,74.6621 92.5273,74.4955 94.5,74C 95.3366,72.9887 95.67,71.8221 95.5,70.5 Z"/></g>
<g><path style="opacity:1" fill="#f0aa83" d="M 100.5,74.5 C 100.938,74.4346 101.272,74.6012 101.5,75C 100.692,75.3076 100.025,75.8076 99.5,76.5C 99.8457,77.6956 100.346,77.6956 101,76.5C 101.198,78.3817 101.698,80.0484 102.5,81.5C 102.204,83.403 101.537,85.0697 100.5,86.5C 101.036,83.3019 100.369,80.6353 98.5,78.5C 97.1667,78.5 96.5,77.8333 96.5,76.5C 97.8333,75.8333 99.1667,75.1667 100.5,74.5 Z"/></g>
<g><path style="opacity:1" fill="#fec3b8" d="M 125.5,77.5 C 125.167,78.5 124.5,79.1667 123.5,79.5C 122.883,79.3893 122.383,79.056 122,78.5C 120.643,81.6919 119.143,84.6919 117.5,87.5C 118.293,83.5635 118.293,79.5635 117.5,75.5C 117.5,74.8333 117.833,74.5 118.5,74.5C 119.165,72.6309 119.831,70.6309 120.5,68.5C 121.988,71.662 123.654,74.662 125.5,77.5 Z"/></g>
<g><path style="opacity:1" fill="#fdd5ba" d="M 61.5,65.5 C 62.1635,67.0419 62.8302,68.7086 63.5,70.5C 64.1067,70.3764 64.44,70.0431 64.5,69.5C 65.7736,70.1894 65.7736,71.0228 64.5,72C 65.1634,73.5185 66.1634,74.6851 67.5,75.5C 68.1098,76.391 68.4431,77.391 68.5,78.5C 67.1434,77.3146 65.6434,76.3146 64,75.5C 62.2874,76.1374 62.1207,77.1374 63.5,78.5C 63.0431,79.2975 62.3764,79.6309 61.5,79.5C 60.8333,79.1667 60.1667,78.8333 59.5,78.5C 59.3893,77.8826 59.056,77.3826 58.5,77C 59.1172,74.723 59.7839,72.5563 60.5,70.5C 61.4511,69.0813 61.7845,67.4147 61.5,65.5 Z"/></g>
<g><path style="opacity:1" fill="#fea787" d="M 113.5,83.5 C 111.5,83.1667 109.5,82.8333 107.5,82.5C 106.571,81.0639 105.405,79.7305 104,78.5C 103.768,79.7375 103.268,80.7375 102.5,81.5C 102.5,80.1667 102.5,78.8333 102.5,77.5C 103.742,76.9566 105.075,76.6233 106.5,76.5C 108.777,77.4783 111.11,78.1449 113.5,78.5C 113.5,80.1667 113.5,81.8333 113.5,83.5 Z"/></g>
<g><path style="opacity:1" fill="#ffdec3" d="M 68.5,78.5 C 68.8333,79.1667 69.1667,79.8333 69.5,80.5C 67.7868,81.6354 67.1201,83.302 67.5,85.5C 65.323,85.4139 63.323,84.7472 61.5,83.5C 60.7084,82.3002 60.7084,80.9669 61.5,79.5C 62.3764,79.6309 63.0431,79.2975 63.5,78.5C 62.1207,77.1374 62.2874,76.1374 64,75.5C 65.6434,76.3146 67.1434,77.3146 68.5,78.5 Z"/></g>
<g><path style="opacity:1" fill="#ffeef0" d="M 98.5,78.5 C 100.369,80.6353 101.036,83.3019 100.5,86.5C 98.8212,86.7148 97.8212,86.0481 97.5,84.5C 97.5,84.1667 97.5,83.8333 97.5,83.5C 97.366,81.7085 97.6993,80.0418 98.5,78.5 Z"/></g>
<g><path style="opacity:0.951" fill="#fff1f3" d="M 47.5,71.5 C 46.4891,73.4024 46.3224,75.4024 47,77.5C 47.3333,76.5 47.6667,75.5 48,74.5C 48.1992,76.4025 49.0325,77.9025 50.5,79C 49.9781,79.5613 49.6448,80.228 49.5,81C 51.5197,83.2906 51.0197,85.4573 48,87.5C 47.6667,87.1667 47.3333,86.8333 47,86.5C 46.8195,88.4884 46.9862,90.4884 47.5,92.5C 45.1327,89.32 44.1327,85.6533 44.5,81.5C 44.6136,78.8014 44.9469,76.1347 45.5,73.5C 45.7472,72.2867 46.4138,71.62 47.5,71.5 Z"/></g>
<g><path style="opacity:1" fill="#fdd7c7" d="M 88.5,74.5 C 90.78,76.2227 93.4467,76.8893 96.5,76.5C 96.5,77.8333 97.1667,78.5 98.5,78.5C 97.6993,80.0418 97.366,81.7085 97.5,83.5C 96.7784,83.0825 96.2784,82.4158 96,81.5C 93.9307,83.0854 91.764,84.4187 89.5,85.5C 88.8501,85.1961 88.1835,84.8627 87.5,84.5C 87.2635,85.2472 86.9302,86.0805 86.5,87C 84.7971,87.7453 83.1305,88.5786 81.5,89.5C 80.2867,89.2528 79.62,88.5862 79.5,87.5C 79.9175,86.7784 80.5842,86.2784 81.5,86C 80.7476,85.3292 80.4142,84.4959 80.5,83.5C 81.5676,82.5655 82.901,82.2322 84.5,82.5C 83.7736,78.7396 85.1069,76.073 88.5,74.5 Z"/></g>
<g><path style="opacity:0.996" fill="#f8d6dc" d="M 130.5,67.5 C 131.38,69.1368 132.046,70.9701 132.5,73C 131.753,77.461 131.253,81.961 131,86.5C 129.348,89.5081 127.848,92.5081 126.5,95.5C 126.5,94.5 126.5,93.5 126.5,92.5C 127.6,89.2074 128.767,85.8741 130,82.5C 130.497,80.1902 130.663,77.8568 130.5,75.5C 130.5,75.1667 130.5,74.8333 130.5,74.5C 130.5,72.1667 130.5,69.8333 130.5,67.5 Z"/></g>
<g><path style="opacity:1" fill="#ffbeb9" d="M 123.5,80.5 C 125.145,81.4787 126.479,82.812 127.5,84.5C 125.645,87.6507 123.645,90.6507 121.5,93.5C 121.672,94.4916 121.338,95.1583 120.5,95.5C 119.675,92.4774 119.675,89.6441 120.5,87C 121.129,84.6252 122.129,82.4586 123.5,80.5 Z"/></g>
<g><path style="opacity:1" fill="#fedbd1" d="M 78.5,79.5 C 78.1568,81.4832 78.8235,82.8166 80.5,83.5C 80.4142,84.4959 80.7476,85.3292 81.5,86C 80.5842,86.2784 79.9175,86.7784 79.5,87.5C 77.9519,87.8212 77.2852,88.8212 77.5,90.5C 75.6412,90.5391 74.3079,89.7058 73.5,88C 75.2112,86.8668 75.7112,85.3668 75,83.5C 73.839,86.1848 72.0056,88.1848 69.5,89.5C 69.7373,88.209 69.404,87.209 68.5,86.5C 70.2501,84.9414 71.2501,82.9414 71.5,80.5C 71.369,79.7611 71.5357,79.0944 72,78.5C 73.2568,80.7458 75.0901,82.0791 77.5,82.5C 77.2627,81.209 77.596,80.209 78.5,79.5 Z"/></g>
<g><path style="opacity:1" fill="#fdd5bb" d="M 107.5,82.5 C 107.982,83.4163 108.315,84.4163 108.5,85.5C 107.813,87.1772 107.146,88.8439 106.5,90.5C 104.379,90.3253 102.379,90.6586 100.5,91.5C 99.5313,90.6906 98.6979,89.6906 98,88.5C 97.2825,89.4506 96.4491,89.6172 95.5,89C 96.0989,87.3775 96.7656,85.8775 97.5,84.5C 97.8212,86.0481 98.8212,86.7148 100.5,86.5C 101.537,85.0697 102.204,83.403 102.5,81.5C 103.268,80.7375 103.768,79.7375 104,78.5C 105.405,79.7305 106.571,81.0639 107.5,82.5 Z"/></g>
<g><path style="opacity:1" fill="#f6c799" d="M 59.5,78.5 C 60.1667,78.8333 60.8333,79.1667 61.5,79.5C 60.7084,80.9669 60.7084,82.3002 61.5,83.5C 63.323,84.7472 65.323,85.4139 67.5,85.5C 67.1201,83.302 67.7868,81.6354 69.5,80.5C 70.1667,80.5 70.8333,80.5 71.5,80.5C 71.2501,82.9414 70.2501,84.9414 68.5,86.5C 67.1805,87.9418 65.5138,88.6085 63.5,88.5C 62.8865,86.7175 61.7198,85.3841 60,84.5C 59.5045,82.5273 59.3379,80.5273 59.5,78.5 Z"/></g>
<g><path style="opacity:1" fill="#ffb297" d="M 107.5,82.5 C 109.5,82.8333 111.5,83.1667 113.5,83.5C 114.11,84.391 114.443,85.391 114.5,86.5C 113.105,89.7332 110.772,92.2332 107.5,94C 108.167,94.3333 108.833,94.6667 109.5,95C 108.142,95.9344 106.808,96.7677 105.5,97.5C 104.844,96.7222 104.011,96.0556 103,95.5C 101.614,96.7286 100.114,97.7286 98.5,98.5C 98.5,97.8333 98.5,97.1667 98.5,96.5C 100.073,94.7938 102.073,93.6272 104.5,93C 103.833,92.6667 103.167,92.3333 102.5,92C 104.058,91.79 105.391,91.29 106.5,90.5C 107.146,88.8439 107.813,87.1772 108.5,85.5C 108.315,84.4163 107.982,83.4163 107.5,82.5 Z"/></g>
<g><path style="opacity:1" fill="#ffe5e4" d="M 49.5,76.5 C 52.5468,75.8554 54.7135,76.8554 56,79.5C 56.3333,79.1667 56.6667,78.8333 57,78.5C 57.3108,80.556 57.8108,82.556 58.5,84.5C 58.2907,85.086 57.9574,85.586 57.5,86C 59.7681,86.2183 61.7681,87.0516 63.5,88.5C 65.5138,88.6085 67.1805,87.9418 68.5,86.5C 69.404,87.209 69.7373,88.209 69.5,89.5C 67.8102,89.8564 66.8102,90.8564 66.5,92.5C 65.8333,92.5 65.1667,92.5 64.5,92.5C 60.2682,89.8495 59.6015,90.6828 62.5,95C 60.5459,95.1618 58.8793,95.3285 57.5,95.5C 56.8333,96.1667 56.1667,96.8333 55.5,97.5C 55.7148,95.8212 55.0481,94.8212 53.5,94.5C 55.69,93.6255 56.69,91.9589 56.5,89.5C 55.448,89.6495 54.448,89.4828 53.5,89C 57.1271,86.8878 57.1271,85.2211 53.5,84C 54.8333,83.3333 55.8333,82.3333 56.5,81C 53.7613,79.9741 51.428,78.4741 49.5,76.5 Z"/></g>
<g><path style="opacity:1" fill="#f9a398" d="M 117.5,75.5 C 118.293,79.5635 118.293,83.5635 117.5,87.5C 119.143,84.6919 120.643,81.6919 122,78.5C 122.383,79.056 122.883,79.3893 123.5,79.5C 123.5,79.8333 123.5,80.1667 123.5,80.5C 122.129,82.4586 121.129,84.6252 120.5,87C 119.675,89.6441 119.675,92.4774 120.5,95.5C 120.5,95.8333 120.5,96.1667 120.5,96.5C 119.833,96.5 119.167,96.5 118.5,96.5C 117.375,94.1795 117.208,91.8462 118,89.5C 117.23,90.5981 116.397,90.5981 115.5,89.5C 115.737,88.209 115.404,87.209 114.5,86.5C 114.443,85.391 114.11,84.391 113.5,83.5C 114.461,81.7354 114.795,79.7354 114.5,77.5C 116.203,81.0884 117.203,80.4217 117.5,75.5 Z"/></g>
<g><path style="opacity:1" fill="#feddcd" d="M 97.5,83.5 C 97.5,83.8333 97.5,84.1667 97.5,84.5C 96.7656,85.8775 96.0989,87.3775 95.5,89C 96.4491,89.6172 97.2825,89.4506 98,88.5C 98.6979,89.6906 99.5313,90.6906 100.5,91.5C 96.2943,94.1023 91.961,96.4357 87.5,98.5C 85.5,98.8333 83.5,99.1667 81.5,99.5C 81.9175,98.7784 82.5842,98.2784 83.5,98C 82.5494,97.2825 82.3828,96.4491 83,95.5C 84.2547,94.7894 85.4214,93.956 86.5,93C 84.3365,92.5667 82.3365,93.0667 80.5,94.5C 79.0683,94.2668 78.5683,93.6001 79,92.5C 82.2138,90.5172 85.5471,90.1839 89,91.5C 89.1667,91.1667 89.3333,90.8333 89.5,90.5C 88.624,89.7492 87.624,89.2492 86.5,89C 87.7101,87.9609 88.7101,86.7942 89.5,85.5C 91.764,84.4187 93.9307,83.0854 96,81.5C 96.2784,82.4158 96.7784,83.0825 97.5,83.5 Z"/></g>
<g><path style="opacity:1" fill="#f7a6a3" d="M 130.5,75.5 C 130.663,77.8568 130.497,80.1902 130,82.5C 128.767,85.8741 127.6,89.2074 126.5,92.5C 125.833,93.1667 125.167,93.8333 124.5,94.5C 124.279,91.9028 123.779,91.9028 123,94.5C 122.617,93.944 122.117,93.6107 121.5,93.5C 123.645,90.6507 125.645,87.6507 127.5,84.5C 126.479,82.812 125.145,81.4787 123.5,80.5C 123.5,80.1667 123.5,79.8333 123.5,79.5C 124.5,79.1667 125.167,78.5 125.5,77.5C 126.801,78.64 127.968,79.9733 129,81.5C 129.191,79.2922 129.691,77.2922 130.5,75.5 Z"/></g>
<g><path style="opacity:1" fill="#fcbeab" d="M 77.5,90.5 C 77.3357,93.8174 76.3357,96.8174 74.5,99.5C 75.6857,100.961 75.6857,102.295 74.5,103.5C 74.5,102.833 74.1667,102.5 73.5,102.5C 71.9257,100.357 70.5923,98.0237 69.5,95.5C 70.6225,93.5184 70.6225,91.5184 69.5,89.5C 72.0056,88.1848 73.839,86.1848 75,83.5C 75.7112,85.3668 75.2112,86.8668 73.5,88C 74.3079,89.7058 75.6412,90.5391 77.5,90.5 Z"/></g>
<g><path style="opacity:1" fill="#f0856b" d="M 114.5,86.5 C 115.404,87.209 115.737,88.209 115.5,89.5C 115.5,90.1667 115.5,90.8333 115.5,91.5C 113.027,91.0882 111.694,92.0882 111.5,94.5C 110.599,95.2905 109.932,96.2905 109.5,97.5C 108.395,98.6005 107.062,99.2671 105.5,99.5C 105.5,98.8333 105.5,98.1667 105.5,97.5C 106.808,96.7677 108.142,95.9344 109.5,95C 108.833,94.6667 108.167,94.3333 107.5,94C 110.772,92.2332 113.105,89.7332 114.5,86.5 Z"/></g>
<g><path style="opacity:1" fill="#f89891" d="M 115.5,91.5 C 115.284,93.5543 114.118,95.5543 112,97.5C 111.517,96.552 111.351,95.552 111.5,94.5C 111.694,92.0882 113.027,91.0882 115.5,91.5 Z"/></g>
<g><path style="opacity:1" fill="#ffb6b3" d="M 115.5,89.5 C 116.397,90.5981 117.23,90.5981 118,89.5C 117.208,91.8462 117.375,94.1795 118.5,96.5C 120.054,97.8946 119.721,98.5613 117.5,98.5C 116.353,98.1822 115.519,97.5156 115,96.5C 113.961,97.7101 112.794,98.7101 111.5,99.5C 110.833,98.8333 110.167,98.1667 109.5,97.5C 109.932,96.2905 110.599,95.2905 111.5,94.5C 111.351,95.552 111.517,96.552 112,97.5C 114.118,95.5543 115.284,93.5543 115.5,91.5C 115.5,90.8333 115.5,90.1667 115.5,89.5 Z"/></g>
<g><path style="opacity:0.994" fill="#feeaee" d="M 53.5,94.5 C 55.0481,94.8212 55.7148,95.8212 55.5,97.5C 55.9154,101.046 55.9154,104.713 55.5,108.5C 53.7231,108.214 52.0564,107.547 50.5,106.5C 49.2867,106.747 48.62,107.414 48.5,108.5C 47.5041,108.414 46.6708,108.748 46,109.5C 45.8333,109 45.6667,108.5 45.5,108C 46.34,106.233 47.6734,104.899 49.5,104C 47.065,103.925 46.3984,103.092 47.5,101.5C 47.5569,100.391 47.8902,99.391 48.5,98.5C 49.7911,97.4583 49.7911,96.2917 48.5,95C 50.3333,94.5 51.5,93.3333 52,91.5C 52.0826,93.5064 52.5826,94.5064 53.5,94.5 Z"/></g>
<g><path style="opacity:1" fill="#fee0d3" d="M 89.5,85.5 C 88.7101,86.7942 87.7101,87.9609 86.5,89C 87.624,89.2492 88.624,89.7492 89.5,90.5C 89.3333,90.8333 89.1667,91.1667 89,91.5C 85.5471,90.1839 82.2138,90.5172 79,92.5C 78.5683,93.6001 79.0683,94.2668 80.5,94.5C 82.3365,93.0667 84.3365,92.5667 86.5,93C 85.4214,93.956 84.2547,94.7894 83,95.5C 82.3828,96.4491 82.5494,97.2825 83.5,98C 82.5842,98.2784 81.9175,98.7784 81.5,99.5C 79.5695,99.7706 78.2362,100.771 77.5,102.5C 77.1436,100.81 76.1436,99.8102 74.5,99.5C 76.3357,96.8174 77.3357,93.8174 77.5,90.5C 77.2852,88.8212 77.9519,87.8212 79.5,87.5C 79.62,88.5862 80.2867,89.2528 81.5,89.5C 83.1305,88.5786 84.7971,87.7453 86.5,87C 86.9302,86.0805 87.2635,85.2472 87.5,84.5C 88.1835,84.8627 88.8501,85.1961 89.5,85.5 Z"/></g>
<g><path style="opacity:1" fill="#f9bdb3" d="M 64.5,92.5 C 65.1667,92.5 65.8333,92.5 66.5,92.5C 66.8413,96.322 66.8413,99.9887 66.5,103.5C 66.6716,102.508 66.3382,101.842 65.5,101.5C 65.6716,100.508 65.3382,99.8417 64.5,99.5C 64.5,99.1667 64.5,98.8333 64.5,98.5C 63.1667,96.5 63.1667,94.5 64.5,92.5 Z"/></g>
<g><path style="opacity:1" fill="#feddd5" d="M 64.5,92.5 C 63.1667,94.5 63.1667,96.5 64.5,98.5C 62.5284,100.319 60.1951,101.319 57.5,101.5C 57.2965,99.6096 57.9632,98.1096 59.5,97C 58.5842,96.7216 57.9175,96.2216 57.5,95.5C 58.8793,95.3285 60.5459,95.1618 62.5,95C 59.6015,90.6828 60.2682,89.8495 64.5,92.5 Z"/></g>
<g><path style="opacity:1" fill="#fa948f" d="M 124.5,94.5 C 123.128,98.0136 121.461,101.347 119.5,104.5C 118.167,104.5 117.5,105.167 117.5,106.5C 116.833,106.5 116.167,106.5 115.5,106.5C 115.082,105.778 114.416,105.278 113.5,105C 115.693,103.936 117.693,102.602 119.5,101C 118.5,100.667 117.5,100.333 116.5,100C 118.256,99.7978 119.922,99.2978 121.5,98.5C 121.137,97.8165 120.804,97.1499 120.5,96.5C 120.5,96.1667 120.5,95.8333 120.5,95.5C 121.338,95.1583 121.672,94.4916 121.5,93.5C 122.117,93.6107 122.617,93.944 123,94.5C 123.779,91.9028 124.279,91.9028 124.5,94.5 Z"/></g>
<g><path style="opacity:1" fill="#ffc6aa" d="M 106.5,90.5 C 105.391,91.29 104.058,91.79 102.5,92C 103.167,92.3333 103.833,92.6667 104.5,93C 102.073,93.6272 100.073,94.7938 98.5,96.5C 96.7162,96.8925 95.0495,97.5592 93.5,98.5C 91.5,98.5 89.5,98.5 87.5,98.5C 91.961,96.4357 96.2943,94.1023 100.5,91.5C 102.379,90.6586 104.379,90.3253 106.5,90.5 Z"/></g>
<g><path style="opacity:0.773" fill="#e7aeb1" d="M 126.5,92.5 C 126.5,93.5 126.5,94.5 126.5,95.5C 125.069,98.7009 123.403,101.701 121.5,104.5C 120.833,104.5 120.167,104.5 119.5,104.5C 121.461,101.347 123.128,98.0136 124.5,94.5C 125.167,93.8333 125.833,93.1667 126.5,92.5 Z"/></g>
<g><path style="opacity:1" fill="#faaa89" d="M 105.5,97.5 C 105.5,98.1667 105.5,98.8333 105.5,99.5C 103.806,101.861 101.806,103.861 99.5,105.5C 98.5,105.5 97.5,105.5 96.5,105.5C 96.9175,104.778 97.5842,104.278 98.5,104C 96.8333,103 95.1667,102 93.5,101C 95.249,100.215 96.9157,99.3818 98.5,98.5C 100.114,97.7286 101.614,96.7286 103,95.5C 104.011,96.0556 104.844,96.7222 105.5,97.5 Z"/></g>
<g><path style="opacity:1" fill="#fe9a92" d="M 118.5,96.5 C 119.167,96.5 119.833,96.5 120.5,96.5C 120.804,97.1499 121.137,97.8165 121.5,98.5C 119.922,99.2978 118.256,99.7978 116.5,100C 117.5,100.333 118.5,100.667 119.5,101C 117.693,102.602 115.693,103.936 113.5,105C 114.416,105.278 115.082,105.778 115.5,106.5C 113.018,108.456 110.352,108.789 107.5,107.5C 107.167,108.167 106.833,108.833 106.5,109.5C 105.817,109.137 105.15,108.804 104.5,108.5C 105.167,107.5 105.833,106.5 106.5,105.5C 108.156,103.54 109.823,101.54 111.5,99.5C 112.794,98.7101 113.961,97.7101 115,96.5C 115.519,97.5156 116.353,98.1822 117.5,98.5C 119.721,98.5613 120.054,97.8946 118.5,96.5 Z"/></g>
<g><path style="opacity:1" fill="#fedcd2" d="M 64.5,99.5 C 65.3382,99.8417 65.6716,100.508 65.5,101.5C 64.7451,104.053 64.0784,106.72 63.5,109.5C 62.7784,109.918 62.2784,110.584 62,111.5C 61.1932,107.551 60.6932,107.551 60.5,111.5C 59.5,111.5 58.5,111.5 57.5,111.5C 57.2965,109.61 57.9632,108.11 59.5,107C 56.7236,105.221 57.0569,104.221 60.5,104C 61.7332,102.333 63.0665,100.833 64.5,99.5 Z"/></g>
<g><path style="opacity:1" fill="#fdbd98" d="M 98.5,96.5 C 98.5,97.1667 98.5,97.8333 98.5,98.5C 96.9157,99.3818 95.249,100.215 93.5,101C 95.1667,102 96.8333,103 98.5,104C 97.5842,104.278 96.9175,104.778 96.5,105.5C 96.1961,106.15 95.8627,106.817 95.5,107.5C 96.9856,109.302 97.9856,111.302 98.5,113.5C 97.8333,113.833 97.1667,114.167 96.5,114.5C 95.8166,112.824 94.4832,112.157 92.5,112.5C 91.2946,111.314 89.9613,111.314 88.5,112.5C 88.5,112.167 88.5,111.833 88.5,111.5C 90.9646,110.753 92.9646,109.253 94.5,107C 93.1667,106.667 91.8333,106.333 90.5,106C 89.3595,105.259 89.3595,104.425 90.5,103.5C 89.675,102.614 88.675,102.281 87.5,102.5C 89.751,101.589 91.751,100.256 93.5,98.5C 95.0495,97.5592 96.7162,96.8925 98.5,96.5 Z"/></g>
<g><path style="opacity:1" fill="#ffd2d3" d="M 109.5,97.5 C 110.167,98.1667 110.833,98.8333 111.5,99.5C 109.823,101.54 108.156,103.54 106.5,105.5C 104.906,105.92 103.406,106.586 102,107.5C 100.989,106.944 100.156,106.278 99.5,105.5C 101.806,103.861 103.806,101.861 105.5,99.5C 107.062,99.2671 108.395,98.6005 109.5,97.5 Z"/></g>
<g><path style="opacity:1" fill="#fed8d8" d="M 69.5,89.5 C 70.6225,91.5184 70.6225,93.5184 69.5,95.5C 70.5923,98.0237 71.9257,100.357 73.5,102.5C 73.5,104.5 73.5,106.5 73.5,108.5C 71.8762,108.64 70.7096,107.973 70,106.5C 69.2438,108.809 69.7438,110.809 71.5,112.5C 70.675,113.386 69.675,113.719 68.5,113.5C 66.1759,113.123 65.5092,112.123 66.5,110.5C 67.8946,112.054 68.5613,111.721 68.5,109.5C 68.0234,107.403 67.3567,105.403 66.5,103.5C 66.8413,99.9887 66.8413,96.322 66.5,92.5C 66.8102,90.8564 67.8102,89.8564 69.5,89.5 Z"/></g>
<g><path style="opacity:1" fill="#fec297" d="M 74.5,99.5 C 76.1436,99.8102 77.1436,100.81 77.5,102.5C 78.0899,103.766 78.5899,105.099 79,106.5C 81.1917,105.601 83.3584,104.601 85.5,103.5C 86.944,104.981 87.6106,104.648 87.5,102.5C 88.675,102.281 89.675,102.614 90.5,103.5C 89.3595,104.425 89.3595,105.259 90.5,106C 91.8333,106.333 93.1667,106.667 94.5,107C 92.9646,109.253 90.9646,110.753 88.5,111.5C 87.2502,111.423 86.4169,110.756 86,109.5C 84.077,110.316 82.077,110.983 80,111.5C 79.2867,109.287 77.7867,107.954 75.5,107.5C 74.5655,106.432 74.2322,105.099 74.5,103.5C 75.6857,102.295 75.6857,100.961 74.5,99.5 Z"/></g>
<g><path style="opacity:1" fill="#fec7a0" d="M 87.5,98.5 C 89.5,98.5 91.5,98.5 93.5,98.5C 91.751,100.256 89.751,101.589 87.5,102.5C 87.6106,104.648 86.944,104.981 85.5,103.5C 83.3584,104.601 81.1917,105.601 79,106.5C 78.5899,105.099 78.0899,103.766 77.5,102.5C 78.2362,100.771 79.5695,99.7706 81.5,99.5C 83.5,99.1667 85.5,98.8333 87.5,98.5 Z"/></g>
<g><path style="opacity:0.013" fill="#fff3f3" d="M 119.5,104.5 C 120.167,104.5 120.833,104.5 121.5,104.5C 119.866,105.955 118.532,107.622 117.5,109.5C 117.5,108.5 117.5,107.5 117.5,106.5C 117.5,105.167 118.167,104.5 119.5,104.5 Z"/></g>
<g><path style="opacity:1" fill="#ffe3de" d="M 57.5,95.5 C 57.9175,96.2216 58.5842,96.7216 59.5,97C 57.9632,98.1096 57.2965,99.6096 57.5,101.5C 60.1951,101.319 62.5284,100.319 64.5,98.5C 64.5,98.8333 64.5,99.1667 64.5,99.5C 63.0665,100.833 61.7332,102.333 60.5,104C 57.0569,104.221 56.7236,105.221 59.5,107C 57.9632,108.11 57.2965,109.61 57.5,111.5C 57.5,112.167 57.5,112.833 57.5,113.5C 55.7868,112.365 55.1201,110.698 55.5,108.5C 55.9154,104.713 55.9154,101.046 55.5,97.5C 56.1667,96.8333 56.8333,96.1667 57.5,95.5 Z"/></g>
<g><path style="opacity:1" fill="#fff0f6" d="M 65.5,101.5 C 66.3382,101.842 66.6716,102.508 66.5,103.5C 67.3567,105.403 68.0234,107.403 68.5,109.5C 68.5613,111.721 67.8946,112.054 66.5,110.5C 65.8333,110.5 65.1667,110.5 64.5,110.5C 63.8333,110.5 63.5,110.167 63.5,109.5C 64.0784,106.72 64.7451,104.053 65.5,101.5 Z"/></g>
<g><path style="opacity:1" fill="#ffdddc" d="M 73.5,102.5 C 74.1667,102.5 74.5,102.833 74.5,103.5C 74.2322,105.099 74.5655,106.432 75.5,107.5C 75.8308,109.322 76.4975,110.989 77.5,112.5C 77.5449,115.077 76.5449,117.077 74.5,118.5C 74.1667,118.5 73.8333,118.5 73.5,118.5C 71.6397,117.061 69.973,115.395 68.5,113.5C 69.675,113.719 70.675,113.386 71.5,112.5C 69.7438,110.809 69.2438,108.809 70,106.5C 70.7096,107.973 71.8762,108.64 73.5,108.5C 73.5,106.5 73.5,104.5 73.5,102.5 Z"/></g>
<g><path style="opacity:1" fill="#ffd6d5" d="M 96.5,105.5 C 97.5,105.5 98.5,105.5 99.5,105.5C 100.156,106.278 100.989,106.944 102,107.5C 103.406,106.586 104.906,105.92 106.5,105.5C 105.833,106.5 105.167,107.5 104.5,108.5C 102.5,110.167 100.5,111.833 98.5,113.5C 97.9856,111.302 96.9856,109.302 95.5,107.5C 95.8627,106.817 96.1961,106.15 96.5,105.5 Z"/></g>
<g><path style="opacity:1" fill="#feeff6" d="M 47.5,101.5 C 46.3984,103.092 47.065,103.925 49.5,104C 47.6734,104.899 46.34,106.233 45.5,108C 45.6667,108.5 45.8333,109 46,109.5C 46.6708,108.748 47.5041,108.414 48.5,108.5C 49.1738,110.024 50.1738,111.358 51.5,112.5C 51.3764,113.107 51.0431,113.44 50.5,113.5C 49.6136,112.224 48.6136,112.224 47.5,113.5C 48.0998,118.71 49.4331,123.71 51.5,128.5C 49.6073,125.386 47.4407,122.386 45,119.5C 42.27,114.267 42.27,108.934 45,103.5C 45.4169,102.244 46.2502,101.577 47.5,101.5 Z"/></g>
<g><path style="opacity:1" fill="#ffeaf0" d="M 55.5,108.5 C 55.1201,110.698 55.7868,112.365 57.5,113.5C 58.3382,113.842 58.6716,114.508 58.5,115.5C 58.5,116.167 58.1667,116.5 57.5,116.5C 55.0633,115.35 52.73,114.35 50.5,113.5C 51.0431,113.44 51.3764,113.107 51.5,112.5C 50.1738,111.358 49.1738,110.024 48.5,108.5C 48.62,107.414 49.2867,106.747 50.5,106.5C 52.0564,107.547 53.7231,108.214 55.5,108.5 Z"/></g>
<g><path style="opacity:1" fill="#edaca0" d="M 63.5,109.5 C 63.5,110.167 63.8333,110.5 64.5,110.5C 64.3398,112.199 64.5065,113.866 65,115.5C 67.0714,116.103 68.2381,117.436 68.5,119.5C 67.1266,119.657 65.7932,119.49 64.5,119C 63.8102,116.304 62.3102,114.137 60,112.5C 59.7679,113.737 59.2679,114.737 58.5,115.5C 58.6716,114.508 58.3382,113.842 57.5,113.5C 57.5,112.833 57.5,112.167 57.5,111.5C 58.5,111.5 59.5,111.5 60.5,111.5C 60.6932,107.551 61.1932,107.551 62,111.5C 62.2784,110.584 62.7784,109.918 63.5,109.5 Z"/></g>
<g><path style="opacity:1" fill="#fbb88c" d="M 75.5,107.5 C 77.7867,107.954 79.2867,109.287 80,111.5C 82.077,110.983 84.077,110.316 86,109.5C 86.4169,110.756 87.2502,111.423 88.5,111.5C 88.5,111.833 88.5,112.167 88.5,112.5C 86.3153,112.888 84.482,113.888 83,115.5C 81.2355,114.368 79.4021,113.368 77.5,112.5C 76.4975,110.989 75.8308,109.322 75.5,107.5 Z"/></g>
<g><path style="opacity:1" fill="#e19d9c" d="M 114.5,112.5 C 114.167,113.167 113.833,113.833 113.5,114.5C 109.055,115.22 105.388,117.22 102.5,120.5C 101.833,120.5 101.167,120.5 100.5,120.5C 100.5,119.833 100.5,119.167 100.5,118.5C 104.645,116.013 108.645,113.346 112.5,110.5C 113.522,110.855 114.189,111.522 114.5,112.5 Z"/></g>
<g><path style="opacity:0.01" fill="#e3fffe" d="M 114.5,112.5 C 114.833,112.5 115.167,112.5 115.5,112.5C 116.66,114.203 115.993,114.869 113.5,114.5C 113.833,113.833 114.167,113.167 114.5,112.5 Z"/></g>
<g><path style="opacity:1" fill="#fcb2ab" d="M 115.5,106.5 C 116.167,106.5 116.833,106.5 117.5,106.5C 117.5,107.5 117.5,108.5 117.5,109.5C 117.715,111.179 117.048,112.179 115.5,112.5C 115.167,112.5 114.833,112.5 114.5,112.5C 114.189,111.522 113.522,110.855 112.5,110.5C 108.645,113.346 104.645,116.013 100.5,118.5C 100.635,116.446 99.968,114.779 98.5,113.5C 100.5,111.833 102.5,110.167 104.5,108.5C 105.15,108.804 105.817,109.137 106.5,109.5C 106.833,108.833 107.167,108.167 107.5,107.5C 110.352,108.789 113.018,108.456 115.5,106.5 Z"/></g>
<g><path style="opacity:1" fill="#fed9d8" d="M 92.5,112.5 C 88.187,115.919 83.5203,117.919 78.5,118.5C 77.1667,118.5 75.8333,118.5 74.5,118.5C 76.5449,117.077 77.5449,115.077 77.5,112.5C 79.4021,113.368 81.2355,114.368 83,115.5C 84.482,113.888 86.3153,112.888 88.5,112.5C 89.9613,111.314 91.2946,111.314 92.5,112.5 Z"/></g>
<g><path style="opacity:1" fill="#fff0f4" d="M 92.5,112.5 C 94.4832,112.157 95.8166,112.824 96.5,114.5C 95.5084,114.328 94.8417,114.662 94.5,115.5C 90.6567,117.834 86.49,119.5 82,120.5C 80.5405,120.192 79.3739,119.525 78.5,118.5C 83.5203,117.919 88.187,115.919 92.5,112.5 Z"/></g>
<g><path style="opacity:1" fill="#f5d5e1" d="M 50.5,113.5 C 52.73,114.35 55.0633,115.35 57.5,116.5C 56.7095,117.401 55.7095,118.068 54.5,118.5C 53.6836,120.144 52.3502,121.31 50.5,122C 51.4059,124.221 52.4059,126.388 53.5,128.5C 56.5579,130.024 59.2245,132.024 61.5,134.5C 57.2066,134.023 53.8733,132.023 51.5,128.5C 49.4331,123.71 48.0998,118.71 47.5,113.5C 48.6136,112.224 49.6136,112.224 50.5,113.5 Z"/></g>
<g><path style="opacity:1" fill="#fec6bd" d="M 64.5,110.5 C 65.1667,110.5 65.8333,110.5 66.5,110.5C 65.5092,112.123 66.1759,113.123 68.5,113.5C 69.973,115.395 71.6397,117.061 73.5,118.5C 75.3713,119.797 77.3713,120.797 79.5,121.5C 75.6452,122.246 71.9785,121.579 68.5,119.5C 68.2381,117.436 67.0714,116.103 65,115.5C 64.5065,113.866 64.3398,112.199 64.5,110.5 Z"/></g>
<g><path style="opacity:1" fill="#febfb5" d="M 98.5,113.5 C 99.968,114.779 100.635,116.446 100.5,118.5C 99.7321,119.263 99.2321,120.263 99,121.5C 97.6651,120.92 96.4985,120.587 95.5,120.5C 95.631,119.761 95.4643,119.094 95,118.5C 94.1072,119.711 93.2739,119.711 92.5,118.5C 93.1925,117.482 93.8592,116.482 94.5,115.5C 94.8417,114.662 95.5084,114.328 96.5,114.5C 97.1667,114.167 97.8333,113.833 98.5,113.5 Z"/></g>
<g><path style="opacity:1" fill="#f7d4e2" d="M 68.5,119.5 C 68.5,120.167 68.5,120.833 68.5,121.5C 67.325,121.281 66.325,121.614 65.5,122.5C 69.2204,124.567 68.8871,126.234 64.5,127.5C 63.2617,127.19 63.2617,126.69 64.5,126C 62.5273,125.505 60.5273,125.338 58.5,125.5C 58.9175,124.778 59.5842,124.278 60.5,124C 58.8094,121.736 56.8094,119.902 54.5,118.5C 55.7095,118.068 56.7095,117.401 57.5,116.5C 58.1667,116.5 58.5,116.167 58.5,115.5C 59.2679,114.737 59.7679,113.737 60,112.5C 62.3102,114.137 63.8102,116.304 64.5,119C 65.7932,119.49 67.1266,119.657 68.5,119.5 Z"/></g>
<g><path style="opacity:1" fill="#faafa7" d="M 94.5,115.5 C 93.8592,116.482 93.1925,117.482 92.5,118.5C 93.2739,119.711 94.1072,119.711 95,118.5C 95.4643,119.094 95.631,119.761 95.5,120.5C 91.5236,121.295 87.5236,121.962 83.5,122.5C 82.4324,121.566 81.099,121.232 79.5,121.5C 77.3713,120.797 75.3713,119.797 73.5,118.5C 73.8333,118.5 74.1667,118.5 74.5,118.5C 75.8333,118.5 77.1667,118.5 78.5,118.5C 79.3739,119.525 80.5405,120.192 82,120.5C 86.49,119.5 90.6567,117.834 94.5,115.5 Z"/></g>
<g><path style="opacity:1" fill="#fbdbeb" d="M 54.5,118.5 C 56.8094,119.902 58.8094,121.736 60.5,124C 59.5842,124.278 58.9175,124.778 58.5,125.5C 57.656,127.759 55.9893,128.759 53.5,128.5C 52.4059,126.388 51.4059,124.221 50.5,122C 52.3502,121.31 53.6836,120.144 54.5,118.5 Z"/></g>
<g><path style="opacity:1" fill="#f29d99" d="M 68.5,119.5 C 71.9785,121.579 75.6452,122.246 79.5,121.5C 81.099,121.232 82.4324,121.566 83.5,122.5C 84.2625,123.268 85.2625,123.768 86.5,124C 81.9279,124.326 77.5945,124.492 73.5,124.5C 71.326,124.25 69.6594,123.25 68.5,121.5C 68.5,120.833 68.5,120.167 68.5,119.5 Z"/></g>
<g><path style="opacity:0.047" fill="#fff0f1" d="M 100.5,120.5 C 101.167,120.5 101.833,120.5 102.5,120.5C 102.5,121.833 101.833,122.5 100.5,122.5C 100.5,121.833 100.5,121.167 100.5,120.5 Z"/></g>
<g><path style="opacity:0.004" fill="#feecef" d="M 100.5,122.5 C 100.027,123.906 99.0269,124.573 97.5,124.5C 97.9731,123.094 98.9731,122.427 100.5,122.5 Z"/></g>
<g><path style="opacity:1" fill="#e18280" d="M 100.5,118.5 C 100.5,119.167 100.5,119.833 100.5,120.5C 100.5,121.167 100.5,121.833 100.5,122.5C 98.9731,122.427 97.9731,123.094 97.5,124.5C 96.2921,125.234 94.9587,125.567 93.5,125.5C 88.9902,125.886 84.6569,126.886 80.5,128.5C 79.7326,127.828 79.0659,126.995 78.5,126C 76.6183,125.802 74.9516,125.302 73.5,124.5C 77.5945,124.492 81.9279,124.326 86.5,124C 85.2625,123.768 84.2625,123.268 83.5,122.5C 87.5236,121.962 91.5236,121.295 95.5,120.5C 96.4985,120.587 97.6651,120.92 99,121.5C 99.2321,120.263 99.7321,119.263 100.5,118.5 Z"/></g>
<g><path style="opacity:1" fill="#fddded" d="M 68.5,121.5 C 69.6594,123.25 71.326,124.25 73.5,124.5C 74.9516,125.302 76.6183,125.802 78.5,126C 79.0659,126.995 79.7326,127.828 80.5,128.5C 80.4226,129.75 79.756,130.583 78.5,131C 76.1873,131.662 73.854,132.162 71.5,132.5C 65.6862,131.993 65.3529,130.827 70.5,129C 69.6667,128.833 68.8333,128.667 68,128.5C 66.6244,128.684 65.7911,129.351 65.5,130.5C 64.8826,130.611 64.3826,130.944 64,131.5C 62.6684,130.838 61.5018,129.672 60.5,128C 62.0187,128.331 63.352,128.164 64.5,127.5C 68.8871,126.234 69.2204,124.567 65.5,122.5C 66.325,121.614 67.325,121.281 68.5,121.5 Z"/></g>
<g><path style="opacity:1" fill="#fcdcec" d="M 58.5,125.5 C 60.5273,125.338 62.5273,125.505 64.5,126C 63.2617,126.69 63.2617,127.19 64.5,127.5C 63.352,128.164 62.0187,128.331 60.5,128C 61.5018,129.672 62.6684,130.838 64,131.5C 64.3826,130.944 64.8826,130.611 65.5,130.5C 67.1723,133.337 66.5056,134.004 63.5,132.5C 62.3044,132.846 62.3044,133.346 63.5,134C 62.9056,134.464 62.2389,134.631 61.5,134.5C 59.2245,132.024 56.5579,130.024 53.5,128.5C 55.9893,128.759 57.656,127.759 58.5,125.5 Z"/></g>
<g><path style="opacity:0.843" fill="#f2d0d9" d="M 93.5,125.5 C 90.2771,129.946 85.9438,132.613 80.5,133.5C 79.5832,132.873 78.5832,132.539 77.5,132.5C 75.3469,133.573 73.3469,133.573 71.5,132.5C 73.854,132.162 76.1873,131.662 78.5,131C 79.756,130.583 80.4226,129.75 80.5,128.5C 84.6569,126.886 88.9902,125.886 93.5,125.5 Z"/></g>
<g><path style="opacity:1" fill="#f9dfea" d="M 71.5,132.5 C 73.3469,133.573 75.3469,133.573 77.5,132.5C 77.3893,133.117 77.056,133.617 76.5,134C 73.0774,134.549 69.744,135.382 66.5,136.5C 64.4434,136.564 62.7767,135.898 61.5,134.5C 62.2389,134.631 62.9056,134.464 63.5,134C 62.3044,133.346 62.3044,132.846 63.5,132.5C 66.5056,134.004 67.1723,133.337 65.5,130.5C 65.7911,129.351 66.6244,128.684 68,128.5C 68.8333,128.667 69.6667,128.833 70.5,129C 65.3529,130.827 65.6862,131.993 71.5,132.5 Z"/></g>
<g><path style="opacity:0.661" fill="#ffa9b4" d="M 48.5,131.5 C 52.1916,133.344 55.5249,135.677 58.5,138.5C 56.7408,139.754 55.2408,139.421 54,137.5C 51.6667,140.5 49.3333,143.5 47,146.5C 46.5,146 46,145.5 45.5,145C 47.5,142 49.5,139 51.5,136C 48.7814,135.195 47.7814,133.695 48.5,131.5 Z"/></g>
<g><path style="opacity:0.789" fill="#ffa8b3" d="M 118.5,143.5 C 118.045,140.797 117.378,138.13 116.5,135.5C 116.833,134.833 117.167,134.167 117.5,133.5C 119.555,137.328 121.221,141.328 122.5,145.5C 121.675,146.386 120.675,146.719 119.5,146.5C 119.737,145.209 119.404,144.209 118.5,143.5 Z"/></g>
<g><path style="opacity:0.779" fill="#ffaab4" d="M 118.5,143.5 C 118.703,145.39 118.037,146.89 116.5,148C 114.649,148.837 112.816,149.671 111,150.5C 108.454,146.388 107.287,142.055 107.5,137.5C 108.249,139.012 109.416,140.012 111,140.5C 114.551,138.886 117.051,139.886 118.5,143.5 Z M 110.5,142.5 C 112.167,142.5 113.833,142.5 115.5,142.5C 115.5,143.833 115.5,145.167 115.5,146.5C 111.918,148.161 110.252,146.827 110.5,142.5 Z"/></g>
<g><path style="opacity:0.695" fill="#ffa9b5" d="M 62.5,139.5 C 69.0001,138.499 71.5001,141.165 70,147.5C 68.205,154.205 64.5383,155.205 59,150.5C 58.2571,148.559 58.4238,146.726 59.5,145C 62.2305,144.272 64.8971,144.438 67.5,145.5C 68.6069,143.231 67.7735,141.898 65,141.5C 62.0499,143.044 61.2166,142.378 62.5,139.5 Z M 61.5,146.5 C 63.6547,146.372 65.6547,146.872 67.5,148C 65.362,151.104 63.0287,151.27 60.5,148.5C 60.8627,147.817 61.1961,147.15 61.5,146.5 Z"/></g>
<g><path style="opacity:0.638" fill="#ffa9b4" d="M 101.5,139.5 C 102.478,139.811 103.145,140.478 103.5,141.5C 101.955,142.452 100.288,142.785 98.5,142.5C 99.4603,146.195 99.4603,149.861 98.5,153.5C 96.9385,150.037 96.1051,146.37 96,142.5C 94.5064,143.747 93.0064,143.747 91.5,142.5C 91.7093,141.914 92.0426,141.414 92.5,141C 95.6946,140.819 98.6946,140.319 101.5,139.5 Z"/></g>
<g><path style="opacity:0.73" fill="#ffa9b4" d="M 77.5,141.5 C 79.0358,143.025 80.0358,145.025 80.5,147.5C 81.941,146.135 83.2744,144.635 84.5,143C 85.635,142.251 86.635,142.417 87.5,143.5C 86.1667,145.167 84.8333,146.833 83.5,148.5C 84.5,150.5 85.5,152.5 86.5,154.5C 86,154.833 85.5,155.167 85,155.5C 83.3514,154.214 82.1847,152.547 81.5,150.5C 80.675,149.614 79.675,149.281 78.5,149.5C 78.7852,151.288 78.4519,152.955 77.5,154.5C 77.1667,153.167 76.8333,151.833 76.5,150.5C 76.9657,147.508 77.2991,144.508 77.5,141.5 Z"/></g>
</svg>
