<?xml version="1.0" encoding="UTF-8"?>
<!DOCTYPE svg PUBLIC "-//W3C//DTD SVG 1.1//EN" "http://www.w3.org/Graphics/SVG/1.1/DTD/svg11.dtd">
<svg xmlns="http://www.w3.org/2000/svg" version="1.1" width="175px" height="175px" style="shape-rendering:geometricPrecision; text-rendering:geometricPrecision; image-rendering:optimizeQuality; fill-rule:evenodd; clip-rule:evenodd" xmlns:xlink="http://www.w3.org/1999/xlink">
<g><path style="opacity:0.664" fill="#ffc599" d="M 86.5,20.5 C 93.436,22.7155 95.1027,27.0489 91.5,33.5C 85.4278,36.9791 81.7612,35.1458 80.5,28C 80.9278,24.087 82.9278,21.587 86.5,20.5 Z M 85.5,23.5 C 90.1522,24.1035 91.6522,26.7702 90,31.5C 86.2589,34.0455 84.0923,32.8788 83.5,28C 83.5186,26.167 84.1852,24.667 85.5,23.5 Z"/></g>
<g><path style="opacity:0.664" fill="#ffc599" d="M 71.5,22.5 C 72.4972,22.4701 73.1639,22.9701 73.5,24C 72.7636,26.1394 71.7636,28.1394 70.5,30C 72.9768,31.6427 75.3102,33.476 77.5,35.5C 76.635,36.5827 75.635,36.7494 74.5,36C 72.6951,35.028 71.0284,33.8613 69.5,32.5C 69.1667,34.5 68.8333,36.5 68.5,38.5C 66.2408,34.8612 64.5742,30.8612 63.5,26.5C 63.8076,25.6919 64.3076,25.0253 65,24.5C 66.1853,26.3772 67.1853,28.3772 68,30.5C 69.0764,27.7627 70.243,25.096 71.5,22.5 Z"/></g>
<g><path style="opacity:0.689" fill="#ffc599" d="M 100.5,22.5 C 101.5,22.5 102.5,22.5 103.5,22.5C 103.167,24.5 102.833,26.5 102.5,28.5C 104.5,28.8333 106.5,29.1667 108.5,29.5C 108.116,27.3352 108.783,25.6685 110.5,24.5C 110.833,25 111.167,25.5 111.5,26C 110.496,29.7006 109.496,33.3672 108.5,37C 107.4,37.4317 106.733,36.9317 106.5,35.5C 106.68,34.4461 107.013,33.4461 107.5,32.5C 105.892,31.6816 104.225,31.0149 102.5,30.5C 101.684,32.2873 100.684,33.9539 99.5,35.5C 99.1667,34.8333 98.8333,34.1667 98.5,33.5C 99.4263,29.8697 100.093,26.203 100.5,22.5 Z"/></g>
<g><path style="opacity:1" fill="#bfb373" d="M 95.5,41.5 C 99.8982,41.2941 104.232,41.6274 108.5,42.5C 108.918,43.2216 109.584,43.7216 110.5,44C 110.272,44.3988 109.938,44.5654 109.5,44.5C 107.236,43.7814 104.903,43.448 102.5,43.5C 99.8333,43.5 97.1667,43.5 94.5,43.5C 94.5,43.1667 94.5,42.8333 94.5,42.5C 95.1667,42.5 95.5,42.1667 95.5,41.5 Z"/></g>
<g><path style="opacity:0.275" fill="#e4e5b2" d="M 95.5,41.5 C 95.5,42.1667 95.1667,42.5 94.5,42.5C 87.954,42.9412 81.6206,44.2746 75.5,46.5C 76.0577,45.2101 77.0577,44.3768 78.5,44C 84.0146,42.1096 89.6812,41.2763 95.5,41.5 Z"/></g>
<g><path style="opacity:1" fill="#dfb463" d="M 94.5,42.5 C 94.5,42.8333 94.5,43.1667 94.5,43.5C 93.0028,44.3058 91.3361,44.9724 89.5,45.5C 88.914,45.2907 88.414,44.9574 88,44.5C 87.51,45.7932 87.3433,47.1266 87.5,48.5C 85.3641,49.7189 83.0307,50.5522 80.5,51C 81.6721,51.4186 82.6721,52.0853 83.5,53C 82.0577,53.3768 81.0577,54.2101 80.5,55.5C 79.1667,56.5 77.8333,57.5 76.5,58.5C 75.1346,56.4091 74.4679,54.0758 74.5,51.5C 73.5,51.5 72.5,51.5 71.5,51.5C 71.7329,49.9382 72.3995,48.6049 73.5,47.5C 73.8417,46.6618 74.5084,46.3284 75.5,46.5C 81.6206,44.2746 87.954,42.9412 94.5,42.5 Z"/></g>
<g><path style="opacity:1" fill="#d0a060" d="M 99.5,47.5 C 99.5,47.8333 99.5,48.1667 99.5,48.5C 98.7784,48.9175 98.2784,49.5842 98,50.5C 97.6667,50.1667 97.3333,49.8333 97,49.5C 94.9419,50.2291 93.1086,51.2291 91.5,52.5C 90.1667,53.1667 88.8333,53.8333 87.5,54.5C 86.5041,54.5858 85.6708,54.2524 85,53.5C 83.6703,54.5822 82.1703,55.2488 80.5,55.5C 81.0577,54.2101 82.0577,53.3768 83.5,53C 82.6721,52.0853 81.6721,51.4186 80.5,51C 83.0307,50.5522 85.3641,49.7189 87.5,48.5C 89.451,48.7733 90.951,48.1066 92,46.5C 94.3806,47.435 96.8806,47.7683 99.5,47.5 Z"/></g>
<g><path style="opacity:1" fill="#e49f60" d="M 99.5,47.5 C 102.516,47.8406 105.182,49.0073 107.5,51C 106.058,51.3768 105.058,52.2101 104.5,53.5C 101.665,52.9305 99.9988,51.2639 99.5,48.5C 99.5,48.1667 99.5,47.8333 99.5,47.5 Z"/></g>
<g><path style="opacity:1" fill="#f1f0b4" d="M 63.5,54.5 C 61.7448,55.2403 60.0782,55.5737 58.5,55.5C 56.6987,57.5873 56.3654,59.9206 57.5,62.5C 56.302,62.9396 55.1353,63.273 54,63.5C 52.324,62.9389 50.9906,61.9389 50,60.5C 49.8138,63.0356 49.3138,65.369 48.5,67.5C 48.7454,62.9464 48.4121,58.4464 47.5,54C 48.752,51.0572 49.752,48.0572 50.5,45C 55.8365,44.6711 58.8365,47.1711 59.5,52.5C 60.7658,53.3624 62.0992,54.0291 63.5,54.5 Z"/></g>
<g><path style="opacity:1" fill="#f0ce8e" d="M 94.5,43.5 C 97.1667,43.5 99.8333,43.5 102.5,43.5C 105.008,45.554 108.008,46.554 111.5,46.5C 111.325,48.6208 111.659,50.6208 112.5,52.5C 111.127,52.3433 109.793,52.51 108.5,53C 109.756,53.4169 110.423,54.2502 110.5,55.5C 108.579,54.6373 106.579,53.9707 104.5,53.5C 105.058,52.2101 106.058,51.3768 107.5,51C 105.182,49.0073 102.516,47.8406 99.5,47.5C 96.8806,47.7683 94.3806,47.435 92,46.5C 90.951,48.1066 89.451,48.7733 87.5,48.5C 87.3433,47.1266 87.51,45.7932 88,44.5C 88.414,44.9574 88.914,45.2907 89.5,45.5C 91.3361,44.9724 93.0028,44.3058 94.5,43.5 Z"/></g>
<g><path style="opacity:1" fill="#b67a43" d="M 99.5,48.5 C 99.9988,51.2639 101.665,52.9305 104.5,53.5C 106.593,58.2011 105.259,61.2011 100.5,62.5C 99.8333,62.1667 99.1667,61.8333 98.5,61.5C 100.078,59.6253 99.7448,58.2919 97.5,57.5C 98.3007,55.9582 98.634,54.2915 98.5,52.5C 96.1667,52.5 93.8333,52.5 91.5,52.5C 93.1086,51.2291 94.9419,50.2291 97,49.5C 97.3333,49.8333 97.6667,50.1667 98,50.5C 98.2784,49.5842 98.7784,48.9175 99.5,48.5 Z"/></g>
<g><path style="opacity:1" fill="#f0e2a4" d="M 102.5,43.5 C 104.903,43.448 107.236,43.7814 109.5,44.5C 114.274,45.9288 118.274,48.5955 121.5,52.5C 118.719,52.9065 115.719,52.9065 112.5,52.5C 111.659,50.6208 111.325,48.6208 111.5,46.5C 108.008,46.554 105.008,45.554 102.5,43.5 Z"/></g>
<g><path style="opacity:0.008" fill="#feffd7" d="M 45.5,52.5 C 46.525,52.8966 46.6917,53.5632 46,54.5C 45.5357,53.9056 45.369,53.2389 45.5,52.5 Z"/></g>
<g><path style="opacity:1" fill="#7f6532" d="M 91.5,52.5 C 93.8333,52.5 96.1667,52.5 98.5,52.5C 98.634,54.2915 98.3007,55.9582 97.5,57.5C 95.5891,57.5743 94.4224,58.5743 94,60.5C 93.586,60.0426 93.086,59.7093 92.5,59.5C 91.7348,60.6119 90.7348,61.2786 89.5,61.5C 90.0102,58.6122 89.3435,56.2789 87.5,54.5C 88.8333,53.8333 90.1667,53.1667 91.5,52.5 Z"/></g>
<g><path style="opacity:0.961" fill="#d7d5a2" d="M 108.5,42.5 C 119.222,44.054 126.055,50.054 129,60.5C 129.914,59.3463 130.747,59.513 131.5,61C 130.692,61.3076 130.025,61.8076 129.5,62.5C 132.44,70.2685 132.94,78.2685 131,86.5C 129.348,89.5081 127.848,92.5081 126.5,95.5C 126.5,94.5 126.5,93.5 126.5,92.5C 126.433,91.0413 126.766,89.7079 127.5,88.5C 128.148,86.5018 128.981,84.5018 130,82.5C 130.497,80.1902 130.663,77.8568 130.5,75.5C 130.054,70.1752 128.721,65.1752 126.5,60.5C 125.564,57.3288 123.897,54.6621 121.5,52.5C 118.274,48.5955 114.274,45.9288 109.5,44.5C 109.938,44.5654 110.272,44.3988 110.5,44C 109.584,43.7216 108.918,43.2216 108.5,42.5 Z"/></g>
<g><path style="opacity:1" fill="#d3cb77" d="M 73.5,47.5 C 72.3995,48.6049 71.7329,49.9382 71.5,51.5C 70.5084,51.3284 69.8417,51.6618 69.5,52.5C 67.3459,53.8238 65.6793,55.6571 64.5,58C 64.079,61.842 64.079,65.6753 64.5,69.5C 64.44,70.0431 64.1067,70.3764 63.5,70.5C 62.8302,68.7086 62.1635,67.0419 61.5,65.5C 61.2317,62.8806 61.565,60.3806 62.5,58C 60.9336,57.3918 59.6002,56.5585 58.5,55.5C 60.0782,55.5737 61.7448,55.2403 63.5,54.5C 64.7772,52.8516 65.7772,51.0183 66.5,49C 67.7839,48.3162 68.9505,48.4829 70,49.5C 70.8159,48.1772 71.9826,47.5106 73.5,47.5 Z"/></g>
<g><path style="opacity:1" fill="#6f6a33" d="M 87.5,54.5 C 89.3435,56.2789 90.0102,58.6122 89.5,61.5C 88.713,63.1042 87.3797,63.7709 85.5,63.5C 85.9175,62.7784 86.5842,62.2784 87.5,62C 85.8322,60.3126 83.9988,60.1459 82,61.5C 79.8346,60.5989 78.0012,59.9323 76.5,59.5C 76.5,59.1667 76.5,58.8333 76.5,58.5C 77.8333,57.5 79.1667,56.5 80.5,55.5C 82.1703,55.2488 83.6703,54.5822 85,53.5C 85.6708,54.2524 86.5041,54.5858 87.5,54.5 Z"/></g>
<g><path style="opacity:1" fill="#847c47" d="M 76.5,59.5 C 78.0012,59.9323 79.8346,60.5989 82,61.5C 83.9988,60.1459 85.8322,60.3126 87.5,62C 86.5842,62.2784 85.9175,62.7784 85.5,63.5C 85.6715,65.4918 85.0049,67.1585 83.5,68.5C 84.2427,69.1818 84.9094,69.8485 85.5,70.5C 84.3569,70.9081 83.3569,71.5748 82.5,72.5C 83.5498,73.4288 83.5498,74.0954 82.5,74.5C 81.0221,73.5525 80.0221,72.2191 79.5,70.5C 79.0618,70.5654 78.7284,70.3988 78.5,70C 79.1667,69.6667 79.8333,69.3333 80.5,69C 79.1196,67.0748 77.6196,65.2415 76,63.5C 75.4867,64.5266 74.9867,65.5266 74.5,66.5C 73.597,63.9075 74.2636,61.5742 76.5,59.5 Z"/></g>
<g><path style="opacity:1" fill="#b18552" d="M 97.5,57.5 C 99.7448,58.2919 100.078,59.6253 98.5,61.5C 96.1278,59.8522 94.7944,60.5189 94.5,63.5C 91.5964,64.6144 89.5964,66.6144 88.5,69.5C 87.609,70.1098 86.609,70.4431 85.5,70.5C 84.9094,69.8485 84.2427,69.1818 83.5,68.5C 85.0049,67.1585 85.6715,65.4918 85.5,63.5C 87.3797,63.7709 88.713,63.1042 89.5,61.5C 90.7348,61.2786 91.7348,60.6119 92.5,59.5C 93.086,59.7093 93.586,60.0426 94,60.5C 94.4224,58.5743 95.5891,57.5743 97.5,57.5 Z"/></g>
<g><path style="opacity:1" fill="#f8edbc" d="M 112.5,52.5 C 115.719,52.9065 118.719,52.9065 121.5,52.5C 123.897,54.6621 125.564,57.3288 126.5,60.5C 125.725,65.7968 125.392,71.1301 125.5,76.5C 125.5,76.8333 125.5,77.1667 125.5,77.5C 123.654,74.662 121.988,71.662 120.5,68.5C 119.692,70.4233 119.192,72.4233 119,74.5C 118.768,73.2625 118.268,72.2625 117.5,71.5C 117.665,68.1501 117.498,64.8168 117,61.5C 116.578,59.5743 115.411,58.5743 113.5,58.5C 112.694,57.2719 111.694,56.2719 110.5,55.5C 110.423,54.2502 109.756,53.4169 108.5,53C 109.793,52.51 111.127,52.3433 112.5,52.5 Z"/></g>
<g><path style="opacity:1" fill="#e77d3e" d="M 104.5,53.5 C 106.579,53.9707 108.579,54.6373 110.5,55.5C 111.694,56.2719 112.694,57.2719 113.5,58.5C 112.662,58.8417 112.328,59.5084 112.5,60.5C 111.69,62.7983 110.856,65.1316 110,67.5C 106.746,65.6522 103.579,63.9855 100.5,62.5C 105.259,61.2011 106.593,58.2011 104.5,53.5 Z"/></g>
<g><path style="opacity:1" fill="#e5a876" d="M 113.5,58.5 C 115.411,58.5743 116.578,59.5743 117,61.5C 117.498,64.8168 117.665,68.1501 117.5,71.5C 117.5,72.8333 117.5,74.1667 117.5,75.5C 115.903,73.1522 114.903,70.4855 114.5,67.5C 113.464,65.6089 113.464,63.7755 114.5,62C 113.956,61.2828 113.289,60.7828 112.5,60.5C 112.328,59.5084 112.662,58.8417 113.5,58.5 Z"/></g>
<g><path style="opacity:1" fill="#eeeeae" d="M 58.5,55.5 C 59.6002,56.5585 60.9336,57.3918 62.5,58C 61.565,60.3806 61.2317,62.8806 61.5,65.5C 60.9198,69.81 60.5865,74.1434 60.5,78.5C 59.3775,80.2884 59.2109,82.2884 60,84.5C 61.7198,85.3841 62.8865,86.7175 63.5,88.5C 62.2502,88.4226 61.4169,87.756 61,86.5C 60.3292,87.2524 59.4959,87.5858 58.5,87.5C 58.7568,84.3359 58.4234,81.0026 57.5,77.5C 57.7896,75.9559 58.4563,74.6226 59.5,73.5C 55.9867,72.6564 53.3201,70.6564 51.5,67.5C 50.4822,68.1925 49.4822,68.8592 48.5,69.5C 48.5,68.8333 48.5,68.1667 48.5,67.5C 49.3138,65.369 49.8138,63.0356 50,60.5C 50.9906,61.9389 52.324,62.9389 54,63.5C 55.1353,63.273 56.302,62.9396 57.5,62.5C 56.3654,59.9206 56.6987,57.5873 58.5,55.5 Z"/></g>
<g><path style="opacity:1" fill="#d9af6b" d="M 97.5,65.5 C 97.5,66.8333 96.8333,67.5 95.5,67.5C 95.6309,66.6236 95.2975,65.9569 94.5,65.5C 93.3554,66.7757 93.3554,68.109 94.5,69.5C 93.2723,71.321 91.6056,72.321 89.5,72.5C 92.3382,70.6941 92.0048,69.6941 88.5,69.5C 89.5964,66.6144 91.5964,64.6144 94.5,63.5C 96.5983,62.0857 97.5983,62.7524 97.5,65.5 Z"/></g>
<g><path style="opacity:1" fill="#f4eba1" d="M 69.5,52.5 C 73.2382,55.5382 73.4048,58.8716 70,62.5C 68.754,61.2283 67.5874,60.895 66.5,61.5C 67.6053,62.8924 68.9386,64.059 70.5,65C 69.6028,67.0871 68.9361,69.2537 68.5,71.5C 67.1667,70.8333 65.8333,70.1667 64.5,69.5C 64.079,65.6753 64.079,61.842 64.5,58C 65.6793,55.6571 67.3459,53.8238 69.5,52.5 Z"/></g>
<g><path style="opacity:1" fill="#ebda90" d="M 69.5,52.5 C 69.8417,51.6618 70.5084,51.3284 71.5,51.5C 72.5,51.5 73.5,51.5 74.5,51.5C 74.4679,54.0758 75.1346,56.4091 76.5,58.5C 76.5,58.8333 76.5,59.1667 76.5,59.5C 74.2636,61.5742 73.597,63.9075 74.5,66.5C 74.4431,67.609 74.1098,68.609 73.5,69.5C 71.7274,70.3143 71.2274,71.6476 72,73.5C 73.7297,75.4019 75.563,77.0686 77.5,78.5C 76.4415,79.6002 75.6082,80.9336 75,82.5C 74.34,80.6763 73.1733,79.343 71.5,78.5C 71.4142,77.5041 71.7476,76.6708 72.5,76C 71.552,75.5172 70.552,75.3505 69.5,75.5C 69.5674,74.0413 69.2341,72.7079 68.5,71.5C 68.9361,69.2537 69.6028,67.0871 70.5,65C 68.9386,64.059 67.6053,62.8924 66.5,61.5C 67.5874,60.895 68.754,61.2283 70,62.5C 73.4048,58.8716 73.2382,55.5382 69.5,52.5 Z"/></g>
<g><path style="opacity:1" fill="#666328" d="M 79.5,70.5 C 77.1853,73.1888 75.1853,72.8555 73.5,69.5C 74.1098,68.609 74.4431,67.609 74.5,66.5C 74.9867,65.5266 75.4867,64.5266 76,63.5C 77.6196,65.2415 79.1196,67.0748 80.5,69C 79.8333,69.3333 79.1667,69.6667 78.5,70C 78.7284,70.3988 79.0618,70.5654 79.5,70.5 Z"/></g>
<g><path style="opacity:1" fill="#eb9048" d="M 98.5,61.5 C 99.1667,61.8333 99.8333,62.1667 100.5,62.5C 103.579,63.9855 106.746,65.6522 110,67.5C 110.856,65.1316 111.69,62.7983 112.5,60.5C 113.289,60.7828 113.956,61.2828 114.5,62C 113.464,63.7755 113.464,65.6089 114.5,67.5C 113.624,67.3691 112.957,67.7025 112.5,68.5C 113.348,70.4086 113.682,72.4086 113.5,74.5C 112.601,71.7053 110.601,70.372 107.5,70.5C 105.97,70.6399 104.97,71.3065 104.5,72.5C 101.738,70.5006 99.4048,68.1673 97.5,65.5C 97.5983,62.7524 96.5983,62.0857 94.5,63.5C 94.7944,60.5189 96.1278,59.8522 98.5,61.5 Z"/></g>
<g><path style="opacity:1" fill="#e6a143" d="M 97.5,65.5 C 99.4048,68.1673 101.738,70.5006 104.5,72.5C 104.938,72.4346 105.272,72.6012 105.5,73C 104.376,73.2492 103.376,73.7492 102.5,74.5C 104.484,75.7059 106.484,75.7059 108.5,74.5C 109.298,74.9569 109.631,75.6236 109.5,76.5C 107.473,76.3379 105.473,76.5045 103.5,77C 102.62,78.3561 102.286,79.8561 102.5,81.5C 101.983,79.4905 101.316,78.1571 100.5,77.5C 100.167,77.5 99.8333,77.5 99.5,77.5C 99.5774,76.2502 100.244,75.4169 101.5,75C 100.227,72.2006 98.2267,70.3672 95.5,69.5C 95.5,68.8333 95.5,68.1667 95.5,67.5C 96.8333,67.5 97.5,66.8333 97.5,65.5 Z"/></g>
<g><path style="opacity:1" fill="#f3e0a5" d="M 126.5,60.5 C 128.721,65.1752 130.054,70.1752 130.5,75.5C 128.958,76.3007 127.292,76.634 125.5,76.5C 125.392,71.1301 125.725,65.7968 126.5,60.5 Z"/></g>
<g><path style="opacity:1" fill="#ad873e" d="M 95.5,67.5 C 95.5,68.1667 95.5,68.8333 95.5,69.5C 95.634,71.2915 95.3007,72.9582 94.5,74.5C 92.5,74.5 90.5,74.5 88.5,74.5C 88.3284,73.5084 88.6618,72.8417 89.5,72.5C 91.6056,72.321 93.2723,71.321 94.5,69.5C 93.3554,68.109 93.3554,66.7757 94.5,65.5C 95.2975,65.9569 95.6309,66.6236 95.5,67.5 Z"/></g>
<g><path style="opacity:1" fill="#e69742" d="M 113.5,74.5 C 113.5,75.5 113.5,76.5 113.5,77.5C 112.178,77.33 111.011,77.6634 110,78.5C 109.536,77.9056 109.369,77.2389 109.5,76.5C 109.631,75.6236 109.298,74.9569 108.5,74.5C 106.484,75.7059 104.484,75.7059 102.5,74.5C 103.376,73.7492 104.376,73.2492 105.5,73C 105.272,72.6012 104.938,72.4346 104.5,72.5C 104.97,71.3065 105.97,70.6399 107.5,70.5C 110.601,70.372 112.601,71.7053 113.5,74.5 Z"/></g>
<g><path style="opacity:1" fill="#f8cfa0" d="M 114.5,67.5 C 114.903,70.4855 115.903,73.1522 117.5,75.5C 117.567,76.9587 117.234,78.2921 116.5,79.5C 115.381,78.5153 114.381,76.8487 113.5,74.5C 113.682,72.4086 113.348,70.4086 112.5,68.5C 112.957,67.7025 113.624,67.3691 114.5,67.5 Z"/></g>
<g><path style="opacity:1" fill="#e8c677" d="M 95.5,69.5 C 98.2267,70.3672 100.227,72.2006 101.5,75C 100.244,75.4169 99.5774,76.2502 99.5,77.5C 99.5,78.1667 99.1667,78.5 98.5,78.5C 96.7263,77.6304 95.393,76.297 94.5,74.5C 95.3007,72.9582 95.634,71.2915 95.5,69.5 Z"/></g>
<g><path style="opacity:1" fill="#f2cf8f" d="M 125.5,77.5 C 125.011,78.9952 124.345,80.3285 123.5,81.5C 123.539,80.2438 123.039,79.2438 122,78.5C 120.643,81.6919 119.143,84.6919 117.5,87.5C 116.813,84.6598 116.479,81.9931 116.5,79.5C 117.234,78.2921 117.567,76.9587 117.5,75.5C 117.5,74.1667 117.5,72.8333 117.5,71.5C 118.268,72.2625 118.768,73.2625 119,74.5C 119.192,72.4233 119.692,70.4233 120.5,68.5C 121.988,71.662 123.654,74.662 125.5,77.5 Z"/></g>
<g><path style="opacity:1" fill="#9b9662" d="M 73.5,69.5 C 75.1853,72.8555 77.1853,73.1888 79.5,70.5C 80.0221,72.2191 81.0221,73.5525 82.5,74.5C 81.7375,75.2679 80.7375,75.7679 79.5,76C 80.8333,77 82.1667,78 83.5,79C 81.7525,79.3519 80.0858,79.8519 78.5,80.5C 78.6716,79.5084 78.3382,78.8417 77.5,78.5C 75.563,77.0686 73.7297,75.4019 72,73.5C 71.2274,71.6476 71.7274,70.3143 73.5,69.5 Z"/></g>
<g><path style="opacity:1" fill="#f1e89a" d="M 61.5,65.5 C 62.1635,67.0419 62.8302,68.7086 63.5,70.5C 64.1067,70.3764 64.44,70.0431 64.5,69.5C 65.8333,70.1667 67.1667,70.8333 68.5,71.5C 69.2341,72.7079 69.5674,74.0413 69.5,75.5C 70.552,75.3505 71.552,75.5172 72.5,76C 71.7476,76.6708 71.4142,77.5041 71.5,78.5C 71.5,79.1667 71.5,79.8333 71.5,80.5C 68.0897,80.3838 66.7564,82.0504 67.5,85.5C 65.323,85.4139 63.323,84.7472 61.5,83.5C 61.4214,81.8717 61.0881,80.2051 60.5,78.5C 60.5865,74.1434 60.9198,69.81 61.5,65.5 Z"/></g>
<g><path style="opacity:1" fill="#aea772" d="M 88.5,69.5 C 92.0048,69.6941 92.3382,70.6941 89.5,72.5C 88.6618,72.8417 88.3284,73.5084 88.5,74.5C 85.1069,76.073 83.7736,78.7396 84.5,82.5C 82.7376,82.3573 81.0709,82.6906 79.5,83.5C 78.6143,82.675 78.281,81.675 78.5,80.5C 80.0858,79.8519 81.7525,79.3519 83.5,79C 82.1667,78 80.8333,77 79.5,76C 80.7375,75.7679 81.7375,75.2679 82.5,74.5C 83.5498,74.0954 83.5498,73.4288 82.5,72.5C 83.3569,71.5748 84.3569,70.9081 85.5,70.5C 86.609,70.4431 87.609,70.1098 88.5,69.5 Z"/></g>
<g><path style="opacity:1" fill="#fafac8" d="M 99.5,77.5 C 99.8333,77.5 100.167,77.5 100.5,77.5C 100.5,80.5 100.5,83.5 100.5,86.5C 98.8212,86.7148 97.8212,86.0481 97.5,84.5C 97.3253,82.3792 97.6586,80.3792 98.5,78.5C 99.1667,78.5 99.5,78.1667 99.5,77.5 Z"/></g>
<g><path style="opacity:0.932" fill="#f7fbcb" d="M 47.5,71.5 C 47.3893,72.1174 47.056,72.6174 46.5,73C 47.5742,73.7387 48.2409,74.7387 48.5,76C 46.7426,79.9385 48.0759,82.2718 52.5,83C 51.5622,84.0633 50.5622,85.2299 49.5,86.5C 53.0461,87.5706 53.0461,89.0706 49.5,91C 53.1685,92.4085 53.1685,94.0751 49.5,96C 52.6486,96.776 53.1486,98.276 51,100.5C 50.3292,99.7476 49.4959,99.4142 48.5,99.5C 46.5773,93.6464 45.2439,87.6464 44.5,81.5C 44.6136,78.8014 44.9469,76.1347 45.5,73.5C 45.7472,72.2867 46.4138,71.62 47.5,71.5 Z"/></g>
<g><path style="opacity:1" fill="#e6e29e" d="M 88.5,74.5 C 90.5,74.5 92.5,74.5 94.5,74.5C 95.393,76.297 96.7263,77.6304 98.5,78.5C 97.6586,80.3792 97.3253,82.3792 97.5,84.5C 96.8333,85.8333 96.1667,87.1667 95.5,88.5C 94.7375,87.7321 93.7375,87.2321 92.5,87C 93.1667,86.6667 93.8333,86.3333 94.5,86C 94.6399,84.9305 94.6399,83.7639 94.5,82.5C 93.1255,83.7113 91.6255,84.7113 90,85.5C 88.8382,84.8132 87.6716,84.6466 86.5,85C 86.8333,85.3333 87.1667,85.6667 87.5,86C 85.6927,86.9277 84.026,88.0944 82.5,89.5C 82.1667,89.1667 81.8333,88.8333 81.5,88.5C 82.9856,86.6984 83.9856,84.6984 84.5,82.5C 83.7736,78.7396 85.1069,76.073 88.5,74.5 Z"/></g>
<g><path style="opacity:1" fill="#daa560" d="M 113.5,74.5 C 114.381,76.8487 115.381,78.5153 116.5,79.5C 116.479,81.9931 116.813,84.6598 117.5,87.5C 119.143,84.6919 120.643,81.6919 122,78.5C 123.039,79.2438 123.539,80.2438 123.5,81.5C 121.933,82.6808 121.099,84.3474 121,86.5C 119.736,88.607 117.903,89.607 115.5,89.5C 115.737,88.209 115.404,87.209 114.5,86.5C 113.701,83.5701 113.368,80.5701 113.5,77.5C 113.5,76.5 113.5,75.5 113.5,74.5 Z"/></g>
<g><path style="opacity:1" fill="#eef2b9" d="M 58.5,87.5 C 58.7709,89.3797 58.1042,90.713 56.5,91.5C 55.9935,90.1411 54.9935,89.1411 53.5,88.5C 57.2126,86.6628 57.2126,85.1628 53.5,84C 55.158,83.2747 55.658,82.108 55,80.5C 50.2833,78.4073 48.1166,74.7406 48.5,69.5C 49.4822,68.8592 50.4822,68.1925 51.5,67.5C 53.3201,70.6564 55.9867,72.6564 59.5,73.5C 58.4563,74.6226 57.7896,75.9559 57.5,77.5C 58.4234,81.0026 58.7568,84.3359 58.5,87.5 Z"/></g>
<g><path style="opacity:1" fill="#ded271" d="M 60.5,78.5 C 61.0881,80.2051 61.4214,81.8717 61.5,83.5C 63.323,84.7472 65.323,85.4139 67.5,85.5C 66.7564,82.0504 68.0897,80.3838 71.5,80.5C 71.5,81.1667 71.5,81.8333 71.5,82.5C 69.7129,85.614 67.0463,87.614 63.5,88.5C 62.8865,86.7175 61.7198,85.3841 60,84.5C 59.2109,82.2884 59.3775,80.2884 60.5,78.5 Z"/></g>
<g><path style="opacity:1" fill="#ecdf8f" d="M 102.5,81.5 C 103.268,80.7375 103.768,79.7375 104,78.5C 109.106,82.1769 109.606,86.1769 105.5,90.5C 103.708,90.366 102.042,90.6993 100.5,91.5C 100.5,90.5 100.5,89.5 100.5,88.5C 98.602,89.0965 96.9354,89.0965 95.5,88.5C 96.1667,87.1667 96.8333,85.8333 97.5,84.5C 97.8212,86.0481 98.8212,86.7148 100.5,86.5C 100.5,83.5 100.5,80.5 100.5,77.5C 101.316,78.1571 101.983,79.4905 102.5,81.5 Z"/></g>
<g><path style="opacity:1" fill="#f1f6c5" d="M 48.5,67.5 C 48.5,68.1667 48.5,68.8333 48.5,69.5C 48.1166,74.7406 50.2833,78.4073 55,80.5C 55.658,82.108 55.158,83.2747 53.5,84C 57.2126,85.1628 57.2126,86.6628 53.5,88.5C 54.9935,89.1411 55.9935,90.1411 56.5,91.5C 55.9423,92.7899 54.9423,93.6232 53.5,94C 55.1922,95.4007 55.8588,97.2341 55.5,99.5C 53.6854,100.63 51.6854,101.296 49.5,101.5C 49.1667,100.833 48.8333,100.167 48.5,99.5C 49.4959,99.4142 50.3292,99.7476 51,100.5C 53.1486,98.276 52.6486,96.776 49.5,96C 53.1685,94.0751 53.1685,92.4085 49.5,91C 53.0461,89.0706 53.0461,87.5706 49.5,86.5C 50.5622,85.2299 51.5622,84.0633 52.5,83C 48.0759,82.2718 46.7426,79.9385 48.5,76C 48.2409,74.7387 47.5742,73.7387 46.5,73C 47.056,72.6174 47.3893,72.1174 47.5,71.5C 47.2322,69.901 47.5655,68.5676 48.5,67.5 Z"/></g>
<g><path style="opacity:1" fill="#eebc6b" d="M 109.5,76.5 C 109.369,77.2389 109.536,77.9056 110,78.5C 111.011,77.6634 112.178,77.33 113.5,77.5C 113.368,80.5701 113.701,83.5701 114.5,86.5C 113.105,89.7332 110.772,92.2332 107.5,94C 108.416,94.2784 109.082,94.7784 109.5,95.5C 106.625,96.1687 104.625,97.502 103.5,99.5C 103.331,98.6034 102.998,97.6034 102.5,96.5C 100.998,97.0831 99.6651,97.9164 98.5,99C 99.4491,99.6172 100.282,99.4506 101,98.5C 101.49,99.7932 101.657,101.127 101.5,102.5C 100.599,104.727 98.9328,105.727 96.5,105.5C 97.4293,104.685 98.4293,103.852 99.5,103C 99.5758,99.9992 98.4091,99.8325 96,102.5C 95.2496,101.874 94.4162,101.374 93.5,101C 95.1193,100.764 96.1193,99.9311 96.5,98.5C 98.9315,96.4407 101.598,94.6074 104.5,93C 103.833,92.6667 103.167,92.3333 102.5,92C 103.737,91.7679 104.737,91.2679 105.5,90.5C 109.606,86.1769 109.106,82.1769 104,78.5C 103.768,79.7375 103.268,80.7375 102.5,81.5C 102.286,79.8561 102.62,78.3561 103.5,77C 105.473,76.5045 107.473,76.3379 109.5,76.5 Z"/></g>
<g><path style="opacity:1" fill="#efeba8" d="M 71.5,78.5 C 73.1733,79.343 74.34,80.6763 75,82.5C 75.6082,80.9336 76.4415,79.6002 77.5,78.5C 78.3382,78.8417 78.6716,79.5084 78.5,80.5C 78.281,81.675 78.6143,82.675 79.5,83.5C 81.0709,82.6906 82.7376,82.3573 84.5,82.5C 83.9856,84.6984 82.9856,86.6984 81.5,88.5C 81.8333,88.8333 82.1667,89.1667 82.5,89.5C 84.026,88.0944 85.6927,86.9277 87.5,86C 87.1667,85.6667 86.8333,85.3333 86.5,85C 87.6716,84.6466 88.8382,84.8132 90,85.5C 91.6255,84.7113 93.1255,83.7113 94.5,82.5C 94.6399,83.7639 94.6399,84.9305 94.5,86C 93.8333,86.3333 93.1667,86.6667 92.5,87C 93.7375,87.2321 94.7375,87.7321 95.5,88.5C 94.1932,89.1534 92.8599,89.8201 91.5,90.5C 90.4164,89.3349 89.5831,88.0016 89,86.5C 88.1667,87.3333 87.3333,88.1667 86.5,89C 87.624,89.2492 88.624,89.7492 89.5,90.5C 86.5777,91.7898 83.2444,93.2898 79.5,95C 81.1161,95.6152 82.4495,96.6152 83.5,98C 81.9532,98.3334 80.6199,97.8334 79.5,96.5C 78.2241,97.6136 78.2241,98.6136 79.5,99.5C 79.0679,100.71 78.4013,101.71 77.5,102.5C 77.5,101.833 77.1667,101.5 76.5,101.5C 76.2786,100.265 75.6119,99.2652 74.5,98.5C 76.6227,96.2546 77.6227,93.5879 77.5,90.5C 75.6412,90.5391 74.3079,89.7058 73.5,88C 75.2112,86.8668 75.7112,85.3668 75,83.5C 74.7216,84.4158 74.2216,85.0825 73.5,85.5C 73.6567,84.1266 73.49,82.7932 73,81.5C 72.6174,82.056 72.1174,82.3893 71.5,82.5C 71.5,81.8333 71.5,81.1667 71.5,80.5C 71.5,79.8333 71.5,79.1667 71.5,78.5 Z"/></g>
<g><path style="opacity:1" fill="#f0eca9" d="M 95.5,88.5 C 96.9354,89.0965 98.602,89.0965 100.5,88.5C 100.5,89.5 100.5,90.5 100.5,91.5C 94.0424,95.561 87.0424,98.2276 79.5,99.5C 78.2241,98.6136 78.2241,97.6136 79.5,96.5C 80.6199,97.8334 81.9532,98.3334 83.5,98C 82.4495,96.6152 81.1161,95.6152 79.5,95C 83.2444,93.2898 86.5777,91.7898 89.5,90.5C 88.624,89.7492 87.624,89.2492 86.5,89C 87.3333,88.1667 88.1667,87.3333 89,86.5C 89.5831,88.0016 90.4164,89.3349 91.5,90.5C 92.8599,89.8201 94.1932,89.1534 95.5,88.5 Z"/></g>
<g><path style="opacity:1" fill="#d79549" d="M 114.5,86.5 C 115.404,87.209 115.737,88.209 115.5,89.5C 113.222,91.1112 111.222,93.1112 109.5,95.5C 109.082,94.7784 108.416,94.2784 107.5,94C 110.772,92.2332 113.105,89.7332 114.5,86.5 Z"/></g>
<g><path style="opacity:1" fill="#f3c38c" d="M 130.5,75.5 C 130.663,77.8568 130.497,80.1902 130,82.5C 128.981,84.5018 128.148,86.5018 127.5,88.5C 127.719,87.325 127.386,86.325 126.5,85.5C 124.434,89.6845 122.101,93.6845 119.5,97.5C 117.653,98.8304 116.153,98.497 115,96.5C 113.961,97.7101 112.794,98.7101 111.5,99.5C 110.833,98.8333 110.167,98.1667 109.5,97.5C 109.5,96.8333 109.5,96.1667 109.5,95.5C 111.222,93.1112 113.222,91.1112 115.5,89.5C 117.903,89.607 119.736,88.607 121,86.5C 121.099,84.3474 121.933,82.6808 123.5,81.5C 124.345,80.3285 125.011,78.9952 125.5,77.5C 125.5,77.1667 125.5,76.8333 125.5,76.5C 127.292,76.634 128.958,76.3007 130.5,75.5 Z"/></g>
<g><path style="opacity:1" fill="#f0f0bb" d="M 73.5,85.5 C 72.0778,87.5117 70.7445,89.5117 69.5,91.5C 69.1898,93.1436 68.1898,94.1436 66.5,94.5C 66.5,93.1667 65.8333,92.5 64.5,92.5C 62.0194,92.3234 60.1861,93.3234 59,95.5C 58.3457,94.3044 57.8457,94.3044 57.5,95.5C 62.7064,97.4019 62.373,98.4019 56.5,98.5C 56.7678,100.099 56.4345,101.432 55.5,102.5C 55.5,101.5 55.5,100.5 55.5,99.5C 55.8588,97.2341 55.1922,95.4007 53.5,94C 54.9423,93.6232 55.9423,92.7899 56.5,91.5C 58.1042,90.713 58.7709,89.3797 58.5,87.5C 59.4959,87.5858 60.3292,87.2524 61,86.5C 61.4169,87.756 62.2502,88.4226 63.5,88.5C 67.0463,87.614 69.7129,85.614 71.5,82.5C 72.1174,82.3893 72.6174,82.056 73,81.5C 73.49,82.7932 73.6567,84.1266 73.5,85.5 Z"/></g>
<g><path style="opacity:1" fill="#d3b16f" d="M 64.5,92.5 C 65.8333,92.5 66.5,93.1667 66.5,94.5C 65.5028,94.4701 64.8361,94.9701 64.5,96C 64.9504,97.2853 65.6171,98.452 66.5,99.5C 66.3764,100.107 66.0431,100.44 65.5,100.5C 63.3498,98.0775 63.0165,95.4109 64.5,92.5 Z"/></g>
<g><path style="opacity:1" fill="#e7c981" d="M 76.5,101.5 C 75.8333,102.5 75.1667,103.5 74.5,104.5C 72.6041,101.716 70.9374,98.7157 69.5,95.5C 70.7053,94.0052 70.7053,92.6719 69.5,91.5C 70.7445,89.5117 72.0778,87.5117 73.5,85.5C 74.2216,85.0825 74.7216,84.4158 75,83.5C 75.7112,85.3668 75.2112,86.8668 73.5,88C 74.3079,89.7058 75.6412,90.5391 77.5,90.5C 77.6227,93.5879 76.6227,96.2546 74.5,98.5C 75.6119,99.2652 76.2786,100.265 76.5,101.5 Z"/></g>
<g><path style="opacity:1" fill="#d6c191" d="M 126.5,92.5 C 126.5,93.5 126.5,94.5 126.5,95.5C 125.069,98.7009 123.403,101.701 121.5,104.5C 121.276,99.555 122.942,95.555 126.5,92.5 Z"/></g>
<g><path style="opacity:1" fill="#dc9e4a" d="M 109.5,95.5 C 109.5,96.1667 109.5,96.8333 109.5,97.5C 106.816,99.1933 104.149,100.86 101.5,102.5C 101.657,101.127 101.49,99.7932 101,98.5C 100.282,99.4506 99.4491,99.6172 98.5,99C 99.6651,97.9164 100.998,97.0831 102.5,96.5C 102.998,97.6034 103.331,98.6034 103.5,99.5C 104.625,97.502 106.625,96.1687 109.5,95.5 Z"/></g>
<g><path style="opacity:1" fill="#eca66c" d="M 127.5,88.5 C 126.766,89.7079 126.433,91.0413 126.5,92.5C 122.942,95.555 121.276,99.555 121.5,104.5C 119.901,104.232 118.568,104.566 117.5,105.5C 115.287,106.773 112.954,107.773 110.5,108.5C 109.417,108.461 108.417,108.127 107.5,107.5C 107.167,108.167 106.833,108.833 106.5,109.5C 105.702,109.043 105.369,108.376 105.5,107.5C 107.5,104.833 109.5,102.167 111.5,99.5C 112.794,98.7101 113.961,97.7101 115,96.5C 116.153,98.497 117.653,98.8304 119.5,97.5C 122.101,93.6845 124.434,89.6845 126.5,85.5C 127.386,86.325 127.719,87.325 127.5,88.5 Z"/></g>
<g><path style="opacity:1" fill="#fbe0ad" d="M 109.5,97.5 C 110.167,98.1667 110.833,98.8333 111.5,99.5C 109.5,102.167 107.5,104.833 105.5,107.5C 102.94,109.273 100.607,111.273 98.5,113.5C 98.2785,111.336 97.2785,109.67 95.5,108.5C 95.5569,107.391 95.8902,106.391 96.5,105.5C 98.9328,105.727 100.599,104.727 101.5,102.5C 104.149,100.86 106.816,99.1933 109.5,97.5 Z"/></g>
<g><path style="opacity:1" fill="#f4d27c" d="M 105.5,90.5 C 104.737,91.2679 103.737,91.7679 102.5,92C 103.167,92.3333 103.833,92.6667 104.5,93C 101.598,94.6074 98.9315,96.4407 96.5,98.5C 92.4493,99.0419 89.2826,101.042 87,104.5C 84.9637,103.898 83.1303,102.898 81.5,101.5C 80.2011,102.09 79.3678,103.09 79,104.5C 78.2828,103.956 77.7828,103.289 77.5,102.5C 78.4013,101.71 79.0679,100.71 79.5,99.5C 87.0424,98.2276 94.0424,95.561 100.5,91.5C 102.042,90.6993 103.708,90.366 105.5,90.5 Z"/></g>
<g><path style="opacity:1" fill="#f4e3ae" d="M 69.5,91.5 C 70.7053,92.6719 70.7053,94.0052 69.5,95.5C 70.9374,98.7157 72.6041,101.716 74.5,104.5C 74.5,105.5 74.5,106.5 74.5,107.5C 73.2921,108.234 71.9587,108.567 70.5,108.5C 70.7148,110.179 70.0481,111.179 68.5,111.5C 68.2766,107.838 67.2766,104.505 65.5,101.5C 65.5,101.167 65.5,100.833 65.5,100.5C 66.0431,100.44 66.3764,100.107 66.5,99.5C 65.6171,98.452 64.9504,97.2853 64.5,96C 64.8361,94.9701 65.5028,94.4701 66.5,94.5C 68.1898,94.1436 69.1898,93.1436 69.5,91.5 Z"/></g>
<g><path style="opacity:0.013" fill="#fbf8cc" d="M 121.5,104.5 C 119.866,105.955 118.532,107.622 117.5,109.5C 117.5,108.167 117.5,106.833 117.5,105.5C 118.568,104.566 119.901,104.232 121.5,104.5 Z"/></g>
<g><path style="opacity:1" fill="#f1ce71" d="M 96.5,98.5 C 96.1193,99.9311 95.1193,100.764 93.5,101C 94.4162,101.374 95.2496,101.874 96,102.5C 98.4091,99.8325 99.5758,99.9992 99.5,103C 98.4293,103.852 97.4293,104.685 96.5,105.5C 95.8902,106.391 95.5569,107.391 95.5,108.5C 95.573,110.027 94.9063,111.027 93.5,111.5C 89.3743,111.398 85.8743,112.731 83,115.5C 79.0639,113.919 76.2306,111.253 74.5,107.5C 74.5,106.5 74.5,105.5 74.5,104.5C 75.1667,103.5 75.8333,102.5 76.5,101.5C 77.1667,101.5 77.5,101.833 77.5,102.5C 77.7828,103.289 78.2828,103.956 79,104.5C 79.3678,103.09 80.2011,102.09 81.5,101.5C 83.1303,102.898 84.9637,103.898 87,104.5C 89.2826,101.042 92.4493,99.0419 96.5,98.5 Z"/></g>
<g><path style="opacity:1" fill="#fbfcd0" d="M 65.5,101.5 C 67.2766,104.505 68.2766,107.838 68.5,111.5C 67.2921,110.766 65.9587,110.433 64.5,110.5C 63.8333,110.5 63.5,110.167 63.5,109.5C 64.0784,106.72 64.7451,104.053 65.5,101.5 Z"/></g>
<g><path style="opacity:1" fill="#f2f7c9" d="M 55.5,99.5 C 55.5,100.5 55.5,101.5 55.5,102.5C 55.335,105.85 55.5017,109.183 56,112.5C 57.7058,113.308 58.5391,114.641 58.5,116.5C 56.9557,116.297 55.6223,115.63 54.5,114.5C 52.4218,115.307 50.7551,114.641 49.5,112.5C 50.552,112.649 51.552,112.483 52.5,112C 45.9953,109.713 44.9953,106.213 49.5,101.5C 51.6854,101.296 53.6854,100.63 55.5,99.5 Z"/></g>
<g><path style="opacity:1" fill="#ecebb0" d="M 64.5,92.5 C 63.0165,95.4109 63.3498,98.0775 65.5,100.5C 65.5,100.833 65.5,101.167 65.5,101.5C 64.7451,104.053 64.0784,106.72 63.5,109.5C 62.7784,109.918 62.2784,110.584 62,111.5C 61.3507,108.063 60.8507,107.896 60.5,111C 61.2898,113.282 62.2898,115.448 63.5,117.5C 61.8828,116.962 60.2161,116.629 58.5,116.5C 58.5391,114.641 57.7058,113.308 56,112.5C 55.5017,109.183 55.335,105.85 55.5,102.5C 56.4345,101.432 56.7678,100.099 56.5,98.5C 62.373,98.4019 62.7064,97.4019 57.5,95.5C 57.8457,94.3044 58.3457,94.3044 59,95.5C 60.1861,93.3234 62.0194,92.3234 64.5,92.5 Z"/></g>
<g><path style="opacity:1" fill="#eecc99" d="M 117.5,105.5 C 117.5,106.833 117.5,108.167 117.5,109.5C 117.715,111.179 117.048,112.179 115.5,112.5C 115.815,110.774 115.981,109.107 116,107.5C 114.307,109.027 112.473,110.36 110.5,111.5C 109.913,110.767 109.913,109.767 110.5,108.5C 112.954,107.773 115.287,106.773 117.5,105.5 Z"/></g>
<g><path style="opacity:0.996" fill="#f6fbd0" d="M 48.5,99.5 C 48.8333,100.167 49.1667,100.833 49.5,101.5C 44.9953,106.213 45.9953,109.713 52.5,112C 51.552,112.483 50.552,112.649 49.5,112.5C 48.6236,112.369 47.9569,112.702 47.5,113.5C 48.0998,118.71 49.4331,123.71 51.5,128.5C 49.6073,125.386 47.4407,122.386 45,119.5C 42.27,114.267 42.27,108.934 45,103.5C 46.0319,101.973 47.1986,100.64 48.5,99.5 Z"/></g>
<g><path style="opacity:1" fill="#eebb7f" d="M 105.5,107.5 C 105.369,108.376 105.702,109.043 106.5,109.5C 106.833,108.833 107.167,108.167 107.5,107.5C 108.417,108.127 109.417,108.461 110.5,108.5C 109.913,109.767 109.913,110.767 110.5,111.5C 112.473,110.36 114.307,109.027 116,107.5C 115.981,109.107 115.815,110.774 115.5,112.5C 113.958,113.301 112.292,113.634 110.5,113.5C 108.033,113.755 106.033,114.755 104.5,116.5C 102.938,116.733 101.605,117.4 100.5,118.5C 100.635,116.446 99.968,114.779 98.5,113.5C 100.607,111.273 102.94,109.273 105.5,107.5 Z"/></g>
<g><path style="opacity:1" fill="#f5e7b2" d="M 74.5,107.5 C 76.2306,111.253 79.0639,113.919 83,115.5C 85.8743,112.731 89.3743,111.398 93.5,111.5C 93.5,111.833 93.5,112.167 93.5,112.5C 89.7591,114.88 85.7591,116.88 81.5,118.5C 80.4728,117.209 79.4728,117.209 78.5,118.5C 72.6669,117.916 68.0002,115.249 64.5,110.5C 65.9587,110.433 67.2921,110.766 68.5,111.5C 70.0481,111.179 70.7148,110.179 70.5,108.5C 71.9587,108.567 73.2921,108.234 74.5,107.5 Z"/></g>
<g><path style="opacity:0.996" fill="#b4925b" d="M 110.5,113.5 C 110.167,114.167 109.833,114.833 109.5,115.5C 108.609,116.11 107.609,116.443 106.5,116.5C 105.833,116.5 105.167,116.5 104.5,116.5C 106.033,114.755 108.033,113.755 110.5,113.5 Z"/></g>
<g><path style="opacity:0.004" fill="#eaf1c5" d="M 115.5,112.5 C 115.611,113.117 115.944,113.617 116.5,114C 114.134,114.44 111.801,114.94 109.5,115.5C 109.833,114.833 110.167,114.167 110.5,113.5C 112.292,113.634 113.958,113.301 115.5,112.5 Z"/></g>
<g><path style="opacity:1" fill="#ecc687" d="M 63.5,109.5 C 63.5,110.167 63.8333,110.5 64.5,110.5C 68.0002,115.249 72.6669,117.916 78.5,118.5C 79.3739,119.525 80.5405,120.192 82,120.5C 86.8485,119.575 91.1818,117.575 95,114.5C 95.5281,113.184 95.0281,112.517 93.5,112.5C 93.5,112.167 93.5,111.833 93.5,111.5C 94.9063,111.027 95.573,110.027 95.5,108.5C 97.2785,109.67 98.2785,111.336 98.5,113.5C 99.968,114.779 100.635,116.446 100.5,118.5C 99.7321,119.263 99.2321,120.263 99,121.5C 97.3182,121.193 95.6515,120.86 94,120.5C 90.5532,121.489 87.0532,122.156 83.5,122.5C 81.6431,121.246 79.6431,121.246 77.5,122.5C 74.2471,122.025 71.2471,121.025 68.5,119.5C 66.302,119.88 64.6354,119.213 63.5,117.5C 62.2898,115.448 61.2898,113.282 60.5,111C 60.8507,107.896 61.3507,108.063 62,111.5C 62.2784,110.584 62.7784,109.918 63.5,109.5 Z"/></g>
<g><path style="opacity:1" fill="#fdfacd" d="M 93.5,112.5 C 95.0281,112.517 95.5281,113.184 95,114.5C 91.1818,117.575 86.8485,119.575 82,120.5C 80.5405,120.192 79.3739,119.525 78.5,118.5C 79.4728,117.209 80.4728,117.209 81.5,118.5C 85.7591,116.88 89.7591,114.88 93.5,112.5 Z"/></g>
<g><path style="opacity:0.863" fill="#cfc291" d="M 104.5,116.5 C 105.167,116.5 105.833,116.5 106.5,116.5C 104.111,118.222 102.111,120.222 100.5,122.5C 100.5,121.167 100.5,119.833 100.5,118.5C 101.605,117.4 102.938,116.733 104.5,116.5 Z"/></g>
<g><path style="opacity:1" fill="#dce3bc" d="M 49.5,112.5 C 50.7551,114.641 52.4218,115.307 54.5,114.5C 55.6223,115.63 56.9557,116.297 58.5,116.5C 60.2161,116.629 61.8828,116.962 63.5,117.5C 64.6354,119.213 66.302,119.88 68.5,119.5C 68.5,120.167 68.5,120.833 68.5,121.5C 63.345,120.208 58.345,120.542 53.5,122.5C 54.376,123.251 55.376,123.751 56.5,124C 53.6143,125.068 51.9476,126.568 51.5,128.5C 49.4331,123.71 48.0998,118.71 47.5,113.5C 47.9569,112.702 48.6236,112.369 49.5,112.5 Z"/></g>
<g><path style="opacity:1" fill="#d5a971" d="M 68.5,119.5 C 71.2471,121.025 74.2471,122.025 77.5,122.5C 79.6431,121.246 81.6431,121.246 83.5,122.5C 84.2625,123.268 85.2625,123.768 86.5,124C 81.9279,124.326 77.5945,124.492 73.5,124.5C 71.326,124.25 69.6594,123.25 68.5,121.5C 68.5,120.833 68.5,120.167 68.5,119.5 Z"/></g>
<g><path style="opacity:0.004" fill="#f7f3c8" d="M 100.5,122.5 C 100.027,123.906 99.0269,124.573 97.5,124.5C 97.9731,123.094 98.9731,122.427 100.5,122.5 Z"/></g>
<g><path style="opacity:1" fill="#c58f59" d="M 100.5,118.5 C 100.5,119.833 100.5,121.167 100.5,122.5C 98.9731,122.427 97.9731,123.094 97.5,124.5C 96.2921,125.234 94.9587,125.567 93.5,125.5C 88.9902,125.886 84.6569,126.886 80.5,128.5C 79.7326,127.828 79.0659,126.995 78.5,126C 76.6183,125.802 74.9516,125.302 73.5,124.5C 77.5945,124.492 81.9279,124.326 86.5,124C 85.2625,123.768 84.2625,123.268 83.5,122.5C 87.0532,122.156 90.5532,121.489 94,120.5C 95.6515,120.86 97.3182,121.193 99,121.5C 99.2321,120.263 99.7321,119.263 100.5,118.5 Z"/></g>
<g><path style="opacity:1" fill="#e1e9c4" d="M 68.5,121.5 C 69.6594,123.25 71.326,124.25 73.5,124.5C 74.9516,125.302 76.6183,125.802 78.5,126C 79.0659,126.995 79.7326,127.828 80.5,128.5C 79.5,129.833 78.5,131.167 77.5,132.5C 67.857,138.561 59.1903,137.228 51.5,128.5C 51.9476,126.568 53.6143,125.068 56.5,124C 55.376,123.751 54.376,123.251 53.5,122.5C 58.345,120.542 63.345,120.208 68.5,121.5 Z"/></g>
<g><path style="opacity:0.843" fill="#dcdab0" d="M 93.5,125.5 C 90.2771,129.946 85.9438,132.613 80.5,133.5C 79.5832,132.873 78.5832,132.539 77.5,132.5C 78.5,131.167 79.5,129.833 80.5,128.5C 84.6569,126.886 88.9902,125.886 93.5,125.5 Z"/></g>
<g><path style="opacity:0.661" fill="#fdb68d" d="M 48.5,131.5 C 52.1916,133.344 55.5249,135.677 58.5,138.5C 56.7408,139.754 55.2408,139.421 54,137.5C 51.6667,140.5 49.3333,143.5 47,146.5C 46.5,146 46,145.5 45.5,145C 47.5,142 49.5,139 51.5,136C 48.7814,135.195 47.7814,133.695 48.5,131.5 Z"/></g>
<g><path style="opacity:0.647" fill="#fdb58c" d="M 118.5,143.5 C 118.045,140.797 117.378,138.13 116.5,135.5C 116.833,134.833 117.167,134.167 117.5,133.5C 119.555,137.328 121.221,141.328 122.5,145.5C 121.675,146.386 120.675,146.719 119.5,146.5C 119.737,145.209 119.404,144.209 118.5,143.5 Z"/></g>
<g><path style="opacity:0.644" fill="#fdb68d" d="M 118.5,143.5 C 118.703,145.39 118.037,146.89 116.5,148C 114.649,148.837 112.816,149.671 111,150.5C 108.454,146.388 107.287,142.055 107.5,137.5C 108.249,139.012 109.416,140.012 111,140.5C 114.551,138.886 117.051,139.886 118.5,143.5 Z M 110.5,142.5 C 112.167,142.5 113.833,142.5 115.5,142.5C 115.5,143.833 115.5,145.167 115.5,146.5C 111.918,148.161 110.252,146.827 110.5,142.5 Z"/></g>
<g><path style="opacity:0.677" fill="#fdb68e" d="M 62.5,139.5 C 69.0001,138.499 71.5001,141.165 70,147.5C 68.205,154.205 64.5383,155.205 59,150.5C 58.2571,148.559 58.4238,146.726 59.5,145C 62.2305,144.272 64.8971,144.438 67.5,145.5C 68.6069,143.231 67.7735,141.898 65,141.5C 62.0499,143.044 61.2166,142.378 62.5,139.5 Z M 61.5,146.5 C 63.6547,146.372 65.6547,146.872 67.5,148C 65.362,151.104 63.0287,151.27 60.5,148.5C 60.8627,147.817 61.1961,147.15 61.5,146.5 Z"/></g>
<g><path style="opacity:0.647" fill="#fdb68d" d="M 101.5,139.5 C 102.478,139.811 103.145,140.478 103.5,141.5C 101.955,142.452 100.288,142.785 98.5,142.5C 99.4603,146.195 99.4603,149.861 98.5,153.5C 96.9385,150.037 96.1051,146.37 96,142.5C 94.5064,143.747 93.0064,143.747 91.5,142.5C 91.7093,141.914 92.0426,141.414 92.5,141C 95.6946,140.819 98.6946,140.319 101.5,139.5 Z"/></g>
<g><path style="opacity:0.69" fill="#fdb68d" d="M 77.5,141.5 C 79.0358,143.025 80.0358,145.025 80.5,147.5C 81.941,146.135 83.2744,144.635 84.5,143C 85.635,142.251 86.635,142.417 87.5,143.5C 86.1667,145.167 84.8333,146.833 83.5,148.5C 84.5,150.5 85.5,152.5 86.5,154.5C 86,154.833 85.5,155.167 85,155.5C 83.3514,154.214 82.1847,152.547 81.5,150.5C 80.675,149.614 79.675,149.281 78.5,149.5C 78.7852,151.288 78.4519,152.955 77.5,154.5C 77.1667,153.167 76.8333,151.833 76.5,150.5C 76.9657,147.508 77.2991,144.508 77.5,141.5 Z"/></g>
</svg>
