<?xml version="1.0" encoding="UTF-8"?>
<!DOCTYPE svg PUBLIC "-//W3C//DTD SVG 1.1//EN" "http://www.w3.org/Graphics/SVG/1.1/DTD/svg11.dtd">
<svg xmlns="http://www.w3.org/2000/svg" version="1.1" width="175px" height="175px" style="shape-rendering:geometricPrecision; text-rendering:geometricPrecision; image-rendering:optimizeQuality; fill-rule:evenodd; clip-rule:evenodd" xmlns:xlink="http://www.w3.org/1999/xlink">
<g><path style="opacity:0.671" fill="#ffcc93" d="M 89.5,18.5 C 96.436,20.7155 98.1027,25.0489 94.5,31.5C 88.4278,34.9791 84.7612,33.1458 83.5,26C 83.9278,22.087 85.9278,19.587 89.5,18.5 Z M 88.5,21.5 C 93.1522,22.1035 94.6522,24.7702 93,29.5C 89.2589,32.0455 87.0923,30.8788 86.5,26C 86.5186,24.167 87.1852,22.667 88.5,21.5 Z"/></g>
<g><path style="opacity:0.671" fill="#ffcc93" d="M 74.5,20.5 C 75.4972,20.4701 76.1639,20.9701 76.5,22C 75.7636,24.1394 74.7636,26.1394 73.5,28C 75.9768,29.6427 78.3102,31.476 80.5,33.5C 79.635,34.5827 78.635,34.7494 77.5,34C 75.6951,33.028 74.0284,31.8613 72.5,30.5C 72.1667,32.5 71.8333,34.5 71.5,36.5C 69.2408,32.8612 67.5742,28.8612 66.5,24.5C 66.8076,23.6919 67.3076,23.0253 68,22.5C 69.1853,24.3772 70.1853,26.3772 71,28.5C 72.0764,25.7627 73.243,23.096 74.5,20.5 Z"/></g>
<g><path style="opacity:0.697" fill="#ffcc93" d="M 103.5,20.5 C 104.5,20.5 105.5,20.5 106.5,20.5C 106.167,22.5 105.833,24.5 105.5,26.5C 107.5,26.8333 109.5,27.1667 111.5,27.5C 111.116,25.3352 111.783,23.6685 113.5,22.5C 113.833,23 114.167,23.5 114.5,24C 113.496,27.7006 112.496,31.3672 111.5,35C 110.4,35.4317 109.733,34.9317 109.5,33.5C 109.68,32.4461 110.013,31.4461 110.5,30.5C 108.892,29.6816 107.225,29.0149 105.5,28.5C 104.684,30.2873 103.684,31.9539 102.5,33.5C 102.167,32.8333 101.833,32.1667 101.5,31.5C 102.426,27.8697 103.093,24.203 103.5,20.5 Z"/></g>
<g><path style="opacity:1" fill="#e5d58e" d="M 82.5,41.5 C 80.2549,40.3648 77.9216,39.8648 75.5,40C 78.0094,41.4213 80.3428,43.0879 82.5,45C 80.1902,45.4966 77.8568,45.6633 75.5,45.5C 75.5,48.1667 75.5,50.8333 75.5,53.5C 75.1667,53.5 74.8333,53.5 74.5,53.5C 74.6621,51.4727 74.4955,49.4727 74,47.5C 73.2496,46.8742 72.4162,46.3742 71.5,46C 71.8333,45.6667 72.1667,45.3333 72.5,45C 70.4814,41.6532 67.4814,39.8199 63.5,39.5C 64.9117,38.4675 66.5784,37.8008 68.5,37.5C 71.1959,38.1148 73.6959,38.1148 76,37.5C 78.6339,38.2259 80.8005,39.5593 82.5,41.5 Z"/></g>
<g><path style="opacity:1" fill="#f1d18a" d="M 63.5,39.5 C 67.4814,39.8199 70.4814,41.6532 72.5,45C 72.1667,45.3333 71.8333,45.6667 71.5,46C 72.4162,46.3742 73.2496,46.8742 74,47.5C 74.4955,49.4727 74.6621,51.4727 74.5,53.5C 73.8783,54.6266 73.045,55.6266 72,56.5C 71.6397,54.5789 70.8064,52.9122 69.5,51.5C 69.7093,50.914 70.0426,50.414 70.5,50C 68.5992,48.361 66.5992,46.861 64.5,45.5C 63.8902,44.609 63.5569,43.609 63.5,42.5C 63.5,41.5 63.5,40.5 63.5,39.5 Z"/></g>
<g><path style="opacity:1" fill="#f8f7b9" d="M 52.5,48.5 C 52.0618,48.4346 51.7284,48.6012 51.5,49C 52.6651,50.0836 53.9984,50.9169 55.5,51.5C 56.7202,50.2889 57.8869,50.2889 59,51.5C 58.8959,54.0626 58.8959,56.7292 59,59.5C 57.6667,60.1667 56.3333,60.8333 55,61.5C 52.6189,60.2496 50.6189,58.5829 49,56.5C 48.5357,57.0944 48.369,57.7611 48.5,58.5C 43.7884,53.7012 42.1217,48.0345 43.5,41.5C 44.552,41.3505 45.552,41.5172 46.5,42C 48.0269,44.6902 50.0269,46.8568 52.5,48.5 Z"/></g>
<g><path style="opacity:1" fill="#9b8d4b" d="M 82.5,41.5 C 84.1911,42.8637 85.8577,44.197 87.5,45.5C 88.516,48.0513 90.1826,50.218 92.5,52C 92.2716,52.3988 91.9382,52.5654 91.5,52.5C 88.235,53.4602 84.9017,53.4602 81.5,52.5C 81.3316,56.6575 81.9983,60.6575 83.5,64.5C 81.2431,65.8026 79.4098,65.136 78,62.5C 76.0924,59.7935 75.259,56.7935 75.5,53.5C 75.5,50.8333 75.5,48.1667 75.5,45.5C 77.8568,45.6633 80.1902,45.4966 82.5,45C 80.3428,43.0879 78.0094,41.4213 75.5,40C 77.9216,39.8648 80.2549,40.3648 82.5,41.5 Z"/></g>
<g><path style="opacity:1" fill="#d1d7a2" d="M 87.5,45.5 C 89.8652,47.8603 92.5319,49.8603 95.5,51.5C 100.703,50.1074 105.37,51.1074 109.5,54.5C 105.939,54.9149 106.106,55.9149 110,57.5C 110.383,56.944 110.883,56.6107 111.5,56.5C 111.5,56.8333 111.5,57.1667 111.5,57.5C 111.083,58.1239 110.416,58.4573 109.5,58.5C 103.687,56.213 97.6866,54.5463 91.5,53.5C 91.5,53.1667 91.5,52.8333 91.5,52.5C 91.9382,52.5654 92.2716,52.3988 92.5,52C 90.1826,50.218 88.516,48.0513 87.5,45.5 Z"/></g>
<g><path style="opacity:0.004" fill="#feffd1" d="M 109.5,54.5 C 110.833,55.1667 110.833,55.1667 109.5,54.5 Z"/></g>
<g><path style="opacity:0.005" fill="#feffd1" d="M 111.5,56.5 C 112.5,55.1667 113.5,55.1667 114.5,56.5C 113.833,56.8333 113.167,57.1667 112.5,57.5C 112.5,56.8333 112.167,56.5 111.5,56.5 Z"/></g>
<g><path style="opacity:1" fill="#eba563" d="M 63.5,42.5 C 63.5569,43.609 63.8902,44.609 64.5,45.5C 63.1201,45.9623 62.4534,46.9623 62.5,48.5C 63.2905,54.2892 66.6239,57.2892 72.5,57.5C 72.5,58.8333 72.5,60.1667 72.5,61.5C 73.5,61.5 74.5,61.5 75.5,61.5C 75.5271,63.1993 76.1938,64.5326 77.5,65.5C 73.4469,65.4297 69.9469,64.0963 67,61.5C 66.8201,64.3094 67.4868,66.9761 69,69.5C 70.8778,70.0527 72.3778,71.0527 73.5,72.5C 73.0698,73.955 73.0698,75.2883 73.5,76.5C 71.6036,75.7255 69.937,74.7255 68.5,73.5C 63.8533,71.013 60.8533,67.1796 59.5,62C 60.2471,57.539 60.7471,53.039 61,48.5C 61.2401,46.1484 62.0735,44.1484 63.5,42.5 Z"/></g>
<g><path style="opacity:0.004" fill="#feffd1" d="M 114.5,56.5 C 115.167,56.5 115.5,56.8333 115.5,57.5C 115.167,57.1667 114.833,56.8333 114.5,56.5 Z"/></g>
<g><path style="opacity:0.008" fill="#feffd1" d="M 115.5,57.5 C 116.167,57.5 116.5,57.8333 116.5,58.5C 116.167,58.1667 115.833,57.8333 115.5,57.5 Z"/></g>
<g><path style="opacity:0.004" fill="#feffd1" d="M 116.5,58.5 C 117.289,58.7828 117.956,59.2828 118.5,60C 117.184,60.5281 116.517,60.0281 116.5,58.5 Z"/></g>
<g><path style="opacity:1" fill="#e8b269" d="M 64.5,45.5 C 66.5992,46.861 68.5992,48.361 70.5,50C 70.0426,50.414 69.7093,50.914 69.5,51.5C 70.8064,52.9122 71.6397,54.5789 72,56.5C 73.045,55.6266 73.8783,54.6266 74.5,53.5C 74.8333,53.5 75.1667,53.5 75.5,53.5C 75.259,56.7935 76.0924,59.7935 78,62.5C 79.4098,65.136 81.2431,65.8026 83.5,64.5C 87.2864,65.2216 90.6197,66.5549 93.5,68.5C 91.3815,71.0299 88.7149,71.6966 85.5,70.5C 82.53,69.3468 79.8633,67.6801 77.5,65.5C 76.1938,64.5326 75.5271,63.1993 75.5,61.5C 74.5,61.5 73.5,61.5 72.5,61.5C 72.5,60.1667 72.5,58.8333 72.5,57.5C 66.6239,57.2892 63.2905,54.2892 62.5,48.5C 62.4534,46.9623 63.1201,45.9623 64.5,45.5 Z"/></g>
<g><path style="opacity:1" fill="#ebe6a9" d="M 63.5,39.5 C 63.5,40.5 63.5,41.5 63.5,42.5C 62.0735,44.1484 61.2401,46.1484 61,48.5C 60.7471,53.039 60.2471,57.539 59.5,62C 60.8533,67.1796 63.8533,71.013 68.5,73.5C 66.5,73.5 64.5,73.5 62.5,73.5C 62.1575,71.7748 61.1575,71.2748 59.5,72C 56.8241,73.8396 54.9908,76.3396 54,79.5C 54.2907,76.7048 54.7907,73.8715 55.5,71C 55.569,68.2649 54.569,66.0983 52.5,64.5C 50.684,62.8816 49.3507,60.8816 48.5,58.5C 48.369,57.7611 48.5357,57.0944 49,56.5C 50.6189,58.5829 52.6189,60.2496 55,61.5C 56.3333,60.8333 57.6667,60.1667 59,59.5C 58.8959,56.7292 58.8959,54.0626 59,51.5C 57.8869,50.2889 56.7202,50.2889 55.5,51.5C 53.9984,50.9169 52.6651,50.0836 51.5,49C 51.7284,48.6012 52.0618,48.4346 52.5,48.5C 55.149,49.6205 57.4823,48.9538 59.5,46.5C 60.6076,43.9409 61.9409,41.6076 63.5,39.5 Z"/></g>
<g><path style="opacity:1" fill="#f6efb6" d="M 91.5,53.5 C 97.6866,54.5463 103.687,56.213 109.5,58.5C 110.416,58.4573 111.083,58.1239 111.5,57.5C 111.833,57.5 112.167,57.5 112.5,57.5C 112.5,58.1667 112.5,58.8333 112.5,59.5C 112.5,60.1667 112.5,60.8333 112.5,61.5C 110.958,60.6993 109.292,60.366 107.5,60.5C 107.5,63.1667 107.5,65.8333 107.5,68.5C 105.5,68.5 103.5,68.5 101.5,68.5C 101.357,66.7376 101.691,65.0709 102.5,63.5C 101.5,62.6667 100.5,61.8333 99.5,61C 95.5497,60.5378 91.7164,59.7045 88,58.5C 87.8333,58.1667 87.6667,57.8333 87.5,57.5C 88.7287,56.7189 90.062,56.2189 91.5,56C 90.8333,55.6667 90.1667,55.3333 89.5,55C 90.4158,54.7216 91.0825,54.2216 91.5,53.5 Z"/></g>
<g><path style="opacity:1" fill="#ebcd60" d="M 112.5,61.5 C 115.543,63.5433 117.876,66.2099 119.5,69.5C 118.828,70.2674 117.995,70.9341 117,71.5C 114.544,70.8502 112.21,69.8502 110,68.5C 109.5,68.8333 109,69.1667 108.5,69.5C 109.167,70.1667 109.833,70.8333 110.5,71.5C 109.807,72.5178 109.141,73.5178 108.5,74.5C 108.167,74.5 107.833,74.5 107.5,74.5C 105.473,74.6621 103.473,74.4955 101.5,74C 100.663,72.9887 100.33,71.8221 100.5,70.5C 100.833,69.8333 101.167,69.1667 101.5,68.5C 103.5,68.5 105.5,68.5 107.5,68.5C 107.5,65.8333 107.5,63.1667 107.5,60.5C 109.292,60.366 110.958,60.6993 112.5,61.5 Z"/></g>
<g><path style="opacity:1" fill="#ecd097" d="M 91.5,52.5 C 91.5,52.8333 91.5,53.1667 91.5,53.5C 91.0825,54.2216 90.4158,54.7216 89.5,55C 90.1667,55.3333 90.8333,55.6667 91.5,56C 90.062,56.2189 88.7287,56.7189 87.5,57.5C 87.6667,57.8333 87.8333,58.1667 88,58.5C 91.7164,59.7045 95.5497,60.5378 99.5,61C 100.5,61.8333 101.5,62.6667 102.5,63.5C 101.691,65.0709 101.357,66.7376 101.5,68.5C 101.167,69.1667 100.833,69.8333 100.5,70.5C 99.8826,70.6107 99.3826,70.944 99,71.5C 97.4167,70.0289 95.5834,69.0289 93.5,68.5C 90.6197,66.5549 87.2864,65.2216 83.5,64.5C 81.9983,60.6575 81.3316,56.6575 81.5,52.5C 84.9017,53.4602 88.235,53.4602 91.5,52.5 Z"/></g>
<g><path style="opacity:1" fill="#f1d56a" d="M 119.5,69.5 C 122.144,71.516 122.977,74.1827 122,77.5C 121.667,76.5 121.333,75.5 121,74.5C 120.167,76 119,77.1667 117.5,78C 118.449,78.6172 119.282,78.4506 120,77.5C 120.483,78.448 120.649,79.448 120.5,80.5C 117.401,80.9077 115.067,79.741 113.5,77C 113.833,76.6667 114.167,76.3333 114.5,76C 112.414,75.6847 110.414,75.1847 108.5,74.5C 109.141,73.5178 109.807,72.5178 110.5,71.5C 109.833,70.8333 109.167,70.1667 108.5,69.5C 109,69.1667 109.5,68.8333 110,68.5C 112.21,69.8502 114.544,70.8502 117,71.5C 117.995,70.9341 118.828,70.2674 119.5,69.5 Z"/></g>
<g><path style="opacity:1" fill="#f6cc96" d="M 77.5,65.5 C 79.8633,67.6801 82.53,69.3468 85.5,70.5C 84.7375,71.2679 83.7375,71.7679 82.5,72C 83.2666,73.4705 83.9332,74.9705 84.5,76.5C 81.1127,75.9819 77.7794,75.1486 74.5,74C 73.944,73.6174 73.6107,73.1174 73.5,72.5C 72.3778,71.0527 70.8778,70.0527 69,69.5C 67.4868,66.9761 66.8201,64.3094 67,61.5C 69.9469,64.0963 73.4469,65.4297 77.5,65.5 Z"/></g>
<g><path style="opacity:1" fill="#f0d095" d="M 93.5,68.5 C 95.5834,69.0289 97.4167,70.0289 99,71.5C 99.3826,70.944 99.8826,70.6107 100.5,70.5C 100.33,71.8221 100.663,72.9887 101.5,74C 103.473,74.4955 105.473,74.6621 107.5,74.5C 107.833,75.1667 108.167,75.8333 108.5,76.5C 108.443,80.2843 110.443,82.951 114.5,84.5C 113.749,85.5735 112.749,85.7401 111.5,85C 109.757,83.8905 108.424,82.3905 107.5,80.5C 106.571,81.6888 106.238,83.0222 106.5,84.5C 101.011,81.9405 95.5113,79.2738 90,76.5C 89.5357,77.0944 89.369,77.7611 89.5,78.5C 88.1805,77.0582 86.5138,76.3915 84.5,76.5C 83.9332,74.9705 83.2666,73.4705 82.5,72C 83.7375,71.7679 84.7375,71.2679 85.5,70.5C 88.7149,71.6966 91.3815,71.0299 93.5,68.5 Z"/></g>
<g><path style="opacity:1" fill="#c7ad54" d="M 112.5,59.5 C 117.617,63.2781 121.617,67.9448 124.5,73.5C 124.895,80.9257 124.895,87.5923 124.5,93.5C 121.193,85.8611 115.859,80.1944 108.5,76.5C 108.167,75.8333 107.833,75.1667 107.5,74.5C 107.833,74.5 108.167,74.5 108.5,74.5C 110.414,75.1847 112.414,75.6847 114.5,76C 114.167,76.3333 113.833,76.6667 113.5,77C 115.067,79.741 117.401,80.9077 120.5,80.5C 120.649,79.448 120.483,78.448 120,77.5C 119.282,78.4506 118.449,78.6172 117.5,78C 119,77.1667 120.167,76 121,74.5C 121.333,75.5 121.667,76.5 122,77.5C 122.977,74.1827 122.144,71.516 119.5,69.5C 117.876,66.2099 115.543,63.5433 112.5,61.5C 112.5,60.8333 112.5,60.1667 112.5,59.5 Z"/></g>
<g><path style="opacity:1" fill="#f3f0b6" d="M 52.5,64.5 C 54.569,66.0983 55.569,68.2649 55.5,71C 54.7907,73.8715 54.2907,76.7048 54,79.5C 54.9908,76.3396 56.8241,73.8396 59.5,72C 61.1575,71.2748 62.1575,71.7748 62.5,73.5C 60.5154,73.8586 59.8487,74.692 60.5,76C 58.4637,77.8194 58.297,79.6527 60,81.5C 61.813,80.3909 62.6463,81.0576 62.5,83.5C 61.209,83.2627 60.209,83.596 59.5,84.5C 56.1219,87.6182 54.7886,91.6182 55.5,96.5C 54.6773,93.023 54.1773,89.3563 54,85.5C 53.5026,88.146 53.3359,90.8127 53.5,93.5C 52.2117,90.2999 52.2117,86.9666 53.5,83.5C 52.9067,81.6183 52.2401,79.7849 51.5,78C 55.3673,73.9196 55.3673,69.9196 51.5,66C 52.056,65.6174 52.3893,65.1174 52.5,64.5 Z"/></g>
<g><path style="opacity:1" fill="#554411" d="M 73.5,72.5 C 73.6107,73.1174 73.944,73.6174 74.5,74C 77.7794,75.1486 81.1127,75.9819 84.5,76.5C 86.5138,76.3915 88.1805,77.0582 89.5,78.5C 90.4511,79.9187 90.7845,81.5853 90.5,83.5C 89.8333,83.5 89.5,83.1667 89.5,82.5C 88.2812,80.6995 86.4479,79.6995 84,79.5C 83.1268,79.7355 82.2935,80.0688 81.5,80.5C 81.0685,78.725 79.5685,77.3916 77,76.5C 76.0546,76.9054 75.3879,77.572 75,78.5C 74.5034,80.8098 74.3367,83.1432 74.5,85.5C 72.2263,87.1446 72.2263,88.6446 74.5,90C 72.3849,90.5362 71.0516,89.7029 70.5,87.5C 71.1847,85.5856 71.6847,83.5856 72,81.5C 72.8893,82.8882 73.3893,82.7215 73.5,81C 72.3967,80.8534 71.23,80.02 70,78.5C 69.5172,77.552 69.3505,76.552 69.5,75.5C 66.9327,75.2785 64.5994,74.6118 62.5,73.5C 64.5,73.5 66.5,73.5 68.5,73.5C 69.937,74.7255 71.6036,75.7255 73.5,76.5C 73.0698,75.2883 73.0698,73.955 73.5,72.5 Z"/></g>
<g><path style="opacity:1" fill="#ece2a3" d="M 62.5,73.5 C 64.5994,74.6118 66.9327,75.2785 69.5,75.5C 69.3505,76.552 69.5172,77.552 70,78.5C 71.23,80.02 72.3967,80.8534 73.5,81C 73.3893,82.7215 72.8893,82.8882 72,81.5C 71.6847,83.5856 71.1847,85.5856 70.5,87.5C 68.7779,89.8888 66.7779,91.8888 64.5,93.5C 60.3122,96.4614 59.6456,95.7947 62.5,91.5C 61.9765,88.8998 60.9765,86.5665 59.5,84.5C 60.209,83.596 61.209,83.2627 62.5,83.5C 62.6463,81.0576 61.813,80.3909 60,81.5C 58.297,79.6527 58.4637,77.8194 60.5,76C 59.8487,74.692 60.5154,73.8586 62.5,73.5 Z"/></g>
<g><path style="opacity:1" fill="#8f6121" d="M 106.5,84.5 C 107.167,84.5 107.5,84.8333 107.5,85.5C 106.791,86.404 105.791,86.7373 104.5,86.5C 100.655,84.5879 96.6553,82.9213 92.5,81.5C 91.8182,82.2427 91.1515,82.9094 90.5,83.5C 90.7845,81.5853 90.4511,79.9187 89.5,78.5C 89.369,77.7611 89.5357,77.0944 90,76.5C 95.5113,79.2738 101.011,81.9405 106.5,84.5 Z"/></g>
<g><path style="opacity:1" fill="#746234" d="M 89.5,82.5 C 88.5768,81.6971 87.5768,81.5304 86.5,82C 83.5901,83.5504 81.2568,85.7171 79.5,88.5C 78.2679,87.8555 76.9346,87.6888 75.5,88C 75.1164,87.0494 74.7831,86.2161 74.5,85.5C 74.3367,83.1432 74.5034,80.8098 75,78.5C 75.3879,77.572 76.0546,76.9054 77,76.5C 79.5685,77.3916 81.0685,78.725 81.5,80.5C 82.2935,80.0688 83.1268,79.7355 84,79.5C 86.4479,79.6995 88.2812,80.6995 89.5,82.5 Z"/></g>
<g><path style="opacity:1" fill="#75602d" d="M 89.5,82.5 C 89.5,83.1667 89.8333,83.5 90.5,83.5C 89.4019,84.397 89.4019,85.2303 90.5,86C 87.8333,86.6667 87.8333,87.3333 90.5,88C 89.244,88.4169 88.5774,89.2502 88.5,90.5C 84.7593,89.5985 82.7593,90.9319 82.5,94.5C 80.0504,94.702 77.717,94.3686 75.5,93.5C 73.1527,92.1054 70.8194,92.2721 68.5,94C 69.756,94.4169 70.4226,95.2502 70.5,96.5C 69.5,96.5 68.5,96.5 67.5,96.5C 67.6567,95.1266 67.49,93.7932 67,92.5C 66.7216,93.4158 66.2216,94.0825 65.5,94.5C 65.5,93.8333 65.1667,93.5 64.5,93.5C 66.7779,91.8888 68.7779,89.8888 70.5,87.5C 71.0516,89.7029 72.3849,90.5362 74.5,90C 72.2263,88.6446 72.2263,87.1446 74.5,85.5C 74.7831,86.2161 75.1164,87.0494 75.5,88C 76.9346,87.6888 78.2679,87.8555 79.5,88.5C 81.2568,85.7171 83.5901,83.5504 86.5,82C 87.5768,81.5304 88.5768,81.6971 89.5,82.5 Z"/></g>
<g><path style="opacity:1" fill="#f3f0b2" d="M 59.5,84.5 C 60.9765,86.5665 61.9765,88.8998 62.5,91.5C 59.6456,95.7947 60.3122,96.4614 64.5,93.5C 65.1667,93.5 65.5,93.8333 65.5,94.5C 64.8592,95.4822 64.1925,96.4822 63.5,97.5C 64.325,98.3857 65.325,98.719 66.5,98.5C 66.4386,100.592 65.4386,102.092 63.5,103C 63.9574,103.414 64.2907,103.914 64.5,104.5C 63.2299,105.288 62.2299,106.288 61.5,107.5C 60.1154,106.426 58.9487,105.093 58,103.5C 57.2828,104.044 56.7828,104.711 56.5,105.5C 55.3054,105.134 54.6387,104.301 54.5,103C 55.2865,100.901 55.6199,98.7345 55.5,96.5C 54.7886,91.6182 56.1219,87.6182 59.5,84.5 Z"/></g>
<g><path style="opacity:1" fill="#e0b070" d="M 104.5,86.5 C 104.062,86.4346 103.728,86.6012 103.5,87C 107.49,89.7832 106.824,91.2832 101.5,91.5C 98.9115,93.0798 96.5782,95.0798 94.5,97.5C 93.8165,97.1373 93.1499,96.8039 92.5,96.5C 96.4405,93.6243 95.9405,91.291 91,89.5C 90.0979,89.7432 89.2646,90.0766 88.5,90.5C 88.5774,89.2502 89.244,88.4169 90.5,88C 87.8333,87.3333 87.8333,86.6667 90.5,86C 89.4019,85.2303 89.4019,84.397 90.5,83.5C 91.1515,82.9094 91.8182,82.2427 92.5,81.5C 96.6553,82.9213 100.655,84.5879 104.5,86.5 Z"/></g>
<g><path style="opacity:1" fill="#f6dc97" d="M 114.5,84.5 C 116.371,84.8588 117.871,85.8588 119,87.5C 119.304,91.5483 119.804,95.5483 120.5,99.5C 117.881,99.7683 115.381,99.435 113,98.5C 110.638,100.788 107.805,101.788 104.5,101.5C 104.351,100.448 104.517,99.448 105,98.5C 106.518,97.8366 107.685,96.8366 108.5,95.5C 110.167,95.5 111.833,95.5 113.5,95.5C 113.379,91.0855 111.379,87.7521 107.5,85.5C 107.5,84.8333 107.167,84.5 106.5,84.5C 106.238,83.0222 106.571,81.6888 107.5,80.5C 108.424,82.3905 109.757,83.8905 111.5,85C 112.749,85.7401 113.749,85.5735 114.5,84.5 Z"/></g>
<g><path style="opacity:1" fill="#f1cf8c" d="M 107.5,85.5 C 111.379,87.7521 113.379,91.0855 113.5,95.5C 111.833,95.5 110.167,95.5 108.5,95.5C 107.833,95.5 107.167,95.5 106.5,95.5C 103.931,95.2623 102.265,93.929 101.5,91.5C 106.824,91.2832 107.49,89.7832 103.5,87C 103.728,86.6012 104.062,86.4346 104.5,86.5C 105.791,86.7373 106.791,86.404 107.5,85.5 Z"/></g>
<g><path style="opacity:1" fill="#f9e9ac" d="M 108.5,76.5 C 115.859,80.1944 121.193,85.8611 124.5,93.5C 123.527,93.9867 122.527,94.4867 121.5,95C 124.106,96.6501 124.106,98.1501 121.5,99.5C 121.167,99.5 120.833,99.5 120.5,99.5C 119.804,95.5483 119.304,91.5483 119,87.5C 117.871,85.8588 116.371,84.8588 114.5,84.5C 110.443,82.951 108.443,80.2843 108.5,76.5 Z"/></g>
<g><path style="opacity:1" fill="#f5ecb3" d="M 75.5,93.5 C 74.3915,94.29 73.0581,94.79 71.5,95C 74.1667,95.6667 74.1667,96.3333 71.5,97C 72.0253,97.6924 72.6919,98.1924 73.5,98.5C 75.4866,96.4986 77.8199,95.6652 80.5,96C 79.386,97.5699 78.0526,98.9032 76.5,100C 81.8763,103.109 81.543,104.276 75.5,103.5C 74.7174,105.288 73.3841,106.288 71.5,106.5C 70.8333,106.5 70.1667,106.5 69.5,106.5C 68.791,105.596 67.791,105.263 66.5,105.5C 66.6832,101.937 68.0165,98.9368 70.5,96.5C 70.4226,95.2502 69.756,94.4169 68.5,94C 70.8194,92.2721 73.1527,92.1054 75.5,93.5 Z"/></g>
<g><path style="opacity:1" fill="#f3e7af" d="M 92.5,96.5 C 90.8058,97.5274 89.4725,98.8608 88.5,100.5C 86.1691,100.498 84.1691,101.331 82.5,103C 83.1667,103.333 83.8333,103.667 84.5,104C 76.7184,105.65 77.0517,106.817 85.5,107.5C 78.5843,108.813 78.251,109.98 84.5,111C 82.9632,112.11 82.2965,113.61 82.5,115.5C 78.3184,115.503 75.8184,113.503 75,109.5C 73.8549,108.364 72.6883,107.364 71.5,106.5C 73.3841,106.288 74.7174,105.288 75.5,103.5C 81.543,104.276 81.8763,103.109 76.5,100C 78.0526,98.9032 79.386,97.5699 80.5,96C 77.8199,95.6652 75.4866,96.4986 73.5,98.5C 72.6919,98.1924 72.0253,97.6924 71.5,97C 74.1667,96.3333 74.1667,95.6667 71.5,95C 73.0581,94.79 74.3915,94.29 75.5,93.5C 77.717,94.3686 80.0504,94.702 82.5,94.5C 82.7593,90.9319 84.7593,89.5985 88.5,90.5C 89.2646,90.0766 90.0979,89.7432 91,89.5C 95.9405,91.291 96.4405,93.6243 92.5,96.5 Z"/></g>
<g><path style="opacity:0.884" fill="#ece9ad" d="M 124.5,73.5 C 126.069,78.2684 127.235,83.2684 128,88.5C 128.898,90.6264 130.065,92.6264 131.5,94.5C 128.5,97.8333 125.5,101.167 122.5,104.5C 123.428,105.768 123.595,107.101 123,108.5C 120.21,109.476 117.71,110.809 115.5,112.5C 115.334,109.832 114.334,107.498 112.5,105.5C 113.127,104.583 113.461,103.583 113.5,102.5C 116.028,101.065 118.695,100.065 121.5,99.5C 124.106,98.1501 124.106,96.6501 121.5,95C 122.527,94.4867 123.527,93.9867 124.5,93.5C 124.895,87.5923 124.895,80.9257 124.5,73.5 Z"/></g>
<g><path style="opacity:1" fill="#e5c07a" d="M 106.5,95.5 C 107.167,95.5 107.833,95.5 108.5,95.5C 107.685,96.8366 106.518,97.8366 105,98.5C 104.517,99.448 104.351,100.448 104.5,101.5C 107.805,101.788 110.638,100.788 113,98.5C 115.381,99.435 117.881,99.7683 120.5,99.5C 120.833,99.5 121.167,99.5 121.5,99.5C 118.695,100.065 116.028,101.065 113.5,102.5C 111.091,103.701 109.091,105.367 107.5,107.5C 104.086,109.336 101.753,108.336 100.5,104.5C 97.089,105.09 94.089,106.423 91.5,108.5C 90.5,108.167 89.8333,107.5 89.5,106.5C 93.8926,106.543 94.2259,106.043 90.5,105C 92.6237,103.418 94.7904,103.251 97,104.5C 99.4057,100.592 102.572,97.5915 106.5,95.5 Z"/></g>
<g><path style="opacity:1" fill="#e8e8ac" d="M 55.5,96.5 C 55.6199,98.7345 55.2865,100.901 54.5,103C 54.6387,104.301 55.3054,105.134 56.5,105.5C 53.8667,110.072 52.8667,115.072 53.5,120.5C 52.71,119.391 52.21,118.058 52,116.5C 51.1072,117.711 50.2739,117.711 49.5,116.5C 51.0963,113.385 50.4296,110.885 47.5,109C 48.3767,107.133 49.8767,105.966 52,105.5C 53.1564,101.582 53.6564,97.5817 53.5,93.5C 53.3359,90.8127 53.5026,88.146 54,85.5C 54.1773,89.3563 54.6773,93.023 55.5,96.5 Z"/></g>
<g><path style="opacity:1" fill="#fbeeb6" d="M 88.5,100.5 C 88.2053,102.735 88.5386,104.735 89.5,106.5C 89.8333,107.5 90.5,108.167 91.5,108.5C 89.7215,109.67 88.7215,111.336 88.5,113.5C 86.8008,113.34 85.1341,113.506 83.5,114C 84.4158,114.278 85.0825,114.778 85.5,115.5C 84.5,115.5 83.5,115.5 82.5,115.5C 82.2965,113.61 82.9632,112.11 84.5,111C 78.251,109.98 78.5843,108.813 85.5,107.5C 77.0517,106.817 76.7184,105.65 84.5,104C 83.8333,103.667 83.1667,103.333 82.5,103C 84.1691,101.331 86.1691,100.498 88.5,100.5 Z"/></g>
<g><path style="opacity:1" fill="#f3cd8a" d="M 101.5,91.5 C 102.265,93.929 103.931,95.2623 106.5,95.5C 102.572,97.5915 99.4057,100.592 97,104.5C 94.7904,103.251 92.6237,103.418 90.5,105C 94.2259,106.043 93.8926,106.543 89.5,106.5C 88.5386,104.735 88.2053,102.735 88.5,100.5C 89.4725,98.8608 90.8058,97.5274 92.5,96.5C 93.1499,96.8039 93.8165,97.1373 94.5,97.5C 96.5782,95.0798 98.9115,93.0798 101.5,91.5 Z"/></g>
<g><path style="opacity:1" fill="#fedfa5" d="M 107.5,107.5 C 109.017,107.489 110.184,106.823 111,105.5C 113,107.833 113,110.167 111,112.5C 110.481,111.484 109.647,110.818 108.5,110.5C 104.85,112.086 101.183,113.419 97.5,114.5C 97.189,113.522 96.5223,112.855 95.5,112.5C 92.3199,114.095 88.9865,115.095 85.5,115.5C 85.0825,114.778 84.4158,114.278 83.5,114C 85.1341,113.506 86.8008,113.34 88.5,113.5C 88.7215,111.336 89.7215,109.67 91.5,108.5C 94.089,106.423 97.089,105.09 100.5,104.5C 101.753,108.336 104.086,109.336 107.5,107.5 Z"/></g>
<g><path style="opacity:1" fill="#eacc87" d="M 70.5,96.5 C 68.0165,98.9368 66.6832,101.937 66.5,105.5C 67.791,105.263 68.791,105.596 69.5,106.5C 69.4754,108.082 69.3088,109.749 69,111.5C 70.3333,110.833 71.3333,109.833 72,108.5C 72.0657,111.276 73.2324,113.442 75.5,115C 79.5256,116.099 83.3589,117.599 87,119.5C 88.3002,118.293 89.8002,117.626 91.5,117.5C 91.5,118.5 91.5,119.5 91.5,120.5C 90.448,120.351 89.448,120.517 88.5,121C 89.7375,121.232 90.7375,121.732 91.5,122.5C 88.2352,122.701 85.5685,121.534 83.5,119C 76.2082,118.984 69.2082,117.817 62.5,115.5C 62.5,113.5 62.5,111.5 62.5,109.5C 62.1667,108.833 61.8333,108.167 61.5,107.5C 62.2299,106.288 63.2299,105.288 64.5,104.5C 64.2907,103.914 63.9574,103.414 63.5,103C 65.4386,102.092 66.4386,100.592 66.5,98.5C 65.325,98.719 64.325,98.3857 63.5,97.5C 64.1925,96.4822 64.8592,95.4822 65.5,94.5C 66.2216,94.0825 66.7216,93.4158 67,92.5C 67.49,93.7932 67.6567,95.1266 67.5,96.5C 68.5,96.5 69.5,96.5 70.5,96.5 Z"/></g>
<g><path style="opacity:1" fill="#eac78c" d="M 113.5,102.5 C 113.461,103.583 113.127,104.583 112.5,105.5C 114.334,107.498 115.334,109.832 115.5,112.5C 115.67,113.822 115.337,114.989 114.5,116C 111.113,118.185 107.446,119.685 103.5,120.5C 103.083,119.876 102.416,119.543 101.5,119.5C 99.4896,120.362 97.4896,120.862 95.5,121C 97.229,119.211 97.8957,117.044 97.5,114.5C 101.183,113.419 104.85,112.086 108.5,110.5C 109.647,110.818 110.481,111.484 111,112.5C 113,110.167 113,107.833 111,105.5C 110.184,106.823 109.017,107.489 107.5,107.5C 109.091,105.367 111.091,103.701 113.5,102.5 Z"/></g>
<g><path style="opacity:1" fill="#4d4508" d="M 62.5,109.5 C 62.5,111.5 62.5,113.5 62.5,115.5C 61.5657,114.228 60.899,112.728 60.5,111C 60.8361,109.97 61.5028,109.47 62.5,109.5 Z"/></g>
<g><path style="opacity:0.008" fill="#feffd1" d="M 117.5,114.5 C 117.897,113.475 118.563,113.308 119.5,114C 118.906,114.464 118.239,114.631 117.5,114.5 Z"/></g>
<g><path style="opacity:1" fill="#d1d59e" d="M 61.5,107.5 C 61.8333,108.167 62.1667,108.833 62.5,109.5C 61.5028,109.47 60.8361,109.97 60.5,111C 60.899,112.728 61.5657,114.228 62.5,115.5C 63.2823,117.451 64.6156,118.951 66.5,120C 69.5298,120.578 72.1965,121.745 74.5,123.5C 70.7372,124.252 67.4039,125.919 64.5,128.5C 62.2525,127.594 60.2525,126.261 58.5,124.5C 58.1667,124.667 57.8333,124.833 57.5,125C 59.6057,126.637 60.2724,128.47 59.5,130.5C 56.2226,127.899 54.2226,124.565 53.5,120.5C 52.8667,115.072 53.8667,110.072 56.5,105.5C 56.7828,104.711 57.2828,104.044 58,103.5C 58.9487,105.093 60.1154,106.426 61.5,107.5 Z"/></g>
<g><path style="opacity:1" fill="#deb873" d="M 69.5,106.5 C 70.1667,106.5 70.8333,106.5 71.5,106.5C 72.6883,107.364 73.8549,108.364 75,109.5C 75.8184,113.503 78.3184,115.503 82.5,115.5C 83.5,115.5 84.5,115.5 85.5,115.5C 88.9865,115.095 92.3199,114.095 95.5,112.5C 96.5223,112.855 97.189,113.522 97.5,114.5C 97.8957,117.044 97.229,119.211 95.5,121C 97.4896,120.862 99.4896,120.362 101.5,119.5C 102.416,119.543 103.083,119.876 103.5,120.5C 101.487,122.497 99.1537,124.164 96.5,125.5C 95.3777,124.37 94.0443,123.703 92.5,123.5C 92.5,122.833 92.1667,122.5 91.5,122.5C 90.7375,121.732 89.7375,121.232 88.5,121C 89.448,120.517 90.448,120.351 91.5,120.5C 91.5,119.5 91.5,118.5 91.5,117.5C 89.8002,117.626 88.3002,118.293 87,119.5C 83.3589,117.599 79.5256,116.099 75.5,115C 73.2324,113.442 72.0657,111.276 72,108.5C 71.3333,109.833 70.3333,110.833 69,111.5C 69.3088,109.749 69.4754,108.082 69.5,106.5 Z"/></g>
<g><path style="opacity:1" fill="#a89657" d="M 62.5,115.5 C 69.2082,117.817 76.2082,118.984 83.5,119C 85.5685,121.534 88.2352,122.701 91.5,122.5C 92.1667,122.5 92.5,122.833 92.5,123.5C 90.8333,123.5 89.1667,123.5 87.5,123.5C 83.2033,124.512 78.87,124.512 74.5,123.5C 72.1965,121.745 69.5298,120.578 66.5,120C 64.6156,118.951 63.2823,117.451 62.5,115.5 Z"/></g>
<g><path style="opacity:1" fill="#ddeab9" d="M 74.5,123.5 C 78.87,124.512 83.2033,124.512 87.5,123.5C 86.7707,130.064 83.104,133.897 76.5,135C 72.1321,135.709 67.7988,135.542 63.5,134.5C 61.7212,133.606 60.3879,132.273 59.5,130.5C 60.2724,128.47 59.6057,126.637 57.5,125C 57.8333,124.833 58.1667,124.667 58.5,124.5C 60.2525,126.261 62.2525,127.594 64.5,128.5C 67.4039,125.919 70.7372,124.252 74.5,123.5 Z"/></g>
<g><path style="opacity:0.654" fill="#febd87" d="M 51.5,129.5 C 55.1916,131.344 58.5249,133.677 61.5,136.5C 59.7408,137.754 58.2408,137.421 57,135.5C 54.6667,138.5 52.3333,141.5 50,144.5C 49.5,144 49,143.5 48.5,143C 50.5,140 52.5,137 54.5,134C 51.7814,133.195 50.7814,131.695 51.5,129.5 Z"/></g>
<g><path style="opacity:0.647" fill="#febc86" d="M 121.5,141.5 C 121.045,138.797 120.378,136.13 119.5,133.5C 119.833,132.833 120.167,132.167 120.5,131.5C 122.555,135.328 124.221,139.328 125.5,143.5C 124.675,144.386 123.675,144.719 122.5,144.5C 122.737,143.209 122.404,142.209 121.5,141.5 Z"/></g>
<g><path style="opacity:0.635" fill="#febd87" d="M 121.5,141.5 C 121.703,143.39 121.037,144.89 119.5,146C 117.649,146.837 115.816,147.671 114,148.5C 111.454,144.388 110.287,140.055 110.5,135.5C 111.249,137.012 112.416,138.012 114,138.5C 117.551,136.886 120.051,137.886 121.5,141.5 Z M 113.5,140.5 C 115.167,140.5 116.833,140.5 118.5,140.5C 118.5,141.833 118.5,143.167 118.5,144.5C 114.918,146.161 113.252,144.827 113.5,140.5 Z"/></g>
<g><path style="opacity:0.677" fill="#febd88" d="M 65.5,137.5 C 72.0001,136.499 74.5001,139.165 73,145.5C 71.205,152.205 67.5383,153.205 62,148.5C 61.2571,146.559 61.4238,144.726 62.5,143C 65.2305,142.272 67.8971,142.438 70.5,143.5C 71.6069,141.231 70.7735,139.898 68,139.5C 65.0499,141.044 64.2166,140.378 65.5,137.5 Z M 64.5,144.5 C 66.6547,144.372 68.6547,144.872 70.5,146C 68.362,149.104 66.0287,149.27 63.5,146.5C 63.8627,145.817 64.1961,145.15 64.5,144.5 Z"/></g>
<g><path style="opacity:0.647" fill="#febd87" d="M 104.5,137.5 C 105.478,137.811 106.145,138.478 106.5,139.5C 104.955,140.452 103.288,140.785 101.5,140.5C 102.46,144.195 102.46,147.861 101.5,151.5C 99.9385,148.037 99.1051,144.37 99,140.5C 97.5064,141.747 96.0064,141.747 94.5,140.5C 94.7093,139.914 95.0426,139.414 95.5,139C 98.6946,138.819 101.695,138.319 104.5,137.5 Z"/></g>
<g><path style="opacity:0.67" fill="#febd87" d="M 80.5,139.5 C 82.0358,141.025 83.0358,143.025 83.5,145.5C 84.941,144.135 86.2744,142.635 87.5,141C 88.635,140.251 89.635,140.417 90.5,141.5C 89.1667,143.167 87.8333,144.833 86.5,146.5C 87.5,148.5 88.5,150.5 89.5,152.5C 89,152.833 88.5,153.167 88,153.5C 86.3514,152.214 85.1847,150.547 84.5,148.5C 83.675,147.614 82.675,147.281 81.5,147.5C 81.7852,149.288 81.4519,150.955 80.5,152.5C 80.1667,151.167 79.8333,149.833 79.5,148.5C 79.9657,145.508 80.2991,142.508 80.5,139.5 Z"/></g>
</svg>
