<?xml version="1.0" encoding="UTF-8"?>
<!DOCTYPE svg PUBLIC "-//W3C//DTD SVG 1.1//EN" "http://www.w3.org/Graphics/SVG/1.1/DTD/svg11.dtd">
<svg xmlns="http://www.w3.org/2000/svg" version="1.1" width="175px" height="175px" style="shape-rendering:geometricPrecision; text-rendering:geometricPrecision; image-rendering:optimizeQuality; fill-rule:evenodd; clip-rule:evenodd" xmlns:xlink="http://www.w3.org/1999/xlink">
<g><path style="opacity:0.849" fill="#f1cede" d="M 74.5,20.5 C 75.4972,20.4701 76.1639,20.9701 76.5,22C 75.7636,24.1394 74.7636,26.1394 73.5,28C 75.9768,29.6427 78.3102,31.476 80.5,33.5C 79.635,34.5827 78.635,34.7494 77.5,34C 75.6951,33.028 74.0284,31.8613 72.5,30.5C 72.1667,32.5 71.8333,34.5 71.5,36.5C 69.2408,32.8612 67.5742,28.8612 66.5,24.5C 66.8076,23.6919 67.3076,23.0253 68,22.5C 69.1853,24.3772 70.1853,26.3772 71,28.5C 72.0764,25.7627 73.243,23.096 74.5,20.5 Z"/></g>
<g><path style="opacity:0.787" fill="#f0cede" d="M 103.5,20.5 C 104.5,20.5 105.5,20.5 106.5,20.5C 106.167,22.5 105.833,24.5 105.5,26.5C 107.5,26.8333 109.5,27.1667 111.5,27.5C 111.116,25.3352 111.783,23.6685 113.5,22.5C 113.833,23 114.167,23.5 114.5,24C 113.496,27.7006 112.496,31.3672 111.5,35C 110.4,35.4317 109.733,34.9317 109.5,33.5C 109.68,32.4461 110.013,31.4461 110.5,30.5C 108.892,29.6816 107.225,29.0149 105.5,28.5C 104.684,30.2873 103.684,31.9539 102.5,33.5C 102.167,32.8333 101.833,32.1667 101.5,31.5C 102.426,27.8697 103.093,24.203 103.5,20.5 Z"/></g>
<g><path style="opacity:0.827" fill="#f1cede" d="M 89.5,18.5 C 96.436,20.7155 98.1027,25.0489 94.5,31.5C 88.4278,34.9791 84.7612,33.1458 83.5,26C 83.9278,22.087 85.9278,19.587 89.5,18.5 Z M 88.5,21.5 C 93.1522,22.1035 94.6522,24.7702 93,29.5C 89.2589,32.0455 87.0923,30.8788 86.5,26C 86.5186,24.167 87.1852,22.667 88.5,21.5 Z"/></g>
<g><path style="opacity:1" fill="#b7dad3" d="M 83.5,42.5 C 80.0109,41.3113 79.6776,42.1446 82.5,45C 80.1902,45.4966 77.8568,45.6633 75.5,45.5C 74.5655,44.4324 74.2322,43.099 74.5,41.5C 72.8561,41.2865 71.3561,41.6198 70,42.5C 68.261,40.682 66.0943,39.682 63.5,39.5C 64.9117,38.4675 66.5784,37.8008 68.5,37.5C 71.1959,38.1148 73.6959,38.1148 76,37.5C 79.1526,38.3168 81.6526,39.9835 83.5,42.5 Z"/></g>
<g><path style="opacity:1" fill="#ccd4d2" d="M 63.5,39.5 C 66.0943,39.682 68.261,40.682 70,42.5C 71.3561,41.6198 72.8561,41.2865 74.5,41.5C 74.2322,43.099 74.5655,44.4324 75.5,45.5C 75.5,47.5 75.5,49.5 75.5,51.5C 75.5,52.1667 75.5,52.8333 75.5,53.5C 73.8333,54.5 72.5,55.8333 71.5,57.5C 70.7611,57.631 70.0944,57.4643 69.5,57C 70.4506,56.2825 70.6172,55.4491 70,54.5C 67.8416,53.1741 66.0082,51.5075 64.5,49.5C 64.0561,47.0878 63.7228,44.7544 63.5,42.5C 64.552,42.6495 65.552,42.4828 66.5,42C 64.8807,41.7645 63.8807,40.9311 63.5,39.5 Z"/></g>
<g><path style="opacity:1" fill="#d1fdfa" d="M 48.5,45.5 C 50.2303,46.0256 51.5637,47.0256 52.5,48.5C 51.2617,48.81 51.2617,49.31 52.5,50C 53.8333,50.6667 55.1667,51.3333 56.5,52C 55.6598,53.6665 56.1598,53.8331 58,52.5C 58.4828,53.448 58.6495,54.448 58.5,55.5C 58.5654,55.9382 58.3988,56.2716 58,56.5C 57.6924,55.6919 57.1924,55.0253 56.5,54.5C 55.6433,55.7357 54.9766,57.069 54.5,58.5C 53.277,59.6139 51.9437,59.7805 50.5,59C 48.2364,55.1394 46.2364,51.1394 44.5,47C 44.6301,45.9412 45.1301,45.1079 46,44.5C 46.9186,47.4016 47.7519,47.7349 48.5,45.5 Z"/></g>
<g><path style="opacity:1" fill="#6f9497" d="M 83.5,42.5 C 84.8717,43.5116 86.205,44.5116 87.5,45.5C 88.516,48.0513 90.1826,50.218 92.5,52C 92.2716,52.3988 91.9382,52.5654 91.5,52.5C 88.8901,53.7217 86.2234,53.7217 83.5,52.5C 82.2867,52.7472 81.62,53.4138 81.5,54.5C 80.596,53.791 80.2627,52.791 80.5,51.5C 78.8333,51.5 77.1667,51.5 75.5,51.5C 75.5,49.5 75.5,47.5 75.5,45.5C 77.8568,45.6633 80.1902,45.4966 82.5,45C 79.6776,42.1446 80.0109,41.3113 83.5,42.5 Z"/></g>
<g><path style="opacity:0.007" fill="#e8fff9" d="M 109.5,54.5 C 108.5,54.5 107.5,54.5 106.5,54.5C 102.812,54.3243 99.1452,53.3243 95.5,51.5C 100.676,50.0865 105.343,51.0865 109.5,54.5 Z"/></g>
<g><path style="opacity:1" fill="#788790" d="M 75.5,51.5 C 77.1667,51.5 78.8333,51.5 80.5,51.5C 80.2627,52.791 80.596,53.791 81.5,54.5C 81.5465,57.9686 82.2132,61.302 83.5,64.5C 81.2431,65.8026 79.4098,65.136 78,62.5C 76.0924,59.7935 75.259,56.7935 75.5,53.5C 75.5,52.8333 75.5,52.1667 75.5,51.5 Z"/></g>
<g><path style="opacity:1" fill="#c9f5f8" d="M 48.5,45.5 C 47.7519,47.7349 46.9186,47.4016 46,44.5C 45.1301,45.1079 44.6301,45.9412 44.5,47C 46.2364,51.1394 48.2364,55.1394 50.5,59C 51.9437,59.7805 53.277,59.6139 54.5,58.5C 54.9766,57.069 55.6433,55.7357 56.5,54.5C 57.1924,55.0253 57.6924,55.6919 58,56.5C 58.3988,56.2716 58.5654,55.9382 58.5,55.5C 59.782,56.7082 59.782,58.0416 58.5,59.5C 56.4201,61.0792 54.4201,62.7459 52.5,64.5C 48.4233,59.3581 45.09,53.6914 42.5,47.5C 43.3482,45.5914 43.6816,43.5914 43.5,41.5C 46.3667,41.3692 48.0334,42.7026 48.5,45.5 Z"/></g>
<g><path style="opacity:0.004" fill="#ecfff8" d="M 109.5,54.5 C 110.833,55.1667 110.833,55.1667 109.5,54.5 Z"/></g>
<g><path style="opacity:0.005" fill="#ecfff8" d="M 111.5,56.5 C 112.5,55.1667 113.5,55.1667 114.5,56.5C 113.833,56.8333 113.167,57.1667 112.5,57.5C 112.5,56.8333 112.167,56.5 111.5,56.5 Z"/></g>
<g><path style="opacity:1" fill="#deb6bc" d="M 63.5,42.5 C 63.7228,44.7544 64.0561,47.0878 64.5,49.5C 66.0082,51.5075 67.8416,53.1741 70,54.5C 70.6172,55.4491 70.4506,56.2825 69.5,57C 70.0944,57.4643 70.7611,57.631 71.5,57.5C 71.2606,59.4672 71.5939,61.3005 72.5,63C 71.5842,63.2784 70.9175,63.7784 70.5,64.5C 70.0618,64.4346 69.7284,64.6012 69.5,65C 73.1546,65.8144 75.4879,67.981 76.5,71.5C 77.7287,72.2811 79.062,72.7811 80.5,73C 78.6183,73.1981 76.9516,73.6981 75.5,74.5C 74.8333,74.1667 74.1667,73.8333 73.5,73.5C 73.5858,72.5041 73.2524,71.6708 72.5,71C 68.4102,69.3177 66.4102,66.1511 66.5,61.5C 64.7085,61.366 63.0418,61.6993 61.5,62.5C 60.519,57.8708 60.3523,53.2041 61,48.5C 61.2401,46.1484 62.0735,44.1484 63.5,42.5 Z"/></g>
<g><path style="opacity:0.004" fill="#ecfff8" d="M 114.5,56.5 C 115.167,56.5 115.5,56.8333 115.5,57.5C 115.167,57.1667 114.833,56.8333 114.5,56.5 Z"/></g>
<g><path style="opacity:0.008" fill="#ecfff8" d="M 115.5,57.5 C 116.167,57.5 116.5,57.8333 116.5,58.5C 116.167,58.1667 115.833,57.8333 115.5,57.5 Z"/></g>
<g><path style="opacity:0.004" fill="#ecfff8" d="M 116.5,58.5 C 117.289,58.7828 117.956,59.2828 118.5,60C 117.184,60.5281 116.517,60.0281 116.5,58.5 Z"/></g>
<g><path style="opacity:1" fill="#c4ecf3" d="M 63.5,39.5 C 63.8807,40.9311 64.8807,41.7645 66.5,42C 65.552,42.4828 64.552,42.6495 63.5,42.5C 62.0735,44.1484 61.2401,46.1484 61,48.5C 60.3523,53.2041 60.519,57.8708 61.5,62.5C 61.3225,63.6948 60.9891,64.8615 60.5,66C 63.0165,68.7407 65.6831,71.2407 68.5,73.5C 66.5,73.5 64.5,73.5 62.5,73.5C 62.5299,72.5028 62.0299,71.8361 61,71.5C 58.9149,72.1242 57.0816,73.1242 55.5,74.5C 56.3785,70.6944 55.3785,67.361 52.5,64.5C 54.4201,62.7459 56.4201,61.0792 58.5,59.5C 59.782,58.0416 59.782,56.7082 58.5,55.5C 58.6495,54.448 58.4828,53.448 58,52.5C 56.1598,53.8331 55.6598,53.6665 56.5,52C 55.1667,51.3333 53.8333,50.6667 52.5,50C 51.2617,49.31 51.2617,48.81 52.5,48.5C 55.149,49.6205 57.4823,48.9538 59.5,46.5C 60.6076,43.9409 61.9409,41.6076 63.5,39.5 Z"/></g>
<g><path style="opacity:1" fill="#c2cedf" d="M 91.5,52.5 C 91.4226,53.7498 90.756,54.5831 89.5,55C 90.1667,55.3333 90.8333,55.6667 91.5,56C 90.062,56.2189 88.7287,56.7189 87.5,57.5C 87.6667,57.8333 87.8333,58.1667 88,58.5C 91.9173,59.5608 95.7506,60.5608 99.5,61.5C 97.4599,61.5641 95.1266,61.7308 92.5,62C 92.8333,62.3333 93.1667,62.6667 93.5,63C 89.6702,63.2757 89.0035,64.4424 91.5,66.5C 88.779,66.0372 86.1123,65.3705 83.5,64.5C 82.2132,61.302 81.5465,57.9686 81.5,54.5C 81.62,53.4138 82.2867,52.7472 83.5,52.5C 86.2234,53.7217 88.8901,53.7217 91.5,52.5 Z"/></g>
<g><path style="opacity:1" fill="#c99da4" d="M 73.5,73.5 C 73.458,74.479 73.458,75.479 73.5,76.5C 71.6036,75.7255 69.937,74.7255 68.5,73.5C 65.6831,71.2407 63.0165,68.7407 60.5,66C 60.9891,64.8615 61.3225,63.6948 61.5,62.5C 63.0418,61.6993 64.7085,61.366 66.5,61.5C 66.4102,66.1511 68.4102,69.3177 72.5,71C 73.2524,71.6708 73.5858,72.5041 73.5,73.5 Z"/></g>
<g><path style="opacity:1" fill="#c4edf3" d="M 87.5,45.5 C 89.8838,47.8847 92.5505,49.8847 95.5,51.5C 99.1452,53.3243 102.812,54.3243 106.5,54.5C 107.785,56.6589 109.452,57.3255 111.5,56.5C 112.167,56.5 112.5,56.8333 112.5,57.5C 112.5,58.1667 112.5,58.8333 112.5,59.5C 112.5,60.1667 112.5,60.8333 112.5,61.5C 110.99,60.2721 109.49,60.2721 108,61.5C 107.503,63.8098 107.337,66.1432 107.5,68.5C 105.833,68.5 104.167,68.5 102.5,68.5C 102.918,67.7784 103.584,67.2784 104.5,67C 104.07,63.9348 102.404,62.1015 99.5,61.5C 95.7506,60.5608 91.9173,59.5608 88,58.5C 87.8333,58.1667 87.6667,57.8333 87.5,57.5C 88.7287,56.7189 90.062,56.2189 91.5,56C 90.8333,55.6667 90.1667,55.3333 89.5,55C 90.756,54.5831 91.4226,53.7498 91.5,52.5C 91.9382,52.5654 92.2716,52.3988 92.5,52C 90.1826,50.218 88.516,48.0513 87.5,45.5 Z"/></g>
<g><path style="opacity:1" fill="#cfddea" d="M 99.5,61.5 C 102.404,62.1015 104.07,63.9348 104.5,67C 103.584,67.2784 102.918,67.7784 102.5,68.5C 99.6829,70.9027 100.016,72.9027 103.5,74.5C 105.406,77.1562 105.906,80.1562 105,83.5C 104.617,82.944 104.117,82.6107 103.5,82.5C 99.6367,81.2829 95.97,79.6162 92.5,77.5C 93.0065,76.1411 94.0065,75.1411 95.5,74.5C 92.3417,73.9074 89.675,72.5741 87.5,70.5C 89.5,70.5 91.5,70.5 93.5,70.5C 93.8432,68.5168 93.1765,67.1834 91.5,66.5C 89.0035,64.4424 89.6702,63.2757 93.5,63C 93.1667,62.6667 92.8333,62.3333 92.5,62C 95.1266,61.7308 97.4599,61.5641 99.5,61.5 Z"/></g>
<g><path style="opacity:1" fill="#b8a89d" d="M 75.5,53.5 C 75.259,56.7935 76.0924,59.7935 78,62.5C 79.4098,65.136 81.2431,65.8026 83.5,64.5C 86.1123,65.3705 88.779,66.0372 91.5,66.5C 93.1765,67.1834 93.8432,68.5168 93.5,70.5C 91.5,70.5 89.5,70.5 87.5,70.5C 82.1634,67.6698 76.4968,65.6698 70.5,64.5C 70.9175,63.7784 71.5842,63.2784 72.5,63C 71.5939,61.3005 71.2606,59.4672 71.5,57.5C 72.5,55.8333 73.8333,54.5 75.5,53.5 Z"/></g>
<g><path style="opacity:1" fill="#cbdbae" d="M 114.5,63.5 C 120.898,67.9018 122.898,73.5685 120.5,80.5C 119.167,80.5 117.833,80.5 116.5,80.5C 116.167,79.5 115.5,78.8333 114.5,78.5C 113.167,77.5 113.167,76.5 114.5,75.5C 115.552,73.744 117.219,73.0773 119.5,73.5C 117.12,71.0576 115.454,68.0576 114.5,64.5C 114.5,64.1667 114.5,63.8333 114.5,63.5 Z"/></g>
<g><path style="opacity:1" fill="#c3cb9b" d="M 112.5,61.5 C 113.167,62.1667 113.833,62.8333 114.5,63.5C 114.5,63.8333 114.5,64.1667 114.5,64.5C 112.632,65.7569 110.965,65.4236 109.5,63.5C 108.548,65.0453 108.215,66.712 108.5,68.5C 109.5,68.5 110.5,68.5 111.5,68.5C 111.677,70.9806 110.677,72.8139 108.5,74C 110.25,75.3186 112.25,75.8186 114.5,75.5C 113.167,76.5 113.167,77.5 114.5,78.5C 110.886,76.8521 107.219,75.5187 103.5,74.5C 100.016,72.9027 99.6829,70.9027 102.5,68.5C 104.167,68.5 105.833,68.5 107.5,68.5C 107.337,66.1432 107.503,63.8098 108,61.5C 109.49,60.2721 110.99,60.2721 112.5,61.5 Z"/></g>
<g><path style="opacity:1" fill="#cddbac" d="M 114.5,64.5 C 115.454,68.0576 117.12,71.0576 119.5,73.5C 117.219,73.0773 115.552,73.744 114.5,75.5C 112.25,75.8186 110.25,75.3186 108.5,74C 110.677,72.8139 111.677,70.9806 111.5,68.5C 110.5,68.5 109.5,68.5 108.5,68.5C 108.215,66.712 108.548,65.0453 109.5,63.5C 110.965,65.4236 112.632,65.7569 114.5,64.5 Z"/></g>
<g><path style="opacity:1" fill="#ddddef" d="M 70.5,64.5 C 76.4968,65.6698 82.1634,67.6698 87.5,70.5C 89.675,72.5741 92.3417,73.9074 95.5,74.5C 94.0065,75.1411 93.0065,76.1411 92.5,77.5C 91.5041,77.5858 90.6708,77.2524 90,76.5C 89.6667,77.1667 89.3333,77.8333 89,78.5C 86.1347,76.485 82.9681,75.1516 79.5,74.5C 78.1667,74.5 76.8333,74.5 75.5,74.5C 76.9516,73.6981 78.6183,73.1981 80.5,73C 79.062,72.7811 77.7287,72.2811 76.5,71.5C 75.4879,67.981 73.1546,65.8144 69.5,65C 69.7284,64.6012 70.0618,64.4346 70.5,64.5 Z"/></g>
<g><path style="opacity:1" fill="#334b5c" d="M 62.5,73.5 C 64.5,73.5 66.5,73.5 68.5,73.5C 69.937,74.7255 71.6036,75.7255 73.5,76.5C 73.458,75.479 73.458,74.479 73.5,73.5C 74.1667,73.8333 74.8333,74.1667 75.5,74.5C 76.8333,74.5 78.1667,74.5 79.5,74.5C 79.7214,75.7348 80.3881,76.7348 81.5,77.5C 79.6339,77.0981 77.6339,77.0981 75.5,77.5C 74.9125,81.4624 73.9125,85.2958 72.5,89C 73.8333,89.6667 75.1667,90.3333 76.5,91C 74.9419,91.21 73.6085,91.71 72.5,92.5C 72.1667,92.5 71.8333,92.5 71.5,92.5C 70.6993,90.9582 70.366,89.2915 70.5,87.5C 71.1847,85.5856 71.6847,83.5856 72,81.5C 72.8893,82.8882 73.3893,82.7215 73.5,81C 72.3967,80.8534 71.23,80.02 70,78.5C 69.5172,77.552 69.3505,76.552 69.5,75.5C 66.9327,75.2785 64.5994,74.6118 62.5,73.5 Z"/></g>
<g><path style="opacity:1" fill="#a0b298" d="M 112.5,59.5 C 117.617,63.2781 121.617,67.9448 124.5,73.5C 124.407,79.8627 124.74,86.1961 125.5,92.5C 125.631,93.2389 125.464,93.9056 125,94.5C 124.56,92.9238 123.727,91.5904 122.5,90.5C 122.709,89.914 123.043,89.414 123.5,89C 120.989,86.6565 118.656,84.1565 116.5,81.5C 116.5,81.1667 116.5,80.8333 116.5,80.5C 117.833,80.5 119.167,80.5 120.5,80.5C 122.898,73.5685 120.898,67.9018 114.5,63.5C 113.833,62.8333 113.167,62.1667 112.5,61.5C 112.5,60.8333 112.5,60.1667 112.5,59.5 Z"/></g>
<g><path style="opacity:1" fill="#c4eaf2" d="M 62.5,73.5 C 64.5994,74.6118 66.9327,75.2785 69.5,75.5C 69.3505,76.552 69.5172,77.552 70,78.5C 71.23,80.02 72.3967,80.8534 73.5,81C 73.3893,82.7215 72.8893,82.8882 72,81.5C 71.6847,83.5856 71.1847,85.5856 70.5,87.5C 68.4677,88.0478 67.4677,89.3812 67.5,91.5C 65.8212,91.2852 64.8212,91.9519 64.5,93.5C 60.4677,96.5755 59.801,96.0755 62.5,92C 61.3997,86.4854 58.733,81.9854 54.5,78.5C 55.2458,77.2638 55.5792,75.9305 55.5,74.5C 57.0816,73.1242 58.9149,72.1242 61,71.5C 62.0299,71.8361 62.5299,72.5028 62.5,73.5 Z"/></g>
<g><path style="opacity:1" fill="#caf5fa" d="M 52.5,64.5 C 55.3785,67.361 56.3785,70.6944 55.5,74.5C 55.5792,75.9305 55.2458,77.2638 54.5,78.5C 58.733,81.9854 61.3997,86.4854 62.5,92C 59.801,96.0755 60.4677,96.5755 64.5,93.5C 65.0431,93.56 65.3764,93.8933 65.5,94.5C 62.5873,96.901 62.9206,98.2343 66.5,98.5C 64.4195,101.118 63.0862,103.785 62.5,106.5C 61.8333,106.5 61.5,106.833 61.5,107.5C 60.1154,106.426 58.9487,105.093 58,103.5C 56.2074,106.394 54.7074,109.394 53.5,112.5C 52.8141,111.152 51.8141,109.985 50.5,109C 55.4328,103.343 56.9328,96.8425 55,89.5C 55.5,88.3333 56.3333,87.5 57.5,87C 55.9007,85.2137 55.0674,83.047 55,80.5C 54.7216,81.4158 54.2216,82.0825 53.5,82.5C 52.7656,81.1225 52.0989,79.6225 51.5,78C 55.3673,73.9196 55.3673,69.9196 51.5,66C 52.056,65.6174 52.3893,65.1174 52.5,64.5 Z"/></g>
<g><path style="opacity:1" fill="#506074" d="M 79.5,74.5 C 82.9681,75.1516 86.1347,76.485 89,78.5C 89.3333,77.8333 89.6667,77.1667 90,76.5C 90.6708,77.2524 91.5041,77.5858 92.5,77.5C 95.97,79.6162 99.6367,81.2829 103.5,82.5C 103.821,84.0481 104.821,84.7148 106.5,84.5C 101.402,83.6596 96.0682,83.6596 90.5,84.5C 89.7659,83.2921 89.4326,81.9587 89.5,80.5C 85.7564,79.2582 82.2564,79.2582 79,80.5C 77.6647,83.2237 77.498,85.8904 78.5,88.5C 82.0966,89.8546 85.4299,89.5213 88.5,87.5C 89.2389,87.369 89.9056,87.5357 90.5,88C 89.244,88.4169 88.5774,89.2502 88.5,90.5C 84.7212,89.6799 82.3879,91.0133 81.5,94.5C 78.2613,94.5871 75.2613,93.9205 72.5,92.5C 73.6085,91.71 74.9419,91.21 76.5,91C 75.1667,90.3333 73.8333,89.6667 72.5,89C 73.9125,85.2958 74.9125,81.4624 75.5,77.5C 77.6339,77.0981 79.6339,77.0981 81.5,77.5C 80.3881,76.7348 79.7214,75.7348 79.5,74.5 Z"/></g>
<g><path style="opacity:1" fill="#4c6a88" d="M 90.5,84.5 C 90.9576,85.7721 90.2909,86.7721 88.5,87.5C 85.4299,89.5213 82.0966,89.8546 78.5,88.5C 77.498,85.8904 77.6647,83.2237 79,80.5C 82.2564,79.2582 85.7564,79.2582 89.5,80.5C 89.4326,81.9587 89.7659,83.2921 90.5,84.5 Z"/></g>
<g><path style="opacity:1" fill="#cdeff4" d="M 116.5,81.5 C 118.656,84.1565 120.989,86.6565 123.5,89C 123.043,89.414 122.709,89.914 122.5,90.5C 123.727,91.5904 124.56,92.9238 125,94.5C 125.464,93.9056 125.631,93.2389 125.5,92.5C 126.417,94.6618 126.417,96.9952 125.5,99.5C 124.994,101.429 123.994,103.095 122.5,104.5C 123.428,105.768 123.595,107.101 123,108.5C 120.21,109.476 117.71,110.809 115.5,112.5C 115.334,109.832 114.334,107.498 112.5,105.5C 113.167,104.167 113.833,102.833 114.5,101.5C 117.259,100.951 119.259,100.284 120.5,99.5C 119.804,95.5483 119.304,91.5483 119,87.5C 116.88,85.3478 114.38,83.8478 111.5,83C 112.905,81.7308 114.571,81.2308 116.5,81.5 Z"/></g>
<g><path style="opacity:1" fill="#cbd9db" d="M 103.5,74.5 C 107.219,75.5187 110.886,76.8521 114.5,78.5C 115.5,78.8333 116.167,79.5 116.5,80.5C 116.5,80.8333 116.5,81.1667 116.5,81.5C 114.571,81.2308 112.905,81.7308 111.5,83C 114.38,83.8478 116.88,85.3478 119,87.5C 119.304,91.5483 119.804,95.5483 120.5,99.5C 115.825,98.9301 111.658,99.9301 108,102.5C 105.888,101.614 103.722,101.614 101.5,102.5C 103.309,99.8607 105.642,97.6941 108.5,96C 107.906,95.5357 107.239,95.369 106.5,95.5C 105.325,95.719 104.325,95.3857 103.5,94.5C 104.629,92.4706 104.129,92.1373 102,93.5C 101.536,92.9056 101.369,92.2389 101.5,91.5C 106.824,91.2832 107.49,89.7832 103.5,87C 105.809,86.2438 107.809,86.7438 109.5,88.5C 109.833,88.1667 110.167,87.8333 110.5,87.5C 109.148,86.4756 107.815,85.4756 106.5,84.5C 104.821,84.7148 103.821,84.0481 103.5,82.5C 104.117,82.6107 104.617,82.944 105,83.5C 105.906,80.1562 105.406,77.1562 103.5,74.5 Z"/></g>
<g><path style="opacity:1" fill="#bfb5bb" d="M 106.5,84.5 C 107.815,85.4756 109.148,86.4756 110.5,87.5C 110.167,87.8333 109.833,88.1667 109.5,88.5C 107.809,86.7438 105.809,86.2438 103.5,87C 107.49,89.7832 106.824,91.2832 101.5,91.5C 98.8666,93.1321 96.5333,95.1321 94.5,97.5C 93.8165,97.1373 93.1499,96.8039 92.5,96.5C 96.4405,93.6243 95.9405,91.291 91,89.5C 90.0979,89.7432 89.2646,90.0766 88.5,90.5C 88.5774,89.2502 89.244,88.4169 90.5,88C 89.9056,87.5357 89.2389,87.369 88.5,87.5C 90.2909,86.7721 90.9576,85.7721 90.5,84.5C 96.0682,83.6596 101.402,83.6596 106.5,84.5 Z"/></g>
<g><path style="opacity:1" fill="#cef2fa" d="M 92.5,96.5 C 91.1667,97.1667 90.1667,98.1667 89.5,99.5C 87.6883,99.2287 86.0217,98.562 84.5,97.5C 84.7093,96.914 85.0426,96.414 85.5,96C 83.9419,95.79 82.6085,95.29 81.5,94.5C 82.3879,91.0133 84.7212,89.6799 88.5,90.5C 89.2646,90.0766 90.0979,89.7432 91,89.5C 95.9405,91.291 96.4405,93.6243 92.5,96.5 Z"/></g>
<g><path style="opacity:0.357" fill="#ccf3f5" d="M 124.5,73.5 C 126.069,78.2684 127.235,83.2684 128,88.5C 128.898,90.6264 130.065,92.6264 131.5,94.5C 130.184,95.8066 129.184,97.3066 128.5,99C 127.552,99.4828 126.552,99.6495 125.5,99.5C 126.417,96.9952 126.417,94.6618 125.5,92.5C 124.74,86.1961 124.407,79.8627 124.5,73.5 Z"/></g>
<g><path style="opacity:1" fill="#c6e9f8" d="M 71.5,92.5 C 71.8333,92.5 72.1667,92.5 72.5,92.5C 75.2613,93.9205 78.2613,94.5871 81.5,94.5C 82.6085,95.29 83.9419,95.79 85.5,96C 85.0426,96.414 84.7093,96.914 84.5,97.5C 86.0217,98.562 87.6883,99.2287 89.5,99.5C 89.5,100.167 89.1667,100.5 88.5,100.5C 86.1691,100.498 84.1691,101.331 82.5,103C 83.4158,103.278 84.0825,103.778 84.5,104.5C 81.8239,105.008 79.1572,105.175 76.5,105C 77.5,104.667 78.5,104.333 79.5,104C 80.8333,103.333 80.8333,102.667 79.5,102C 80.8333,101.667 82.1667,101.333 83.5,101C 81.6992,100.683 81.3659,100.016 82.5,99C 80.6886,99.8753 78.6886,100.209 76.5,100C 75.6598,98.3335 76.1598,98.1669 78,99.5C 78.4652,98.0692 79.2986,96.9025 80.5,96C 77.8199,95.6652 75.4866,96.4986 73.5,98.5C 72.1408,97.3757 71.1408,96.0423 70.5,94.5C 68.2071,93.6987 68.5404,93.032 71.5,92.5 Z"/></g>
<g><path style="opacity:1" fill="#657378" d="M 106.5,95.5 C 107.239,95.369 107.906,95.5357 108.5,96C 105.642,97.6941 103.309,99.8607 101.5,102.5C 100.5,102.833 99.8333,103.5 99.5,104.5C 99.1583,105.338 98.4916,105.672 97.5,105.5C 99.1119,100.889 102.112,97.5562 106.5,95.5 Z"/></g>
<g><path style="opacity:1" fill="#cecdd0" d="M 101.5,91.5 C 101.369,92.2389 101.536,92.9056 102,93.5C 104.129,92.1373 104.629,92.4706 103.5,94.5C 104.325,95.3857 105.325,95.719 106.5,95.5C 102.112,97.5562 99.1119,100.889 97.5,105.5C 95.5,106.5 93.5,107.5 91.5,108.5C 88.8283,106.609 87.8283,103.942 88.5,100.5C 89.1667,100.5 89.5,100.167 89.5,99.5C 90.1667,98.1667 91.1667,97.1667 92.5,96.5C 93.1499,96.8039 93.8165,97.1373 94.5,97.5C 96.5333,95.1321 98.8666,93.1321 101.5,91.5 Z"/></g>
<g><path style="opacity:1" fill="#cdf2fb" d="M 70.5,94.5 C 71.1408,96.0423 72.1408,97.3757 73.5,98.5C 75.4866,96.4986 77.8199,95.6652 80.5,96C 79.2986,96.9025 78.4652,98.0692 78,99.5C 76.1598,98.1669 75.6598,98.3335 76.5,100C 78.6886,100.209 80.6886,99.8753 82.5,99C 81.3659,100.016 81.6992,100.683 83.5,101C 82.1667,101.333 80.8333,101.667 79.5,102C 80.8333,102.667 80.8333,103.333 79.5,104C 78.5,104.333 77.5,104.667 76.5,105C 79.1572,105.175 81.8239,105.008 84.5,104.5C 79.04,106.52 79.3733,108.02 85.5,109C 82.986,110.804 80.3193,110.97 77.5,109.5C 76.3044,109.846 76.3044,110.346 77.5,111C 76.9056,111.464 76.2389,111.631 75.5,111.5C 73.7766,107.791 70.7766,105.791 66.5,105.5C 67.0664,101.46 68.3998,97.7929 70.5,94.5 Z"/></g>
<g><path style="opacity:1" fill="#aab7bb" d="M 70.5,87.5 C 70.366,89.2915 70.6993,90.9582 71.5,92.5C 68.5404,93.032 68.2071,93.6987 70.5,94.5C 68.3998,97.7929 67.0664,101.46 66.5,105.5C 70.7766,105.791 73.7766,107.791 75.5,111.5C 75.3691,112.376 75.7025,113.043 76.5,113.5C 78.3361,114.028 80.0028,114.694 81.5,115.5C 75.9154,116.412 72.7487,114.079 72,108.5C 71.3333,109.833 70.3333,110.833 69,111.5C 68.3828,110.551 68.5494,109.718 69.5,109C 68.341,105.844 66.841,105.677 65,108.5C 63.699,108.361 62.8656,107.695 62.5,106.5C 63.0862,103.785 64.4195,101.118 66.5,98.5C 62.9206,98.2343 62.5873,96.901 65.5,94.5C 65.3764,93.8933 65.0431,93.56 64.5,93.5C 64.8212,91.9519 65.8212,91.2852 67.5,91.5C 67.4677,89.3812 68.4677,88.0478 70.5,87.5 Z"/></g>
<g><path style="opacity:1" fill="#bfc6c7" d="M 120.5,99.5 C 119.259,100.284 117.259,100.951 114.5,101.5C 113.833,102.833 113.167,104.167 112.5,105.5C 114.334,107.498 115.334,109.832 115.5,112.5C 114.68,116.1 112.347,118.1 108.5,118.5C 107.127,118.657 105.793,118.49 104.5,118C 108.537,116.65 111.87,114.317 114.5,111C 113.584,110.722 112.918,110.222 112.5,109.5C 112.291,108.078 111.791,106.745 111,105.5C 106.505,109.752 102.672,109.419 99.5,104.5C 99.8333,103.5 100.5,102.833 101.5,102.5C 103.722,101.614 105.888,101.614 108,102.5C 111.658,99.9301 115.825,98.9301 120.5,99.5 Z"/></g>
<g><path style="opacity:0.937" fill="#bce8ee" d="M 53.5,112.5 C 53.5,115.167 53.5,117.833 53.5,120.5C 52.71,119.391 52.21,118.058 52,116.5C 51.1072,117.711 50.2739,117.711 49.5,116.5C 51.0963,113.385 50.4296,110.885 47.5,109C 48.3767,107.133 49.8767,105.966 52,105.5C 52.3333,104.167 52.6667,102.833 53,101.5C 52.6037,95.1285 52.7703,88.7952 53.5,82.5C 54.2216,82.0825 54.7216,81.4158 55,80.5C 55.0674,83.047 55.9007,85.2137 57.5,87C 56.3333,87.5 55.5,88.3333 55,89.5C 56.9328,96.8425 55.4328,103.343 50.5,109C 51.8141,109.985 52.8141,111.152 53.5,112.5 Z"/></g>
<g><path style="opacity:1" fill="#d1f1fb" d="M 88.5,100.5 C 87.8283,103.942 88.8283,106.609 91.5,108.5C 90.1357,112.005 87.469,113.838 83.5,114C 84.4158,114.278 85.0825,114.778 85.5,115.5C 84.1667,115.5 82.8333,115.5 81.5,115.5C 80.0028,114.694 78.3361,114.028 76.5,113.5C 75.7025,113.043 75.3691,112.376 75.5,111.5C 76.2389,111.631 76.9056,111.464 77.5,111C 76.3044,110.346 76.3044,109.846 77.5,109.5C 80.3193,110.97 82.986,110.804 85.5,109C 79.3733,108.02 79.04,106.52 84.5,104.5C 84.0825,103.778 83.4158,103.278 82.5,103C 84.1691,101.331 86.1691,100.498 88.5,100.5 Z"/></g>
<g><path style="opacity:1" fill="#d9e8f5" d="M 99.5,104.5 C 102.672,109.419 106.505,109.752 111,105.5C 111.791,106.745 112.291,108.078 112.5,109.5C 106.75,108.832 101.417,109.832 96.5,112.5C 92.9039,113.8 89.2373,114.8 85.5,115.5C 85.0825,114.778 84.4158,114.278 83.5,114C 87.469,113.838 90.1357,112.005 91.5,108.5C 93.5,107.5 95.5,106.5 97.5,105.5C 98.4916,105.672 99.1583,105.338 99.5,104.5 Z"/></g>
<g><path style="opacity:1" fill="#a7dbec" d="M 61.5,107.5 C 61.8333,108.167 62.1667,108.833 62.5,109.5C 61.5028,109.47 60.8361,109.97 60.5,111C 61.1476,112.44 61.4809,113.94 61.5,115.5C 60.8288,116.847 60.8288,118.014 61.5,119C 59.4233,119.192 57.4233,119.692 55.5,120.5C 56.4279,121.768 56.5946,123.101 56,124.5C 55.6232,123.058 54.7899,122.058 53.5,121.5C 53.5,121.167 53.5,120.833 53.5,120.5C 53.5,117.833 53.5,115.167 53.5,112.5C 54.7074,109.394 56.2074,106.394 58,103.5C 58.9487,105.093 60.1154,106.426 61.5,107.5 Z"/></g>
<g><path style="opacity:1" fill="#264b53" d="M 62.5,109.5 C 62.5,111.5 62.5,113.5 62.5,115.5C 62.1667,115.5 61.8333,115.5 61.5,115.5C 61.4809,113.94 61.1476,112.44 60.5,111C 60.8361,109.97 61.5028,109.47 62.5,109.5 Z"/></g>
<g><path style="opacity:0.008" fill="#ecfff8" d="M 117.5,114.5 C 117.897,113.475 118.563,113.308 119.5,114C 118.906,114.464 118.239,114.631 117.5,114.5 Z"/></g>
<g><path style="opacity:1" fill="#c9cecd" d="M 62.5,106.5 C 62.8656,107.695 63.699,108.361 65,108.5C 66.841,105.677 68.341,105.844 69.5,109C 68.5494,109.718 68.3828,110.551 69,111.5C 70.3333,110.833 71.3333,109.833 72,108.5C 72.7487,114.079 75.9154,116.412 81.5,115.5C 82.8333,115.5 84.1667,115.5 85.5,115.5C 89.2373,114.8 92.9039,113.8 96.5,112.5C 98.0146,115.737 97.6813,118.737 95.5,121.5C 93.2625,120.463 90.9291,120.297 88.5,121C 89.5,121.333 90.5,121.667 91.5,122C 88.2388,122.707 85.5721,121.707 83.5,119C 76.2082,118.984 69.2082,117.817 62.5,115.5C 62.5,113.5 62.5,111.5 62.5,109.5C 62.1667,108.833 61.8333,108.167 61.5,107.5C 61.5,106.833 61.8333,106.5 62.5,106.5 Z"/></g>
<g><path style="opacity:1" fill="#d7dae9" d="M 112.5,109.5 C 112.918,110.222 113.584,110.722 114.5,111C 111.87,114.317 108.537,116.65 104.5,118C 105.793,118.49 107.127,118.657 108.5,118.5C 107.22,119.931 105.553,120.598 103.5,120.5C 103.083,119.876 102.416,119.543 101.5,119.5C 99.484,120.178 97.484,120.844 95.5,121.5C 97.6813,118.737 98.0146,115.737 96.5,112.5C 101.417,109.832 106.75,108.832 112.5,109.5 Z"/></g>
<g><path style="opacity:1" fill="#8aa3ac" d="M 62.5,115.5 C 69.2082,117.817 76.2082,118.984 83.5,119C 85.5721,121.707 88.2388,122.707 91.5,122C 90.5,121.667 89.5,121.333 88.5,121C 90.9291,120.297 93.2625,120.463 95.5,121.5C 97.484,120.844 99.484,120.178 101.5,119.5C 102.416,119.543 103.083,119.876 103.5,120.5C 101.487,122.497 99.1537,124.164 96.5,125.5C 93.8066,123.73 90.8066,123.063 87.5,123.5C 83.2033,124.512 78.87,124.512 74.5,123.5C 71.976,122.26 69.3093,121.093 66.5,120C 64.6156,118.951 63.2823,117.451 62.5,115.5 Z"/></g>
<g><path style="opacity:1" fill="#a5dff0" d="M 61.5,115.5 C 61.8333,115.5 62.1667,115.5 62.5,115.5C 63.2823,117.451 64.6156,118.951 66.5,120C 69.3093,121.093 71.976,122.26 74.5,123.5C 71.911,123.461 69.911,124.461 68.5,126.5C 67.4502,126.905 67.4502,127.571 68.5,128.5C 66.7156,129.606 64.8822,129.606 63,128.5C 56.643,123.095 56.143,123.595 61.5,130C 60.9056,130.464 60.2389,130.631 59.5,130.5C 56.6817,128.021 54.6817,125.021 53.5,121.5C 54.7899,122.058 55.6232,123.058 56,124.5C 56.5946,123.101 56.4279,121.768 55.5,120.5C 57.4233,119.692 59.4233,119.192 61.5,119C 60.8288,118.014 60.8288,116.847 61.5,115.5 Z"/></g>
<g><path style="opacity:1" fill="#b1f3fc" d="M 74.5,123.5 C 78.87,124.512 83.2033,124.512 87.5,123.5C 86.9759,125.306 86.3092,126.972 85.5,128.5C 85.5654,128.062 85.3988,127.728 85,127.5C 82.2135,130.687 79.0469,131.521 75.5,130C 80.7937,129.182 80.7937,128.682 75.5,128.5C 75.8747,125.093 74.8747,124.593 72.5,127C 74.6447,127.743 74.8114,128.576 73,129.5C 71.3566,128.685 69.8566,127.685 68.5,126.5C 69.911,124.461 71.911,123.461 74.5,123.5 Z"/></g>
<g><path style="opacity:1" fill="#b3effb" d="M 68.5,126.5 C 69.8566,127.685 71.3566,128.685 73,129.5C 74.8114,128.576 74.6447,127.743 72.5,127C 74.8747,124.593 75.8747,125.093 75.5,128.5C 80.7937,128.682 80.7937,129.182 75.5,130C 79.0469,131.521 82.2135,130.687 85,127.5C 85.3988,127.728 85.5654,128.062 85.5,128.5C 85.0844,130.752 83.751,132.252 81.5,133C 75.6972,135.633 69.6972,136.133 63.5,134.5C 61.7212,133.606 60.3879,132.273 59.5,130.5C 60.2389,130.631 60.9056,130.464 61.5,130C 56.143,123.595 56.643,123.095 63,128.5C 64.8822,129.606 66.7156,129.606 68.5,128.5C 67.4502,127.571 67.4502,126.905 68.5,126.5 Z"/></g>
<g><path style="opacity:0.868" fill="#e1bed2" d="M 121.5,141.5 C 121.045,138.797 120.378,136.13 119.5,133.5C 119.833,132.833 120.167,132.167 120.5,131.5C 122.555,135.328 124.221,139.328 125.5,143.5C 124.675,144.386 123.675,144.719 122.5,144.5C 122.737,143.209 122.404,142.209 121.5,141.5 Z"/></g>
<g><path style="opacity:0.984" fill="#e0bfd2" d="M 121.5,141.5 C 121.703,143.39 121.037,144.89 119.5,146C 117.649,146.837 115.816,147.671 114,148.5C 111.454,144.388 110.287,140.055 110.5,135.5C 111.249,137.012 112.416,138.012 114,138.5C 117.551,136.886 120.051,137.886 121.5,141.5 Z M 113.5,140.5 C 115.167,140.5 116.833,140.5 118.5,140.5C 118.5,141.833 118.5,143.167 118.5,144.5C 114.918,146.161 113.252,144.827 113.5,140.5 Z"/></g>
<g><path style="opacity:0.937" fill="#e0bfd2" d="M 51.5,129.5 C 55.1916,131.344 58.5249,133.677 61.5,136.5C 59.7408,137.754 58.2408,137.421 57,135.5C 54.6667,138.5 52.3333,141.5 50,144.5C 49.5,144 49,143.5 48.5,143C 50.5,140 52.5,137 54.5,134C 51.7814,133.195 50.7814,131.695 51.5,129.5 Z"/></g>
<g><path style="opacity:0.781" fill="#e0bfd2" d="M 104.5,137.5 C 105.478,137.811 106.145,138.478 106.5,139.5C 104.955,140.452 103.288,140.785 101.5,140.5C 102.46,144.195 102.46,147.861 101.5,151.5C 99.9385,148.037 99.1051,144.37 99,140.5C 97.5064,141.747 96.0064,141.747 94.5,140.5C 94.7093,139.914 95.0426,139.414 95.5,139C 98.6946,138.819 101.695,138.319 104.5,137.5 Z"/></g>
<g><path style="opacity:0.826" fill="#e0bfd3" d="M 65.5,137.5 C 72.0001,136.499 74.5001,139.165 73,145.5C 71.205,152.205 67.5383,153.205 62,148.5C 61.2571,146.559 61.4238,144.726 62.5,143C 65.2305,142.272 67.8971,142.438 70.5,143.5C 71.6069,141.231 70.7735,139.898 68,139.5C 65.0499,141.044 64.2166,140.378 65.5,137.5 Z M 64.5,144.5 C 66.6547,144.372 68.6547,144.872 70.5,146C 68.362,149.104 66.0287,149.27 63.5,146.5C 63.8627,145.817 64.1961,145.15 64.5,144.5 Z"/></g>
<g><path style="opacity:0.937" fill="#e0bfd2" d="M 80.5,139.5 C 82.0358,141.025 83.0358,143.025 83.5,145.5C 84.941,144.135 86.2744,142.635 87.5,141C 88.635,140.251 89.635,140.417 90.5,141.5C 89.1667,143.167 87.8333,144.833 86.5,146.5C 87.5,148.5 88.5,150.5 89.5,152.5C 89,152.833 88.5,153.167 88,153.5C 86.3514,152.214 85.1847,150.547 84.5,148.5C 83.675,147.614 82.675,147.281 81.5,147.5C 81.7852,149.288 81.4519,150.955 80.5,152.5C 80.1667,151.167 79.8333,149.833 79.5,148.5C 79.9657,145.508 80.2991,142.508 80.5,139.5 Z"/></g>
</svg>
