<?xml version="1.0" encoding="UTF-8"?>
<!DOCTYPE svg PUBLIC "-//W3C//DTD SVG 1.1//EN" "http://www.w3.org/Graphics/SVG/1.1/DTD/svg11.dtd">
<svg xmlns="http://www.w3.org/2000/svg" version="1.1" width="175px" height="175px" style="shape-rendering:geometricPrecision; text-rendering:geometricPrecision; image-rendering:optimizeQuality; fill-rule:evenodd; clip-rule:evenodd" xmlns:xlink="http://www.w3.org/1999/xlink">
<g><path style="opacity:0.753" fill="#e8e5b6" d="M 89.5,18.5 C 96.436,20.7155 98.1027,25.0489 94.5,31.5C 88.4278,34.9791 84.7612,33.1458 83.5,26C 83.9278,22.087 85.9278,19.587 89.5,18.5 Z M 88.5,21.5 C 93.1522,22.1035 94.6522,24.7702 93,29.5C 89.2589,32.0455 87.0923,30.8788 86.5,26C 86.5186,24.167 87.1852,22.667 88.5,21.5 Z"/></g>
<g><path style="opacity:0.711" fill="#e9e5b6" d="M 74.5,20.5 C 75.4972,20.4701 76.1639,20.9701 76.5,22C 75.7636,24.1394 74.7636,26.1394 73.5,28C 75.9768,29.6427 78.3102,31.476 80.5,33.5C 79.635,34.5827 78.635,34.7494 77.5,34C 75.6951,33.028 74.0284,31.8613 72.5,30.5C 72.1667,32.5 71.8333,34.5 71.5,36.5C 69.2408,32.8612 67.5742,28.8612 66.5,24.5C 66.8076,23.6919 67.3076,23.0253 68,22.5C 69.1853,24.3772 70.1853,26.3772 71,28.5C 72.0764,25.7627 73.243,23.096 74.5,20.5 Z"/></g>
<g><path style="opacity:0.732" fill="#e8e5b6" d="M 103.5,20.5 C 104.5,20.5 105.5,20.5 106.5,20.5C 106.167,22.5 105.833,24.5 105.5,26.5C 107.5,26.8333 109.5,27.1667 111.5,27.5C 111.116,25.3352 111.783,23.6685 113.5,22.5C 113.833,23 114.167,23.5 114.5,24C 113.496,27.7006 112.496,31.3672 111.5,35C 110.4,35.4317 109.733,34.9317 109.5,33.5C 109.68,32.4461 110.013,31.4461 110.5,30.5C 108.892,29.6816 107.225,29.0149 105.5,28.5C 104.684,30.2873 103.684,31.9539 102.5,33.5C 102.167,32.8333 101.833,32.1667 101.5,31.5C 102.426,27.8697 103.093,24.203 103.5,20.5 Z"/></g>
<g><path style="opacity:1" fill="#c7eaae" d="M 79.5,39.5 C 78.1266,39.3433 76.7932,39.51 75.5,40C 78.0094,41.4213 80.3428,43.0879 82.5,45C 79.9644,45.1862 77.631,45.6862 75.5,46.5C 75.5,48.8333 75.5,51.1667 75.5,53.5C 74.1667,54.5 72.8333,55.5 71.5,56.5C 70.6091,55.7387 69.9424,54.7387 69.5,53.5C 68.675,52.6143 67.675,52.281 66.5,52.5C 66.5,51.5 66.5,50.5 66.5,49.5C 65.5,49.5 64.5,49.5 63.5,49.5C 63.2322,47.901 63.5655,46.5676 64.5,45.5C 65.1499,45.8039 65.8165,46.1373 66.5,46.5C 67.3184,44.8917 67.9851,43.2251 68.5,41.5C 66.359,39.7473 67.0257,38.7473 70.5,38.5C 72.3527,37.9246 74.186,37.5912 76,37.5C 77.4595,37.8082 78.6261,38.4749 79.5,39.5 Z"/></g>
<g><path style="opacity:0.007" fill="#e3f8f5" d="M 109.5,54.5 C 108.5,54.5 107.5,54.5 106.5,54.5C 105.175,55.9526 104.342,55.6192 104,53.5C 103.667,53.8333 103.333,54.1667 103,54.5C 100.328,53.718 97.8281,52.718 95.5,51.5C 100.676,50.0865 105.343,51.0865 109.5,54.5 Z"/></g>
<g><path style="opacity:1" fill="#719c66" d="M 75.5,46.5 C 79.4342,47.2168 82.9342,48.8834 86,51.5C 86.7504,50.8742 87.5838,50.3742 88.5,50C 85.9651,47.4112 86.2985,47.0779 89.5,49C 90.1667,50.3333 91.1667,51.3333 92.5,52C 88.9372,53.5963 85.2706,53.763 81.5,52.5C 81.2422,56.3721 81.9089,60.0388 83.5,63.5C 83.5,63.8333 83.5,64.1667 83.5,64.5C 81.2431,65.8026 79.4098,65.136 78,62.5C 76.0924,59.7935 75.259,56.7935 75.5,53.5C 75.5,51.1667 75.5,48.8333 75.5,46.5 Z"/></g>
<g><path style="opacity:1" fill="#9dd3a1" d="M 79.5,39.5 C 85.0977,43.0909 90.431,47.0909 95.5,51.5C 97.8281,52.718 100.328,53.718 103,54.5C 103.333,54.1667 103.667,53.8333 104,53.5C 104.342,55.6192 105.175,55.9526 106.5,54.5C 107.785,56.6589 109.452,57.3255 111.5,56.5C 111.5,57.1667 111.833,57.5 112.5,57.5C 112.5,58.1667 112.5,58.8333 112.5,59.5C 112.591,61.6977 111.925,62.0311 110.5,60.5C 104.462,55.738 97.4617,53.9047 89.5,55C 90.1667,55.3333 90.8333,55.6667 91.5,56C 90.1667,56.6667 88.8333,57.3333 87.5,58C 87.8333,58.3333 88.1667,58.6667 88.5,59C 93.3568,59.6383 98.0235,60.8049 102.5,62.5C 102.265,63.0967 101.765,63.4301 101,63.5C 95.7836,61.9915 90.6169,60.3249 85.5,58.5C 84.8302,60.2914 84.1635,61.9581 83.5,63.5C 81.9089,60.0388 81.2422,56.3721 81.5,52.5C 85.2706,53.763 88.9372,53.5963 92.5,52C 91.1667,51.3333 90.1667,50.3333 89.5,49C 86.2985,47.0779 85.9651,47.4112 88.5,50C 87.5838,50.3742 86.7504,50.8742 86,51.5C 82.9342,48.8834 79.4342,47.2168 75.5,46.5C 77.631,45.6862 79.9644,45.1862 82.5,45C 80.3428,43.0879 78.0094,41.4213 75.5,40C 76.7932,39.51 78.1266,39.3433 79.5,39.5 Z"/></g>
<g><path style="opacity:1" fill="#d2fede" d="M 52.5,48.5 C 51.2617,48.81 51.2617,49.31 52.5,50C 53.745,50.7914 55.0783,51.2914 56.5,51.5C 55.6016,52.1577 54.6016,52.8243 53.5,53.5C 53.0539,55.3682 52.7205,57.2015 52.5,59C 50.5911,59.4479 49.4244,58.6145 49,56.5C 48.5357,57.0944 48.369,57.7611 48.5,58.5C 43.7884,53.7012 42.1217,48.0345 43.5,41.5C 44.552,41.3505 45.552,41.5172 46.5,42C 48.0269,44.6902 50.0269,46.8568 52.5,48.5 Z"/></g>
<g><path style="opacity:0.004" fill="#eafff4" d="M 109.5,54.5 C 110.833,55.1667 110.833,55.1667 109.5,54.5 Z"/></g>
<g><path style="opacity:0.005" fill="#eafff4" d="M 111.5,56.5 C 112.5,55.1667 113.5,55.1667 114.5,56.5C 113.833,56.8333 113.167,57.1667 112.5,57.5C 111.833,57.5 111.5,57.1667 111.5,56.5 Z"/></g>
<g><path style="opacity:1" fill="#cec28a" d="M 64.5,45.5 C 63.5655,46.5676 63.2322,47.901 63.5,49.5C 64.5,49.5 65.5,49.5 66.5,49.5C 66.5,50.5 66.5,51.5 66.5,52.5C 67.675,52.281 68.675,52.6143 69.5,53.5C 69.9424,54.7387 70.6091,55.7387 71.5,56.5C 71.2436,58.7925 71.5769,60.9592 72.5,63C 71.9056,63.4643 71.2389,63.631 70.5,63.5C 68.8762,63.6399 67.7096,62.9733 67,61.5C 66.8201,64.3094 67.4868,66.9761 69,69.5C 70.8778,70.0527 72.3778,71.0527 73.5,72.5C 72.8333,72.5 72.5,72.8333 72.5,73.5C 67.4586,72.7299 63.4586,70.2299 60.5,66C 60.6763,59.5536 60.8429,53.0536 61,46.5C 62.0437,45.3774 62.7104,44.0441 63,42.5C 63.5133,43.5266 64.0133,44.5266 64.5,45.5 Z"/></g>
<g><path style="opacity:0.004" fill="#eafff4" d="M 114.5,56.5 C 115.167,56.5 115.5,56.8333 115.5,57.5C 115.167,57.1667 114.833,56.8333 114.5,56.5 Z"/></g>
<g><path style="opacity:1" fill="#d1fddc" d="M 110.5,60.5 C 109.5,60.5 108.5,60.5 107.5,60.5C 107.5,63.1667 107.5,65.8333 107.5,68.5C 105.833,68.5 104.167,68.5 102.5,68.5C 105.768,67.1451 106.102,65.3117 103.5,63C 105.335,62.0723 105.668,60.9056 104.5,59.5C 102.966,58.2638 101.3,57.7638 99.5,58C 101.141,59.129 102.141,60.629 102.5,62.5C 98.0235,60.8049 93.3568,59.6383 88.5,59C 88.1667,58.6667 87.8333,58.3333 87.5,58C 88.8333,57.3333 90.1667,56.6667 91.5,56C 90.8333,55.6667 90.1667,55.3333 89.5,55C 97.4617,53.9047 104.462,55.738 110.5,60.5 Z"/></g>
<g><path style="opacity:0.008" fill="#eafff4" d="M 115.5,57.5 C 116.167,57.5 116.5,57.8333 116.5,58.5C 116.167,58.1667 115.833,57.8333 115.5,57.5 Z"/></g>
<g><path style="opacity:1" fill="#b6c180" d="M 75.5,53.5 C 75.259,56.7935 76.0924,59.7935 78,62.5C 79.4098,65.136 81.2431,65.8026 83.5,64.5C 87.2864,65.2216 90.6197,66.5549 93.5,68.5C 92.5525,69.9779 91.2191,70.9779 89.5,71.5C 83.1164,68.7387 76.7831,66.0721 70.5,63.5C 71.2389,63.631 71.9056,63.4643 72.5,63C 71.5769,60.9592 71.2436,58.7925 71.5,56.5C 72.8333,55.5 74.1667,54.5 75.5,53.5 Z"/></g>
<g><path style="opacity:0.004" fill="#eafff4" d="M 116.5,58.5 C 117.289,58.7828 117.956,59.2828 118.5,60C 117.184,60.5281 116.517,60.0281 116.5,58.5 Z"/></g>
<g><path style="opacity:1" fill="#ccfdd8" d="M 53.5,75.5 C 54.3235,73.5454 54.4901,71.5454 54,69.5C 52.7316,65.918 50.8983,62.2514 48.5,58.5C 48.369,57.7611 48.5357,57.0944 49,56.5C 49.4244,58.6145 50.5911,59.4479 52.5,59C 52.7205,57.2015 53.0539,55.3682 53.5,53.5C 54.6016,52.8243 55.6016,52.1577 56.5,51.5C 56.56,50.9569 56.8933,50.6236 57.5,50.5C 58.6506,53.9027 59.3172,57.4027 59.5,61C 57.0992,65.1163 55.5992,69.6163 55,74.5C 54.6174,75.056 54.1174,75.3893 53.5,75.5 Z"/></g>
<g><path style="opacity:1" fill="#cff5c6" d="M 102.5,68.5 C 101.5,68.8333 100.833,69.5 100.5,70.5C 99.8826,70.6107 99.3826,70.944 99,71.5C 97.4167,70.0289 95.5834,69.0289 93.5,68.5C 90.6197,66.5549 87.2864,65.2216 83.5,64.5C 83.5,64.1667 83.5,63.8333 83.5,63.5C 84.1635,61.9581 84.8302,60.2914 85.5,58.5C 90.6169,60.3249 95.7836,61.9915 101,63.5C 101.765,63.4301 102.265,63.0967 102.5,62.5C 102.141,60.629 101.141,59.129 99.5,58C 101.3,57.7638 102.966,58.2638 104.5,59.5C 105.668,60.9056 105.335,62.0723 103.5,63C 106.102,65.3117 105.768,67.1451 102.5,68.5 Z"/></g>
<g><path style="opacity:1" fill="#c2efbf" d="M 70.5,38.5 C 67.0257,38.7473 66.359,39.7473 68.5,41.5C 67.9851,43.2251 67.3184,44.8917 66.5,46.5C 65.8165,46.1373 65.1499,45.8039 64.5,45.5C 64.0133,44.5266 63.5133,43.5266 63,42.5C 62.7104,44.0441 62.0437,45.3774 61,46.5C 60.8429,53.0536 60.6763,59.5536 60.5,66C 63.4586,70.2299 67.4586,72.7299 72.5,73.5C 72.9528,74.4584 73.6195,75.2917 74.5,76C 72.4021,75.9678 70.4021,75.3011 68.5,74C 66.5273,73.5045 64.5273,73.3379 62.5,73.5C 62.5299,72.5028 62.0299,71.8361 61,71.5C 59.7753,71.8623 58.6086,72.3623 57.5,73C 55.8456,74.8269 55.0123,76.6602 55,78.5C 53.9614,77.7562 53.4614,76.7562 53.5,75.5C 54.1174,75.3893 54.6174,75.056 55,74.5C 55.5992,69.6163 57.0992,65.1163 59.5,61C 59.3172,57.4027 58.6506,53.9027 57.5,50.5C 56.8933,50.6236 56.56,50.9569 56.5,51.5C 55.0783,51.2914 53.745,50.7914 52.5,50C 51.2617,49.31 51.2617,48.81 52.5,48.5C 55.149,49.6205 57.4823,48.9538 59.5,46.5C 60.5331,41.3648 63.5331,38.3648 68.5,37.5C 69.4164,37.5427 70.0831,37.8761 70.5,38.5 Z"/></g>
<g><path style="opacity:1" fill="#c8eb88" d="M 107.5,74.5 C 106.167,74.5 104.833,74.5 103.5,74.5C 101.468,73.9522 100.468,72.6188 100.5,70.5C 100.833,69.5 101.5,68.8333 102.5,68.5C 104.167,68.5 105.833,68.5 107.5,68.5C 108.165,66.3021 108.832,63.9688 109.5,61.5C 121.525,65.8433 121.858,70.0099 110.5,74C 111.167,74.3333 111.833,74.6667 112.5,75C 110.803,75.3845 109.137,75.2178 107.5,74.5 Z"/></g>
<g><path style="opacity:1" fill="#d9ecbe" d="M 70.5,63.5 C 76.7831,66.0721 83.1164,68.7387 89.5,71.5C 90.5893,73.1171 92.256,73.9504 94.5,74C 92.3474,74.0995 90.6808,74.9328 89.5,76.5C 89.5,77.1667 89.5,77.8333 89.5,78.5C 84.6474,76.8653 79.6474,75.3653 74.5,74C 73.944,73.6174 73.6107,73.1174 73.5,72.5C 72.3778,71.0527 70.8778,70.0527 69,69.5C 67.4868,66.9761 66.8201,64.3094 67,61.5C 67.7096,62.9733 68.8762,63.6399 70.5,63.5 Z"/></g>
<g><path style="opacity:1" fill="#acd47e" d="M 112.5,59.5 C 119.955,64.277 124.622,70.9437 126.5,79.5C 125.657,81.4872 124.99,83.6539 124.5,86C 125.517,88.7866 125.684,91.62 125,94.5C 124.768,93.2625 124.268,92.2625 123.5,91.5C 123.093,90.2382 122.76,88.9049 122.5,87.5C 118.963,84.4604 115.629,81.2938 112.5,78C 111.255,77.2086 109.922,76.7086 108.5,76.5C 108.167,75.8333 107.833,75.1667 107.5,74.5C 109.137,75.2178 110.803,75.3845 112.5,75C 111.833,74.6667 111.167,74.3333 110.5,74C 121.858,70.0099 121.525,65.8433 109.5,61.5C 108.832,63.9688 108.165,66.3021 107.5,68.5C 107.5,65.8333 107.5,63.1667 107.5,60.5C 108.5,60.5 109.5,60.5 110.5,60.5C 111.925,62.0311 112.591,61.6977 112.5,59.5 Z"/></g>
<g><path style="opacity:1" fill="#caebbe" d="M 93.5,68.5 C 95.5834,69.0289 97.4167,70.0289 99,71.5C 99.3826,70.944 99.8826,70.6107 100.5,70.5C 100.468,72.6188 101.468,73.9522 103.5,74.5C 105.406,77.1562 105.906,80.1562 105,83.5C 104.329,82.7476 103.496,82.4142 102.5,82.5C 98.1667,80.5 93.8333,78.5 89.5,76.5C 90.6808,74.9328 92.3474,74.0995 94.5,74C 92.256,73.9504 90.5893,73.1171 89.5,71.5C 91.2191,70.9779 92.5525,69.9779 93.5,68.5 Z"/></g>
<g><path style="opacity:1" fill="#315d30" d="M 73.5,72.5 C 73.6107,73.1174 73.944,73.6174 74.5,74C 79.6474,75.3653 84.6474,76.8653 89.5,78.5C 90.766,79.0899 92.0993,79.5899 93.5,80C 92.552,80.4828 91.552,80.6495 90.5,80.5C 90.1667,84.5 89.8333,84.5 89.5,80.5C 87.7085,80.634 86.0418,80.3007 84.5,79.5C 83.4168,79.5394 82.4168,79.8728 81.5,80.5C 77.585,74.3483 75.085,75.3483 74,83.5C 73.3292,84.2524 72.4959,84.5858 71.5,84.5C 72.3617,82.9048 72.8617,81.2381 73,79.5C 72.6667,79.8333 72.3333,80.1667 72,80.5C 70.583,78.6022 69.083,76.9355 67.5,75.5C 65.6943,74.9759 64.0276,74.3092 62.5,73.5C 64.5273,73.3379 66.5273,73.5045 68.5,74C 70.4021,75.3011 72.4021,75.9678 74.5,76C 73.6195,75.2917 72.9528,74.4584 72.5,73.5C 72.5,72.8333 72.8333,72.5 73.5,72.5 Z"/></g>
<g><path style="opacity:1" fill="#c8fdce" d="M 62.5,73.5 C 64.0276,74.3092 65.6943,74.9759 67.5,75.5C 68.2436,78.9496 66.9103,80.6162 63.5,80.5C 63.4802,82.143 64.1468,83.4763 65.5,84.5C 66.0549,86.3932 65.3882,88.0599 63.5,89.5C 58.7941,85.8417 57.7941,81.3417 60.5,76C 59.8487,74.692 60.5154,73.8586 62.5,73.5 Z"/></g>
<g><path style="opacity:1" fill="#bfefbc" d="M 67.5,75.5 C 69.083,76.9355 70.583,78.6022 72,80.5C 72.3333,80.1667 72.6667,79.8333 73,79.5C 72.8617,81.2381 72.3617,82.9048 71.5,84.5C 71.5,84.8333 71.5,85.1667 71.5,85.5C 69.615,87.0532 68.615,89.0532 68.5,91.5C 66.5168,91.1568 65.1834,91.8235 64.5,93.5C 63.2794,94.0283 62.1127,94.695 61,95.5C 61.6461,93.5675 62.4794,91.5675 63.5,89.5C 65.3882,88.0599 66.0549,86.3932 65.5,84.5C 64.1468,83.4763 63.4802,82.143 63.5,80.5C 66.9103,80.6162 68.2436,78.9496 67.5,75.5 Z"/></g>
<g><path style="opacity:1" fill="#c9fcd3" d="M 62.5,73.5 C 60.5154,73.8586 59.8487,74.692 60.5,76C 57.7941,81.3417 58.7941,85.8417 63.5,89.5C 62.4794,91.5675 61.6461,93.5675 61,95.5C 62.1127,94.695 63.2794,94.0283 64.5,93.5C 63.9035,95.398 63.9035,97.0646 64.5,98.5C 66.0481,98.8212 66.7148,99.8212 66.5,101.5C 63.7952,101.38 63.1285,102.38 64.5,104.5C 63.1482,105.524 61.8149,106.524 60.5,107.5C 59.928,106.027 59.0946,104.693 58,103.5C 56.3333,106.5 54.6667,109.5 53,112.5C 52.6667,111.833 52.3333,111.167 52,110.5C 51.5045,112.473 51.3379,114.473 51.5,116.5C 50.9232,117.773 50.2565,117.773 49.5,116.5C 51.0963,113.385 50.4296,110.885 47.5,109C 48.3767,107.133 49.8767,105.966 52,105.5C 52.3333,104.167 52.6667,102.833 53,101.5C 52.6772,95.4604 52.8439,89.4604 53.5,83.5C 52.9067,81.6183 52.2401,79.7849 51.5,78C 52.0659,77.0053 52.7326,76.172 53.5,75.5C 53.4614,76.7562 53.9614,77.7562 55,78.5C 55.0123,76.6602 55.8456,74.8269 57.5,73C 58.6086,72.3623 59.7753,71.8623 61,71.5C 62.0299,71.8361 62.5299,72.5028 62.5,73.5 Z"/></g>
<g><path style="opacity:1" fill="#487650" d="M 84.5,79.5 C 83.7659,80.7079 83.4326,82.0413 83.5,83.5C 78.9009,83.8619 77.9009,85.6952 80.5,89C 75.938,91.5968 72.938,90.4302 71.5,85.5C 71.5,85.1667 71.5,84.8333 71.5,84.5C 72.4959,84.5858 73.3292,84.2524 74,83.5C 75.085,75.3483 77.585,74.3483 81.5,80.5C 82.4168,79.8728 83.4168,79.5394 84.5,79.5 Z"/></g>
<g><path style="opacity:1" fill="#567c51" d="M 89.5,76.5 C 93.8333,78.5 98.1667,80.5 102.5,82.5C 103.287,84.1042 104.62,84.7709 106.5,84.5C 105.903,85.1386 105.07,85.472 104,85.5C 101.667,84.8333 99.3333,84.1667 97,83.5C 94.5,84 92,84.5 89.5,85C 90.6341,86.016 90.3008,86.6827 88.5,87C 89.1667,87.3333 89.8333,87.6667 90.5,88C 89.244,88.4169 88.5774,89.2502 88.5,90.5C 84.7212,89.6799 82.3879,91.0133 81.5,94.5C 78.2746,94.5895 75.2746,93.9228 72.5,92.5C 68.8216,92.4409 68.155,93.4409 70.5,95.5C 69.675,96.3857 68.675,96.719 67.5,96.5C 67.6567,95.1266 67.49,93.7932 67,92.5C 66.6582,94.6192 65.8249,94.9526 64.5,93.5C 65.1834,91.8235 66.5168,91.1568 68.5,91.5C 68.615,89.0532 69.615,87.0532 71.5,85.5C 72.938,90.4302 75.938,91.5968 80.5,89C 77.9009,85.6952 78.9009,83.8619 83.5,83.5C 83.4326,82.0413 83.7659,80.7079 84.5,79.5C 86.0418,80.3007 87.7085,80.634 89.5,80.5C 89.8333,84.5 90.1667,84.5 90.5,80.5C 91.552,80.6495 92.552,80.4828 93.5,80C 92.0993,79.5899 90.766,79.0899 89.5,78.5C 89.5,77.8333 89.5,77.1667 89.5,76.5 Z"/></g>
<g><path style="opacity:1" fill="#d1fac9" d="M 108.5,76.5 C 109.922,76.7086 111.255,77.2086 112.5,78C 115.629,81.2938 118.963,84.4604 122.5,87.5C 122.76,88.9049 123.093,90.2382 123.5,91.5C 123.5,92.5 123.5,93.5 123.5,94.5C 122.448,94.3505 121.448,94.5172 120.5,95C 123.842,96.1244 124.175,97.6244 121.5,99.5C 116.699,99.2213 112.032,99.888 107.5,101.5C 105.97,101.36 104.97,100.693 104.5,99.5C 105.833,98.1667 107.167,96.8333 108.5,95.5C 110.167,95.5 111.833,95.5 113.5,95.5C 113.281,94.325 113.614,93.325 114.5,92.5C 115.736,93.2458 117.07,93.5792 118.5,93.5C 119.84,94.2942 120.007,92.2942 119,87.5C 116,85.5 113,83.5 110,81.5C 109.365,80.0337 108.531,78.7003 107.5,77.5C 107.624,76.8933 107.957,76.56 108.5,76.5 Z"/></g>
<g><path style="opacity:1" fill="#c5e6ac" d="M 103.5,74.5 C 104.833,74.5 106.167,74.5 107.5,74.5C 107.833,75.1667 108.167,75.8333 108.5,76.5C 107.957,76.56 107.624,76.8933 107.5,77.5C 108.531,78.7003 109.365,80.0337 110,81.5C 113,83.5 116,85.5 119,87.5C 120.007,92.2942 119.84,94.2942 118.5,93.5C 117.07,93.5792 115.736,93.2458 114.5,92.5C 113.614,93.325 113.281,94.325 113.5,95.5C 111.833,95.5 110.167,95.5 108.5,95.5C 105.001,95.741 104.668,94.9076 107.5,93C 104.833,92.3333 104.833,91.6667 107.5,91C 107.272,90.6012 106.938,90.4346 106.5,90.5C 106.056,88.8868 105.056,87.7202 103.5,87C 105.809,86.2438 107.809,86.7438 109.5,88.5C 109.833,88.1667 110.167,87.8333 110.5,87.5C 109.148,86.4756 107.815,85.4756 106.5,84.5C 104.62,84.7709 103.287,84.1042 102.5,82.5C 103.496,82.4142 104.329,82.7476 105,83.5C 105.906,80.1562 105.406,77.1562 103.5,74.5 Z"/></g>
<g><path style="opacity:1" fill="#b9ca94" d="M 106.5,84.5 C 107.815,85.4756 109.148,86.4756 110.5,87.5C 110.167,87.8333 109.833,88.1667 109.5,88.5C 107.809,86.7438 105.809,86.2438 103.5,87C 105.056,87.7202 106.056,88.8868 106.5,90.5C 101.3,90.7669 97.3001,93.1003 94.5,97.5C 93.4777,97.1445 92.811,96.4778 92.5,95.5C 96.2352,93.2109 95.7352,91.2109 91,89.5C 90.0979,89.7432 89.2646,90.0766 88.5,90.5C 88.5774,89.2502 89.244,88.4169 90.5,88C 89.8333,87.6667 89.1667,87.3333 88.5,87C 90.3008,86.6827 90.6341,86.016 89.5,85C 92,84.5 94.5,84 97,83.5C 99.3333,84.1667 101.667,84.8333 104,85.5C 105.07,85.472 105.903,85.1386 106.5,84.5 Z"/></g>
<g><path style="opacity:1" fill="#ccfcd5" d="M 92.5,95.5 C 91.5116,96.795 90.5116,98.1283 89.5,99.5C 86.0245,99.0061 83.3578,97.3395 81.5,94.5C 82.3879,91.0133 84.7212,89.6799 88.5,90.5C 89.2646,90.0766 90.0979,89.7432 91,89.5C 95.7352,91.2109 96.2352,93.2109 92.5,95.5 Z"/></g>
<g><path style="opacity:1" fill="#cafad4" d="M 126.5,79.5 C 126.485,85.1232 128.151,90.1232 131.5,94.5C 128.5,97.8333 125.5,101.167 122.5,104.5C 123.428,105.768 123.595,107.101 123,108.5C 120.21,109.476 117.71,110.809 115.5,112.5C 115.334,109.832 114.334,107.498 112.5,105.5C 113.309,103.929 113.643,102.262 113.5,100.5C 116.385,100.806 119.052,100.473 121.5,99.5C 124.175,97.6244 123.842,96.1244 120.5,95C 121.448,94.5172 122.448,94.3505 123.5,94.5C 123.5,93.5 123.5,92.5 123.5,91.5C 124.268,92.2625 124.768,93.2625 125,94.5C 125.684,91.62 125.517,88.7866 124.5,86C 124.99,83.6539 125.657,81.4872 126.5,79.5 Z"/></g>
<g><path style="opacity:1" fill="#c3dca3" d="M 106.5,90.5 C 106.938,90.4346 107.272,90.6012 107.5,91C 104.833,91.6667 104.833,92.3333 107.5,93C 104.668,94.9076 105.001,95.741 108.5,95.5C 107.167,96.8333 105.833,98.1667 104.5,99.5C 102.548,100.785 100.882,102.451 99.5,104.5C 96.6393,105.34 93.9727,106.673 91.5,108.5C 88.8283,106.609 87.8283,103.942 88.5,100.5C 89.1667,100.5 89.5,100.167 89.5,99.5C 90.5116,98.1283 91.5116,96.795 92.5,95.5C 92.811,96.4778 93.4777,97.1445 94.5,97.5C 97.3001,93.1003 101.3,90.7669 106.5,90.5 Z"/></g>
<g><path style="opacity:1" fill="#c8facf" d="M 81.5,94.5 C 83.3578,97.3395 86.0245,99.0061 89.5,99.5C 89.5,100.167 89.1667,100.5 88.5,100.5C 87.1779,100.67 86.0113,100.337 85,99.5C 84.6824,101.061 83.8491,102.228 82.5,103C 83.1667,103.333 83.8333,103.667 84.5,104C 81.8738,104.995 79.2071,105.328 76.5,105C 81.1926,104.184 81.5259,102.684 77.5,100.5C 74.9889,102.543 72.3222,104.209 69.5,105.5C 68.5,105.5 67.5,105.5 66.5,105.5C 66.6234,102.626 67.6234,100.126 69.5,98C 67.6131,97.2204 65.9464,97.3871 64.5,98.5C 63.9035,97.0646 63.9035,95.398 64.5,93.5C 65.8249,94.9526 66.6582,94.6192 67,92.5C 67.49,93.7932 67.6567,95.1266 67.5,96.5C 68.675,96.719 69.675,96.3857 70.5,95.5C 68.155,93.4409 68.8216,92.4409 72.5,92.5C 75.2746,93.9228 78.2746,94.5895 81.5,94.5 Z"/></g>
<g><path style="opacity:1" fill="#c8e6a9" d="M 104.5,99.5 C 104.97,100.693 105.97,101.36 107.5,101.5C 112.032,99.888 116.699,99.2213 121.5,99.5C 119.052,100.473 116.385,100.806 113.5,100.5C 113.643,102.262 113.309,103.929 112.5,105.5C 114.334,107.498 115.334,109.832 115.5,112.5C 115.5,112.833 115.5,113.167 115.5,113.5C 114.833,113.167 114.167,112.833 113.5,112.5C 114.815,111.105 114.481,110.105 112.5,109.5C 112.291,108.078 111.791,106.745 111,105.5C 106.505,109.752 102.672,109.419 99.5,104.5C 100.882,102.451 102.548,100.785 104.5,99.5 Z"/></g>
<g><path style="opacity:1" fill="#d1fed8" d="M 88.5,100.5 C 87.8283,103.942 88.8283,106.609 91.5,108.5C 91.6495,109.552 91.4828,110.552 91,111.5C 89.8687,110.396 89.0354,110.729 88.5,112.5C 86.9223,113.298 85.2556,113.798 83.5,114C 84.4158,114.278 85.0825,114.778 85.5,115.5C 84.1667,115.5 82.8333,115.5 81.5,115.5C 77.8242,115.23 75.6575,113.23 75,109.5C 73.5002,107.531 71.6669,106.198 69.5,105.5C 72.3222,104.209 74.9889,102.543 77.5,100.5C 81.5259,102.684 81.1926,104.184 76.5,105C 79.2071,105.328 81.8738,104.995 84.5,104C 83.8333,103.667 83.1667,103.333 82.5,103C 83.8491,102.228 84.6824,101.061 85,99.5C 86.0113,100.337 87.1779,100.67 88.5,100.5 Z"/></g>
<g><path style="opacity:1" fill="#a8cb90" d="M 64.5,98.5 C 65.9464,97.3871 67.6131,97.2204 69.5,98C 67.6234,100.126 66.6234,102.626 66.5,105.5C 67.5,105.5 68.5,105.5 69.5,105.5C 71.6669,106.198 73.5002,107.531 75,109.5C 75.6575,113.23 77.8242,115.23 81.5,115.5C 79.4727,115.662 77.4727,115.495 75.5,115C 74.4495,113.615 73.1161,112.615 71.5,112C 72.5171,110.951 72.6838,109.784 72,108.5C 71.3333,109.833 70.3333,110.833 69,111.5C 68.3828,110.551 68.5494,109.718 69.5,109C 68.9535,108.075 68.2868,107.242 67.5,106.5C 66.1585,108.005 64.4918,108.672 62.5,108.5C 62.5,110.833 62.5,113.167 62.5,115.5C 61.282,113.172 60.282,110.672 59.5,108C 59.7284,107.601 60.0618,107.435 60.5,107.5C 61.8149,106.524 63.1482,105.524 64.5,104.5C 63.1285,102.38 63.7952,101.38 66.5,101.5C 66.7148,99.8212 66.0481,98.8212 64.5,98.5 Z"/></g>
<g><path style="opacity:1" fill="#d8fbcb" d="M 99.5,104.5 C 102.672,109.419 106.505,109.752 111,105.5C 111.791,106.745 112.291,108.078 112.5,109.5C 112.013,110.473 111.513,111.473 111,112.5C 109.061,110.764 106.728,109.764 104,109.5C 101.535,110.651 99.0351,111.651 96.5,112.5C 93.4262,113.302 90.4262,114.302 87.5,115.5C 86.8333,115.5 86.1667,115.5 85.5,115.5C 85.0825,114.778 84.4158,114.278 83.5,114C 85.2556,113.798 86.9223,113.298 88.5,112.5C 89.0354,110.729 89.8687,110.396 91,111.5C 91.4828,110.552 91.6495,109.552 91.5,108.5C 93.9727,106.673 96.6393,105.34 99.5,104.5 Z"/></g>
<g><path style="opacity:1" fill="#a9eec1" d="M 60.5,107.5 C 60.0618,107.435 59.7284,107.601 59.5,108C 60.282,110.672 61.282,113.172 62.5,115.5C 63.2823,117.451 64.6156,118.951 66.5,120C 69.5298,120.578 72.1965,121.745 74.5,123.5C 70.6072,124.113 67.2738,125.78 64.5,128.5C 61.0252,127.714 60.6919,126.214 63.5,124C 61.8739,124.195 60.2072,124.195 58.5,124C 57.9288,122.795 57.2621,121.628 56.5,120.5C 56.2514,121.582 56.0848,122.915 56,124.5C 55.6232,123.058 54.7899,122.058 53.5,121.5C 52.9759,119.694 52.3092,118.028 51.5,116.5C 51.3379,114.473 51.5045,112.473 52,110.5C 52.3333,111.167 52.6667,111.833 53,112.5C 54.6667,109.5 56.3333,106.5 58,103.5C 59.0946,104.693 59.928,106.027 60.5,107.5 Z"/></g>
<g><path style="opacity:1" fill="#c7e7ab" d="M 81.5,115.5 C 82.8333,115.5 84.1667,115.5 85.5,115.5C 86.1667,115.5 86.8333,115.5 87.5,115.5C 89.4061,116.482 91.4061,117.482 93.5,118.5C 91.1838,119.932 88.6838,120.932 86,121.5C 85.1667,120.667 84.3333,119.833 83.5,119C 76.2246,118.876 69.2246,117.71 62.5,115.5C 62.5,113.167 62.5,110.833 62.5,108.5C 64.4918,108.672 66.1585,108.005 67.5,106.5C 68.2868,107.242 68.9535,108.075 69.5,109C 68.5494,109.718 68.3828,110.551 69,111.5C 70.3333,110.833 71.3333,109.833 72,108.5C 72.6838,109.784 72.5171,110.951 71.5,112C 73.1161,112.615 74.4495,113.615 75.5,115C 77.4727,115.495 79.4727,115.662 81.5,115.5 Z"/></g>
<g><path style="opacity:1" fill="#d5eebf" d="M 112.5,109.5 C 114.481,110.105 114.815,111.105 113.5,112.5C 108.459,116.423 102.793,119.423 96.5,121.5C 97.6139,118.846 97.6139,115.846 96.5,112.5C 99.0351,111.651 101.535,110.651 104,109.5C 106.728,109.764 109.061,110.764 111,112.5C 111.513,111.473 112.013,110.473 112.5,109.5 Z"/></g>
<g><path style="opacity:0.008" fill="#eafff4" d="M 117.5,114.5 C 117.897,113.475 118.563,113.308 119.5,114C 118.906,114.464 118.239,114.631 117.5,114.5 Z"/></g>
<g><path style="opacity:1" fill="#9dc38f" d="M 96.5,112.5 C 97.6139,115.846 97.6139,118.846 96.5,121.5C 102.793,119.423 108.459,116.423 113.5,112.5C 114.167,112.833 114.833,113.167 115.5,113.5C 114.969,115.624 113.635,117.124 111.5,118C 105.948,119.458 100.948,121.958 96.5,125.5C 93.8066,123.73 90.8066,123.063 87.5,123.5C 83.2033,124.512 78.87,124.512 74.5,123.5C 72.1965,121.745 69.5298,120.578 66.5,120C 64.6156,118.951 63.2823,117.451 62.5,115.5C 69.2246,117.71 76.2246,118.876 83.5,119C 84.3333,119.833 85.1667,120.667 86,121.5C 88.6838,120.932 91.1838,119.932 93.5,118.5C 91.4061,117.482 89.4061,116.482 87.5,115.5C 90.4262,114.302 93.4262,113.302 96.5,112.5 Z"/></g>
<g><path style="opacity:1" fill="#b5fbda" d="M 74.5,123.5 C 78.87,124.512 83.2033,124.512 87.5,123.5C 86.7707,130.064 83.104,133.897 76.5,135C 71.3356,135.91 66.3356,135.41 61.5,133.5C 59,130.5 56.5,127.5 54,124.5C 53.5172,123.552 53.3505,122.552 53.5,121.5C 54.7899,122.058 55.6232,123.058 56,124.5C 56.0848,122.915 56.2514,121.582 56.5,120.5C 57.2621,121.628 57.9288,122.795 58.5,124C 60.2072,124.195 61.8739,124.195 63.5,124C 60.6919,126.214 61.0252,127.714 64.5,128.5C 67.2738,125.78 70.6072,124.113 74.5,123.5 Z"/></g>
<g><path style="opacity:0.759" fill="#d8d6aa" d="M 51.5,129.5 C 55.1916,131.344 58.5249,133.677 61.5,136.5C 59.7408,137.754 58.2408,137.421 57,135.5C 54.6667,138.5 52.3333,141.5 50,144.5C 49.5,144 49,143.5 48.5,143C 50.5,140 52.5,137 54.5,134C 51.7814,133.195 50.7814,131.695 51.5,129.5 Z"/></g>
<g><path style="opacity:0.787" fill="#d8d5a9" d="M 121.5,141.5 C 121.045,138.797 120.378,136.13 119.5,133.5C 119.833,132.833 120.167,132.167 120.5,131.5C 122.555,135.328 124.221,139.328 125.5,143.5C 124.675,144.386 123.675,144.719 122.5,144.5C 122.737,143.209 122.404,142.209 121.5,141.5 Z"/></g>
<g><path style="opacity:0.744" fill="#d8d6aa" d="M 121.5,141.5 C 121.703,143.39 121.037,144.89 119.5,146C 117.649,146.837 115.816,147.671 114,148.5C 111.454,144.388 110.287,140.055 110.5,135.5C 111.249,137.012 112.416,138.012 114,138.5C 117.551,136.886 120.051,137.886 121.5,141.5 Z M 113.5,140.5 C 115.167,140.5 116.833,140.5 118.5,140.5C 118.5,141.833 118.5,143.167 118.5,144.5C 114.918,146.161 113.252,144.827 113.5,140.5 Z"/></g>
<g><path style="opacity:0.743" fill="#d8d6ab" d="M 65.5,137.5 C 72.0001,136.499 74.5001,139.165 73,145.5C 71.205,152.205 67.5383,153.205 62,148.5C 61.2571,146.559 61.4238,144.726 62.5,143C 65.2305,142.272 67.8971,142.438 70.5,143.5C 71.6069,141.231 70.7735,139.898 68,139.5C 65.0499,141.044 64.2166,140.378 65.5,137.5 Z M 64.5,144.5 C 66.6547,144.372 68.6547,144.872 70.5,146C 68.362,149.104 66.0287,149.27 63.5,146.5C 63.8627,145.817 64.1961,145.15 64.5,144.5 Z"/></g>
<g><path style="opacity:0.73" fill="#d8d6aa" d="M 104.5,137.5 C 105.478,137.811 106.145,138.478 106.5,139.5C 104.955,140.452 103.288,140.785 101.5,140.5C 102.46,144.195 102.46,147.861 101.5,151.5C 99.9385,148.037 99.1051,144.37 99,140.5C 97.5064,141.747 96.0064,141.747 94.5,140.5C 94.7093,139.914 95.0426,139.414 95.5,139C 98.6946,138.819 101.695,138.319 104.5,137.5 Z"/></g>
<g><path style="opacity:0.74" fill="#d8d6aa" d="M 80.5,139.5 C 82.0358,141.025 83.0358,143.025 83.5,145.5C 84.941,144.135 86.2744,142.635 87.5,141C 88.635,140.251 89.635,140.417 90.5,141.5C 89.1667,143.167 87.8333,144.833 86.5,146.5C 87.5,148.5 88.5,150.5 89.5,152.5C 89,152.833 88.5,153.167 88,153.5C 86.3514,152.214 85.1847,150.547 84.5,148.5C 83.675,147.614 82.675,147.281 81.5,147.5C 81.7852,149.288 81.4519,150.955 80.5,152.5C 80.1667,151.167 79.8333,149.833 79.5,148.5C 79.9657,145.508 80.2991,142.508 80.5,139.5 Z"/></g>
</svg>
