<?xml version="1.0" encoding="UTF-8"?>
<!DOCTYPE svg PUBLIC "-//W3C//DTD SVG 1.1//EN" "http://www.w3.org/Graphics/SVG/1.1/DTD/svg11.dtd">
<svg xmlns="http://www.w3.org/2000/svg" version="1.1" width="175px" height="175px" style="shape-rendering:geometricPrecision; text-rendering:geometricPrecision; image-rendering:optimizeQuality; fill-rule:evenodd; clip-rule:evenodd" xmlns:xlink="http://www.w3.org/1999/xlink">
<g><path style="opacity:0.761" fill="#dfc8d0" d="M 86.5,20.5 C 93.436,22.7155 95.1027,27.0489 91.5,33.5C 85.4278,36.9791 81.7612,35.1458 80.5,28C 80.9278,24.087 82.9278,21.587 86.5,20.5 Z M 85.5,23.5 C 90.1522,24.1035 91.6522,26.7702 90,31.5C 86.2589,34.0455 84.0923,32.8788 83.5,28C 83.5186,26.167 84.1852,24.667 85.5,23.5 Z"/></g>
<g><path style="opacity:0.775" fill="#dfc8d0" d="M 100.5,22.5 C 101.5,22.5 102.5,22.5 103.5,22.5C 103.167,24.5 102.833,26.5 102.5,28.5C 104.5,28.8333 106.5,29.1667 108.5,29.5C 108.116,27.3352 108.783,25.6685 110.5,24.5C 110.833,25 111.167,25.5 111.5,26C 110.496,29.7006 109.496,33.3672 108.5,37C 107.4,37.4317 106.733,36.9317 106.5,35.5C 106.68,34.4461 107.013,33.4461 107.5,32.5C 105.892,31.6816 104.225,31.0149 102.5,30.5C 101.684,32.2873 100.684,33.9539 99.5,35.5C 99.1667,34.8333 98.8333,34.1667 98.5,33.5C 99.4263,29.8697 100.093,26.203 100.5,22.5 Z"/></g>
<g><path style="opacity:0.779" fill="#e0c8d0" d="M 71.5,22.5 C 72.4972,22.4701 73.1639,22.9701 73.5,24C 72.7636,26.1394 71.7636,28.1394 70.5,30C 72.9768,31.6427 75.3102,33.476 77.5,35.5C 76.635,36.5827 75.635,36.7494 74.5,36C 72.6951,35.028 71.0284,33.8613 69.5,32.5C 69.1667,34.5 68.8333,36.5 68.5,38.5C 66.2408,34.8612 64.5742,30.8612 63.5,26.5C 63.8076,25.6919 64.3076,25.0253 65,24.5C 66.1853,26.3772 67.1853,28.3772 68,30.5C 69.0764,27.7627 70.243,25.096 71.5,22.5 Z"/></g>
<g><path style="opacity:1" fill="#95b19f" d="M 95.5,41.5 C 99.3714,41.185 103.038,41.5184 106.5,42.5C 105.432,43.4345 104.099,43.7678 102.5,43.5C 98.0202,43.2681 93.6868,43.9347 89.5,45.5C 88.7025,45.0431 88.3691,44.3764 88.5,43.5C 91.0673,43.2785 93.4006,42.6118 95.5,41.5 Z"/></g>
<g><path style="opacity:0.275" fill="#b9e8e6" d="M 95.5,41.5 C 93.4006,42.6118 91.0673,43.2785 88.5,43.5C 86.5853,43.2155 84.9187,43.5489 83.5,44.5C 82.8333,44.5 82.1667,44.5 81.5,44.5C 80.5084,44.3284 79.8417,44.6618 79.5,45.5C 78.1667,45.8333 76.8333,46.1667 75.5,46.5C 76.0577,45.2101 77.0577,44.3768 78.5,44C 84.0146,42.1096 89.6812,41.2763 95.5,41.5 Z"/></g>
<g><path style="opacity:1" fill="#c4e8de" d="M 106.5,42.5 C 108.415,42.2155 110.081,42.5489 111.5,43.5C 110.127,43.3433 108.793,43.51 107.5,44C 113.326,45.0897 117.992,47.9231 121.5,52.5C 118.719,52.9065 115.719,52.9065 112.5,52.5C 111.659,50.6208 111.325,48.6208 111.5,46.5C 109.194,46.9926 106.861,47.3259 104.5,47.5C 104.473,45.8007 103.806,44.4674 102.5,43.5C 104.099,43.7678 105.432,43.4345 106.5,42.5 Z"/></g>
<g><path style="opacity:1" fill="#a1cdbf" d="M 111.5,43.5 C 113.553,43.4021 115.22,44.0687 116.5,45.5C 119.026,47.4182 121.026,49.7515 122.5,52.5C 122.167,52.5 121.833,52.5 121.5,52.5C 117.992,47.9231 113.326,45.0897 107.5,44C 108.793,43.51 110.127,43.3433 111.5,43.5 Z"/></g>
<g><path style="opacity:1" fill="#c1d1c2" d="M 83.5,44.5 C 84.9187,43.5489 86.5853,43.2155 88.5,43.5C 88.3691,44.3764 88.7025,45.0431 89.5,45.5C 93.6868,43.9347 98.0202,43.2681 102.5,43.5C 103.806,44.4674 104.473,45.8007 104.5,47.5C 106.861,47.3259 109.194,46.9926 111.5,46.5C 111.325,48.6208 111.659,50.6208 112.5,52.5C 111.167,52.5 109.833,52.5 108.5,52.5C 105.402,52.5875 105.068,52.0875 107.5,51C 105.182,49.0073 102.516,47.8406 99.5,47.5C 96.8806,47.7683 94.3806,47.435 92,46.5C 90.951,48.1066 89.451,48.7733 87.5,48.5C 87.5,47.1667 87.5,45.8333 87.5,44.5C 86.1667,44.5 84.8333,44.5 83.5,44.5 Z"/></g>
<g><path style="opacity:1" fill="#9ab39b" d="M 79.5,45.5 C 77.3448,47.3456 74.6782,49.3456 71.5,51.5C 70.5084,51.3284 69.8417,51.6618 69.5,52.5C 68.375,51.6522 68.375,50.6522 69.5,49.5C 71.2163,47.9752 73.2163,46.9752 75.5,46.5C 76.8333,46.1667 78.1667,45.8333 79.5,45.5 Z"/></g>
<g><path style="opacity:1" fill="#c6f5ec" d="M 59.5,52.5 C 57.9519,52.1788 57.2852,51.1788 57.5,49.5C 56.0222,49.238 54.6888,49.5713 53.5,50.5C 54.5294,50.2964 55.5294,50.7964 56.5,52C 55.552,52.4828 54.552,52.6495 53.5,52.5C 55.4185,56.2464 54.5852,59.2464 51,61.5C 50.9504,59.256 50.1171,57.5893 48.5,56.5C 48.0766,55.7354 47.7432,54.9021 47.5,54C 48.752,51.0572 49.752,48.0572 50.5,45C 55.8714,44.6825 58.8714,47.1825 59.5,52.5 Z"/></g>
<g><path style="opacity:1" fill="#bec4aa" d="M 79.5,45.5 C 79.8417,44.6618 80.5084,44.3284 81.5,44.5C 82.1667,45.8333 82.8333,47.1667 83.5,48.5C 78.3281,48.2339 77.6615,49.4006 81.5,52C 80.062,52.2189 78.7287,52.7189 77.5,53.5C 78.1272,54.4168 78.4606,55.4168 78.5,56.5C 78.1667,57.5 77.5,58.1667 76.5,58.5C 74.8516,56.5441 74.1849,54.2108 74.5,51.5C 73.5,51.5 72.5,51.5 71.5,51.5C 74.6782,49.3456 77.3448,47.3456 79.5,45.5 Z"/></g>
<g><path style="opacity:1" fill="#9b9b92" d="M 99.5,47.5 C 99.5,47.8333 99.5,48.1667 99.5,48.5C 98.596,49.209 98.2627,50.209 98.5,51.5C 96.901,51.2322 95.5676,51.5655 94.5,52.5C 91.9327,52.7215 89.5994,53.3882 87.5,54.5C 86.5041,54.5858 85.6708,54.2524 85,53.5C 83.6703,54.5822 82.1703,55.2488 80.5,55.5C 82.0817,52.9808 84.0817,51.8142 86.5,52C 88.3731,51.0471 88.7065,49.8804 87.5,48.5C 89.451,48.7733 90.951,48.1066 92,46.5C 94.3806,47.435 96.8806,47.7683 99.5,47.5 Z"/></g>
<g><path style="opacity:1" fill="#c0b3ab" d="M 99.5,48.5 C 99.5,48.1667 99.5,47.8333 99.5,47.5C 102.516,47.8406 105.182,49.0073 107.5,51C 105.068,52.0875 105.402,52.5875 108.5,52.5C 109.551,53.2223 110.218,54.2223 110.5,55.5C 108.579,54.6373 106.579,53.9707 104.5,53.5C 103.215,51.5484 101.549,49.8818 99.5,48.5 Z"/></g>
<g><path style="opacity:0.008" fill="#e1fffe" d="M 45.5,52.5 C 46.525,52.8966 46.6917,53.5632 46,54.5C 45.5357,53.9056 45.369,53.2389 45.5,52.5 Z"/></g>
<g><path style="opacity:1" fill="#b0af95" d="M 81.5,44.5 C 82.1667,44.5 82.8333,44.5 83.5,44.5C 84.8333,44.5 86.1667,44.5 87.5,44.5C 87.5,45.8333 87.5,47.1667 87.5,48.5C 88.7065,49.8804 88.3731,51.0471 86.5,52C 84.0817,51.8142 82.0817,52.9808 80.5,55.5C 79.8333,55.8333 79.1667,56.1667 78.5,56.5C 78.4606,55.4168 78.1272,54.4168 77.5,53.5C 78.7287,52.7189 80.062,52.2189 81.5,52C 77.6615,49.4006 78.3281,48.2339 83.5,48.5C 82.8333,47.1667 82.1667,45.8333 81.5,44.5 Z"/></g>
<g><path style="opacity:1" fill="#506767" d="M 94.5,52.5 C 95.8333,52.5 97.1667,52.5 98.5,52.5C 99.0768,55.5497 97.9101,57.5497 95,58.5C 94.5172,59.448 94.3505,60.448 94.5,61.5C 94.5,62.1667 94.5,62.8333 94.5,63.5C 94.1667,63.5 93.8333,63.5 93.5,63.5C 93.762,62.0222 93.4287,60.6888 92.5,59.5C 90.9853,61.0822 89.3186,62.4155 87.5,63.5C 87.5106,61.9826 88.1772,60.8159 89.5,60C 88.536,58.2745 87.8693,56.4412 87.5,54.5C 89.5994,53.3882 91.9327,52.7215 94.5,52.5 Z"/></g>
<g><path style="opacity:1" fill="#c9f1f4" d="M 108.5,52.5 C 109.833,52.5 111.167,52.5 112.5,52.5C 115.719,52.9065 118.719,52.9065 121.5,52.5C 121.833,52.5 122.167,52.5 122.5,52.5C 123.942,53.8195 124.608,55.4862 124.5,57.5C 124.5,59.5 124.5,61.5 124.5,63.5C 123.5,63.5 122.5,63.5 121.5,63.5C 121.671,60.2027 121.005,59.8694 119.5,62.5C 118.05,61.1502 117.383,59.4835 117.5,57.5C 116.167,57.5 114.833,57.5 113.5,57.5C 112.29,57.0679 111.29,56.4013 110.5,55.5C 110.218,54.2223 109.551,53.2223 108.5,52.5 Z"/></g>
<g><path style="opacity:1" fill="#a8d1b1" d="M 69.5,49.5 C 68.375,50.6522 68.375,51.6522 69.5,52.5C 67.5484,53.7847 65.8818,55.4514 64.5,57.5C 65.1925,58.5178 65.8592,59.5178 66.5,60.5C 64.955,61.2297 64.1216,62.563 64,64.5C 63.2571,66.4406 63.4238,68.2739 64.5,70C 64.1667,70.1667 63.8333,70.3333 63.5,70.5C 62.8302,68.7086 62.1635,67.0419 61.5,65.5C 61.2317,62.8806 61.565,60.3806 62.5,58C 60.9984,57.4169 59.6651,56.5836 58.5,55.5C 60.1095,55.5931 61.7762,55.2598 63.5,54.5C 64.7772,52.8516 65.7772,51.0183 66.5,49C 67.7494,48.2599 68.7494,48.4265 69.5,49.5 Z"/></g>
<g><path style="opacity:1" fill="#c7eeda" d="M 69.5,52.5 C 71.5492,52.7058 71.8825,53.5391 70.5,55C 72.6469,57.1624 72.6469,59.4957 70.5,62C 68.9343,62.2997 67.601,61.7997 66.5,60.5C 65.8592,59.5178 65.1925,58.5178 64.5,57.5C 65.8818,55.4514 67.5484,53.7847 69.5,52.5 Z"/></g>
<g><path style="opacity:1" fill="#857a78" d="M 99.5,48.5 C 101.549,49.8818 103.215,51.5484 104.5,53.5C 105.15,55.4352 105.483,57.4352 105.5,59.5C 104.221,60.968 102.554,61.6347 100.5,61.5C 99.2022,61.7196 97.8688,61.0529 96.5,59.5C 95.8182,60.2427 95.1515,60.9094 94.5,61.5C 94.3505,60.448 94.5172,59.448 95,58.5C 97.9101,57.5497 99.0768,55.5497 98.5,52.5C 97.1667,52.5 95.8333,52.5 94.5,52.5C 95.5676,51.5655 96.901,51.2322 98.5,51.5C 98.2627,50.209 98.596,49.209 99.5,48.5 Z"/></g>
<g><path style="opacity:1" fill="#b07f7a" d="M 104.5,53.5 C 106.579,53.9707 108.579,54.6373 110.5,55.5C 111.29,56.4013 112.29,57.0679 113.5,57.5C 113.5,57.8333 113.5,58.1667 113.5,58.5C 112.662,58.8417 112.328,59.5084 112.5,60.5C 111.842,59.6016 111.176,58.6016 110.5,57.5C 109.158,59.0049 107.492,59.6715 105.5,59.5C 105.483,57.4352 105.15,55.4352 104.5,53.5 Z"/></g>
<g><path style="opacity:1" fill="#b4a7a8" d="M 113.5,58.5 C 115.411,58.5743 116.578,59.5743 117,61.5C 117.27,65.3728 117.77,69.2062 118.5,73C 118.257,73.9021 117.923,74.7354 117.5,75.5C 115.903,73.1522 114.903,70.4855 114.5,67.5C 113.464,65.6089 113.464,63.7755 114.5,62C 113.956,61.2828 113.289,60.7828 112.5,60.5C 112.328,59.5084 112.662,58.8417 113.5,58.5 Z"/></g>
<g><path style="opacity:1" fill="#487472" d="M 87.5,54.5 C 87.8693,56.4412 88.536,58.2745 89.5,60C 88.1772,60.8159 87.5106,61.9826 87.5,63.5C 85.2872,63.848 83.2872,64.6813 81.5,66C 82.9914,67.4138 84.3247,68.9138 85.5,70.5C 83.1299,70.9825 82.4632,72.1492 83.5,74C 82.552,74.4828 81.552,74.6495 80.5,74.5C 80.6567,73.1266 80.49,71.7932 80,70.5C 79.6174,71.056 79.1174,71.3893 78.5,71.5C 78.5774,70.2502 79.244,69.4169 80.5,69C 78.8089,67.5946 76.9755,66.4279 75,65.5C 74.6012,65.7284 74.4346,66.0618 74.5,66.5C 73.9033,66.2648 73.5699,65.7648 73.5,65C 74.3773,62.7473 75.3773,60.5806 76.5,58.5C 77.5,58.1667 78.1667,57.5 78.5,56.5C 79.1667,56.1667 79.8333,55.8333 80.5,55.5C 82.1703,55.2488 83.6703,54.5822 85,53.5C 85.6708,54.2524 86.5041,54.5858 87.5,54.5 Z"/></g>
<g><path style="opacity:0.871" fill="#abd8d9" d="M 116.5,45.5 C 123.32,48.1643 127.487,53.1643 129,60.5C 129.914,59.3463 130.747,59.513 131.5,61C 130.692,61.3076 130.025,61.8076 129.5,62.5C 132.44,70.2685 132.94,78.2685 131,86.5C 129.348,89.5081 127.848,92.5081 126.5,95.5C 127.326,91.8641 127.992,88.1974 128.5,84.5C 130.268,81.8375 130.935,78.8375 130.5,75.5C 129.711,68.9728 127.711,62.9728 124.5,57.5C 124.608,55.4862 123.942,53.8195 122.5,52.5C 121.026,49.7515 119.026,47.4182 116.5,45.5 Z"/></g>
<g><path style="opacity:1" fill="#b2998a" d="M 100.5,61.5 C 100.19,63.1436 99.1898,64.1436 97.5,64.5C 97.1959,62.2043 96.1959,61.871 94.5,63.5C 94.5,62.8333 94.5,62.1667 94.5,61.5C 95.1515,60.9094 95.8182,60.2427 96.5,59.5C 97.8688,61.0529 99.2022,61.7196 100.5,61.5 Z"/></g>
<g><path style="opacity:1" fill="#be8275" d="M 112.5,60.5 C 111.69,62.7983 110.856,65.1316 110,67.5C 109.329,66.7476 108.496,66.4142 107.5,66.5C 107.44,65.9569 107.107,65.6236 106.5,65.5C 104.65,67.4089 102.65,68.0756 100.5,67.5C 99.7777,66.4489 98.7777,65.7822 97.5,65.5C 97.5,65.1667 97.5,64.8333 97.5,64.5C 99.1898,64.1436 100.19,63.1436 100.5,61.5C 102.554,61.6347 104.221,60.968 105.5,59.5C 107.492,59.6715 109.158,59.0049 110.5,57.5C 111.176,58.6016 111.842,59.6016 112.5,60.5 Z"/></g>
<g><path style="opacity:1" fill="#c1f2e6" d="M 59.5,52.5 C 60.6715,53.3446 62.0048,54.0113 63.5,54.5C 61.7762,55.2598 60.1095,55.5931 58.5,55.5C 59.6651,56.5836 60.9984,57.4169 62.5,58C 61.565,60.3806 61.2317,62.8806 61.5,65.5C 60.9198,69.81 60.5865,74.1434 60.5,78.5C 60.1667,78.5 59.8333,78.5 59.5,78.5C 57.8144,76.5889 56.9811,74.5889 57,72.5C 54.2525,71.4999 51.4191,71.4999 48.5,72.5C 48.5,70.8333 48.5,69.1667 48.5,67.5C 48.5,63.8333 48.5,60.1667 48.5,56.5C 50.1171,57.5893 50.9504,59.256 51,61.5C 54.5852,59.2464 55.4185,56.2464 53.5,52.5C 54.552,52.6495 55.552,52.4828 56.5,52C 55.5294,50.7964 54.5294,50.2964 53.5,50.5C 54.6888,49.5713 56.0222,49.238 57.5,49.5C 57.2852,51.1788 57.9519,52.1788 59.5,52.5 Z"/></g>
<g><path style="opacity:1" fill="#7d8d91" d="M 93.5,63.5 C 91.1402,64.865 89.4735,66.865 88.5,69.5C 87.609,70.1098 86.609,70.4431 85.5,70.5C 84.3247,68.9138 82.9914,67.4138 81.5,66C 83.2872,64.6813 85.2872,63.848 87.5,63.5C 89.3186,62.4155 90.9853,61.0822 92.5,59.5C 93.4287,60.6888 93.762,62.0222 93.5,63.5 Z"/></g>
<g><path style="opacity:1" fill="#cbf0f2" d="M 113.5,58.5 C 113.5,58.1667 113.5,57.8333 113.5,57.5C 114.833,57.5 116.167,57.5 117.5,57.5C 117.383,59.4835 118.05,61.1502 119.5,62.5C 121.005,59.8694 121.671,60.2027 121.5,63.5C 122.5,63.5 123.5,63.5 124.5,63.5C 125.295,67.7853 125.628,72.1186 125.5,76.5C 125.5,76.8333 125.5,77.1667 125.5,77.5C 123.654,74.662 121.988,71.662 120.5,68.5C 120.062,71.2949 119.062,73.6283 117.5,75.5C 117.923,74.7354 118.257,73.9021 118.5,73C 117.77,69.2062 117.27,65.3728 117,61.5C 116.578,59.5743 115.411,58.5743 113.5,58.5 Z"/></g>
<g><path style="opacity:1" fill="#38645d" d="M 78.5,71.5 C 76.2572,72.8584 74.5905,72.1917 73.5,69.5C 74.1098,68.609 74.4431,67.609 74.5,66.5C 74.4346,66.0618 74.6012,65.7284 75,65.5C 76.9755,66.4279 78.8089,67.5946 80.5,69C 79.244,69.4169 78.5774,70.2502 78.5,71.5 Z"/></g>
<g><path style="opacity:1" fill="#bddcc6" d="M 69.5,52.5 C 69.8417,51.6618 70.5084,51.3284 71.5,51.5C 72.5,51.5 73.5,51.5 74.5,51.5C 74.1849,54.2108 74.8516,56.5441 76.5,58.5C 75.3773,60.5806 74.3773,62.7473 73.5,65C 73.5699,65.7648 73.9033,66.2648 74.5,66.5C 74.4431,67.609 74.1098,68.609 73.5,69.5C 71.31,70.7476 70.9766,72.4143 72.5,74.5C 71.791,75.404 70.791,75.7373 69.5,75.5C 68.2043,71.8707 68.5376,68.3707 70.5,65C 68.3645,64.1237 67.0312,62.6237 66.5,60.5C 67.601,61.7997 68.9343,62.2997 70.5,62C 72.6469,59.4957 72.6469,57.1624 70.5,55C 71.8825,53.5391 71.5492,52.7058 69.5,52.5 Z"/></g>
<g><path style="opacity:1" fill="#adb4a2" d="M 97.5,64.5 C 97.5,64.8333 97.5,65.1667 97.5,65.5C 97.5,66.8333 96.8333,67.5 95.5,67.5C 95.6309,66.6236 95.2975,65.9569 94.5,65.5C 93.3554,66.7757 93.3554,68.109 94.5,69.5C 93.2723,71.321 91.6056,72.321 89.5,72.5C 92.3382,70.6941 92.0048,69.6941 88.5,69.5C 89.4735,66.865 91.1402,64.865 93.5,63.5C 93.8333,63.5 94.1667,63.5 94.5,63.5C 96.1959,61.871 97.1959,62.2043 97.5,64.5 Z"/></g>
<g><path style="opacity:1" fill="#bfa47f" d="M 97.5,65.5 C 98.7777,65.7822 99.7777,66.4489 100.5,67.5C 101.6,68.6049 102.267,69.9382 102.5,71.5C 101.5,71.5 100.5,71.5 99.5,71.5C 98.5326,70.1938 97.1993,69.5271 95.5,69.5C 95.5,68.8333 95.5,68.1667 95.5,67.5C 96.8333,67.5 97.5,66.8333 97.5,65.5 Z"/></g>
<g><path style="opacity:1" fill="#ba988c" d="M 112.5,60.5 C 113.289,60.7828 113.956,61.2828 114.5,62C 113.464,63.7755 113.464,65.6089 114.5,67.5C 113.624,67.3691 112.957,67.7025 112.5,68.5C 113.348,70.4086 113.682,72.4086 113.5,74.5C 111.3,72.0243 108.967,69.5243 106.5,67C 106.728,66.6012 107.062,66.4346 107.5,66.5C 108.496,66.4142 109.329,66.7476 110,67.5C 110.856,65.1316 111.69,62.7983 112.5,60.5 Z"/></g>
<g><path style="opacity:1" fill="#ba997b" d="M 107.5,66.5 C 107.062,66.4346 106.728,66.6012 106.5,67C 108.967,69.5243 111.3,72.0243 113.5,74.5C 113.5,75.8333 113.5,77.1667 113.5,78.5C 110.983,79.0225 108.65,78.3558 106.5,76.5C 105.282,75.8386 103.949,75.1719 102.5,74.5C 103.376,73.7492 104.376,73.2492 105.5,73C 104.263,72.7679 103.263,72.2679 102.5,71.5C 102.267,69.9382 101.6,68.6049 100.5,67.5C 102.65,68.0756 104.65,67.4089 106.5,65.5C 107.107,65.6236 107.44,65.9569 107.5,66.5 Z"/></g>
<g><path style="opacity:1" fill="#b4ab7d" d="M 99.5,71.5 C 100.5,71.5 101.5,71.5 102.5,71.5C 103.263,72.2679 104.263,72.7679 105.5,73C 104.376,73.2492 103.376,73.7492 102.5,74.5C 103.949,75.1719 105.282,75.8386 106.5,76.5C 104.821,76.2852 103.821,76.9519 103.5,78.5C 103.737,79.791 103.404,80.791 102.5,81.5C 101.983,79.4905 101.316,78.1571 100.5,77.5C 99.8333,77.8333 99.1667,78.1667 98.5,78.5C 97.9569,78.44 97.6236,78.1067 97.5,77.5C 98.7472,75.677 99.4139,73.677 99.5,71.5 Z"/></g>
<g><path style="opacity:1" fill="#7f8a74" d="M 95.5,67.5 C 95.5,68.1667 95.5,68.8333 95.5,69.5C 95.7135,71.1439 95.3802,72.6439 94.5,74C 92.5273,74.4955 90.5273,74.6621 88.5,74.5C 88.3284,73.5084 88.6618,72.8417 89.5,72.5C 91.6056,72.321 93.2723,71.321 94.5,69.5C 93.3554,68.109 93.3554,66.7757 94.5,65.5C 95.2975,65.9569 95.6309,66.6236 95.5,67.5 Z"/></g>
<g><path style="opacity:1" fill="#cbd2d7" d="M 114.5,67.5 C 114.903,70.4855 115.903,73.1522 117.5,75.5C 117.567,76.9587 117.234,78.2921 116.5,79.5C 115.381,78.5153 114.381,76.8487 113.5,74.5C 113.682,72.4086 113.348,70.4086 112.5,68.5C 112.957,67.7025 113.624,67.3691 114.5,67.5 Z"/></g>
<g><path style="opacity:1" fill="#b3cbb5" d="M 95.5,69.5 C 97.1993,69.5271 98.5326,70.1938 99.5,71.5C 99.4139,73.677 98.7472,75.677 97.5,77.5C 97.6236,78.1067 97.9569,78.44 98.5,78.5C 97.7659,79.7079 97.4326,81.0413 97.5,82.5C 96.5655,81.4324 96.2322,80.099 96.5,78.5C 94.0316,76.9531 91.365,75.6198 88.5,74.5C 90.5273,74.6621 92.5273,74.4955 94.5,74C 95.3802,72.6439 95.7135,71.1439 95.5,69.5 Z"/></g>
<g><path style="opacity:1" fill="#c4d1c5" d="M 125.5,77.5 C 125.011,78.9952 124.345,80.3285 123.5,81.5C 123.294,79.4508 122.461,79.1175 121,80.5C 120.257,83.5112 118.924,86.1779 117,88.5C 116.771,85.2652 116.604,82.2652 116.5,79.5C 117.234,78.2921 117.567,76.9587 117.5,75.5C 119.062,73.6283 120.062,71.2949 120.5,68.5C 121.988,71.662 123.654,74.662 125.5,77.5 Z"/></g>
<g><path style="opacity:1" fill="#c7e5de" d="M 124.5,57.5 C 127.711,62.9728 129.711,68.9728 130.5,75.5C 128.958,76.3007 127.292,76.634 125.5,76.5C 125.628,72.1186 125.295,67.7853 124.5,63.5C 124.5,61.5 124.5,59.5 124.5,57.5 Z"/></g>
<g><path style="opacity:0.997" fill="#c7fbfc" d="M 48.5,67.5 C 48.5,69.1667 48.5,70.8333 48.5,72.5C 49.1159,77.9781 51.9493,79.9781 57,78.5C 57.4221,80.3553 57.9221,82.1886 58.5,84C 57.0695,86.2916 56.2361,88.7916 56,91.5C 55.5,92.6667 54.6667,93.5 53.5,94C 55.25,95.7542 55.9167,97.9208 55.5,100.5C 53.547,99.5381 51.7137,99.2047 50,99.5C 49.0197,100.981 47.853,102.315 46.5,103.5C 45.9912,106.462 44.9912,109.129 43.5,111.5C 43.3992,106.466 45.0659,102.133 48.5,98.5C 44.695,90.5088 43.695,82.1754 45.5,73.5C 46.5485,71.403 47.5485,69.403 48.5,67.5 Z"/></g>
<g><path style="opacity:1" fill="#77a2a2" d="M 73.5,69.5 C 74.5905,72.1917 76.2572,72.8584 78.5,71.5C 79.1174,71.3893 79.6174,71.056 80,70.5C 80.49,71.7932 80.6567,73.1266 80.5,74.5C 81.552,74.6495 82.552,74.4828 83.5,74C 82.4632,72.1492 83.1299,70.9825 85.5,70.5C 86.609,70.4431 87.609,70.1098 88.5,69.5C 92.0048,69.6941 92.3382,70.6941 89.5,72.5C 88.6618,72.8417 88.3284,73.5084 88.5,74.5C 85.1069,76.073 83.7736,78.7396 84.5,82.5C 82.7376,82.3573 81.0709,82.6906 79.5,83.5C 78.5713,82.3112 78.238,80.9778 78.5,79.5C 76.5398,77.8437 74.5398,76.177 72.5,74.5C 70.9766,72.4143 71.31,70.7476 73.5,69.5 Z"/></g>
<g><path style="opacity:1" fill="#cbfaf7" d="M 100.5,77.5 C 100.5,80.5 100.5,83.5 100.5,86.5C 99.5,86.5 98.5,86.5 97.5,86.5C 97.5,85.1667 97.5,83.8333 97.5,82.5C 97.4326,81.0413 97.7659,79.7079 98.5,78.5C 99.1667,78.1667 99.8333,77.8333 100.5,77.5 Z"/></g>
<g><path style="opacity:1" fill="#c2ead0" d="M 66.5,60.5 C 67.0312,62.6237 68.3645,64.1237 70.5,65C 68.5376,68.3707 68.2043,71.8707 69.5,75.5C 70.791,75.7373 71.791,75.404 72.5,74.5C 74.5398,76.177 76.5398,77.8437 78.5,79.5C 77.596,80.209 77.2627,81.209 77.5,82.5C 75.0901,82.0791 73.2568,80.7458 72,78.5C 71.5357,79.0944 71.369,79.7611 71.5,80.5C 68.0897,80.3838 66.7564,82.0504 67.5,85.5C 65.323,85.4139 63.323,84.7472 61.5,83.5C 61.4214,81.8717 61.0881,80.2051 60.5,78.5C 60.5865,74.1434 60.9198,69.81 61.5,65.5C 62.1635,67.0419 62.8302,68.7086 63.5,70.5C 63.8333,70.3333 64.1667,70.1667 64.5,70C 63.4238,68.2739 63.2571,66.4406 64,64.5C 64.1216,62.563 64.955,61.2297 66.5,60.5 Z"/></g>
<g><path style="opacity:1" fill="#bbe9da" d="M 88.5,74.5 C 91.365,75.6198 94.0316,76.9531 96.5,78.5C 94.6329,79.7598 93.2995,81.4265 92.5,83.5C 92.1344,84.6946 91.301,85.3613 90,85.5C 88.8382,84.8132 87.6716,84.6466 86.5,85C 87.8333,85.6667 87.8333,86.3333 86.5,87C 84.7971,87.7453 83.1305,88.5786 81.5,89.5C 80.3279,89.0814 79.3279,88.4147 78.5,87.5C 77.6143,88.325 77.281,89.325 77.5,90.5C 75.6412,90.5391 74.3079,89.7058 73.5,88C 75.2112,86.8668 75.7112,85.3668 75,83.5C 74.7216,84.4158 74.2216,85.0825 73.5,85.5C 73.6567,84.1266 73.49,82.7932 73,81.5C 72.6174,82.056 72.1174,82.3893 71.5,82.5C 71.5,81.8333 71.5,81.1667 71.5,80.5C 71.369,79.7611 71.5357,79.0944 72,78.5C 73.2568,80.7458 75.0901,82.0791 77.5,82.5C 77.2627,81.209 77.596,80.209 78.5,79.5C 78.238,80.9778 78.5713,82.3112 79.5,83.5C 81.0709,82.6906 82.7376,82.3573 84.5,82.5C 83.7736,78.7396 85.1069,76.073 88.5,74.5 Z"/></g>
<g><path style="opacity:1" fill="#aba390" d="M 113.5,74.5 C 114.381,76.8487 115.381,78.5153 116.5,79.5C 116.604,82.2652 116.771,85.2652 117,88.5C 118.924,86.1779 120.257,83.5112 121,80.5C 122.461,79.1175 123.294,79.4508 123.5,81.5C 121.933,82.6808 121.099,84.3474 121,86.5C 116.847,89.259 113.014,92.259 109.5,95.5C 109.082,94.7784 108.416,94.2784 107.5,94C 113.173,90.1889 115.173,85.0222 113.5,78.5C 113.5,77.1667 113.5,75.8333 113.5,74.5 Z"/></g>
<g><path style="opacity:1" fill="#9bb68f" d="M 102.5,81.5 C 102.204,83.403 101.537,85.0697 100.5,86.5C 100.5,83.5 100.5,80.5 100.5,77.5C 101.316,78.1571 101.983,79.4905 102.5,81.5 Z"/></g>
<g><path style="opacity:1" fill="#c0f2ec" d="M 59.5,78.5 C 59.3379,80.5273 59.5045,82.5273 60,84.5C 61.7198,85.3841 62.8865,86.7175 63.5,88.5C 61.0184,90.0507 61.3517,91.384 64.5,92.5C 64.5,93.1667 64.1667,93.5 63.5,93.5C 61.9147,94.4737 60.9147,95.9737 60.5,98C 59.2068,98.49 57.8734,98.6567 56.5,98.5C 56.7678,100.099 56.4345,101.432 55.5,102.5C 55.5,101.833 55.5,101.167 55.5,100.5C 55.9167,97.9208 55.25,95.7542 53.5,94C 54.6667,93.5 55.5,92.6667 56,91.5C 56.2361,88.7916 57.0695,86.2916 58.5,84C 57.9221,82.1886 57.4221,80.3553 57,78.5C 51.9493,79.9781 49.1159,77.9781 48.5,72.5C 51.4191,71.4999 54.2525,71.4999 57,72.5C 56.9811,74.5889 57.8144,76.5889 59.5,78.5 Z"/></g>
<g><path style="opacity:1" fill="#c1bfa3" d="M 106.5,76.5 C 108.65,78.3558 110.983,79.0225 113.5,78.5C 115.173,85.0222 113.173,90.1889 107.5,94C 108.416,94.2784 109.082,94.7784 109.5,95.5C 106.625,96.1687 104.625,97.502 103.5,99.5C 103.331,98.6034 102.998,97.6034 102.5,96.5C 100.998,97.0831 99.6651,97.9164 98.5,99C 99.4491,99.6172 100.282,99.4506 101,98.5C 101.49,99.7932 101.657,101.127 101.5,102.5C 100.599,104.727 98.9328,105.727 96.5,105.5C 96.9175,104.778 97.5842,104.278 98.5,104C 97.8333,103.667 97.1667,103.333 96.5,103C 97.6721,102.581 98.6721,101.915 99.5,101C 97.8807,100.764 96.8807,99.9311 96.5,98.5C 98.9315,96.4407 101.598,94.6074 104.5,93C 103.263,92.7679 102.263,92.2679 101.5,91.5C 109.971,88.5892 110.637,84.2559 103.5,78.5C 103.821,76.9519 104.821,76.2852 106.5,76.5 Z"/></g>
<g><path style="opacity:1" fill="#b2d6a9" d="M 59.5,78.5 C 59.8333,78.5 60.1667,78.5 60.5,78.5C 61.0881,80.2051 61.4214,81.8717 61.5,83.5C 63.323,84.7472 65.323,85.4139 67.5,85.5C 66.7564,82.0504 68.0897,80.3838 71.5,80.5C 71.5,81.1667 71.5,81.8333 71.5,82.5C 69.7129,85.614 67.0463,87.614 63.5,88.5C 62.8865,86.7175 61.7198,85.3841 60,84.5C 59.5045,82.5273 59.3379,80.5273 59.5,78.5 Z"/></g>
<g><path style="opacity:1" fill="#c3f0e3" d="M 95.5,88.5 C 94.1932,89.1534 92.8599,89.8201 91.5,90.5C 90.4937,90.0623 90.4937,89.3957 91.5,88.5C 89.6518,85.81 87.9851,85.9767 86.5,89C 87.624,89.2492 88.624,89.7492 89.5,90.5C 89.3333,90.8333 89.1667,91.1667 89,91.5C 85.5471,90.1839 82.2138,90.5172 79,92.5C 78.5683,93.6001 79.0683,94.2668 80.5,94.5C 82.3365,93.0667 84.3365,92.5667 86.5,93C 85.5,93.8333 84.5,94.6667 83.5,95.5C 85.4886,96.6153 87.322,96.282 89,94.5C 89.9021,94.7432 90.7354,95.0766 91.5,95.5C 88.6789,97.8204 85.3456,98.9871 81.5,99C 79.6498,99.6897 78.3164,100.856 77.5,102.5C 77.1436,100.81 76.1436,99.8102 74.5,99.5C 76.3357,96.8174 77.3357,93.8174 77.5,90.5C 77.281,89.325 77.6143,88.325 78.5,87.5C 79.3279,88.4147 80.3279,89.0814 81.5,89.5C 83.1305,88.5786 84.7971,87.7453 86.5,87C 87.8333,86.3333 87.8333,85.6667 86.5,85C 87.6716,84.6466 88.8382,84.8132 90,85.5C 91.301,85.3613 92.1344,84.6946 92.5,83.5C 93.8235,82.1501 94.8235,82.3167 95.5,84C 96.6078,85.6773 96.6078,87.1773 95.5,88.5 Z"/></g>
<g><path style="opacity:1" fill="#c1e5cb" d="M 96.5,78.5 C 96.2322,80.099 96.5655,81.4324 97.5,82.5C 97.5,83.8333 97.5,85.1667 97.5,86.5C 98.5,86.5 99.5,86.5 100.5,86.5C 101.537,85.0697 102.204,83.403 102.5,81.5C 103.404,80.791 103.737,79.791 103.5,78.5C 110.637,84.2559 109.971,88.5892 101.5,91.5C 101.167,91.5 100.833,91.5 100.5,91.5C 100.25,90.0779 99.417,89.0779 98,88.5C 97.0228,89.7736 96.1894,89.7736 95.5,88.5C 96.6078,87.1773 96.6078,85.6773 95.5,84C 94.8235,82.3167 93.8235,82.1501 92.5,83.5C 93.2995,81.4265 94.6329,79.7598 96.5,78.5 Z"/></g>
<g><path style="opacity:1" fill="#beecdc" d="M 95.5,88.5 C 96.1894,89.7736 97.0228,89.7736 98,88.5C 99.417,89.0779 100.25,90.0779 100.5,91.5C 97.878,93.6435 94.878,94.9769 91.5,95.5C 90.7354,95.0766 89.9021,94.7432 89,94.5C 87.322,96.282 85.4886,96.6153 83.5,95.5C 84.5,94.6667 85.5,93.8333 86.5,93C 84.3365,92.5667 82.3365,93.0667 80.5,94.5C 79.0683,94.2668 78.5683,93.6001 79,92.5C 82.2138,90.5172 85.5471,90.1839 89,91.5C 89.1667,91.1667 89.3333,90.8333 89.5,90.5C 88.624,89.7492 87.624,89.2492 86.5,89C 87.9851,85.9767 89.6518,85.81 91.5,88.5C 90.4937,89.3957 90.4937,90.0623 91.5,90.5C 92.8599,89.8201 94.1932,89.1534 95.5,88.5 Z"/></g>
<g><path style="opacity:1" fill="#afb5b3" d="M 128.5,84.5 C 127.992,88.1974 127.326,91.8641 126.5,95.5C 125.529,97.4832 124.529,99.4832 123.5,101.5C 122.833,101.833 122.167,102.167 121.5,102.5C 122.324,99.0597 123.158,95.7264 124,92.5C 123.329,93.2524 122.496,93.5858 121.5,93.5C 123.58,91.6822 124.914,89.3489 125.5,86.5C 126.357,85.5748 127.357,84.9081 128.5,84.5 Z"/></g>
<g><path style="opacity:1" fill="#c3c3c0" d="M 130.5,75.5 C 130.935,78.8375 130.268,81.8375 128.5,84.5C 127.357,84.9081 126.357,85.5748 125.5,86.5C 124.914,89.3489 123.58,91.6822 121.5,93.5C 121.426,95.4109 120.426,96.5776 118.5,97C 119.706,98.0177 119.373,98.5177 117.5,98.5C 116.353,98.1822 115.519,97.5156 115,96.5C 113.961,97.7101 112.794,98.7101 111.5,99.5C 110.833,98.8333 110.167,98.1667 109.5,97.5C 109.5,96.8333 109.5,96.1667 109.5,95.5C 113.014,92.259 116.847,89.259 121,86.5C 121.099,84.3474 121.933,82.6808 123.5,81.5C 124.345,80.3285 125.011,78.9952 125.5,77.5C 125.5,77.1667 125.5,76.8333 125.5,76.5C 127.292,76.634 128.958,76.3007 130.5,75.5 Z"/></g>
<g><path style="opacity:1" fill="#b5ccc3" d="M 64.5,92.5 C 67.4453,93.8392 68.1119,96.0059 66.5,99C 67.6009,102.136 68.6009,105.303 69.5,108.5C 69.4573,109.416 69.1239,110.083 68.5,110.5C 67.006,104.694 65.3394,99.0276 63.5,93.5C 64.1667,93.5 64.5,93.1667 64.5,92.5 Z"/></g>
<g><path style="opacity:1" fill="#bbceba" d="M 77.5,90.5 C 77.3357,93.8174 76.3357,96.8174 74.5,99.5C 75.6857,100.961 75.6857,102.295 74.5,103.5C 70.804,99.802 69.1374,95.4687 69.5,90.5C 71.2065,89.1274 72.5398,87.4607 73.5,85.5C 74.2216,85.0825 74.7216,84.4158 75,83.5C 75.7112,85.3668 75.2112,86.8668 73.5,88C 74.3079,89.7058 75.6412,90.5391 77.5,90.5 Z"/></g>
<g><path style="opacity:1" fill="#aea181" d="M 109.5,95.5 C 109.5,96.1667 109.5,96.8333 109.5,97.5C 106.816,99.1933 104.149,100.86 101.5,102.5C 101.657,101.127 101.49,99.7932 101,98.5C 100.282,99.4506 99.4491,99.6172 98.5,99C 99.6651,97.9164 100.998,97.0831 102.5,96.5C 102.998,97.6034 103.331,98.6034 103.5,99.5C 104.625,97.502 106.625,96.1687 109.5,95.5 Z"/></g>
<g><path style="opacity:1" fill="#bea7a0" d="M 121.5,102.5 C 119.162,103.51 117.496,105.177 116.5,107.5C 116.44,106.957 116.107,106.624 115.5,106.5C 113.925,107.456 112.258,108.123 110.5,108.5C 110.167,108.5 109.833,108.5 109.5,108.5C 107.833,108.5 106.167,108.5 104.5,108.5C 107.075,105.681 109.408,102.681 111.5,99.5C 112.794,98.7101 113.961,97.7101 115,96.5C 115.519,97.5156 116.353,98.1822 117.5,98.5C 119.373,98.5177 119.706,98.0177 118.5,97C 120.426,96.5776 121.426,95.4109 121.5,93.5C 122.496,93.5858 123.329,93.2524 124,92.5C 123.158,95.7264 122.324,99.0597 121.5,102.5 Z"/></g>
<g><path style="opacity:0.98" fill="#c5fafd" d="M 55.5,100.5 C 55.5,101.167 55.5,101.833 55.5,102.5C 55.335,105.85 55.5017,109.183 56,112.5C 56.3826,113.056 56.8826,113.389 57.5,113.5C 58.3382,113.842 58.6716,114.508 58.5,115.5C 56.7846,115.402 54.9513,115.402 53,115.5C 51.6713,114.506 50.338,113.506 49,112.5C 48.5,112.833 48,113.167 47.5,113.5C 48.0998,118.71 49.4331,123.71 51.5,128.5C 49.4609,124.623 46.9609,120.957 44,117.5C 43.5,116 43,114.5 42.5,113C 42.5699,112.235 42.9033,111.735 43.5,111.5C 44.9912,109.129 45.9912,106.462 46.5,103.5C 47.853,102.315 49.0197,100.981 50,99.5C 51.7137,99.2047 53.547,99.5381 55.5,100.5 Z"/></g>
<g><path style="opacity:1" fill="#c8ecec" d="M 73.5,85.5 C 72.5398,87.4607 71.2065,89.1274 69.5,90.5C 69.1374,95.4687 70.804,99.802 74.5,103.5C 74.5,103.833 74.5,104.167 74.5,104.5C 73.5655,105.568 73.2322,106.901 73.5,108.5C 72.5,108.5 71.5,108.5 70.5,108.5C 70.7148,110.179 70.0481,111.179 68.5,111.5C 68.5,111.167 68.5,110.833 68.5,110.5C 69.1239,110.083 69.4573,109.416 69.5,108.5C 68.6009,105.303 67.6009,102.136 66.5,99C 68.1119,96.0059 67.4453,93.8392 64.5,92.5C 61.3517,91.384 61.0184,90.0507 63.5,88.5C 67.0463,87.614 69.7129,85.614 71.5,82.5C 72.1174,82.3893 72.6174,82.056 73,81.5C 73.49,82.7932 73.6567,84.1266 73.5,85.5 Z"/></g>
<g><path style="opacity:1" fill="#c6d7b5" d="M 100.5,91.5 C 100.833,91.5 101.167,91.5 101.5,91.5C 102.263,92.2679 103.263,92.7679 104.5,93C 101.598,94.6074 98.9315,96.4407 96.5,98.5C 93.634,99.7593 90.634,100.759 87.5,101.5C 87.6495,102.552 87.4828,103.552 87,104.5C 84.2596,102.64 81.7596,102.64 79.5,104.5C 78.4777,104.145 77.811,103.478 77.5,102.5C 78.3164,100.856 79.6498,99.6897 81.5,99C 85.3456,98.9871 88.6789,97.8204 91.5,95.5C 94.878,94.9769 97.878,93.6435 100.5,91.5 Z"/></g>
<g><path style="opacity:1" fill="#c2f1eb" d="M 63.5,93.5 C 65.3394,99.0276 67.006,104.694 68.5,110.5C 68.5,110.833 68.5,111.167 68.5,111.5C 67.2921,110.766 65.9587,110.433 64.5,110.5C 63.1751,109.047 62.3418,109.381 62,111.5C 61.1932,107.551 60.6932,107.551 60.5,111.5C 58.8212,111.285 57.8212,111.952 57.5,113.5C 56.8826,113.389 56.3826,113.056 56,112.5C 55.5017,109.183 55.335,105.85 55.5,102.5C 56.4345,101.432 56.7678,100.099 56.5,98.5C 57.8734,98.6567 59.2068,98.49 60.5,98C 60.9147,95.9737 61.9147,94.4737 63.5,93.5 Z"/></g>
<g><path style="opacity:1" fill="#cde0e0" d="M 109.5,97.5 C 110.167,98.1667 110.833,98.8333 111.5,99.5C 109.408,102.681 107.075,105.681 104.5,108.5C 102.5,110.167 100.5,111.833 98.5,113.5C 97.9856,111.302 96.9856,109.302 95.5,107.5C 95.8627,106.817 96.1961,106.15 96.5,105.5C 98.9328,105.727 100.599,104.727 101.5,102.5C 104.149,100.86 106.816,99.1933 109.5,97.5 Z"/></g>
<g><path style="opacity:0.029" fill="#ccebec" d="M 123.5,101.5 C 120.501,105.002 117.835,108.669 115.5,112.5C 115.629,110.784 115.962,109.117 116.5,107.5C 117.496,105.177 119.162,103.51 121.5,102.5C 122.167,102.167 122.833,101.833 123.5,101.5 Z"/></g>
<g><path style="opacity:1" fill="#c0cea6" d="M 96.5,98.5 C 96.8807,99.9311 97.8807,100.764 99.5,101C 98.6721,101.915 97.6721,102.581 96.5,103C 97.1667,103.333 97.8333,103.667 98.5,104C 97.5842,104.278 96.9175,104.778 96.5,105.5C 96.1961,106.15 95.8627,106.817 95.5,107.5C 96.9856,109.302 97.9856,111.302 98.5,113.5C 97.8333,113.833 97.1667,114.167 96.5,114.5C 95.5358,112.595 93.8691,111.595 91.5,111.5C 87.8687,112.515 84.5354,113.681 81.5,115C 77.3668,112.7 75.0334,109.2 74.5,104.5C 74.5,104.167 74.5,103.833 74.5,103.5C 75.6857,102.295 75.6857,100.961 74.5,99.5C 76.1436,99.8102 77.1436,100.81 77.5,102.5C 77.811,103.478 78.4777,104.145 79.5,104.5C 81.7596,102.64 84.2596,102.64 87,104.5C 87.4828,103.552 87.6495,102.552 87.5,101.5C 90.634,100.759 93.634,99.7593 96.5,98.5 Z"/></g>
<g><path style="opacity:1" fill="#ced5d3" d="M 116.5,107.5 C 114.209,108.951 112.043,110.618 110,112.5C 109.805,111.181 109.972,109.847 110.5,108.5C 112.258,108.123 113.925,107.456 115.5,106.5C 116.107,106.624 116.44,106.957 116.5,107.5 Z"/></g>
<g><path style="opacity:1" fill="#a4bcb0" d="M 64.5,110.5 C 64.5,110.833 64.5,111.167 64.5,111.5C 64.3433,112.873 64.51,114.207 65,115.5C 66.7198,116.384 67.8865,117.717 68.5,119.5C 67.1266,119.657 65.7932,119.49 64.5,119C 63.8102,116.304 62.3102,114.137 60,112.5C 59.3828,113.449 59.5494,114.282 60.5,115C 59.9056,115.464 59.2389,115.631 58.5,115.5C 58.6716,114.508 58.3382,113.842 57.5,113.5C 57.8212,111.952 58.8212,111.285 60.5,111.5C 60.6932,107.551 61.1932,107.551 62,111.5C 62.3418,109.381 63.1751,109.047 64.5,110.5 Z"/></g>
<g><path style="opacity:0.01" fill="#c3f2f2" d="M 115.5,112.5 C 115.611,113.117 115.944,113.617 116.5,114C 114.134,114.44 111.801,114.94 109.5,115.5C 111.113,113.912 113.113,112.912 115.5,112.5 Z"/></g>
<g><path style="opacity:1" fill="#cbeeed" d="M 74.5,104.5 C 75.0334,109.2 77.3668,112.7 81.5,115C 84.5354,113.681 87.8687,112.515 91.5,111.5C 93.8691,111.595 95.5358,112.595 96.5,114.5C 93.4111,115.739 90.4111,117.239 87.5,119C 84.8832,119.822 82.2165,120.322 79.5,120.5C 74.1628,118.32 69.1628,115.32 64.5,111.5C 64.5,111.167 64.5,110.833 64.5,110.5C 65.9587,110.433 67.2921,110.766 68.5,111.5C 70.0481,111.179 70.7148,110.179 70.5,108.5C 71.5,108.5 72.5,108.5 73.5,108.5C 73.2322,106.901 73.5655,105.568 74.5,104.5 Z"/></g>
<g><path style="opacity:1" fill="#c5c7bd" d="M 109.5,108.5 C 108.91,109.766 108.41,111.099 108,112.5C 107.667,111.833 107.333,111.167 107,110.5C 106.764,112.811 105.931,114.811 104.5,116.5C 102.938,116.733 101.605,117.4 100.5,118.5C 99.7321,119.263 99.2321,120.263 99,121.5C 97.3182,121.193 95.6515,120.86 94,120.5C 90.5532,121.489 87.0532,122.156 83.5,122.5C 82.4324,121.566 81.099,121.232 79.5,121.5C 79.5,121.167 79.5,120.833 79.5,120.5C 82.2165,120.322 84.8832,119.822 87.5,119C 90.4111,117.239 93.4111,115.739 96.5,114.5C 97.1667,114.167 97.8333,113.833 98.5,113.5C 100.5,111.833 102.5,110.167 104.5,108.5C 106.167,108.5 107.833,108.5 109.5,108.5 Z"/></g>
<g><path style="opacity:1" fill="#a8aba6" d="M 116.5,107.5 C 115.962,109.117 115.629,110.784 115.5,112.5C 113.113,112.912 111.113,113.912 109.5,115.5C 108.609,116.11 107.609,116.443 106.5,116.5C 105.833,116.5 105.167,116.5 104.5,116.5C 105.931,114.811 106.764,112.811 107,110.5C 107.333,111.167 107.667,111.833 108,112.5C 108.41,111.099 108.91,109.766 109.5,108.5C 109.833,108.5 110.167,108.5 110.5,108.5C 109.972,109.847 109.805,111.181 110,112.5C 112.043,110.618 114.209,108.951 116.5,107.5 Z"/></g>
<g><path style="opacity:1" fill="#c2d2c8" d="M 64.5,111.5 C 69.1628,115.32 74.1628,118.32 79.5,120.5C 79.5,120.833 79.5,121.167 79.5,121.5C 75.6452,122.246 71.9785,121.579 68.5,119.5C 67.8865,117.717 66.7198,116.384 65,115.5C 64.51,114.207 64.3433,112.873 64.5,111.5 Z"/></g>
<g><path style="opacity:0.863" fill="#a2c5c7" d="M 104.5,116.5 C 105.167,116.5 105.833,116.5 106.5,116.5C 104.111,118.222 102.111,120.222 100.5,122.5C 100.5,121.167 100.5,119.833 100.5,118.5C 101.605,117.4 102.938,116.733 104.5,116.5 Z"/></g>
<g><path style="opacity:1" fill="#ade4f0" d="M 58.5,115.5 C 59.2389,115.631 59.9056,115.464 60.5,115C 59.5494,114.282 59.3828,113.449 60,112.5C 62.3102,114.137 63.8102,116.304 64.5,119C 65.7932,119.49 67.1266,119.657 68.5,119.5C 68.5,120.167 68.5,120.833 68.5,121.5C 67.5,121.5 66.5,121.5 65.5,121.5C 63.8762,121.64 62.7096,120.973 62,119.5C 59.2016,121.799 56.5349,121.799 54,119.5C 53.2276,120.849 52.0609,121.682 50.5,122C 51.3081,124.088 52.3081,126.088 53.5,128C 52.9056,128.464 52.2389,128.631 51.5,128.5C 49.4331,123.71 48.0998,118.71 47.5,113.5C 48,113.167 48.5,112.833 49,112.5C 50.338,113.506 51.6713,114.506 53,115.5C 54.9513,115.402 56.7846,115.402 58.5,115.5 Z"/></g>
<g><path style="opacity:1" fill="#b1eaf9" d="M 65.5,121.5 C 65.9371,123.074 66.9371,124.241 68.5,125C 67.6919,125.308 67.0253,125.808 66.5,126.5C 71.793,128.756 71.4597,130.256 65.5,131C 66.8333,132 66.8333,133 65.5,134C 67.3817,134.198 69.0484,134.698 70.5,135.5C 64.8317,136.536 59.4984,135.369 54.5,132C 53.2899,130.961 52.2899,129.794 51.5,128.5C 52.2389,128.631 52.9056,128.464 53.5,128C 52.3081,126.088 51.3081,124.088 50.5,122C 52.0609,121.682 53.2276,120.849 54,119.5C 56.5349,121.799 59.2016,121.799 62,119.5C 62.7096,120.973 63.8762,121.64 65.5,121.5 Z"/></g>
<g><path style="opacity:1" fill="#a7aca8" d="M 68.5,119.5 C 71.9785,121.579 75.6452,122.246 79.5,121.5C 81.099,121.232 82.4324,121.566 83.5,122.5C 84.2625,123.268 85.2625,123.768 86.5,124C 81.9279,124.326 77.5945,124.492 73.5,124.5C 71.326,124.25 69.6594,123.25 68.5,121.5C 68.5,120.833 68.5,120.167 68.5,119.5 Z"/></g>
<g><path style="opacity:0.004" fill="#d1f5f8" d="M 100.5,122.5 C 100.027,123.906 99.0269,124.573 97.5,124.5C 97.9731,123.094 98.9731,122.427 100.5,122.5 Z"/></g>
<g><path style="opacity:1" fill="#97928f" d="M 100.5,118.5 C 100.5,119.833 100.5,121.167 100.5,122.5C 98.9731,122.427 97.9731,123.094 97.5,124.5C 96.2921,125.234 94.9587,125.567 93.5,125.5C 89.4518,125.72 85.6185,126.72 82,128.5C 79.4553,126.376 76.622,125.042 73.5,124.5C 77.5945,124.492 81.9279,124.326 86.5,124C 85.2625,123.768 84.2625,123.268 83.5,122.5C 87.0532,122.156 90.5532,121.489 94,120.5C 95.6515,120.86 97.3182,121.193 99,121.5C 99.2321,120.263 99.7321,119.263 100.5,118.5 Z"/></g>
<g><path style="opacity:1" fill="#b5eaf7" d="M 65.5,121.5 C 66.5,121.5 67.5,121.5 68.5,121.5C 69.6594,123.25 71.326,124.25 73.5,124.5C 76.622,125.042 79.4553,126.376 82,128.5C 85.6185,126.72 89.4518,125.72 93.5,125.5C 91.9962,127.836 89.9962,129.669 87.5,131C 81.7195,131.823 76.0528,133.323 70.5,135.5C 69.0484,134.698 67.3817,134.198 65.5,134C 66.8333,133 66.8333,132 65.5,131C 71.4597,130.256 71.793,128.756 66.5,126.5C 67.0253,125.808 67.6919,125.308 68.5,125C 66.9371,124.241 65.9371,123.074 65.5,121.5 Z"/></g>
<g><path style="opacity:0.734" fill="#cfb9c4" d="M 48.5,131.5 C 52.1916,133.344 55.5249,135.677 58.5,138.5C 56.7408,139.754 55.2408,139.421 54,137.5C 51.6667,140.5 49.3333,143.5 47,146.5C 46.5,146 46,145.5 45.5,145C 47.5,142 49.5,139 51.5,136C 48.7814,135.195 47.7814,133.695 48.5,131.5 Z"/></g>
<g><path style="opacity:0.647" fill="#cfb8c3" d="M 118.5,143.5 C 118.045,140.797 117.378,138.13 116.5,135.5C 116.833,134.833 117.167,134.167 117.5,133.5C 119.555,137.328 121.221,141.328 122.5,145.5C 121.675,146.386 120.675,146.719 119.5,146.5C 119.737,145.209 119.404,144.209 118.5,143.5 Z"/></g>
<g><path style="opacity:0.684" fill="#cfb9c4" d="M 118.5,143.5 C 118.703,145.39 118.037,146.89 116.5,148C 114.649,148.837 112.816,149.671 111,150.5C 108.454,146.388 107.287,142.055 107.5,137.5C 108.249,139.012 109.416,140.012 111,140.5C 114.551,138.886 117.051,139.886 118.5,143.5 Z M 110.5,142.5 C 112.167,142.5 113.833,142.5 115.5,142.5C 115.5,143.833 115.5,145.167 115.5,146.5C 111.918,148.161 110.252,146.827 110.5,142.5 Z"/></g>
<g><path style="opacity:0.711" fill="#cfb9c5" d="M 62.5,139.5 C 69.0001,138.499 71.5001,141.165 70,147.5C 68.205,154.205 64.5383,155.205 59,150.5C 58.2571,148.559 58.4238,146.726 59.5,145C 62.2305,144.272 64.8971,144.438 67.5,145.5C 68.6069,143.231 67.7735,141.898 65,141.5C 62.0499,143.044 61.2166,142.378 62.5,139.5 Z M 61.5,146.5 C 63.6547,146.372 65.6547,146.872 67.5,148C 65.362,151.104 63.0287,151.27 60.5,148.5C 60.8627,147.817 61.1961,147.15 61.5,146.5 Z"/></g>
<g><path style="opacity:0.731" fill="#cfb9c4" d="M 101.5,139.5 C 102.478,139.811 103.145,140.478 103.5,141.5C 101.955,142.452 100.288,142.785 98.5,142.5C 99.4603,146.195 99.4603,149.861 98.5,153.5C 96.9385,150.037 96.1051,146.37 96,142.5C 94.5064,143.747 93.0064,143.747 91.5,142.5C 91.7093,141.914 92.0426,141.414 92.5,141C 95.6946,140.819 98.6946,140.319 101.5,139.5 Z"/></g>
<g><path style="opacity:0.7" fill="#cfb9c4" d="M 77.5,141.5 C 79.0358,143.025 80.0358,145.025 80.5,147.5C 81.941,146.135 83.2744,144.635 84.5,143C 85.635,142.251 86.635,142.417 87.5,143.5C 86.1667,145.167 84.8333,146.833 83.5,148.5C 84.5,150.5 85.5,152.5 86.5,154.5C 86,154.833 85.5,155.167 85,155.5C 83.3514,154.214 82.1847,152.547 81.5,150.5C 80.675,149.614 79.675,149.281 78.5,149.5C 78.7852,151.288 78.4519,152.955 77.5,154.5C 77.1667,153.167 76.8333,151.833 76.5,150.5C 76.9657,147.508 77.2991,144.508 77.5,141.5 Z"/></g>
</svg>
