<?xml version="1.0" encoding="UTF-8"?>
<!DOCTYPE svg PUBLIC "-//W3C//DTD SVG 1.1//EN" "http://www.w3.org/Graphics/SVG/1.1/DTD/svg11.dtd">
<svg xmlns="http://www.w3.org/2000/svg" version="1.1" width="175px" height="174px" style="shape-rendering:geometricPrecision; text-rendering:geometricPrecision; image-rendering:optimizeQuality; fill-rule:evenodd; clip-rule:evenodd" xmlns:xlink="http://www.w3.org/1999/xlink">
<g><path style="opacity:1" fill="#fefefe" d="M -0.5,-0.5 C 57.8333,-0.5 116.167,-0.5 174.5,-0.5C 174.5,57.5 174.5,115.5 174.5,173.5C 116.167,173.5 57.8333,173.5 -0.5,173.5C -0.5,115.5 -0.5,57.5 -0.5,-0.5 Z"/></g>
<g><path style="opacity:1" fill="#4ed6d9" d="M 55.5,27.5 C 56.4511,28.9187 56.7845,30.5853 56.5,32.5C 59.1667,32.5 61.8333,32.5 64.5,32.5C 65.7984,34.0957 65.7984,34.4291 64.5,33.5C 61.8333,33.5 59.1667,33.5 56.5,33.5C 56.6621,35.5273 56.4955,37.5273 56,39.5C 55.5012,35.5138 55.3345,31.5138 55.5,27.5 Z"/></g>
<g><path style="opacity:1" fill="#78dee1" d="M 99.5,28.5 C 101.493,26.0421 103.826,25.8755 106.5,28C 109.167,31.6667 109.167,35.3333 106.5,39C 103.901,39.769 101.401,39.6023 99,38.5C 98.8078,40.5767 98.3078,42.5767 97.5,44.5C 96.1667,38.8333 96.1667,33.1667 97.5,27.5C 98.1835,27.8627 98.8501,28.1961 99.5,28.5 Z"/></g>
<g><path style="opacity:1" fill="#fbfefe" d="M 99.5,28.5 C 105.168,27.6712 107.668,30.0045 107,35.5C 104.633,38.9318 101.966,39.2652 99,36.5C 98.2782,33.7395 98.4448,31.0728 99.5,28.5 Z"/></g>
<g><path style="opacity:1" fill="#7ee0e2" d="M 114.5,26.5 C 120.656,26.4871 123.49,29.4871 123,35.5C 120.947,39.2916 117.781,40.4582 113.5,39C 109.309,34.4598 109.642,30.2931 114.5,26.5 Z"/></g>
<g><path style="opacity:1" fill="#fbfefe" d="M 114.5,28.5 C 121.628,28.7063 123.294,31.873 119.5,38C 113.498,38.9931 111.332,36.4931 113,30.5C 113.717,29.9558 114.217,29.2891 114.5,28.5 Z"/></g>
<g><path style="opacity:1" fill="#78dee1" d="M 71.5,26.5 C 73.8273,26.2471 75.8273,26.9137 77.5,28.5C 78.1313,32.0344 78.798,35.5344 79.5,39C 76.1226,39.5489 72.6226,39.3822 69,38.5C 68.2571,36.5594 68.4238,34.7261 69.5,33C 72.2263,32.8184 74.8929,32.3184 77.5,31.5C 75.675,28.505 73.175,27.8383 70,29.5C 69.7613,28.212 70.2613,27.212 71.5,26.5 Z"/></g>
<g><path style="opacity:1" fill="#fcfefe" d="M 70.5,33.5 C 72.5,33.5 74.5,33.5 76.5,33.5C 76.6148,38.3276 74.4481,39.6609 70,37.5C 69.4209,36.0715 69.5876,34.7382 70.5,33.5 Z"/></g>
<g><path style="opacity:1" fill="#70dddf" d="M 84.5,29.5 C 87.5102,26.7244 90.3435,27.0577 93,30.5C 94.8333,38 92,40.8333 84.5,39C 79.0436,28.9139 82.0436,23.2472 93.5,22C 91.5101,23.7506 89.1768,24.7506 86.5,25C 85.3128,26.0195 84.3128,27.1861 83.5,28.5C 83.6236,29.1067 83.9569,29.44 84.5,29.5 Z"/></g>
<g><path style="opacity:1" fill="#fdfefe" d="M 84.5,29.5 C 91.9974,28.8038 93.9974,31.6372 90.5,38C 83.783,38.7631 81.783,35.9298 84.5,29.5 Z"/></g>
<g><path style="opacity:1" fill="#e5d28b" d="M 126.5,55.5 C 126.279,56.7348 125.612,57.7348 124.5,58.5C 125.5,59.3333 126.5,60.1667 127.5,61C 123.446,60.3748 119.446,59.2081 115.5,57.5C 114.713,58.2421 114.047,59.0754 113.5,60C 115.699,61.6971 118.032,63.1971 120.5,64.5C 121.583,65.365 121.749,66.365 121,67.5C 118.029,65.9363 115.196,64.2696 112.5,62.5C 110.228,59.4485 107.228,58.7818 103.5,60.5C 101.927,64.2721 100.261,67.9388 98.5,71.5C 97.9144,69.7571 97.5811,67.9238 97.5,66C 99.2003,61.376 100.2,56.5426 100.5,51.5C 109.327,52.3292 117.994,53.6625 126.5,55.5 Z"/></g>
<g><path style="opacity:1" fill="#f4e8c6" d="M 126.5,55.5 C 117.994,53.6625 109.327,52.3292 100.5,51.5C 100.2,56.5426 99.2003,61.376 97.5,66C 97.5811,67.9238 97.9144,69.7571 98.5,71.5C 98.2322,73.099 98.5655,74.4324 99.5,75.5C 100.565,77.5251 101.898,79.3584 103.5,81C 102.263,81.2321 101.263,81.7321 100.5,82.5C 95.8333,82.5 91.1667,82.5 86.5,82.5C 86.5858,81.5041 86.2524,80.6708 85.5,80C 82.3111,79.158 79.3111,77.8247 76.5,76C 79.8762,75.6929 81.2096,73.8595 80.5,70.5C 79.7888,68.9699 78.7888,67.6366 77.5,66.5C 76.8346,61.8386 74.1679,59.8386 69.5,60.5C 69.631,59.7611 69.4643,59.0944 69,58.5C 66.7951,57.5882 64.9618,56.2549 63.5,54.5C 64.0577,53.2101 65.0577,52.3768 66.5,52C 69.0432,51.8603 71.3766,51.1937 73.5,50C 80.5718,49.4459 87.5718,49.9459 94.5,51.5C 94.3505,50.448 94.5172,49.448 95,48.5C 104.791,49.9649 114.624,51.4649 124.5,53C 125.381,53.7083 126.047,54.5416 126.5,55.5 Z"/></g>
<g><path style="opacity:1" fill="#e1bb6d" d="M 55.5,57.5 C 54.9836,58.7582 55.6503,59.7582 57.5,60.5C 52.3233,63.0559 51.3233,66.7225 54.5,71.5C 52.5695,71.7706 51.2362,72.7706 50.5,74.5C 44.0925,69.8651 38.5925,70.8651 34,77.5C 33.5045,79.4727 33.3379,81.4727 33.5,83.5C 32.1667,82.5 30.8333,81.5 29.5,80.5C 29.5,79.8333 29.5,79.1667 29.5,78.5C 30.64,77.1986 31.9733,76.0319 33.5,75C 32.8333,74.6667 32.1667,74.3333 31.5,74C 34.1768,73.7506 36.5101,72.7506 38.5,71C 41.146,70.5026 43.8127,70.3359 46.5,70.5C 46.4129,67.2613 47.0795,64.2613 48.5,61.5C 50.9328,61.7271 52.5994,60.7271 53.5,58.5C 54.1667,58.1667 54.8333,57.8333 55.5,57.5 Z"/></g>
<g><path style="opacity:1" fill="#eabe85" d="M 69.5,60.5 C 74.1679,59.8386 76.8346,61.8386 77.5,66.5C 76.3478,65.375 75.3478,65.375 74.5,66.5C 71.8643,65.1764 69.1977,65.1764 66.5,66.5C 64.4501,65.9234 63.4501,64.5901 63.5,62.5C 65.8863,62.7413 67.8863,62.0746 69.5,60.5 Z"/></g>
<g><path style="opacity:1" fill="#eecb90" d="M 57.5,60.5 C 59.4788,61.8121 61.1455,63.4788 62.5,65.5C 60.0976,67.9092 57.4309,69.9092 54.5,71.5C 51.3233,66.7225 52.3233,63.0559 57.5,60.5 Z"/></g>
<g><path style="opacity:1" fill="#ecd996" d="M 53.5,58.5 C 52.5994,60.7271 50.9328,61.7271 48.5,61.5C 47.0795,64.2613 46.4129,67.2613 46.5,70.5C 43.8127,70.3359 41.146,70.5026 38.5,71C 36.5101,72.7506 34.1768,73.7506 31.5,74C 32.1667,74.3333 32.8333,74.6667 33.5,75C 31.9733,76.0319 30.64,77.1986 29.5,78.5C 28.3871,77.0536 28.2204,75.3869 29,73.5C 32.6019,70.2319 35.4353,66.3985 37.5,62C 39.1667,61.6667 40.8333,61.3333 42.5,61C 45.4271,57.1858 49.0938,56.3524 53.5,58.5 Z"/></g>
<g><path style="opacity:1" fill="#f0e4c0" d="M 130.5,57.5 C 133.022,61.3733 136.355,64.04 140.5,65.5C 139.127,65.3433 137.793,65.51 136.5,66C 134.13,68.2422 131.464,69.7422 128.5,70.5C 126.761,71.4339 125.095,71.4339 123.5,70.5C 125.679,67.9465 127.679,65.2798 129.5,62.5C 130.452,60.9547 130.785,59.288 130.5,57.5 Z"/></g>
<g><path style="opacity:1" fill="#eddda3" d="M 112.5,62.5 C 113.359,64.1059 113.526,65.7725 113,67.5C 113.333,67.1667 113.667,66.8333 114,66.5C 114.791,68.6036 116.291,69.937 118.5,70.5C 120.979,72.9685 120.813,74.9685 118,76.5C 117.333,77.1667 117.333,77.8333 118,78.5C 119.183,77.269 120.349,77.269 121.5,78.5C 118.307,82.2007 114.307,84.3674 109.5,85C 110.167,85.3333 110.833,85.6667 111.5,86C 110.167,86.6667 108.833,86.6667 107.5,86C 108.337,84.9887 108.67,83.8221 108.5,82.5C 104.722,81.8066 104.722,80.6399 108.5,79C 103.693,79.3033 100.86,77.1367 100,72.5C 99.5172,73.448 99.3505,74.448 99.5,75.5C 98.5655,74.4324 98.2322,73.099 98.5,71.5C 100.261,67.9388 101.927,64.2721 103.5,60.5C 107.228,58.7818 110.228,59.4485 112.5,62.5 Z"/></g>
<g><path style="opacity:1" fill="#d89f59" d="M 77.5,66.5 C 78.7888,67.6366 79.7888,68.9699 80.5,70.5C 77.4647,70.6531 75.4647,69.3197 74.5,66.5C 75.3478,65.375 76.3478,65.375 77.5,66.5 Z"/></g>
<g><path style="opacity:1" fill="#f3d5ac" d="M 63.5,54.5 C 64.9618,56.2549 66.7951,57.5882 69,58.5C 69.4643,59.0944 69.631,59.7611 69.5,60.5C 67.8863,62.0746 65.8863,62.7413 63.5,62.5C 63.4501,64.5901 64.4501,65.9234 66.5,66.5C 69.1977,65.1764 71.8643,65.1764 74.5,66.5C 75.4647,69.3197 77.4647,70.6531 80.5,70.5C 81.2096,73.8595 79.8762,75.6929 76.5,76C 79.3111,77.8247 82.3111,79.158 85.5,80C 86.2524,80.6708 86.5858,81.5041 86.5,82.5C 85.8333,82.5 85.5,82.8333 85.5,83.5C 84.8333,83.5 84.1667,83.5 83.5,83.5C 80.023,82.6773 76.3563,82.1773 72.5,82C 69.0482,81.1083 66.0482,79.4416 63.5,77C 58.8452,76.5008 54.1785,76.3342 49.5,76.5C 49.8333,75.8333 50.1667,75.1667 50.5,74.5C 51.2362,72.7706 52.5695,71.7706 54.5,71.5C 57.4309,69.9092 60.0976,67.9092 62.5,65.5C 61.1455,63.4788 59.4788,61.8121 57.5,60.5C 55.6503,59.7582 54.9836,58.7582 55.5,57.5C 55.6107,56.8826 55.944,56.3826 56.5,56C 58.8659,55.5604 61.1992,55.0604 63.5,54.5 Z"/></g>
<g><path style="opacity:1" fill="#ebbd55" d="M 136.5,79.5 C 136.44,78.9569 136.107,78.6236 135.5,78.5C 133.544,79.5481 131.544,80.0481 129.5,80C 133.764,76.8306 133.431,75.9973 128.5,77.5C 128.5,76.8333 128.5,76.1667 128.5,75.5C 131.84,73.9789 135.174,72.8122 138.5,72C 140.396,73.8083 140.896,75.975 140,78.5C 138.989,79.3366 137.822,79.67 136.5,79.5 Z"/></g>
<g><path style="opacity:1" fill="#eedb92" d="M 144.5,67.5 C 148.175,69.6868 150.509,72.8535 151.5,77C 149.769,79.3766 147.769,81.5433 145.5,83.5C 144.833,84.1667 144.167,84.8333 143.5,85.5C 143.449,83.4305 144.115,81.5971 145.5,80C 144.713,77.9011 144.38,75.7345 144.5,73.5C 149.539,73.5489 149.705,72.8823 145,71.5C 144.667,71.8333 144.333,72.1667 144,72.5C 144.019,70.8925 144.185,69.2259 144.5,67.5 Z"/></g>
<g><path style="opacity:1" fill="#f1cd93" d="M 50.5,74.5 C 50.1667,75.1667 49.8333,75.8333 49.5,76.5C 52.7347,77.3632 56.7347,77.8632 61.5,78C 60.1667,78.3333 58.8333,78.6667 57.5,79C 59.4727,79.4955 61.4727,79.6621 63.5,79.5C 63.67,80.8221 63.3366,81.9887 62.5,83C 57.6244,85.1908 52.9577,84.8575 48.5,82C 45.5184,81.502 42.5184,81.3354 39.5,81.5C 39.719,82.675 39.3857,83.675 38.5,84.5C 36.9291,83.6906 35.2624,83.3573 33.5,83.5C 33.3379,81.4727 33.5045,79.4727 34,77.5C 38.5925,70.8651 44.0925,69.8651 50.5,74.5 Z"/></g>
<g><path style="opacity:1" fill="#cc9e3c" d="M 136.5,79.5 C 137.261,80.6966 138.928,81.5299 141.5,82C 137.439,82.7308 133.606,83.8975 130,85.5C 129.329,84.7476 128.496,84.4142 127.5,84.5C 127.881,83.0689 128.881,82.2355 130.5,82C 128.893,80.951 128.227,79.451 128.5,77.5C 133.431,75.9973 133.764,76.8306 129.5,80C 131.544,80.0481 133.544,79.5481 135.5,78.5C 136.107,78.6236 136.44,78.9569 136.5,79.5 Z"/></g>
<g><path style="opacity:1" fill="#eecd72" d="M 140.5,65.5 C 141.833,66.1667 143.167,66.8333 144.5,67.5C 144.185,69.2259 144.019,70.8925 144,72.5C 144.333,72.1667 144.667,71.8333 145,71.5C 149.705,72.8823 149.539,73.5489 144.5,73.5C 144.38,75.7345 144.713,77.9011 145.5,80C 144.115,81.5971 143.449,83.4305 143.5,85.5C 140.749,87.9745 137.416,88.9745 133.5,88.5C 131.421,88.0293 129.421,87.3627 127.5,86.5C 127.5,85.8333 127.5,85.1667 127.5,84.5C 128.496,84.4142 129.329,84.7476 130,85.5C 133.606,83.8975 137.439,82.7308 141.5,82C 138.928,81.5299 137.261,80.6966 136.5,79.5C 137.822,79.67 138.989,79.3366 140,78.5C 140.896,75.975 140.396,73.8083 138.5,72C 135.174,72.8122 131.84,73.9789 128.5,75.5C 126.989,76.5025 125.322,77.1692 123.5,77.5C 123.351,76.448 123.517,75.448 124,74.5C 125.992,73.6719 127.492,72.3386 128.5,70.5C 131.464,69.7422 134.13,68.2422 136.5,66C 137.793,65.51 139.127,65.3433 140.5,65.5 Z"/></g>
<g><path style="opacity:1" fill="#ba7b1e" d="M 83.5,83.5 C 84.1667,83.5 84.8333,83.5 85.5,83.5C 88.0821,83.0254 90.0821,83.6921 91.5,85.5C 88.0769,85.0865 85.4103,84.4198 83.5,83.5 Z"/></g>
<g><path style="opacity:1" fill="#e2b461" d="M 85.5,83.5 C 85.5,82.8333 85.8333,82.5 86.5,82.5C 91.1667,82.5 95.8333,82.5 100.5,82.5C 100.938,82.4346 101.272,82.6012 101.5,83C 97.4187,84.1097 96.4187,86.6097 98.5,90.5C 95.5176,88.9225 92.8509,89.2558 90.5,91.5C 90.5172,89.4352 90.8505,87.4352 91.5,85.5C 90.0821,83.6921 88.0821,83.0254 85.5,83.5 Z"/></g>
<g><path style="opacity:1" fill="#e6d495" d="M 126.5,55.5 C 128.153,55.6596 129.486,56.3263 130.5,57.5C 130.785,59.288 130.452,60.9547 129.5,62.5C 127.679,65.2798 125.679,67.9465 123.5,70.5C 125.095,71.4339 126.761,71.4339 128.5,70.5C 127.492,72.3386 125.992,73.6719 124,74.5C 123.517,75.448 123.351,76.448 123.5,77.5C 125.322,77.1692 126.989,76.5025 128.5,75.5C 128.5,76.1667 128.5,76.8333 128.5,77.5C 124.651,80.5109 120.651,83.3443 116.5,86C 117.337,87.0113 117.67,88.1779 117.5,89.5C 115.8,89.3739 114.3,88.7073 113,87.5C 112.5,87.6667 112,87.8333 111.5,88C 112.517,89.0495 112.684,90.2161 112,91.5C 109.973,90.7883 108.973,89.7883 109,88.5C 106.08,88.9082 103.746,90.2415 102,92.5C 101.235,92.4301 100.735,92.0967 100.5,91.5C 100.158,90.6618 99.4916,90.3284 98.5,90.5C 96.4187,86.6097 97.4187,84.1097 101.5,83C 101.272,82.6012 100.938,82.4346 100.5,82.5C 101.263,81.7321 102.263,81.2321 103.5,81C 101.898,79.3584 100.565,77.5251 99.5,75.5C 99.3505,74.448 99.5172,73.448 100,72.5C 100.86,77.1367 103.693,79.3033 108.5,79C 104.722,80.6399 104.722,81.8066 108.5,82.5C 108.67,83.8221 108.337,84.9887 107.5,86C 108.833,86.6667 110.167,86.6667 111.5,86C 110.833,85.6667 110.167,85.3333 109.5,85C 114.307,84.3674 118.307,82.2007 121.5,78.5C 120.349,77.269 119.183,77.269 118,78.5C 117.333,77.8333 117.333,77.1667 118,76.5C 120.813,74.9685 120.979,72.9685 118.5,70.5C 116.291,69.937 114.791,68.6036 114,66.5C 113.667,66.8333 113.333,67.1667 113,67.5C 113.526,65.7725 113.359,64.1059 112.5,62.5C 115.196,64.2696 118.029,65.9363 121,67.5C 121.749,66.365 121.583,65.365 120.5,64.5C 118.032,63.1971 115.699,61.6971 113.5,60C 114.047,59.0754 114.713,58.2421 115.5,57.5C 119.446,59.2081 123.446,60.3748 127.5,61C 126.5,60.1667 125.5,59.3333 124.5,58.5C 125.612,57.7348 126.279,56.7348 126.5,55.5 Z"/></g>
<g><path style="opacity:1" fill="#f4e4be" d="M 29.5,80.5 C 30.8333,81.5 32.1667,82.5 33.5,83.5C 34.6808,85.0672 36.3474,85.9005 38.5,86C 37.5562,88.7191 37.2229,91.5525 37.5,94.5C 38.5,94.5 39.5,94.5 40.5,94.5C 41.4831,95.8503 42.8164,96.8503 44.5,97.5C 43.7573,98.1818 43.0906,98.8485 42.5,99.5C 38.6983,98.0704 35.5316,99.0704 33,102.5C 29.1554,99.6163 27.6554,95.783 28.5,91C 28.7067,87.4774 29.04,83.9774 29.5,80.5 Z"/></g>
<g><path style="opacity:1" fill="#c99c61" d="M 90.5,91.5 C 90.8807,92.9311 91.8807,93.7645 93.5,94C 92.9747,94.6924 92.3081,95.1924 91.5,95.5C 89.9017,94.5153 88.235,94.3486 86.5,95C 87.7375,95.2321 88.7375,95.7321 89.5,96.5C 87.0274,96.0882 85.6941,97.0882 85.5,99.5C 84.2947,98.3281 84.2947,96.9948 85.5,95.5C 85.1667,94.5 84.5,93.8333 83.5,93.5C 82.5744,98.9208 79.5744,102.087 74.5,103C 77.2526,100.412 78.9193,97.245 79.5,93.5C 79.0004,92.1195 78.0004,91.4528 76.5,91.5C 74.5024,92.6669 73.0024,94.3336 72,96.5C 71.3076,95.9747 70.8076,95.3081 70.5,94.5C 71.2458,93.2638 71.5792,91.9305 71.5,90.5C 69.5168,90.8432 68.1834,90.1765 67.5,88.5C 69.3914,88.1717 70.8914,87.505 72,86.5C 78.2207,88.0962 84.3873,89.7628 90.5,91.5 Z"/></g>
<g><path style="opacity:1" fill="#ac7f35" d="M 127.5,86.5 C 129.421,87.3627 131.421,88.0293 133.5,88.5C 132.791,89.404 131.791,89.7373 130.5,89.5C 126.098,89.9264 122.098,91.2597 118.5,93.5C 117.833,93.5 117.167,93.5 116.5,93.5C 116.5,93.1667 116.5,92.8333 116.5,92.5C 117.738,92.19 117.738,91.69 116.5,91C 118.384,90.7837 120.051,90.117 121.5,89C 120.5,88.6667 119.5,88.3333 118.5,88C 120.112,87.2797 121.612,87.4464 123,88.5C 124.11,86.9632 125.61,86.2965 127.5,86.5 Z"/></g>
<g><path style="opacity:1" fill="#efd6a6" d="M 145.5,83.5 C 146.135,86.4929 146.301,89.4929 146,92.5C 144.152,95.0414 141.652,96.0414 138.5,95.5C 138.672,94.5084 138.338,93.8417 137.5,93.5C 136.957,93.44 136.624,93.1067 136.5,92.5C 137.376,91.7492 138.376,91.2492 139.5,91C 136.305,90.8195 133.305,90.3195 130.5,89.5C 131.791,89.7373 132.791,89.404 133.5,88.5C 137.416,88.9745 140.749,87.9745 143.5,85.5C 144.167,84.8333 144.833,84.1667 145.5,83.5 Z"/></g>
<g><path style="opacity:1" fill="#bda961" d="M 128.5,77.5 C 128.227,79.451 128.893,80.951 130.5,82C 128.881,82.2355 127.881,83.0689 127.5,84.5C 127.5,85.1667 127.5,85.8333 127.5,86.5C 125.61,86.2965 124.11,86.9632 123,88.5C 121.612,87.4464 120.112,87.2797 118.5,88C 119.5,88.3333 120.5,88.6667 121.5,89C 120.051,90.117 118.384,90.7837 116.5,91C 117.738,91.69 117.738,92.19 116.5,92.5C 111.522,92.9887 106.855,94.3221 102.5,96.5C 100.5,96.5 98.5,96.5 96.5,96.5C 96.1966,93.4124 97.5299,91.7458 100.5,91.5C 100.735,92.0967 101.235,92.4301 102,92.5C 103.746,90.2415 106.08,88.9082 109,88.5C 108.973,89.7883 109.973,90.7883 112,91.5C 112.684,90.2161 112.517,89.0495 111.5,88C 112,87.8333 112.5,87.6667 113,87.5C 114.3,88.7073 115.8,89.3739 117.5,89.5C 117.67,88.1779 117.337,87.0113 116.5,86C 120.651,83.3443 124.651,80.5109 128.5,77.5 Z"/></g>
<g><path style="opacity:1" fill="#b5872f" d="M 98.5,90.5 C 99.4916,90.3284 100.158,90.6618 100.5,91.5C 97.5299,91.7458 96.1966,93.4124 96.5,96.5C 96.1667,96.5 95.8333,96.5 95.5,96.5C 93.5,96.5 91.5,96.5 89.5,96.5C 88.7375,95.7321 87.7375,95.2321 86.5,95C 88.235,94.3486 89.9017,94.5153 91.5,95.5C 92.3081,95.1924 92.9747,94.6924 93.5,94C 91.8807,93.7645 90.8807,92.9311 90.5,91.5C 92.8509,89.2558 95.5176,88.9225 98.5,90.5 Z"/></g>
<g><path style="opacity:1" fill="#bf9b67" d="M 130.5,89.5 C 133.305,90.3195 136.305,90.8195 139.5,91C 138.376,91.2492 137.376,91.7492 136.5,92.5C 136.624,93.1067 136.957,93.44 137.5,93.5C 133.24,94.3961 128.907,95.3961 124.5,96.5C 122.039,96.2463 120.039,95.2463 118.5,93.5C 122.098,91.2597 126.098,89.9264 130.5,89.5 Z"/></g>
<g><path style="opacity:1" fill="#cf7f25" d="M 116.5,92.5 C 116.5,92.8333 116.5,93.1667 116.5,93.5C 116.5,94.5 116.5,95.5 116.5,96.5C 114.088,96.3305 111.921,96.9972 110,98.5C 109.228,98.3552 108.561,98.0219 108,97.5C 106.605,100.167 104.605,102.167 102,103.5C 101.666,101.153 101.833,98.8194 102.5,96.5C 106.855,94.3221 111.522,92.9887 116.5,92.5 Z"/></g>
<g><path style="opacity:1" fill="#d2a969" d="M 116.5,93.5 C 117.167,93.5 117.833,93.5 118.5,93.5C 120.039,95.2463 122.039,96.2463 124.5,96.5C 128.907,95.3961 133.24,94.3961 137.5,93.5C 138.338,93.8417 138.672,94.5084 138.5,95.5C 136.827,96.343 135.66,97.6763 135,99.5C 134.667,102.833 134.333,106.167 134,109.5C 133.617,110.056 133.117,110.389 132.5,110.5C 132.456,108.619 132.122,106.785 131.5,105C 132.973,104.29 133.64,103.124 133.5,101.5C 129.996,99.8711 126.163,98.5377 122,97.5C 120.743,97.8499 120.409,98.5165 121,99.5C 122.833,100.667 124.667,101.833 126.5,103C 123.528,103.288 120.861,102.455 118.5,100.5C 117.999,102.655 116.999,104.322 115.5,105.5C 111.661,105.388 111.661,104.721 115.5,103.5C 116.797,101.082 117.13,98.7486 116.5,96.5C 116.5,95.5 116.5,94.5 116.5,93.5 Z"/></g>
<g><path style="opacity:1" fill="#dfb276" d="M 49.5,76.5 C 54.1785,76.3342 58.8452,76.5008 63.5,77C 66.0482,79.4416 69.0482,81.1083 72.5,82C 76.3563,82.1773 80.023,82.6773 83.5,83.5C 85.4103,84.4198 88.0769,85.0865 91.5,85.5C 90.8505,87.4352 90.5172,89.4352 90.5,91.5C 84.3873,89.7628 78.2207,88.0962 72,86.5C 70.8914,87.505 69.3914,88.1717 67.5,88.5C 64.9857,88.7539 62.6524,89.5873 60.5,91C 61.0253,91.6924 61.6919,92.1924 62.5,92.5C 67.8611,90.5277 69.5278,92.1944 67.5,97.5C 68.552,97.3505 69.552,97.5172 70.5,98C 66.7504,98.6208 63.0838,99.4542 59.5,100.5C 59.5,102.5 59.5,104.5 59.5,106.5C 57.7548,105.194 55.7548,104.194 53.5,103.5C 51.8892,100.613 50.5559,97.6128 49.5,94.5C 47.9745,94.0057 46.6412,93.339 45.5,92.5C 47.1667,92.5 48.8333,92.5 50.5,92.5C 52.3646,84.3638 49.3646,81.3638 41.5,83.5C 40.3595,84.4255 40.3595,85.2588 41.5,86C 38.0755,87.4119 37.7422,89.2453 40.5,91.5C 39.2617,91.81 39.2617,92.31 40.5,93C 44.449,93.8068 44.449,94.3068 40.5,94.5C 39.5,94.5 38.5,94.5 37.5,94.5C 37.2229,91.5525 37.5562,88.7191 38.5,86C 36.3474,85.9005 34.6808,85.0672 33.5,83.5C 35.2624,83.3573 36.9291,83.6906 38.5,84.5C 39.3857,83.675 39.719,82.675 39.5,81.5C 42.5184,81.3354 45.5184,81.502 48.5,82C 52.9577,84.8575 57.6244,85.1908 62.5,83C 63.3366,81.9887 63.67,80.8221 63.5,79.5C 61.4727,79.6621 59.4727,79.4955 57.5,79C 58.8333,78.6667 60.1667,78.3333 61.5,78C 56.7347,77.8632 52.7347,77.3632 49.5,76.5 Z"/></g>
<g><path style="opacity:1" fill="#ecc892" d="M 45.5,92.5 C 43.9582,91.6993 42.2915,91.366 40.5,91.5C 37.7422,89.2453 38.0755,87.4119 41.5,86C 40.3595,85.2588 40.3595,84.4255 41.5,83.5C 49.3646,81.3638 52.3646,84.3638 50.5,92.5C 48.8333,92.5 47.1667,92.5 45.5,92.5 Z"/></g>
<g><path style="opacity:1" fill="#cf781b" d="M 89.5,96.5 C 91.5,96.5 93.5,96.5 95.5,96.5C 100.809,98.1875 100.809,99.8541 95.5,101.5C 93.1998,103.202 90.5331,103.868 87.5,103.5C 86.0937,103.027 85.427,102.027 85.5,100.5C 85.5,100.167 85.5,99.8333 85.5,99.5C 85.6941,97.0882 87.0274,96.0882 89.5,96.5 Z"/></g>
<g><path style="opacity:1" fill="#e9c281" d="M 133.5,101.5 C 129.339,104.067 125.672,107.234 122.5,111C 120.419,111.869 118.253,112.369 116,112.5C 113.992,112.693 112.492,112.026 111.5,110.5C 109.173,109.634 106.839,108.634 104.5,107.5C 106.303,104.821 108.637,103.821 111.5,104.5C 110.5,105.333 109.5,106.167 108.5,107C 111.139,107.588 113.473,107.088 115.5,105.5C 116.999,104.322 117.999,102.655 118.5,100.5C 120.861,102.455 123.528,103.288 126.5,103C 124.667,101.833 122.833,100.667 121,99.5C 120.409,98.5165 120.743,97.8499 122,97.5C 126.163,98.5377 129.996,99.8711 133.5,101.5 Z"/></g>
<g><path style="opacity:1" fill="#eabc85" d="M 67.5,88.5 C 68.1834,90.1765 69.5168,90.8432 71.5,90.5C 71.5792,91.9305 71.2458,93.2638 70.5,94.5C 70.8076,95.3081 71.3076,95.9747 72,96.5C 73.0024,94.3336 74.5024,92.6669 76.5,91.5C 78.0004,91.4528 79.0004,92.1195 79.5,93.5C 78.9193,97.245 77.2526,100.412 74.5,103C 79.5744,102.087 82.5744,98.9208 83.5,93.5C 84.5,93.8333 85.1667,94.5 85.5,95.5C 84.2947,96.9948 84.2947,98.3281 85.5,99.5C 85.5,99.8333 85.5,100.167 85.5,100.5C 84.9612,103.085 83.6279,105.252 81.5,107C 83.1667,107.333 84.8333,107.667 86.5,108C 85.944,108.383 85.6107,108.883 85.5,109.5C 83.1696,110.81 80.8363,112.143 78.5,113.5C 74.8049,114.338 71.1382,114.005 67.5,112.5C 63.4105,112.412 60.7438,110.412 59.5,106.5C 59.5,104.5 59.5,102.5 59.5,100.5C 63.0838,99.4542 66.7504,98.6208 70.5,98C 69.552,97.5172 68.552,97.3505 67.5,97.5C 69.5278,92.1944 67.8611,90.5277 62.5,92.5C 61.6919,92.1924 61.0253,91.6924 60.5,91C 62.6524,89.5873 64.9857,88.7539 67.5,88.5 Z"/></g>
<g><path style="opacity:1" fill="#d9a260" d="M 85.5,100.5 C 85.427,102.027 86.0937,103.027 87.5,103.5C 90.4445,106.584 89.7779,108.584 85.5,109.5C 85.6107,108.883 85.944,108.383 86.5,108C 84.8333,107.667 83.1667,107.333 81.5,107C 83.6279,105.252 84.9612,103.085 85.5,100.5 Z"/></g>
<g><path style="opacity:1" fill="#f0d7b7" d="M 40.5,91.5 C 42.2915,91.366 43.9582,91.6993 45.5,92.5C 46.6412,93.339 47.9745,94.0057 49.5,94.5C 50.5559,97.6128 51.8892,100.613 53.5,103.5C 55.7548,104.194 57.7548,105.194 59.5,106.5C 60.7438,110.412 63.4105,112.412 67.5,112.5C 67.5,112.833 67.5,113.167 67.5,113.5C 61.6058,115.983 55.6058,116.15 49.5,114C 45.7685,109.834 43.4352,105 42.5,99.5C 43.0906,98.8485 43.7573,98.1818 44.5,97.5C 42.8164,96.8503 41.4831,95.8503 40.5,94.5C 44.449,94.3068 44.449,93.8068 40.5,93C 39.2617,92.31 39.2617,91.81 40.5,91.5 Z"/></g>
<g><path style="opacity:1" fill="#cd8c41" d="M 95.5,101.5 C 96.4054,102.964 96.4054,104.298 95.5,105.5C 92.7616,108.872 89.0949,110.538 84.5,110.5C 83.8333,111.5 83.1667,112.5 82.5,113.5C 81.1667,113.5 79.8333,113.5 78.5,113.5C 80.8363,112.143 83.1696,110.81 85.5,109.5C 89.7779,108.584 90.4445,106.584 87.5,103.5C 90.5331,103.868 93.1998,103.202 95.5,101.5 Z"/></g>
<g><path style="opacity:1" fill="#e4ad61" d="M 95.5,96.5 C 95.8333,96.5 96.1667,96.5 96.5,96.5C 98.5,96.5 100.5,96.5 102.5,96.5C 101.833,98.8194 101.666,101.153 102,103.5C 104.605,102.167 106.605,100.167 108,97.5C 108.561,98.0219 109.228,98.3552 110,98.5C 111.921,96.9972 114.088,96.3305 116.5,96.5C 117.13,98.7486 116.797,101.082 115.5,103.5C 111.661,104.721 111.661,105.388 115.5,105.5C 113.473,107.088 111.139,107.588 108.5,107C 109.5,106.167 110.5,105.333 111.5,104.5C 108.637,103.821 106.303,104.821 104.5,107.5C 103.844,106.722 103.011,106.056 102,105.5C 99.9906,105.995 97.8239,105.995 95.5,105.5C 96.4054,104.298 96.4054,102.964 95.5,101.5C 100.809,99.8541 100.809,98.1875 95.5,96.5 Z"/></g>
<g><path style="opacity:1" fill="#e2af72" d="M 95.5,105.5 C 97.8239,105.995 99.9906,105.995 102,105.5C 103.011,106.056 103.844,106.722 104.5,107.5C 106.839,108.634 109.173,109.634 111.5,110.5C 108.941,110.802 106.607,110.468 104.5,109.5C 103.749,108.427 102.749,108.26 101.5,109C 100.284,110.74 98.6175,111.74 96.5,112C 97.6956,112.654 97.6956,113.154 96.5,113.5C 92.2943,112.863 88.2943,111.863 84.5,110.5C 89.0949,110.538 92.7616,108.872 95.5,105.5 Z"/></g>
<g><path style="opacity:1" fill="#f4d6ac" d="M 133.5,101.5 C 133.64,103.124 132.973,104.29 131.5,105C 132.122,106.785 132.456,108.619 132.5,110.5C 128.925,112.729 125.592,115.395 122.5,118.5C 118.95,117.213 115.617,117.879 112.5,120.5C 110.815,117.973 109.149,115.473 107.5,113C 106.207,112.51 104.873,112.343 103.5,112.5C 103.263,111.209 103.596,110.209 104.5,109.5C 106.607,110.468 108.941,110.802 111.5,110.5C 112.492,112.026 113.992,112.693 116,112.5C 118.253,112.369 120.419,111.869 122.5,111C 125.672,107.234 129.339,104.067 133.5,101.5 Z"/></g>
<g><path style="opacity:1" fill="#c1935b" d="M 67.5,112.5 C 71.1382,114.005 74.8049,114.338 78.5,113.5C 79.8333,113.5 81.1667,113.5 82.5,113.5C 78.0711,115.64 73.4045,115.973 68.5,114.5C 67.8333,114.5 67.5,114.167 67.5,113.5C 67.5,113.167 67.5,112.833 67.5,112.5 Z"/></g>
<g><path style="opacity:1" fill="#efc99e" d="M 104.5,109.5 C 103.596,110.209 103.263,111.209 103.5,112.5C 104.873,112.343 106.207,112.51 107.5,113C 109.149,115.473 110.815,117.973 112.5,120.5C 115.617,117.879 118.95,117.213 122.5,118.5C 119.051,120.117 115.384,121.284 111.5,122C 110.354,122.645 109.354,123.478 108.5,124.5C 105.127,123.225 101.793,123.392 98.5,125C 91.7848,125.711 85.1182,125.378 78.5,124C 75.3239,120.657 71.9905,117.49 68.5,114.5C 73.4045,115.973 78.0711,115.64 82.5,113.5C 83.1667,112.5 83.8333,111.5 84.5,110.5C 88.2943,111.863 92.2943,112.863 96.5,113.5C 97.6956,113.154 97.6956,112.654 96.5,112C 98.6175,111.74 100.284,110.74 101.5,109C 102.749,108.26 103.749,108.427 104.5,109.5 Z"/></g>
<g><path style="opacity:1" fill="#6bdcdf" d="M 75.5,138.5 C 76.7562,138.461 77.7562,138.961 78.5,140C 77.0024,140.585 76.0024,140.085 75.5,138.5 Z"/></g>
<g><path style="opacity:1" fill="#8ce3e6" d="M 99.5,143.5 C 98.2392,146.099 96.5725,148.432 94.5,150.5C 93.1667,146.167 93.1667,141.833 94.5,137.5C 95.3214,140.447 95.8214,143.447 96,146.5C 97.0391,145.29 98.2058,144.29 99.5,143.5 Z"/></g>
<g><path style="opacity:1" fill="#68dbde" d="M 75.5,138.5 C 70.1872,138.644 68.0206,141.31 69,146.5C 70.1171,148.124 71.6171,149.124 73.5,149.5C 75.155,148.612 76.8217,148.112 78.5,148C 74.8528,151.422 71.3528,151.255 68,147.5C 66.3195,140.37 68.8195,137.37 75.5,138.5 Z"/></g>
<g><path style="opacity:1" fill="#89e3e5" d="M 99.5,143.5 C 100.389,141.264 101.722,139.264 103.5,137.5C 104.833,141.833 104.833,146.167 103.5,150.5C 102.679,147.553 102.179,144.553 102,141.5C 101.292,142.381 100.458,143.047 99.5,143.5 Z"/></g>
<g><path style="opacity:1" fill="#61d9dc" d="M 81.5,137.5 C 82.1646,139.369 82.8313,141.369 83.5,143.5C 85.8333,141.833 87.8333,139.833 89.5,137.5C 89.8333,137.667 90.1667,137.833 90.5,138C 89.1515,140.01 87.8182,142.01 86.5,144C 88.243,146.019 89.4097,148.186 90,150.5C 87.8552,147.834 85.3552,145.834 82.5,144.5C 82.6621,146.527 82.4955,148.527 82,150.5C 81.501,146.179 81.3343,141.846 81.5,137.5 Z"/></g>
</svg>
