<?xml version="1.0" encoding="UTF-8"?>
<!DOCTYPE svg PUBLIC "-//W3C//DTD SVG 1.1//EN" "http://www.w3.org/Graphics/SVG/1.1/DTD/svg11.dtd">
<svg xmlns="http://www.w3.org/2000/svg" version="1.1" width="175px" height="175px" style="shape-rendering:geometricPrecision; text-rendering:geometricPrecision; image-rendering:optimizeQuality; fill-rule:evenodd; clip-rule:evenodd" xmlns:xlink="http://www.w3.org/1999/xlink">
<g><path style="opacity:0.711" fill="#45dbb2" d="M 90.5,19.5 C 93.0961,20.2653 95.7628,20.5987 98.5,20.5C 98.0728,24.8244 97.7395,29.1578 97.5,33.5C 96.5,33.5 95.5,33.5 94.5,33.5C 94.9376,29.9277 95.6042,26.4277 96.5,23C 94.8876,22.2797 93.3876,22.4464 92,23.5C 92.1212,27.5992 90.4545,30.5992 87,32.5C 86.5,32.1667 86,31.8333 85.5,31.5C 86.2421,30.7132 87.0754,30.0465 88,29.5C 88.9433,26.1555 89.7766,22.8221 90.5,19.5 Z"/></g>
<g><path style="opacity:0.734" fill="#45dab2" d="M 72.5,21.5 C 79.2701,19.937 82.2701,22.6037 81.5,29.5C 81.1667,31.1667 80.8333,32.8333 80.5,34.5C 77.9982,34.3787 75.3315,34.2121 72.5,34C 70.7888,32.8668 70.2888,31.3668 71,29.5C 73.3407,27.4785 75.8407,25.8119 78.5,24.5C 77.8333,24.1667 77.1667,23.8333 76.5,23.5C 74.6772,24.8449 72.6772,25.3449 70.5,25C 71.305,23.8873 71.9717,22.7206 72.5,21.5 Z M 75.5,28.5 C 79.8762,27.8876 80.5429,29.0543 77.5,32C 76.2068,32.49 74.8734,32.6567 73.5,32.5C 73.5271,30.8007 74.1938,29.4674 75.5,28.5 Z"/></g>
<g><path style="opacity:0.689" fill="#45dab1" d="M 62.5,24.5 C 63.675,24.281 64.675,24.6143 65.5,25.5C 63.8474,27.1214 61.8474,28.2881 59.5,29C 61.5721,32.3406 62.2388,35.8406 61.5,39.5C 59.5456,35.8077 57.879,31.9743 56.5,28C 58.4319,26.5415 60.4319,25.3748 62.5,24.5 Z"/></g>
<g><path style="opacity:0.711" fill="#45dbb2" d="M 108.5,22.5 C 114.677,23.024 117.01,26.3573 115.5,32.5C 112.523,31.9292 109.69,30.9292 107,29.5C 106.38,33.6902 108.047,35.0236 112,33.5C 113.257,33.8499 113.591,34.5165 113,35.5C 106.477,37.6404 103.477,35.3071 104,28.5C 104.804,25.8541 106.304,23.8541 108.5,22.5 Z M 108.5,25.5 C 112.419,24.7464 113.753,26.0797 112.5,29.5C 110.833,28.6667 109.167,27.8333 107.5,27C 108.056,26.6174 108.389,26.1174 108.5,25.5 Z"/></g>
<g><path style="opacity:1" fill="#ecf7d4" d="M 87.5,47.5 C 83.6546,47.7114 79.6546,47.8781 75.5,48C 77.9001,49.0571 80.2335,49.7238 82.5,50C 79.7007,50.4391 78.7007,51.7724 79.5,54C 78.2161,54.6838 77.0495,54.5171 76,53.5C 74.1644,55.6044 71.9977,55.9377 69.5,54.5C 70.3256,53.549 70.4922,52.549 70,51.5C 68.4173,51.493 66.7506,51.8263 65,52.5C 64.2904,51.0267 63.1238,50.3601 61.5,50.5C 69.8229,45.8292 78.4895,44.8292 87.5,47.5 Z"/></g>
<g><path style="opacity:1" fill="#e9f1cc" d="M 97.5,54.5 C 97.3713,56.2161 97.038,57.8828 96.5,59.5C 92.2991,59.9659 88.1325,59.9659 84,59.5C 83.5,59.3333 83,59.1667 82.5,59C 83.1712,58.0138 83.1712,56.8471 82.5,55.5C 82.9175,54.7784 83.5842,54.2784 84.5,54C 83.5,53.6667 82.5,53.3333 81.5,53C 82.7702,52.1004 83.7702,50.9337 84.5,49.5C 87.0393,50.1153 89.5393,50.7819 92,51.5C 92.4479,53.4089 91.6145,54.5756 89.5,55C 91.9203,55.6869 94.087,55.1869 96,53.5C 96.3826,54.056 96.8826,54.3893 97.5,54.5 Z"/></g>
<g><path style="opacity:1" fill="#edf4d0" d="M 126.5,52.5 C 121.027,50.4549 115.36,49.4549 109.5,49.5C 105.901,48.6561 102.234,48.3227 98.5,48.5C 98.4828,50.5648 98.1495,52.5648 97.5,54.5C 96.8826,54.3893 96.3826,54.056 96,53.5C 94.087,55.1869 91.9203,55.6869 89.5,55C 91.6145,54.5756 92.4479,53.4089 92,51.5C 89.5393,50.7819 87.0393,50.1153 84.5,49.5C 83.7702,50.9337 82.7702,52.1004 81.5,53C 82.5,53.3333 83.5,53.6667 84.5,54C 83.5842,54.2784 82.9175,54.7784 82.5,55.5C 81.7611,55.369 81.0944,55.5357 80.5,56C 81.2272,58.124 81.8938,60.2906 82.5,62.5C 81.7573,63.1818 81.0906,63.8485 80.5,64.5C 80.1583,65.3382 79.4916,65.6716 78.5,65.5C 76.3227,62.9748 74.3227,60.3081 72.5,57.5C 69.6904,56.1811 66.6904,55.1811 63.5,54.5C 63.5,53.5 63.5,52.5 63.5,51.5C 61.002,52.0818 58.6687,52.0818 56.5,51.5C 57.9187,50.5489 59.5853,50.2155 61.5,50.5C 63.1238,50.3601 64.2904,51.0267 65,52.5C 66.7506,51.8263 68.4173,51.493 70,51.5C 70.4922,52.549 70.3256,53.549 69.5,54.5C 71.9977,55.9377 74.1644,55.6044 76,53.5C 77.0495,54.5171 78.2161,54.6838 79.5,54C 78.7007,51.7724 79.7007,50.4391 82.5,50C 80.2335,49.7238 77.9001,49.0571 75.5,48C 79.6546,47.8781 83.6546,47.7114 87.5,47.5C 89.1667,47.5 90.8333,47.5 92.5,47.5C 92.494,44.4524 93.494,43.9524 95.5,46C 104.272,46.1622 112.938,47.1622 121.5,49C 123.584,49.6972 125.251,50.8639 126.5,52.5 Z"/></g>
<g><path style="opacity:1" fill="#ece3b2" d="M 56.5,51.5 C 58.6687,52.0818 61.002,52.0818 63.5,51.5C 63.5,52.5 63.5,53.5 63.5,54.5C 66.6904,55.1811 69.6904,56.1811 72.5,57.5C 68.17,57.5678 64.3367,58.9011 61,61.5C 58.0905,57.9766 54.5905,56.31 50.5,56.5C 48.2829,55.7624 46.1163,55.4291 44,55.5C 41.1457,57.509 37.979,58.8424 34.5,59.5C 37.3536,57.5215 40.3536,55.6881 43.5,54C 47.976,54.6387 52.3094,53.8054 56.5,51.5 Z"/></g>
<g><path style="opacity:1" fill="#e5e29f" d="M 109.5,49.5 C 115.36,49.4549 121.027,50.4549 126.5,52.5C 127.492,52.3284 128.158,52.6618 128.5,53.5C 129.218,55.1368 129.384,56.8034 129,58.5C 126.27,60.9666 123.77,63.6333 121.5,66.5C 120.185,62.54 117.518,59.8734 113.5,58.5C 112.795,53.4369 110.129,51.7702 105.5,53.5C 104.263,53.4435 103.263,52.9435 102.5,52C 105.191,51.8442 107.524,51.0109 109.5,49.5 Z"/></g>
<g><path style="opacity:1" fill="#e7cb85" d="M 72.5,57.5 C 74.3227,60.3081 76.3227,62.9748 78.5,65.5C 78.5,66.1667 78.5,66.8333 78.5,67.5C 77.0413,67.5674 75.7079,67.2341 74.5,66.5C 72.5501,61.6072 69.3834,60.6072 65,63.5C 62.8615,62.2309 60.6948,62.2309 58.5,63.5C 56.8783,65.641 54.8783,67.3076 52.5,68.5C 51.7703,66.955 50.437,66.1216 48.5,66C 49.428,65.6121 50.0946,64.9454 50.5,64C 49.6161,62.902 48.6161,62.402 47.5,62.5C 48.5,61.6667 49.5,60.8333 50.5,60C 49.9056,59.5357 49.2389,59.369 48.5,59.5C 48.7822,58.2223 49.4489,57.2223 50.5,56.5C 54.5905,56.31 58.0905,57.9766 61,61.5C 64.3367,58.9011 68.17,57.5678 72.5,57.5 Z"/></g>
<g><path style="opacity:1" fill="#eaefc7" d="M 128.5,53.5 C 131.082,56.6983 134.082,59.365 137.5,61.5C 136.508,61.3284 135.842,61.6618 135.5,62.5C 132.611,65.056 129.278,66.7227 125.5,67.5C 124.417,67.5394 123.417,67.8728 122.5,68.5C 121.702,68.0431 121.369,67.3764 121.5,66.5C 123.77,63.6333 126.27,60.9666 129,58.5C 129.384,56.8034 129.218,55.1368 128.5,53.5 Z"/></g>
<g><path style="opacity:1" fill="#e6e3a0" d="M 50.5,56.5 C 49.4489,57.2223 48.7822,58.2223 48.5,59.5C 45.7113,60.9185 44.0447,63.2519 43.5,66.5C 38.8262,67.5033 34.1596,68.5033 29.5,69.5C 29.6747,71.6208 29.3414,73.6208 28.5,75.5C 27.8333,75.1667 27.1667,74.8333 26.5,74.5C 25.0374,72.4017 25.2041,70.4017 27,68.5C 30.8788,66.4711 33.3788,63.4711 34.5,59.5C 37.979,58.8424 41.1457,57.509 44,55.5C 46.1163,55.4291 48.2829,55.7624 50.5,56.5 Z"/></g>
<g><path style="opacity:1" fill="#ebefc8" d="M 82.5,55.5 C 83.1712,56.8471 83.1712,58.0138 82.5,59C 83,59.1667 83.5,59.3333 84,59.5C 88.1325,59.9659 92.2991,59.9659 96.5,59.5C 96.3345,63.5138 96.5012,67.5138 97,71.5C 97.7083,72.3805 98.5416,73.0472 99.5,73.5C 99.6085,75.5138 98.9418,77.1805 97.5,78.5C 91.8599,79.1002 86.5265,78.2668 81.5,76C 78.9681,72.6056 78.9681,69.1056 81.5,65.5C 81.3764,64.8933 81.0431,64.56 80.5,64.5C 81.0906,63.8485 81.7573,63.1818 82.5,62.5C 81.8938,60.2906 81.2272,58.124 80.5,56C 81.0944,55.5357 81.7611,55.369 82.5,55.5 Z"/></g>
<g><path style="opacity:1" fill="#e5e6ac" d="M 120.5,72.5 C 119.292,71.7659 117.959,71.4326 116.5,71.5C 116.5,72.5 116.5,73.5 116.5,74.5C 117.552,74.3505 118.552,74.5172 119.5,75C 117.695,75.972 116.028,77.1387 114.5,78.5C 111.671,76.4351 109.171,77.1018 107,80.5C 105.989,79.6634 104.822,79.33 103.5,79.5C 103.737,78.209 103.404,77.209 102.5,76.5C 100.493,75.3215 100.16,75.8215 101.5,78C 100.207,78.49 98.8734,78.6567 97.5,78.5C 98.9418,77.1805 99.6085,75.5138 99.5,73.5C 100.219,69.0401 99.886,64.5401 98.5,60C 101.878,57.0761 105.878,55.9094 110.5,56.5C 110.281,57.675 110.614,58.675 111.5,59.5C 114.009,60.9213 116.343,62.5879 118.5,64.5C 117.97,67.367 118.636,70.0337 120.5,72.5 Z"/></g>
<g><path style="opacity:1" fill="#efe4b6" d="M 80.5,64.5 C 81.0431,64.56 81.3764,64.8933 81.5,65.5C 78.9681,69.1056 78.9681,72.6056 81.5,76C 86.5265,78.2668 91.8599,79.1002 97.5,78.5C 97.5,78.8333 97.5,79.1667 97.5,79.5C 92.5,79.5 87.5,79.5 82.5,79.5C 80.4437,78.7839 78.277,78.1172 76,77.5C 75.6667,77.8333 75.3333,78.1667 75,78.5C 72.9511,75.9526 70.4511,73.9526 67.5,72.5C 68.4803,71.0186 69.647,69.6853 71,68.5C 74.1811,71.2439 76.6811,70.9106 78.5,67.5C 78.5,66.8333 78.5,66.1667 78.5,65.5C 79.4916,65.6716 80.1583,65.3382 80.5,64.5 Z"/></g>
<g><path style="opacity:1" fill="#ecdcac" d="M 74.5,66.5 C 73.1779,66.67 72.0113,66.3366 71,65.5C 67.2167,67.9722 63.3834,70.3056 59.5,72.5C 55.8333,72.5 52.1667,72.5 48.5,72.5C 48.5,72.1667 48.5,71.8333 48.5,71.5C 49.8333,70.5 51.1667,69.5 52.5,68.5C 54.8783,67.3076 56.8783,65.641 58.5,63.5C 60.6948,62.2309 62.8615,62.2309 65,63.5C 69.3834,60.6072 72.5501,61.6072 74.5,66.5 Z"/></g>
<g><path style="opacity:1" fill="#e1da91" d="M 109.5,49.5 C 107.524,51.0109 105.191,51.8442 102.5,52C 103.263,52.9435 104.263,53.4435 105.5,53.5C 110.129,51.7702 112.795,53.4369 113.5,58.5C 117.518,59.8734 120.185,62.54 121.5,66.5C 121.369,67.3764 121.702,68.0431 122.5,68.5C 123.417,67.8728 124.417,67.5394 125.5,67.5C 124.54,69.4607 123.207,71.1274 121.5,72.5C 121.833,72.8333 122.167,73.1667 122.5,73.5C 124.901,70.5873 126.234,70.9206 126.5,74.5C 125.833,74.8333 125.167,75.1667 124.5,75.5C 122.781,74.9779 121.448,73.9779 120.5,72.5C 118.636,70.0337 117.97,67.367 118.5,64.5C 116.343,62.5879 114.009,60.9213 111.5,59.5C 110.614,58.675 110.281,57.675 110.5,56.5C 105.878,55.9094 101.878,57.0761 98.5,60C 99.886,64.5401 100.219,69.0401 99.5,73.5C 98.5416,73.0472 97.7083,72.3805 97,71.5C 96.5012,67.5138 96.3345,63.5138 96.5,59.5C 97.038,57.8828 97.3713,56.2161 97.5,54.5C 98.1495,52.5648 98.4828,50.5648 98.5,48.5C 102.234,48.3227 105.901,48.6561 109.5,49.5 Z"/></g>
<g><path style="opacity:1" fill="#eae394" d="M 135.5,62.5 C 135.842,61.6618 136.508,61.3284 137.5,61.5C 142.776,61.9699 146.443,64.6366 148.5,69.5C 149.582,74.0927 147.915,77.0927 143.5,78.5C 142.828,79.9492 142.161,81.2825 141.5,82.5C 141.75,79.4955 140.417,77.6622 137.5,77C 140.753,72.6297 141.42,68.1297 139.5,63.5C 138.264,62.7542 136.93,62.4208 135.5,62.5 Z"/></g>
<g><path style="opacity:1" fill="#e1ca78" d="M 48.5,59.5 C 49.2389,59.369 49.9056,59.5357 50.5,60C 49.5,60.8333 48.5,61.6667 47.5,62.5C 48.6161,62.402 49.6161,62.902 50.5,64C 50.0946,64.9454 49.428,65.6121 48.5,66C 50.437,66.1216 51.7703,66.955 52.5,68.5C 51.1667,69.5 49.8333,70.5 48.5,71.5C 48.1961,70.8501 47.8627,70.1835 47.5,69.5C 37.0923,65.938 32.759,69.6047 34.5,80.5C 33.8333,80.5 33.1667,80.5 32.5,80.5C 30.4131,79.4154 29.0798,77.7488 28.5,75.5C 29.3414,73.6208 29.6747,71.6208 29.5,69.5C 34.1596,68.5033 38.8262,67.5033 43.5,66.5C 44.0447,63.2519 45.7113,60.9185 48.5,59.5 Z"/></g>
<g><path style="opacity:1" fill="#e9ce68" d="M 135.5,62.5 C 136.93,62.4208 138.264,62.7542 139.5,63.5C 141.42,68.1297 140.753,72.6297 137.5,77C 140.417,77.6622 141.75,79.4955 141.5,82.5C 138.792,84.3531 135.792,85.3531 132.5,85.5C 131.5,85.5 130.5,85.5 129.5,85.5C 128.248,83.6612 128.248,81.8278 129.5,80C 132.833,79.6667 136.167,79.3333 139.5,79C 135.261,77.587 130.928,76.587 126.5,76C 127.672,75.5814 128.672,74.9147 129.5,74C 128.423,73.5304 127.423,73.6971 126.5,74.5C 126.234,70.9206 124.901,70.5873 122.5,73.5C 122.167,73.1667 121.833,72.8333 121.5,72.5C 123.207,71.1274 124.54,69.4607 125.5,67.5C 129.278,66.7227 132.611,65.056 135.5,62.5 Z"/></g>
<g><path style="opacity:1" fill="#f0e1b0" d="M 74.5,66.5 C 75.7079,67.2341 77.0413,67.5674 78.5,67.5C 76.6811,70.9106 74.1811,71.2439 71,68.5C 69.647,69.6853 68.4803,71.0186 67.5,72.5C 70.4511,73.9526 72.9511,75.9526 75,78.5C 75.3333,78.1667 75.6667,77.8333 76,77.5C 78.277,78.1172 80.4437,78.7839 82.5,79.5C 79.1667,79.5 75.8333,79.5 72.5,79.5C 70.064,78.129 67.3973,77.129 64.5,76.5C 63.4154,74.4131 61.7488,73.0798 59.5,72.5C 63.3834,70.3056 67.2167,67.9722 71,65.5C 72.0113,66.3366 73.1779,66.67 74.5,66.5 Z"/></g>
<g><path style="opacity:1" fill="#ecd898" d="M 48.5,71.5 C 48.5,71.8333 48.5,72.1667 48.5,72.5C 48.3893,73.1174 48.056,73.6174 47.5,74C 50.8333,74.3333 54.1667,74.6667 57.5,75C 56.8333,75.3333 56.1667,75.6667 55.5,76C 57.8856,76.2835 58.5523,77.2835 57.5,79C 54.905,79.2256 52.405,79.7256 50,80.5C 49.3292,79.7476 48.4959,79.4142 47.5,79.5C 45.9448,78.3673 44.1114,77.7006 42,77.5C 39.5773,78.6257 37.0773,79.6257 34.5,80.5C 32.759,69.6047 37.0923,65.938 47.5,69.5C 47.8627,70.1835 48.1961,70.8501 48.5,71.5 Z"/></g>
<g><path style="opacity:1" fill="#e4c688" d="M 48.5,72.5 C 52.1667,72.5 55.8333,72.5 59.5,72.5C 61.7488,73.0798 63.4154,74.4131 64.5,76.5C 66.3854,78.3115 68.7187,79.4782 71.5,80C 63.8608,80.0141 56.5274,80.8475 49.5,82.5C 48.8333,81.5 48.1667,80.5 47.5,79.5C 48.4959,79.4142 49.3292,79.7476 50,80.5C 52.405,79.7256 54.905,79.2256 57.5,79C 58.5523,77.2835 57.8856,76.2835 55.5,76C 56.1667,75.6667 56.8333,75.3333 57.5,75C 54.1667,74.6667 50.8333,74.3333 47.5,74C 48.056,73.6174 48.3893,73.1174 48.5,72.5 Z"/></g>
<g><path style="opacity:1" fill="#e1cd93" d="M 47.5,79.5 C 48.1667,80.5 48.8333,81.5 49.5,82.5C 48.79,84.8927 48.1233,87.3927 47.5,90C 48.8228,90.8159 49.4894,91.9826 49.5,93.5C 47.7376,91.2995 45.4042,90.1328 42.5,90C 42.8333,89.6667 43.1667,89.3333 43.5,89C 41.8333,88.3333 40.1667,88.3333 38.5,89C 39.3279,89.9147 40.3279,90.5814 41.5,91C 40.9056,91.4643 40.2389,91.631 39.5,91.5C 38.5272,90.2086 37.5272,90.2086 36.5,91.5C 35.2515,88.4937 35.2515,85.4937 36.5,82.5C 35.0508,81.8281 33.7175,81.1614 32.5,80.5C 33.1667,80.5 33.8333,80.5 34.5,80.5C 37.0773,79.6257 39.5773,78.6257 42,77.5C 44.1114,77.7006 45.9448,78.3673 47.5,79.5 Z"/></g>
<g><path style="opacity:1" fill="#e3e2a5" d="M 120.5,72.5 C 121.448,73.9779 122.781,74.9779 124.5,75.5C 124.5,76.1667 124.167,76.5 123.5,76.5C 120.379,78.4482 117.379,80.6148 114.5,83C 111.343,83.3955 108.343,84.2289 105.5,85.5C 103.167,85.5 100.833,85.5 98.5,85.5C 97.5985,81.7593 98.9319,79.7593 102.5,79.5C 102.5,78.5 102.5,77.5 102.5,76.5C 103.404,77.209 103.737,78.209 103.5,79.5C 104.822,79.33 105.989,79.6634 107,80.5C 109.171,77.1018 111.671,76.4351 114.5,78.5C 116.028,77.1387 117.695,75.972 119.5,75C 118.552,74.5172 117.552,74.3505 116.5,74.5C 116.5,73.5 116.5,72.5 116.5,71.5C 117.959,71.4326 119.292,71.7659 120.5,72.5 Z"/></g>
<g><path style="opacity:1" fill="#dcba78" d="M 64.5,76.5 C 67.3973,77.129 70.064,78.129 72.5,79.5C 77.7106,80.222 83.0439,81.0553 88.5,82C 88.8541,83.6255 88.8541,85.4588 88.5,87.5C 82.1545,85.9966 75.8212,84.3299 69.5,82.5C 68.2888,83.2739 68.2888,84.1072 69.5,85C 68.2161,85.6838 67.0495,85.5171 66,84.5C 65.2506,85.635 65.4173,86.635 66.5,87.5C 67.8123,86.5396 69.1456,86.7063 70.5,88C 69.4178,89.3297 68.7512,90.8297 68.5,92.5C 68.9798,93.5115 68.9798,94.8448 68.5,96.5C 66.9291,95.6906 65.2624,95.3573 63.5,95.5C 59.7356,93.9213 59.7356,92.4213 63.5,91C 61.1667,90.6667 58.8333,90.3333 56.5,90C 57.8333,89.3333 59.1667,88.6667 60.5,88C 59.0267,87.2904 58.3601,86.1238 58.5,84.5C 55.2186,84.5797 52.2186,83.913 49.5,82.5C 56.5274,80.8475 63.8608,80.0141 71.5,80C 68.7187,79.4782 66.3854,78.3115 64.5,76.5 Z"/></g>
<g><path style="opacity:1" fill="#c59c3c" d="M 129.5,85.5 C 125.085,85.8606 121.085,87.1939 117.5,89.5C 116.5,89.5 115.5,89.5 114.5,89.5C 112.452,90.77 110.452,91.1033 108.5,90.5C 114.578,87.8606 120.578,84.8606 126.5,81.5C 125.74,79.6396 124.74,77.973 123.5,76.5C 124.167,76.5 124.5,76.1667 124.5,75.5C 125.167,75.1667 125.833,74.8333 126.5,74.5C 127.423,73.6971 128.423,73.5304 129.5,74C 128.672,74.9147 127.672,75.5814 126.5,76C 130.928,76.587 135.261,77.587 139.5,79C 136.167,79.3333 132.833,79.6667 129.5,80C 128.248,81.8278 128.248,83.6612 129.5,85.5 Z"/></g>
<g><path style="opacity:1" fill="#eae7b7" d="M 148.5,69.5 C 150.326,71.4551 150.826,73.7884 150,76.5C 148.122,78.6801 145.956,80.5135 143.5,82C 144.872,83.2419 145.872,84.7419 146.5,86.5C 145.197,88.9371 143.53,91.1038 141.5,93C 139.063,93.2035 136.729,94.0368 134.5,95.5C 133.663,97.7452 133.663,100.245 134.5,103C 134.361,104.301 133.695,105.134 132.5,105.5C 132.5,102.833 132.5,100.167 132.5,97.5C 133.201,95.4123 134.201,93.4123 135.5,91.5C 136.167,91.5 136.5,91.1667 136.5,90.5C 137.434,89.4324 137.768,88.099 137.5,86.5C 135.585,86.7845 133.919,86.4511 132.5,85.5C 135.792,85.3531 138.792,84.3531 141.5,82.5C 142.161,81.2825 142.828,79.9492 143.5,78.5C 147.915,77.0927 149.582,74.0927 148.5,69.5 Z"/></g>
<g><path style="opacity:1" fill="#c7a563" d="M 88.5,87.5 C 89.0093,88.3413 88.3427,88.8413 86.5,89C 88.2556,89.2022 89.9223,89.7022 91.5,90.5C 89.2692,90.8867 86.9359,91.0534 84.5,91C 85.9423,91.3768 86.9423,92.2101 87.5,93.5C 86.391,93.5569 85.391,93.8902 84.5,94.5C 84.1667,94.5 83.8333,94.5 83.5,94.5C 83.5,93.1667 83.5,91.8333 83.5,90.5C 82.5,90.5 81.5,90.5 80.5,90.5C 80.6882,92.1033 80.1882,93.4366 79,94.5C 77.9562,92.2852 77.2895,89.9519 77,87.5C 75.1862,86.2404 73.3529,86.2404 71.5,87.5C 72.7087,90.3204 71.7087,91.9871 68.5,92.5C 68.7512,90.8297 69.4178,89.3297 70.5,88C 69.1456,86.7063 67.8123,86.5396 66.5,87.5C 65.4173,86.635 65.2506,85.635 66,84.5C 67.0495,85.5171 68.2161,85.6838 69.5,85C 68.2888,84.1072 68.2888,83.2739 69.5,82.5C 75.8212,84.3299 82.1545,85.9966 88.5,87.5 Z"/></g>
<g><path style="opacity:1" fill="#d8cb7e" d="M 102.5,76.5 C 102.5,77.5 102.5,78.5 102.5,79.5C 98.9319,79.7593 97.5985,81.7593 98.5,85.5C 100.833,85.5 103.167,85.5 105.5,85.5C 103.114,87.1762 100.447,88.5095 97.5,89.5C 99.3316,90.0568 100.665,91.0568 101.5,92.5C 101.167,92.5 100.833,92.5 100.5,92.5C 98.5648,93.1495 96.5648,93.4828 94.5,93.5C 95.3739,90.2107 96.0405,86.8774 96.5,83.5C 94.3043,83.4348 92.3043,82.7681 90.5,81.5C 92.9688,80.8319 95.3021,80.1653 97.5,79.5C 97.5,79.1667 97.5,78.8333 97.5,78.5C 98.8734,78.6567 100.207,78.49 101.5,78C 100.16,75.8215 100.493,75.3215 102.5,76.5 Z"/></g>
<g><path style="opacity:1" fill="#bbb56c" d="M 123.5,76.5 C 124.74,77.973 125.74,79.6396 126.5,81.5C 120.578,84.8606 114.578,87.8606 108.5,90.5C 106.106,91.0147 103.772,91.6814 101.5,92.5C 100.665,91.0568 99.3316,90.0568 97.5,89.5C 100.447,88.5095 103.114,87.1762 105.5,85.5C 108.343,84.2289 111.343,83.3955 114.5,83C 117.379,80.6148 120.379,78.4482 123.5,76.5 Z"/></g>
<g><path style="opacity:1" fill="#cab172" d="M 129.5,85.5 C 130.5,85.5 131.5,85.5 132.5,85.5C 133.919,86.4511 135.585,86.7845 137.5,86.5C 137.768,88.099 137.434,89.4324 136.5,90.5C 133.592,89.8407 133.258,89.0074 135.5,88C 132.12,87.0623 129.12,87.729 126.5,90C 128.076,90.4396 129.41,91.273 130.5,92.5C 132.071,91.6906 133.738,91.3573 135.5,91.5C 134.201,93.4123 133.201,95.4123 132.5,97.5C 128.878,96.3948 125.211,95.3948 121.5,94.5C 120.492,92.5008 119.159,90.8342 117.5,89.5C 121.085,87.1939 125.085,85.8606 129.5,85.5 Z"/></g>
<g><path style="opacity:1" fill="#e0c07e" d="M 49.5,82.5 C 52.2186,83.913 55.2186,84.5797 58.5,84.5C 58.3601,86.1238 59.0267,87.2904 60.5,88C 59.1667,88.6667 57.8333,89.3333 56.5,90C 58.8333,90.3333 61.1667,90.6667 63.5,91C 59.7356,92.4213 59.7356,93.9213 63.5,95.5C 62.5,95.8333 61.8333,96.5 61.5,97.5C 57.9605,96.2116 56.7939,97.5449 58,101.5C 60.6834,106.078 64.5168,109.078 69.5,110.5C 68.1667,110.5 66.8333,110.5 65.5,110.5C 60.6957,105.829 55.6957,101.495 50.5,97.5C 49.7659,96.2921 49.4326,94.9587 49.5,93.5C 49.4894,91.9826 48.8228,90.8159 47.5,90C 48.1233,87.3927 48.79,84.8927 49.5,82.5 Z"/></g>
<g><path style="opacity:1" fill="#c4993b" d="M 72.5,79.5 C 75.8333,79.5 79.1667,79.5 82.5,79.5C 87.5,79.5 92.5,79.5 97.5,79.5C 95.3021,80.1653 92.9688,80.8319 90.5,81.5C 92.3043,82.7681 94.3043,83.4348 96.5,83.5C 96.0405,86.8774 95.3739,90.2107 94.5,93.5C 94.1667,93.5 93.8333,93.5 93.5,93.5C 91.5,93.5 89.5,93.5 87.5,93.5C 86.9423,92.2101 85.9423,91.3768 84.5,91C 86.9359,91.0534 89.2692,90.8867 91.5,90.5C 89.9223,89.7022 88.2556,89.2022 86.5,89C 88.3427,88.8413 89.0093,88.3413 88.5,87.5C 88.8541,85.4588 88.8541,83.6255 88.5,82C 83.0439,81.0553 77.7106,80.222 72.5,79.5 Z"/></g>
<g><path style="opacity:0.967" fill="#eff1c8" d="M 26.5,74.5 C 27.1667,74.8333 27.8333,75.1667 28.5,75.5C 29.0798,77.7488 30.4131,79.4154 32.5,80.5C 33.7175,81.1614 35.0508,81.8281 36.5,82.5C 35.2515,85.4937 35.2515,88.4937 36.5,91.5C 37.5272,90.2086 38.5272,90.2086 39.5,91.5C 40.4293,92.3149 41.4293,93.1482 42.5,94C 41.6198,95.3561 41.2865,96.8561 41.5,98.5C 40.2209,97.032 38.5542,96.3653 36.5,96.5C 36.8841,98.6648 36.2174,100.332 34.5,101.5C 31.8121,100.995 29.6454,99.6618 28,97.5C 26.0065,89.661 25.5065,81.9943 26.5,74.5 Z"/></g>
<g><path style="opacity:1" fill="#be9c4f" d="M 136.5,90.5 C 136.5,91.1667 136.167,91.5 135.5,91.5C 133.738,91.3573 132.071,91.6906 130.5,92.5C 129.41,91.273 128.076,90.4396 126.5,90C 129.12,87.729 132.12,87.0623 135.5,88C 133.258,89.0074 133.592,89.8407 136.5,90.5 Z"/></g>
<g><path style="opacity:1" fill="#cb7f21" d="M 114.5,89.5 C 114.5,90.1667 114.5,90.8333 114.5,91.5C 113.791,92.404 112.791,92.7373 111.5,92.5C 110.596,93.209 110.263,94.209 110.5,95.5C 108.549,95.7733 107.049,95.1066 106,93.5C 104.363,94.8329 103.529,96.1663 103.5,97.5C 101.738,96.3115 100.738,94.6449 100.5,92.5C 100.833,92.5 101.167,92.5 101.5,92.5C 103.772,91.6814 106.106,91.0147 108.5,90.5C 110.452,91.1033 112.452,90.77 114.5,89.5 Z"/></g>
<g><path style="opacity:1" fill="#e8e4bc" d="M 49.5,93.5 C 49.4326,94.9587 49.7659,96.2921 50.5,97.5C 50.822,99.7224 50.1554,101.556 48.5,103C 50.4812,103.605 50.8146,104.605 49.5,106C 51.0846,106.085 52.4179,106.251 53.5,106.5C 52.3112,107.429 50.9778,107.762 49.5,107.5C 49.5271,109.199 50.1938,110.533 51.5,111.5C 47.5294,111.515 44.5294,109.848 42.5,106.5C 42.5627,103.867 42.2294,101.201 41.5,98.5C 41.2865,96.8561 41.6198,95.3561 42.5,94C 41.4293,93.1482 40.4293,92.3149 39.5,91.5C 40.2389,91.631 40.9056,91.4643 41.5,91C 40.3279,90.5814 39.3279,89.9147 38.5,89C 40.1667,88.3333 41.8333,88.3333 43.5,89C 43.1667,89.3333 42.8333,89.6667 42.5,90C 45.4042,90.1328 47.7376,91.2995 49.5,93.5 Z"/></g>
<g><path style="opacity:1" fill="#e0bf7f" d="M 83.5,94.5 C 83.2148,96.288 83.5481,97.9547 84.5,99.5C 85.8448,100.347 86.8448,101.513 87.5,103C 86.3012,104.694 84.9678,106.194 83.5,107.5C 81.9519,107.821 81.2852,108.821 81.5,110.5C 78.7097,110.222 76.2097,110.889 74,112.5C 72.2725,112.101 70.7725,111.434 69.5,110.5C 72.8934,110.938 75.8934,110.105 78.5,108C 77.6919,107.692 77.0253,107.192 76.5,106.5C 77.6477,104.851 78.981,103.351 80.5,102C 77.0707,100.452 73.904,100.618 71,102.5C 67.5594,101.198 64.3927,99.5314 61.5,97.5C 61.8333,96.5 62.5,95.8333 63.5,95.5C 65.2624,95.3573 66.9291,95.6906 68.5,96.5C 68.9798,94.8448 68.9798,93.5115 68.5,92.5C 71.7087,91.9871 72.7087,90.3204 71.5,87.5C 73.3529,86.2404 75.1862,86.2404 77,87.5C 77.2895,89.9519 77.9562,92.2852 79,94.5C 80.1882,93.4366 80.6882,92.1033 80.5,90.5C 81.5,90.5 82.5,90.5 83.5,90.5C 83.5,91.8333 83.5,93.1667 83.5,94.5 Z"/></g>
<g><path style="opacity:1" fill="#ceab5c" d="M 114.5,91.5 C 116.084,92.3818 117.751,93.2152 119.5,94C 119.043,94.414 118.709,94.914 118.5,95.5C 120.359,97.1924 122.359,98.6924 124.5,100C 121.419,99.6345 118.586,98.4678 116,96.5C 115.667,98.1667 115.333,99.8333 115,101.5C 114.329,102.252 113.496,102.586 112.5,102.5C 110.771,101.764 109.771,100.43 109.5,98.5C 111.153,97.2006 112.653,97.5339 114,99.5C 115.084,96.3411 114.25,94.0078 111.5,92.5C 112.791,92.7373 113.791,92.404 114.5,91.5 Z"/></g>
<g><path style="opacity:1" fill="#d47e1b" d="M 87.5,93.5 C 89.5,93.5 91.5,93.5 93.5,93.5C 94.347,94.9663 95.6803,95.7996 97.5,96C 95.3645,96.8763 94.0312,98.3763 93.5,100.5C 89.5771,100.076 86.5771,99.0764 84.5,97.5C 84.5,96.5 84.5,95.5 84.5,94.5C 85.391,93.8902 86.391,93.5569 87.5,93.5 Z"/></g>
<g><path style="opacity:1" fill="#e9b560" d="M 100.5,92.5 C 100.738,94.6449 101.738,96.3115 103.5,97.5C 103.529,96.1663 104.363,94.8329 106,93.5C 107.049,95.1066 108.549,95.7733 110.5,95.5C 110.263,94.209 110.596,93.209 111.5,92.5C 114.25,94.0078 115.084,96.3411 114,99.5C 112.653,97.5339 111.153,97.2006 109.5,98.5C 107.176,100.651 104.676,102.651 102,104.5C 101.517,103.552 101.351,102.552 101.5,101.5C 99.5,101.5 97.5,101.5 95.5,101.5C 95.1583,100.662 94.4916,100.328 93.5,100.5C 94.0312,98.3763 95.3645,96.8763 97.5,96C 95.6803,95.7996 94.347,94.9663 93.5,93.5C 93.8333,93.5 94.1667,93.5 94.5,93.5C 96.5648,93.4828 98.5648,93.1495 100.5,92.5 Z"/></g>
<g><path style="opacity:1" fill="#e1ca89" d="M 114.5,89.5 C 115.5,89.5 116.5,89.5 117.5,89.5C 119.159,90.8342 120.492,92.5008 121.5,94.5C 125.211,95.3948 128.878,96.3948 132.5,97.5C 132.5,100.167 132.5,102.833 132.5,105.5C 131.068,109.208 128.402,111.541 124.5,112.5C 123.761,112.631 123.094,112.464 122.5,112C 125.822,110.177 128.489,107.677 130.5,104.5C 130.069,103.707 129.735,102.873 129.5,102C 130.627,100.943 131.127,99.7766 131,98.5C 127.727,99.9494 124.894,101.949 122.5,104.5C 121.614,105.325 121.281,106.325 121.5,107.5C 118.545,108.159 115.545,108.492 112.5,108.5C 110.94,106.871 111.273,105.704 113.5,105C 112.376,104.751 111.376,104.251 110.5,103.5C 110.957,102.702 111.624,102.369 112.5,102.5C 113.496,102.586 114.329,102.252 115,101.5C 115.333,99.8333 115.667,98.1667 116,96.5C 118.586,98.4678 121.419,99.6345 124.5,100C 122.359,98.6924 120.359,97.1924 118.5,95.5C 118.709,94.914 119.043,94.414 119.5,94C 117.751,93.2152 116.084,92.3818 114.5,91.5C 114.5,90.8333 114.5,90.1667 114.5,89.5 Z"/></g>
<g><path style="opacity:1" fill="#cd913d" d="M 83.5,94.5 C 83.8333,94.5 84.1667,94.5 84.5,94.5C 84.5,95.5 84.5,96.5 84.5,97.5C 86.5771,99.0764 89.5771,100.076 93.5,100.5C 94.4916,100.328 95.1583,100.662 95.5,101.5C 93.1084,103.447 90.1084,105.447 86.5,107.5C 85.5,107.5 84.5,107.5 83.5,107.5C 84.9678,106.194 86.3012,104.694 87.5,103C 86.8448,101.513 85.8448,100.347 84.5,99.5C 83.5481,97.9547 83.2148,96.288 83.5,94.5 Z"/></g>
<g><path style="opacity:1" fill="#eacc90" d="M 61.5,97.5 C 64.3927,99.5314 67.5594,101.198 71,102.5C 73.904,100.618 77.0707,100.452 80.5,102C 78.981,103.351 77.6477,104.851 76.5,106.5C 77.0253,107.192 77.6919,107.692 78.5,108C 75.8934,110.105 72.8934,110.938 69.5,110.5C 64.5168,109.078 60.6834,106.078 58,101.5C 56.7939,97.5449 57.9605,96.2116 61.5,97.5 Z"/></g>
<g><path style="opacity:1" fill="#e2bc77" d="M 109.5,98.5 C 109.771,100.43 110.771,101.764 112.5,102.5C 111.624,102.369 110.957,102.702 110.5,103.5C 111.376,104.251 112.376,104.751 113.5,105C 111.273,105.704 110.94,106.871 112.5,108.5C 110.084,107.032 107.417,106.365 104.5,106.5C 103.584,106.018 102.584,105.685 101.5,105.5C 96.6463,108.231 91.6463,108.898 86.5,107.5C 90.1084,105.447 93.1084,103.447 95.5,101.5C 97.5,101.5 99.5,101.5 101.5,101.5C 101.351,102.552 101.517,103.552 102,104.5C 104.676,102.651 107.176,100.651 109.5,98.5 Z"/></g>
<g><path style="opacity:1" fill="#e8dfb9" d="M 50.5,97.5 C 55.6957,101.495 60.6957,105.829 65.5,110.5C 62.4199,112.107 59.0866,113.107 55.5,113.5C 53.6455,113.66 52.3121,112.993 51.5,111.5C 50.1938,110.533 49.5271,109.199 49.5,107.5C 50.9778,107.762 52.3112,107.429 53.5,106.5C 52.4179,106.251 51.0846,106.085 49.5,106C 50.8146,104.605 50.4812,103.605 48.5,103C 50.1554,101.556 50.822,99.7224 50.5,97.5 Z"/></g>
<g><path style="opacity:1" fill="#efe0af" d="M 124.5,112.5 C 123.859,113.482 123.193,114.482 122.5,115.5C 117.289,117.122 112.289,119.122 107.5,121.5C 107.937,119.926 108.937,118.759 110.5,118C 109.552,117.517 108.552,117.351 107.5,117.5C 107.5,115.167 107.5,112.833 107.5,110.5C 106.448,110.649 105.448,110.483 104.5,110C 105.833,109.667 107.167,109.333 108.5,109C 107.975,108.308 107.308,107.808 106.5,107.5C 104.902,108.485 103.235,108.651 101.5,108C 102.737,107.768 103.737,107.268 104.5,106.5C 107.417,106.365 110.084,107.032 112.5,108.5C 115.545,108.492 118.545,108.159 121.5,107.5C 121.281,106.325 121.614,105.325 122.5,104.5C 124.894,101.949 127.727,99.9494 131,98.5C 131.127,99.7766 130.627,100.943 129.5,102C 129.735,102.873 130.069,103.707 130.5,104.5C 128.489,107.677 125.822,110.177 122.5,112C 123.094,112.464 123.761,112.631 124.5,112.5 Z"/></g>
<g><path style="opacity:1" fill="#ead19c" d="M 104.5,106.5 C 103.737,107.268 102.737,107.768 101.5,108C 103.235,108.651 104.902,108.485 106.5,107.5C 107.308,107.808 107.975,108.308 108.5,109C 107.167,109.333 105.833,109.667 104.5,110C 105.448,110.483 106.448,110.649 107.5,110.5C 107.5,112.833 107.5,115.167 107.5,117.5C 108.552,117.351 109.552,117.517 110.5,118C 108.937,118.759 107.937,119.926 107.5,121.5C 106.209,121.737 105.209,121.404 104.5,120.5C 103.081,119.549 101.415,119.216 99.5,119.5C 100.263,118.732 101.263,118.232 102.5,118C 99.5809,115.052 99.9142,112.552 103.5,110.5C 101.167,109.167 98.8333,109.167 96.5,110.5C 94.5542,112.104 92.3876,113.437 90,114.5C 88.6998,113.293 87.1998,112.626 85.5,112.5C 84.4863,111.326 83.153,110.66 81.5,110.5C 81.2852,108.821 81.9519,107.821 83.5,107.5C 84.5,107.5 85.5,107.5 86.5,107.5C 91.6463,108.898 96.6463,108.231 101.5,105.5C 102.584,105.685 103.584,106.018 104.5,106.5 Z"/></g>
<g><path style="opacity:1" fill="#f0dcaa" d="M 99.5,119.5 C 98.5,119.5 97.5,119.5 96.5,119.5C 94.8008,119.66 93.1341,119.494 91.5,119C 92.6956,118.346 92.6956,117.846 91.5,117.5C 89.1642,119.585 86.8309,119.751 84.5,118C 88.7668,117.013 89.1002,116.179 85.5,115.5C 85.5,114.5 85.5,113.5 85.5,112.5C 87.1998,112.626 88.6998,113.293 90,114.5C 92.3876,113.437 94.5542,112.104 96.5,110.5C 98.8333,109.167 101.167,109.167 103.5,110.5C 99.9142,112.552 99.5809,115.052 102.5,118C 101.263,118.232 100.263,118.732 99.5,119.5 Z"/></g>
<g><path style="opacity:1" fill="#ebd8a7" d="M 65.5,110.5 C 66.8333,110.5 68.1667,110.5 69.5,110.5C 70.7725,111.434 72.2725,112.101 74,112.5C 76.2097,110.889 78.7097,110.222 81.5,110.5C 83.153,110.66 84.4863,111.326 85.5,112.5C 85.5,113.5 85.5,114.5 85.5,115.5C 89.1002,116.179 88.7668,117.013 84.5,118C 86.8309,119.751 89.1642,119.585 91.5,117.5C 92.6956,117.846 92.6956,118.346 91.5,119C 93.1341,119.494 94.8008,119.66 96.5,119.5C 92.0181,120.326 87.3514,120.826 82.5,121C 83.7375,121.232 84.7375,121.732 85.5,122.5C 82.059,122.699 78.7256,122.199 75.5,121C 72.2661,117.33 68.9328,113.83 65.5,110.5 Z"/></g>
<g><path style="opacity:1" fill="#bca573" d="M 96.5,119.5 C 97.5,119.5 98.5,119.5 99.5,119.5C 101.415,119.216 103.081,119.549 104.5,120.5C 103.167,120.5 101.833,120.5 100.5,120.5C 96.3357,120.956 92.3357,121.622 88.5,122.5C 87.5,122.5 86.5,122.5 85.5,122.5C 84.7375,121.732 83.7375,121.232 82.5,121C 87.3514,120.826 92.0181,120.326 96.5,119.5 Z"/></g>
<g><path style="opacity:0.015" fill="#f1f1cf" d="M 100.5,120.5 C 97.8211,122.604 94.8211,124.271 91.5,125.5C 90.3961,124.369 90.7295,123.535 92.5,123C 91.2068,122.51 89.8734,122.343 88.5,122.5C 92.3357,121.622 96.3357,120.956 100.5,120.5 Z"/></g>
<g><path style="opacity:0.72" fill="#45dbb2" d="M 103.5,133.5 C 105.451,133.227 106.951,133.893 108,135.5C 108.755,138.688 109.589,141.855 110.5,145C 108.265,146.645 107.265,145.812 107.5,142.5C 106.5,142.5 105.5,142.5 104.5,142.5C 104.553,145.061 103.553,147.061 101.5,148.5C 100.808,146.665 101.142,144.832 102.5,143C 97.0701,139.254 97.4034,136.087 103.5,133.5 Z M 102.5,136.5 C 105.5,136.167 106.833,137.5 106.5,140.5C 102.56,141.234 101.227,139.901 102.5,136.5 Z"/></g>
<g><path style="opacity:0.679" fill="#45dab2" d="M 84.5,134.5 C 90.5,133.833 93.1667,136.5 92.5,142.5C 89.4816,142.335 86.4816,142.502 83.5,143C 85.9778,146.119 88.6445,146.286 91.5,143.5C 92.6065,146.699 91.2732,148.365 87.5,148.5C 81.8098,146.973 79.9764,143.306 82,137.5C 83.045,136.627 83.8783,135.627 84.5,134.5 Z M 85.5,136.5 C 87.9124,136.244 89.5791,137.244 90.5,139.5C 88.2351,140.647 85.9018,140.814 83.5,140C 84.305,138.887 84.9717,137.721 85.5,136.5 Z"/></g>
<g><path style="opacity:0.719" fill="#45dab2" d="M 65.5,130.5 C 68.4509,130.108 71.4509,130.608 74.5,132C 77.6287,141.698 74.2954,145.531 64.5,143.5C 64.5,144.833 64.5,146.167 64.5,147.5C 63.448,147.649 62.448,147.483 61.5,147C 63.1482,141.596 64.4816,136.096 65.5,130.5 Z M 68.5,133.5 C 73.7365,133.99 74.9032,136.657 72,141.5C 68.7175,142.911 66.8842,141.745 66.5,138C 66.5186,136.167 67.1852,134.667 68.5,133.5 Z"/></g>
</svg>
