<?xml version="1.0" encoding="UTF-8"?>
<!DOCTYPE svg PUBLIC "-//W3C//DTD SVG 1.1//EN" "http://www.w3.org/Graphics/SVG/1.1/DTD/svg11.dtd">
<svg xmlns="http://www.w3.org/2000/svg" version="1.1" width="175px" height="175px" style="shape-rendering:geometricPrecision; text-rendering:geometricPrecision; image-rendering:optimizeQuality; fill-rule:evenodd; clip-rule:evenodd" xmlns:xlink="http://www.w3.org/1999/xlink">
<g><path style="opacity:0.792" fill="#49daaa" d="M 79.5,20.5 C 82.0961,21.2653 84.7628,21.5987 87.5,21.5C 87.0728,25.8244 86.7395,30.1578 86.5,34.5C 85.5,34.5 84.5,34.5 83.5,34.5C 83.9376,30.9277 84.6042,27.4277 85.5,24C 83.8876,23.2797 82.3876,23.4464 81,24.5C 81.1212,28.5992 79.4545,31.5992 76,33.5C 75.5,33.1667 75,32.8333 74.5,32.5C 75.2421,31.7132 76.0754,31.0465 77,30.5C 77.9433,27.1555 78.7766,23.8221 79.5,20.5 Z"/></g>
<g><path style="opacity:0.786" fill="#49d9a9" d="M 61.5,22.5 C 68.2701,20.937 71.2701,23.6037 70.5,30.5C 70.1667,32.1667 69.8333,33.8333 69.5,35.5C 66.9982,35.3787 64.3315,35.2121 61.5,35C 59.7888,33.8668 59.2888,32.3668 60,30.5C 62.3407,28.4785 64.8407,26.8119 67.5,25.5C 66.8333,25.1667 66.1667,24.8333 65.5,24.5C 63.6772,25.8449 61.6772,26.3449 59.5,26C 60.305,24.8873 60.9717,23.7206 61.5,22.5 Z M 64.5,29.5 C 68.8762,28.8876 69.5429,30.0543 66.5,33C 65.2068,33.49 63.8734,33.6567 62.5,33.5C 62.5271,31.8007 63.1938,30.4674 64.5,29.5 Z"/></g>
<g><path style="opacity:0.773" fill="#49daaa" d="M 97.5,23.5 C 103.677,24.024 106.01,27.3573 104.5,33.5C 101.523,32.9292 98.6897,31.9292 96,30.5C 95.3804,34.6902 97.0471,36.0236 101,34.5C 102.257,34.8499 102.591,35.5165 102,36.5C 95.4766,38.6404 92.4766,36.3071 93,29.5C 93.8041,26.8541 95.3041,24.8541 97.5,23.5 Z M 97.5,26.5 C 101.419,25.7464 102.753,27.0797 101.5,30.5C 99.8333,29.6667 98.1667,28.8333 96.5,28C 97.056,27.6174 97.3893,27.1174 97.5,26.5 Z"/></g>
<g><path style="opacity:0.667" fill="#49d9a8" d="M 51.5,25.5 C 52.675,25.281 53.675,25.6143 54.5,26.5C 52.8474,28.1214 50.8474,29.2881 48.5,30C 50.5721,33.3406 51.2388,36.8406 50.5,40.5C 48.5456,36.8077 46.879,32.9743 45.5,29C 47.4319,27.5415 49.4319,26.3748 51.5,25.5 Z"/></g>
<g><path style="opacity:0.007" fill="#fafacf" d="M 44.5,49.5 C 40.4496,50.7477 36.4496,52.4144 32.5,54.5C 29.9243,57.4006 28.2576,60.734 27.5,64.5C 25.8333,65.5 24.5,66.8333 23.5,68.5C 22.8333,68.8333 22.1667,69.1667 21.5,69.5C 21.1019,65.2861 22.1019,61.4528 24.5,58C 24.1955,54.53 25.5288,51.53 28.5,49C 33.0988,46.2199 37.7655,44.3866 42.5,43.5C 44.0863,45.1727 44.7529,47.1727 44.5,49.5 Z"/></g>
<g><path style="opacity:1" fill="#e0e0a9" d="M 79.5,58.5 C 77.5193,60.1436 75.5193,61.8103 73.5,63.5C 72.5713,62.3112 72.238,60.9778 72.5,59.5C 72.9175,58.7784 73.5842,58.2784 74.5,58C 72.735,57.3603 71.0683,57.5269 69.5,58.5C 69.5,57.5 69.5,56.5 69.5,55.5C 68.1667,55.5 66.8333,55.5 65.5,55.5C 66.7175,54.8386 68.0508,54.1719 69.5,53.5C 68.2044,51.4208 66.5378,49.7541 64.5,48.5C 65.7287,47.7189 67.062,47.2189 68.5,47C 66.563,46.8784 65.2297,46.045 64.5,44.5C 70.3607,43.1996 75.6941,44.3662 80.5,48C 81.3254,50.7701 81.6588,53.4367 81.5,56C 80.6195,56.7083 79.9528,57.5416 79.5,58.5 Z"/></g>
<g><path style="opacity:1" fill="#e4e4ad" d="M 64.5,44.5 C 65.2297,46.045 66.563,46.8784 68.5,47C 67.062,47.2189 65.7287,47.7189 64.5,48.5C 66.5378,49.7541 68.2044,51.4208 69.5,53.5C 68.0508,54.1719 66.7175,54.8386 65.5,55.5C 63.5,56.1667 61.5,56.8333 59.5,57.5C 58.596,56.791 58.2627,55.791 58.5,54.5C 55.2935,55.1517 51.9602,54.985 48.5,54C 47.0267,53.2904 46.3601,52.1238 46.5,50.5C 47.675,50.719 48.675,50.3857 49.5,49.5C 49.1667,49.1667 48.8333,48.8333 48.5,48.5C 47.5832,49.1272 46.5832,49.4606 45.5,49.5C 47.1757,47.1663 49.509,46.1663 52.5,46.5C 52.56,47.0431 52.8933,47.3764 53.5,47.5C 56.942,45.6085 60.6087,44.6085 64.5,44.5 Z"/></g>
<g><path style="opacity:1" fill="#d5d190" d="M 95.5,58.5 C 90.4528,59.9602 85.4528,61.6268 80.5,63.5C 78.5096,63.0069 78.5096,61.8402 80.5,60C 79.944,59.6174 79.6107,59.1174 79.5,58.5C 79.9528,57.5416 80.6195,56.7083 81.5,56C 81.6588,53.4367 81.3254,50.7701 80.5,48C 75.6941,44.3662 70.3607,43.1996 64.5,44.5C 60.6087,44.6085 56.942,45.6085 53.5,47.5C 52.8933,47.3764 52.56,47.0431 52.5,46.5C 54.0188,45.5902 55.6854,44.7568 57.5,44C 56.3044,43.3457 56.3044,42.8457 57.5,42.5C 60.1687,43.181 62.8353,42.8477 65.5,41.5C 68.0963,42.2129 70.7629,42.2129 73.5,41.5C 76.7786,40.5078 80.1119,40.3412 83.5,41C 85.5315,44.1171 87.1982,47.4504 88.5,51C 88.0946,51.9454 87.428,52.6121 86.5,53C 88.1667,54.3333 89.8333,55.6667 91.5,57C 93.1124,57.7203 94.6124,57.5536 96,56.5C 96.6917,57.4368 96.525,58.1034 95.5,58.5 Z"/></g>
<g><path style="opacity:1" fill="#e4e0a1" d="M 116.5,55.5 C 116.414,56.4959 116.748,57.3292 117.5,58C 112.969,60.9325 107.969,62.0992 102.5,61.5C 103.463,60.6365 103.463,59.9698 102.5,59.5C 100.626,61.6046 98.2927,62.938 95.5,63.5C 94.528,62.2486 93.8614,62.582 93.5,64.5C 93.685,65.5837 94.0183,66.5837 94.5,67.5C 93.4324,68.4345 92.099,68.7678 90.5,68.5C 90.6646,66.1732 91.3313,64.0065 92.5,62C 92.1667,61.6667 91.8333,61.3333 91.5,61C 93.3197,60.7996 94.653,59.9663 95.5,58.5C 96.525,58.1034 96.6917,57.4368 96,56.5C 94.6124,57.5536 93.1124,57.7203 91.5,57C 89.8333,55.6667 88.1667,54.3333 86.5,53C 87.428,52.6121 88.0946,51.9454 88.5,51C 87.1982,47.4504 85.5315,44.1171 83.5,41C 80.1119,40.3412 76.7786,40.5078 73.5,41.5C 74.1217,40.3734 74.955,39.3734 76,38.5C 79.7998,39.1987 83.6331,39.8653 87.5,40.5C 93.177,39.9148 98.8437,40.4148 104.5,42C 108.342,44.0017 112.342,45.5017 116.5,46.5C 116.561,49.0495 117.894,50.5495 120.5,51C 119.167,51.3333 117.833,51.6667 116.5,52C 117.684,53.1455 117.684,54.3121 116.5,55.5 Z"/></g>
<g><path style="opacity:1" fill="#e3dca4" d="M 46.5,50.5 C 46.3601,52.1238 47.0267,53.2904 48.5,54C 51.9602,54.985 55.2935,55.1517 58.5,54.5C 58.2627,55.791 58.596,56.791 59.5,57.5C 58.0512,59.1644 56.0512,59.9977 53.5,60C 51.7571,61.1095 50.4238,62.6095 49.5,64.5C 48.8333,64.1667 48.1667,63.8333 47.5,63.5C 45.399,66.761 42.399,68.5943 38.5,69C 39.1667,69.6667 39.8333,70.3333 40.5,71C 38.0014,71.286 35.8348,71.1193 34,70.5C 33.3946,72.4812 32.3946,72.8146 31,71.5C 30.7046,74.4319 29.2046,76.4319 26.5,77.5C 25.6143,76.675 25.281,75.675 25.5,74.5C 26.675,74.719 27.675,74.3857 28.5,73.5C 27.2713,72.7189 25.938,72.2189 24.5,72C 25.6872,70.9805 26.6872,69.8139 27.5,68.5C 25.6745,67.4291 24.5079,68.0958 24,70.5C 23.5357,69.9056 23.369,69.2389 23.5,68.5C 24.5,66.8333 25.8333,65.5 27.5,64.5C 28.8175,64.821 30.1508,65.1543 31.5,65.5C 34.6322,64.1898 37.4655,62.5231 40,60.5C 41.2613,60.7591 42.2613,61.4258 43,62.5C 44.6883,61.6753 44.8549,60.6753 43.5,59.5C 44.7366,58.7193 45.7366,57.7193 46.5,56.5C 45.376,55.086 44.376,53.586 43.5,52C 44.5266,51.4867 45.5266,50.9867 46.5,50.5 Z"/></g>
<g><path style="opacity:1" fill="#ddd297" d="M 46.5,50.5 C 45.5266,50.9867 44.5266,51.4867 43.5,52C 44.376,53.586 45.376,55.086 46.5,56.5C 45.7366,57.7193 44.7366,58.7193 43.5,59.5C 44.8549,60.6753 44.6883,61.6753 43,62.5C 42.2613,61.4258 41.2613,60.7591 40,60.5C 37.4655,62.5231 34.6322,64.1898 31.5,65.5C 30.1508,65.1543 28.8175,64.821 27.5,64.5C 28.2576,60.734 29.9243,57.4006 32.5,54.5C 36.4496,52.4144 40.4496,50.7477 44.5,49.5C 44.8333,49.5 45.1667,49.5 45.5,49.5C 46.5832,49.4606 47.5832,49.1272 48.5,48.5C 48.8333,48.8333 49.1667,49.1667 49.5,49.5C 48.675,50.3857 47.675,50.719 46.5,50.5 Z"/></g>
<g><path style="opacity:1" fill="#beb375" d="M 102.5,61.5 C 101.903,61.7352 101.57,62.2352 101.5,63C 101.978,64.3026 102.645,65.4693 103.5,66.5C 100.351,66.5848 97.6845,65.5848 95.5,63.5C 98.2927,62.938 100.626,61.6046 102.5,59.5C 103.463,59.9698 103.463,60.6365 102.5,61.5 Z"/></g>
<g><path style="opacity:1" fill="#ece9ba" d="M 116.5,55.5 C 117.962,56.4577 119.295,57.6244 120.5,59C 125.053,60.4277 129.553,61.9277 134,63.5C 135.492,67.3053 136.992,71.1387 138.5,75C 138.043,75.414 137.709,75.914 137.5,76.5C 138.628,77.2621 139.795,77.9288 141,78.5C 141.833,81 142.667,83.5 143.5,86C 143.43,86.7648 143.097,87.2648 142.5,87.5C 142.5,86.8333 142.167,86.5 141.5,86.5C 141.158,85.6618 140.492,85.3284 139.5,85.5C 139.5,84.1667 139.5,82.8333 139.5,81.5C 138.448,81.3505 137.448,81.5172 136.5,82C 137.756,82.4169 138.423,83.2502 138.5,84.5C 135.14,85.2096 133.307,83.8762 133,80.5C 129.238,78.9801 125.405,77.6468 121.5,76.5C 116.097,72.4651 110.097,69.4651 103.5,67.5C 103.5,67.1667 103.5,66.8333 103.5,66.5C 102.645,65.4693 101.978,64.3026 101.5,63C 101.57,62.2352 101.903,61.7352 102.5,61.5C 107.969,62.0992 112.969,60.9325 117.5,58C 116.748,57.3292 116.414,56.4959 116.5,55.5 Z"/></g>
<g><path style="opacity:1" fill="#a4a972" d="M 72.5,59.5 C 70.2433,59.9617 68.2433,60.9617 66.5,62.5C 65.2888,63.2739 65.2888,64.1072 66.5,65C 64.8739,64.8047 63.2072,64.8047 61.5,65C 61.0426,65.414 60.7093,65.914 60.5,66.5C 61.2427,67.1818 61.9094,67.8485 62.5,68.5C 61.209,68.2627 60.209,68.596 59.5,69.5C 57.8212,69.7148 56.8212,69.0481 56.5,67.5C 59.0673,65.9628 59.734,63.7961 58.5,61C 60.0613,60.8119 60.728,61.6453 60.5,63.5C 61.552,63.6495 62.552,63.4828 63.5,63C 65.0354,60.7471 67.0354,59.2471 69.5,58.5C 71.0683,57.5269 72.735,57.3603 74.5,58C 73.5842,58.2784 72.9175,58.7784 72.5,59.5 Z"/></g>
<g><path style="opacity:1" fill="#b2bd91" d="M 79.5,58.5 C 79.6107,59.1174 79.944,59.6174 80.5,60C 78.5096,61.8402 78.5096,63.0069 80.5,63.5C 81.3799,65.3888 81.3799,67.3888 80.5,69.5C 76.8358,69.6395 73.3358,68.9729 70,67.5C 67.5379,68.1595 65.0379,68.4928 62.5,68.5C 61.9094,67.8485 61.2427,67.1818 60.5,66.5C 60.7093,65.914 61.0426,65.414 61.5,65C 63.2072,64.8047 64.8739,64.8047 66.5,65C 65.2888,64.1072 65.2888,63.2739 66.5,62.5C 68.2433,60.9617 70.2433,59.9617 72.5,59.5C 72.238,60.9778 72.5713,62.3112 73.5,63.5C 75.5193,61.8103 77.5193,60.1436 79.5,58.5 Z"/></g>
<g><path style="opacity:1" fill="#b5b481" d="M 95.5,58.5 C 94.653,59.9663 93.3197,60.7996 91.5,61C 91.8333,61.3333 92.1667,61.6667 92.5,62C 91.3313,64.0065 90.6646,66.1732 90.5,68.5C 92.099,68.7678 93.4324,68.4345 94.5,67.5C 94.8333,67.5 95.1667,67.5 95.5,67.5C 96.6662,70.5032 98.3328,73.1698 100.5,75.5C 98.1667,74.8333 95.8333,74.1667 93.5,73.5C 89.7454,70.5837 85.4121,69.2503 80.5,69.5C 81.3799,67.3888 81.3799,65.3888 80.5,63.5C 85.4528,61.6268 90.4528,59.9602 95.5,58.5 Z"/></g>
<g><path style="opacity:1" fill="#cfaf3f" d="M 95.5,63.5 C 97.6845,65.5848 100.351,66.5848 103.5,66.5C 103.5,66.8333 103.5,67.1667 103.5,67.5C 103.03,68.6935 102.03,69.3601 100.5,69.5C 98.6958,69.0135 97.0291,68.3468 95.5,67.5C 95.1667,67.5 94.8333,67.5 94.5,67.5C 94.0183,66.5837 93.685,65.5837 93.5,64.5C 93.8614,62.582 94.528,62.2486 95.5,63.5 Z"/></g>
<g><path style="opacity:1" fill="#dbd49c" d="M 65.5,55.5 C 66.8333,55.5 68.1667,55.5 69.5,55.5C 69.5,56.5 69.5,57.5 69.5,58.5C 67.0354,59.2471 65.0354,60.7471 63.5,63C 62.552,63.4828 61.552,63.6495 60.5,63.5C 60.728,61.6453 60.0613,60.8119 58.5,61C 59.734,63.7961 59.0673,65.9628 56.5,67.5C 54.2776,67.822 52.4443,67.1554 51,65.5C 51.6116,67.752 51.9449,70.0853 52,72.5C 49.9052,74.1247 47.7385,75.4581 45.5,76.5C 43.8525,78.1207 41.8525,79.2874 39.5,80C 41.5252,81.6772 43.8585,82.6772 46.5,83C 47.1667,84.3333 48.1667,85.3333 49.5,86C 49.1667,86.3333 48.8333,86.6667 48.5,87C 50.0581,87.21 51.3915,87.71 52.5,88.5C 48.4004,90.8984 44.7338,90.2317 41.5,86.5C 41.0941,87.5575 41.0941,88.8908 41.5,90.5C 39.4458,90.3653 37.7791,91.032 36.5,92.5C 35.0252,90.3101 33.0252,88.9767 30.5,88.5C 31.7562,88.5386 32.7562,88.0386 33.5,87C 31.9386,86.059 30.6053,84.8924 29.5,83.5C 27.9547,82.5481 26.288,82.2148 24.5,82.5C 24.3832,84.4835 25.0499,86.1502 26.5,87.5C 26.3764,88.1067 26.0431,88.44 25.5,88.5C 22.3815,84.407 20.7148,79.7404 20.5,74.5C 20.366,72.7085 20.6993,71.0418 21.5,69.5C 22.1667,69.1667 22.8333,68.8333 23.5,68.5C 23.369,69.2389 23.5357,69.9056 24,70.5C 24.5079,68.0958 25.6745,67.4291 27.5,68.5C 26.6872,69.8139 25.6872,70.9805 24.5,72C 25.938,72.2189 27.2713,72.7189 28.5,73.5C 27.675,74.3857 26.675,74.719 25.5,74.5C 25.281,75.675 25.6143,76.675 26.5,77.5C 29.2046,76.4319 30.7046,74.4319 31,71.5C 32.3946,72.8146 33.3946,72.4812 34,70.5C 35.8348,71.1193 38.0014,71.286 40.5,71C 39.8333,70.3333 39.1667,69.6667 38.5,69C 42.399,68.5943 45.399,66.761 47.5,63.5C 48.1667,63.8333 48.8333,64.1667 49.5,64.5C 50.4238,62.6095 51.7571,61.1095 53.5,60C 56.0512,59.9977 58.0512,59.1644 59.5,57.5C 61.5,56.8333 63.5,56.1667 65.5,55.5 Z"/></g>
<g><path style="opacity:1" fill="#637642" d="M 56.5,67.5 C 56.8212,69.0481 57.8212,69.7148 59.5,69.5C 59.5394,70.5832 59.8728,71.5832 60.5,72.5C 54.7413,74.3487 53.0746,78.0154 55.5,83.5C 55.4439,85.6397 54.7773,87.3064 53.5,88.5C 52.9408,86.3208 52.2741,84.1542 51.5,82C 52.2335,80.2341 52.5668,78.4008 52.5,76.5C 49.9556,76.1043 47.7889,76.771 46,78.5C 45.5357,77.9056 45.369,77.2389 45.5,76.5C 47.7385,75.4581 49.9052,74.1247 52,72.5C 51.9449,70.0853 51.6116,67.752 51,65.5C 52.4443,67.1554 54.2776,67.822 56.5,67.5 Z"/></g>
<g><path style="opacity:1" fill="#38552c" d="M 80.5,69.5 C 85.4121,69.2503 89.7454,70.5837 93.5,73.5C 90.0523,73.1079 86.8857,73.7746 84,75.5C 82.6043,74.6057 81.1043,73.9391 79.5,73.5C 77.5466,74.1556 75.5466,74.4889 73.5,74.5C 71.2495,74.1814 69.2495,74.6814 67.5,76C 69.3289,76.2735 70.8289,77.1068 72,78.5C 74.5821,77.0392 76.4154,77.7059 77.5,80.5C 76.5,81.5 75.5,82.5 74.5,83.5C 72.7376,83.3573 71.0709,83.6906 69.5,84.5C 67.4701,81.8612 65.8034,79.0279 64.5,76C 65.1737,74.2494 65.507,72.5827 65.5,71C 63.4817,70.4954 61.4817,69.9954 59.5,69.5C 60.209,68.596 61.209,68.2627 62.5,68.5C 65.0379,68.4928 67.5379,68.1595 70,67.5C 73.3358,68.9729 76.8358,69.6395 80.5,69.5 Z"/></g>
<g><path style="opacity:0.008" fill="#fafbd0" d="M 20.5,74.5 C 20.7148,79.7404 22.3815,84.407 25.5,88.5C 22.1261,91.2488 20.4594,94.9155 20.5,99.5C 18.8868,99.0557 17.7202,98.0557 17,96.5C 16.5251,92.2877 15.3584,88.2877 13.5,84.5C 15.6076,80.743 17.1076,76.743 18,72.5C 18.7083,73.3805 19.5416,74.0472 20.5,74.5 Z"/></g>
<g><path style="opacity:1" fill="#cfdfb5" d="M 73.5,74.5 C 75.3432,75.2829 77.3432,75.9495 79.5,76.5C 80.2975,76.9569 80.6309,77.6236 80.5,78.5C 79.7095,79.4013 78.7095,80.0679 77.5,80.5C 76.4154,77.7059 74.5821,77.0392 72,78.5C 70.8289,77.1068 69.3289,76.2735 67.5,76C 69.2495,74.6814 71.2495,74.1814 73.5,74.5 Z"/></g>
<g><path style="opacity:1" fill="#ca9923" d="M 95.5,67.5 C 97.0291,68.3468 98.6958,69.0135 100.5,69.5C 102.03,69.3601 103.03,68.6935 103.5,67.5C 110.097,69.4651 116.097,72.4651 121.5,76.5C 117.71,75.9532 115.71,77.6199 115.5,81.5C 115.977,82.4776 116.643,83.3109 117.5,84C 117.272,84.3988 116.938,84.5654 116.5,84.5C 115.5,83.8333 114.5,83.1667 113.5,82.5C 109.361,79.9284 105.027,77.5951 100.5,75.5C 98.3328,73.1698 96.6662,70.5032 95.5,67.5 Z"/></g>
<g><path style="opacity:1" fill="#678156" d="M 93.5,73.5 C 92.8333,74.1667 92.1667,74.8333 91.5,75.5C 89.6902,78.2897 89.3569,81.2897 90.5,84.5C 89.087,87.2186 88.4203,90.2186 88.5,93.5C 87.448,93.6495 86.448,93.4828 85.5,93C 87.0171,89.3071 86.6838,85.8071 84.5,82.5C 85.0253,81.8076 85.6919,81.3076 86.5,81C 85.2068,80.51 83.8734,80.3433 82.5,80.5C 82.33,81.8221 82.6634,82.9887 83.5,84C 82.9056,84.4643 82.2389,84.631 81.5,84.5C 80.0319,82.3891 80.3652,80.5557 82.5,79C 81.9056,78.5357 81.2389,78.369 80.5,78.5C 80.6309,77.6236 80.2975,76.9569 79.5,76.5C 77.3432,75.9495 75.3432,75.2829 73.5,74.5C 75.5466,74.4889 77.5466,74.1556 79.5,73.5C 81.1043,73.9391 82.6043,74.6057 84,75.5C 86.8857,73.7746 90.0523,73.1079 93.5,73.5 Z"/></g>
<g><path style="opacity:1" fill="#b8c091" d="M 91.5,75.5 C 94.2406,75.7073 96.5739,76.7073 98.5,78.5C 96.3757,80.0592 94.709,82.0592 93.5,84.5C 92.5,84.5 91.5,84.5 90.5,84.5C 89.3569,81.2897 89.6902,78.2897 91.5,75.5 Z"/></g>
<g><path style="opacity:1" fill="#b69f67" d="M 93.5,73.5 C 95.8333,74.1667 98.1667,74.8333 100.5,75.5C 105.027,77.5951 109.361,79.9284 113.5,82.5C 113.631,83.3764 113.298,84.0431 112.5,84.5C 111.583,83.8728 110.583,83.5394 109.5,83.5C 105.71,82.1049 102.043,80.4383 98.5,78.5C 96.5739,76.7073 94.2406,75.7073 91.5,75.5C 92.1667,74.8333 92.8333,74.1667 93.5,73.5 Z"/></g>
<g><path style="opacity:1" fill="#a4b486" d="M 45.5,76.5 C 45.369,77.2389 45.5357,77.9056 46,78.5C 47.7889,76.771 49.9556,76.1043 52.5,76.5C 52.5668,78.4008 52.2335,80.2341 51.5,82C 52.2741,84.1542 52.9408,86.3208 53.5,88.5C 53.1667,88.5 52.8333,88.5 52.5,88.5C 51.3915,87.71 50.0581,87.21 48.5,87C 48.8333,86.6667 49.1667,86.3333 49.5,86C 48.1667,85.3333 47.1667,84.3333 46.5,83C 43.8585,82.6772 41.5252,81.6772 39.5,80C 41.8525,79.2874 43.8525,78.1207 45.5,76.5 Z"/></g>
<g><path style="opacity:1" fill="#9bb579" d="M 80.5,78.5 C 81.2389,78.369 81.9056,78.5357 82.5,79C 80.3652,80.5557 80.0319,82.3891 81.5,84.5C 79.4885,85.341 78.1552,86.841 77.5,89C 74.6459,91.1148 72.3126,90.7815 70.5,88C 72.8833,87.935 73.55,87.1017 72.5,85.5C 73.2427,84.8182 73.9094,84.1515 74.5,83.5C 75.5,82.5 76.5,81.5 77.5,80.5C 78.7095,80.0679 79.7095,79.4013 80.5,78.5 Z"/></g>
<g><path style="opacity:1" fill="#f2f5c8" d="M 90.5,84.5 C 91.5,84.5 92.5,84.5 93.5,84.5C 92.3143,85.9613 92.3143,87.2946 93.5,88.5C 94.6861,90.8744 94.6861,93.2078 93.5,95.5C 91.7085,95.366 90.0418,95.6993 88.5,96.5C 88.5,95.5 88.5,94.5 88.5,93.5C 88.4203,90.2186 89.087,87.2186 90.5,84.5 Z"/></g>
<g><path style="opacity:1" fill="#e9c775" d="M 121.5,76.5 C 125.405,77.6468 129.238,78.9801 133,80.5C 133.307,83.8762 135.14,85.2096 138.5,84.5C 137.817,86.1765 136.483,86.8432 134.5,86.5C 135.32,90.2221 133.987,92.5554 130.5,93.5C 130.189,92.5222 129.522,91.8555 128.5,91.5C 123.289,93.6012 120.289,91.9346 119.5,86.5C 117.61,86.2965 116.11,86.9632 115,88.5C 114.7,86.9343 115.2,85.601 116.5,84.5C 116.938,84.5654 117.272,84.3988 117.5,84C 116.643,83.3109 115.977,82.4776 115.5,81.5C 115.71,77.6199 117.71,75.9532 121.5,76.5 Z"/></g>
<g><path style="opacity:1" fill="#ecd098" d="M 98.5,78.5 C 102.043,80.4383 105.71,82.1049 109.5,83.5C 108.272,85.0098 108.272,86.5098 109.5,88C 107.208,90.0238 106.541,89.6905 107.5,87C 105.253,85.6912 102.92,85.0245 100.5,85C 101.565,86.6292 102.899,87.7958 104.5,88.5C 103.528,90.6365 101.861,91.8032 99.5,92C 100.252,92.6708 100.586,93.5041 100.5,94.5C 100.822,96.7224 100.155,98.5557 98.5,100C 96.6498,99.4052 94.6498,98.9052 92.5,98.5C 93.9622,97.1993 95.2956,95.6993 96.5,94C 96.3005,91.5521 95.3005,89.7188 93.5,88.5C 92.3143,87.2946 92.3143,85.9613 93.5,84.5C 94.709,82.0592 96.3757,80.0592 98.5,78.5 Z"/></g>
<g><path style="opacity:1" fill="#e6e3ad" d="M 139.5,85.5 C 139.842,86.3382 140.508,86.6716 141.5,86.5C 142.167,86.5 142.5,86.8333 142.5,87.5C 143.361,89.3863 144.361,91.2196 145.5,93C 144.512,95.4199 144.845,97.7533 146.5,100C 138.536,98.3715 130.536,96.5382 122.5,94.5C 122.5,95.8333 122.5,97.1667 122.5,98.5C 121.521,97.2347 120.521,95.9014 119.5,94.5C 123.224,93.9079 126.891,93.5746 130.5,93.5C 133.987,92.5554 135.32,90.2221 134.5,86.5C 136.483,86.8432 137.817,86.1765 138.5,84.5C 138.423,83.2502 137.756,82.4169 136.5,82C 137.448,81.5172 138.448,81.3505 139.5,81.5C 139.5,82.8333 139.5,84.1667 139.5,85.5 Z"/></g>
<g><path style="opacity:1" fill="#e4bd7c" d="M 113.5,82.5 C 114.5,83.1667 115.5,83.8333 116.5,84.5C 115.2,85.601 114.7,86.9343 115,88.5C 116.11,86.9632 117.61,86.2965 119.5,86.5C 120.289,91.9346 123.289,93.6012 128.5,91.5C 129.522,91.8555 130.189,92.5222 130.5,93.5C 126.891,93.5746 123.224,93.9079 119.5,94.5C 120.521,95.9014 121.521,97.2347 122.5,98.5C 122.452,103.308 120.118,105.974 115.5,106.5C 117.931,105.259 117.931,104.092 115.5,103C 117.917,101.327 117.917,99.4935 115.5,97.5C 116.167,94.8333 116.833,92.1667 117.5,89.5C 117.062,88.4937 116.396,88.4937 115.5,89.5C 114.269,90.6507 114.269,91.8173 115.5,93C 114.251,94.8241 113.085,94.6574 112,92.5C 111.014,93.1712 109.847,93.1712 108.5,92.5C 106.856,92.7135 105.356,92.3802 104,91.5C 102.961,92.7101 101.794,93.7101 100.5,94.5C 100.586,93.5041 100.252,92.6708 99.5,92C 101.861,91.8032 103.528,90.6365 104.5,88.5C 102.899,87.7958 101.565,86.6292 100.5,85C 102.92,85.0245 105.253,85.6912 107.5,87C 106.541,89.6905 107.208,90.0238 109.5,88C 108.272,86.5098 108.272,85.0098 109.5,83.5C 110.583,83.5394 111.583,83.8728 112.5,84.5C 113.298,84.0431 113.631,83.3764 113.5,82.5 Z"/></g>
<g><path style="opacity:1" fill="#7f8e50" d="M 59.5,69.5 C 61.4817,69.9954 63.4817,70.4954 65.5,71C 65.507,72.5827 65.1737,74.2494 64.5,76C 65.8034,79.0279 67.4701,81.8612 69.5,84.5C 71.0709,83.6906 72.7376,83.3573 74.5,83.5C 73.9094,84.1515 73.2427,84.8182 72.5,85.5C 73.55,87.1017 72.8833,87.935 70.5,88C 72.3126,90.7815 74.6459,91.1148 77.5,89C 78.1552,86.841 79.4885,85.341 81.5,84.5C 82.2389,84.631 82.9056,84.4643 83.5,84C 82.6634,82.9887 82.33,81.8221 82.5,80.5C 83.8734,80.3433 85.2068,80.51 86.5,81C 85.6919,81.3076 85.0253,81.8076 84.5,82.5C 86.6838,85.8071 87.0171,89.3071 85.5,93C 86.448,93.4828 87.448,93.6495 88.5,93.5C 88.5,94.5 88.5,95.5 88.5,96.5C 88.1667,96.5 87.8333,96.5 87.5,96.5C 84.9963,97.6392 82.3297,98.3059 79.5,98.5C 76.9684,99.5957 74.6351,100.929 72.5,102.5C 70.4862,102.392 68.8195,103.058 67.5,104.5C 65.2462,103.131 62.7462,102.131 60,101.5C 58.6349,101.844 57.4682,102.511 56.5,103.5C 56.1667,103.167 55.8333,102.833 55.5,102.5C 56.593,100.651 57.9263,98.9842 59.5,97.5C 59.3764,96.8933 59.0431,96.56 58.5,96.5C 56.3218,94.1416 54.6551,91.4749 53.5,88.5C 54.7773,87.3064 55.4439,85.6397 55.5,83.5C 53.0746,78.0154 54.7413,74.3487 60.5,72.5C 59.8728,71.5832 59.5394,70.5832 59.5,69.5 Z"/></g>
<g><path style="opacity:1" fill="#a1ad72" d="M 59.5,87.5 C 63.7618,88.1929 64.0952,89.0263 60.5,90C 63.1667,90.6667 63.1667,91.3333 60.5,92C 61.7659,92.3095 62.9326,92.8095 64,93.5C 64.3879,92.572 65.0546,91.9054 66,91.5C 67.6667,92.5 69.3333,93.5 71,94.5C 73.4005,92.4362 75.5671,92.4362 77.5,94.5C 78.6532,97.6622 77.6532,98.3289 74.5,96.5C 72.7951,97.545 71.2951,98.8783 70,100.5C 67.3304,98.9952 65.1637,96.9952 63.5,94.5C 62.7425,95.8114 61.7425,96.3114 60.5,96C 57.6026,94.2845 56.2693,91.7845 56.5,88.5C 57.791,88.7373 58.791,88.404 59.5,87.5 Z"/></g>
<g><path style="opacity:1" fill="#d9791a" d="M 93.5,95.5 C 92.032,96.7791 91.3653,98.4458 91.5,100.5C 91.1667,100.5 90.8333,100.5 90.5,100.5C 87.3489,100.386 86.3489,99.0526 87.5,96.5C 87.8333,96.5 88.1667,96.5 88.5,96.5C 90.0418,95.6993 91.7085,95.366 93.5,95.5 Z"/></g>
<g><path style="opacity:1" fill="#e5b46e" d="M 115.5,106.5 C 114.5,106.5 113.5,106.5 112.5,106.5C 112.804,105.85 113.137,105.183 113.5,104.5C 108.14,104.647 105.14,102.147 104.5,97C 104.548,95.967 104.881,95.6337 105.5,96C 107.041,97.5793 108.208,99.4127 109,101.5C 110.284,100.428 110.617,99.0948 110,97.5C 111.067,96.8095 112.234,96.3095 113.5,96C 111.569,95.0978 109.903,93.9312 108.5,92.5C 109.847,93.1712 111.014,93.1712 112,92.5C 113.085,94.6574 114.251,94.8241 115.5,93C 114.269,91.8173 114.269,90.6507 115.5,89.5C 116.396,88.4937 117.062,88.4937 117.5,89.5C 116.833,92.1667 116.167,94.8333 115.5,97.5C 117.917,99.4935 117.917,101.327 115.5,103C 117.931,104.092 117.931,105.259 115.5,106.5 Z"/></g>
<g><path style="opacity:1" fill="#daa45a" d="M 93.5,88.5 C 95.3005,89.7188 96.3005,91.5521 96.5,94C 95.2956,95.6993 93.9622,97.1993 92.5,98.5C 92.6716,99.4916 92.3382,100.158 91.5,100.5C 91.3653,98.4458 92.032,96.7791 93.5,95.5C 94.6861,93.2078 94.6861,90.8744 93.5,88.5 Z"/></g>
<g><path style="opacity:1" fill="#e2dda6" d="M 30.5,88.5 C 29.7611,88.369 29.0944,88.5357 28.5,89C 30.0589,89.9799 31.7256,90.8133 33.5,91.5C 30.7304,95.1075 31.7304,97.1075 36.5,97.5C 36.5,96.5 36.5,95.5 36.5,94.5C 32.7139,94.362 32.7139,93.6953 36.5,92.5C 37.7791,91.032 39.4458,90.3653 41.5,90.5C 41.0941,88.8908 41.0941,87.5575 41.5,86.5C 44.7338,90.2317 48.4004,90.8984 52.5,88.5C 52.8333,88.5 53.1667,88.5 53.5,88.5C 54.6551,91.4749 56.3218,94.1416 58.5,96.5C 56.6575,97.0754 54.6575,96.9087 52.5,96C 50.3978,92.1033 47.7311,91.6033 44.5,94.5C 42.9707,94.4712 41.804,93.8045 41,92.5C 41.3333,94.1667 41.6667,95.8333 42,97.5C 40.386,100.602 38.5526,100.936 36.5,98.5C 35.7025,98.9569 35.3691,99.6236 35.5,100.5C 34.6993,102.042 34.366,103.708 34.5,105.5C 31.8333,105.5 29.1667,105.5 26.5,105.5C 25.2511,103.864 23.5844,102.697 21.5,102C 20.7476,101.329 20.4142,100.496 20.5,99.5C 20.4594,94.9155 22.1261,91.2488 25.5,88.5C 26.0431,88.44 26.3764,88.1067 26.5,87.5C 25.0499,86.1502 24.3832,84.4835 24.5,82.5C 26.288,82.2148 27.9547,82.5481 29.5,83.5C 30.6053,84.8924 31.9386,86.059 33.5,87C 32.7562,88.0386 31.7562,88.5386 30.5,88.5 Z"/></g>
<g><path style="opacity:1" fill="#bdb47a" d="M 30.5,88.5 C 33.0252,88.9767 35.0252,90.3101 36.5,92.5C 32.7139,93.6953 32.7139,94.362 36.5,94.5C 36.5,95.5 36.5,96.5 36.5,97.5C 31.7304,97.1075 30.7304,95.1075 33.5,91.5C 31.7256,90.8133 30.0589,89.9799 28.5,89C 29.0944,88.5357 29.7611,88.369 30.5,88.5 Z"/></g>
<g><path style="opacity:1" fill="#aebe79" d="M 79.5,98.5 C 78.4537,100.882 78.4537,103.215 79.5,105.5C 77.9902,104.272 76.4902,104.272 75,105.5C 74.7645,103.881 73.9311,102.881 72.5,102.5C 74.6351,100.929 76.9684,99.5957 79.5,98.5 Z"/></g>
<g><path style="opacity:1" fill="#e3d89f" d="M 58.5,96.5 C 59.0431,96.56 59.3764,96.8933 59.5,97.5C 57.9263,98.9842 56.593,100.651 55.5,102.5C 55.8333,102.833 56.1667,103.167 56.5,103.5C 57.4682,102.511 58.6349,101.844 60,101.5C 62.7462,102.131 65.2462,103.131 67.5,104.5C 66.8902,105.391 66.5569,106.391 66.5,107.5C 65.1667,107.5 63.8333,107.5 62.5,107.5C 59.6167,106.394 56.7834,105.061 54,103.5C 53.6667,104.167 53.3333,104.833 53,105.5C 52.2904,104.027 51.1238,103.36 49.5,103.5C 48.5747,105.99 47.5747,108.49 46.5,111C 46.6667,112.167 46.8333,113.333 47,114.5C 48.3639,113.742 49.5305,114.242 50.5,116C 49.7476,116.671 49.4142,117.504 49.5,118.5C 46.7997,116.766 44.7997,114.432 43.5,111.5C 43.1667,110.5 42.5,109.833 41.5,109.5C 38.9768,108.616 36.3102,107.782 33.5,107C 35.8333,105.333 38.1667,103.667 40.5,102C 38.7525,101.648 37.0858,101.148 35.5,100.5C 35.3691,99.6236 35.7025,98.9569 36.5,98.5C 38.5526,100.936 40.386,100.602 42,97.5C 41.6667,95.8333 41.3333,94.1667 41,92.5C 41.804,93.8045 42.9707,94.4712 44.5,94.5C 47.7311,91.6033 50.3978,92.1033 52.5,96C 54.6575,96.9087 56.6575,97.0754 58.5,96.5 Z"/></g>
<g><path style="opacity:1" fill="#d7b660" d="M 87.5,96.5 C 86.3489,99.0526 87.3489,100.386 90.5,100.5C 90.762,101.978 90.4287,103.311 89.5,104.5C 86.5788,105.407 83.5788,105.74 80.5,105.5C 80.1667,105.5 79.8333,105.5 79.5,105.5C 78.4537,103.215 78.4537,100.882 79.5,98.5C 82.3297,98.3059 84.9963,97.6392 87.5,96.5 Z"/></g>
<g><path style="opacity:1" fill="#c1bf87" d="M 35.5,100.5 C 37.0858,101.148 38.7525,101.648 40.5,102C 38.1667,103.667 35.8333,105.333 33.5,107C 36.3102,107.782 38.9768,108.616 41.5,109.5C 37.1153,108.68 32.7819,108.68 28.5,109.5C 27.6554,108.329 26.9887,106.995 26.5,105.5C 29.1667,105.5 31.8333,105.5 34.5,105.5C 34.366,103.708 34.6993,102.042 35.5,100.5 Z"/></g>
<g><path style="opacity:1" fill="#d5dfac" d="M 72.5,102.5 C 73.9311,102.881 74.7645,103.881 75,105.5C 76.4902,104.272 77.9902,104.272 79.5,105.5C 79.8333,105.5 80.1667,105.5 80.5,105.5C 81.5981,106.397 81.5981,107.23 80.5,108C 77.1832,108.498 73.8499,108.665 70.5,108.5C 69.0413,108.567 67.7079,108.234 66.5,107.5C 66.5569,106.391 66.8902,105.391 67.5,104.5C 68.8195,103.058 70.4862,102.392 72.5,102.5 Z"/></g>
<g><path style="opacity:0.176" fill="#ecf9ce" d="M 41.5,109.5 C 42.5,109.833 43.1667,110.5 43.5,111.5C 38.8114,112.778 34.1448,112.611 29.5,111C 28.944,110.617 28.6107,110.117 28.5,109.5C 32.7819,108.68 37.1153,108.68 41.5,109.5 Z"/></g>
<g><path style="opacity:1" fill="#e6cc8c" d="M 108.5,92.5 C 109.903,93.9312 111.569,95.0978 113.5,96C 112.234,96.3095 111.067,96.8095 110,97.5C 110.617,99.0948 110.284,100.428 109,101.5C 108.208,99.4127 107.041,97.5793 105.5,96C 104.881,95.6337 104.548,95.967 104.5,97C 105.14,102.147 108.14,104.647 113.5,104.5C 113.137,105.183 112.804,105.85 112.5,106.5C 111.833,106.833 111.167,107.167 110.5,107.5C 109.761,107.369 109.094,107.536 108.5,108C 106.279,111.042 103.946,113.875 101.5,116.5C 96.5861,118.894 91.9194,121.56 87.5,124.5C 87.0623,125.506 86.3957,125.506 85.5,124.5C 81.71,123.973 77.8767,123.973 74,124.5C 70.2769,124.299 66.7769,123.633 63.5,122.5C 65.5,122.5 67.5,122.5 69.5,122.5C 75.999,119.67 82.8323,117.67 90,116.5C 89.9919,113.956 88.8253,111.956 86.5,110.5C 82.0941,113.142 77.7608,113.142 73.5,110.5C 71.8212,110.715 70.8212,110.048 70.5,108.5C 73.8499,108.665 77.1832,108.498 80.5,108C 81.5981,107.23 81.5981,106.397 80.5,105.5C 83.5788,105.74 86.5788,105.407 89.5,104.5C 90.4287,103.311 90.762,101.978 90.5,100.5C 90.8333,100.5 91.1667,100.5 91.5,100.5C 92.3382,100.158 92.6716,99.4916 92.5,98.5C 94.6498,98.9052 96.6498,99.4052 98.5,100C 100.155,98.5557 100.822,96.7224 100.5,94.5C 101.794,93.7101 102.961,92.7101 104,91.5C 105.356,92.3802 106.856,92.7135 108.5,92.5 Z"/></g>
<g><path style="opacity:1" fill="#e1cc81" d="M 62.5,107.5 C 64.273,110.488 64.9396,113.821 64.5,117.5C 63.0998,118.1 62.0998,119.1 61.5,120.5C 59.3023,120.409 58.9689,121.075 60.5,122.5C 59.1667,122.5 57.8333,122.5 56.5,122.5C 53.9684,121.404 51.6351,120.071 49.5,118.5C 49.4142,117.504 49.7476,116.671 50.5,116C 49.5305,114.242 48.3639,113.742 47,114.5C 46.8333,113.333 46.6667,112.167 46.5,111C 47.5747,108.49 48.5747,105.99 49.5,103.5C 51.1238,103.36 52.2904,104.027 53,105.5C 53.3333,104.833 53.6667,104.167 54,103.5C 56.7834,105.061 59.6167,106.394 62.5,107.5 Z"/></g>
<g><path style="opacity:0.07" fill="#f6f7cd" d="M 110.5,107.5 C 109.577,109.767 108.744,112.1 108,114.5C 105.846,115.23 103.679,115.897 101.5,116.5C 103.946,113.875 106.279,111.042 108.5,108C 109.094,107.536 109.761,107.369 110.5,107.5 Z"/></g>
<g><path style="opacity:1" fill="#e6c459" d="M 73.5,110.5 C 77.7608,113.142 82.0941,113.142 86.5,110.5C 88.8253,111.956 89.9919,113.956 90,116.5C 82.8323,117.67 75.999,119.67 69.5,122.5C 70.6238,118.365 71.9572,114.365 73.5,110.5 Z"/></g>
<g><path style="opacity:1" fill="#bb9c39" d="M 62.5,107.5 C 63.8333,107.5 65.1667,107.5 66.5,107.5C 67.7079,108.234 69.0413,108.567 70.5,108.5C 70.8212,110.048 71.8212,110.715 73.5,110.5C 71.9572,114.365 70.6238,118.365 69.5,122.5C 67.5,122.5 65.5,122.5 63.5,122.5C 62.5,122.5 61.5,122.5 60.5,122.5C 58.9689,121.075 59.3023,120.409 61.5,120.5C 64.4454,122.063 67.112,121.563 69.5,119C 65.7741,117.957 66.1074,117.457 70.5,117.5C 70.6602,115.801 70.4935,114.134 70,112.5C 69.4646,114.271 68.6313,114.604 67.5,113.5C 68.2458,112.264 68.5792,110.93 68.5,109.5C 67.5,109.5 66.5,109.5 65.5,109.5C 65.8064,112.385 65.4731,115.052 64.5,117.5C 64.9396,113.821 64.273,110.488 62.5,107.5 Z"/></g>
<g><path style="opacity:1" fill="#e0c25d" d="M 61.5,120.5 C 62.0998,119.1 63.0998,118.1 64.5,117.5C 65.4731,115.052 65.8064,112.385 65.5,109.5C 66.5,109.5 67.5,109.5 68.5,109.5C 68.5792,110.93 68.2458,112.264 67.5,113.5C 68.6313,114.604 69.4646,114.271 70,112.5C 70.4935,114.134 70.6602,115.801 70.5,117.5C 66.1074,117.457 65.7741,117.957 69.5,119C 67.112,121.563 64.4454,122.063 61.5,120.5 Z"/></g>
<g><path style="opacity:0.024" fill="#f6f6c9" d="M 101.5,116.5 C 97.7859,120.623 93.1192,123.29 87.5,124.5C 91.9194,121.56 96.5861,118.894 101.5,116.5 Z"/></g>
<g><path style="opacity:0.02" fill="#f6f5c6" d="M 56.5,122.5 C 57.8333,122.5 59.1667,122.5 60.5,122.5C 61.5,122.5 62.5,122.5 63.5,122.5C 66.7769,123.633 70.2769,124.299 74,124.5C 77.8767,123.973 81.71,123.973 85.5,124.5C 79.013,125.654 72.3464,125.821 65.5,125C 62.2026,124.796 59.2026,123.963 56.5,122.5 Z"/></g>
<g><path style="opacity:0.78" fill="#49d9a9" d="M 54.5,131.5 C 57.4509,131.108 60.4509,131.608 63.5,133C 66.6287,142.698 63.2954,146.531 53.5,144.5C 53.5,145.833 53.5,147.167 53.5,148.5C 52.448,148.649 51.448,148.483 50.5,148C 52.1482,142.596 53.4816,137.096 54.5,131.5 Z M 57.5,134.5 C 62.7365,134.99 63.9032,137.657 61,142.5C 57.7175,143.911 55.8842,142.745 55.5,139C 55.5186,137.167 56.1852,135.667 57.5,134.5 Z"/></g>
<g><path style="opacity:0.796" fill="#49daa9" d="M 92.5,134.5 C 94.451,134.227 95.951,134.893 97,136.5C 97.7554,139.688 98.5887,142.855 99.5,146C 97.265,147.645 96.265,146.812 96.5,143.5C 95.5,143.5 94.5,143.5 93.5,143.5C 93.5531,146.061 92.5531,148.061 90.5,149.5C 89.8084,147.665 90.1417,145.832 91.5,144C 86.0701,140.254 86.4034,137.087 92.5,134.5 Z M 91.5,137.5 C 94.5,137.167 95.8333,138.5 95.5,141.5C 91.56,142.234 90.2266,140.901 91.5,137.5 Z"/></g>
<g><path style="opacity:0.737" fill="#49d9a9" d="M 73.5,135.5 C 79.5,134.833 82.1667,137.5 81.5,143.5C 78.4816,143.335 75.4816,143.502 72.5,144C 74.9778,147.119 77.6445,147.286 80.5,144.5C 81.6065,147.699 80.2732,149.365 76.5,149.5C 70.8098,147.973 68.9764,144.306 71,138.5C 72.045,137.627 72.8783,136.627 73.5,135.5 Z M 74.5,137.5 C 76.9124,137.244 78.5791,138.244 79.5,140.5C 77.2351,141.647 74.9018,141.814 72.5,141C 73.305,139.887 73.9717,138.721 74.5,137.5 Z"/></g>
</svg>
