<?xml version="1.0" encoding="UTF-8"?>
<!DOCTYPE svg PUBLIC "-//W3C//DTD SVG 1.1//EN" "http://www.w3.org/Graphics/SVG/1.1/DTD/svg11.dtd">
<svg xmlns="http://www.w3.org/2000/svg" version="1.1" width="175px" height="175px" style="shape-rendering:geometricPrecision; text-rendering:geometricPrecision; image-rendering:optimizeQuality; fill-rule:evenodd; clip-rule:evenodd" xmlns:xlink="http://www.w3.org/1999/xlink">
<g><path style="opacity:0.735" fill="#19e3ea" d="M 79.5,20.5 C 82.0961,21.2653 84.7628,21.5987 87.5,21.5C 87.0728,25.8244 86.7395,30.1578 86.5,34.5C 85.5,34.5 84.5,34.5 83.5,34.5C 83.9376,30.9277 84.6042,27.4277 85.5,24C 83.8876,23.2797 82.3876,23.4464 81,24.5C 81.1212,28.5992 79.4545,31.5992 76,33.5C 75.5,33.1667 75,32.8333 74.5,32.5C 75.2421,31.7132 76.0754,31.0465 77,30.5C 77.9433,27.1555 78.7766,23.8221 79.5,20.5 Z"/></g>
<g><path style="opacity:0.724" fill="#19e2ea" d="M 61.5,22.5 C 68.2701,20.937 71.2701,23.6037 70.5,30.5C 70.1667,32.1667 69.8333,33.8333 69.5,35.5C 66.9982,35.3787 64.3315,35.2121 61.5,35C 59.7888,33.8668 59.2888,32.3668 60,30.5C 62.3407,28.4785 64.8407,26.8119 67.5,25.5C 66.8333,25.1667 66.1667,24.8333 65.5,24.5C 63.6772,25.8449 61.6772,26.3449 59.5,26C 60.305,24.8873 60.9717,23.7206 61.5,22.5 Z M 64.5,29.5 C 68.8762,28.8876 69.5429,30.0543 66.5,33C 65.2068,33.49 63.8734,33.6567 62.5,33.5C 62.5271,31.8007 63.1938,30.4674 64.5,29.5 Z"/></g>
<g><path style="opacity:0.679" fill="#19e2e9" d="M 51.5,25.5 C 52.675,25.281 53.675,25.6143 54.5,26.5C 52.8474,28.1214 50.8474,29.2881 48.5,30C 50.5721,33.3406 51.2388,36.8406 50.5,40.5C 48.5456,36.8077 46.879,32.9743 45.5,29C 47.4319,27.5415 49.4319,26.3748 51.5,25.5 Z"/></g>
<g><path style="opacity:0.732" fill="#19e3ea" d="M 97.5,23.5 C 103.677,24.024 106.01,27.3573 104.5,33.5C 101.523,32.9292 98.6897,31.9292 96,30.5C 95.3804,34.6902 97.0471,36.0236 101,34.5C 102.257,34.8499 102.591,35.5165 102,36.5C 95.4766,38.6404 92.4766,36.3071 93,29.5C 93.8041,26.8541 95.3041,24.8541 97.5,23.5 Z M 97.5,26.5 C 101.419,25.7464 102.753,27.0797 101.5,30.5C 99.8333,29.6667 98.1667,28.8333 96.5,28C 97.056,27.6174 97.3893,27.1174 97.5,26.5 Z"/></g>
<g><path style="opacity:0.333" fill="#99cdc0" d="M 85.5,44.5 C 84.7029,45.4782 84.0362,45.1449 83.5,43.5C 80.8938,42.3483 78.2272,42.1816 75.5,43C 77.9228,43.6971 79.5895,45.1971 80.5,47.5C 71.6651,42.3716 62.6651,42.3716 53.5,47.5C 52.8933,47.3764 52.56,47.0431 52.5,46.5C 54.0188,45.5902 55.6854,44.7568 57.5,44C 56.3044,43.3457 56.3044,42.8457 57.5,42.5C 60.1687,43.181 62.8353,42.8477 65.5,41.5C 68.0963,42.2129 70.7629,42.2129 73.5,41.5C 76.7786,40.5078 80.1119,40.3412 83.5,41C 84.305,42.1127 84.9717,43.2794 85.5,44.5 Z"/></g>
<g><path style="opacity:0.007" fill="#d4fbfd" d="M 44.5,49.5 C 40.9281,50.936 37.2615,52.436 33.5,54C 33.0474,56.6933 31.5474,58.5266 29,59.5C 28.6481,61.2475 28.1481,62.9142 27.5,64.5C 25.5,66.1667 23.5,67.8333 21.5,69.5C 21.1019,65.2861 22.1019,61.4528 24.5,58C 24.1955,54.53 25.5288,51.53 28.5,49C 33.0988,46.2199 37.7655,44.3866 42.5,43.5C 44.0863,45.1727 44.7529,47.1727 44.5,49.5 Z"/></g>
<g><path style="opacity:1" fill="#b6eadf" d="M 104.5,42.5 C 103.448,42.3505 102.448,42.5172 101.5,43C 103.285,44.1628 105.285,44.8295 107.5,45C 103.917,48.1907 100.084,51.024 96,53.5C 94.084,50.967 92.084,50.967 90,53.5C 87.9728,50.6623 86.4728,47.6623 85.5,44.5C 84.9717,43.2794 84.305,42.1127 83.5,41C 80.1119,40.3412 76.7786,40.5078 73.5,41.5C 74.1217,40.3734 74.955,39.3734 76,38.5C 79.7998,39.1987 83.6331,39.8653 87.5,40.5C 88.4461,40.0133 89.4461,39.6799 90.5,39.5C 95.4022,40.0181 100.069,41.0181 104.5,42.5 Z"/></g>
<g><path style="opacity:1" fill="#b2ecec" d="M 80.5,47.5 C 81.3686,49.717 81.702,52.0504 81.5,54.5C 81.6869,55.8168 81.0202,57.1501 79.5,58.5C 77.5193,60.1436 75.5193,61.8103 73.5,63.5C 72.1068,61.3259 72.4402,59.4926 74.5,58C 72.735,57.3603 71.0683,57.5269 69.5,58.5C 69.5,57.5 69.5,56.5 69.5,55.5C 66.0412,55.5313 62.7079,56.198 59.5,57.5C 58.8333,56.5 58.1667,55.5 57.5,54.5C 56.8076,55.0253 56.3076,55.6919 56,56.5C 53.8563,54.3372 51.523,54.3372 49,56.5C 47.2382,56.0556 47.4049,55.5556 49.5,55C 49.1667,54.6667 48.8333,54.3333 48.5,54C 47.0494,54.2626 45.7161,54.0959 44.5,53.5C 45.5387,51.4689 47.2054,50.1355 49.5,49.5C 48.3002,48.7084 46.9669,48.7084 45.5,49.5C 47.1757,47.1663 49.509,46.1663 52.5,46.5C 52.56,47.0431 52.8933,47.3764 53.5,47.5C 62.6651,42.3716 71.6651,42.3716 80.5,47.5 Z"/></g>
<g><path style="opacity:1" fill="#addfdd" d="M 69.5,58.5 C 66.6517,59.843 63.985,61.5097 61.5,63.5C 60.8423,62.6016 60.1757,61.6016 59.5,60.5C 59.1667,60.6667 58.8333,60.8333 58.5,61C 59.3331,63.0811 59.3331,65.2478 58.5,67.5C 55.6354,67.9452 53.1354,67.2785 51,65.5C 50.5357,66.0944 50.369,66.7611 50.5,67.5C 49.5041,67.5858 48.6708,67.2524 48,66.5C 46.6371,68.7843 45.1371,68.951 43.5,67C 44.9733,66.2904 45.6399,65.1238 45.5,63.5C 43.0771,63.5764 41.2438,62.5764 40,60.5C 38.8767,62.0997 37.3767,63.0997 35.5,63.5C 34.2003,64.1079 32.8669,64.7745 31.5,65.5C 30.1508,65.1543 28.8175,64.821 27.5,64.5C 28.1481,62.9142 28.6481,61.2475 29,59.5C 31.5474,58.5266 33.0474,56.6933 33.5,54C 37.2615,52.436 40.9281,50.936 44.5,49.5C 44.8333,49.5 45.1667,49.5 45.5,49.5C 46.9669,48.7084 48.3002,48.7084 49.5,49.5C 47.2054,50.1355 45.5387,51.4689 44.5,53.5C 45.7161,54.0959 47.0494,54.2626 48.5,54C 48.8333,54.3333 49.1667,54.6667 49.5,55C 47.4049,55.5556 47.2382,56.0556 49,56.5C 51.523,54.3372 53.8563,54.3372 56,56.5C 56.3076,55.6919 56.8076,55.0253 57.5,54.5C 58.1667,55.5 58.8333,56.5 59.5,57.5C 62.7079,56.198 66.0412,55.5313 69.5,55.5C 69.5,56.5 69.5,57.5 69.5,58.5 Z"/></g>
<g><path style="opacity:1" fill="#b4e9e3" d="M 85.5,44.5 C 86.4728,47.6623 87.9728,50.6623 90,53.5C 92.084,50.967 94.084,50.967 96,53.5C 100.084,51.024 103.917,48.1907 107.5,45C 105.285,44.8295 103.285,44.1628 101.5,43C 102.448,42.5172 103.448,42.3505 104.5,42.5C 108.438,44.0349 112.438,45.3682 116.5,46.5C 116.561,49.0495 117.894,50.5495 120.5,51C 119.167,51.3333 117.833,51.6667 116.5,52C 116.912,53.5639 117.245,55.0639 117.5,56.5C 116.167,58.1667 114.833,59.8333 113.5,61.5C 109.833,61.5 106.167,61.5 102.5,61.5C 102.611,60.8826 102.944,60.3826 103.5,60C 101.874,60.1953 100.207,60.1953 98.5,60C 97.1509,59.2276 96.3176,58.0609 96,56.5C 93.5679,57.4496 91.0679,57.4496 88.5,56.5C 88.5,55.5 88.5,54.5 88.5,53.5C 85.4017,53.4125 85.0684,53.9125 87.5,55C 86.2068,55.49 84.8734,55.6567 83.5,55.5C 83.6332,52.075 82.9665,51.7417 81.5,54.5C 81.702,52.0504 81.3686,49.717 80.5,47.5C 79.5895,45.1971 77.9228,43.6971 75.5,43C 78.2272,42.1816 80.8938,42.3483 83.5,43.5C 84.0362,45.1449 84.7029,45.4782 85.5,44.5 Z"/></g>
<g><path style="opacity:1" fill="#a1d3ce" d="M 102.5,61.5 C 101.903,61.7352 101.57,62.2352 101.5,63C 101.978,64.3026 102.645,65.4693 103.5,66.5C 99.8981,66.5326 96.8981,65.1993 94.5,62.5C 93.3162,64.467 93.6495,66.1336 95.5,67.5C 96.1098,68.391 96.4431,69.391 96.5,70.5C 96.1788,72.0481 95.1788,72.7148 93.5,72.5C 93.1667,72.5 92.8333,72.5 92.5,72.5C 92.5774,71.2502 93.244,70.4169 94.5,70C 92.5273,69.5045 90.5273,69.3379 88.5,69.5C 88.719,68.325 88.3857,67.325 87.5,66.5C 85.9017,67.4847 84.235,67.6514 82.5,67C 85.2914,65.2114 88.2914,63.8781 91.5,63C 92.8333,62.3333 92.8333,61.6667 91.5,61C 93.0441,60.7104 94.3774,60.0437 95.5,59C 94.6667,58.8333 93.8333,58.6667 93,58.5C 88.5099,61.3406 83.6766,62.8406 78.5,63C 80.0362,61.5319 80.3696,60.0319 79.5,58.5C 81.0202,57.1501 81.6869,55.8168 81.5,54.5C 82.9665,51.7417 83.6332,52.075 83.5,55.5C 84.8734,55.6567 86.2068,55.49 87.5,55C 85.0684,53.9125 85.4017,53.4125 88.5,53.5C 88.5,54.5 88.5,55.5 88.5,56.5C 91.0679,57.4496 93.5679,57.4496 96,56.5C 96.3176,58.0609 97.1509,59.2276 98.5,60C 100.207,60.1953 101.874,60.1953 103.5,60C 102.944,60.3826 102.611,60.8826 102.5,61.5 Z"/></g>
<g><path style="opacity:1" fill="#7cbec6" d="M 79.5,58.5 C 80.3696,60.0319 80.0362,61.5319 78.5,63C 83.6766,62.8406 88.5099,61.3406 93,58.5C 93.8333,58.6667 94.6667,58.8333 95.5,59C 94.3774,60.0437 93.0441,60.7104 91.5,61C 92.8333,61.6667 92.8333,62.3333 91.5,63C 88.2914,63.8781 85.2914,65.2114 82.5,67C 84.235,67.6514 85.9017,67.4847 87.5,66.5C 88.3857,67.325 88.719,68.325 88.5,69.5C 90.5273,69.3379 92.5273,69.5045 94.5,70C 93.244,70.4169 92.5774,71.2502 92.5,72.5C 90.6406,71.4058 88.6406,70.5725 86.5,70C 80.8537,69.9067 75.3537,69.0734 70,67.5C 68.175,67.9434 66.3417,68.2767 64.5,68.5C 63.8333,68.5 63.1667,68.5 62.5,68.5C 61.9094,67.8485 61.2427,67.1818 60.5,66.5C 61.1272,65.5832 61.4606,64.5832 61.5,63.5C 63.985,61.5097 66.6517,59.843 69.5,58.5C 71.0683,57.5269 72.735,57.3603 74.5,58C 72.4402,59.4926 72.1068,61.3259 73.5,63.5C 75.5193,61.8103 77.5193,60.1436 79.5,58.5 Z"/></g>
<g><path style="opacity:1" fill="#b0e1e2" d="M 35.5,63.5 C 35.8039,64.1499 36.1373,64.8165 36.5,65.5C 34.703,66.6951 33.703,68.3618 33.5,70.5C 30.001,70.259 29.6677,71.0924 32.5,73C 31.6364,74.6965 30.3031,75.8632 28.5,76.5C 27.4173,77.365 27.2506,78.365 28,79.5C 30.3722,77.3517 33.2055,76.0184 36.5,75.5C 38.1727,77.0863 40.1727,77.7529 42.5,77.5C 42.0509,74.7102 42.0509,72.0436 42.5,69.5C 45.5742,70.7975 48.5742,71.1308 51.5,70.5C 50.8902,71.391 50.5569,72.391 50.5,73.5C 49.5,73.8333 48.8333,74.5 48.5,75.5C 45.6486,76.9917 42.6486,78.4917 39.5,80C 40.7414,81.4865 40.2414,82.3199 38,82.5C 36.0909,81.8443 34.2576,81.3443 32.5,81C 34.3211,82.7433 36.3211,84.2433 38.5,85.5C 38.1373,86.1835 37.8039,86.8501 37.5,87.5C 36.5987,88.2905 35.9321,89.2905 35.5,90.5C 33.3985,88.8911 31.0652,88.3911 28.5,89C 29.056,89.3826 29.3893,89.8826 29.5,90.5C 27.4352,90.5172 25.4352,90.8505 23.5,91.5C 23.7214,90.2652 24.3881,89.2652 25.5,88.5C 23.5592,86.1659 21.8925,83.6659 20.5,81C 21.8143,78.3953 21.8143,75.8953 20.5,73.5C 20.4326,72.0413 20.7659,70.7079 21.5,69.5C 23.5,67.8333 25.5,66.1667 27.5,64.5C 28.8175,64.821 30.1508,65.1543 31.5,65.5C 32.8669,64.7745 34.2003,64.1079 35.5,63.5 Z"/></g>
<g><path style="opacity:1" fill="#9fb880" d="M 103.5,66.5 C 103.5,66.8333 103.5,67.1667 103.5,67.5C 103.03,68.6935 102.03,69.3601 100.5,69.5C 98.6958,69.0135 97.0291,68.3468 95.5,67.5C 93.6495,66.1336 93.3162,64.467 94.5,62.5C 96.8981,65.1993 99.8981,66.5326 103.5,66.5 Z"/></g>
<g><path style="opacity:1" fill="#145a6a" d="M 92.5,72.5 C 92.8333,72.5 93.1667,72.5 93.5,72.5C 93.5,72.8333 93.5,73.1667 93.5,73.5C 89.837,73.151 87.1703,73.8177 85.5,75.5C 82.8662,74.564 80.1995,73.564 77.5,72.5C 76.4763,73.8532 75.143,74.5198 73.5,74.5C 72.5,74.5 71.5,74.5 70.5,74.5C 70.7031,72.9557 71.3698,71.6223 72.5,70.5C 69.6944,69.8324 67.0277,69.1657 64.5,68.5C 66.3417,68.2767 68.175,67.9434 70,67.5C 75.3537,69.0734 80.8537,69.9067 86.5,70C 88.6406,70.5725 90.6406,71.4058 92.5,72.5 Z"/></g>
<g><path style="opacity:1" fill="#bbeff8" d="M 102.5,61.5 C 106.167,61.5 109.833,61.5 113.5,61.5C 116.203,63.1469 119.203,64.3136 122.5,65C 120.779,65.7393 119.113,66.5726 117.5,67.5C 118.82,69.2701 120.32,69.6034 122,68.5C 124.262,70.3837 126.428,72.3837 128.5,74.5C 130.516,73.2941 132.516,73.2941 134.5,74.5C 132.446,76.6212 132.446,78.2879 134.5,79.5C 133.833,79.5 133.167,79.5 132.5,79.5C 128.717,78.8776 125.05,77.8776 121.5,76.5C 120.486,75.3263 119.153,74.6596 117.5,74.5C 114.765,71.7989 111.431,70.1322 107.5,69.5C 106.486,68.3263 105.153,67.6596 103.5,67.5C 103.5,67.1667 103.5,66.8333 103.5,66.5C 102.645,65.4693 101.978,64.3026 101.5,63C 101.57,62.2352 101.903,61.7352 102.5,61.5 Z"/></g>
<g><path style="opacity:1" fill="#5d9f9e" d="M 61.5,63.5 C 61.4606,64.5832 61.1272,65.5832 60.5,66.5C 61.2427,67.1818 61.9094,67.8485 62.5,68.5C 61.209,68.2627 60.209,68.596 59.5,69.5C 58.0695,69.5792 56.7362,69.2458 55.5,68.5C 55.0894,69.2624 54.9227,70.2624 55,71.5C 53.371,71.1637 51.871,71.8304 50.5,73.5C 50.5569,72.391 50.8902,71.391 51.5,70.5C 51.4431,69.391 51.1098,68.391 50.5,67.5C 50.369,66.7611 50.5357,66.0944 51,65.5C 53.1354,67.2785 55.6354,67.9452 58.5,67.5C 59.3331,65.2478 59.3331,63.0811 58.5,61C 58.8333,60.8333 59.1667,60.6667 59.5,60.5C 60.1757,61.6016 60.8423,62.6016 61.5,63.5 Z"/></g>
<g><path style="opacity:0.996" fill="#c0f4fc" d="M 117.5,56.5 C 122.563,59.6932 128.063,62.0265 134,63.5C 135.492,67.3053 136.992,71.1387 138.5,75C 138.043,75.414 137.709,75.914 137.5,76.5C 138.628,77.2621 139.795,77.9288 141,78.5C 141.833,81 142.667,83.5 143.5,86C 143.43,86.7648 143.097,87.2648 142.5,87.5C 142.5,86.8333 142.167,86.5 141.5,86.5C 141.158,85.6618 140.492,85.3284 139.5,85.5C 139.5,84.1667 139.5,82.8333 139.5,81.5C 137.446,81.6347 135.779,80.968 134.5,79.5C 132.446,78.2879 132.446,76.6212 134.5,74.5C 132.516,73.2941 130.516,73.2941 128.5,74.5C 126.428,72.3837 124.262,70.3837 122,68.5C 120.32,69.6034 118.82,69.2701 117.5,67.5C 119.113,66.5726 120.779,65.7393 122.5,65C 119.203,64.3136 116.203,63.1469 113.5,61.5C 114.833,59.8333 116.167,58.1667 117.5,56.5 Z"/></g>
<g><path style="opacity:1" fill="#b5e7e7" d="M 50.5,67.5 C 51.1098,68.391 51.4431,69.391 51.5,70.5C 48.5742,71.1308 45.5742,70.7975 42.5,69.5C 42.0509,72.0436 42.0509,74.7102 42.5,77.5C 40.1727,77.7529 38.1727,77.0863 36.5,75.5C 33.2055,76.0184 30.3722,77.3517 28,79.5C 27.2506,78.365 27.4173,77.365 28.5,76.5C 30.3031,75.8632 31.6364,74.6965 32.5,73C 29.6677,71.0924 30.001,70.259 33.5,70.5C 33.703,68.3618 34.703,66.6951 36.5,65.5C 36.1373,64.8165 35.8039,64.1499 35.5,63.5C 37.3767,63.0997 38.8767,62.0997 40,60.5C 41.2438,62.5764 43.0771,63.5764 45.5,63.5C 45.6399,65.1238 44.9733,66.2904 43.5,67C 45.1371,68.951 46.6371,68.7843 48,66.5C 48.6708,67.2524 49.5041,67.5858 50.5,67.5 Z"/></g>
<g><path style="opacity:1" fill="#2d797f" d="M 59.5,69.5 C 59.5394,70.5832 59.8728,71.5832 60.5,72.5C 54.7413,74.3487 53.0746,78.0154 55.5,83.5C 55.4439,85.6397 54.7773,87.3064 53.5,88.5C 51.8498,85.2483 51.5164,81.915 52.5,78.5C 51.8999,76.5323 50.5666,75.5323 48.5,75.5C 48.8333,74.5 49.5,73.8333 50.5,73.5C 51.871,71.8304 53.371,71.1637 55,71.5C 54.9227,70.2624 55.0894,69.2624 55.5,68.5C 56.7362,69.2458 58.0695,69.5792 59.5,69.5 Z"/></g>
<g><path style="opacity:0.008" fill="#d4fcfe" d="M 20.5,73.5 C 21.8143,75.8953 21.8143,78.3953 20.5,81C 21.8925,83.6659 23.5592,86.1659 25.5,88.5C 24.3881,89.2652 23.7214,90.2652 23.5,91.5C 21.7549,93.0326 20.7549,95.0326 20.5,97.5C 20.5,98.1667 20.5,98.8333 20.5,99.5C 18.8868,99.0557 17.7202,98.0557 17,96.5C 16.5251,92.2877 15.3584,88.2877 13.5,84.5C 15.6076,80.743 17.1076,76.743 18,72.5C 18.8382,73.999 19.6715,74.3324 20.5,73.5 Z"/></g>
<g><path style="opacity:1" fill="#56a09d" d="M 59.5,69.5 C 61.4817,69.9954 63.4817,70.4954 65.5,71C 65.507,72.5827 65.1737,74.2494 64.5,76C 66.0576,78.7377 67.391,81.5711 68.5,84.5C 65.8265,82.9983 63.8265,80.8316 62.5,78C 60.272,77.1799 58.272,77.5132 56.5,79C 57.2638,82.2156 58.5972,85.049 60.5,87.5C 59.2921,88.2341 57.9587,88.5674 56.5,88.5C 56.2693,91.7845 57.6026,94.2845 60.5,96C 63.2441,95.0094 65.9107,95.3427 68.5,97C 69.3366,98.0113 69.67,99.1779 69.5,100.5C 67.4086,100.682 65.4086,100.348 63.5,99.5C 62.4777,99.8555 61.811,100.522 61.5,101.5C 59.2821,101.614 57.2821,102.28 55.5,103.5C 56.3163,101.214 57.6496,99.2137 59.5,97.5C 59.3764,96.8933 59.0431,96.56 58.5,96.5C 56.3218,94.1416 54.6551,91.4749 53.5,88.5C 54.7773,87.3064 55.4439,85.6397 55.5,83.5C 53.0746,78.0154 54.7413,74.3487 60.5,72.5C 59.8728,71.5832 59.5394,70.5832 59.5,69.5 Z"/></g>
<g><path style="opacity:1" fill="#aab36d" d="M 107.5,69.5 C 111.431,70.1322 114.765,71.7989 117.5,74.5C 113.109,73.8687 108.776,74.5354 104.5,76.5C 104.881,74.0582 104.214,73.3915 102.5,74.5C 101.692,74.1924 101.025,73.6924 100.5,73C 102.646,71.3983 104.98,70.2317 107.5,69.5 Z"/></g>
<g><path style="opacity:1" fill="#98e1ec" d="M 70.5,74.5 C 71.5,74.5 72.5,74.5 73.5,74.5C 75.3432,75.2829 77.3432,75.9495 79.5,76.5C 80.2975,76.9569 80.6309,77.6236 80.5,78.5C 79.7095,79.4013 78.7095,80.0679 77.5,80.5C 76.4154,77.7059 74.5821,77.0392 72,78.5C 70.8289,77.1068 69.3289,76.2735 67.5,76C 68.2438,74.9614 69.2438,74.4614 70.5,74.5 Z"/></g>
<g><path style="opacity:1" fill="#969b5d" d="M 95.5,67.5 C 97.0291,68.3468 98.6958,69.0135 100.5,69.5C 102.03,69.3601 103.03,68.6935 103.5,67.5C 105.153,67.6596 106.486,68.3263 107.5,69.5C 104.98,70.2317 102.646,71.3983 100.5,73C 101.025,73.6924 101.692,74.1924 102.5,74.5C 104.214,73.3915 104.881,74.0582 104.5,76.5C 108.776,74.5354 113.109,73.8687 117.5,74.5C 119.153,74.6596 120.486,75.3263 121.5,76.5C 117.71,75.9532 115.71,77.6199 115.5,81.5C 115.855,82.5223 116.522,83.189 117.5,83.5C 117.5,83.8333 117.5,84.1667 117.5,84.5C 115.938,84.2671 114.605,83.6005 113.5,82.5C 109.722,80.1076 105.722,77.9409 101.5,76C 99.5981,74.2703 97.9314,72.437 96.5,70.5C 96.4431,69.391 96.1098,68.391 95.5,67.5 Z"/></g>
<g><path style="opacity:1" fill="#388996" d="M 93.5,73.5 C 96.5345,73.183 97.5345,74.183 96.5,76.5C 94.5648,75.8505 92.5648,75.5172 90.5,75.5C 89.5763,78.5533 89.5763,81.5533 90.5,84.5C 89.6145,87.7259 88.2812,90.7259 86.5,93.5C 86.1667,93.5 85.8333,93.5 85.5,93.5C 86.9781,88.958 87.4781,84.2913 87,79.5C 85.5861,80.4132 84.0861,80.4132 82.5,79.5C 82.1583,78.6618 81.4916,78.3284 80.5,78.5C 80.6309,77.6236 80.2975,76.9569 79.5,76.5C 77.3432,75.9495 75.3432,75.2829 73.5,74.5C 75.143,74.5198 76.4763,73.8532 77.5,72.5C 80.1995,73.564 82.8662,74.564 85.5,75.5C 87.1703,73.8177 89.837,73.151 93.5,73.5 Z"/></g>
<g><path style="opacity:1" fill="#196873" d="M 59.5,69.5 C 60.209,68.596 61.209,68.2627 62.5,68.5C 63.1667,68.5 63.8333,68.5 64.5,68.5C 67.0277,69.1657 69.6944,69.8324 72.5,70.5C 71.3698,71.6223 70.7031,72.9557 70.5,74.5C 69.2438,74.4614 68.2438,74.9614 67.5,76C 69.3289,76.2735 70.8289,77.1068 72,78.5C 74.5821,77.0392 76.4154,77.7059 77.5,80.5C 76.5,81.5 75.5,82.5 74.5,83.5C 72.4352,83.5172 70.4352,83.8505 68.5,84.5C 67.391,81.5711 66.0576,78.7377 64.5,76C 65.1737,74.2494 65.507,72.5827 65.5,71C 63.4817,70.4954 61.4817,69.9954 59.5,69.5 Z"/></g>
<g><path style="opacity:1" fill="#8acad3" d="M 96.5,76.5 C 97.1667,77.1667 97.8333,77.8333 98.5,78.5C 96.3757,80.0592 94.709,82.0592 93.5,84.5C 92.5,84.5 91.5,84.5 90.5,84.5C 89.5763,81.5533 89.5763,78.5533 90.5,75.5C 92.5648,75.5172 94.5648,75.8505 96.5,76.5 Z"/></g>
<g><path style="opacity:1" fill="#b1cece" d="M 98.5,78.5 C 103.168,81.3338 108.168,83.3338 113.5,84.5C 111.696,86.4673 109.696,88.3007 107.5,90C 110.105,90.0264 111.271,91.193 111,93.5C 110.329,92.7476 109.496,92.4142 108.5,92.5C 105.288,90.7371 102.788,91.4037 101,94.5C 99.887,93.2396 99.7203,92.073 100.5,91C 97.4557,90.6411 97.1224,89.9745 99.5,89C 98.436,87.4894 97.1026,87.3228 95.5,88.5C 94.8333,88.5 94.1667,88.5 93.5,88.5C 92.3143,87.2946 92.3143,85.9613 93.5,84.5C 94.709,82.0592 96.3757,80.0592 98.5,78.5 Z"/></g>
<g><path style="opacity:1" fill="#adc29e" d="M 121.5,76.5 C 125.05,77.8776 128.717,78.8776 132.5,79.5C 133.234,80.7079 133.567,82.0413 133.5,83.5C 131.738,83.3573 130.071,83.6906 128.5,84.5C 127.895,83.4126 128.228,82.246 129.5,81C 125.991,79.2406 122.325,78.074 118.5,77.5C 118.167,79.5 117.833,81.5 117.5,83.5C 116.522,83.189 115.855,82.5223 115.5,81.5C 115.71,77.6199 117.71,75.9532 121.5,76.5 Z"/></g>
<g><path style="opacity:1" fill="#37877e" d="M 68.5,84.5 C 70.4352,83.8505 72.4352,83.5172 74.5,83.5C 71.8562,85.8269 68.8562,86.4935 65.5,85.5C 63.9436,86.5471 62.2769,87.2137 60.5,87.5C 58.5972,85.049 57.2638,82.2156 56.5,79C 58.272,77.5132 60.272,77.1799 62.5,78C 63.8265,80.8316 65.8265,82.9983 68.5,84.5 Z"/></g>
<g><path style="opacity:1" fill="#88a7a7" d="M 96.5,70.5 C 97.9314,72.437 99.5981,74.2703 101.5,76C 105.722,77.9409 109.722,80.1076 113.5,82.5C 113.5,83.1667 113.5,83.8333 113.5,84.5C 108.168,83.3338 103.168,81.3338 98.5,78.5C 97.8333,77.8333 97.1667,77.1667 96.5,76.5C 97.5345,74.183 96.5345,73.183 93.5,73.5C 93.5,73.1667 93.5,72.8333 93.5,72.5C 95.1788,72.7148 96.1788,72.0481 96.5,70.5 Z"/></g>
<g><path style="opacity:1" fill="#75b9c0" d="M 48.5,75.5 C 50.5666,75.5323 51.8999,76.5323 52.5,78.5C 51.5164,81.915 51.8498,85.2483 53.5,88.5C 51.9142,87.8519 50.2475,87.3519 48.5,87C 48.8333,86.6667 49.1667,86.3333 49.5,86C 48.2748,84.437 46.7748,83.2703 45,82.5C 42.0125,84.1541 39.6792,86.4875 38,89.5C 37.5357,88.9056 37.369,88.2389 37.5,87.5C 37.8039,86.8501 38.1373,86.1835 38.5,85.5C 36.3211,84.2433 34.3211,82.7433 32.5,81C 34.2576,81.3443 36.0909,81.8443 38,82.5C 40.2414,82.3199 40.7414,81.4865 39.5,80C 42.6486,78.4917 45.6486,76.9917 48.5,75.5 Z"/></g>
<g><path style="opacity:1" fill="#b7f3f5" d="M 90.5,84.5 C 91.5,84.5 92.5,84.5 93.5,84.5C 92.3143,85.9613 92.3143,87.2946 93.5,88.5C 94.6861,90.8744 94.6861,93.2078 93.5,95.5C 91.4352,95.5172 89.4352,95.8505 87.5,96.5C 86.8333,96.5 86.1667,96.5 85.5,96.5C 86.1098,95.609 86.4431,94.609 86.5,93.5C 88.2812,90.7259 89.6145,87.7259 90.5,84.5 Z"/></g>
<g><path style="opacity:1" fill="#6db8b3" d="M 80.5,78.5 C 81.4916,78.3284 82.1583,78.6618 82.5,79.5C 79.4271,80.7327 79.0938,82.2327 81.5,84C 80.6721,84.9147 79.6721,85.5814 78.5,86C 78.9574,86.414 79.2907,86.914 79.5,87.5C 77.5466,88.7607 75.5466,89.9274 73.5,91C 72.1667,91.6667 70.8333,91.6667 69.5,91C 70.4581,89.8525 70.1247,88.8525 68.5,88C 67.552,87.5172 66.552,87.3505 65.5,87.5C 65.67,88.8221 65.3366,89.9887 64.5,91C 66.9087,91.7479 69.0754,92.9145 71,94.5C 72.9214,93.8095 74.7547,93.4762 76.5,93.5C 77.4252,94.3569 78.0919,95.3569 78.5,96.5C 77.3876,97.3718 76.0542,97.3718 74.5,96.5C 72.8349,97.8229 71.1683,99.1562 69.5,100.5C 69.67,99.1779 69.3366,98.0113 68.5,97C 65.9107,95.3427 63.2441,95.0094 60.5,96C 57.6026,94.2845 56.2693,91.7845 56.5,88.5C 57.9587,88.5674 59.2921,88.2341 60.5,87.5C 62.2769,87.2137 63.9436,86.5471 65.5,85.5C 68.8562,86.4935 71.8562,85.8269 74.5,83.5C 75.5,82.5 76.5,81.5 77.5,80.5C 78.7095,80.0679 79.7095,79.4013 80.5,78.5 Z"/></g>
<g><path style="opacity:1" fill="#c1dbc4" d="M 133.5,83.5 C 135.195,84.0114 136.861,84.6781 138.5,85.5C 137.311,86.4287 135.978,86.762 134.5,86.5C 135.32,90.2221 133.987,92.5554 130.5,93.5C 130.189,92.5222 129.522,91.8555 128.5,91.5C 126.162,93.0107 125.496,92.6773 126.5,90.5C 125.635,89.4173 124.635,89.2506 123.5,90C 124.647,91.2811 124.313,91.6144 122.5,91C 121.663,89.9887 121.33,88.8221 121.5,87.5C 122.552,87.6495 123.552,87.4828 124.5,87C 122.348,85.5873 120.014,84.7539 117.5,84.5C 117.5,84.1667 117.5,83.8333 117.5,83.5C 117.833,81.5 118.167,79.5 118.5,77.5C 122.325,78.074 125.991,79.2406 129.5,81C 128.228,82.246 127.895,83.4126 128.5,84.5C 130.071,83.6906 131.738,83.3573 133.5,83.5 Z"/></g>
<g><path style="opacity:1" fill="#b7ebec" d="M 132.5,79.5 C 133.167,79.5 133.833,79.5 134.5,79.5C 135.779,80.968 137.446,81.6347 139.5,81.5C 139.5,82.8333 139.5,84.1667 139.5,85.5C 139.842,86.3382 140.508,86.6716 141.5,86.5C 142.167,86.5 142.5,86.8333 142.5,87.5C 143.361,89.3863 144.361,91.2196 145.5,93C 144.512,95.4199 144.845,97.7533 146.5,100C 138.536,98.3715 130.536,96.5382 122.5,94.5C 122.5,95.8333 122.5,97.1667 122.5,98.5C 121.521,97.2347 120.521,95.9014 119.5,94.5C 123.224,93.9079 126.891,93.5746 130.5,93.5C 133.987,92.5554 135.32,90.2221 134.5,86.5C 135.978,86.762 137.311,86.4287 138.5,85.5C 136.861,84.6781 135.195,84.0114 133.5,83.5C 133.567,82.0413 133.234,80.7079 132.5,79.5 Z"/></g>
<g><path style="opacity:1" fill="#539b9a" d="M 82.5,79.5 C 84.0861,80.4132 85.5861,80.4132 87,79.5C 87.4781,84.2913 86.9781,88.958 85.5,93.5C 83.5692,94.2593 82.0692,95.5926 81,97.5C 80.3292,96.7476 79.4959,96.4142 78.5,96.5C 78.0919,95.3569 77.4252,94.3569 76.5,93.5C 74.7547,93.4762 72.9214,93.8095 71,94.5C 69.0754,92.9145 66.9087,91.7479 64.5,91C 65.3366,89.9887 65.67,88.8221 65.5,87.5C 66.552,87.3505 67.552,87.5172 68.5,88C 70.1247,88.8525 70.4581,89.8525 69.5,91C 70.8333,91.6667 72.1667,91.6667 73.5,91C 75.5466,89.9274 77.5466,88.7607 79.5,87.5C 79.2907,86.914 78.9574,86.414 78.5,86C 79.6721,85.5814 80.6721,84.9147 81.5,84C 79.0938,82.2327 79.4271,80.7327 82.5,79.5 Z"/></g>
<g><path style="opacity:1" fill="#8ebebb" d="M 35.5,90.5 C 36.6052,92.3 35.9386,93.4666 33.5,94C 34.448,94.4828 35.448,94.6495 36.5,94.5C 36.7373,95.791 36.404,96.791 35.5,97.5C 31.3966,96.5246 30.7299,94.5246 33.5,91.5C 32.3112,90.5713 30.9778,90.238 29.5,90.5C 29.3893,89.8826 29.056,89.3826 28.5,89C 31.0652,88.3911 33.3985,88.8911 35.5,90.5 Z"/></g>
<g><path style="opacity:1" fill="#b0e2e2" d="M 53.5,88.5 C 54.6551,91.4749 56.3218,94.1416 58.5,96.5C 56.3581,96.6896 54.0248,96.8563 51.5,97C 52.8333,97.3333 54.1667,97.6667 55.5,98C 54.2986,98.9025 53.4652,100.069 53,101.5C 52.6667,101.167 52.3333,100.833 52,100.5C 50.5846,102.961 49.0846,105.294 47.5,107.5C 46.3526,109.765 46.1859,112.098 47,114.5C 48.4813,115.471 49.3146,116.804 49.5,118.5C 46.9984,116.83 44.9984,114.664 43.5,112C 38.8245,112.783 34.1578,112.45 29.5,111C 28.944,110.617 28.6107,110.117 28.5,109.5C 33.8812,109.53 39.2145,109.03 44.5,108C 32.9921,109.458 31.6587,107.458 40.5,102C 38.7525,101.648 37.0858,101.148 35.5,100.5C 35.5,99.5 35.5,98.5 35.5,97.5C 36.404,96.791 36.7373,95.791 36.5,94.5C 35.448,94.6495 34.448,94.4828 33.5,94C 35.9386,93.4666 36.6052,92.3 35.5,90.5C 35.9321,89.2905 36.5987,88.2905 37.5,87.5C 37.369,88.2389 37.5357,88.9056 38,89.5C 39.6792,86.4875 42.0125,84.1541 45,82.5C 46.7748,83.2703 48.2748,84.437 49.5,86C 49.1667,86.3333 48.8333,86.6667 48.5,87C 50.2475,87.3519 51.9142,87.8519 53.5,88.5 Z"/></g>
<g><path style="opacity:1" fill="#a2ab9c" d="M 93.5,88.5 C 94.1667,88.5 94.8333,88.5 95.5,88.5C 95.4332,90.4008 95.7665,92.2341 96.5,94C 94.5726,96.0778 92.906,98.2445 91.5,100.5C 91.3653,98.4458 92.032,96.7791 93.5,95.5C 94.6861,93.2078 94.6861,90.8744 93.5,88.5 Z"/></g>
<g><path style="opacity:1" fill="#b8c7ba" d="M 113.5,82.5 C 114.605,83.6005 115.938,84.2671 117.5,84.5C 120.014,84.7539 122.348,85.5873 124.5,87C 123.552,87.4828 122.552,87.6495 121.5,87.5C 121.33,88.8221 121.663,89.9887 122.5,91C 124.313,91.6144 124.647,91.2811 123.5,90C 124.635,89.2506 125.635,89.4173 126.5,90.5C 125.496,92.6773 126.162,93.0107 128.5,91.5C 129.522,91.8555 130.189,92.5222 130.5,93.5C 126.891,93.5746 123.224,93.9079 119.5,94.5C 120.521,95.9014 121.521,97.2347 122.5,98.5C 121.504,105.345 117.504,108.345 110.5,107.5C 109.153,108.028 107.819,108.195 106.5,108C 108.001,106.748 109.668,105.748 111.5,105C 108.885,104.145 106.552,102.812 104.5,101C 104.962,99.2784 105.128,97.445 105,95.5C 106.829,97.1558 108.163,99.1558 109,101.5C 110.284,100.428 110.617,99.0948 110,97.5C 111.067,96.8095 112.234,96.3095 113.5,96C 111.569,95.0978 109.903,93.9312 108.5,92.5C 109.496,92.4142 110.329,92.7476 111,93.5C 111.271,91.193 110.105,90.0264 107.5,90C 109.696,88.3007 111.696,86.4673 113.5,84.5C 113.5,83.8333 113.5,83.1667 113.5,82.5 Z"/></g>
<g><path style="opacity:1" fill="#b3e7e9" d="M 29.5,90.5 C 30.9778,90.238 32.3112,90.5713 33.5,91.5C 30.7299,94.5246 31.3966,96.5246 35.5,97.5C 35.5,98.5 35.5,99.5 35.5,100.5C 34.6993,102.042 34.366,103.708 34.5,105.5C 31.8333,105.5 29.1667,105.5 26.5,105.5C 25.6935,104.272 24.6935,103.272 23.5,102.5C 22.4639,100.609 22.4639,98.7755 23.5,97C 22.4232,96.5304 21.4232,96.6971 20.5,97.5C 20.7549,95.0326 21.7549,93.0326 23.5,91.5C 25.4352,90.8505 27.4352,90.5172 29.5,90.5 Z"/></g>
<g><path style="opacity:1" fill="#a98258" d="M 93.5,95.5 C 92.032,96.7791 91.3653,98.4458 91.5,100.5C 91.1667,100.5 90.8333,100.5 90.5,100.5C 87.3489,100.386 86.3489,99.0526 87.5,96.5C 89.4352,95.8505 91.4352,95.5172 93.5,95.5 Z"/></g>
<g><path style="opacity:0.31" fill="#83b2ab" d="M 23.5,102.5 C 21.5,102.5 20.5,101.5 20.5,99.5C 20.5,98.8333 20.5,98.1667 20.5,97.5C 21.4232,96.6971 22.4232,96.5304 23.5,97C 22.4639,98.7755 22.4639,100.609 23.5,102.5 Z"/></g>
<g><path style="opacity:1" fill="#43857b" d="M 85.5,93.5 C 85.8333,93.5 86.1667,93.5 86.5,93.5C 86.4431,94.609 86.1098,95.609 85.5,96.5C 83.8583,98.0808 81.8583,98.7475 79.5,98.5C 76.9684,99.5957 74.6351,100.929 72.5,102.5C 70.6096,102.297 69.1096,102.963 68,104.5C 65.7787,103.594 63.6121,102.594 61.5,101.5C 61.811,100.522 62.4777,99.8555 63.5,99.5C 65.4086,100.348 67.4086,100.682 69.5,100.5C 71.1683,99.1562 72.8349,97.8229 74.5,96.5C 76.0542,97.3718 77.3876,97.3718 78.5,96.5C 79.4959,96.4142 80.3292,96.7476 81,97.5C 82.0692,95.5926 83.5692,94.2593 85.5,93.5 Z"/></g>
<g><path style="opacity:1" fill="#bfddd9" d="M 108.5,92.5 C 109.903,93.9312 111.569,95.0978 113.5,96C 112.234,96.3095 111.067,96.8095 110,97.5C 110.617,99.0948 110.284,100.428 109,101.5C 108.163,99.1558 106.829,97.1558 105,95.5C 105.128,97.445 104.962,99.2784 104.5,101C 106.552,102.812 108.885,104.145 111.5,105C 109.668,105.748 108.001,106.748 106.5,108C 107.819,108.195 109.153,108.028 110.5,107.5C 109.577,109.767 108.744,112.1 108,114.5C 105.846,115.23 103.679,115.897 101.5,116.5C 102.742,114.75 104.242,113.083 106,111.5C 106.688,110.668 106.521,110.002 105.5,109.5C 103.018,111.277 100.351,112.777 97.5,114C 96.8742,114.75 96.3742,115.584 96,116.5C 94.6439,115.62 93.1439,115.286 91.5,115.5C 89.2407,110.685 90.7407,107.685 96,106.5C 96.9503,107.022 97.7836,107.689 98.5,108.5C 98.4895,107.559 98.9895,106.892 100,106.5C 100.945,106.905 101.612,107.572 102,108.5C 102.684,107.216 102.517,106.049 101.5,105C 97.5901,103.945 93.9234,103.111 90.5,102.5C 90.5,101.833 90.5,101.167 90.5,100.5C 90.8333,100.5 91.1667,100.5 91.5,100.5C 92.906,98.2445 94.5726,96.0778 96.5,94C 95.7665,92.2341 95.4332,90.4008 95.5,88.5C 97.1026,87.3228 98.436,87.4894 99.5,89C 97.1224,89.9745 97.4557,90.6411 100.5,91C 99.7203,92.073 99.887,93.2396 101,94.5C 102.788,91.4037 105.288,90.7371 108.5,92.5 Z"/></g>
<g><path style="opacity:1" fill="#7ccac0" d="M 79.5,98.5 C 79.1667,100.5 78.8333,102.5 78.5,104.5C 77.1779,104.33 76.0113,104.663 75,105.5C 74.7645,103.881 73.9311,102.881 72.5,102.5C 74.6351,100.929 76.9684,99.5957 79.5,98.5 Z"/></g>
<g><path style="opacity:1" fill="#a6bea0" d="M 85.5,96.5 C 86.1667,96.5 86.8333,96.5 87.5,96.5C 86.3489,99.0526 87.3489,100.386 90.5,100.5C 90.5,101.167 90.5,101.833 90.5,102.5C 90.4226,103.75 89.756,104.583 88.5,105C 85.854,105.497 83.1873,105.664 80.5,105.5C 79.8333,105.167 79.1667,104.833 78.5,104.5C 78.8333,102.5 79.1667,100.5 79.5,98.5C 81.8583,98.7475 83.8583,98.0808 85.5,96.5 Z"/></g>
<g><path style="opacity:1" fill="#94c8c7" d="M 35.5,100.5 C 37.0858,101.148 38.7525,101.648 40.5,102C 31.6587,107.458 32.9921,109.458 44.5,108C 39.2145,109.03 33.8812,109.53 28.5,109.5C 27.6554,108.329 26.9887,106.995 26.5,105.5C 29.1667,105.5 31.8333,105.5 34.5,105.5C 34.366,103.708 34.6993,102.042 35.5,100.5 Z"/></g>
<g><path style="opacity:1" fill="#ace9ec" d="M 61.5,101.5 C 63.6121,102.594 65.7787,103.594 68,104.5C 69.1096,102.963 70.6096,102.297 72.5,102.5C 73.9311,102.881 74.7645,103.881 75,105.5C 76.0113,104.663 77.1779,104.33 78.5,104.5C 79.1667,104.833 79.8333,105.167 80.5,105.5C 81.5981,106.397 81.5981,107.23 80.5,108C 77.1832,108.498 73.8499,108.665 70.5,108.5C 67.8728,107.908 65.2062,107.575 62.5,107.5C 59.8357,106.603 57.5024,105.27 55.5,103.5C 57.2821,102.28 59.2821,101.614 61.5,101.5 Z"/></g>
<g><path style="opacity:1" fill="#769576" d="M 62.5,107.5 C 65.2062,107.575 67.8728,107.908 70.5,108.5C 71.0998,109.9 72.0998,110.9 73.5,111.5C 71.5447,111.799 70.2114,112.799 69.5,114.5C 68.6236,114.631 67.9569,114.298 67.5,113.5C 68.2458,112.264 68.5792,110.93 68.5,109.5C 67.5,109.5 66.5,109.5 65.5,109.5C 65.6495,110.552 65.4828,111.552 65,112.5C 64.6655,110.497 63.8321,108.83 62.5,107.5 Z"/></g>
<g><path style="opacity:1" fill="#acd2c0" d="M 58.5,96.5 C 59.0431,96.56 59.3764,96.8933 59.5,97.5C 57.6496,99.2137 56.3163,101.214 55.5,103.5C 57.5024,105.27 59.8357,106.603 62.5,107.5C 63.8321,108.83 64.6655,110.497 65,112.5C 65.4828,111.552 65.6495,110.552 65.5,109.5C 66.5,109.5 67.5,109.5 68.5,109.5C 68.5792,110.93 68.2458,112.264 67.5,113.5C 67.9569,114.298 68.6236,114.631 69.5,114.5C 67.2536,116.42 64.5869,117.753 61.5,118.5C 61.5,119.5 61.5,120.5 61.5,121.5C 65.1667,121.5 68.8333,121.5 72.5,121.5C 67.3595,122.488 62.0262,122.821 56.5,122.5C 53.9684,121.404 51.6351,120.071 49.5,118.5C 49.3146,116.804 48.4813,115.471 47,114.5C 46.1859,112.098 46.3526,109.765 47.5,107.5C 49.0846,105.294 50.5846,102.961 52,100.5C 52.3333,100.833 52.6667,101.167 53,101.5C 53.4652,100.069 54.2986,98.9025 55.5,98C 54.1667,97.6667 52.8333,97.3333 51.5,97C 54.0248,96.8563 56.3581,96.6896 58.5,96.5 Z"/></g>
<g><path style="opacity:1" fill="#b1c996" d="M 84.5,118.5 C 80.2086,118.483 76.2086,119.483 72.5,121.5C 68.8333,121.5 65.1667,121.5 61.5,121.5C 61.5,120.5 61.5,119.5 61.5,118.5C 64.5869,117.753 67.2536,116.42 69.5,114.5C 70.2114,112.799 71.5447,111.799 73.5,111.5C 76.728,112.414 80.0613,112.747 83.5,112.5C 82.7691,110.401 82.7691,108.401 83.5,106.5C 85.7981,108.653 88.1314,111.486 90.5,115C 89.5715,117.909 87.5715,119.075 84.5,118.5 Z"/></g>
<g><path style="opacity:1" fill="#c0e8e1" d="M 84.5,118.5 C 84.9175,119.222 85.5842,119.722 86.5,120C 84.8876,120.72 83.3876,120.554 82,119.5C 78.9886,121 79.4886,121.834 83.5,122C 82.8487,123.308 83.5154,124.141 85.5,124.5C 79.013,125.654 72.3464,125.821 65.5,125C 62.2026,124.796 59.2026,123.963 56.5,122.5C 62.0262,122.821 67.3595,122.488 72.5,121.5C 76.2086,119.483 80.2086,118.483 84.5,118.5 Z"/></g>
<g><path style="opacity:1" fill="#b4d3c7" d="M 90.5,102.5 C 93.9234,103.111 97.5901,103.945 101.5,105C 102.517,106.049 102.684,107.216 102,108.5C 101.612,107.572 100.945,106.905 100,106.5C 98.9895,106.892 98.4895,107.559 98.5,108.5C 97.7836,107.689 96.9503,107.022 96,106.5C 90.7407,107.685 89.2407,110.685 91.5,115.5C 93.1439,115.286 94.6439,115.62 96,116.5C 96.3742,115.584 96.8742,114.75 97.5,114C 100.351,112.777 103.018,111.277 105.5,109.5C 106.521,110.002 106.688,110.668 106,111.5C 104.242,113.083 102.742,114.75 101.5,116.5C 96.5861,118.894 91.9194,121.56 87.5,124.5C 87.0623,125.506 86.3957,125.506 85.5,124.5C 83.5154,124.141 82.8487,123.308 83.5,122C 79.4886,121.834 78.9886,121 82,119.5C 83.3876,120.554 84.8876,120.72 86.5,120C 85.5842,119.722 84.9175,119.222 84.5,118.5C 87.5715,119.075 89.5715,117.909 90.5,115C 88.1314,111.486 85.7981,108.653 83.5,106.5C 82.7691,108.401 82.7691,110.401 83.5,112.5C 80.0613,112.747 76.728,112.414 73.5,111.5C 72.0998,110.9 71.0998,109.9 70.5,108.5C 73.8499,108.665 77.1832,108.498 80.5,108C 81.5981,107.23 81.5981,106.397 80.5,105.5C 83.1873,105.664 85.854,105.497 88.5,105C 89.756,104.583 90.4226,103.75 90.5,102.5 Z"/></g>
<g><path style="opacity:0.157" fill="#c9fafc" d="M 101.5,116.5 C 97.7859,120.623 93.1192,123.29 87.5,124.5C 91.9194,121.56 96.5861,118.894 101.5,116.5 Z"/></g>
<g><path style="opacity:0.728" fill="#19e2ea" d="M 54.5,131.5 C 57.4509,131.108 60.4509,131.608 63.5,133C 66.6287,142.698 63.2954,146.531 53.5,144.5C 53.5,145.833 53.5,147.167 53.5,148.5C 52.448,148.649 51.448,148.483 50.5,148C 52.1482,142.596 53.4816,137.096 54.5,131.5 Z M 57.5,134.5 C 62.7365,134.99 63.9032,137.657 61,142.5C 57.7175,143.911 55.8842,142.745 55.5,139C 55.5186,137.167 56.1852,135.667 57.5,134.5 Z"/></g>
<g><path style="opacity:0.733" fill="#19e3ea" d="M 92.5,134.5 C 94.451,134.227 95.951,134.893 97,136.5C 97.7554,139.688 98.5887,142.855 99.5,146C 97.265,147.645 96.265,146.812 96.5,143.5C 95.5,143.5 94.5,143.5 93.5,143.5C 93.5531,146.061 92.5531,148.061 90.5,149.5C 89.8084,147.665 90.1417,145.832 91.5,144C 86.0701,140.254 86.4034,137.087 92.5,134.5 Z M 91.5,137.5 C 94.5,137.167 95.8333,138.5 95.5,141.5C 91.56,142.234 90.2266,140.901 91.5,137.5 Z"/></g>
<g><path style="opacity:0.692" fill="#19e2ea" d="M 73.5,135.5 C 79.5,134.833 82.1667,137.5 81.5,143.5C 78.4816,143.335 75.4816,143.502 72.5,144C 74.9778,147.119 77.6445,147.286 80.5,144.5C 81.6065,147.699 80.2732,149.365 76.5,149.5C 70.8098,147.973 68.9764,144.306 71,138.5C 72.045,137.627 72.8783,136.627 73.5,135.5 Z M 74.5,137.5 C 76.9124,137.244 78.5791,138.244 79.5,140.5C 77.2351,141.647 74.9018,141.814 72.5,141C 73.305,139.887 73.9717,138.721 74.5,137.5 Z"/></g>
</svg>
