<?xml version="1.0" encoding="UTF-8"?>
<!DOCTYPE svg PUBLIC "-//W3C//DTD SVG 1.1//EN" "http://www.w3.org/Graphics/SVG/1.1/DTD/svg11.dtd">
<svg xmlns="http://www.w3.org/2000/svg" version="1.1" width="175px" height="175px" style="shape-rendering:geometricPrecision; text-rendering:geometricPrecision; image-rendering:optimizeQuality; fill-rule:evenodd; clip-rule:evenodd" xmlns:xlink="http://www.w3.org/1999/xlink">
<g><path style="opacity:0.696" fill="#73d2d6" d="M 90.5,19.5 C 93.0961,20.2653 95.7628,20.5987 98.5,20.5C 98.0728,24.8244 97.7395,29.1578 97.5,33.5C 96.5,33.5 95.5,33.5 94.5,33.5C 94.9376,29.9277 95.6042,26.4277 96.5,23C 94.8876,22.2797 93.3876,22.4464 92,23.5C 92.1212,27.5992 90.4545,30.5992 87,32.5C 86.5,32.1667 86,31.8333 85.5,31.5C 86.2421,30.7132 87.0754,30.0465 88,29.5C 88.9433,26.1555 89.7766,22.8221 90.5,19.5 Z"/></g>
<g><path style="opacity:0.714" fill="#73d1d5" d="M 72.5,21.5 C 79.2701,19.937 82.2701,22.6037 81.5,29.5C 81.1667,31.1667 80.8333,32.8333 80.5,34.5C 77.9982,34.3787 75.3315,34.2121 72.5,34C 70.7888,32.8668 70.2888,31.3668 71,29.5C 73.3407,27.4785 75.8407,25.8119 78.5,24.5C 77.8333,24.1667 77.1667,23.8333 76.5,23.5C 74.6772,24.8449 72.6772,25.3449 70.5,25C 71.305,23.8873 71.9717,22.7206 72.5,21.5 Z M 75.5,28.5 C 79.8762,27.8876 80.5429,29.0543 77.5,32C 76.2068,32.49 74.8734,32.6567 73.5,32.5C 73.5271,30.8007 74.1938,29.4674 75.5,28.5 Z"/></g>
<g><path style="opacity:0.71" fill="#73d2d6" d="M 108.5,22.5 C 114.677,23.024 117.01,26.3573 115.5,32.5C 112.523,31.9292 109.69,30.9292 107,29.5C 106.38,33.6902 108.047,35.0236 112,33.5C 113.257,33.8499 113.591,34.5165 113,35.5C 106.477,37.6404 103.477,35.3071 104,28.5C 104.804,25.8541 106.304,23.8541 108.5,22.5 Z M 108.5,25.5 C 112.419,24.7464 113.753,26.0797 112.5,29.5C 110.833,28.6667 109.167,27.8333 107.5,27C 108.056,26.6174 108.389,26.1174 108.5,25.5 Z"/></g>
<g><path style="opacity:0.686" fill="#73d1d4" d="M 62.5,24.5 C 63.675,24.281 64.675,24.6143 65.5,25.5C 63.8474,27.1214 61.8474,28.2881 59.5,29C 61.5721,32.3406 62.2388,35.8406 61.5,39.5C 59.5456,35.8077 57.879,31.9743 56.5,28C 58.4319,26.5415 60.4319,25.3748 62.5,24.5 Z"/></g>
<g><path style="opacity:0.987" fill="#ffebf3" d="M 94.5,45.5 C 94.6399,47.1238 93.9733,48.2904 92.5,49C 95.0378,50.1707 95.5378,51.6707 94,53.5C 91.6272,51.1499 89.1272,50.9833 86.5,53C 86.8346,54.5026 86.8346,55.836 86.5,57C 85.6667,58.5 84.5,59.6667 83,60.5C 83.6171,58.9052 83.2837,57.5719 82,56.5C 81.3131,58.5675 81.4798,60.5675 82.5,62.5C 81.7573,63.1818 81.0906,63.8485 80.5,64.5C 80.5,64.8333 80.5,65.1667 80.5,65.5C 79.8333,65.5 79.1667,65.5 78.5,65.5C 76.3001,63.6222 74.6335,61.2889 73.5,58.5C 71.604,57.5344 69.604,57.2011 67.5,57.5C 66.0427,55.3718 65.0427,53.0384 64.5,50.5C 64.56,49.9569 64.8933,49.6236 65.5,49.5C 67.7194,50.2431 69.0528,51.2431 69.5,52.5C 70.6473,52.1822 71.4806,51.5156 72,50.5C 72.3333,50.8333 72.6667,51.1667 73,51.5C 74.2227,49.0147 75.7227,48.848 77.5,51C 75.6297,52.3662 73.6297,53.5328 71.5,54.5C 68.8133,53.9394 68.8133,54.6061 71.5,56.5C 73.444,55.8108 75.444,55.3108 77.5,55C 78.1667,53.6667 78.8333,52.3333 79.5,51C 82.7895,50.1184 86.1228,49.4517 89.5,49C 88.1667,48.6667 86.8333,48.3333 85.5,48C 86.0944,47.5357 86.7611,47.369 87.5,47.5C 89.1667,47.5 90.8333,47.5 92.5,47.5C 92.281,46.325 92.6143,45.325 93.5,44.5C 94.1067,44.6236 94.44,44.9569 94.5,45.5 Z"/></g>
<g><path style="opacity:1" fill="#ffeff8" d="M 87.5,47.5 C 86.7611,47.369 86.0944,47.5357 85.5,48C 86.8333,48.3333 88.1667,48.6667 89.5,49C 86.1228,49.4517 82.7895,50.1184 79.5,51C 78.8333,52.3333 78.1667,53.6667 77.5,55C 75.444,55.3108 73.444,55.8108 71.5,56.5C 68.8133,54.6061 68.8133,53.9394 71.5,54.5C 73.6297,53.5328 75.6297,52.3662 77.5,51C 75.7227,48.848 74.2227,49.0147 73,51.5C 72.6667,51.1667 72.3333,50.8333 72,50.5C 71.4806,51.5156 70.6473,52.1822 69.5,52.5C 69.0528,51.2431 67.7194,50.2431 65.5,49.5C 64.8933,49.6236 64.56,49.9569 64.5,50.5C 63.5,50.5 62.5,50.5 61.5,50.5C 69.8229,45.8292 78.4895,44.8292 87.5,47.5 Z"/></g>
<g><path style="opacity:1" fill="#ffe9ef" d="M 94.5,45.5 C 103.524,46.1156 112.524,47.2823 121.5,49C 123.584,49.6972 125.251,50.8639 126.5,52.5C 124.5,52.1667 122.5,51.8333 120.5,51.5C 113.49,49.2053 106.156,48.2053 98.5,48.5C 98.3089,52.2621 97.6422,55.9288 96.5,59.5C 95.5655,60.5676 95.2322,61.901 95.5,63.5C 94.325,63.281 93.325,63.6143 92.5,64.5C 94.2248,67.7828 93.5581,68.7828 90.5,67.5C 89.2867,67.7472 88.62,68.4138 88.5,69.5C 87.8501,69.8039 87.1835,70.1373 86.5,70.5C 85.1936,69.0878 84.3603,67.4211 84,65.5C 83.6667,65.8333 83.3333,66.1667 83,66.5C 82.5831,65.244 81.7498,64.5774 80.5,64.5C 81.0906,63.8485 81.7573,63.1818 82.5,62.5C 81.4798,60.5675 81.3131,58.5675 82,56.5C 83.2837,57.5719 83.6171,58.9052 83,60.5C 84.5,59.6667 85.6667,58.5 86.5,57C 86.8346,55.836 86.8346,54.5026 86.5,53C 89.1272,50.9833 91.6272,51.1499 94,53.5C 95.5378,51.6707 95.0378,50.1707 92.5,49C 93.9733,48.2904 94.6399,47.1238 94.5,45.5 Z"/></g>
<g><path style="opacity:1" fill="#ffdfd7" d="M 120.5,51.5 C 122.5,51.8333 124.5,52.1667 126.5,52.5C 129.596,53.7595 131.929,55.9262 133.5,59C 136.158,60.478 138.825,61.6446 141.5,62.5C 136.906,61.6572 133.239,62.9906 130.5,66.5C 128.708,66.366 127.042,66.6993 125.5,67.5C 124.033,68.2916 122.7,68.2916 121.5,67.5C 123.678,65.1416 125.345,62.4749 126.5,59.5C 127.239,59.631 127.906,59.4643 128.5,59C 124.218,58.0567 121.552,55.5567 120.5,51.5 Z"/></g>
<g><path style="opacity:1" fill="#fed3b8" d="M 120.5,51.5 C 121.552,55.5567 124.218,58.0567 128.5,59C 127.906,59.4643 127.239,59.631 126.5,59.5C 122.224,56.693 117.557,55.0263 112.5,54.5C 112.513,57.8628 114.179,60.0295 117.5,61C 115.126,61.7432 113.126,61.2432 111.5,59.5C 110.308,57.0777 108.308,56.0777 105.5,56.5C 102.586,56.6334 100.253,57.8001 98.5,60C 99.1276,62.8003 100.128,65.467 101.5,68C 100.177,68.8159 99.5106,69.9826 99.5,71.5C 99.5,72.1667 99.5,72.8333 99.5,73.5C 97.9328,72.3192 97.0995,70.6526 97,68.5C 96.502,65.5184 96.3354,62.5184 96.5,59.5C 97.6422,55.9288 98.3089,52.2621 98.5,48.5C 106.156,48.2053 113.49,49.2053 120.5,51.5 Z"/></g>
<g><path style="opacity:1" fill="#ffdac4" d="M 53.5,53.5 C 51.752,54.7894 51.4186,56.2894 52.5,58C 50.2688,59.147 47.9355,60.147 45.5,61C 44.8971,62.8254 44.2304,64.6587 43.5,66.5C 40.8035,67.1693 38.1368,67.8359 35.5,68.5C 33.1432,68.3367 30.8098,68.5034 28.5,69C 28.6158,70.2682 28.9491,71.6015 29.5,73C 28.4232,73.4696 27.4232,73.3029 26.5,72.5C 25.5354,71.2789 25.702,69.9456 27,68.5C 29.1847,67.0716 31.1847,65.4049 33,63.5C 33.1629,61.324 33.9963,59.4907 35.5,58C 38.5112,57.2569 41.1779,55.9235 43.5,54C 46.9356,54.3481 50.2689,54.1814 53.5,53.5 Z"/></g>
<g><path style="opacity:1" fill="#ffdfd3" d="M 111.5,59.5 C 109.342,61.22 106.675,62.0533 103.5,62C 105.315,62.7568 106.981,63.5902 108.5,64.5C 109.598,66.6421 108.764,67.9754 106,68.5C 103.827,65.723 103.327,65.8897 104.5,69C 102.807,69.8466 101.14,70.6799 99.5,71.5C 99.5106,69.9826 100.177,68.8159 101.5,68C 100.128,65.467 99.1276,62.8003 98.5,60C 100.253,57.8001 102.586,56.6334 105.5,56.5C 108.308,56.0777 110.308,57.0777 111.5,59.5 Z"/></g>
<g><path style="opacity:1" fill="#feb7a0" d="M 67.5,57.5 C 69.604,57.2011 71.604,57.5344 73.5,58.5C 74.6335,61.2889 76.3001,63.6222 78.5,65.5C 78.5,65.8333 78.5,66.1667 78.5,66.5C 75.2881,65.1703 72.1214,63.5037 69,61.5C 67.5272,61.9031 66.1939,62.5697 65,63.5C 64.3551,62.354 63.5217,61.354 62.5,60.5C 64.3964,59.7255 66.063,58.7255 67.5,57.5 Z"/></g>
<g><path style="opacity:1" fill="#ffd9c4" d="M 126.5,59.5 C 125.345,62.4749 123.678,65.1416 121.5,67.5C 122.7,68.2916 124.033,68.2916 125.5,67.5C 124.54,69.4607 123.207,71.1274 121.5,72.5C 121.833,72.8333 122.167,73.1667 122.5,73.5C 124.901,70.5873 126.234,70.9206 126.5,74.5C 125.29,74.9321 124.29,75.5987 123.5,76.5C 123.167,76.5 122.833,76.5 122.5,76.5C 121.942,75.2101 120.942,74.3768 119.5,74C 120.38,72.6439 120.714,71.1439 120.5,69.5C 118.801,69.4729 117.467,68.8062 116.5,67.5C 113.943,66.4121 111.276,65.4121 108.5,64.5C 106.981,63.5902 105.315,62.7568 103.5,62C 106.675,62.0533 109.342,61.22 111.5,59.5C 113.126,61.2432 115.126,61.7432 117.5,61C 114.179,60.0295 112.513,57.8628 112.5,54.5C 117.557,55.0263 122.224,56.693 126.5,59.5 Z"/></g>
<g><path style="opacity:1" fill="#ffd6d1" d="M 61.5,50.5 C 62.5,50.5 63.5,50.5 64.5,50.5C 65.0427,53.0384 66.0427,55.3718 67.5,57.5C 66.063,58.7255 64.3964,59.7255 62.5,60.5C 63.5217,61.354 64.3551,62.354 65,63.5C 66.1939,62.5697 67.5272,61.9031 69,61.5C 72.1214,63.5037 75.2881,65.1703 78.5,66.5C 78.6309,67.3764 78.2975,68.0431 77.5,68.5C 75.2534,67.6258 72.9201,67.2924 70.5,67.5C 70.1742,69.6607 69.1742,71.4941 67.5,73C 69.9418,73.9398 72.2751,75.1065 74.5,76.5C 73.8728,77.4168 73.5394,78.4168 73.5,79.5C 73.1667,79.5 72.8333,79.5 72.5,79.5C 70.064,78.129 67.3973,77.129 64.5,76.5C 64.0557,74.8868 63.0557,73.7202 61.5,73C 57.1794,72.501 52.8461,72.3343 48.5,72.5C 48.5,72.1667 48.5,71.8333 48.5,71.5C 50.8031,69.6753 53.1364,67.8419 55.5,66C 54.552,65.5172 53.552,65.3505 52.5,65.5C 53.1716,62.6559 54.5049,60.1559 56.5,58C 54.6652,57.0723 54.3318,55.9056 55.5,54.5C 55.0431,53.7025 54.3764,53.3691 53.5,53.5C 55.5027,51.0181 58.1694,50.0181 61.5,50.5 Z"/></g>
<g><path style="opacity:1" fill="#fdbe9a" d="M 53.5,53.5 C 54.3764,53.3691 55.0431,53.7025 55.5,54.5C 54.3318,55.9056 54.6652,57.0723 56.5,58C 54.5049,60.1559 53.1716,62.6559 52.5,65.5C 53.552,65.3505 54.552,65.5172 55.5,66C 53.1364,67.8419 50.8031,69.6753 48.5,71.5C 48.1961,70.8501 47.8627,70.1835 47.5,69.5C 43.3018,68.6957 39.3018,68.3624 35.5,68.5C 38.1368,67.8359 40.8035,67.1693 43.5,66.5C 44.2304,64.6587 44.8971,62.8254 45.5,61C 47.9355,60.147 50.2688,59.147 52.5,58C 51.4186,56.2894 51.752,54.7894 53.5,53.5 Z"/></g>
<g><path style="opacity:1" fill="#feddd0" d="M 108.5,64.5 C 111.276,65.4121 113.943,66.4121 116.5,67.5C 116.586,68.4959 116.252,69.3292 115.5,70C 116.5,70.3333 117.5,70.6667 118.5,71C 114.643,73.7425 114.643,75.0758 118.5,75C 115.963,77.1675 113.463,79.3342 111,81.5C 109.933,80.8095 108.766,80.3095 107.5,80C 108.624,79.7508 109.624,79.2508 110.5,78.5C 110,78.1667 109.5,77.8333 109,77.5C 107.118,78.606 105.284,78.606 103.5,77.5C 105.748,76.676 105.914,75.676 104,74.5C 102.795,75.0712 101.628,75.7379 100.5,76.5C 100.709,77.086 101.043,77.586 101.5,78C 100.207,78.49 98.8734,78.6567 97.5,78.5C 98.5025,76.9891 99.1692,75.3224 99.5,73.5C 99.5,72.8333 99.5,72.1667 99.5,71.5C 101.14,70.6799 102.807,69.8466 104.5,69C 103.327,65.8897 103.827,65.723 106,68.5C 108.764,67.9754 109.598,66.6421 108.5,64.5 Z"/></g>
<g><path style="opacity:1" fill="#ffe4e8" d="M 80.5,64.5 C 81.7498,64.5774 82.5831,65.244 83,66.5C 83.3333,66.1667 83.6667,65.8333 84,65.5C 84.3603,67.4211 85.1936,69.0878 86.5,70.5C 87.1835,70.1373 87.8501,69.8039 88.5,69.5C 88.4142,70.4959 88.7476,71.3292 89.5,72C 90.938,72.2189 92.2713,72.7189 93.5,73.5C 86.9153,75.2295 86.9153,76.7295 93.5,78C 90.5184,78.498 87.5184,78.6646 84.5,78.5C 81.8128,76.3021 78.8128,74.3021 75.5,72.5C 78.8771,71.4194 80.5438,69.0861 80.5,65.5C 80.5,65.1667 80.5,64.8333 80.5,64.5 Z"/></g>
<g><path style="opacity:1" fill="#ffdad8" d="M 78.5,65.5 C 79.1667,65.5 79.8333,65.5 80.5,65.5C 80.5438,69.0861 78.8771,71.4194 75.5,72.5C 78.8128,74.3021 81.8128,76.3021 84.5,78.5C 83.8333,78.5 83.5,78.8333 83.5,79.5C 80.1667,79.5 76.8333,79.5 73.5,79.5C 73.5394,78.4168 73.8728,77.4168 74.5,76.5C 72.2751,75.1065 69.9418,73.9398 67.5,73C 69.1742,71.4941 70.1742,69.6607 70.5,67.5C 72.9201,67.2924 75.2534,67.6258 77.5,68.5C 78.2975,68.0431 78.6309,67.3764 78.5,66.5C 78.5,66.1667 78.5,65.8333 78.5,65.5 Z"/></g>
<g><path style="opacity:1" fill="#ffcdb7" d="M 35.5,68.5 C 39.3018,68.3624 43.3018,68.6957 47.5,69.5C 47.8627,70.1835 48.1961,70.8501 48.5,71.5C 48.5,71.8333 48.5,72.1667 48.5,72.5C 48.3893,73.1174 48.056,73.6174 47.5,74C 53.4053,73.9848 59.072,74.8182 64.5,76.5C 66.3854,78.3115 68.7187,79.4782 71.5,80C 67.5623,81.7294 63.5623,81.8961 59.5,80.5C 57.9446,80.722 56.6113,81.3887 55.5,82.5C 52.6596,81.7967 49.9929,80.7967 47.5,79.5C 45.9448,78.3673 44.1114,77.7006 42,77.5C 39.3471,79.0839 36.5138,79.9172 33.5,80C 32.5349,77.5261 32.3683,75.0261 33,72.5C 30.9838,73.9552 30.1505,75.9552 30.5,78.5C 29.1667,77.1667 27.8333,75.8333 26.5,74.5C 26.5,73.8333 26.5,73.1667 26.5,72.5C 27.4232,73.3029 28.4232,73.4696 29.5,73C 28.9491,71.6015 28.6158,70.2682 28.5,69C 30.8098,68.5034 33.1432,68.3367 35.5,68.5 Z"/></g>
<g><path style="opacity:1" fill="#ffe7e9" d="M 96.5,59.5 C 96.3354,62.5184 96.502,65.5184 97,68.5C 97.0995,70.6526 97.9328,72.3192 99.5,73.5C 99.1692,75.3224 98.5025,76.9891 97.5,78.5C 97.5,78.8333 97.5,79.1667 97.5,79.5C 94.8333,79.5 92.1667,79.5 89.5,79.5C 87.5,79.5 85.5,79.5 83.5,79.5C 83.5,78.8333 83.8333,78.5 84.5,78.5C 87.5184,78.6646 90.5184,78.498 93.5,78C 86.9153,76.7295 86.9153,75.2295 93.5,73.5C 92.2713,72.7189 90.938,72.2189 89.5,72C 88.7476,71.3292 88.4142,70.4959 88.5,69.5C 88.62,68.4138 89.2867,67.7472 90.5,67.5C 93.5581,68.7828 94.2248,67.7828 92.5,64.5C 93.325,63.6143 94.325,63.281 95.5,63.5C 95.2322,61.901 95.5655,60.5676 96.5,59.5 Z"/></g>
<g><path style="opacity:1" fill="#febf7e" d="M 130.5,66.5 C 127.491,71.3866 128.158,72.22 132.5,69C 135.521,68.3265 138.521,67.9932 141.5,68C 138.959,69.8484 137.959,72.3484 138.5,75.5C 136.5,75.8333 134.5,76.1667 132.5,76.5C 130.473,76.6621 128.473,76.4955 126.5,76C 127.672,75.5814 128.672,74.9147 129.5,74C 128.423,73.5304 127.423,73.6971 126.5,74.5C 126.234,70.9206 124.901,70.5873 122.5,73.5C 122.167,73.1667 121.833,72.8333 121.5,72.5C 123.207,71.1274 124.54,69.4607 125.5,67.5C 127.042,66.6993 128.708,66.366 130.5,66.5 Z"/></g>
<g><path style="opacity:1" fill="#f69e86" d="M 48.5,72.5 C 52.8461,72.3343 57.1794,72.501 61.5,73C 63.0557,73.7202 64.0557,74.8868 64.5,76.5C 59.072,74.8182 53.4053,73.9848 47.5,74C 48.056,73.6174 48.3893,73.1174 48.5,72.5 Z"/></g>
<g><path style="opacity:1" fill="#ffd8af" d="M 141.5,62.5 C 143.751,66.0005 145.751,69.6671 147.5,73.5C 146.201,76.1269 144.534,78.4603 142.5,80.5C 141.573,78.4238 139.907,77.2572 137.5,77C 138.056,76.6174 138.389,76.1174 138.5,75.5C 137.959,72.3484 138.959,69.8484 141.5,68C 138.521,67.9932 135.521,68.3265 132.5,69C 128.158,72.22 127.491,71.3866 130.5,66.5C 133.239,62.9906 136.906,61.6572 141.5,62.5 Z"/></g>
<g><path style="opacity:0.624" fill="#fedcd3" d="M 141.5,62.5 C 152.276,68.4296 152.942,74.9296 143.5,82C 147.12,84.7032 147.287,87.5366 144,90.5C 142.291,93.1156 140.124,94.1156 137.5,93.5C 136.328,93.9186 135.328,94.5853 134.5,95.5C 133.663,97.7452 133.663,100.245 134.5,103C 134.361,104.301 133.695,105.134 132.5,105.5C 132.5,102.833 132.5,100.167 132.5,97.5C 133.598,96.3991 133.765,95.0657 133,93.5C 130.79,94.7488 128.624,94.5822 126.5,93C 127.421,91.244 128.588,91.0773 130,92.5C 132.135,91.8729 134.302,91.3729 136.5,91C 135.672,90.0853 134.672,89.4186 133.5,89C 134.094,88.5357 134.761,88.369 135.5,88.5C 136.376,88.6309 137.043,88.2975 137.5,87.5C 135.709,86.8302 134.042,86.1635 132.5,85.5C 136.748,85.3763 140.082,83.7097 142.5,80.5C 144.534,78.4603 146.201,76.1269 147.5,73.5C 145.751,69.6671 143.751,66.0005 141.5,62.5 Z"/></g>
<g><path style="opacity:1" fill="#fbb198" d="M 47.5,79.5 C 44.059,79.3011 40.7256,79.8011 37.5,81C 44.5618,81.03 45.5618,82.8633 40.5,86.5C 40.1667,86.3333 39.8333,86.1667 39.5,86C 40.3567,85.3109 41.0233,84.4776 41.5,83.5C 39.9547,82.5481 38.288,82.2148 36.5,82.5C 33.9748,82.0233 31.9748,80.6899 30.5,78.5C 30.1505,75.9552 30.9838,73.9552 33,72.5C 32.3683,75.0261 32.5349,77.5261 33.5,80C 36.5138,79.9172 39.3471,79.0839 42,77.5C 44.1114,77.7006 45.9448,78.3673 47.5,79.5 Z"/></g>
<g><path style="opacity:1" fill="#e97c48" d="M 72.5,80.5 C 72.5,80.1667 72.5,79.8333 72.5,79.5C 72.8333,79.5 73.1667,79.5 73.5,79.5C 76.8333,79.5 80.1667,79.5 83.5,79.5C 85.5,79.5 87.5,79.5 89.5,79.5C 89.6716,80.4916 89.3382,81.1583 88.5,81.5C 83.2032,80.7255 77.8699,80.3921 72.5,80.5 Z"/></g>
<g><path style="opacity:1" fill="#ffc898" d="M 138.5,75.5 C 138.389,76.1174 138.056,76.6174 137.5,77C 139.907,77.2572 141.573,78.4238 142.5,80.5C 140.082,83.7097 136.748,85.3763 132.5,85.5C 131.5,85.5 130.5,85.5 129.5,85.5C 128.334,83.834 128.334,82.1673 129.5,80.5C 132.777,79.7463 136.11,79.2463 139.5,79C 136.896,78.6097 134.562,77.7763 132.5,76.5C 134.5,76.1667 136.5,75.8333 138.5,75.5 Z"/></g>
<g><path style="opacity:0.997" fill="#ffe7e9" d="M 26.5,74.5 C 27.8333,75.8333 29.1667,77.1667 30.5,78.5C 31.9748,80.6899 33.9748,82.0233 36.5,82.5C 35.2588,85.463 35.2588,88.463 36.5,91.5C 39.6391,91.1163 42.9725,90.9496 46.5,91C 44.6803,91.2004 43.347,92.0337 42.5,93.5C 41.6993,95.0418 41.366,96.7085 41.5,98.5C 40.2209,97.032 38.5542,96.3653 36.5,96.5C 36.8841,98.6648 36.2174,100.332 34.5,101.5C 31.8121,100.995 29.6454,99.6618 28,97.5C 26.0065,89.661 25.5065,81.9943 26.5,74.5 Z"/></g>
<g><path style="opacity:1" fill="#fbaa95" d="M 64.5,76.5 C 67.3973,77.129 70.064,78.129 72.5,79.5C 72.5,79.8333 72.5,80.1667 72.5,80.5C 73.1098,81.391 73.4431,82.391 73.5,83.5C 70.8599,81.9922 68.5266,82.3256 66.5,84.5C 65.1667,85.5 65.1667,86.5 66.5,87.5C 67.9217,86.2232 68.9217,86.5565 69.5,88.5C 66.5586,89.5912 64.5586,91.0912 63.5,93C 69.9479,94.7315 69.9479,95.5649 63.5,95.5C 59.7356,93.9213 59.7356,92.4213 63.5,91C 62.1011,90.4054 60.7678,90.5721 59.5,91.5C 55.8594,90.1879 56.1927,89.0212 60.5,88C 59.0267,87.2904 58.3601,86.1238 58.5,84.5C 56.2075,84.7564 54.0408,84.4231 52,83.5C 51.5172,84.448 51.3505,85.448 51.5,86.5C 50.5,86.5 49.5,86.5 48.5,86.5C 49.5281,83.7231 49.1947,81.3898 47.5,79.5C 49.9929,80.7967 52.6596,81.7967 55.5,82.5C 56.6113,81.3887 57.9446,80.722 59.5,80.5C 63.5623,81.8961 67.5623,81.7294 71.5,80C 68.7187,79.4782 66.3854,78.3115 64.5,76.5 Z"/></g>
<g><path style="opacity:1" fill="#fed8c6" d="M 116.5,67.5 C 117.467,68.8062 118.801,69.4729 120.5,69.5C 120.714,71.1439 120.38,72.6439 119.5,74C 120.942,74.3768 121.942,75.2101 122.5,76.5C 115.817,82.6608 107.817,85.9942 98.5,86.5C 97.5762,84.6095 96.2429,83.1095 94.5,82C 95.056,81.6174 95.3893,81.1174 95.5,80.5C 96.4916,80.6716 97.1583,80.3382 97.5,79.5C 97.5,79.1667 97.5,78.8333 97.5,78.5C 98.8734,78.6567 100.207,78.49 101.5,78C 101.043,77.586 100.709,77.086 100.5,76.5C 101.628,75.7379 102.795,75.0712 104,74.5C 105.914,75.676 105.748,76.676 103.5,77.5C 105.284,78.606 107.118,78.606 109,77.5C 109.5,77.8333 110,78.1667 110.5,78.5C 109.624,79.2508 108.624,79.7508 107.5,80C 108.766,80.3095 109.933,80.8095 111,81.5C 113.463,79.3342 115.963,77.1675 118.5,75C 114.643,75.0758 114.643,73.7425 118.5,71C 117.5,70.6667 116.5,70.3333 115.5,70C 116.252,69.3292 116.586,68.4959 116.5,67.5 Z"/></g>
<g><path style="opacity:1" fill="#f49961" d="M 132.5,76.5 C 134.562,77.7763 136.896,78.6097 139.5,79C 136.11,79.2463 132.777,79.7463 129.5,80.5C 128.334,82.1673 128.334,83.834 129.5,85.5C 128.833,85.5 128.167,85.5 127.5,85.5C 127.217,84.7109 126.717,84.0442 126,83.5C 124.989,84.3366 123.822,84.67 122.5,84.5C 126.04,82.3175 126.373,79.6508 123.5,76.5C 124.29,75.5987 125.29,74.9321 126.5,74.5C 127.423,73.6971 128.423,73.5304 129.5,74C 128.672,74.9147 127.672,75.5814 126.5,76C 128.473,76.4955 130.473,76.6621 132.5,76.5 Z"/></g>
<g><path style="opacity:1" fill="#ffbea3" d="M 72.5,80.5 C 77.8699,80.3921 83.2032,80.7255 88.5,81.5C 89.7065,82.8804 89.3731,84.0471 87.5,85C 88.756,85.4169 89.4226,86.2502 89.5,87.5C 84.0931,86.4816 78.7598,85.1483 73.5,83.5C 73.4431,82.391 73.1098,81.391 72.5,80.5 Z"/></g>
<g><path style="opacity:1" fill="#fdccc2" d="M 47.5,79.5 C 49.1947,81.3898 49.5281,83.7231 48.5,86.5C 47.9285,88.36 47.9285,90.0267 48.5,91.5C 47.8333,91.5 47.5,91.8333 47.5,92.5C 45.8828,93.038 44.2161,93.3713 42.5,93.5C 43.347,92.0337 44.6803,91.2004 46.5,91C 42.9725,90.9496 39.6391,91.1163 36.5,91.5C 35.2588,88.463 35.2588,85.463 36.5,82.5C 38.288,82.2148 39.9547,82.5481 41.5,83.5C 41.0233,84.4776 40.3567,85.3109 39.5,86C 39.8333,86.1667 40.1667,86.3333 40.5,86.5C 45.5618,82.8633 44.5618,81.03 37.5,81C 40.7256,79.8011 44.059,79.3011 47.5,79.5 Z"/></g>
<g><path style="opacity:1" fill="#ecb091" d="M 122.5,76.5 C 122.833,76.5 123.167,76.5 123.5,76.5C 126.373,79.6508 126.04,82.3175 122.5,84.5C 120.073,85.9194 117.406,86.9194 114.5,87.5C 112.677,88.4909 111.177,89.8243 110,91.5C 109.107,90.9186 108.107,90.5852 107,90.5C 104.774,91.0329 102.607,91.6996 100.5,92.5C 98.5648,93.1495 96.5648,93.4828 94.5,93.5C 94.7563,91.0628 95.4229,88.7294 96.5,86.5C 95.7376,86.0894 94.7376,85.9227 93.5,86C 94.7111,84.8869 94.7111,83.7202 93.5,82.5C 92.3966,82.0024 91.3966,81.6691 90.5,81.5C 92.0453,80.5481 93.712,80.2148 95.5,80.5C 95.3893,81.1174 95.056,81.6174 94.5,82C 96.2429,83.1095 97.5762,84.6095 98.5,86.5C 107.817,85.9942 115.817,82.6608 122.5,76.5 Z"/></g>
<g><path style="opacity:1" fill="#f59d87" d="M 73.5,83.5 C 78.7598,85.1483 84.0931,86.4816 89.5,87.5C 88.7375,88.2679 87.7375,88.7679 86.5,89C 88.2556,89.2022 89.9223,89.7022 91.5,90.5C 89.2692,90.8867 86.9359,91.0534 84.5,91C 85.9423,91.3768 86.9423,92.2101 87.5,93.5C 86.391,93.5569 85.391,93.8902 84.5,94.5C 84.1667,94.5 83.8333,94.5 83.5,94.5C 83.5,93.1667 83.5,91.8333 83.5,90.5C 82.5,90.5 81.5,90.5 80.5,90.5C 80.628,92.6547 80.128,94.6547 79,96.5C 71.9376,102.226 71.1043,101.559 76.5,94.5C 77.4742,92.2573 77.8076,89.924 77.5,87.5C 75.7376,87.6427 74.0709,87.3094 72.5,86.5C 73.2104,89.0858 72.2104,91.0858 69.5,92.5C 68.7084,91.3002 68.7084,89.9669 69.5,88.5C 68.9217,86.5565 67.9217,86.2232 66.5,87.5C 65.1667,86.5 65.1667,85.5 66.5,84.5C 68.5266,82.3256 70.8599,81.9922 73.5,83.5 Z"/></g>
<g><path style="opacity:1" fill="#ef915f" d="M 89.5,79.5 C 92.1667,79.5 94.8333,79.5 97.5,79.5C 97.1583,80.3382 96.4916,80.6716 95.5,80.5C 93.712,80.2148 92.0453,80.5481 90.5,81.5C 91.3966,81.6691 92.3966,82.0024 93.5,82.5C 94.7111,83.7202 94.7111,84.8869 93.5,86C 94.7376,85.9227 95.7376,86.0894 96.5,86.5C 95.4229,88.7294 94.7563,91.0628 94.5,93.5C 92.1667,93.5 89.8333,93.5 87.5,93.5C 86.9423,92.2101 85.9423,91.3768 84.5,91C 86.9359,91.0534 89.2692,90.8867 91.5,90.5C 89.9223,89.7022 88.2556,89.2022 86.5,89C 87.7375,88.7679 88.7375,88.2679 89.5,87.5C 89.4226,86.2502 88.756,85.4169 87.5,85C 89.3731,84.0471 89.7065,82.8804 88.5,81.5C 89.3382,81.1583 89.6716,80.4916 89.5,79.5 Z"/></g>
<g><path style="opacity:1" fill="#f2aca0" d="M 127.5,85.5 C 128.167,85.5 128.833,85.5 129.5,85.5C 130.5,85.5 131.5,85.5 132.5,85.5C 134.042,86.1635 135.709,86.8302 137.5,87.5C 137.043,88.2975 136.376,88.6309 135.5,88.5C 134.054,87.3871 132.387,87.2204 130.5,88C 127.143,90.1225 123.809,91.9558 120.5,93.5C 120.167,93.5 119.833,93.5 119.5,93.5C 117.678,93.1692 116.011,92.5025 114.5,91.5C 118.211,88.3639 122.545,86.3639 127.5,85.5 Z"/></g>
<g><path style="opacity:1" fill="#f37844" d="M 127.5,85.5 C 122.545,86.3639 118.211,88.3639 114.5,91.5C 112.314,92.2698 110.148,93.2698 108,94.5C 107.228,94.3552 106.561,94.0219 106,93.5C 105.5,94.6667 104.667,95.5 103.5,96C 103.833,96.3333 104.167,96.6667 104.5,97C 103.552,97.4828 102.552,97.6495 101.5,97.5C 101.371,95.7839 101.038,94.1172 100.5,92.5C 102.607,91.6996 104.774,91.0329 107,90.5C 108.107,90.5852 109.107,90.9186 110,91.5C 111.177,89.8243 112.677,88.4909 114.5,87.5C 117.406,86.9194 120.073,85.9194 122.5,84.5C 123.822,84.67 124.989,84.3366 126,83.5C 126.717,84.0442 127.217,84.7109 127.5,85.5 Z"/></g>
<g><path style="opacity:1" fill="#ee9a7d" d="M 135.5,88.5 C 134.761,88.369 134.094,88.5357 133.5,89C 134.672,89.4186 135.672,90.0853 136.5,91C 134.302,91.3729 132.135,91.8729 130,92.5C 128.588,91.0773 127.421,91.244 126.5,93C 128.624,94.5822 130.79,94.7488 133,93.5C 133.765,95.0657 133.598,96.3991 132.5,97.5C 128.256,96.586 124.256,95.2527 120.5,93.5C 123.809,91.9558 127.143,90.1225 130.5,88C 132.387,87.2204 134.054,87.3871 135.5,88.5 Z"/></g>
<g><path style="opacity:1" fill="#fdb49d" d="M 63.5,95.5 C 62.5,95.8333 61.8333,96.5 61.5,97.5C 58.7534,96.194 57.0867,97.194 56.5,100.5C 54.8561,100.714 53.3561,100.38 52,99.5C 50.2811,96.9751 49.1144,94.3084 48.5,91.5C 47.9285,90.0267 47.9285,88.36 48.5,86.5C 49.5,86.5 50.5,86.5 51.5,86.5C 51.3505,85.448 51.5172,84.448 52,83.5C 54.0408,84.4231 56.2075,84.7564 58.5,84.5C 58.3601,86.1238 59.0267,87.2904 60.5,88C 56.1927,89.0212 55.8594,90.1879 59.5,91.5C 60.7678,90.5721 62.1011,90.4054 63.5,91C 59.7356,92.4213 59.7356,93.9213 63.5,95.5 Z"/></g>
<g><path style="opacity:1" fill="#f66b32" d="M 87.5,93.5 C 89.8333,93.5 92.1667,93.5 94.5,93.5C 94.33,94.8221 94.6634,95.9887 95.5,97C 94.6195,97.7083 93.9528,98.5416 93.5,99.5C 93.44,100.043 93.1067,100.376 92.5,100.5C 88.915,99.9703 86.2484,98.9703 84.5,97.5C 84.5,96.5 84.5,95.5 84.5,94.5C 85.391,93.8902 86.391,93.5569 87.5,93.5 Z"/></g>
<g><path style="opacity:1" fill="#ffbaa7" d="M 83.5,94.5 C 84.2927,98.0696 85.4594,101.403 87,104.5C 85.2663,105.249 83.433,105.749 81.5,106C 79.8208,108.506 77.4875,110.006 74.5,110.5C 73.3998,109.442 72.0664,108.608 70.5,108C 71.9901,106.228 73.6568,106.061 75.5,107.5C 76.4287,106.311 76.762,104.978 76.5,103.5C 80.2349,103.454 81.5683,101.787 80.5,98.5C 79.6143,99.325 79.281,100.325 79.5,101.5C 76.6029,101.319 73.7695,101.652 71,102.5C 67.5594,101.198 64.3927,99.5314 61.5,97.5C 61.8333,96.5 62.5,95.8333 63.5,95.5C 69.9479,95.5649 69.9479,94.7315 63.5,93C 64.5586,91.0912 66.5586,89.5912 69.5,88.5C 68.7084,89.9669 68.7084,91.3002 69.5,92.5C 72.2104,91.0858 73.2104,89.0858 72.5,86.5C 74.0709,87.3094 75.7376,87.6427 77.5,87.5C 77.8076,89.924 77.4742,92.2573 76.5,94.5C 71.1043,101.559 71.9376,102.226 79,96.5C 80.128,94.6547 80.628,92.6547 80.5,90.5C 81.5,90.5 82.5,90.5 83.5,90.5C 83.5,91.8333 83.5,93.1667 83.5,94.5 Z"/></g>
<g><path style="opacity:1" fill="#fea982" d="M 114.5,91.5 C 116.011,92.5025 117.678,93.1692 119.5,93.5C 119.389,94.1174 119.056,94.6174 118.5,95C 120.208,97.0435 122.208,98.7101 124.5,100C 121.419,99.6345 118.586,98.4678 116,96.5C 116.794,98.4856 116.294,100.319 114.5,102C 109.674,103.8 108.008,103.967 109.5,102.5C 109.649,101.448 109.483,100.448 109,99.5C 105.965,100.184 103.631,101.851 102,104.5C 101.581,103.328 100.915,102.328 100,101.5C 97.2849,102.069 94.7849,103.069 92.5,104.5C 92.3893,103.883 92.056,103.383 91.5,103C 92.8333,102.333 94.1667,101.667 95.5,101C 94.9558,100.283 94.2891,99.7828 93.5,99.5C 93.9528,98.5416 94.6195,97.7083 95.5,97C 94.6634,95.9887 94.33,94.8221 94.5,93.5C 96.5648,93.4828 98.5648,93.1495 100.5,92.5C 101.038,94.1172 101.371,95.7839 101.5,97.5C 102.552,97.6495 103.552,97.4828 104.5,97C 104.167,96.6667 103.833,96.3333 103.5,96C 104.667,95.5 105.5,94.6667 106,93.5C 106.561,94.0219 107.228,94.3552 108,94.5C 110.148,93.2698 112.314,92.2698 114.5,91.5 Z"/></g>
<g><path style="opacity:1" fill="#febea6" d="M 119.5,93.5 C 119.833,93.5 120.167,93.5 120.5,93.5C 124.256,95.2527 128.256,96.586 132.5,97.5C 132.5,100.167 132.5,102.833 132.5,105.5C 131.883,105.611 131.383,105.944 131,106.5C 130.5,105 130,103.5 129.5,102C 130.627,100.943 131.127,99.7766 131,98.5C 128.103,99.5234 125.936,101.357 124.5,104C 123.552,104.483 122.552,104.649 121.5,104.5C 121.5,105.5 121.5,106.5 121.5,107.5C 119.192,107.914 116.858,108.247 114.5,108.5C 111.231,107.407 107.897,106.741 104.5,106.5C 103.584,106.018 102.584,105.685 101.5,105.5C 97.401,107.533 93.0677,108.533 88.5,108.5C 87.5084,108.672 86.8417,108.338 86.5,107.5C 88.7039,106.142 90.7039,105.142 92.5,104.5C 94.7849,103.069 97.2849,102.069 100,101.5C 100.915,102.328 101.581,103.328 102,104.5C 103.631,101.851 105.965,100.184 109,99.5C 109.483,100.448 109.649,101.448 109.5,102.5C 108.008,103.967 109.674,103.8 114.5,102C 116.294,100.319 116.794,98.4856 116,96.5C 118.586,98.4678 121.419,99.6345 124.5,100C 122.208,98.7101 120.208,97.0435 118.5,95C 119.056,94.6174 119.389,94.1174 119.5,93.5 Z"/></g>
<g><path style="opacity:1" fill="#fdbfb0" d="M 61.5,97.5 C 64.3927,99.5314 67.5594,101.198 71,102.5C 73.7695,101.652 76.6029,101.319 79.5,101.5C 79.281,100.325 79.6143,99.325 80.5,98.5C 81.5683,101.787 80.2349,103.454 76.5,103.5C 76.762,104.978 76.4287,106.311 75.5,107.5C 73.6568,106.061 71.9901,106.228 70.5,108C 72.0664,108.608 73.3998,109.442 74.5,110.5C 72.8333,110.5 71.1667,110.5 69.5,110.5C 68.1667,110.5 66.8333,110.5 65.5,110.5C 61.1119,108.444 58.1119,105.111 56.5,100.5C 57.0867,97.194 58.7534,96.194 61.5,97.5 Z"/></g>
<g><path style="opacity:1" fill="#f08661" d="M 83.5,94.5 C 83.8333,94.5 84.1667,94.5 84.5,94.5C 84.5,95.5 84.5,96.5 84.5,97.5C 86.2484,98.9703 88.915,99.9703 92.5,100.5C 93.1067,100.376 93.44,100.043 93.5,99.5C 94.2891,99.7828 94.9558,100.283 95.5,101C 94.1667,101.667 92.8333,102.333 91.5,103C 92.056,103.383 92.3893,103.883 92.5,104.5C 90.7039,105.142 88.7039,106.142 86.5,107.5C 84.8333,107.5 83.1667,107.5 81.5,107.5C 81.5,108.5 81.5,109.5 81.5,110.5C 78.7097,110.222 76.2097,110.889 74,112.5C 72.5603,111.852 71.0603,111.519 69.5,111.5C 69.5,111.167 69.5,110.833 69.5,110.5C 71.1667,110.5 72.8333,110.5 74.5,110.5C 77.4875,110.006 79.8208,108.506 81.5,106C 83.433,105.749 85.2663,105.249 87,104.5C 85.4594,101.403 84.2927,98.0696 83.5,94.5 Z"/></g>
<g><path style="opacity:1" fill="#fdd3d9" d="M 47.5,92.5 C 47.5,91.8333 47.8333,91.5 48.5,91.5C 49.1144,94.3084 50.2811,96.9751 52,99.5C 53.3561,100.38 54.8561,100.714 56.5,100.5C 58.1119,105.111 61.1119,108.444 65.5,110.5C 63.4418,111.933 61.1085,112.6 58.5,112.5C 56.2495,112.819 54.2495,112.319 52.5,111C 53.9506,111.263 55.2839,111.096 56.5,110.5C 55.0921,109.757 53.7588,108.923 52.5,108C 53.858,105.248 53.1913,104.748 50.5,106.5C 48.8839,105.885 47.5505,104.885 46.5,103.5C 48.1173,103.331 49.784,102.997 51.5,102.5C 46.3497,101.044 45.3497,98.2109 48.5,94C 48.4301,93.2352 48.0967,92.7352 47.5,92.5 Z"/></g>
<g><path style="opacity:1" fill="#fee2e7" d="M 47.5,92.5 C 48.0967,92.7352 48.4301,93.2352 48.5,94C 45.3497,98.2109 46.3497,101.044 51.5,102.5C 49.784,102.997 48.1173,103.331 46.5,103.5C 47.5505,104.885 48.8839,105.885 50.5,106.5C 53.1913,104.748 53.858,105.248 52.5,108C 53.7588,108.923 55.0921,109.757 56.5,110.5C 55.2839,111.096 53.9506,111.263 52.5,111C 54.2495,112.319 56.2495,112.819 58.5,112.5C 56.7116,113.622 54.7116,113.789 52.5,113C 50.3651,111.619 48.0318,110.619 45.5,110C 43.9733,108.307 42.6399,106.473 41.5,104.5C 42.6225,102.518 42.6225,100.518 41.5,98.5C 41.366,96.7085 41.6993,95.0418 42.5,93.5C 44.2161,93.3713 45.8828,93.038 47.5,92.5 Z"/></g>
<g><path style="opacity:1" fill="#fed7d1" d="M 132.5,105.5 C 131.647,108.518 129.647,110.351 126.5,111C 124.48,114.006 121.813,115.839 118.5,116.5C 118.918,115.778 119.584,115.278 120.5,115C 116.2,115.655 111.866,116.488 107.5,117.5C 107.768,114.881 107.435,112.381 106.5,110C 109.028,109.331 109.028,108.498 106.5,107.5C 105.232,108.428 103.899,108.595 102.5,108C 103.416,107.722 104.082,107.222 104.5,106.5C 107.897,106.741 111.231,107.407 114.5,108.5C 116.858,108.247 119.192,107.914 121.5,107.5C 121.5,106.5 121.5,105.5 121.5,104.5C 122.552,104.649 123.552,104.483 124.5,104C 125.936,101.357 128.103,99.5234 131,98.5C 131.127,99.7766 130.627,100.943 129.5,102C 130,103.5 130.5,105 131,106.5C 131.383,105.944 131.883,105.611 132.5,105.5 Z"/></g>
<g><path style="opacity:1" fill="#ffd1cb" d="M 86.5,107.5 C 86.8417,108.338 87.5084,108.672 88.5,108.5C 93.5192,111.006 98.1859,114.006 102.5,117.5C 103.525,117.897 103.692,118.563 103,119.5C 102.439,118.978 101.772,118.645 101,118.5C 96.8877,120.416 92.7211,121.082 88.5,120.5C 87.0813,119.549 85.4147,119.216 83.5,119.5C 83.4386,117.408 82.4386,115.908 80.5,115C 81.624,114.751 82.624,114.251 83.5,113.5C 81.6587,112.77 79.8254,112.103 78,111.5C 77.5988,113.521 76.4321,114.855 74.5,115.5C 72.79,114.113 71.1233,112.779 69.5,111.5C 71.0603,111.519 72.5603,111.852 74,112.5C 76.2097,110.889 78.7097,110.222 81.5,110.5C 81.5,109.5 81.5,108.5 81.5,107.5C 83.1667,107.5 84.8333,107.5 86.5,107.5 Z"/></g>
<g><path style="opacity:1" fill="#fec8bf" d="M 104.5,106.5 C 104.082,107.222 103.416,107.722 102.5,108C 103.899,108.595 105.232,108.428 106.5,107.5C 109.028,108.498 109.028,109.331 106.5,110C 107.435,112.381 107.768,114.881 107.5,117.5C 111.866,116.488 116.2,115.655 120.5,115C 119.584,115.278 118.918,115.778 118.5,116.5C 116.703,117.73 114.703,118.396 112.5,118.5C 109.966,118.259 108.3,119.259 107.5,121.5C 106.209,121.737 105.209,121.404 104.5,120.5C 105.806,119.533 106.473,118.199 106.5,116.5C 104.901,116.232 103.568,116.566 102.5,117.5C 98.1859,114.006 93.5192,111.006 88.5,108.5C 93.0677,108.533 97.401,107.533 101.5,105.5C 102.584,105.685 103.584,106.018 104.5,106.5 Z"/></g>
<g><path style="opacity:1" fill="#fecdc8" d="M 65.5,110.5 C 66.8333,110.5 68.1667,110.5 69.5,110.5C 69.5,110.833 69.5,111.167 69.5,111.5C 71.1233,112.779 72.79,114.113 74.5,115.5C 76.4321,114.855 77.5988,113.521 78,111.5C 79.8254,112.103 81.6587,112.77 83.5,113.5C 82.624,114.251 81.624,114.751 80.5,115C 82.4386,115.908 83.4386,117.408 83.5,119.5C 85.4147,119.216 87.0813,119.549 88.5,120.5C 86.4727,120.338 84.4727,120.505 82.5,121C 83.7375,121.232 84.7375,121.732 85.5,122.5C 82.059,122.699 78.7256,122.199 75.5,121C 72.2661,117.33 68.9328,113.83 65.5,110.5 Z"/></g>
<g><path style="opacity:0.011" fill="#fffafb" d="M 112.5,118.5 C 111.232,120.047 109.565,121.047 107.5,121.5C 108.3,119.259 109.966,118.259 112.5,118.5 Z"/></g>
<g><path style="opacity:1" fill="#efa199" d="M 102.5,117.5 C 103.568,116.566 104.901,116.232 106.5,116.5C 106.473,118.199 105.806,119.533 104.5,120.5C 103.167,120.5 101.833,120.5 100.5,120.5C 96.3357,120.956 92.3357,121.622 88.5,122.5C 87.5,122.5 86.5,122.5 85.5,122.5C 84.7375,121.732 83.7375,121.232 82.5,121C 84.4727,120.505 86.4727,120.338 88.5,120.5C 92.7211,121.082 96.8877,120.416 101,118.5C 101.772,118.645 102.439,118.978 103,119.5C 103.692,118.563 103.525,117.897 102.5,117.5 Z"/></g>
<g><path style="opacity:0.004" fill="#fceef3" d="M 100.5,120.5 C 97.8211,122.604 94.8211,124.271 91.5,125.5C 90.3961,124.369 90.7295,123.535 92.5,123C 91.2068,122.51 89.8734,122.343 88.5,122.5C 92.3357,121.622 96.3357,120.956 100.5,120.5 Z"/></g>
<g><path style="opacity:0.714" fill="#73d1d5" d="M 65.5,130.5 C 68.4509,130.108 71.4509,130.608 74.5,132C 77.6287,141.698 74.2954,145.531 64.5,143.5C 64.5,144.833 64.5,146.167 64.5,147.5C 63.448,147.649 62.448,147.483 61.5,147C 63.1482,141.596 64.4816,136.096 65.5,130.5 Z M 68.5,133.5 C 73.7365,133.99 74.9032,136.657 72,141.5C 68.7175,142.911 66.8842,141.745 66.5,138C 66.5186,136.167 67.1852,134.667 68.5,133.5 Z"/></g>
<g><path style="opacity:0.726" fill="#73d2d5" d="M 103.5,133.5 C 105.451,133.227 106.951,133.893 108,135.5C 108.755,138.688 109.589,141.855 110.5,145C 108.265,146.645 107.265,145.812 107.5,142.5C 106.5,142.5 105.5,142.5 104.5,142.5C 104.553,145.061 103.553,147.061 101.5,148.5C 100.808,146.665 101.142,144.832 102.5,143C 97.0701,139.254 97.4034,136.087 103.5,133.5 Z M 102.5,136.5 C 105.5,136.167 106.833,137.5 106.5,140.5C 102.56,141.234 101.227,139.901 102.5,136.5 Z"/></g>
<g><path style="opacity:0.703" fill="#73d1d5" d="M 84.5,134.5 C 90.5,133.833 93.1667,136.5 92.5,142.5C 89.4816,142.335 86.4816,142.502 83.5,143C 85.9778,146.119 88.6445,146.286 91.5,143.5C 92.6065,146.699 91.2732,148.365 87.5,148.5C 81.8098,146.973 79.9764,143.306 82,137.5C 83.045,136.627 83.8783,135.627 84.5,134.5 Z M 85.5,136.5 C 87.9124,136.244 89.5791,137.244 90.5,139.5C 88.2351,140.647 85.9018,140.814 83.5,140C 84.305,138.887 84.9717,137.721 85.5,136.5 Z"/></g>
</svg>
