<?xml version="1.0" encoding="UTF-8"?>
<!DOCTYPE svg PUBLIC "-//W3C//DTD SVG 1.1//EN" "http://www.w3.org/Graphics/SVG/1.1/DTD/svg11.dtd">
<svg xmlns="http://www.w3.org/2000/svg" version="1.1" width="175px" height="175px" style="shape-rendering:geometricPrecision; text-rendering:geometricPrecision; image-rendering:optimizeQuality; fill-rule:evenodd; clip-rule:evenodd" xmlns:xlink="http://www.w3.org/1999/xlink">
<g><path style="opacity:0.672" fill="#17deea" d="M 90.5,19.5 C 93.0961,20.2653 95.7628,20.5987 98.5,20.5C 98.0728,24.8244 97.7395,29.1578 97.5,33.5C 96.5,33.5 95.5,33.5 94.5,33.5C 94.9376,29.9277 95.6042,26.4277 96.5,23C 94.8876,22.2797 93.3876,22.4464 92,23.5C 92.1212,27.5992 90.4545,30.5992 87,32.5C 86.5,32.1667 86,31.8333 85.5,31.5C 86.2421,30.7132 87.0754,30.0465 88,29.5C 88.9433,26.1555 89.7766,22.8221 90.5,19.5 Z"/></g>
<g><path style="opacity:0.681" fill="#17dde9" d="M 72.5,21.5 C 79.2701,19.937 82.2701,22.6037 81.5,29.5C 81.1667,31.1667 80.8333,32.8333 80.5,34.5C 77.9982,34.3787 75.3315,34.2121 72.5,34C 70.7888,32.8668 70.2888,31.3668 71,29.5C 73.3407,27.4785 75.8407,25.8119 78.5,24.5C 77.8333,24.1667 77.1667,23.8333 76.5,23.5C 74.6772,24.8449 72.6772,25.3449 70.5,25C 71.305,23.8873 71.9717,22.7206 72.5,21.5 Z M 75.5,28.5 C 79.8762,27.8876 80.5429,29.0543 77.5,32C 76.2068,32.49 74.8734,32.6567 73.5,32.5C 73.5271,30.8007 74.1938,29.4674 75.5,28.5 Z"/></g>
<g><path style="opacity:0.677" fill="#17deea" d="M 108.5,22.5 C 114.677,23.024 117.01,26.3573 115.5,32.5C 112.523,31.9292 109.69,30.9292 107,29.5C 106.38,33.6902 108.047,35.0236 112,33.5C 113.257,33.8499 113.591,34.5165 113,35.5C 106.477,37.6404 103.477,35.3071 104,28.5C 104.804,25.8541 106.304,23.8541 108.5,22.5 Z M 108.5,25.5 C 112.419,24.7464 113.753,26.0797 112.5,29.5C 110.833,28.6667 109.167,27.8333 107.5,27C 108.056,26.6174 108.389,26.1174 108.5,25.5 Z"/></g>
<g><path style="opacity:0.657" fill="#17dde8" d="M 62.5,24.5 C 63.675,24.281 64.675,24.6143 65.5,25.5C 63.8474,27.1214 61.8474,28.2881 59.5,29C 61.5721,32.3406 62.2388,35.8406 61.5,39.5C 59.5456,35.8077 57.879,31.9743 56.5,28C 58.4319,26.5415 60.4319,25.3748 62.5,24.5 Z"/></g>
<g><path style="opacity:1" fill="#b7f8fd" d="M 128.5,53.5 C 124.901,52.3012 121.235,51.3012 117.5,50.5C 111.37,49.2528 105.037,48.5862 98.5,48.5C 97.1889,54.4172 96.5222,60.4172 96.5,66.5C 95.5386,64.7354 95.2053,62.7354 95.5,60.5C 93.0576,60.6463 92.3909,59.813 93.5,58C 92.4495,56.6152 91.1161,55.6152 89.5,55C 90.938,54.7811 92.2713,54.2811 93.5,53.5C 92.3717,51.4437 90.5383,50.4437 88,50.5C 85.1841,50.7502 82.6841,51.0836 80.5,51.5C 80.2907,52.086 79.9574,52.586 79.5,53C 80.1172,55.277 80.7839,57.4437 81.5,59.5C 81.5394,60.5832 81.8728,61.5832 82.5,62.5C 81.7573,63.1818 81.0906,63.8485 80.5,64.5C 80.1583,65.3382 79.4916,65.6716 78.5,65.5C 76.3227,62.9748 74.3227,60.3081 72.5,57.5C 69.5085,56.6289 66.5085,55.6289 63.5,54.5C 63.5,53.5 63.5,52.5 63.5,51.5C 60.8333,51.8333 58.1667,52.1667 55.5,52.5C 67.0611,46.0619 79.3944,44.3952 92.5,47.5C 92.494,44.4524 93.494,43.9524 95.5,46C 104.272,46.1622 112.938,47.1622 121.5,49C 124.239,50.0259 126.572,51.5259 128.5,53.5 Z"/></g>
<g><path style="opacity:1" fill="#aadecc" d="M 117.5,50.5 C 115.473,50.3379 113.473,50.5045 111.5,51C 112.938,51.2189 114.271,51.7189 115.5,52.5C 115.167,52.8333 114.833,53.1667 114.5,53.5C 109.51,53.3244 104.51,52.9911 99.5,52.5C 99.1568,54.4832 99.8235,55.8166 101.5,56.5C 101.426,58.4109 100.426,59.5776 98.5,60C 99.1276,62.8003 100.128,65.467 101.5,68C 99.0167,68.5666 98.35,69.7333 99.5,71.5C 99.5,72.1667 99.5,72.8333 99.5,73.5C 96.9078,71.9639 95.9078,69.6305 96.5,66.5C 96.5222,60.4172 97.1889,54.4172 98.5,48.5C 105.037,48.5862 111.37,49.2528 117.5,50.5 Z"/></g>
<g><path style="opacity:1" fill="#aadfcc" d="M 117.5,50.5 C 121.235,51.3012 124.901,52.3012 128.5,53.5C 128.678,54.6948 129.011,55.8615 129.5,57C 129.252,58.7491 128.252,59.5824 126.5,59.5C 122.856,57.4285 119.022,55.7618 115,54.5C 113.674,54.7549 112.674,55.4216 112,56.5C 109.707,53.8661 107.54,53.8661 105.5,56.5C 104.167,56.5 102.833,56.5 101.5,56.5C 99.8235,55.8166 99.1568,54.4832 99.5,52.5C 104.51,52.9911 109.51,53.3244 114.5,53.5C 114.833,53.1667 115.167,52.8333 115.5,52.5C 114.271,51.7189 112.938,51.2189 111.5,51C 113.473,50.5045 115.473,50.3379 117.5,50.5 Z"/></g>
<g><path style="opacity:1" fill="#b9e6ea" d="M 72.5,57.5 C 68.7789,57.5207 65.4455,58.5207 62.5,60.5C 61.0379,61.4709 59.7046,61.1376 58.5,59.5C 56.5484,58.2153 54.8818,56.5486 53.5,54.5C 52.8165,54.8627 52.1499,55.1961 51.5,55.5C 50.8333,55.1667 50.1667,54.8333 49.5,54.5C 51.3024,53.5418 53.3024,52.8751 55.5,52.5C 58.1667,52.1667 60.8333,51.8333 63.5,51.5C 63.5,52.5 63.5,53.5 63.5,54.5C 66.5085,55.6289 69.5085,56.6289 72.5,57.5 Z"/></g>
<g><path style="opacity:1" fill="#afe5d8" d="M 126.5,59.5 C 125.345,62.4749 123.678,65.1416 121.5,67.5C 122.7,68.2916 124.033,68.2916 125.5,67.5C 124.54,69.4607 123.207,71.1274 121.5,72.5C 121.833,72.8333 122.167,73.1667 122.5,73.5C 124.901,70.5873 126.234,70.9206 126.5,74.5C 125.5,75.1667 124.5,75.8333 123.5,76.5C 119.001,79.7409 114.335,82.4076 109.5,84.5C 108.041,84.4326 106.708,84.7659 105.5,85.5C 103.143,85.6633 100.81,85.4966 98.5,85C 102.299,83.4471 102.299,82.1138 98.5,81C 99.3805,80.2917 100.047,79.4584 100.5,78.5C 101.55,78.0954 101.55,77.4288 100.5,76.5C 101.325,75.6143 102.325,75.281 103.5,75.5C 103.5,76.8333 103.5,78.1667 103.5,79.5C 106.001,80.8264 108.668,81.3264 111.5,81C 114.167,79 116.833,77 119.5,75C 118.216,74.3162 117.049,74.4829 116,75.5C 115.909,72.5724 117.409,70.7391 120.5,70C 119.207,69.51 117.873,69.3433 116.5,69.5C 116.5,68.5 116.5,67.5 116.5,66.5C 113.463,66.5523 110.796,65.5523 108.5,63.5C 111.951,61.9516 112.284,59.9516 109.5,57.5C 108.264,56.7542 106.93,56.4208 105.5,56.5C 107.54,53.8661 109.707,53.8661 112,56.5C 112.674,55.4216 113.674,54.7549 115,54.5C 119.022,55.7618 122.856,57.4285 126.5,59.5 Z"/></g>
<g><path style="opacity:1" fill="#aec4b5" d="M 72.5,57.5 C 74.3227,60.3081 76.3227,62.9748 78.5,65.5C 76.6365,66.7928 74.6365,66.7928 72.5,65.5C 71.0296,61.0661 68.5296,60.3994 65,63.5C 64.3021,62.3094 63.4687,61.3094 62.5,60.5C 65.4455,58.5207 68.7789,57.5207 72.5,57.5 Z"/></g>
<g><path style="opacity:1" fill="#b0e6d7" d="M 49.5,54.5 C 50.1667,54.8333 50.8333,55.1667 51.5,55.5C 50.0836,57.9158 48.0836,59.9158 45.5,61.5C 44.8333,63.1667 44.1667,64.8333 43.5,66.5C 38.8262,67.5033 34.1596,68.5033 29.5,69.5C 29.8795,72.5669 28.8795,73.5669 26.5,72.5C 25.5354,71.2789 25.702,69.9456 27,68.5C 29.1847,67.0716 31.1847,65.4049 33,63.5C 33.1629,61.324 33.9963,59.4907 35.5,58C 38.5112,57.2569 41.1779,55.9235 43.5,54C 45.5976,53.3224 47.5976,53.4891 49.5,54.5 Z"/></g>
<g><path style="opacity:1" fill="#b6f4fe" d="M 96.5,66.5 C 95.9078,69.6305 96.9078,71.9639 99.5,73.5C 99.6085,75.5138 98.9418,77.1805 97.5,78.5C 97.5,78.8333 97.5,79.1667 97.5,79.5C 92.8333,79.5 88.1667,79.5 83.5,79.5C 83.5,79.1667 83.5,78.8333 83.5,78.5C 86.8499,78.665 90.1832,78.4983 93.5,78C 86.862,76.5457 86.862,75.379 93.5,74.5C 93.3601,72.8762 94.0267,71.7096 95.5,71C 93.5355,70.376 91.8689,70.876 90.5,72.5C 89.2011,71.91 88.3678,70.91 88,69.5C 86.1745,70.5709 85.0079,69.9042 84.5,67.5C 85.3966,67.3309 86.3966,66.9976 87.5,66.5C 84.1324,63.7677 82.4657,60.4344 82.5,56.5C 81.6143,57.325 81.281,58.325 81.5,59.5C 80.7839,57.4437 80.1172,55.277 79.5,53C 79.9574,52.586 80.2907,52.086 80.5,51.5C 82.6841,51.0836 85.1841,50.7502 88,50.5C 90.5383,50.4437 92.3717,51.4437 93.5,53.5C 92.2713,54.2811 90.938,54.7811 89.5,55C 91.1161,55.6152 92.4495,56.6152 93.5,58C 92.3909,59.813 93.0576,60.6463 95.5,60.5C 95.2053,62.7354 95.5386,64.7354 96.5,66.5 Z"/></g>
<g><path style="opacity:1" fill="#b1ebe7" d="M 101.5,56.5 C 102.833,56.5 104.167,56.5 105.5,56.5C 106.93,56.4208 108.264,56.7542 109.5,57.5C 112.284,59.9516 111.951,61.9516 108.5,63.5C 110.796,65.5523 113.463,66.5523 116.5,66.5C 116.5,67.5 116.5,68.5 116.5,69.5C 114.559,69.1307 112.725,68.464 111,67.5C 107.46,69.7262 103.627,71.0595 99.5,71.5C 98.35,69.7333 99.0167,68.5666 101.5,68C 100.128,65.467 99.1276,62.8003 98.5,60C 100.426,59.5776 101.426,58.4109 101.5,56.5 Z"/></g>
<g><path style="opacity:1" fill="#b6f4fa" d="M 128.5,53.5 C 131.082,56.6983 134.082,59.365 137.5,61.5C 136.508,61.3284 135.842,61.6618 135.5,62.5C 132.611,65.056 129.278,66.7227 125.5,67.5C 124.033,68.2916 122.7,68.2916 121.5,67.5C 123.678,65.1416 125.345,62.4749 126.5,59.5C 128.252,59.5824 129.252,58.7491 129.5,57C 129.011,55.8615 128.678,54.6948 128.5,53.5 Z"/></g>
<g><path style="opacity:1" fill="#b6e0e5" d="M 59.5,72.5 C 55.8333,72.5 52.1667,72.5 48.5,72.5C 48.5,72.1667 48.5,71.8333 48.5,71.5C 52.1219,69.2133 55.4552,66.5466 58.5,63.5C 59.6948,63.3225 60.8615,62.9891 62,62.5C 64.0492,64.6077 66.5492,65.7743 69.5,66C 66.2993,68.4297 62.9659,70.5963 59.5,72.5 Z"/></g>
<g><path style="opacity:1" fill="#b9e3e6" d="M 58.5,59.5 C 59.7046,61.1376 61.0379,61.4709 62.5,60.5C 63.4687,61.3094 64.3021,62.3094 65,63.5C 68.5296,60.3994 71.0296,61.0661 72.5,65.5C 74.6365,66.7928 76.6365,66.7928 78.5,65.5C 79.4916,65.6716 80.1583,65.3382 80.5,64.5C 81.0431,64.56 81.3764,64.8933 81.5,65.5C 80.6489,68.8985 78.6489,71.2318 75.5,72.5C 78.6516,74.0522 81.3183,76.0522 83.5,78.5C 83.5,78.8333 83.5,79.1667 83.5,79.5C 79.8333,79.5 76.1667,79.5 72.5,79.5C 70.064,78.129 67.3973,77.129 64.5,76.5C 63.4154,74.4131 61.7488,73.0798 59.5,72.5C 62.9659,70.5963 66.2993,68.4297 69.5,66C 66.5492,65.7743 64.0492,64.6077 62,62.5C 60.8615,62.9891 59.6948,63.3225 58.5,63.5C 57.5,63.5 56.5,63.5 55.5,63.5C 56.0008,61.2933 57.0008,59.9599 58.5,59.5 Z"/></g>
<g><path style="opacity:1" fill="#abceb2" d="M 58.5,59.5 C 57.0008,59.9599 56.0008,61.2933 55.5,63.5C 56.5,63.5 57.5,63.5 58.5,63.5C 55.4552,66.5466 52.1219,69.2133 48.5,71.5C 48.1961,70.8501 47.8627,70.1835 47.5,69.5C 37.0923,65.938 32.759,69.6047 34.5,80.5C 33.8333,80.5 33.1667,80.5 32.5,80.5C 30.1394,78.8061 28.1394,76.8061 26.5,74.5C 26.5,73.8333 26.5,73.1667 26.5,72.5C 28.8795,73.5669 29.8795,72.5669 29.5,69.5C 34.1596,68.5033 38.8262,67.5033 43.5,66.5C 44.1667,64.8333 44.8333,63.1667 45.5,61.5C 48.0836,59.9158 50.0836,57.9158 51.5,55.5C 52.1499,55.1961 52.8165,54.8627 53.5,54.5C 54.8818,56.5486 56.5484,58.2153 58.5,59.5 Z"/></g>
<g><path style="opacity:1" fill="#afe8e3" d="M 116.5,69.5 C 117.873,69.3433 119.207,69.51 120.5,70C 117.409,70.7391 115.909,72.5724 116,75.5C 117.049,74.4829 118.216,74.3162 119.5,75C 116.833,77 114.167,79 111.5,81C 108.668,81.3264 106.001,80.8264 103.5,79.5C 103.5,78.1667 103.5,76.8333 103.5,75.5C 102.325,75.281 101.325,75.6143 100.5,76.5C 101.55,77.4288 101.55,78.0954 100.5,78.5C 99.5,78.5 98.5,78.5 97.5,78.5C 98.9418,77.1805 99.6085,75.5138 99.5,73.5C 99.5,72.8333 99.5,72.1667 99.5,71.5C 103.627,71.0595 107.46,69.7262 111,67.5C 112.725,68.464 114.559,69.1307 116.5,69.5 Z"/></g>
<g><path style="opacity:1" fill="#b4f0fc" d="M 83.5,78.5 C 81.3183,76.0522 78.6516,74.0522 75.5,72.5C 78.6489,71.2318 80.6489,68.8985 81.5,65.5C 81.3764,64.8933 81.0431,64.56 80.5,64.5C 81.0906,63.8485 81.7573,63.1818 82.5,62.5C 81.8728,61.5832 81.5394,60.5832 81.5,59.5C 81.281,58.325 81.6143,57.325 82.5,56.5C 82.4657,60.4344 84.1324,63.7677 87.5,66.5C 86.3966,66.9976 85.3966,67.3309 84.5,67.5C 85.0079,69.9042 86.1745,70.5709 88,69.5C 88.3678,70.91 89.2011,71.91 90.5,72.5C 91.8689,70.876 93.5355,70.376 95.5,71C 94.0267,71.7096 93.3601,72.8762 93.5,74.5C 86.862,75.379 86.862,76.5457 93.5,78C 90.1832,78.4983 86.8499,78.665 83.5,78.5 Z"/></g>
<g><path style="opacity:1" fill="#b6e4c5" d="M 135.5,62.5 C 135.842,61.6618 136.508,61.3284 137.5,61.5C 139.099,61.2322 140.432,61.5655 141.5,62.5C 143.067,64.6521 144.734,66.8188 146.5,69C 145.815,71.7952 145.315,74.6285 145,77.5C 143.317,78.8866 142.15,80.5533 141.5,82.5C 141.75,79.4955 140.417,77.6622 137.5,77C 138.028,73.9821 139.028,71.1488 140.5,68.5C 139.5,67.8333 138.5,67.1667 137.5,66.5C 138.246,65.2638 138.579,63.9305 138.5,62.5C 137.5,62.5 136.5,62.5 135.5,62.5 Z"/></g>
<g><path style="opacity:1" fill="#b5cf9c" d="M 135.5,62.5 C 136.5,62.5 137.5,62.5 138.5,62.5C 138.579,63.9305 138.246,65.2638 137.5,66.5C 138.5,67.1667 139.5,67.8333 140.5,68.5C 139.028,71.1488 138.028,73.9821 137.5,77C 140.417,77.6622 141.75,79.4955 141.5,82.5C 138.554,84.6315 135.221,85.6315 131.5,85.5C 130.833,85.5 130.167,85.5 129.5,85.5C 128.248,83.6612 128.248,81.8278 129.5,80C 132.833,79.6667 136.167,79.3333 139.5,79C 135.261,77.587 130.928,76.587 126.5,76C 127.672,75.5814 128.672,74.9147 129.5,74C 128.423,73.5304 127.423,73.6971 126.5,74.5C 126.234,70.9206 124.901,70.5873 122.5,73.5C 122.167,73.1667 121.833,72.8333 121.5,72.5C 123.207,71.1274 124.54,69.4607 125.5,67.5C 129.278,66.7227 132.611,65.056 135.5,62.5 Z"/></g>
<g><path style="opacity:1" fill="#9bb1a2" d="M 48.5,72.5 C 52.1667,72.5 55.8333,72.5 59.5,72.5C 61.7488,73.0798 63.4154,74.4131 64.5,76.5C 62.4418,75.0669 60.1085,74.4003 57.5,74.5C 54.1501,74.665 50.8168,74.4983 47.5,74C 48.056,73.6174 48.3893,73.1174 48.5,72.5 Z"/></g>
<g><path style="opacity:1" fill="#b7dbd0" d="M 48.5,71.5 C 48.5,71.8333 48.5,72.1667 48.5,72.5C 48.3893,73.1174 48.056,73.6174 47.5,74C 50.8168,74.4983 54.1501,74.665 57.5,74.5C 54.5865,75.9061 52.0865,77.9061 50,80.5C 47.5693,78.9114 44.9026,77.9114 42,77.5C 39.5773,78.6257 37.0773,79.6257 34.5,80.5C 32.759,69.6047 37.0923,65.938 47.5,69.5C 47.8627,70.1835 48.1961,70.8501 48.5,71.5 Z"/></g>
<g><path style="opacity:1" fill="#b1cfc6" d="M 57.5,74.5 C 60.1085,74.4003 62.4418,75.0669 64.5,76.5C 66.3854,78.3115 68.7187,79.4782 71.5,80C 67.5623,81.7294 63.5623,81.8961 59.5,80.5C 57.9446,80.722 56.6113,81.3887 55.5,82.5C 53.5202,81.6167 51.5202,81.7834 49.5,83C 51.5183,83.5046 53.5183,84.0046 55.5,84.5C 56.552,84.3505 57.552,84.5172 58.5,85C 57.0953,86.2692 55.4286,86.7692 53.5,86.5C 53.6399,88.1238 52.9733,89.2904 51.5,90C 52.9733,90.7096 53.6399,91.8762 53.5,93.5C 54.675,93.281 55.675,93.6143 56.5,94.5C 54.604,95.4656 52.604,95.7989 50.5,95.5C 50.6641,92.8127 50.4974,90.146 50,87.5C 49.1667,88.3333 48.3333,89.1667 47.5,90C 48.8228,90.8159 49.4894,91.9826 49.5,93.5C 47.4156,91.1697 44.749,90.003 41.5,90C 45.6374,87.1307 44.9707,85.7974 39.5,86C 42.1941,83.4475 41.5274,82.2808 37.5,82.5C 37.4437,85.517 37.1103,85.8503 36.5,83.5C 35.5525,82.0221 34.2191,81.0221 32.5,80.5C 33.1667,80.5 33.8333,80.5 34.5,80.5C 37.0773,79.6257 39.5773,78.6257 42,77.5C 44.9026,77.9114 47.5693,78.9114 50,80.5C 52.0865,77.9061 54.5865,75.9061 57.5,74.5 Z"/></g>
<g><path style="opacity:1" fill="#abd3ba" d="M 97.5,78.5 C 98.5,78.5 99.5,78.5 100.5,78.5C 100.047,79.4584 99.3805,80.2917 98.5,81C 102.299,82.1138 102.299,83.4471 98.5,85C 100.81,85.4966 103.143,85.6633 105.5,85.5C 103.114,87.1762 100.447,88.5095 97.5,89.5C 99.3316,90.0568 100.665,91.0568 101.5,92.5C 101.167,92.5 100.833,92.5 100.5,92.5C 98.5648,93.1495 96.5648,93.4828 94.5,93.5C 94.7563,91.0628 95.4229,88.7294 96.5,86.5C 95.7376,86.0894 94.7376,85.9227 93.5,86C 94.4506,85.2825 94.6172,84.4491 94,83.5C 92.7949,82.9288 91.6283,82.2621 90.5,81.5C 92.9688,80.8319 95.3021,80.1653 97.5,79.5C 97.5,79.1667 97.5,78.8333 97.5,78.5 Z"/></g>
<g><path style="opacity:1" fill="#8fc4b4" d="M 123.5,76.5 C 126.373,79.6508 126.04,82.3175 122.5,84.5C 122.167,84.5 121.833,84.5 121.5,84.5C 117.618,84.9306 113.618,84.9306 109.5,84.5C 114.335,82.4076 119.001,79.7409 123.5,76.5 Z"/></g>
<g><path style="opacity:1" fill="#94a073" d="M 72.5,80.5 C 72.5,80.1667 72.5,79.8333 72.5,79.5C 76.1667,79.5 79.8333,79.5 83.5,79.5C 88.1667,79.5 92.8333,79.5 97.5,79.5C 95.3021,80.1653 92.9688,80.8319 90.5,81.5C 91.6283,82.2621 92.7949,82.9288 94,83.5C 94.6172,84.4491 94.4506,85.2825 93.5,86C 94.7376,85.9227 95.7376,86.0894 96.5,86.5C 95.4229,88.7294 94.7563,91.0628 94.5,93.5C 94.1667,93.5 93.8333,93.5 93.5,93.5C 91.5,93.5 89.5,93.5 87.5,93.5C 86.9423,92.2101 85.9423,91.3768 84.5,91C 85.8333,90.6667 87.1667,90.3333 88.5,90C 87.8333,89.6667 87.1667,89.3333 86.5,89C 88.3427,88.8413 89.0093,88.3413 88.5,87.5C 88.8541,85.4588 88.8541,83.6255 88.5,82C 83.2461,80.7288 77.9127,80.2288 72.5,80.5 Z"/></g>
<g><path style="opacity:1" fill="#b4cab7" d="M 72.5,80.5 C 77.9127,80.2288 83.2461,80.7288 88.5,82C 88.8541,83.6255 88.8541,85.4588 88.5,87.5C 83.8699,86.3425 79.2032,85.1758 74.5,84C 73.695,82.8873 73.0283,81.7206 72.5,80.5 Z"/></g>
<g><path style="opacity:1" fill="#92a474" d="M 129.5,85.5 C 128.833,85.5 128.167,85.5 127.5,85.5C 127.217,84.7109 126.717,84.0442 126,83.5C 124.989,84.3366 123.822,84.67 122.5,84.5C 126.04,82.3175 126.373,79.6508 123.5,76.5C 124.5,75.8333 125.5,75.1667 126.5,74.5C 127.423,73.6971 128.423,73.5304 129.5,74C 128.672,74.9147 127.672,75.5814 126.5,76C 130.928,76.587 135.261,77.587 139.5,79C 136.167,79.3333 132.833,79.6667 129.5,80C 128.248,81.8278 128.248,83.6612 129.5,85.5 Z"/></g>
<g><path style="opacity:1" fill="#98ad9f" d="M 64.5,76.5 C 67.3973,77.129 70.064,78.129 72.5,79.5C 72.5,79.8333 72.5,80.1667 72.5,80.5C 73.0283,81.7206 73.695,82.8873 74.5,84C 79.2032,85.1758 83.8699,86.3425 88.5,87.5C 89.0093,88.3413 88.3427,88.8413 86.5,89C 87.1667,89.3333 87.8333,89.6667 88.5,90C 87.1667,90.3333 85.8333,90.6667 84.5,91C 85.9423,91.3768 86.9423,92.2101 87.5,93.5C 85.0882,93.6941 84.0882,95.0274 84.5,97.5C 85.2423,99.4258 86.2423,101.259 87.5,103C 86.9221,104.417 85.9221,105.25 84.5,105.5C 84.631,104.761 84.4643,104.094 84,103.5C 80.6152,105.061 79.9486,104.394 82,101.5C 82.6667,98.8333 82.6667,96.1667 82,93.5C 79.0906,96.4112 75.9239,98.5779 72.5,100C 73.3805,99.2917 74.0472,98.4584 74.5,97.5C 76.8028,94.6093 77.8028,91.276 77.5,87.5C 75.7376,87.6427 74.0709,87.3094 72.5,86.5C 73.2104,89.0858 72.2104,91.0858 69.5,92.5C 68.9041,91.2839 68.7374,89.9506 69,88.5C 68.1841,89.8228 67.0174,90.4894 65.5,90.5C 62.4816,90.6646 59.4816,90.498 56.5,90C 59.6994,89.5992 62.6994,88.7659 65.5,87.5C 65.5,86.5 65.5,85.5 65.5,84.5C 62.9122,84.4567 60.7456,83.4567 59,81.5C 57.8549,82.6364 56.6883,83.6364 55.5,84.5C 53.5183,84.0046 51.5183,83.5046 49.5,83C 51.5202,81.7834 53.5202,81.6167 55.5,82.5C 56.6113,81.3887 57.9446,80.722 59.5,80.5C 63.5623,81.8961 67.5623,81.7294 71.5,80C 68.7187,79.4782 66.3854,78.3115 64.5,76.5 Z"/></g>
<g><path style="opacity:1" fill="#83b39a" d="M 121.5,84.5 C 119.55,86.026 117.217,87.026 114.5,87.5C 112.625,88.4095 111.292,89.7428 110.5,91.5C 107.461,90.6644 104.461,90.9978 101.5,92.5C 100.665,91.0568 99.3316,90.0568 97.5,89.5C 100.447,88.5095 103.114,87.1762 105.5,85.5C 106.708,84.7659 108.041,84.4326 109.5,84.5C 113.618,84.9306 117.618,84.9306 121.5,84.5 Z"/></g>
<g><path style="opacity:1" fill="#7d7e5a" d="M 127.5,85.5 C 124.546,86.4279 121.546,87.2612 118.5,88C 117.944,88.3826 117.611,88.8826 117.5,89.5C 115.821,89.2852 114.821,89.9519 114.5,91.5C 113.432,92.4345 112.099,92.7678 110.5,92.5C 110.5,92.1667 110.5,91.8333 110.5,91.5C 111.292,89.7428 112.625,88.4095 114.5,87.5C 117.217,87.026 119.55,86.026 121.5,84.5C 121.833,84.5 122.167,84.5 122.5,84.5C 123.822,84.67 124.989,84.3366 126,83.5C 126.717,84.0442 127.217,84.7109 127.5,85.5 Z"/></g>
<g><path style="opacity:1" fill="#a9c0b1" d="M 65.5,90.5 C 66.246,92.3428 67.5794,93.6761 69.5,94.5C 67.9547,95.4519 66.288,95.7852 64.5,95.5C 62.4017,94.0857 61.4017,94.7524 61.5,97.5C 59.0365,96.4851 57.3698,97.4851 56.5,100.5C 52.1966,100.279 49.8633,97.9453 49.5,93.5C 49.4894,91.9826 48.8228,90.8159 47.5,90C 48.3333,89.1667 49.1667,88.3333 50,87.5C 50.4974,90.146 50.6641,92.8127 50.5,95.5C 52.604,95.7989 54.604,95.4656 56.5,94.5C 55.675,93.6143 54.675,93.281 53.5,93.5C 53.6399,91.8762 52.9733,90.7096 51.5,90C 52.9733,89.2904 53.6399,88.1238 53.5,86.5C 55.4286,86.7692 57.0953,86.2692 58.5,85C 57.552,84.5172 56.552,84.3505 55.5,84.5C 56.6883,83.6364 57.8549,82.6364 59,81.5C 60.7456,83.4567 62.9122,84.4567 65.5,84.5C 65.5,85.5 65.5,86.5 65.5,87.5C 62.6994,88.7659 59.6994,89.5992 56.5,90C 59.4816,90.498 62.4816,90.6646 65.5,90.5 Z"/></g>
<g><path style="opacity:1" fill="#87abaa" d="M 127.5,85.5 C 128.167,85.5 128.833,85.5 129.5,85.5C 130.167,85.5 130.833,85.5 131.5,85.5C 131.082,86.2216 130.416,86.7216 129.5,87C 129.728,87.3988 130.062,87.5654 130.5,87.5C 127.205,89.1411 124.205,91.1411 121.5,93.5C 120.167,92.1667 118.833,90.8333 117.5,89.5C 117.611,88.8826 117.944,88.3826 118.5,88C 121.546,87.2612 124.546,86.4279 127.5,85.5 Z"/></g>
<g><path style="opacity:1" fill="#b4e9e9" d="M 141.5,62.5 C 152.276,68.4296 152.942,74.9296 143.5,82C 147.12,84.7032 147.287,87.5366 144,90.5C 142.291,93.1156 140.124,94.1156 137.5,93.5C 136.328,93.9186 135.328,94.5853 134.5,95.5C 133.663,97.7452 133.663,100.245 134.5,103C 134.361,104.301 133.695,105.134 132.5,105.5C 132.5,102.833 132.5,100.167 132.5,97.5C 133.039,94.9584 134.372,92.7918 136.5,91C 135.672,90.0853 134.672,89.4186 133.5,89C 134.167,88.6667 134.833,88.3333 135.5,88C 133.866,87.5065 132.199,87.3398 130.5,87.5C 130.062,87.5654 129.728,87.3988 129.5,87C 130.416,86.7216 131.082,86.2216 131.5,85.5C 135.221,85.6315 138.554,84.6315 141.5,82.5C 142.15,80.5533 143.317,78.8866 145,77.5C 145.315,74.6285 145.815,71.7952 146.5,69C 144.734,66.8188 143.067,64.6521 141.5,62.5 Z"/></g>
<g><path style="opacity:0.954" fill="#b8f3fa" d="M 26.5,74.5 C 28.1394,76.8061 30.1394,78.8061 32.5,80.5C 34.2191,81.0221 35.5525,82.0221 36.5,83.5C 35.1997,86.0241 35.1997,88.6908 36.5,91.5C 37.086,91.2907 37.586,90.9574 38,90.5C 39.6667,91.7332 41.1667,93.0665 42.5,94.5C 41.5655,95.5676 41.2322,96.901 41.5,98.5C 40.2209,97.032 38.5542,96.3653 36.5,96.5C 36.8841,98.6648 36.2174,100.332 34.5,101.5C 31.8121,100.995 29.6454,99.6618 28,97.5C 26.0065,89.661 25.5065,81.9943 26.5,74.5 Z"/></g>
<g><path style="opacity:1" fill="#aec9bf" d="M 74.5,97.5 C 71.4742,98.5767 68.4742,98.5767 65.5,97.5C 64.7025,97.0431 64.3691,96.3764 64.5,95.5C 66.288,95.7852 67.9547,95.4519 69.5,94.5C 67.5794,93.6761 66.246,92.3428 65.5,90.5C 67.0174,90.4894 68.1841,89.8228 69,88.5C 68.7374,89.9506 68.9041,91.2839 69.5,92.5C 72.2104,91.0858 73.2104,89.0858 72.5,86.5C 74.0709,87.3094 75.7376,87.6427 77.5,87.5C 77.8028,91.276 76.8028,94.6093 74.5,97.5 Z"/></g>
<g><path style="opacity:1" fill="#9b8759" d="M 110.5,91.5 C 110.5,91.8333 110.5,92.1667 110.5,92.5C 109.415,94.5822 107.915,94.9156 106,93.5C 105.5,94.6667 104.667,95.5 103.5,96C 104.712,97.1068 104.379,97.6068 102.5,97.5C 101.559,95.9505 100.893,94.2838 100.5,92.5C 100.833,92.5 101.167,92.5 101.5,92.5C 104.461,90.9978 107.461,90.6644 110.5,91.5 Z"/></g>
<g><path style="opacity:1" fill="#9db59f" d="M 130.5,87.5 C 132.199,87.3398 133.866,87.5065 135.5,88C 134.833,88.3333 134.167,88.6667 133.5,89C 134.672,89.4186 135.672,90.0853 136.5,91C 134.372,92.7918 133.039,94.9584 132.5,97.5C 128.425,96.6919 124.758,95.3586 121.5,93.5C 124.205,91.1411 127.205,89.1411 130.5,87.5 Z"/></g>
<g><path style="opacity:1" fill="#997948" d="M 87.5,93.5 C 89.5,93.5 91.5,93.5 93.5,93.5C 95.5108,95.5911 95.5108,97.2578 93.5,98.5C 93.6309,99.3764 93.2975,100.043 92.5,100.5C 88.915,99.9703 86.2484,98.9703 84.5,97.5C 84.0882,95.0274 85.0882,93.6941 87.5,93.5 Z"/></g>
<g><path style="opacity:1" fill="#bbad7f" d="M 100.5,92.5 C 100.893,94.2838 101.559,95.9505 102.5,97.5C 100.379,97.3253 98.3792,97.6586 96.5,98.5C 95.5,98.5 94.5,98.5 93.5,98.5C 95.5108,97.2578 95.5108,95.5911 93.5,93.5C 93.8333,93.5 94.1667,93.5 94.5,93.5C 96.5648,93.4828 98.5648,93.1495 100.5,92.5 Z"/></g>
<g><path style="opacity:1" fill="#afdfe5" d="M 49.5,93.5 C 49.8633,97.9453 52.1966,100.279 56.5,100.5C 56.5,101.167 56.5,101.833 56.5,102.5C 56.1667,102.5 55.8333,102.5 55.5,102.5C 53.369,101.686 51.0356,101.186 48.5,101C 46.3862,99.5024 45.8862,97.6691 47,95.5C 46.6667,95.1667 46.3333,94.8333 46,94.5C 44.4455,96.9272 43.2789,96.9272 42.5,94.5C 41.1667,93.0665 39.6667,91.7332 38,90.5C 37.586,90.9574 37.086,91.2907 36.5,91.5C 35.1997,88.6908 35.1997,86.0241 36.5,83.5C 37.1103,85.8503 37.4437,85.517 37.5,82.5C 41.5274,82.2808 42.1941,83.4475 39.5,86C 44.9707,85.7974 45.6374,87.1307 41.5,90C 44.749,90.003 47.4156,91.1697 49.5,93.5 Z"/></g>
<g><path style="opacity:1" fill="#b7ebf8" d="M 42.5,94.5 C 43.2789,96.9272 44.4455,96.9272 46,94.5C 46.3333,94.8333 46.6667,95.1667 47,95.5C 45.8862,97.6691 46.3862,99.5024 48.5,101C 51.0356,101.186 53.369,101.686 55.5,102.5C 52.6424,102.595 50.3091,103.762 48.5,106C 49.8333,106.333 51.1667,106.667 52.5,107C 50.4523,108.226 50.119,109.726 51.5,111.5C 47.5294,111.515 44.5294,109.848 42.5,106.5C 42.5627,103.867 42.2294,101.201 41.5,98.5C 41.2322,96.901 41.5655,95.5676 42.5,94.5 Z"/></g>
<g><path style="opacity:1" fill="#aab79a" d="M 114.5,91.5 C 117.805,93.0672 118.138,95.0672 115.5,97.5C 115.863,98.1835 116.196,98.8501 116.5,99.5C 113.948,102.483 110.615,103.65 106.5,103C 107.696,102.346 107.696,101.846 106.5,101.5C 104.566,101.901 103.066,102.901 102,104.5C 100.713,101.855 98.5468,100.855 95.5,101.5C 95.5569,100.391 95.8902,99.391 96.5,98.5C 98.3792,97.6586 100.379,97.3253 102.5,97.5C 104.379,97.6068 104.712,97.1068 103.5,96C 104.667,95.5 105.5,94.6667 106,93.5C 107.915,94.9156 109.415,94.5822 110.5,92.5C 112.099,92.7678 113.432,92.4345 114.5,91.5 Z"/></g>
<g><path style="opacity:1" fill="#a8cabd" d="M 117.5,89.5 C 118.833,90.8333 120.167,92.1667 121.5,93.5C 124.758,95.3586 128.425,96.6919 132.5,97.5C 132.5,100.167 132.5,102.833 132.5,105.5C 131.068,109.208 128.402,111.541 124.5,112.5C 123.761,112.631 123.094,112.464 122.5,112C 125.321,110.178 127.821,108.011 130,105.5C 130.353,104.328 130.187,103.162 129.5,102C 130.022,101.05 130.689,100.216 131.5,99.5C 131.333,99.1667 131.167,98.8333 131,98.5C 128.147,99.8284 125.647,101.495 123.5,103.5C 122.448,103.649 121.448,103.483 120.5,103C 121.337,101.989 121.67,100.822 121.5,99.5C 119.833,99.5 118.167,99.5 116.5,99.5C 116.196,98.8501 115.863,98.1835 115.5,97.5C 118.138,95.0672 117.805,93.0672 114.5,91.5C 114.821,89.9519 115.821,89.2852 117.5,89.5 Z"/></g>
<g><path style="opacity:1" fill="#b3cfc7" d="M 61.5,97.5 C 62.937,98.7255 64.6036,99.7255 66.5,100.5C 67.6405,101.425 67.6405,102.259 66.5,103C 67.8333,103.667 69.1667,104.333 70.5,105C 68.1224,105.974 68.4557,106.641 71.5,107C 70.3722,109.065 68.7055,109.732 66.5,109C 63.4027,107.727 60.7361,105.893 58.5,103.5C 57.8333,103.167 57.1667,102.833 56.5,102.5C 56.5,101.833 56.5,101.167 56.5,100.5C 57.3698,97.4851 59.0365,96.4851 61.5,97.5 Z"/></g>
<g><path style="opacity:1" fill="#9b9877" d="M 84.5,97.5 C 86.2484,98.9703 88.915,99.9703 92.5,100.5C 93.2975,100.043 93.6309,99.3764 93.5,98.5C 94.5,98.5 95.5,98.5 96.5,98.5C 95.8902,99.391 95.5569,100.391 95.5,101.5C 93.1084,103.447 90.1084,105.447 86.5,107.5C 85.5,107.5 84.5,107.5 83.5,107.5C 83.8333,106.833 84.1667,106.167 84.5,105.5C 85.9221,105.25 86.9221,104.417 87.5,103C 86.2423,101.259 85.2423,99.4258 84.5,97.5 Z"/></g>
<g><path style="opacity:1" fill="#aec7bd" d="M 84.5,105.5 C 84.1667,106.167 83.8333,106.833 83.5,107.5C 82.5084,107.328 81.8417,107.662 81.5,108.5C 77.6179,109.803 73.6179,110.47 69.5,110.5C 68.1667,110.5 66.8333,110.5 65.5,110.5C 62.173,109.173 59.8396,106.84 58.5,103.5C 60.7361,105.893 63.4027,107.727 66.5,109C 68.7055,109.732 70.3722,109.065 71.5,107C 68.4557,106.641 68.1224,105.974 70.5,105C 69.1667,104.333 67.8333,103.667 66.5,103C 67.6405,102.259 67.6405,101.425 66.5,100.5C 64.6036,99.7255 62.937,98.7255 61.5,97.5C 61.4017,94.7524 62.4017,94.0857 64.5,95.5C 64.3691,96.3764 64.7025,97.0431 65.5,97.5C 68.4742,98.5767 71.4742,98.5767 74.5,97.5C 74.0472,98.4584 73.3805,99.2917 72.5,100C 75.9239,98.5779 79.0906,96.4112 82,93.5C 82.6667,96.1667 82.6667,98.8333 82,101.5C 79.9486,104.394 80.6152,105.061 84,103.5C 84.4643,104.094 84.631,104.761 84.5,105.5 Z"/></g>
<g><path style="opacity:1" fill="#b0ccba" d="M 116.5,99.5 C 118.167,99.5 119.833,99.5 121.5,99.5C 121.67,100.822 121.337,101.989 120.5,103C 121.448,103.483 122.448,103.649 123.5,103.5C 122.194,104.467 121.527,105.801 121.5,107.5C 119.192,107.914 116.858,108.247 114.5,108.5C 111.231,107.407 107.897,106.741 104.5,106.5C 103.584,106.018 102.584,105.685 101.5,105.5C 96.5985,108.237 91.5985,108.904 86.5,107.5C 90.1084,105.447 93.1084,103.447 95.5,101.5C 98.5468,100.855 100.713,101.855 102,104.5C 103.066,102.901 104.566,101.901 106.5,101.5C 107.696,101.846 107.696,102.346 106.5,103C 110.615,103.65 113.948,102.483 116.5,99.5 Z"/></g>
<g><path style="opacity:1" fill="#b2e2ef" d="M 55.5,102.5 C 55.8333,102.5 56.1667,102.5 56.5,102.5C 57.1667,102.833 57.8333,103.167 58.5,103.5C 59.8396,106.84 62.173,109.173 65.5,110.5C 62.4199,112.107 59.0866,113.107 55.5,113.5C 53.6455,113.66 52.3121,112.993 51.5,111.5C 50.119,109.726 50.4523,108.226 52.5,107C 51.1667,106.667 49.8333,106.333 48.5,106C 50.3091,103.762 52.6424,102.595 55.5,102.5 Z"/></g>
<g><path style="opacity:1" fill="#bbe6e9" d="M 124.5,112.5 C 123.522,115.325 121.522,116.658 118.5,116.5C 119.398,115.842 120.398,115.176 121.5,114.5C 121.333,114.167 121.167,113.833 121,113.5C 118.205,114.783 115.372,114.783 112.5,113.5C 113.5,112.667 114.5,111.833 115.5,111C 113.153,110.666 110.819,110.833 108.5,111.5C 108.67,110.178 108.337,109.011 107.5,108C 105.557,108.305 103.557,108.305 101.5,108C 102.737,107.768 103.737,107.268 104.5,106.5C 107.897,106.741 111.231,107.407 114.5,108.5C 116.858,108.247 119.192,107.914 121.5,107.5C 121.527,105.801 122.194,104.467 123.5,103.5C 125.647,101.495 128.147,99.8284 131,98.5C 131.167,98.8333 131.333,99.1667 131.5,99.5C 130.689,100.216 130.022,101.05 129.5,102C 130.187,103.162 130.353,104.328 130,105.5C 127.821,108.011 125.321,110.178 122.5,112C 123.094,112.464 123.761,112.631 124.5,112.5 Z"/></g>
<g><path style="opacity:1" fill="#b5d7d7" d="M 104.5,106.5 C 103.737,107.268 102.737,107.768 101.5,108C 103.557,108.305 105.557,108.305 107.5,108C 108.337,109.011 108.67,110.178 108.5,111.5C 110.819,110.833 113.153,110.666 115.5,111C 114.5,111.833 113.5,112.667 112.5,113.5C 115.372,114.783 118.205,114.783 121,113.5C 121.167,113.833 121.333,114.167 121.5,114.5C 120.398,115.176 119.398,115.842 118.5,116.5C 115.12,117.904 111.786,119.404 108.5,121C 106.934,121.765 105.601,121.598 104.5,120.5C 103.081,119.549 101.415,119.216 99.5,119.5C 100.263,118.732 101.263,118.232 102.5,118C 99.0072,114.325 94.8406,111.491 90,109.5C 88.662,110.506 87.3287,111.506 86,112.5C 84.6703,111.418 83.1703,110.751 81.5,110.5C 81.5,109.833 81.5,109.167 81.5,108.5C 81.8417,107.662 82.5084,107.328 83.5,107.5C 84.5,107.5 85.5,107.5 86.5,107.5C 91.5985,108.904 96.5985,108.237 101.5,105.5C 102.584,105.685 103.584,106.018 104.5,106.5 Z"/></g>
<g><path style="opacity:1" fill="#8a9b8b" d="M 81.5,108.5 C 81.5,109.167 81.5,109.833 81.5,110.5C 78.7097,110.222 76.2097,110.889 74,112.5C 72.2725,112.101 70.7725,111.434 69.5,110.5C 73.6179,110.47 77.6179,109.803 81.5,108.5 Z"/></g>
<g><path style="opacity:1" fill="#b8dddf" d="M 99.5,119.5 C 91.3932,120.856 83.3932,120.69 75.5,119C 76.5707,119.852 77.5707,120.685 78.5,121.5C 77.448,121.649 76.448,121.483 75.5,121C 72.2661,117.33 68.9328,113.83 65.5,110.5C 66.8333,110.5 68.1667,110.5 69.5,110.5C 70.7725,111.434 72.2725,112.101 74,112.5C 76.2097,110.889 78.7097,110.222 81.5,110.5C 83.1703,110.751 84.6703,111.418 86,112.5C 87.3287,111.506 88.662,110.506 90,109.5C 94.8406,111.491 99.0072,114.325 102.5,118C 101.263,118.232 100.263,118.732 99.5,119.5 Z"/></g>
<g><path style="opacity:1" fill="#92b7ba" d="M 99.5,119.5 C 101.415,119.216 103.081,119.549 104.5,120.5C 103.167,120.5 101.833,120.5 100.5,120.5C 96.3357,120.956 92.3357,121.622 88.5,122.5C 84.9581,122.813 81.6248,122.479 78.5,121.5C 77.5707,120.685 76.5707,119.852 75.5,119C 83.3932,120.69 91.3932,120.856 99.5,119.5 Z"/></g>
<g><path style="opacity:0.01" fill="#c2f4f8" d="M 100.5,120.5 C 97.8211,122.604 94.8211,124.271 91.5,125.5C 90.3961,124.369 90.7295,123.535 92.5,123C 91.2068,122.51 89.8734,122.343 88.5,122.5C 92.3357,121.622 96.3357,120.956 100.5,120.5 Z"/></g>
<g><path style="opacity:0.695" fill="#17dde9" d="M 65.5,130.5 C 68.4509,130.108 71.4509,130.608 74.5,132C 77.6287,141.698 74.2954,145.531 64.5,143.5C 64.5,144.833 64.5,146.167 64.5,147.5C 63.448,147.649 62.448,147.483 61.5,147C 63.1482,141.596 64.4816,136.096 65.5,130.5 Z M 68.5,133.5 C 73.7365,133.99 74.9032,136.657 72,141.5C 68.7175,142.911 66.8842,141.745 66.5,138C 66.5186,136.167 67.1852,134.667 68.5,133.5 Z"/></g>
<g><path style="opacity:0.697" fill="#17dee9" d="M 103.5,133.5 C 105.451,133.227 106.951,133.893 108,135.5C 108.755,138.688 109.589,141.855 110.5,145C 108.265,146.645 107.265,145.812 107.5,142.5C 106.5,142.5 105.5,142.5 104.5,142.5C 104.553,145.061 103.553,147.061 101.5,148.5C 100.808,146.665 101.142,144.832 102.5,143C 97.0701,139.254 97.4034,136.087 103.5,133.5 Z M 102.5,136.5 C 105.5,136.167 106.833,137.5 106.5,140.5C 102.56,141.234 101.227,139.901 102.5,136.5 Z"/></g>
<g><path style="opacity:0.688" fill="#17dde9" d="M 84.5,134.5 C 90.5,133.833 93.1667,136.5 92.5,142.5C 89.4816,142.335 86.4816,142.502 83.5,143C 85.9778,146.119 88.6445,146.286 91.5,143.5C 92.6065,146.699 91.2732,148.365 87.5,148.5C 81.8098,146.973 79.9764,143.306 82,137.5C 83.045,136.627 83.8783,135.627 84.5,134.5 Z M 85.5,136.5 C 87.9124,136.244 89.5791,137.244 90.5,139.5C 88.2351,140.647 85.9018,140.814 83.5,140C 84.305,138.887 84.9717,137.721 85.5,136.5 Z"/></g>
</svg>
