<?xml version="1.0" encoding="UTF-8"?>
<!DOCTYPE svg PUBLIC "-//W3C//DTD SVG 1.1//EN" "http://www.w3.org/Graphics/SVG/1.1/DTD/svg11.dtd">
<svg xmlns="http://www.w3.org/2000/svg" version="1.1" width="175px" height="175px" style="shape-rendering:geometricPrecision; text-rendering:geometricPrecision; image-rendering:optimizeQuality; fill-rule:evenodd; clip-rule:evenodd" xmlns:xlink="http://www.w3.org/1999/xlink">
<g><path style="opacity:0.638" fill="#bebefb" d="M 88.5,14.5 C 89.4778,14.811 90.1445,15.4777 90.5,16.5C 88.2338,17.3142 85.9005,17.8142 83.5,18C 82.8333,18.6667 82.1667,19.3333 81.5,20C 89.4741,19.3091 92.3075,22.8091 90,30.5C 89.6258,31.4162 89.1258,32.2496 88.5,33C 79.1625,33.9675 75.9959,29.8008 79,20.5C 79.5831,18.9984 80.4164,17.6651 81.5,16.5C 83.9823,15.9329 86.3157,15.2663 88.5,14.5 Z M 82.5,22.5 C 88.6426,23.0262 89.9759,25.8595 86.5,31C 82.9305,32.1048 80.9305,30.7714 80.5,27C 81.2666,25.5295 81.9332,24.0295 82.5,22.5 Z"/></g>
<g><path style="opacity:0.67" fill="#bebefa" d="M 62.5,22.5 C 68.4708,21.7995 71.8041,24.4662 72.5,30.5C 70.6908,36.7523 67.0241,38.0857 61.5,34.5C 58.6946,30.2075 59.0279,26.2075 62.5,22.5 Z M 64.5,24.5 C 69.2442,25.8522 70.5775,28.8522 68.5,33.5C 64.3824,34.752 62.0491,33.0853 61.5,28.5C 62.1716,26.8405 63.1716,25.5072 64.5,24.5 Z"/></g>
<g><path style="opacity:0.658" fill="#bebefa" d="M 100.5,23.5 C 109.16,23.8136 111.326,27.8136 107,35.5C 101.673,38.7488 98.1731,37.4155 96.5,31.5C 96.7997,28.2335 98.1331,25.5669 100.5,23.5 Z M 101.5,25.5 C 106.213,25.4676 107.713,27.8009 106,32.5C 102.954,36.6372 100.454,36.3038 98.5,31.5C 99.1286,29.2592 100.129,27.2592 101.5,25.5 Z"/></g>
<g><path style="opacity:0.013" fill="#eef2f3" d="M 100.5,46.5 C 100.44,47.0431 100.107,47.3764 99.5,47.5C 96.243,46.4486 92.9097,45.7819 89.5,45.5C 82.2741,47.1224 75.2741,46.7891 68.5,44.5C 69.766,43.9101 71.0993,43.4101 72.5,43C 72.1667,42.6667 71.8333,42.3333 71.5,42C 72.8333,41.8333 74.1667,41.6667 75.5,41.5C 81.8418,41.6463 88.1751,41.6463 94.5,41.5C 97.4135,42.2096 99.4135,43.8763 100.5,46.5 Z"/></g>
<g><path style="opacity:0.979" fill="#ecf2f4" d="M 132.5,51.5 C 131.518,52.1408 130.518,52.8075 129.5,53.5C 125.86,51.1755 121.86,49.8421 117.5,49.5C 114.039,49.4407 111.039,50.4407 108.5,52.5C 108.575,49.7938 108.908,47.1272 109.5,44.5C 118.195,43.9585 125.862,46.2918 132.5,51.5 Z"/></g>
<g><path style="opacity:1" fill="#dac4c0" d="M 89.5,45.5 C 92.9097,45.7819 96.243,46.4486 99.5,47.5C 100.107,47.3764 100.44,47.0431 100.5,46.5C 101.338,46.8417 101.672,47.5084 101.5,48.5C 101.5,48.8333 101.5,49.1667 101.5,49.5C 101.167,49.5 100.833,49.5 100.5,49.5C 94.1696,47.7086 88.1696,48.3753 82.5,51.5C 81.4822,50.8075 80.4822,50.1408 79.5,49.5C 82.7649,47.9679 86.0982,46.6346 89.5,45.5 Z"/></g>
<g><path style="opacity:1" fill="#d9c5c4" d="M 91.5,56.5 C 89.6954,57.2371 88.0287,58.2371 86.5,59.5C 85.8243,58.3984 85.1577,57.3984 84.5,56.5C 84.2786,55.2652 83.6119,54.2652 82.5,53.5C 84.8584,51.7134 87.525,50.7134 90.5,50.5C 90.8333,52.5 91.1667,54.5 91.5,56.5 Z"/></g>
<g><path style="opacity:0.765" fill="#ddd0d6" d="M 56.5,50.5 C 56.6602,52.1992 56.4935,53.8659 56,55.5C 53.0124,60.1335 50.0124,64.8002 47,69.5C 45.8873,70.305 44.7206,70.9717 43.5,71.5C 41.8333,72.1667 40.1667,72.8333 38.5,73.5C 39.3543,71.965 39.3543,70.6316 38.5,69.5C 40.0569,65.9335 42.0569,62.6002 44.5,59.5C 48.5681,56.4793 52.5681,53.4793 56.5,50.5 Z"/></g>
<g><path style="opacity:1" fill="#d0a5a2" d="M 79.5,49.5 C 80.4822,50.1408 81.4822,50.8075 82.5,51.5C 88.1696,48.3753 94.1696,47.7086 100.5,49.5C 100.5,50.1667 100.5,50.8333 100.5,51.5C 99.7767,53.2133 98.4433,54.2133 96.5,54.5C 95.631,53.6085 94.631,53.1085 93.5,53C 92.9152,54.3024 92.2485,55.469 91.5,56.5C 91.1667,54.5 90.8333,52.5 90.5,50.5C 87.525,50.7134 84.8584,51.7134 82.5,53.5C 83.6119,54.2652 84.2786,55.2652 84.5,56.5C 82.493,58.6885 81.493,61.3552 81.5,64.5C 80.7387,65.3909 79.7387,66.0576 78.5,66.5C 74.1181,65.7155 69.7847,65.3821 65.5,65.5C 61.078,68.7887 56.078,70.4553 50.5,70.5C 53.0935,68.0918 55.9268,65.7585 59,63.5C 60.9338,61.5812 60.7671,60.0812 58.5,59C 60.8221,57.0765 63.4888,55.7431 66.5,55C 67.6853,53.647 69.0186,52.4803 70.5,51.5C 69.2178,48.8674 67.8844,48.8674 66.5,51.5C 65.2888,50.7261 65.2888,49.8928 66.5,49C 68.2029,48.2547 69.8695,47.4214 71.5,46.5C 73.9902,47.9951 76.6568,48.9951 79.5,49.5 Z"/></g>
<g><path style="opacity:1" fill="#e0e5e8" d="M 101.5,48.5 C 104.295,49.063 106.628,50.3963 108.5,52.5C 111.039,50.4407 114.039,49.4407 117.5,49.5C 121.86,49.8421 125.86,51.1755 129.5,53.5C 130.518,52.8075 131.518,52.1408 132.5,51.5C 134.54,53.1953 136.374,55.1953 138,57.5C 140.057,62.0647 141.891,66.7314 143.5,71.5C 141.926,71.0629 140.759,70.0629 140,68.5C 139.577,69.9561 138.744,70.4561 137.5,70C 139.659,65.5798 138.159,64.0798 133,65.5C 132.05,64.9777 131.216,64.311 130.5,63.5C 127.573,64.801 124.573,65.801 121.5,66.5C 119.493,65.4814 118.16,63.8147 117.5,61.5C 116.311,60.5713 114.978,60.238 113.5,60.5C 113.714,58.8561 113.38,57.3561 112.5,56C 108.434,55.3774 105.101,53.5441 102.5,50.5C 101.833,50.5 101.5,50.1667 101.5,49.5C 101.5,49.1667 101.5,48.8333 101.5,48.5 Z"/></g>
<g><path style="opacity:1" fill="#d4a9ad" d="M 100.5,51.5 C 101.833,53.5 101.833,55.5 100.5,57.5C 98.8998,56.488 97.5665,56.988 96.5,59C 96.1119,60.5252 96.1119,62.1918 96.5,64C 93.4143,64.9119 90.4143,66.0786 87.5,67.5C 86.8933,67.3764 86.56,67.0431 86.5,66.5C 87.9008,66.0291 89.2342,65.3624 90.5,64.5C 90.1667,64.1667 89.8333,63.8333 89.5,63.5C 86.9159,64.3928 84.2492,64.7261 81.5,64.5C 81.493,61.3552 82.493,58.6885 84.5,56.5C 85.1577,57.3984 85.8243,58.3984 86.5,59.5C 88.0287,58.2371 89.6954,57.2371 91.5,56.5C 92.2485,55.469 92.9152,54.3024 93.5,53C 94.631,53.1085 95.631,53.6085 96.5,54.5C 98.4433,54.2133 99.7767,53.2133 100.5,51.5 Z"/></g>
<g><path style="opacity:1" fill="#d1b2b2" d="M 68.5,44.5 C 75.2741,46.7891 82.2741,47.1224 89.5,45.5C 86.0982,46.6346 82.7649,47.9679 79.5,49.5C 76.6568,48.9951 73.9902,47.9951 71.5,46.5C 69.8695,47.4214 68.2029,48.2547 66.5,49C 65.2888,49.8928 65.2888,50.7261 66.5,51.5C 67.8844,48.8674 69.2178,48.8674 70.5,51.5C 69.0186,52.4803 67.6853,53.647 66.5,55C 63.4888,55.7431 60.8221,57.0765 58.5,59C 60.7671,60.0812 60.9338,61.5812 59,63.5C 55.9268,65.7585 53.0935,68.0918 50.5,70.5C 49.8333,71.5 49.1667,72.5 48.5,73.5C 47.3406,75.2503 45.674,76.2503 43.5,76.5C 41.0428,74.9991 41.0428,73.3324 43.5,71.5C 44.7206,70.9717 45.8873,70.305 47,69.5C 50.0124,64.8002 53.0124,60.1335 56,55.5C 56.4935,53.8659 56.6602,52.1992 56.5,50.5C 59.9024,47.4654 63.9024,45.4654 68.5,44.5 Z"/></g>
<g><path style="opacity:1" fill="#dce1e4" d="M 143.5,71.5 C 144.6,72.6049 145.267,73.9382 145.5,75.5C 145.799,77.604 145.466,79.604 144.5,81.5C 142.459,80.7643 140.459,79.9309 138.5,79C 139.551,77.6152 140.884,76.6152 142.5,76C 140.941,73.6361 138.775,72.1361 136,71.5C 133.904,72.7155 134.071,73.5488 136.5,74C 135.167,74.3333 133.833,74.6667 132.5,75C 131.748,75.6708 131.414,76.5041 131.5,77.5C 129.527,74.8605 127.194,72.5272 124.5,70.5C 123.833,70.5 123.5,70.1667 123.5,69.5C 123.218,68.2223 122.551,67.2223 121.5,66.5C 124.573,65.801 127.573,64.801 130.5,63.5C 131.216,64.311 132.05,64.9777 133,65.5C 138.159,64.0798 139.659,65.5798 137.5,70C 138.744,70.4561 139.577,69.9561 140,68.5C 140.759,70.0629 141.926,71.0629 143.5,71.5 Z"/></g>
<g><path style="opacity:1" fill="#bda2a8" d="M 102.5,50.5 C 105.101,53.5441 108.434,55.3774 112.5,56C 113.38,57.3561 113.714,58.8561 113.5,60.5C 114.978,60.238 116.311,60.5713 117.5,61.5C 118.16,63.8147 119.493,65.4814 121.5,66.5C 122.551,67.2223 123.218,68.2223 123.5,69.5C 118.661,68.6766 116.327,70.6766 116.5,75.5C 113.284,75.6545 110.617,74.6545 108.5,72.5C 110.288,72.7852 111.955,72.4519 113.5,71.5C 110.724,68.3582 109.724,64.8582 110.5,61C 106.857,58.197 104.19,54.697 102.5,50.5 Z"/></g>
<g><path style="opacity:1" fill="#c48d92" d="M 86.5,66.5 C 85.1408,68.5034 83.8075,70.5034 82.5,72.5C 79.9658,70.4077 77.2992,70.0744 74.5,71.5C 70.1438,72.5107 66.1438,74.3441 62.5,77C 60.1902,77.4966 57.8568,77.6633 55.5,77.5C 53.1667,77.5 50.8333,77.5 48.5,77.5C 48.5,76.1667 48.5,74.8333 48.5,73.5C 49.1667,72.5 49.8333,71.5 50.5,70.5C 56.078,70.4553 61.078,68.7887 65.5,65.5C 69.7847,65.3821 74.1181,65.7155 78.5,66.5C 79.7387,66.0576 80.7387,65.3909 81.5,64.5C 84.2492,64.7261 86.9159,64.3928 89.5,63.5C 89.8333,63.8333 90.1667,64.1667 90.5,64.5C 89.2342,65.3624 87.9008,66.0291 86.5,66.5 Z"/></g>
<g><path style="opacity:1" fill="#d5b4bc" d="M 100.5,49.5 C 100.833,49.5 101.167,49.5 101.5,49.5C 101.5,50.1667 101.833,50.5 102.5,50.5C 104.19,54.697 106.857,58.197 110.5,61C 109.724,64.8582 110.724,68.3582 113.5,71.5C 111.955,72.4519 110.288,72.7852 108.5,72.5C 107.292,71.7659 105.959,71.4326 104.5,71.5C 103.677,68.023 103.177,64.3563 103,60.5C 101.955,59.6266 101.122,58.6266 100.5,57.5C 101.833,55.5 101.833,53.5 100.5,51.5C 100.5,50.8333 100.5,50.1667 100.5,49.5 Z"/></g>
<g><path style="opacity:1" fill="#bf8b98" d="M 100.5,57.5 C 101.122,58.6266 101.955,59.6266 103,60.5C 103.177,64.3563 103.677,68.023 104.5,71.5C 101.038,72.4816 97.3714,72.815 93.5,72.5C 90.0063,71.6648 86.3397,71.6648 82.5,72.5C 83.8075,70.5034 85.1408,68.5034 86.5,66.5C 86.56,67.0431 86.8933,67.3764 87.5,67.5C 90.4143,66.0786 93.4143,64.9119 96.5,64C 96.1119,62.1918 96.1119,60.5252 96.5,59C 97.5665,56.988 98.8998,56.488 100.5,57.5 Z"/></g>
<g><path style="opacity:0.022" fill="#fafcfe" d="M 28.5,70.5 C 28.3893,71.1174 28.056,71.6174 27.5,72C 24.854,72.4974 22.1873,72.6641 19.5,72.5C 19.7911,71.3509 20.6244,70.6842 22,70.5C 24.2074,71.7048 26.3741,71.7048 28.5,70.5 Z"/></g>
<g><path style="opacity:1" fill="#b5bac3" d="M 38.5,69.5 C 39.3543,70.6316 39.3543,71.965 38.5,73.5C 37.8571,75.0764 36.8571,76.4097 35.5,77.5C 34.7375,76.7321 33.7375,76.2321 32.5,76C 36.5437,74.1013 36.3771,72.9346 32,72.5C 28.3026,72.8551 24.8026,73.5218 21.5,74.5C 18.9557,77.3065 17.9557,76.6399 18.5,72.5C 18.8333,72.5 19.1667,72.5 19.5,72.5C 22.1873,72.6641 24.854,72.4974 27.5,72C 28.056,71.6174 28.3893,71.1174 28.5,70.5C 31.1194,70.2317 33.6194,70.565 36,71.5C 36.7083,70.6195 37.5416,69.9528 38.5,69.5 Z"/></g>
<g><path style="opacity:1" fill="#9e6973" d="M 74.5,71.5 C 77.2992,70.0744 79.9658,70.4077 82.5,72.5C 86.3397,71.6648 90.0063,71.6648 93.5,72.5C 90.8728,73.0916 88.2062,73.4249 85.5,73.5C 84.1667,73.5 82.8333,73.5 81.5,73.5C 78.7892,73.8151 76.4559,73.1484 74.5,71.5 Z"/></g>
<g><path style="opacity:1" fill="#ced2dd" d="M 35.5,77.5 C 32.8211,79.6044 29.8211,81.2711 26.5,82.5C 22.686,82.6509 21.0193,84.6509 21.5,88.5C 23.8568,88.3367 26.1902,88.5034 28.5,89C 29.0659,89.9947 29.7326,90.828 30.5,91.5C 32.0764,92.1429 33.4097,93.1429 34.5,94.5C 35.8333,95.8333 35.8333,97.1667 34.5,98.5C 32.7839,98.3713 31.1172,98.038 29.5,97.5C 26.0125,96.1763 23.6792,93.6763 22.5,90C 20.913,89.1376 19.2464,88.4709 17.5,88C 17.2047,86.2863 17.5381,84.453 18.5,82.5C 18.369,81.7611 18.5357,81.0944 19,80.5C 21.1838,82.8709 23.3505,82.7042 25.5,80C 23.3424,78.6883 23.0091,77.0217 24.5,75C 23.552,74.5172 22.552,74.3505 21.5,74.5C 24.8026,73.5218 28.3026,72.8551 32,72.5C 36.3771,72.9346 36.5437,74.1013 32.5,76C 33.7375,76.2321 34.7375,76.7321 35.5,77.5 Z"/></g>
<g><path style="opacity:1" fill="#a7b8cc" d="M 96.5,76.5 C 96.3893,77.1174 96.056,77.6174 95.5,78C 91.1794,78.499 86.8461,78.6657 82.5,78.5C 82.5,77.1667 82.5,75.8333 82.5,74.5C 83.5,74.5 84.5,74.5 85.5,74.5C 87.7925,74.7564 89.9592,74.4231 92,73.5C 94.0263,73.9147 95.5263,74.9147 96.5,76.5 Z"/></g>
<g><path style="opacity:1" fill="#e1e5ec" d="M 18.5,72.5 C 17.9557,76.6399 18.9557,77.3065 21.5,74.5C 22.552,74.3505 23.552,74.5172 24.5,75C 23.0091,77.0217 23.3424,78.6883 25.5,80C 23.3505,82.7042 21.1838,82.8709 19,80.5C 18.5357,81.0944 18.369,81.7611 18.5,82.5C 16.8985,81.4812 15.8985,79.9812 15.5,78C 16.4239,76.85 16.4239,75.85 15.5,75C 16.3734,73.955 17.3734,73.1217 18.5,72.5 Z"/></g>
<g><path style="opacity:1" fill="#a5707a" d="M 111.5,81.5 C 109.968,82.3696 108.468,82.0362 107,80.5C 105.867,82.2112 104.367,82.7112 102.5,82C 103.167,81.6667 103.833,81.3333 104.5,81C 102.867,80.5204 101.534,79.6871 100.5,78.5C 99.2905,78.0679 98.2905,77.4013 97.5,76.5C 98.739,74.2033 100.572,73.87 103,75.5C 105.307,77.9367 108.14,79.9367 111.5,81.5 Z"/></g>
<g><path style="opacity:1" fill="#b1adb6" d="M 124.5,70.5 C 127.194,72.5272 129.527,74.8605 131.5,77.5C 133.017,77.5106 134.184,78.1772 135,79.5C 136.075,84.0838 138.908,86.0838 143.5,85.5C 143.5,86.5 143.5,87.5 143.5,88.5C 141.283,89.3686 138.95,89.702 136.5,89.5C 136.567,90.9587 136.234,92.2921 135.5,93.5C 134.833,94.8333 133.833,95.8333 132.5,96.5C 133.749,94.3296 134.749,91.9963 135.5,89.5C 135.566,87.7336 134.732,86.7336 133,86.5C 131.726,87.5353 130.56,88.702 129.5,90C 129.966,91.2988 129.966,92.7988 129.5,94.5C 128.5,94.5 127.5,94.5 126.5,94.5C 126.784,96.4147 126.451,98.0813 125.5,99.5C 125.977,95.3104 124.311,92.3104 120.5,90.5C 118.296,87.9568 117.962,85.1234 119.5,82C 119.104,80.1026 118.104,78.6026 116.5,77.5C 117.795,75.6721 118.795,73.6721 119.5,71.5C 121.304,71.0143 122.971,70.681 124.5,70.5 Z"/></g>
<g><path style="opacity:1" fill="#e1e4e7" d="M 145.5,75.5 C 147.403,78.5299 148.737,81.8632 149.5,85.5C 148.778,85.0825 148.278,84.4158 148,83.5C 147.712,86.2865 146.212,87.9532 143.5,88.5C 143.5,87.5 143.5,86.5 143.5,85.5C 138.908,86.0838 136.075,84.0838 135,79.5C 134.184,78.1772 133.017,77.5106 131.5,77.5C 131.414,76.5041 131.748,75.6708 132.5,75C 133.833,74.6667 135.167,74.3333 136.5,74C 134.071,73.5488 133.904,72.7155 136,71.5C 138.775,72.1361 140.941,73.6361 142.5,76C 140.884,76.6152 139.551,77.6152 138.5,79C 140.459,79.9309 142.459,80.7643 144.5,81.5C 145.466,79.604 145.799,77.604 145.5,75.5 Z"/></g>
<g><path style="opacity:1" fill="#c79ca6" d="M 48.5,73.5 C 48.5,74.8333 48.5,76.1667 48.5,77.5C 50.8333,77.5 53.1667,77.5 55.5,77.5C 55.1667,78.5 54.5,79.1667 53.5,79.5C 53.44,78.9569 53.1067,78.6236 52.5,78.5C 51.5,79.5 50.5,80.5 49.5,81.5C 51.1667,82.5 52.5,83.8333 53.5,85.5C 54.3957,84.4937 55.0623,84.4937 55.5,85.5C 53.4534,87.7357 51.12,88.069 48.5,86.5C 47.2867,86.7472 46.62,87.4138 46.5,88.5C 44.2129,86.7191 43.8795,84.5524 45.5,82C 45.1382,80.5657 44.4715,79.3991 43.5,78.5C 43.5,77.8333 43.5,77.1667 43.5,76.5C 45.674,76.2503 47.3406,75.2503 48.5,73.5 Z"/></g>
<g><path style="opacity:1" fill="#a1a2ae" d="M 74.5,71.5 C 76.4559,73.1484 78.7892,73.8151 81.5,73.5C 81.5,75.5 81.5,77.5 81.5,79.5C 78.5448,78.8413 75.5448,78.5079 72.5,78.5C 71.4019,77.603 71.4019,76.7697 72.5,76C 70.5273,75.5045 68.5273,75.3379 66.5,75.5C 66.5,76.5 66.5,77.5 66.5,78.5C 61.4352,78.4721 60.7686,79.4721 64.5,81.5C 60.351,82.0803 56.6843,81.4136 53.5,79.5C 54.5,79.1667 55.1667,78.5 55.5,77.5C 57.8568,77.6633 60.1902,77.4966 62.5,77C 66.1438,74.3441 70.1438,72.5107 74.5,71.5 Z"/></g>
<g><path style="opacity:1" fill="#788690" d="M 81.5,73.5 C 82.8333,73.5 84.1667,73.5 85.5,73.5C 85.5,73.8333 85.5,74.1667 85.5,74.5C 84.5,74.5 83.5,74.5 82.5,74.5C 82.5,75.8333 82.5,77.1667 82.5,78.5C 86.8461,78.6657 91.1794,78.499 95.5,78C 96.056,77.6174 96.3893,77.1174 96.5,76.5C 96.8333,76.5 97.1667,76.5 97.5,76.5C 98.2905,77.4013 99.2905,78.0679 100.5,78.5C 100.5,79.5 100.5,80.5 100.5,81.5C 99.5,81.5 98.5,81.5 97.5,81.5C 94.1226,81.0679 91.1226,81.7345 88.5,83.5C 86.9519,83.1788 86.2852,82.1788 86.5,80.5C 83.2234,80.2161 80.0567,80.5495 77,81.5C 74.9127,80.3123 73.4127,79.3123 72.5,78.5C 75.5448,78.5079 78.5448,78.8413 81.5,79.5C 81.5,77.5 81.5,75.5 81.5,73.5 Z"/></g>
<g><path style="opacity:1" fill="#958c9d" d="M 43.5,71.5 C 41.0428,73.3324 41.0428,74.9991 43.5,76.5C 43.5,77.1667 43.5,77.8333 43.5,78.5C 42.5416,78.0472 41.7083,77.3805 41,76.5C 39.5093,78.0037 37.676,78.8371 35.5,79C 33.9632,80.1096 33.2965,81.6096 33.5,83.5C 38.7187,82.6353 38.7187,83.302 33.5,85.5C 32.3348,84.5089 31.1681,83.5089 30,82.5C 28.7387,82.7591 27.7387,83.4258 27,84.5C 26.5357,83.9056 26.369,83.2389 26.5,82.5C 29.8211,81.2711 32.8211,79.6044 35.5,77.5C 36.8571,76.4097 37.8571,75.0764 38.5,73.5C 40.1667,72.8333 41.8333,72.1667 43.5,71.5 Z"/></g>
<g><path style="opacity:1" fill="#8c98a1" d="M 72.5,78.5 C 73.4127,79.3123 74.9127,80.3123 77,81.5C 80.0567,80.5495 83.2234,80.2161 86.5,80.5C 86.2852,82.1788 86.9519,83.1788 88.5,83.5C 87.791,84.404 86.791,84.7373 85.5,84.5C 81.1667,85.8333 76.8333,85.8333 72.5,84.5C 69.9127,83.2513 67.246,82.2513 64.5,81.5C 60.7686,79.4721 61.4352,78.4721 66.5,78.5C 66.5,77.5 66.5,76.5 66.5,75.5C 68.5273,75.3379 70.5273,75.5045 72.5,76C 71.4019,76.7697 71.4019,77.603 72.5,78.5 Z"/></g>
<g><path style="opacity:1" fill="#bb7c84" d="M 97.5,81.5 C 98.3984,82.1577 99.3984,82.8243 100.5,83.5C 100.185,85.483 99.1852,86.8163 97.5,87.5C 97.4606,86.4168 97.1272,85.4168 96.5,84.5C 93.9135,83.52 91.2469,83.1866 88.5,83.5C 91.1226,81.7345 94.1226,81.0679 97.5,81.5 Z"/></g>
<g><path style="opacity:1" fill="#cd9aa2" d="M 100.5,78.5 C 101.534,79.6871 102.867,80.5204 104.5,81C 103.833,81.3333 103.167,81.6667 102.5,82C 104.367,82.7112 105.867,82.2112 107,80.5C 108.468,82.0362 109.968,82.3696 111.5,81.5C 112.434,82.5676 112.768,83.901 112.5,85.5C 110.815,86.1837 109.815,87.517 109.5,89.5C 107.116,90.0108 105.116,91.0108 103.5,92.5C 101.589,92.5743 100.422,93.5743 100,95.5C 99.5,95 99,94.5 98.5,94C 100.037,92.8904 100.703,91.3904 100.5,89.5C 98.2646,89.7947 96.2646,89.4614 94.5,88.5C 95.209,87.596 96.209,87.2627 97.5,87.5C 99.1852,86.8163 100.185,85.483 100.5,83.5C 99.3984,82.8243 98.3984,82.1577 97.5,81.5C 98.5,81.5 99.5,81.5 100.5,81.5C 100.5,80.5 100.5,79.5 100.5,78.5 Z"/></g>
<g><path style="opacity:1" fill="#a66763" d="M 72.5,84.5 C 76.8333,85.8333 81.1667,85.8333 85.5,84.5C 82.4688,87.9261 78.8021,89.2594 74.5,88.5C 76.7249,89.8935 79.0582,91.0602 81.5,92C 80.4019,92.7697 80.4019,93.603 81.5,94.5C 79.7085,94.634 78.0418,94.3007 76.5,93.5C 75.1667,92.1667 73.8333,90.8333 72.5,89.5C 71.1667,87.8333 71.1667,86.1667 72.5,84.5 Z"/></g>
<g><path style="opacity:1" fill="#b5b1c0" d="M 43.5,78.5 C 44.4715,79.3991 45.1382,80.5657 45.5,82C 43.8795,84.5524 44.2129,86.7191 46.5,88.5C 48.5314,90.2492 48.8647,92.2492 47.5,94.5C 44.3135,91.6531 40.6469,89.6531 36.5,88.5C 34.4371,89.5118 32.4371,90.5118 30.5,91.5C 29.7326,90.828 29.0659,89.9947 28.5,89C 26.1902,88.5034 23.8568,88.3367 21.5,88.5C 21.0193,84.6509 22.686,82.6509 26.5,82.5C 26.369,83.2389 26.5357,83.9056 27,84.5C 27.7387,83.4258 28.7387,82.7591 30,82.5C 31.1681,83.5089 32.3348,84.5089 33.5,85.5C 38.7187,83.302 38.7187,82.6353 33.5,83.5C 33.2965,81.6096 33.9632,80.1096 35.5,79C 37.676,78.8371 39.5093,78.0037 41,76.5C 41.7083,77.3805 42.5416,78.0472 43.5,78.5 Z"/></g>
<g><path style="opacity:1" fill="#bd898d" d="M 53.5,79.5 C 56.6843,81.4136 60.351,82.0803 64.5,81.5C 67.246,82.2513 69.9127,83.2513 72.5,84.5C 71.1667,86.1667 71.1667,87.8333 72.5,89.5C 65.5478,90.2612 58.5478,90.7612 51.5,91C 50.8333,91.6667 50.1667,92.3333 49.5,93C 50.7437,96.4055 52.4103,99.5721 54.5,102.5C 51.7633,102.141 49.7633,100.807 48.5,98.5C 47.7659,97.2921 47.4326,95.9587 47.5,94.5C 48.8647,92.2492 48.5314,90.2492 46.5,88.5C 46.62,87.4138 47.2867,86.7472 48.5,86.5C 51.12,88.069 53.4534,87.7357 55.5,85.5C 55.0623,84.4937 54.3957,84.4937 53.5,85.5C 52.5,83.8333 51.1667,82.5 49.5,81.5C 50.5,80.5 51.5,79.5 52.5,78.5C 53.1067,78.6236 53.44,78.9569 53.5,79.5 Z"/></g>
<g><path style="opacity:1" fill="#b18893" d="M 123.5,69.5 C 123.5,70.1667 123.833,70.5 124.5,70.5C 122.971,70.681 121.304,71.0143 119.5,71.5C 118.795,73.6721 117.795,75.6721 116.5,77.5C 118.104,78.6026 119.104,80.1026 119.5,82C 117.962,85.1234 118.296,87.9568 120.5,90.5C 120.719,91.675 120.386,92.675 119.5,93.5C 117.22,94.7019 114.886,95.7019 112.5,96.5C 109.969,92.9026 109.969,89.236 112.5,85.5C 112.768,83.901 112.434,82.5676 111.5,81.5C 108.14,79.9367 105.307,77.9367 103,75.5C 100.572,73.87 98.739,74.2033 97.5,76.5C 97.1667,76.5 96.8333,76.5 96.5,76.5C 95.5263,74.9147 94.0263,73.9147 92,73.5C 89.9592,74.4231 87.7925,74.7564 85.5,74.5C 85.5,74.1667 85.5,73.8333 85.5,73.5C 88.2062,73.4249 90.8728,73.0916 93.5,72.5C 97.3714,72.815 101.038,72.4816 104.5,71.5C 105.959,71.4326 107.292,71.7659 108.5,72.5C 110.617,74.6545 113.284,75.6545 116.5,75.5C 116.327,70.6766 118.661,68.6766 123.5,69.5 Z"/></g>
<g><path style="opacity:1" fill="#a1a2b9" d="M 47.5,94.5 C 47.4326,95.9587 47.7659,97.2921 48.5,98.5C 47.1733,99.8001 45.84,101.133 44.5,102.5C 43.5,102.167 42.8333,101.5 42.5,100.5C 42.8457,99.3044 43.3457,99.3044 44,100.5C 44.5774,97.5403 43.5774,96.8737 41,98.5C 38.88,96.9728 36.7134,95.6395 34.5,94.5C 33.4097,93.1429 32.0764,92.1429 30.5,91.5C 32.4371,90.5118 34.4371,89.5118 36.5,88.5C 40.6469,89.6531 44.3135,91.6531 47.5,94.5 Z"/></g>
<g><path style="opacity:1" fill="#ca7b76" d="M 88.5,83.5 C 91.2469,83.1866 93.9135,83.52 96.5,84.5C 97.1272,85.4168 97.4606,86.4168 97.5,87.5C 96.209,87.2627 95.209,87.596 94.5,88.5C 93.6236,88.3691 92.9569,88.7025 92.5,89.5C 93.376,90.2508 94.376,90.7508 95.5,91C 95.1667,91.3333 94.8333,91.6667 94.5,92C 95.9733,92.7096 96.6399,93.8762 96.5,95.5C 92.3503,96.4922 88.517,98.1589 85,100.5C 82.7355,99.0842 81.5688,97.0842 81.5,94.5C 80.4019,93.603 80.4019,92.7697 81.5,92C 79.0582,91.0602 76.7249,89.8935 74.5,88.5C 78.8021,89.2594 82.4688,87.9261 85.5,84.5C 86.791,84.7373 87.791,84.404 88.5,83.5 Z"/></g>
<g><path style="opacity:1" fill="#d39d92" d="M 72.5,89.5 C 73.8333,90.8333 75.1667,92.1667 76.5,93.5C 76.5,94.1667 76.5,94.8333 76.5,95.5C 73.3553,94.0645 70.1887,92.7311 67,91.5C 61.3775,93.7925 60.2108,97.4591 63.5,102.5C 65.1727,104.086 67.1727,104.753 69.5,104.5C 69.3284,105.492 69.6618,106.158 70.5,106.5C 70.5,108.167 70.5,109.833 70.5,111.5C 68.9382,111.267 67.6049,110.6 66.5,109.5C 66.0472,108.542 65.3805,107.708 64.5,107C 62.0734,105.409 59.4067,104.575 56.5,104.5C 56.1667,103.5 55.5,102.833 54.5,102.5C 52.4103,99.5721 50.7437,96.4055 49.5,93C 50.1667,92.3333 50.8333,91.6667 51.5,91C 58.5478,90.7612 65.5478,90.2612 72.5,89.5 Z"/></g>
<g><path style="opacity:1" fill="#d09391" d="M 94.5,88.5 C 96.2646,89.4614 98.2646,89.7947 100.5,89.5C 100.703,91.3904 100.037,92.8904 98.5,94C 99,94.5 99.5,95 100,95.5C 100.422,93.5743 101.589,92.5743 103.5,92.5C 101.771,96.7553 99.1041,100.422 95.5,103.5C 95.5,102.833 95.5,102.167 95.5,101.5C 95.7221,99.3925 96.7221,97.7258 98.5,96.5C 98.0431,95.7025 97.3764,95.3691 96.5,95.5C 96.6399,93.8762 95.9733,92.7096 94.5,92C 94.8333,91.6667 95.1667,91.3333 95.5,91C 94.376,90.7508 93.376,90.2508 92.5,89.5C 92.9569,88.7025 93.6236,88.3691 94.5,88.5 Z"/></g>
<g><path style="opacity:1" fill="#d3d3da" d="M 132.5,96.5 C 130.707,98.4261 129.707,100.759 129.5,103.5C 127.94,103.519 126.44,103.852 125,104.5C 123.699,104.361 122.866,103.695 122.5,102.5C 123.167,102.5 123.5,102.167 123.5,101.5C 124.167,100.833 124.833,100.167 125.5,99.5C 126.451,98.0813 126.784,96.4147 126.5,94.5C 127.5,94.5 128.5,94.5 129.5,94.5C 129.966,92.7988 129.966,91.2988 129.5,90C 130.56,88.702 131.726,87.5353 133,86.5C 134.732,86.7336 135.566,87.7336 135.5,89.5C 134.749,91.9963 133.749,94.3296 132.5,96.5 Z"/></g>
<g><path style="opacity:0.008" fill="#fbfffe" d="M 29.5,97.5 C 31.1172,98.038 32.7839,98.3713 34.5,98.5C 34.8333,99.1667 35.1667,99.8333 35.5,100.5C 32.6874,100.975 30.6874,99.9754 29.5,97.5 Z"/></g>
<g><path style="opacity:1" fill="#e1936b" d="M 76.5,95.5 C 77.625,96.3478 77.625,97.3478 76.5,98.5C 76.0113,99.9952 75.3446,101.329 74.5,102.5C 73.7494,101.427 72.7494,101.26 71.5,102C 70.9341,102.995 70.2674,103.828 69.5,104.5C 67.1727,104.753 65.1727,104.086 63.5,102.5C 60.2108,97.4591 61.3775,93.7925 67,91.5C 70.1887,92.7311 73.3553,94.0645 76.5,95.5 Z"/></g>
<g><path style="opacity:1" fill="#b38996" d="M 120.5,90.5 C 124.311,92.3104 125.977,95.3104 125.5,99.5C 124.833,100.167 124.167,100.833 123.5,101.5C 119.077,101.69 114.744,102.357 110.5,103.5C 111.167,101.167 111.833,98.8333 112.5,96.5C 114.886,95.7019 117.22,94.7019 119.5,93.5C 120.386,92.675 120.719,91.675 120.5,90.5 Z"/></g>
<g><path style="opacity:1" fill="#dee1e4" d="M 149.5,85.5 C 150.117,85.6107 150.617,85.944 151,86.5C 151.667,89.8333 151.667,93.1667 151,96.5C 148.853,98.4794 147.353,100.813 146.5,103.5C 144.119,102.58 141.786,102.58 139.5,103.5C 139.177,100.295 139.177,96.962 139.5,93.5C 138.167,93.5 136.833,93.5 135.5,93.5C 136.234,92.2921 136.567,90.9587 136.5,89.5C 138.95,89.702 141.283,89.3686 143.5,88.5C 146.212,87.9532 147.712,86.2865 148,83.5C 148.278,84.4158 148.778,85.0825 149.5,85.5 Z"/></g>
<g><path style="opacity:1" fill="#aeb3c9" d="M 34.5,94.5 C 36.7134,95.6395 38.88,96.9728 41,98.5C 43.5774,96.8737 44.5774,97.5403 44,100.5C 43.3457,99.3044 42.8457,99.3044 42.5,100.5C 42.8333,101.5 43.5,102.167 44.5,102.5C 45.84,101.133 47.1733,99.8001 48.5,98.5C 49.7633,100.807 51.7633,102.141 54.5,102.5C 55.5,102.833 56.1667,103.5 56.5,104.5C 56.938,108.908 54.938,110.575 50.5,109.5C 47.7911,107.444 45.1244,105.444 42.5,103.5C 42.5,102.833 42.1667,102.5 41.5,102.5C 40.0821,100.692 38.0821,100.025 35.5,100.5C 35.1667,99.8333 34.8333,99.1667 34.5,98.5C 35.8333,97.1667 35.8333,95.8333 34.5,94.5 Z"/></g>
<g><path style="opacity:0.005" fill="#f2f9fd" d="M 35.5,100.5 C 38.0821,100.025 40.0821,100.692 41.5,102.5C 41.5654,102.938 41.3988,103.272 41,103.5C 39.1239,102.391 37.2905,101.391 35.5,100.5 Z"/></g>
<g><path style="opacity:1" fill="#ca8a7f" d="M 76.5,93.5 C 78.0418,94.3007 79.7085,94.634 81.5,94.5C 81.5688,97.0842 82.7355,99.0842 85,100.5C 88.517,98.1589 92.3503,96.4922 96.5,95.5C 97.3764,95.3691 98.0431,95.7025 98.5,96.5C 96.7221,97.7258 95.7221,99.3925 95.5,101.5C 92.146,101.069 89.3127,102.069 87,104.5C 82.6782,103.083 80.1782,100.083 79.5,95.5C 79.2514,96.5821 79.0848,97.9154 79,99.5C 78.3292,98.7476 77.4959,98.4142 76.5,98.5C 77.625,97.3478 77.625,96.3478 76.5,95.5C 76.5,94.8333 76.5,94.1667 76.5,93.5 Z"/></g>
<g><path style="opacity:1" fill="#af7d7d" d="M 112.5,85.5 C 109.969,89.236 109.969,92.9026 112.5,96.5C 111.833,98.8333 111.167,101.167 110.5,103.5C 108.458,105.375 106.124,107.041 103.5,108.5C 101.983,108.489 100.816,107.823 100,106.5C 97.9935,107.669 95.8268,108.335 93.5,108.5C 93.366,110.292 93.6993,111.958 94.5,113.5C 92.5695,113.771 91.2362,114.771 90.5,116.5C 89.8333,115.167 88.8333,114.167 87.5,113.5C 89.4011,112.065 89.7345,110.398 88.5,108.5C 90.6195,106.6 92.9528,104.934 95.5,103.5C 99.1041,100.422 101.771,96.7553 103.5,92.5C 105.116,91.0108 107.116,90.0108 109.5,89.5C 109.815,87.517 110.815,86.1837 112.5,85.5 Z"/></g>
<g><path style="opacity:1" fill="#dde1e7" d="M 135.5,93.5 C 136.833,93.5 138.167,93.5 139.5,93.5C 139.177,96.962 139.177,100.295 139.5,103.5C 141.786,102.58 144.119,102.58 146.5,103.5C 140.861,106.23 135.027,108.896 129,111.5C 125.99,113.871 123.49,116.537 121.5,119.5C 121.657,118.127 121.49,116.793 121,115.5C 117.59,118.303 116.09,117.303 116.5,112.5C 118.458,111.046 120.291,109.379 122,107.5C 128.735,106.793 132.235,103.126 132.5,96.5C 133.833,95.8333 134.833,94.8333 135.5,93.5 Z"/></g>
<g><path style="opacity:1" fill="#d19d88" d="M 95.5,101.5 C 95.5,102.167 95.5,102.833 95.5,103.5C 92.9528,104.934 90.6195,106.6 88.5,108.5C 86.139,108.326 83.8056,107.993 81.5,107.5C 79.0664,106.015 76.7331,104.348 74.5,102.5C 75.3446,101.329 76.0113,99.9952 76.5,98.5C 77.4959,98.4142 78.3292,98.7476 79,99.5C 79.0848,97.9154 79.2514,96.5821 79.5,95.5C 80.1782,100.083 82.6782,103.083 87,104.5C 89.3127,102.069 92.146,101.069 95.5,101.5 Z"/></g>
<g><path style="opacity:1" fill="#d2ba9d" d="M 74.5,102.5 C 76.7331,104.348 79.0664,106.015 81.5,107.5C 77.8019,107.448 74.1352,107.114 70.5,106.5C 69.6618,106.158 69.3284,105.492 69.5,104.5C 70.2674,103.828 70.9341,102.995 71.5,102C 72.7494,101.26 73.7494,101.427 74.5,102.5 Z"/></g>
<g><path style="opacity:0.016" fill="#ededf4" d="M 41.5,106.5 C 42.2891,106.783 42.9558,107.283 43.5,108C 42.184,108.528 41.5173,108.028 41.5,106.5 Z"/></g>
<g><path style="opacity:1" fill="#ccc6c1" d="M 70.5,106.5 C 74.1352,107.114 77.8019,107.448 81.5,107.5C 81.5,108.167 81.5,108.833 81.5,109.5C 81.5,110.833 81.5,112.167 81.5,113.5C 77.6814,113.586 74.0148,112.919 70.5,111.5C 70.5,109.833 70.5,108.167 70.5,106.5 Z"/></g>
<g><path style="opacity:1" fill="#ba979b" d="M 103.5,108.5 C 100.948,110.943 97.9484,112.61 94.5,113.5C 93.6993,111.958 93.366,110.292 93.5,108.5C 95.8268,108.335 97.9935,107.669 100,106.5C 100.816,107.823 101.983,108.489 103.5,108.5 Z"/></g>
<g><path style="opacity:1" fill="#c09c99" d="M 81.5,107.5 C 83.8056,107.993 86.139,108.326 88.5,108.5C 89.7345,110.398 89.4011,112.065 87.5,113.5C 85.9582,112.699 84.2915,112.366 82.5,112.5C 82.7373,111.209 82.404,110.209 81.5,109.5C 81.5,108.833 81.5,108.167 81.5,107.5 Z"/></g>
<g><path style="opacity:1" fill="#bdbfcb" d="M 132.5,96.5 C 132.235,103.126 128.735,106.793 122,107.5C 120.291,109.379 118.458,111.046 116.5,112.5C 115.802,114.667 114.469,116.5 112.5,118C 109.5,119.667 106.5,121.333 103.5,123C 105.167,123.333 106.833,123.667 108.5,124C 107.619,124.708 106.953,125.542 106.5,126.5C 103.977,127.801 101.31,128.801 98.5,129.5C 97.1779,129.33 96.0113,129.663 95,130.5C 90.8321,129.664 90.6654,128.664 94.5,127.5C 95.1667,126.167 95.8333,124.833 96.5,123.5C 98.1789,125.104 100.179,125.771 102.5,125.5C 102.5,124.167 102.5,122.833 102.5,121.5C 101.07,121.421 99.7362,121.754 98.5,122.5C 97.6143,121.675 97.281,120.675 97.5,119.5C 96.8227,116.717 98.156,115.05 101.5,114.5C 104.196,116.44 105.529,115.773 105.5,112.5C 108.346,112.191 109.846,110.525 110,107.5C 110.414,107.957 110.914,108.291 111.5,108.5C 115.644,107.352 119.31,105.352 122.5,102.5C 122.866,103.695 123.699,104.361 125,104.5C 126.44,103.852 127.94,103.519 129.5,103.5C 129.707,100.759 130.707,98.4261 132.5,96.5 Z"/></g>
<g><path style="opacity:1" fill="#a9a4b1" d="M 123.5,101.5 C 123.5,102.167 123.167,102.5 122.5,102.5C 119.31,105.352 115.644,107.352 111.5,108.5C 110.914,108.291 110.414,107.957 110,107.5C 109.846,110.525 108.346,112.191 105.5,112.5C 105.529,115.773 104.196,116.44 101.5,114.5C 98.156,115.05 96.8227,116.717 97.5,119.5C 94.812,119.834 92.4786,119.168 90.5,117.5C 90.5,117.167 90.5,116.833 90.5,116.5C 91.2362,114.771 92.5695,113.771 94.5,113.5C 97.9484,112.61 100.948,110.943 103.5,108.5C 106.124,107.041 108.458,105.375 110.5,103.5C 114.744,102.357 119.077,101.69 123.5,101.5 Z"/></g>
<g><path style="opacity:0.986" fill="#dde5f0" d="M 42.5,103.5 C 45.1244,105.444 47.7911,107.444 50.5,109.5C 51.3984,110.158 52.3984,110.824 53.5,111.5C 52.3595,112.425 52.3595,113.259 53.5,114C 56.2179,115.072 58.8845,116.238 61.5,117.5C 63.5463,119.281 63.8796,121.281 62.5,123.5C 59.8894,121.855 57.2228,120.188 54.5,118.5C 52.5,114.5 49.5,111.5 45.5,109.5C 44.4867,107.473 43.4867,105.473 42.5,103.5 Z"/></g>
<g><path style="opacity:1" fill="#b6b3b9" d="M 66.5,109.5 C 67.6049,110.6 68.9382,111.267 70.5,111.5C 74.0148,112.919 77.6814,113.586 81.5,113.5C 81.5,112.167 81.5,110.833 81.5,109.5C 82.404,110.209 82.7373,111.209 82.5,112.5C 84.2915,112.366 85.9582,112.699 87.5,113.5C 88.8333,114.167 89.8333,115.167 90.5,116.5C 90.5,116.833 90.5,117.167 90.5,117.5C 82.8415,117.014 75.1748,116.68 67.5,116.5C 64.3082,115.078 60.9749,113.911 57.5,113C 59.4025,112.801 60.9025,111.967 62,110.5C 63.9151,111.916 65.4151,111.582 66.5,109.5 Z"/></g>
<g><path style="opacity:1" fill="#d7dae4" d="M 116.5,112.5 C 116.09,117.303 117.59,118.303 121,115.5C 121.49,116.793 121.657,118.127 121.5,119.5C 119.664,121.757 116.998,123.924 113.5,126C 111.19,126.497 108.857,126.663 106.5,126.5C 106.953,125.542 107.619,124.708 108.5,124C 106.833,123.667 105.167,123.333 103.5,123C 106.5,121.333 109.5,119.667 112.5,118C 114.469,116.5 115.802,114.667 116.5,112.5 Z"/></g>
<g><path style="opacity:1" fill="#caced9" d="M 56.5,104.5 C 59.4067,104.575 62.0734,105.409 64.5,107C 65.3805,107.708 66.0472,108.542 66.5,109.5C 65.4151,111.582 63.9151,111.916 62,110.5C 60.9025,111.967 59.4025,112.801 57.5,113C 60.9749,113.911 64.3082,115.078 67.5,116.5C 64.6007,119.407 65.2674,121.407 69.5,122.5C 71.8342,121.159 73.5009,121.826 74.5,124.5C 75.1924,123.975 75.6924,123.308 76,122.5C 76.6708,123.252 77.5041,123.586 78.5,123.5C 76.1891,125.068 73.5224,125.902 70.5,126C 71.056,126.383 71.3893,126.883 71.5,127.5C 68.3135,126.403 65.3135,125.07 62.5,123.5C 63.8796,121.281 63.5463,119.281 61.5,117.5C 58.8845,116.238 56.2179,115.072 53.5,114C 52.3595,113.259 52.3595,112.425 53.5,111.5C 52.3984,110.824 51.3984,110.158 50.5,109.5C 54.938,110.575 56.938,108.908 56.5,104.5 Z"/></g>
<g><path style="opacity:1" fill="#c4c8d1" d="M 89.5,132.5 C 86.6114,131.992 83.7781,131.325 81,130.5C 79.9335,132.283 78.4335,132.783 76.5,132C 75.9013,129.917 74.2346,128.417 71.5,127.5C 71.3893,126.883 71.056,126.383 70.5,126C 73.5224,125.902 76.1891,125.068 78.5,123.5C 82.9939,122.533 85.8272,124.533 87,129.5C 88.0674,130.191 89.2341,130.691 90.5,131C 89.944,131.383 89.6107,131.883 89.5,132.5 Z"/></g>
<g><path style="opacity:1" fill="#cdcfd9" d="M 67.5,116.5 C 75.1748,116.68 82.8415,117.014 90.5,117.5C 92.4786,119.168 94.812,119.834 97.5,119.5C 97.281,120.675 97.6143,121.675 98.5,122.5C 99.7362,121.754 101.07,121.421 102.5,121.5C 102.5,122.833 102.5,124.167 102.5,125.5C 100.179,125.771 98.1789,125.104 96.5,123.5C 95.8333,124.833 95.1667,126.167 94.5,127.5C 90.6654,128.664 90.8321,129.664 95,130.5C 96.0113,129.663 97.1779,129.33 98.5,129.5C 96.1547,132.075 93.1547,133.075 89.5,132.5C 89.6107,131.883 89.944,131.383 90.5,131C 89.2341,130.691 88.0674,130.191 87,129.5C 85.8272,124.533 82.9939,122.533 78.5,123.5C 77.5041,123.586 76.6708,123.252 76,122.5C 75.6924,123.308 75.1924,123.975 74.5,124.5C 73.5009,121.826 71.8342,121.159 69.5,122.5C 65.2674,121.407 64.6007,119.407 67.5,116.5 Z"/></g>
<g><path style="opacity:0.658" fill="#bebefa" d="M 59.5,134.5 C 60.4959,134.414 61.3292,134.748 62,135.5C 62.413,138.232 63.0797,140.899 64,143.5C 65.8333,141.667 67.6667,139.833 69.5,138C 70.6001,137.568 71.2668,138.068 71.5,139.5C 70.9251,143.482 69.5917,147.149 67.5,150.5C 66.8153,148.219 66.6487,145.886 67,143.5C 65.7365,145.607 63.9032,146.607 61.5,146.5C 60.6059,139.944 59.6059,139.944 58.5,146.5C 58.1667,146.833 57.8333,147.167 57.5,147.5C 57.1667,146.833 56.8333,146.167 56.5,145.5C 57.3485,141.771 58.3485,138.104 59.5,134.5 Z"/></g>
<g><path style="opacity:0.609" fill="#bebefb" d="M 98.5,136.5 C 104.144,135.481 107.144,137.814 107.5,143.5C 104.679,143.539 102.012,144.205 99.5,145.5C 102.148,148.262 104.481,147.929 106.5,144.5C 107.347,147.866 105.847,149.866 102,150.5C 98.0549,149.142 95.8883,146.309 95.5,142C 96.1242,139.915 97.1242,138.082 98.5,136.5 Z M 100.5,138.5 C 102.346,138.222 103.68,138.889 104.5,140.5C 102.696,141.768 100.696,142.435 98.5,142.5C 98.5271,140.801 99.1938,139.467 100.5,138.5 Z"/></g>
<g><path style="opacity:0.578" fill="#bfbffb" d="M 77.5,138.5 C 78.5,138.5 79.5,138.5 80.5,138.5C 80.5,140.167 80.5,141.833 80.5,143.5C 82.4672,143.261 84.3005,143.594 86,144.5C 86.4955,142.527 86.6621,140.527 86.5,138.5C 87.5,138.5 88.5,138.5 89.5,138.5C 89.6653,142.182 89.4986,145.848 89,149.5C 88.6924,150.308 88.1924,150.975 87.5,151.5C 86.5481,149.955 86.2148,148.288 86.5,146.5C 84.5,146.5 82.5,146.5 80.5,146.5C 80.5,148.167 80.5,149.833 80.5,151.5C 79.5,151.5 78.5,151.5 77.5,151.5C 77.5,147.167 77.5,142.833 77.5,138.5 Z"/></g>
</svg>
