<?xml version="1.0" encoding="UTF-8"?>
<!DOCTYPE svg PUBLIC "-//W3C//DTD SVG 1.1//EN" "http://www.w3.org/Graphics/SVG/1.1/DTD/svg11.dtd">
<svg xmlns="http://www.w3.org/2000/svg" version="1.1" width="175px" height="175px" style="shape-rendering:geometricPrecision; text-rendering:geometricPrecision; image-rendering:optimizeQuality; fill-rule:evenodd; clip-rule:evenodd" xmlns:xlink="http://www.w3.org/1999/xlink">
<g><path style="opacity:0.638" fill="#bebefb" d="M 92.5,16.5 C 93.4778,16.811 94.1445,17.4777 94.5,18.5C 92.2338,19.3142 89.9005,19.8142 87.5,20C 86.8333,20.6667 86.1667,21.3333 85.5,22C 93.4741,21.3091 96.3075,24.8091 94,32.5C 93.6258,33.4162 93.1258,34.2496 92.5,35C 83.1625,35.9675 79.9959,31.8008 83,22.5C 83.5831,20.9984 84.4164,19.6651 85.5,18.5C 87.9823,17.9329 90.3157,17.2663 92.5,16.5 Z M 86.5,24.5 C 92.6426,25.0262 93.9759,27.8595 90.5,33C 86.9305,34.1048 84.9305,32.7714 84.5,29C 85.2666,27.5295 85.9332,26.0295 86.5,24.5 Z"/></g>
<g><path style="opacity:0.67" fill="#bebefa" d="M 66.5,24.5 C 72.4708,23.7995 75.8041,26.4662 76.5,32.5C 74.6908,38.7523 71.0241,40.0857 65.5,36.5C 62.6946,32.2075 63.0279,28.2075 66.5,24.5 Z M 68.5,26.5 C 73.2442,27.8522 74.5775,30.8522 72.5,35.5C 68.3824,36.752 66.0491,35.0853 65.5,30.5C 66.1716,28.8405 67.1716,27.5072 68.5,26.5 Z"/></g>
<g><path style="opacity:0.658" fill="#bebefa" d="M 104.5,25.5 C 113.16,25.8136 115.326,29.8136 111,37.5C 105.673,40.7488 102.173,39.4155 100.5,33.5C 100.8,30.2335 102.133,27.5669 104.5,25.5 Z M 105.5,27.5 C 110.213,27.4676 111.713,29.8009 110,34.5C 106.954,38.6372 104.454,38.3038 102.5,33.5C 103.129,31.2592 104.129,29.2592 105.5,27.5 Z"/></g>
<g><path style="opacity:0.997" fill="#e0e5e9" d="M 74.5,40.5 C 74.9169,39.8761 75.5836,39.5427 76.5,39.5C 79.9467,40.7229 83.2801,42.2229 86.5,44C 91.5204,44.5361 96.3537,45.7027 101,47.5C 101.333,47.1667 101.667,46.8333 102,46.5C 104.871,48.7153 107.037,51.5486 108.5,55C 111.091,57.1168 113.758,58.9501 116.5,60.5C 113.478,60.196 110.478,59.696 107.5,59C 106.663,57.9887 106.33,56.8221 106.5,55.5C 104.832,53.1423 102.499,51.4757 99.5,50.5C 97.6254,51.8361 96.2921,51.3361 95.5,49C 92.734,48.6616 90.0674,49.1616 87.5,50.5C 82.8008,50.1363 79.4675,47.803 77.5,43.5C 73.6327,44.4875 73.6327,43.9875 77.5,42C 76.7562,40.9614 75.7562,40.4614 74.5,40.5 Z"/></g>
<g><path style="opacity:1" fill="#e1e6e8" d="M 74.5,40.5 C 75.7562,40.4614 76.7562,40.9614 77.5,42C 73.6327,43.9875 73.6327,44.4875 77.5,43.5C 79.4675,47.803 82.8008,50.1363 87.5,50.5C 90.0674,49.1616 92.734,48.6616 95.5,49C 96.2921,51.3361 97.6254,51.8361 99.5,50.5C 102.499,51.4757 104.832,53.1423 106.5,55.5C 103.052,53.8739 99.3854,52.8739 95.5,52.5C 92.108,54.3541 88.4414,55.3541 84.5,55.5C 84.0269,54.0937 83.0269,53.427 81.5,53.5C 80.5943,52.0351 79.261,51.0351 77.5,50.5C 75.4203,50.5797 73.2537,51.2464 71,52.5C 68.9319,51.3297 67.0986,51.4963 65.5,53C 68.0278,53.9978 68.0278,54.8311 65.5,55.5C 63.1994,54.6042 60.8661,54.4375 58.5,55C 55.9966,57.9354 52.9966,59.1021 49.5,58.5C 47.5467,63.561 44.0467,65.2277 39,63.5C 37.3189,63.6083 36.1522,64.2749 35.5,65.5C 34.5041,65.5858 33.6708,65.2524 33,64.5C 29.6425,67.0312 26.4758,69.6979 23.5,72.5C 23.3797,69.5198 22.713,66.6865 21.5,64C 22.3366,62.9887 22.67,61.8221 22.5,60.5C 27.5541,59.994 32.5541,59.1606 37.5,58C 45.4597,53.3978 53.4597,48.7312 61.5,44C 64.4324,43.7282 66.9324,42.5615 69,40.5C 70.6255,40.8541 72.4588,40.8541 74.5,40.5 Z"/></g>
<g><path style="opacity:1" fill="#c4a79d" d="M 106.5,55.5 C 106.33,56.8221 106.663,57.9887 107.5,59C 110.478,59.696 113.478,60.196 116.5,60.5C 116.5,60.8333 116.5,61.1667 116.5,61.5C 108.618,62.2247 101.285,60.558 94.5,56.5C 92.3442,58.4904 90.3442,60.6571 88.5,63C 85.0092,65.1009 81.6758,64.9342 78.5,62.5C 77.0815,63.0047 76.4148,64.0047 76.5,65.5C 74.5043,67.3332 72.171,67.8332 69.5,67C 71.6228,66.1853 73.6228,65.1853 75.5,64C 72.5744,63.313 71.2411,61.4797 71.5,58.5C 75.9679,57.0376 80.3013,56.0376 84.5,55.5C 88.4414,55.3541 92.108,54.3541 95.5,52.5C 99.3854,52.8739 103.052,53.8739 106.5,55.5 Z"/></g>
<g><path style="opacity:0.004" fill="#f6fafa" d="M 122.5,66.5 C 120.492,65.1637 118.492,63.8304 116.5,62.5C 119.63,61.5674 121.63,62.9007 122.5,66.5 Z"/></g>
<g><path style="opacity:1" fill="#dadcdd" d="M 81.5,53.5 C 77.7802,53.5642 74.1135,54.0642 70.5,55C 67.3342,57.0838 64.3342,59.2504 61.5,61.5C 57.4542,63.6254 53.1209,64.9587 48.5,65.5C 48.5,66.5 48.5,67.5 48.5,68.5C 45.8589,69.2631 43.1922,69.4298 40.5,69C 40.1667,68.6667 39.8333,68.3333 39.5,68C 42.4927,67.5727 42.9927,66.4061 41,64.5C 40.6924,65.3081 40.1924,65.9747 39.5,66.5C 38.2638,65.7542 36.9305,65.4208 35.5,65.5C 36.1522,64.2749 37.3189,63.6083 39,63.5C 44.0467,65.2277 47.5467,63.561 49.5,58.5C 52.9966,59.1021 55.9966,57.9354 58.5,55C 60.8661,54.4375 63.1994,54.6042 65.5,55.5C 68.0278,54.8311 68.0278,53.9978 65.5,53C 67.0986,51.4963 68.9319,51.3297 71,52.5C 73.2537,51.2464 75.4203,50.5797 77.5,50.5C 79.261,51.0351 80.5943,52.0351 81.5,53.5 Z"/></g>
<g><path style="opacity:1" fill="#cab0a6" d="M 81.5,53.5 C 83.0269,53.427 84.0269,54.0937 84.5,55.5C 80.3013,56.0376 75.9679,57.0376 71.5,58.5C 71.2411,61.4797 72.5744,63.313 75.5,64C 73.6228,65.1853 71.6228,66.1853 69.5,67C 72.171,67.8332 74.5043,67.3332 76.5,65.5C 78.1788,65.2852 79.1788,65.9519 79.5,67.5C 76.8333,67.8333 74.1667,68.1667 71.5,68.5C 67.4422,69.1897 63.4422,69.1897 59.5,68.5C 58.5,69.1667 57.5,69.8333 56.5,70.5C 55.5832,69.8728 54.5832,69.5394 53.5,69.5C 56.5211,67.1456 59.1877,64.4789 61.5,61.5C 64.3342,59.2504 67.3342,57.0838 70.5,55C 74.1135,54.0642 77.7802,53.5642 81.5,53.5 Z"/></g>
<g><path style="opacity:1" fill="#bc9c94" d="M 116.5,61.5 C 116.5,61.8333 116.5,62.1667 116.5,62.5C 115.662,62.8417 115.328,63.5084 115.5,64.5C 114.518,63.8592 113.518,63.1925 112.5,62.5C 112.436,63.3652 112.103,64.3652 111.5,65.5C 109.754,66.3953 107.92,67.062 106,67.5C 102.415,64.2459 99.0813,64.2459 96,67.5C 95.6258,68.4162 95.1258,69.2496 94.5,70C 94.7284,70.3988 95.0618,70.5654 95.5,70.5C 95.1667,71.5 94.5,72.1667 93.5,72.5C 92.2135,70.0448 90.3802,68.0448 88,66.5C 87.586,66.9574 87.086,67.2907 86.5,67.5C 85.452,66.6171 84.2853,65.9504 83,65.5C 81.9231,66.4295 80.7564,67.0962 79.5,67.5C 79.1788,65.9519 78.1788,65.2852 76.5,65.5C 76.4148,64.0047 77.0815,63.0047 78.5,62.5C 81.6758,64.9342 85.0092,65.1009 88.5,63C 90.3442,60.6571 92.3442,58.4904 94.5,56.5C 101.285,60.558 108.618,62.2247 116.5,61.5 Z"/></g>
<g><path style="opacity:0.992" fill="#cdc7cb" d="M 116.5,62.5 C 118.492,63.8304 120.492,65.1637 122.5,66.5C 124.734,68.8903 127.401,70.7237 130.5,72C 129.402,72.7697 129.402,73.603 130.5,74.5C 130.5,74.8333 130.5,75.1667 130.5,75.5C 129.647,77.8927 127.981,79.226 125.5,79.5C 125.379,75.8731 123.545,73.5398 120,72.5C 119.383,71.5509 119.549,70.7175 120.5,70C 119.033,68.9025 118.199,67.4025 118,65.5C 117.329,64.7476 116.496,64.4142 115.5,64.5C 115.328,63.5084 115.662,62.8417 116.5,62.5 Z"/></g>
<g><path style="opacity:1" fill="#d7b7b5" d="M 115.5,64.5 C 116.496,64.4142 117.329,64.7476 118,65.5C 118.199,67.4025 119.033,68.9025 120.5,70C 119.549,70.7175 119.383,71.5509 120,72.5C 123.545,73.5398 125.379,75.8731 125.5,79.5C 127.981,79.226 129.647,77.8927 130.5,75.5C 133.493,77.5183 135.826,80.1849 137.5,83.5C 133.821,83.7244 130.154,84.0578 126.5,84.5C 127.028,83.1526 127.195,81.8193 127,80.5C 125.867,82.2112 124.367,82.7112 122.5,82C 121.277,79.0392 119.277,77.3725 116.5,77C 119.051,78.5158 118.718,79.3491 115.5,79.5C 115.649,78.448 115.483,77.448 115,76.5C 112.205,74.7068 109.705,72.5402 107.5,70C 103.476,69.5027 99.4761,69.6693 95.5,70.5C 95.0618,70.5654 94.7284,70.3988 94.5,70C 95.1258,69.2496 95.6258,68.4162 96,67.5C 99.0813,64.2459 102.415,64.2459 106,67.5C 107.92,67.062 109.754,66.3953 111.5,65.5C 112.103,64.3652 112.436,63.3652 112.5,62.5C 113.518,63.1925 114.518,63.8592 115.5,64.5 Z"/></g>
<g><path style="opacity:1" fill="#b9a2aa" d="M 93.5,72.5 C 91.4348,72.953 89.7682,73.953 88.5,75.5C 87.8333,75.5 87.1667,75.5 86.5,75.5C 83.1105,75.4887 80.4438,74.1554 78.5,71.5C 74.3518,72.5334 70.3518,73.8668 66.5,75.5C 64.5269,74.6689 62.5269,74.5022 60.5,75C 61.4378,76.0633 62.4378,77.2299 63.5,78.5C 62.5331,79.984 61.1998,80.984 59.5,81.5C 58.1997,78.9759 58.1997,76.3092 59.5,73.5C 62.8272,71.2783 66.4939,70.1116 70.5,70C 71.056,69.6174 71.3893,69.1174 71.5,68.5C 74.1667,68.1667 76.8333,67.8333 79.5,67.5C 80.7564,67.0962 81.9231,66.4295 83,65.5C 84.2853,65.9504 85.452,66.6171 86.5,67.5C 87.086,67.2907 87.586,66.9574 88,66.5C 90.3802,68.0448 92.2135,70.0448 93.5,72.5 Z"/></g>
<g><path style="opacity:1" fill="#dcdad8" d="M 146.5,85.5 C 145.833,85.5 145.167,85.5 144.5,85.5C 141.812,85.8342 139.479,85.1675 137.5,83.5C 135.826,80.1849 133.493,77.5183 130.5,75.5C 130.5,75.1667 130.5,74.8333 130.5,74.5C 131.404,73.791 131.737,72.791 131.5,71.5C 132.5,71.5 133.5,71.5 134.5,71.5C 135.583,71.5394 136.583,71.8728 137.5,72.5C 139.436,70.0221 141.436,70.0221 143.5,72.5C 143.291,73.086 142.957,73.586 142.5,74C 144.995,77.1188 147.661,80.1188 150.5,83C 148.68,83.2004 147.347,84.0337 146.5,85.5 Z"/></g>
<g><path style="opacity:1" fill="#bc99a1" d="M 102.5,80.5 C 101.833,80.5 101.167,80.5 100.5,80.5C 100.804,79.8501 101.137,79.1835 101.5,78.5C 99.6136,77.5937 97.7803,76.5937 96,75.5C 93.5128,75.8249 91.0128,75.8249 88.5,75.5C 91.4665,75.0114 94.1332,73.8448 96.5,72C 99.8273,71.3897 103.161,70.8897 106.5,70.5C 106.36,72.1238 107.027,73.2904 108.5,74C 106.76,75.6945 104.76,76.8611 102.5,77.5C 102.5,78.5 102.5,79.5 102.5,80.5 Z"/></g>
<g><path style="opacity:1" fill="#d5d4d6" d="M 61.5,61.5 C 59.1877,64.4789 56.5211,67.1456 53.5,69.5C 51.4839,71.0133 49.1506,71.8466 46.5,72C 44.576,73.7498 42.9093,75.5831 41.5,77.5C 37.2648,78.436 32.9315,78.7693 28.5,78.5C 29.1164,76.5829 30.4497,75.4162 32.5,75C 28.4876,72.8935 28.8209,71.3935 33.5,70.5C 34.3219,68.8614 34.9886,67.1947 35.5,65.5C 36.9305,65.4208 38.2638,65.7542 39.5,66.5C 40.1924,65.9747 40.6924,65.3081 41,64.5C 42.9927,66.4061 42.4927,67.5727 39.5,68C 39.8333,68.3333 40.1667,68.6667 40.5,69C 43.1922,69.4298 45.8589,69.2631 48.5,68.5C 48.5,67.5 48.5,66.5 48.5,65.5C 53.1209,64.9587 57.4542,63.6254 61.5,61.5 Z"/></g>
<g><path style="opacity:1" fill="#c9b1b0" d="M 71.5,68.5 C 71.3893,69.1174 71.056,69.6174 70.5,70C 66.4939,70.1116 62.8272,71.2783 59.5,73.5C 58.1997,76.3092 58.1997,78.9759 59.5,81.5C 59.5,82.1667 59.5,82.8333 59.5,83.5C 56.4881,84.9948 54.1548,84.1615 52.5,81C 48.7808,80.6116 45.1141,79.9449 41.5,79C 42.7383,78.31 42.7383,77.81 41.5,77.5C 42.9093,75.5831 44.576,73.7498 46.5,72C 49.1506,71.8466 51.4839,71.0133 53.5,69.5C 54.5832,69.5394 55.5832,69.8728 56.5,70.5C 57.5,69.8333 58.5,69.1667 59.5,68.5C 63.4422,69.1897 67.4422,69.1897 71.5,68.5 Z"/></g>
<g><path style="opacity:1" fill="#a68ca3" d="M 86.5,75.5 C 87.1667,75.5 87.8333,75.5 88.5,75.5C 91.0128,75.8249 93.5128,75.8249 96,75.5C 97.7803,76.5937 99.6136,77.5937 101.5,78.5C 101.137,79.1835 100.804,79.8501 100.5,80.5C 98.2446,82.3803 95.5779,83.3803 92.5,83.5C 89.1501,83.665 85.8168,83.4983 82.5,83C 82.8333,82.6667 83.1667,82.3333 83.5,82C 82.552,81.5172 81.552,81.3505 80.5,81.5C 80.7373,80.209 80.404,79.209 79.5,78.5C 81.9752,77.8686 84.3085,76.8686 86.5,75.5 Z"/></g>
<g><path style="opacity:1" fill="#a4969c" d="M 41.5,77.5 C 42.7383,77.81 42.7383,78.31 41.5,79C 45.1141,79.9449 48.7808,80.6116 52.5,81C 54.1548,84.1615 56.4881,84.9948 59.5,83.5C 62.8175,82.7791 66.1508,82.6124 69.5,83C 63.0456,83.9128 63.0456,85.2462 69.5,87C 68.552,87.4828 67.552,87.6495 66.5,87.5C 61.888,86.7039 57.2214,86.0373 52.5,85.5C 52.2172,84.7109 51.7172,84.0442 51,83.5C 48.1125,85.184 44.9458,86.184 41.5,86.5C 41.5858,85.5041 41.2524,84.6708 40.5,84C 35.8637,83.8875 31.5304,82.7208 27.5,80.5C 27.8627,79.8165 28.1961,79.1499 28.5,78.5C 32.9315,78.7693 37.2648,78.436 41.5,77.5 Z"/></g>
<g><path style="opacity:1" fill="#b5a1b0" d="M 86.5,75.5 C 84.3085,76.8686 81.9752,77.8686 79.5,78.5C 77.5781,80.1013 75.4114,81.4347 73,82.5C 72.0339,85.3397 72.8672,87.3397 75.5,88.5C 74.5084,88.3284 73.8417,88.6618 73.5,89.5C 71.0479,88.9346 68.7146,88.2679 66.5,87.5C 67.552,87.6495 68.552,87.4828 69.5,87C 63.0456,85.2462 63.0456,83.9128 69.5,83C 66.1508,82.6124 62.8175,82.7791 59.5,83.5C 59.5,82.8333 59.5,82.1667 59.5,81.5C 61.1998,80.984 62.5331,79.984 63.5,78.5C 62.4378,77.2299 61.4378,76.0633 60.5,75C 62.5269,74.5022 64.5269,74.6689 66.5,75.5C 70.3518,73.8668 74.3518,72.5334 78.5,71.5C 80.4438,74.1554 83.1105,75.4887 86.5,75.5 Z"/></g>
<g><path style="opacity:1" fill="#bd8a93" d="M 126.5,84.5 C 125.417,84.4606 124.417,84.1272 123.5,83.5C 122.614,84.325 122.281,85.325 122.5,86.5C 121.5,86.5 120.5,86.5 119.5,86.5C 119.431,83.9158 118.265,81.9158 116,80.5C 115.837,82.3867 116.671,83.8867 118.5,85C 117.737,85.9435 116.737,86.4435 115.5,86.5C 110.969,85.5 107.469,83.1667 105,79.5C 104.617,80.056 104.117,80.3893 103.5,80.5C 103.167,80.5 102.833,80.5 102.5,80.5C 102.5,79.5 102.5,78.5 102.5,77.5C 104.76,76.8611 106.76,75.6945 108.5,74C 107.027,73.2904 106.36,72.1238 106.5,70.5C 103.161,70.8897 99.8273,71.3897 96.5,72C 94.1332,73.8448 91.4665,75.0114 88.5,75.5C 89.7682,73.953 91.4348,72.953 93.5,72.5C 94.5,72.1667 95.1667,71.5 95.5,70.5C 99.4761,69.6693 103.476,69.5027 107.5,70C 109.705,72.5402 112.205,74.7068 115,76.5C 115.483,77.448 115.649,78.448 115.5,79.5C 118.718,79.3491 119.051,78.5158 116.5,77C 119.277,77.3725 121.277,79.0392 122.5,82C 124.367,82.7112 125.867,82.2112 127,80.5C 127.195,81.8193 127.028,83.1526 126.5,84.5 Z"/></g>
<g><path style="opacity:1" fill="#676d73" d="M 79.5,78.5 C 80.404,79.209 80.7373,80.209 80.5,81.5C 81.552,81.3505 82.552,81.5172 83.5,82C 83.1667,82.3333 82.8333,82.6667 82.5,83C 85.8168,83.4983 89.1501,83.665 92.5,83.5C 88.8495,85.2381 88.8495,86.7381 92.5,88C 88.5138,88.4988 84.5138,88.6655 80.5,88.5C 78.8333,88.5 77.1667,88.5 75.5,88.5C 72.8672,87.3397 72.0339,85.3397 73,82.5C 75.4114,81.4347 77.5781,80.1013 79.5,78.5 Z"/></g>
<g><path style="opacity:1" fill="#615a64" d="M 100.5,80.5 C 101.167,80.5 101.833,80.5 102.5,80.5C 102.833,80.5 103.167,80.5 103.5,80.5C 103.5,81.1667 103.5,81.8333 103.5,82.5C 102.972,83.7206 102.305,84.8873 101.5,86C 98.6089,87.2742 95.9422,88.7742 93.5,90.5C 88.9515,90.3755 84.6181,89.7089 80.5,88.5C 84.5138,88.6655 88.5138,88.4988 92.5,88C 88.8495,86.7381 88.8495,85.2381 92.5,83.5C 95.5779,83.3803 98.2446,82.3803 100.5,80.5 Z"/></g>
<g><path style="opacity:1" fill="#b98a9d" d="M 103.5,82.5 C 108.243,85.9059 113.243,88.5725 118.5,90.5C 117.292,91.2341 115.959,91.5674 114.5,91.5C 114.38,90.4138 113.713,89.7472 112.5,89.5C 108.556,91.0369 104.556,92.3703 100.5,93.5C 97.7531,93.8134 95.0865,93.48 92.5,92.5C 92.8627,91.8165 93.1961,91.1499 93.5,90.5C 95.9422,88.7742 98.6089,87.2742 101.5,86C 102.305,84.8873 102.972,83.7206 103.5,82.5 Z"/></g>
<g><path style="opacity:1" fill="#d3a6a3" d="M 137.5,83.5 C 136.378,84.9473 134.878,85.9473 133,86.5C 132.517,87.448 132.351,88.448 132.5,89.5C 133.959,89.4326 135.292,89.7659 136.5,90.5C 135.547,92.61 133.881,93.7767 131.5,94C 131.833,94.3333 132.167,94.6667 132.5,95C 131.877,97.6073 131.21,100.107 130.5,102.5C 130.726,99.7508 130.393,97.0841 129.5,94.5C 127.286,93.9594 125.12,93.6261 123,93.5C 122.506,95.1341 122.34,96.8008 122.5,98.5C 121.469,96.0392 120.802,93.3725 120.5,90.5C 120.369,89.6236 120.702,88.9569 121.5,88.5C 125.44,90.2361 127.107,88.9028 126.5,84.5C 130.154,84.0578 133.821,83.7244 137.5,83.5 Z"/></g>
<g><path style="opacity:1" fill="#ab7680" d="M 126.5,84.5 C 127.107,88.9028 125.44,90.2361 121.5,88.5C 120.702,88.9569 120.369,89.6236 120.5,90.5C 119.833,90.5 119.167,90.5 118.5,90.5C 113.243,88.5725 108.243,85.9059 103.5,82.5C 103.5,81.8333 103.5,81.1667 103.5,80.5C 104.117,80.3893 104.617,80.056 105,79.5C 107.469,83.1667 110.969,85.5 115.5,86.5C 116.737,86.4435 117.737,85.9435 118.5,85C 116.671,83.8867 115.837,82.3867 116,80.5C 118.265,81.9158 119.431,83.9158 119.5,86.5C 120.5,86.5 121.5,86.5 122.5,86.5C 122.281,85.325 122.614,84.325 123.5,83.5C 124.417,84.1272 125.417,84.4606 126.5,84.5 Z"/></g>
<g><path style="opacity:1" fill="#a3807f" d="M 137.5,83.5 C 139.479,85.1675 141.812,85.8342 144.5,85.5C 144.5,86.5 144.5,87.5 144.5,88.5C 141.848,88.4095 139.515,89.0762 137.5,90.5C 137.167,90.5 136.833,90.5 136.5,90.5C 135.292,89.7659 133.959,89.4326 132.5,89.5C 132.351,88.448 132.517,87.448 133,86.5C 134.878,85.9473 136.378,84.9473 137.5,83.5 Z"/></g>
<g><path style="opacity:1" fill="#c2b9ba" d="M 52.5,85.5 C 51.8333,85.5 51.5,85.8333 51.5,86.5C 52.768,92.8543 54.1013,99.1876 55.5,105.5C 54.0755,103.969 53.4088,104.302 53.5,106.5C 48.5385,101.921 44.5385,96.5874 41.5,90.5C 41.5,89.1667 41.5,87.8333 41.5,86.5C 44.9458,86.184 48.1125,85.184 51,83.5C 51.7172,84.0442 52.2172,84.7109 52.5,85.5 Z"/></g>
<g><path style="opacity:1" fill="#eed7de" d="M 51.5,86.5 C 51.5,85.8333 51.8333,85.5 52.5,85.5C 57.2214,86.0373 61.888,86.7039 66.5,87.5C 68.7146,88.2679 71.0479,88.9346 73.5,89.5C 74.625,90.6522 74.625,91.6522 73.5,92.5C 72.8333,92.5 72.1667,92.5 71.5,92.5C 66.8313,90.4214 61.8313,89.4214 56.5,89.5C 55.3406,87.7497 53.674,86.7497 51.5,86.5 Z"/></g>
<g><path style="opacity:1" fill="#ada39f" d="M 144.5,85.5 C 145.167,85.5 145.833,85.5 146.5,85.5C 148.042,86.1408 149.376,87.1408 150.5,88.5C 150.145,89.5223 149.478,90.189 148.5,90.5C 144.85,91.7278 141.184,91.7278 137.5,90.5C 139.515,89.0762 141.848,88.4095 144.5,88.5C 144.5,87.5 144.5,86.5 144.5,85.5 Z"/></g>
<g><path style="opacity:1" fill="#d8d9dd" d="M 35.5,65.5 C 34.9886,67.1947 34.3219,68.8614 33.5,70.5C 28.8209,71.3935 28.4876,72.8935 32.5,75C 30.4497,75.4162 29.1164,76.5829 28.5,78.5C 28.1961,79.1499 27.8627,79.8165 27.5,80.5C 31.5304,82.7208 35.8637,83.8875 40.5,84C 41.2524,84.6708 41.5858,85.5041 41.5,86.5C 41.5,87.8333 41.5,89.1667 41.5,90.5C 40.6981,89.0484 40.1981,87.3817 40,85.5C 37.7048,87.7432 34.8715,89.0765 31.5,89.5C 29.8624,90.7046 29.5291,92.0379 30.5,93.5C 30.0431,94.2975 29.3764,94.6309 28.5,94.5C 27.3859,91.5512 25.3859,89.3845 22.5,88C 22.8333,87.6667 23.1667,87.3333 23.5,87C 22.1984,83.7253 20.5317,80.7253 18.5,78C 18.9312,75.0678 20.5978,73.2345 23.5,72.5C 26.4758,69.6979 29.6425,67.0312 33,64.5C 33.6708,65.2524 34.5041,65.5858 35.5,65.5 Z"/></g>
<g><path style="opacity:1" fill="#f5b5b1" d="M 73.5,89.5 C 79.0153,89.4618 84.0153,90.7951 88.5,93.5C 87.2524,95.69 85.5857,96.0234 83.5,94.5C 82.8333,94.5 82.1667,94.5 81.5,94.5C 78.2157,96.1862 75.549,95.5196 73.5,92.5C 74.625,91.6522 74.625,90.6522 73.5,89.5 Z"/></g>
<g><path style="opacity:1" fill="#d0b1b0" d="M 56.5,89.5 C 61.8313,89.4214 66.8313,90.4214 71.5,92.5C 70.0783,92.7086 68.745,93.2086 67.5,94C 69.1193,94.2355 70.1193,95.0689 70.5,96.5C 70.5,97.1667 70.5,97.8333 70.5,98.5C 69.596,97.791 69.2627,96.791 69.5,95.5C 65.8548,94.3484 62.1882,93.1818 58.5,92C 57.3279,91.5814 56.3279,90.9147 55.5,90C 55.7284,89.6012 56.0618,89.4346 56.5,89.5 Z"/></g>
<g><path style="opacity:1" fill="#b3757f" d="M 73.5,89.5 C 73.8417,88.6618 74.5084,88.3284 75.5,88.5C 77.1667,88.5 78.8333,88.5 80.5,88.5C 84.6181,89.7089 88.9515,90.3755 93.5,90.5C 93.1961,91.1499 92.8627,91.8165 92.5,92.5C 95.0865,93.48 97.7531,93.8134 100.5,93.5C 96.5111,96.0685 92.5111,96.0685 88.5,93.5C 84.0153,90.7951 79.0153,89.4618 73.5,89.5 Z"/></g>
<g><path style="opacity:1" fill="#e0e1e0" d="M 145.5,104.5 C 144.713,102.896 143.38,102.229 141.5,102.5C 141.325,99.6711 142.658,98.0045 145.5,97.5C 142.443,96.8674 139.443,96.5341 136.5,96.5C 140.361,93.9027 144.361,91.9027 148.5,90.5C 149.478,90.189 150.145,89.5223 150.5,88.5C 149.376,87.1408 148.042,86.1408 146.5,85.5C 147.347,84.0337 148.68,83.2004 150.5,83C 147.661,80.1188 144.995,77.1188 142.5,74C 142.957,73.586 143.291,73.086 143.5,72.5C 141.436,70.0221 139.436,70.0221 137.5,72.5C 136.583,71.8728 135.583,71.5394 134.5,71.5C 140.278,68.615 145.612,69.615 150.5,74.5C 155.305,79.8757 156.472,86.209 154,93.5C 150.981,96.2026 148.981,99.5359 148,103.5C 147.329,104.252 146.496,104.586 145.5,104.5 Z"/></g>
<g><path style="opacity:1" fill="#dedee1" d="M 41.5,90.5 C 44.5385,96.5874 48.5385,101.921 53.5,106.5C 54.3382,106.842 54.6716,107.508 54.5,108.5C 55.1383,110.46 55.1383,112.293 54.5,114C 55.3805,114.708 56.0472,115.542 56.5,116.5C 50.6299,113.81 44.9632,110.644 39.5,107C 37.5295,104.857 36.1962,102.357 35.5,99.5C 32.4268,98.7225 30.0935,97.0558 28.5,94.5C 29.3764,94.6309 30.0431,94.2975 30.5,93.5C 29.5291,92.0379 29.8624,90.7046 31.5,89.5C 34.8715,89.0765 37.7048,87.7432 40,85.5C 40.1981,87.3817 40.6981,89.0484 41.5,90.5 Z"/></g>
<g><path style="opacity:1" fill="#d2cfd8" d="M 51.5,86.5 C 53.674,86.7497 55.3406,87.7497 56.5,89.5C 56.0618,89.4346 55.7284,89.6012 55.5,90C 56.3279,90.9147 57.3279,91.5814 58.5,92C 62.1882,93.1818 65.8548,94.3484 69.5,95.5C 69.2627,96.791 69.596,97.791 70.5,98.5C 71.1098,99.391 71.4431,100.391 71.5,101.5C 73.5219,106.454 72.0219,109.788 67,111.5C 64.7492,110.588 62.5825,109.588 60.5,108.5C 58.326,108.25 56.6594,107.25 55.5,105.5C 54.1013,99.1876 52.768,92.8543 51.5,86.5 Z"/></g>
<g><path style="opacity:1" fill="#d18476" d="M 71.5,92.5 C 72.1667,92.5 72.8333,92.5 73.5,92.5C 75.549,95.5196 78.2157,96.1862 81.5,94.5C 79.7971,96.1408 77.6305,97.1408 75,97.5C 73.6439,96.6198 72.1439,96.2865 70.5,96.5C 70.1193,95.0689 69.1193,94.2355 67.5,94C 68.745,93.2086 70.0783,92.7086 71.5,92.5 Z"/></g>
<g><path style="opacity:1" fill="#dbb0b9" d="M 114.5,91.5 C 113.624,91.3691 112.957,91.7025 112.5,92.5C 113.95,93.8498 114.617,95.5165 114.5,97.5C 111.819,97.5379 109.319,96.8713 107,95.5C 105.128,96.4874 105.295,97.1541 107.5,97.5C 106.287,99.676 104.62,100.009 102.5,98.5C 100.677,99.7472 98.677,100.414 96.5,100.5C 96.0629,98.9256 95.0629,97.7589 93.5,97C 89.6887,97.0835 86.3554,96.2501 83.5,94.5C 85.5857,96.0234 87.2524,95.69 88.5,93.5C 92.5111,96.0685 96.5111,96.0685 100.5,93.5C 104.556,92.3703 108.556,91.0369 112.5,89.5C 113.713,89.7472 114.38,90.4138 114.5,91.5 Z"/></g>
<g><path style="opacity:1" fill="#d9aeb6" d="M 107.5,97.5 C 108.756,97.4614 109.756,97.9614 110.5,99C 109.167,100 109.167,101 110.5,102C 111.951,101.737 113.284,101.904 114.5,102.5C 112.234,103.314 109.9,103.814 107.5,104C 108.337,105.011 108.67,106.178 108.5,107.5C 109.833,107.5 111.167,107.5 112.5,107.5C 111.694,108.728 110.694,109.728 109.5,110.5C 106.971,107.902 103.971,106.402 100.5,106C 101.167,106.333 101.833,106.667 102.5,107C 101.307,108.095 99.9733,108.928 98.5,109.5C 97.8333,109.5 97.1667,109.5 96.5,109.5C 95.1667,109.5 93.8333,109.5 92.5,109.5C 92.6168,107.516 91.9501,105.85 90.5,104.5C 92.2903,102.684 94.2903,101.351 96.5,100.5C 98.677,100.414 100.677,99.7472 102.5,98.5C 104.62,100.009 106.287,99.676 107.5,97.5 Z"/></g>
<g><path style="opacity:1" fill="#db8f84" d="M 130.5,102.5 C 129.5,103.833 128.5,105.167 127.5,106.5C 127.167,106.5 126.833,106.5 126.5,106.5C 124.581,105.388 122.914,104.054 121.5,102.5C 122.234,101.292 122.567,99.9587 122.5,98.5C 122.34,96.8008 122.506,95.1341 123,93.5C 125.12,93.6261 127.286,93.9594 129.5,94.5C 130.393,97.0841 130.726,99.7508 130.5,102.5 Z"/></g>
<g><path style="opacity:1" fill="#dbdad7" d="M 136.5,90.5 C 136.833,90.5 137.167,90.5 137.5,90.5C 141.184,91.7278 144.85,91.7278 148.5,90.5C 144.361,91.9027 140.361,93.9027 136.5,96.5C 139.443,96.5341 142.443,96.8674 145.5,97.5C 142.658,98.0045 141.325,99.6711 141.5,102.5C 143.38,102.229 144.713,102.896 145.5,104.5C 143.928,105.687 142.261,106.687 140.5,107.5C 136.094,106.547 131.761,106.214 127.5,106.5C 128.5,105.167 129.5,103.833 130.5,102.5C 131.21,100.107 131.877,97.6073 132.5,95C 132.167,94.6667 131.833,94.3333 131.5,94C 133.881,93.7767 135.547,92.61 136.5,90.5 Z"/></g>
<g><path style="opacity:1" fill="#ddb6bd" d="M 118.5,90.5 C 119.167,90.5 119.833,90.5 120.5,90.5C 120.802,93.3725 121.469,96.0392 122.5,98.5C 122.567,99.9587 122.234,101.292 121.5,102.5C 120.448,102.351 119.448,102.517 118.5,103C 116.336,104.491 114.336,105.991 112.5,107.5C 111.167,107.5 109.833,107.5 108.5,107.5C 108.67,106.178 108.337,105.011 107.5,104C 109.9,103.814 112.234,103.314 114.5,102.5C 113.284,101.904 111.951,101.737 110.5,102C 109.167,101 109.167,100 110.5,99C 109.756,97.9614 108.756,97.4614 107.5,97.5C 105.295,97.1541 105.128,96.4874 107,95.5C 109.319,96.8713 111.819,97.5379 114.5,97.5C 114.617,95.5165 113.95,93.8498 112.5,92.5C 112.957,91.7025 113.624,91.3691 114.5,91.5C 115.959,91.5674 117.292,91.2341 118.5,90.5 Z"/></g>
<g><path style="opacity:1" fill="#d5a5a6" d="M 121.5,102.5 C 122.914,104.054 124.581,105.388 126.5,106.5C 125.045,108.134 123.378,109.468 121.5,110.5C 113.917,113.639 107.25,118.139 101.5,124C 98.7732,125.636 96.1066,125.802 93.5,124.5C 95.5891,124.143 97.5891,123.477 99.5,122.5C 99.2907,121.914 98.9574,121.414 98.5,121C 101.715,120.726 104.381,119.393 106.5,117C 102.085,117.653 97.7514,117.153 93.5,115.5C 92.8333,115.5 92.1667,115.5 91.5,115.5C 93.1815,113.992 95.1815,112.992 97.5,112.5C 100.105,113.592 102.938,114.259 106,114.5C 109.117,113.461 112.284,112.627 115.5,112C 113.414,111.685 111.414,111.185 109.5,110.5C 110.694,109.728 111.694,108.728 112.5,107.5C 114.336,105.991 116.336,104.491 118.5,103C 119.448,102.517 120.448,102.351 121.5,102.5 Z"/></g>
<g><path style="opacity:1" fill="#c37c7b" d="M 78.5,112.5 C 75.2244,111.878 73.8911,109.878 74.5,106.5C 75.0899,105.234 75.5899,103.901 76,102.5C 78.4675,101.896 80.4675,100.562 82,98.5C 81.7782,100.456 80.9448,102.29 79.5,104C 80.448,104.483 81.448,104.649 82.5,104.5C 82.9662,106.201 82.9662,107.701 82.5,109C 84.1667,109.333 85.8333,109.667 87.5,110C 84.1489,110.057 81.1489,110.891 78.5,112.5 Z"/></g>
<g><path style="opacity:1" fill="#cc9092" d="M 81.5,94.5 C 82.1667,94.5 82.8333,94.5 83.5,94.5C 86.3554,96.2501 89.6887,97.0835 93.5,97C 95.0629,97.7589 96.0629,98.9256 96.5,100.5C 94.2903,101.351 92.2903,102.684 90.5,104.5C 91.9501,105.85 92.6168,107.516 92.5,109.5C 93.8333,109.5 95.1667,109.5 96.5,109.5C 91.724,111.912 86.724,113.912 81.5,115.5C 80.8333,115.5 80.1667,115.5 79.5,115.5C 79.7373,114.209 79.404,113.209 78.5,112.5C 81.1489,110.891 84.1489,110.057 87.5,110C 85.8333,109.667 84.1667,109.333 82.5,109C 82.9662,107.701 82.9662,106.201 82.5,104.5C 81.448,104.649 80.448,104.483 79.5,104C 80.9448,102.29 81.7782,100.456 82,98.5C 80.4675,100.562 78.4675,101.896 76,102.5C 75.5899,103.901 75.0899,105.234 74.5,106.5C 73.9348,104.58 72.9348,102.913 71.5,101.5C 71.4431,100.391 71.1098,99.391 70.5,98.5C 70.5,97.8333 70.5,97.1667 70.5,96.5C 72.1439,96.2865 73.6439,96.6198 75,97.5C 77.6305,97.1408 79.7971,96.1408 81.5,94.5 Z"/></g>
<g><path style="opacity:1" fill="#ecc5c8" d="M 109.5,110.5 C 111.414,111.185 113.414,111.685 115.5,112C 112.284,112.627 109.117,113.461 106,114.5C 102.938,114.259 100.105,113.592 97.5,112.5C 97.5569,111.391 97.8902,110.391 98.5,109.5C 99.9733,108.928 101.307,108.095 102.5,107C 101.833,106.667 101.167,106.333 100.5,106C 103.971,106.402 106.971,107.902 109.5,110.5 Z"/></g>
<g><path style="opacity:1" fill="#c48b7e" d="M 55.5,105.5 C 56.6594,107.25 58.326,108.25 60.5,108.5C 62.9622,110.993 64.2956,113.66 64.5,116.5C 63.8333,116.5 63.1667,116.5 62.5,116.5C 61.2921,115.766 59.9587,115.433 58.5,115.5C 58.0023,112.674 56.6689,110.34 54.5,108.5C 54.6716,107.508 54.3382,106.842 53.5,106.5C 53.4088,104.302 54.0755,103.969 55.5,105.5 Z"/></g>
<g><path style="opacity:1" fill="#d0bfbc" d="M 71.5,101.5 C 72.9348,102.913 73.9348,104.58 74.5,106.5C 73.8911,109.878 75.2244,111.878 78.5,112.5C 79.404,113.209 79.7373,114.209 79.5,115.5C 77.6412,115.461 76.3079,116.294 75.5,118C 77.1193,118.236 78.1193,119.069 78.5,120.5C 75.2949,118.528 71.9615,117.861 68.5,118.5C 67.1667,117.833 65.8333,117.167 64.5,116.5C 64.2956,113.66 62.9622,110.993 60.5,108.5C 62.5825,109.588 64.7492,110.588 67,111.5C 72.0219,109.788 73.5219,106.454 71.5,101.5 Z"/></g>
<g><path style="opacity:1" fill="#d37f79" d="M 96.5,109.5 C 97.1667,109.5 97.8333,109.5 98.5,109.5C 97.8902,110.391 97.5569,111.391 97.5,112.5C 95.1815,112.992 93.1815,113.992 91.5,115.5C 88.1667,116.833 84.8333,116.833 81.5,115.5C 86.724,113.912 91.724,111.912 96.5,109.5 Z"/></g>
<g><path style="opacity:1" fill="#d0b1a5" d="M 54.5,108.5 C 56.6689,110.34 58.0023,112.674 58.5,115.5C 59.9587,115.433 61.2921,115.766 62.5,116.5C 62.5,116.833 62.5,117.167 62.5,117.5C 60.2646,117.795 58.2646,117.461 56.5,116.5C 56.0472,115.542 55.3805,114.708 54.5,114C 55.1383,112.293 55.1383,110.46 54.5,108.5 Z"/></g>
<g><path style="opacity:0.977" fill="#e7eff4" d="M 126.5,106.5 C 126.833,106.5 127.167,106.5 127.5,106.5C 131.761,106.214 136.094,106.547 140.5,107.5C 137.008,109.645 133.341,111.645 129.5,113.5C 130.706,115.516 130.706,117.516 129.5,119.5C 127.205,120.432 124.871,121.265 122.5,122C 121.663,123.011 121.33,124.178 121.5,125.5C 120.5,125.5 119.5,125.5 118.5,125.5C 117.417,125.461 116.417,125.127 115.5,124.5C 114.168,126.833 112.168,128.166 109.5,128.5C 109.993,126.194 110.326,123.861 110.5,121.5C 114.431,119.672 118.431,117.838 122.5,116C 123.844,113.856 123.51,112.023 121.5,110.5C 123.378,109.468 125.045,108.134 126.5,106.5 Z"/></g>
<g><path style="opacity:1" fill="#d06656" d="M 79.5,115.5 C 80.1667,115.5 80.8333,115.5 81.5,115.5C 84.8333,116.833 88.1667,116.833 91.5,115.5C 92.1667,115.5 92.8333,115.5 93.5,115.5C 92.6371,116.94 92.6371,118.274 93.5,119.5C 88.8804,120.493 84.2137,120.827 79.5,120.5C 79.1667,120.5 78.8333,120.5 78.5,120.5C 78.1193,119.069 77.1193,118.236 75.5,118C 76.3079,116.294 77.6412,115.461 79.5,115.5 Z"/></g>
<g><path style="opacity:1" fill="#dd908b" d="M 93.5,115.5 C 97.7514,117.153 102.085,117.653 106.5,117C 104.381,119.393 101.715,120.726 98.5,121C 98.9574,121.414 99.2907,121.914 99.5,122.5C 97.5891,123.477 95.5891,124.143 93.5,124.5C 88.2075,124.954 83.5409,123.62 79.5,120.5C 84.2137,120.827 88.8804,120.493 93.5,119.5C 92.6371,118.274 92.6371,116.94 93.5,115.5 Z"/></g>
<g><path style="opacity:1" fill="#dfe5ee" d="M 62.5,117.5 C 62.5,117.167 62.5,116.833 62.5,116.5C 63.1667,116.5 63.8333,116.5 64.5,116.5C 65.8333,117.167 67.1667,117.833 68.5,118.5C 70.1389,120.231 71.8056,122.065 73.5,124C 78.0197,125.373 82.5197,126.873 87,128.5C 88.2447,128.539 89.5781,128.205 91,127.5C 92.5553,128.848 94.3887,129.514 96.5,129.5C 100.726,128.053 104.726,126.053 108.5,123.5C 106.996,120.494 107.663,119.828 110.5,121.5C 110.326,123.861 109.993,126.194 109.5,128.5C 105.888,129.422 102.221,130.089 98.5,130.5C 96.5328,130.261 94.6995,130.594 93,131.5C 92.4806,130.484 91.6473,129.818 90.5,129.5C 87.8684,130.44 85.2017,130.607 82.5,130C 80.7756,129.552 80.109,128.718 80.5,127.5C 79.7065,127.931 78.8732,128.265 78,128.5C 71.8494,126.09 65.8494,123.423 60,120.5C 58.6739,120.755 57.6739,121.422 57,122.5C 56.5172,121.552 56.3505,120.552 56.5,119.5C 59.0795,118.772 61.7462,118.272 64.5,118C 63.9056,117.536 63.2389,117.369 62.5,117.5 Z"/></g>
<g><path style="opacity:1" fill="#d8dbe4" d="M 121.5,110.5 C 123.51,112.023 123.844,113.856 122.5,116C 118.431,117.838 114.431,119.672 110.5,121.5C 107.663,119.828 106.996,120.494 108.5,123.5C 104.726,126.053 100.726,128.053 96.5,129.5C 94.3887,129.514 92.5553,128.848 91,127.5C 89.5781,128.205 88.2447,128.539 87,128.5C 82.5197,126.873 78.0197,125.373 73.5,124C 71.8056,122.065 70.1389,120.231 68.5,118.5C 71.9615,117.861 75.2949,118.528 78.5,120.5C 78.8333,120.5 79.1667,120.5 79.5,120.5C 83.5409,123.62 88.2075,124.954 93.5,124.5C 96.1066,125.802 98.7732,125.636 101.5,124C 107.25,118.139 113.917,113.639 121.5,110.5 Z"/></g>
<g><path style="opacity:1" fill="#ebeff4" d="M 79.5,133.5 C 80.5417,134.791 81.7083,134.791 83,133.5C 83.677,135.689 84.8437,136.022 86.5,134.5C 87.7387,134.942 88.7387,135.609 89.5,136.5C 87.6336,137.014 85.8003,137.68 84,138.5C 79.0665,135.147 73.5665,133.647 67.5,134C 64.9334,131.604 62.6,129.104 60.5,126.5C 62.3111,125.178 64.3111,124.678 66.5,125C 67.8333,125.667 67.8333,126.333 66.5,127C 71.0211,126.878 75.0211,128.211 78.5,131C 76.1428,132.22 76.4761,133.053 79.5,133.5 Z"/></g>
<g><path style="opacity:1" fill="#e5eaf1" d="M 56.5,119.5 C 56.3505,120.552 56.5172,121.552 57,122.5C 57.6739,121.422 58.6739,120.755 60,120.5C 65.8494,123.423 71.8494,126.09 78,128.5C 78.8732,128.265 79.7065,127.931 80.5,127.5C 80.109,128.718 80.7756,129.552 82.5,130C 85.2017,130.607 87.8684,130.44 90.5,129.5C 91.6473,129.818 92.4806,130.484 93,131.5C 94.6995,130.594 96.5328,130.261 98.5,130.5C 93.8615,132.578 89.0282,132.912 84,131.5C 82.5295,132.267 81.0295,132.933 79.5,133.5C 76.4761,133.053 76.1428,132.22 78.5,131C 75.0211,128.211 71.0211,126.878 66.5,127C 67.8333,126.333 67.8333,125.667 66.5,125C 64.3111,124.678 62.3111,125.178 60.5,126.5C 57.7281,125.564 55.7281,123.73 54.5,121C 54.8361,119.97 55.5028,119.47 56.5,119.5 Z"/></g>
<g><path style="opacity:1" fill="#ebf0f4" d="M 118.5,125.5 C 116.24,128.007 114.24,130.84 112.5,134C 104.823,135.935 97.156,136.768 89.5,136.5C 88.7387,135.609 87.7387,134.942 86.5,134.5C 84.8437,136.022 83.677,135.689 83,133.5C 81.7083,134.791 80.5417,134.791 79.5,133.5C 81.0295,132.933 82.5295,132.267 84,131.5C 89.0282,132.912 93.8615,132.578 98.5,130.5C 102.221,130.089 105.888,129.422 109.5,128.5C 112.168,128.166 114.168,126.833 115.5,124.5C 116.417,125.127 117.417,125.461 118.5,125.5 Z"/></g>
<g><path style="opacity:0.659" fill="#bebefa" d="M 63.5,136.5 C 64.4959,136.414 65.3292,136.748 66,137.5C 66.413,140.232 67.0797,142.899 68,145.5C 69.8333,143.667 71.6667,141.833 73.5,140C 74.6001,139.568 75.2668,140.068 75.5,141.5C 74.9251,145.482 73.5917,149.149 71.5,152.5C 70.8153,150.219 70.6487,147.886 71,145.5C 69.7365,147.607 67.9032,148.607 65.5,148.5C 64.6059,141.944 63.6059,141.944 62.5,148.5C 62.1667,148.833 61.8333,149.167 61.5,149.5C 61.1667,148.833 60.8333,148.167 60.5,147.5C 61.3485,143.771 62.3485,140.104 63.5,136.5 Z"/></g>
<g><path style="opacity:0.609" fill="#bebefb" d="M 102.5,138.5 C 108.144,137.481 111.144,139.814 111.5,145.5C 108.679,145.539 106.012,146.205 103.5,147.5C 106.148,150.262 108.481,149.929 110.5,146.5C 111.347,149.866 109.847,151.866 106,152.5C 102.055,151.142 99.8883,148.309 99.5,144C 100.124,141.915 101.124,140.082 102.5,138.5 Z M 104.5,140.5 C 106.346,140.222 107.68,140.889 108.5,142.5C 106.696,143.768 104.696,144.435 102.5,144.5C 102.527,142.801 103.194,141.467 104.5,140.5 Z"/></g>
<g><path style="opacity:0.578" fill="#bfbffb" d="M 81.5,140.5 C 82.5,140.5 83.5,140.5 84.5,140.5C 84.5,142.167 84.5,143.833 84.5,145.5C 86.4672,145.261 88.3005,145.594 90,146.5C 90.4955,144.527 90.6621,142.527 90.5,140.5C 91.5,140.5 92.5,140.5 93.5,140.5C 93.6653,144.182 93.4986,147.848 93,151.5C 92.6924,152.308 92.1924,152.975 91.5,153.5C 90.5481,151.955 90.2148,150.288 90.5,148.5C 88.5,148.5 86.5,148.5 84.5,148.5C 84.5,150.167 84.5,151.833 84.5,153.5C 83.5,153.5 82.5,153.5 81.5,153.5C 81.5,149.167 81.5,144.833 81.5,140.5 Z"/></g>
</svg>
