<?xml version="1.0" encoding="UTF-8"?>
<!DOCTYPE svg PUBLIC "-//W3C//DTD SVG 1.1//EN" "http://www.w3.org/Graphics/SVG/1.1/DTD/svg11.dtd">
<svg xmlns="http://www.w3.org/2000/svg" version="1.1" width="175px" height="175px" style="shape-rendering:geometricPrecision; text-rendering:geometricPrecision; image-rendering:optimizeQuality; fill-rule:evenodd; clip-rule:evenodd" xmlns:xlink="http://www.w3.org/1999/xlink">
<g><path style="opacity:0.688" fill="#fcb8c0" d="M 86.5,20.5 C 93.436,22.7155 95.1027,27.0489 91.5,33.5C 85.4278,36.9791 81.7612,35.1458 80.5,28C 80.9278,24.087 82.9278,21.587 86.5,20.5 Z M 85.5,23.5 C 90.1522,24.1035 91.6522,26.7702 90,31.5C 86.2589,34.0455 84.0923,32.8788 83.5,28C 83.5186,26.167 84.1852,24.667 85.5,23.5 Z"/></g>
<g><path style="opacity:0.721" fill="#fcb8c0" d="M 100.5,22.5 C 101.5,22.5 102.5,22.5 103.5,22.5C 103.167,24.5 102.833,26.5 102.5,28.5C 104.5,28.8333 106.5,29.1667 108.5,29.5C 108.116,27.3352 108.783,25.6685 110.5,24.5C 110.833,25 111.167,25.5 111.5,26C 110.496,29.7006 109.496,33.3672 108.5,37C 107.4,37.4317 106.733,36.9317 106.5,35.5C 106.68,34.4461 107.013,33.4461 107.5,32.5C 105.892,31.6816 104.225,31.0149 102.5,30.5C 101.684,32.2873 100.684,33.9539 99.5,35.5C 99.1667,34.8333 98.8333,34.1667 98.5,33.5C 99.4263,29.8697 100.093,26.203 100.5,22.5 Z"/></g>
<g><path style="opacity:0.696" fill="#fdb8c0" d="M 71.5,22.5 C 72.4972,22.4701 73.1639,22.9701 73.5,24C 72.7636,26.1394 71.7636,28.1394 70.5,30C 72.9768,31.6427 75.3102,33.476 77.5,35.5C 76.635,36.5827 75.635,36.7494 74.5,36C 72.6951,35.028 71.0284,33.8613 69.5,32.5C 69.1667,34.5 68.8333,36.5 68.5,38.5C 66.2408,34.8612 64.5742,30.8612 63.5,26.5C 63.8076,25.6919 64.3076,25.0253 65,24.5C 66.1853,26.3772 67.1853,28.3772 68,30.5C 69.0764,27.7627 70.243,25.096 71.5,22.5 Z"/></g>
<g><path style="opacity:0.765" fill="#ced1ce" d="M 95.5,41.5 C 95.5,42.1667 95.1667,42.5 94.5,42.5C 90.186,43.2745 85.8526,43.9412 81.5,44.5C 79.5,45.1667 77.5,45.8333 75.5,46.5C 76.0577,45.2101 77.0577,44.3768 78.5,44C 84.0146,42.1096 89.6812,41.2763 95.5,41.5 Z"/></g>
<g><path style="opacity:1" fill="#afa799" d="M 95.5,41.5 C 99.8982,41.2941 104.232,41.6274 108.5,42.5C 108.918,43.2216 109.584,43.7216 110.5,44C 105.227,43.661 99.8934,43.4943 94.5,43.5C 94.5,43.1667 94.5,42.8333 94.5,42.5C 95.1667,42.5 95.5,42.1667 95.5,41.5 Z"/></g>
<g><path style="opacity:1" fill="#cca382" d="M 94.5,42.5 C 94.5,42.8333 94.5,43.1667 94.5,43.5C 94.5,43.8333 94.5,44.1667 94.5,44.5C 92.1933,44.9863 90.0266,44.9863 88,44.5C 87.51,45.7932 87.3433,47.1266 87.5,48.5C 83.7242,49.4066 81.0575,50.7399 79.5,52.5C 79.4606,51.4168 79.1272,50.4168 78.5,49.5C 79.325,48.6143 80.325,48.281 81.5,48.5C 81.5,47.1667 81.5,45.8333 81.5,44.5C 85.8526,43.9412 90.186,43.2745 94.5,42.5 Z"/></g>
<g><path style="opacity:1" fill="#c19587" d="M 99.5,47.5 C 99.5,47.8333 99.5,48.1667 99.5,48.5C 98.7784,48.9175 98.2784,49.5842 98,50.5C 97.6667,50.1667 97.3333,49.8333 97,49.5C 94.9419,50.2291 93.1086,51.2291 91.5,52.5C 90.5084,52.3284 89.8417,52.6618 89.5,53.5C 87.9139,54.4132 86.4139,54.4132 85,53.5C 84.0053,54.0659 83.172,54.7326 82.5,55.5C 81.0413,55.4326 79.7079,55.7659 78.5,56.5C 78.4326,55.0413 78.7659,53.7079 79.5,52.5C 81.0575,50.7399 83.7242,49.4066 87.5,48.5C 89.451,48.7733 90.951,48.1066 92,46.5C 94.3806,47.435 96.8806,47.7683 99.5,47.5 Z"/></g>
<g><path style="opacity:1" fill="#dfc0b3" d="M 94.5,44.5 C 94.3691,45.3764 94.7025,46.0431 95.5,46.5C 100.789,46.8823 106.122,46.8823 111.5,46.5C 111.325,48.6208 111.659,50.6208 112.5,52.5C 111.167,52.5 109.833,52.5 108.5,52.5C 105.402,52.5875 105.068,52.0875 107.5,51C 105.182,49.0073 102.516,47.8406 99.5,47.5C 96.8806,47.7683 94.3806,47.435 92,46.5C 90.951,48.1066 89.451,48.7733 87.5,48.5C 87.3433,47.1266 87.51,45.7932 88,44.5C 90.0266,44.9863 92.1933,44.9863 94.5,44.5 Z"/></g>
<g><path style="opacity:1" fill="#dcd2c6" d="M 108.5,42.5 C 111.542,42.7329 114.208,43.7329 116.5,45.5C 117.976,47.5 119.809,49.1666 122,50.5C 122.667,51.1667 122.667,51.8333 122,52.5C 118.953,52.9288 115.786,52.9288 112.5,52.5C 111.659,50.6208 111.325,48.6208 111.5,46.5C 106.122,46.8823 100.789,46.8823 95.5,46.5C 94.7025,46.0431 94.3691,45.3764 94.5,44.5C 94.5,44.1667 94.5,43.8333 94.5,43.5C 99.8934,43.4943 105.227,43.661 110.5,44C 109.584,43.7216 108.918,43.2216 108.5,42.5 Z"/></g>
<g><path style="opacity:1" fill="#e3e7df" d="M 59.5,52.5 C 57.9519,52.1788 57.2852,51.1788 57.5,49.5C 56.0222,49.238 54.6888,49.5713 53.5,50.5C 54.1667,50.8333 54.8333,51.1667 55.5,51.5C 53.1866,52.971 52.8533,54.8044 54.5,57C 54.0267,59.3046 52.6934,60.8046 50.5,61.5C 50.9227,59.2188 50.256,57.5521 48.5,56.5C 48.0766,55.7354 47.7432,54.9021 47.5,54C 48.752,51.0572 49.752,48.0572 50.5,45C 55.8714,44.6825 58.8714,47.1825 59.5,52.5 Z"/></g>
<g><path style="opacity:1" fill="#d7b198" d="M 81.5,44.5 C 81.5,45.8333 81.5,47.1667 81.5,48.5C 80.325,48.281 79.325,48.6143 78.5,49.5C 79.1272,50.4168 79.4606,51.4168 79.5,52.5C 78.7659,53.7079 78.4326,55.0413 78.5,56.5C 78.1667,57.5 77.5,58.1667 76.5,58.5C 75.7375,57.7321 74.7375,57.2321 73.5,57C 74.4061,55.3005 74.7394,53.4672 74.5,51.5C 73.5,51.5 72.5,51.5 71.5,51.5C 72.9361,50.5714 74.2695,49.4048 75.5,48C 74.9056,47.5357 74.2389,47.369 73.5,47.5C 73.8417,46.6618 74.5084,46.3284 75.5,46.5C 77.5,45.8333 79.5,45.1667 81.5,44.5 Z"/></g>
<g><path style="opacity:1" fill="#d99f97" d="M 99.5,48.5 C 99.5,48.1667 99.5,47.8333 99.5,47.5C 102.516,47.8406 105.182,49.0073 107.5,51C 105.068,52.0875 105.402,52.5875 108.5,52.5C 109.551,53.2223 110.218,54.2223 110.5,55.5C 108.579,54.6373 106.579,53.9707 104.5,53.5C 103.215,51.5484 101.549,49.8818 99.5,48.5 Z"/></g>
<g><path style="opacity:0.953" fill="#bab294" d="M 73.5,47.5 C 74.2389,47.369 74.9056,47.5357 75.5,48C 74.2695,49.4048 72.9361,50.5714 71.5,51.5C 70.5084,51.3284 69.8417,51.6618 69.5,52.5C 67.8577,53.803 66.1911,55.1363 64.5,56.5C 64.8333,55.1667 65.1667,53.8333 65.5,52.5C 65.3501,48.8388 66.8501,47.8388 70,49.5C 70.8159,48.1772 71.9826,47.5106 73.5,47.5 Z"/></g>
<g><path style="opacity:0.008" fill="#fefffe" d="M 45.5,52.5 C 46.525,52.8966 46.6917,53.5632 46,54.5C 45.5357,53.9056 45.369,53.2389 45.5,52.5 Z"/></g>
<g><path style="opacity:1" fill="#dfe3d8" d="M 59.5,52.5 C 60.6715,53.3446 62.0048,54.0113 63.5,54.5C 61.7448,55.2403 60.0782,55.5737 58.5,55.5C 57.6937,56.8675 56.6937,58.2008 55.5,59.5C 56.8532,60.5237 57.5198,61.857 57.5,63.5C 54.9902,63.0733 52.6568,62.4067 50.5,61.5C 52.6934,60.8046 54.0267,59.3046 54.5,57C 52.8533,54.8044 53.1866,52.971 55.5,51.5C 54.8333,51.1667 54.1667,50.8333 53.5,50.5C 54.6888,49.5713 56.0222,49.238 57.5,49.5C 57.2852,51.1788 57.9519,52.1788 59.5,52.5 Z"/></g>
<g><path style="opacity:1" fill="#e4ddc9" d="M 69.5,52.5 C 71.5492,52.7058 71.8825,53.5391 70.5,55C 72.8305,56.4875 73.1638,58.3209 71.5,60.5C 71.5299,61.4972 71.0299,62.1639 70,62.5C 68.6974,62.0217 67.5307,61.355 66.5,60.5C 65.3995,59.3951 64.7329,58.0618 64.5,56.5C 66.1911,55.1363 67.8577,53.803 69.5,52.5 Z"/></g>
<g><path style="opacity:1" fill="#715b5c" d="M 89.5,53.5 C 89.8417,52.6618 90.5084,52.3284 91.5,52.5C 94.3878,51.9898 96.7211,52.6565 98.5,54.5C 97.1158,56.7031 95.4491,58.7031 93.5,60.5C 93.44,59.9569 93.1067,59.6236 92.5,59.5C 91.7348,60.6119 90.7348,61.2786 89.5,61.5C 90.8069,60.1984 90.8069,58.865 89.5,57.5C 90.5622,56.2299 91.5622,55.0633 92.5,54C 91.552,53.5172 90.552,53.3505 89.5,53.5 Z"/></g>
<g><path style="opacity:1" fill="#ad6f6d" d="M 99.5,48.5 C 101.549,49.8818 103.215,51.5484 104.5,53.5C 106.311,57.8788 104.978,60.5455 100.5,61.5C 100.5,61.1667 100.5,60.8333 100.5,60.5C 102.17,59.129 102.836,57.629 102.5,56C 101.683,53.6275 100.35,53.1275 98.5,54.5C 96.7211,52.6565 94.3878,51.9898 91.5,52.5C 93.1086,51.2291 94.9419,50.2291 97,49.5C 97.3333,49.8333 97.6667,50.1667 98,50.5C 98.2784,49.5842 98.7784,48.9175 99.5,48.5 Z"/></g>
<g><path style="opacity:1" fill="#dfdcdf" d="M 116.5,45.5 C 122.235,47.5701 125.902,51.5701 127.5,57.5C 126.609,56.8902 125.609,56.5569 124.5,56.5C 122.844,55.8535 121.177,55.1869 119.5,54.5C 116.927,54.6861 116.26,55.6861 117.5,57.5C 117.5,58.8333 117.5,60.1667 117.5,61.5C 116.764,59.7706 115.43,58.7706 113.5,58.5C 112.694,57.2719 111.694,56.2719 110.5,55.5C 110.218,54.2223 109.551,53.2223 108.5,52.5C 109.833,52.5 111.167,52.5 112.5,52.5C 115.786,52.9288 118.953,52.9288 122,52.5C 122.667,51.8333 122.667,51.1667 122,50.5C 119.809,49.1666 117.976,47.5 116.5,45.5 Z"/></g>
<g><path style="opacity:1" fill="#e6dee1" d="M 117.5,57.5 C 122.22,57.2254 122.554,58.0588 118.5,60C 119.833,60.6667 119.833,61.3333 118.5,62C 119.449,62.6172 120.282,62.4506 121,61.5C 121.667,62.5 121.667,63.5 121,64.5C 119.869,63.3961 119.035,63.7295 118.5,65.5C 118.846,66.6956 119.346,66.6956 120,65.5C 121.039,66.2438 121.539,67.2438 121.5,68.5C 119.836,69.9488 119.002,71.9488 119,74.5C 118.768,73.2625 118.268,72.2625 117.5,71.5C 117.5,68.1667 117.5,64.8333 117.5,61.5C 117.5,60.1667 117.5,58.8333 117.5,57.5 Z"/></g>
<g><path style="opacity:1" fill="#c7c4a5" d="M 65.5,52.5 C 65.1667,53.8333 64.8333,55.1667 64.5,56.5C 64.7329,58.0618 65.3995,59.3951 66.5,60.5C 64.955,61.2297 64.1216,62.563 64,64.5C 63.2204,66.3869 63.3871,68.0536 64.5,69.5C 64.44,70.0431 64.1067,70.3764 63.5,70.5C 62.8302,68.7086 62.1635,67.0419 61.5,65.5C 61.2317,62.8806 61.565,60.3806 62.5,58C 60.9336,57.3918 59.6002,56.5585 58.5,55.5C 60.0782,55.5737 61.7448,55.2403 63.5,54.5C 63.8333,53.5 64.5,52.8333 65.5,52.5 Z"/></g>
<g><path style="opacity:1" fill="#5b5c59" d="M 82.5,55.5 C 84.1533,56.6045 85.82,56.7712 87.5,56C 86.8617,57.7067 86.8617,59.54 87.5,61.5C 83.7195,62.1463 80.0528,61.4796 76.5,59.5C 76.5,59.1667 76.5,58.8333 76.5,58.5C 77.5,58.1667 78.1667,57.5 78.5,56.5C 79.7079,55.7659 81.0413,55.4326 82.5,55.5 Z"/></g>
<g><path style="opacity:1" fill="#986766" d="M 100.5,60.5 C 99.8333,60.8333 99.1667,61.1667 98.5,61.5C 98.189,60.5222 97.5223,59.8555 96.5,59.5C 95.1448,62.8553 92.8114,65.1886 89.5,66.5C 90.2925,64.1147 91.6258,62.1147 93.5,60.5C 95.4491,58.7031 97.1158,56.7031 98.5,54.5C 100.35,53.1275 101.683,53.6275 102.5,56C 102.836,57.629 102.17,59.129 100.5,60.5 Z"/></g>
<g><path style="opacity:1" fill="#e8e3e6" d="M 124.5,56.5 C 124.5,56.8333 124.5,57.1667 124.5,57.5C 124.85,62.0361 124.183,66.3694 122.5,70.5C 121.662,70.1583 121.328,69.4916 121.5,68.5C 121.539,67.2438 121.039,66.2438 120,65.5C 119.346,66.6956 118.846,66.6956 118.5,65.5C 119.035,63.7295 119.869,63.3961 121,64.5C 121.667,63.5 121.667,62.5 121,61.5C 120.282,62.4506 119.449,62.6172 118.5,62C 119.833,61.3333 119.833,60.6667 118.5,60C 122.554,58.0588 122.22,57.2254 117.5,57.5C 116.26,55.6861 116.927,54.6861 119.5,54.5C 121.177,55.1869 122.844,55.8535 124.5,56.5 Z"/></g>
<g><path style="opacity:1" fill="#dfe2d3" d="M 58.5,55.5 C 59.6002,56.5585 60.9336,57.3918 62.5,58C 61.565,60.3806 61.2317,62.8806 61.5,65.5C 61.7845,67.4147 61.4511,69.0813 60.5,70.5C 59.5,68.5 58.5,66.5 57.5,64.5C 57.5,64.1667 57.5,63.8333 57.5,63.5C 57.5198,61.857 56.8532,60.5237 55.5,59.5C 56.6937,58.2008 57.6937,56.8675 58.5,55.5 Z"/></g>
<g><path style="opacity:1" fill="#ddc9b6" d="M 69.5,52.5 C 69.8417,51.6618 70.5084,51.3284 71.5,51.5C 72.5,51.5 73.5,51.5 74.5,51.5C 74.7394,53.4672 74.4061,55.3005 73.5,57C 74.7375,57.2321 75.7375,57.7321 76.5,58.5C 76.5,58.8333 76.5,59.1667 76.5,59.5C 75.2632,60.9649 74.2632,62.6316 73.5,64.5C 72.8333,63.1667 72.1667,61.8333 71.5,60.5C 73.1638,58.3209 72.8305,56.4875 70.5,55C 71.8825,53.5391 71.5492,52.7058 69.5,52.5 Z"/></g>
<g><path style="opacity:1" fill="#655a58" d="M 89.5,53.5 C 90.552,53.3505 91.552,53.5172 92.5,54C 91.5622,55.0633 90.5622,56.2299 89.5,57.5C 90.8069,58.865 90.8069,60.1984 89.5,61.5C 89.1667,62.5 88.5,63.1667 87.5,63.5C 86.8333,63.5 86.1667,63.5 85.5,63.5C 86.1667,62.8333 86.8333,62.1667 87.5,61.5C 86.8617,59.54 86.8617,57.7067 87.5,56C 85.82,56.7712 84.1533,56.6045 82.5,55.5C 83.172,54.7326 84.0053,54.0659 85,53.5C 86.4139,54.4132 87.9139,54.4132 89.5,53.5 Z"/></g>
<g><path style="opacity:0.005" fill="#fefffe" d="M 129.5,61.5 C 128.833,61.5 128.5,61.1667 128.5,60.5C 129.648,59.105 130.648,59.2716 131.5,61C 130.906,61.4643 130.239,61.631 129.5,61.5 Z"/></g>
<g><path style="opacity:1" fill="#d46c62" d="M 104.5,53.5 C 106.579,53.9707 108.579,54.6373 110.5,55.5C 111.694,56.2719 112.694,57.2719 113.5,58.5C 112.662,58.8417 112.328,59.5084 112.5,60.5C 111.744,63.0033 110.744,65.3366 109.5,67.5C 109.158,66.6618 108.492,66.3284 107.5,66.5C 105.721,64.6565 103.388,63.9898 100.5,64.5C 100.5,63.5 100.5,62.5 100.5,61.5C 104.978,60.5455 106.311,57.8788 104.5,53.5 Z"/></g>
<g><path style="opacity:1" fill="#6f6d6b" d="M 76.5,59.5 C 80.0528,61.4796 83.7195,62.1463 87.5,61.5C 86.8333,62.1667 86.1667,62.8333 85.5,63.5C 84.1917,64.2323 82.8584,65.0656 81.5,66C 84.2912,68.7774 83.6246,70.2774 79.5,70.5C 79.0618,70.5654 78.7284,70.3988 78.5,70C 79.1667,69.6667 79.8333,69.3333 80.5,69C 78.8089,67.5946 76.9755,66.4279 75,65.5C 74.6012,65.7284 74.4346,66.0618 74.5,66.5C 73.6618,66.1583 73.3284,65.4916 73.5,64.5C 74.2632,62.6316 75.2632,60.9649 76.5,59.5 Z"/></g>
<g><path style="opacity:1" fill="#d9ded3" d="M 48.5,56.5 C 50.256,57.5521 50.9227,59.2188 50.5,61.5C 52.6568,62.4067 54.9902,63.0733 57.5,63.5C 57.5,63.8333 57.5,64.1667 57.5,64.5C 55.2576,65.6481 52.9242,66.6481 50.5,67.5C 49.1854,69.1986 49.1854,70.8653 50.5,72.5C 49.8333,72.5 49.1667,72.5 48.5,72.5C 48.5,70.8333 48.5,69.1667 48.5,67.5C 48.5,63.8333 48.5,60.1667 48.5,56.5 Z"/></g>
<g><path style="opacity:1" fill="#a97e84" d="M 93.5,60.5 C 91.6258,62.1147 90.2925,64.1147 89.5,66.5C 89.6716,67.4916 89.3382,68.1583 88.5,68.5C 86.1534,67.3931 85.82,65.7264 87.5,63.5C 88.5,63.1667 89.1667,62.5 89.5,61.5C 90.7348,61.2786 91.7348,60.6119 92.5,59.5C 93.1067,59.6236 93.44,59.9569 93.5,60.5 Z"/></g>
<g><path style="opacity:0.929" fill="#bab8b6" d="M 124.5,57.5 C 124.5,57.1667 124.5,56.8333 124.5,56.5C 125.609,56.5569 126.609,56.8902 127.5,57.5C 128.11,58.391 128.443,59.391 128.5,60.5C 128.5,61.1667 128.833,61.5 129.5,61.5C 130.15,63.4352 130.483,65.4352 130.5,67.5C 130.5,69.8333 130.5,72.1667 130.5,74.5C 129.293,69.8011 127.96,65.1344 126.5,60.5C 126.573,58.9731 125.906,57.9731 124.5,57.5 Z"/></g>
<g><path style="opacity:1" fill="#d59b9d" d="M 113.5,58.5 C 115.43,58.7706 116.764,59.7706 117.5,61.5C 117.5,64.8333 117.5,68.1667 117.5,71.5C 117.5,72.8333 117.5,74.1667 117.5,75.5C 115.903,73.1522 114.903,70.4855 114.5,67.5C 113.464,65.6089 113.464,63.7755 114.5,62C 113.956,61.2828 113.289,60.7828 112.5,60.5C 112.328,59.5084 112.662,58.8417 113.5,58.5 Z"/></g>
<g><path style="opacity:1" fill="#e3d5cd" d="M 126.5,60.5 C 127.96,65.1344 129.293,69.8011 130.5,74.5C 130.5,74.8333 130.5,75.1667 130.5,75.5C 128.958,76.3007 127.292,76.634 125.5,76.5C 125.392,71.1301 125.725,65.7968 126.5,60.5 Z"/></g>
<g><path style="opacity:1" fill="#e2ddc4" d="M 66.5,60.5 C 67.0312,62.6237 68.3645,64.1237 70.5,65C 68.5376,68.3707 68.2043,71.8707 69.5,75.5C 70.552,75.3505 71.552,75.5172 72.5,76C 71.6921,77.7058 70.3588,78.5391 68.5,78.5C 67.4187,76.236 66.0854,74.0693 64.5,72C 65.7736,71.0228 65.7736,70.1894 64.5,69.5C 63.3871,68.0536 63.2204,66.3869 64,64.5C 64.1216,62.563 64.955,61.2297 66.5,60.5 Z"/></g>
<g><path style="opacity:1" fill="#d17f78" d="M 112.5,60.5 C 113.289,60.7828 113.956,61.2828 114.5,62C 113.464,63.7755 113.464,65.6089 114.5,67.5C 113.624,67.3691 112.957,67.7025 112.5,68.5C 113.348,70.4086 113.682,72.4086 113.5,74.5C 112.896,71.7823 111.563,69.449 109.5,67.5C 110.744,65.3366 111.744,63.0033 112.5,60.5 Z"/></g>
<g><path style="opacity:1" fill="#c9a291" d="M 98.5,61.5 C 97.5655,62.5676 97.2322,63.901 97.5,65.5C 97.5,66.8333 96.8333,67.5 95.5,67.5C 95.6309,66.6236 95.2975,65.9569 94.5,65.5C 93.3554,66.7757 93.3554,68.109 94.5,69.5C 93.2723,71.321 91.6056,72.321 89.5,72.5C 92.3382,70.6941 92.0048,69.6941 88.5,69.5C 88.5,69.1667 88.5,68.8333 88.5,68.5C 89.3382,68.1583 89.6716,67.4916 89.5,66.5C 92.8114,65.1886 95.1448,62.8553 96.5,59.5C 97.5223,59.8555 98.189,60.5222 98.5,61.5 Z"/></g>
<g><path style="opacity:1" fill="#54554d" d="M 79.5,70.5 C 77.1853,73.1888 75.1853,72.8555 73.5,69.5C 74.1098,68.609 74.4431,67.609 74.5,66.5C 74.4346,66.0618 74.6012,65.7284 75,65.5C 76.9755,66.4279 78.8089,67.5946 80.5,69C 79.8333,69.3333 79.1667,69.6667 78.5,70C 78.7284,70.3988 79.0618,70.5654 79.5,70.5 Z"/></g>
<g><path style="opacity:1" fill="#db816b" d="M 100.5,60.5 C 100.5,60.8333 100.5,61.1667 100.5,61.5C 100.5,62.5 100.5,63.5 100.5,64.5C 103.388,63.9898 105.721,64.6565 107.5,66.5C 107.062,66.4346 106.728,66.6012 106.5,67C 107.357,67.6891 108.023,68.5224 108.5,69.5C 106.668,70.0568 105.335,71.0568 104.5,72.5C 102.534,69.8676 100.201,67.5342 97.5,65.5C 97.2322,63.901 97.5655,62.5676 98.5,61.5C 99.1667,61.1667 99.8333,60.8333 100.5,60.5 Z"/></g>
<g><path style="opacity:1" fill="#e0e4da" d="M 57.5,64.5 C 58.5,66.5 59.5,68.5 60.5,70.5C 59.5318,72.6074 59.1984,74.9407 59.5,77.5C 56.3377,76.0121 53.3377,74.3455 50.5,72.5C 49.1854,70.8653 49.1854,69.1986 50.5,67.5C 52.9242,66.6481 55.2576,65.6481 57.5,64.5 Z"/></g>
<g><path style="opacity:1" fill="#e9e1e0" d="M 124.5,57.5 C 125.906,57.9731 126.573,58.9731 126.5,60.5C 125.725,65.7968 125.392,71.1301 125.5,76.5C 125.5,76.8333 125.5,77.1667 125.5,77.5C 123.707,75.5739 122.707,73.2406 122.5,70.5C 124.183,66.3694 124.85,62.0361 124.5,57.5 Z"/></g>
<g><path style="opacity:1" fill="#dad6bb" d="M 61.5,65.5 C 62.1635,67.0419 62.8302,68.7086 63.5,70.5C 64.1067,70.3764 64.44,70.0431 64.5,69.5C 65.7736,70.1894 65.7736,71.0228 64.5,72C 66.0854,74.0693 67.4187,76.236 68.5,78.5C 67.027,77.2599 65.3604,76.2599 63.5,75.5C 62.4104,76.3914 62.4104,77.3914 63.5,78.5C 63.0431,79.2975 62.3764,79.6309 61.5,79.5C 60.8333,79.1667 60.1667,78.8333 59.5,78.5C 59.5,78.1667 59.5,77.8333 59.5,77.5C 59.1984,74.9407 59.5318,72.6074 60.5,70.5C 61.4511,69.0813 61.7845,67.4147 61.5,65.5 Z"/></g>
<g><path style="opacity:1" fill="#9c7a64" d="M 95.5,67.5 C 95.5,68.1667 95.5,68.8333 95.5,69.5C 95.634,71.2915 95.3007,72.9582 94.5,74.5C 92.5,74.5 90.5,74.5 88.5,74.5C 88.3284,73.5084 88.6618,72.8417 89.5,72.5C 91.6056,72.321 93.2723,71.321 94.5,69.5C 93.3554,68.109 93.3554,66.7757 94.5,65.5C 95.2975,65.9569 95.6309,66.6236 95.5,67.5 Z"/></g>
<g><path style="opacity:1" fill="#d59264" d="M 97.5,65.5 C 100.201,67.5342 102.534,69.8676 104.5,72.5C 106.176,73.1834 106.843,74.5168 106.5,76.5C 103.09,76.3838 101.756,78.0504 102.5,81.5C 101.983,79.4905 101.316,78.1571 100.5,77.5C 100.167,77.5 99.8333,77.5 99.5,77.5C 99.5774,76.2502 100.244,75.4169 101.5,75C 100.227,72.2006 98.2267,70.3672 95.5,69.5C 95.5,68.8333 95.5,68.1667 95.5,67.5C 96.8333,67.5 97.5,66.8333 97.5,65.5 Z"/></g>
<g><path style="opacity:1" fill="#d9cfb7" d="M 66.5,60.5 C 67.5307,61.355 68.6974,62.0217 70,62.5C 71.0299,62.1639 71.5299,61.4972 71.5,60.5C 72.1667,61.8333 72.8333,63.1667 73.5,64.5C 73.3284,65.4916 73.6618,66.1583 74.5,66.5C 74.4431,67.609 74.1098,68.609 73.5,69.5C 71.7274,70.3143 71.2274,71.6476 72,73.5C 73.7297,75.4019 75.563,77.0686 77.5,78.5C 76.4415,79.6002 75.6082,80.9336 75,82.5C 74.7216,81.5842 74.2216,80.9175 73.5,80.5C 72.8333,79.1667 72.1667,79.1667 71.5,80.5C 70.8333,80.5 70.1667,80.5 69.5,80.5C 69.1667,79.8333 68.8333,79.1667 68.5,78.5C 70.3588,78.5391 71.6921,77.7058 72.5,76C 71.552,75.5172 70.552,75.3505 69.5,75.5C 68.2043,71.8707 68.5376,68.3707 70.5,65C 68.3645,64.1237 67.0312,62.6237 66.5,60.5 Z"/></g>
<g><path style="opacity:1" fill="#9c9697" d="M 88.5,69.5 C 92.0048,69.6941 92.3382,70.6941 89.5,72.5C 88.6618,72.8417 88.3284,73.5084 88.5,74.5C 85.1069,76.073 83.7736,78.7396 84.5,82.5C 82.7376,82.3573 81.0709,82.6906 79.5,83.5C 78.5481,81.9547 78.2148,80.288 78.5,78.5C 78.4142,77.5041 78.7476,76.6708 79.5,76C 81.0441,75.7104 82.3774,75.0437 83.5,74C 82.2888,73.1072 82.2888,72.2739 83.5,71.5C 85.1955,70.8256 86.8621,70.1589 88.5,69.5 Z"/></g>
<g><path style="opacity:1" fill="#e8c3c7" d="M 114.5,67.5 C 114.903,70.4855 115.903,73.1522 117.5,75.5C 117.567,76.9587 117.234,78.2921 116.5,79.5C 115.381,78.5153 114.381,76.8487 113.5,74.5C 113.682,72.4086 113.348,70.4086 112.5,68.5C 112.957,67.7025 113.624,67.3691 114.5,67.5 Z"/></g>
<g><path style="opacity:1" fill="#8b8383" d="M 85.5,63.5 C 86.1667,63.5 86.8333,63.5 87.5,63.5C 85.82,65.7264 86.1534,67.3931 88.5,68.5C 88.5,68.8333 88.5,69.1667 88.5,69.5C 86.8621,70.1589 85.1955,70.8256 83.5,71.5C 82.2888,72.2739 82.2888,73.1072 83.5,74C 82.3774,75.0437 81.0441,75.7104 79.5,76C 78.7476,76.6708 78.4142,77.5041 78.5,78.5C 78.1667,78.5 77.8333,78.5 77.5,78.5C 75.563,77.0686 73.7297,75.4019 72,73.5C 71.2274,71.6476 71.7274,70.3143 73.5,69.5C 75.1853,72.8555 77.1853,73.1888 79.5,70.5C 83.6246,70.2774 84.2912,68.7774 81.5,66C 82.8584,65.0656 84.1917,64.2323 85.5,63.5 Z"/></g>
<g><path style="opacity:1" fill="#d7b99e" d="M 95.5,69.5 C 98.2267,70.3672 100.227,72.2006 101.5,75C 100.244,75.4169 99.5774,76.2502 99.5,77.5C 99.5,78.1667 99.1667,78.5 98.5,78.5C 96.7263,77.6304 95.393,76.297 94.5,74.5C 95.3007,72.9582 95.634,71.2915 95.5,69.5 Z"/></g>
<g><path style="opacity:1" fill="#d68d6e" d="M 107.5,66.5 C 108.492,66.3284 109.158,66.6618 109.5,67.5C 111.563,69.449 112.896,71.7823 113.5,74.5C 113.5,75.8333 113.5,77.1667 113.5,78.5C 110.983,79.0225 108.65,78.3558 106.5,76.5C 106.843,74.5168 106.176,73.1834 104.5,72.5C 105.335,71.0568 106.668,70.0568 108.5,69.5C 108.023,68.5224 107.357,67.6891 106.5,67C 106.728,66.6012 107.062,66.4346 107.5,66.5 Z"/></g>
<g><path style="opacity:1" fill="#e1c2b6" d="M 121.5,68.5 C 121.328,69.4916 121.662,70.1583 122.5,70.5C 122.707,73.2406 123.707,75.5739 125.5,77.5C 124.766,78.7079 124.433,80.0413 124.5,81.5C 124.167,81.5 123.833,81.5 123.5,81.5C 123.539,80.2438 123.039,79.2438 122,78.5C 120.643,81.6919 119.143,84.6919 117.5,87.5C 116.813,84.6598 116.479,81.9931 116.5,79.5C 117.234,78.2921 117.567,76.9587 117.5,75.5C 117.5,74.1667 117.5,72.8333 117.5,71.5C 118.268,72.2625 118.768,73.2625 119,74.5C 119.002,71.9488 119.836,69.9488 121.5,68.5 Z"/></g>
<g><path style="opacity:1" fill="#dee4db" d="M 48.5,72.5 C 49.1667,72.5 49.8333,72.5 50.5,72.5C 53.3377,74.3455 56.3377,76.0121 59.5,77.5C 59.5,77.8333 59.5,78.1667 59.5,78.5C 59.3379,80.5273 59.5045,82.5273 60,84.5C 61.7198,85.3841 62.8865,86.7175 63.5,88.5C 62.2502,88.4226 61.4169,87.756 61,86.5C 60.586,86.9574 60.086,87.2907 59.5,87.5C 58.478,84.5589 57.6446,81.5589 57,78.5C 56.3292,79.2524 55.4959,79.5858 54.5,79.5C 54.1667,79.5 53.8333,79.5 53.5,79.5C 52.713,77.8958 51.3797,77.2291 49.5,77.5C 49.634,75.7085 49.3007,74.0418 48.5,72.5 Z"/></g>
<g><path style="opacity:1" fill="#e3dec4" d="M 68.5,78.5 C 68.8333,79.1667 69.1667,79.8333 69.5,80.5C 67.7868,81.6354 67.1201,83.302 67.5,85.5C 65.323,85.4139 63.323,84.7472 61.5,83.5C 60.7084,82.3002 60.7084,80.9669 61.5,79.5C 62.3764,79.6309 63.0431,79.2975 63.5,78.5C 62.4104,77.3914 62.4104,76.3914 63.5,75.5C 65.3604,76.2599 67.027,77.2599 68.5,78.5 Z"/></g>
<g><path style="opacity:1" fill="#dba88a" d="M 106.5,76.5 C 108.65,78.3558 110.983,79.0225 113.5,78.5C 113.5,80.1667 113.5,81.8333 113.5,83.5C 111.5,83.1667 109.5,82.8333 107.5,82.5C 106.571,81.0639 105.405,79.7305 104,78.5C 103.768,79.7375 103.268,80.7375 102.5,81.5C 101.756,78.0504 103.09,76.3838 106.5,76.5 Z"/></g>
<g><path style="opacity:1" fill="#eaedf0" d="M 99.5,77.5 C 99.8333,77.5 100.167,77.5 100.5,77.5C 100.5,80.5 100.5,83.5 100.5,86.5C 99.5,86.5 98.5,86.5 97.5,86.5C 97.2786,83.7212 97.612,81.0545 98.5,78.5C 99.1667,78.5 99.5,78.1667 99.5,77.5 Z"/></g>
<g><path style="opacity:1" fill="#d6afaa" d="M 130.5,75.5 C 130.663,77.8568 130.497,80.1902 130,82.5C 128.981,84.5018 128.148,86.5018 127.5,88.5C 127.5,87.5 127.5,86.5 127.5,85.5C 127.262,83.5956 126.262,82.2623 124.5,81.5C 124.433,80.0413 124.766,78.7079 125.5,77.5C 125.5,77.1667 125.5,76.8333 125.5,76.5C 127.292,76.634 128.958,76.3007 130.5,75.5 Z"/></g>
<g><path style="opacity:1" fill="#d7d7c6" d="M 88.5,74.5 C 90.5,74.5 92.5,74.5 94.5,74.5C 95.393,76.297 96.7263,77.6304 98.5,78.5C 97.612,81.0545 97.2786,83.7212 97.5,86.5C 98.5,86.5 99.5,86.5 100.5,86.5C 100.5,87.1667 100.5,87.8333 100.5,88.5C 98.7741,88.8146 97.1075,88.9813 95.5,89C 96.5897,86.721 96.2563,84.5543 94.5,82.5C 93.0603,83.9524 91.3936,84.9524 89.5,85.5C 88.8501,85.1961 88.1835,84.8627 87.5,84.5C 87.2635,85.2472 86.9302,86.0805 86.5,87C 84.7971,87.7453 83.1305,88.5786 81.5,89.5C 80.3279,89.0814 79.3279,88.4147 78.5,87.5C 77.6143,88.325 77.281,89.325 77.5,90.5C 75.6412,90.5391 74.3079,89.7058 73.5,88C 75.2112,86.8668 75.7112,85.3668 75,83.5C 74.7216,84.4158 74.2216,85.0825 73.5,85.5C 73.1778,83.5248 73.1778,81.8582 73.5,80.5C 74.2216,80.9175 74.7216,81.5842 75,82.5C 75.6082,80.9336 76.4415,79.6002 77.5,78.5C 77.8333,78.5 78.1667,78.5 78.5,78.5C 78.2148,80.288 78.5481,81.9547 79.5,83.5C 81.0709,82.6906 82.7376,82.3573 84.5,82.5C 83.7736,78.7396 85.1069,76.073 88.5,74.5 Z"/></g>
<g><path style="opacity:1" fill="#e7eff1" d="M 48.5,67.5 C 48.5,69.1667 48.5,70.8333 48.5,72.5C 49.3007,74.0418 49.634,75.7085 49.5,77.5C 51.3797,77.2291 52.713,77.8958 53.5,79.5C 52.448,79.3505 51.448,79.5172 50.5,80C 50.0574,81.5185 50.7241,82.6852 52.5,83.5C 51.91,84.7989 50.91,85.6322 49.5,86C 50.5719,87.2837 51.9052,87.6171 53.5,87C 52.6634,88.0113 52.33,89.1779 52.5,90.5C 51.5,90.5 50.5,90.5 49.5,90.5C 48.928,89.0267 48.0946,87.6934 47,86.5C 46.8195,88.4884 46.9862,90.4884 47.5,92.5C 45.1327,89.32 44.1327,85.6533 44.5,81.5C 44.3013,76.2797 45.6346,71.613 48.5,67.5 Z"/></g>
<g><path style="opacity:1" fill="#ca9887" d="M 113.5,74.5 C 114.381,76.8487 115.381,78.5153 116.5,79.5C 116.479,81.9931 116.813,84.6598 117.5,87.5C 119.143,84.6919 120.643,81.6919 122,78.5C 123.039,79.2438 123.539,80.2438 123.5,81.5C 121.912,83.1133 120.912,85.1133 120.5,87.5C 119.18,88.9418 117.514,89.6085 115.5,89.5C 115.737,88.209 115.404,87.209 114.5,86.5C 114.443,85.391 114.11,84.391 113.5,83.5C 113.5,81.8333 113.5,80.1667 113.5,78.5C 113.5,77.1667 113.5,75.8333 113.5,74.5 Z"/></g>
<g><path style="opacity:1" fill="#b8a67f" d="M 102.5,81.5 C 102.204,83.403 101.537,85.0697 100.5,86.5C 100.5,83.5 100.5,80.5 100.5,77.5C 101.316,78.1571 101.983,79.4905 102.5,81.5 Z"/></g>
<g><path style="opacity:1" fill="#e7bfbb" d="M 123.5,81.5 C 123.833,81.5 124.167,81.5 124.5,81.5C 126.262,82.2623 127.262,83.5956 127.5,85.5C 126.624,85.3691 125.957,85.7025 125.5,86.5C 124.985,88.2251 124.318,89.8917 123.5,91.5C 122.479,90.0986 121.479,88.7653 120.5,87.5C 120.912,85.1133 121.912,83.1133 123.5,81.5 Z"/></g>
<g><path style="opacity:1" fill="#cfc699" d="M 59.5,78.5 C 60.1667,78.8333 60.8333,79.1667 61.5,79.5C 60.7084,80.9669 60.7084,82.3002 61.5,83.5C 63.323,84.7472 65.323,85.4139 67.5,85.5C 67.1201,83.302 67.7868,81.6354 69.5,80.5C 70.1667,80.5 70.8333,80.5 71.5,80.5C 71.2501,82.9414 70.2501,84.9414 68.5,86.5C 67.1805,87.9418 65.5138,88.6085 63.5,88.5C 62.8865,86.7175 61.7198,85.3841 60,84.5C 59.5045,82.5273 59.3379,80.5273 59.5,78.5 Z"/></g>
<g><path style="opacity:1" fill="#deb097" d="M 107.5,82.5 C 109.5,82.8333 111.5,83.1667 113.5,83.5C 114.11,84.391 114.443,85.391 114.5,86.5C 113.182,88.751 111.516,90.751 109.5,92.5C 109.539,91.4168 109.873,90.4168 110.5,89.5C 109.364,89.0357 108.364,88.7024 107.5,88.5C 108.833,86.5 108.833,84.5 107.5,82.5 Z"/></g>
<g><path style="opacity:1" fill="#e2d8bd" d="M 107.5,82.5 C 108.833,84.5 108.833,86.5 107.5,88.5C 105.886,90.0746 103.886,90.7413 101.5,90.5C 99.3023,90.5912 98.9689,89.9245 100.5,88.5C 100.5,87.8333 100.5,87.1667 100.5,86.5C 101.537,85.0697 102.204,83.403 102.5,81.5C 103.268,80.7375 103.768,79.7375 104,78.5C 105.405,79.7305 106.571,81.0639 107.5,82.5 Z"/></g>
<g><path style="opacity:0.788" fill="#d2d5da" d="M 130.5,67.5 C 131.38,69.1368 132.046,70.9701 132.5,73C 131.753,77.461 131.253,81.961 131,86.5C 129.348,89.5081 127.848,92.5081 126.5,95.5C 126.5,94.5 126.5,93.5 126.5,92.5C 127.434,91.4324 127.768,90.099 127.5,88.5C 128.148,86.5018 128.981,84.5018 130,82.5C 130.497,80.1902 130.663,77.8568 130.5,75.5C 130.5,75.1667 130.5,74.8333 130.5,74.5C 130.5,72.1667 130.5,69.8333 130.5,67.5 Z"/></g>
<g><path style="opacity:1" fill="#e0e1d3" d="M 89.5,85.5 C 88.7101,86.7942 87.7101,87.9609 86.5,89C 87.624,89.2492 88.624,89.7492 89.5,90.5C 89.0302,91.463 88.3635,91.463 87.5,90.5C 83.7515,90.3066 80.4182,91.3066 77.5,93.5C 77.5,92.5 77.5,91.5 77.5,90.5C 77.281,89.325 77.6143,88.325 78.5,87.5C 79.3279,88.4147 80.3279,89.0814 81.5,89.5C 83.1305,88.5786 84.7971,87.7453 86.5,87C 86.9302,86.0805 87.2635,85.2472 87.5,84.5C 88.1835,84.8627 88.8501,85.1961 89.5,85.5 Z"/></g>
<g><path style="opacity:1" fill="#d6bca9" d="M 77.5,90.5 C 77.5,91.5 77.5,92.5 77.5,93.5C 76.7629,95.3046 75.7629,96.9713 74.5,98.5C 75.6119,99.2652 76.2786,100.265 76.5,101.5C 75.596,102.209 75.2627,103.209 75.5,104.5C 75.1667,104.5 74.8333,104.5 74.5,104.5C 74.573,102.973 73.9063,101.973 72.5,101.5C 69.0617,96.062 69.3951,90.7287 73.5,85.5C 74.2216,85.0825 74.7216,84.4158 75,83.5C 75.7112,85.3668 75.2112,86.8668 73.5,88C 74.3079,89.7058 75.6412,90.5391 77.5,90.5 Z"/></g>
<g><path style="opacity:1" fill="#dfe0d1" d="M 100.5,88.5 C 98.9689,89.9245 99.3023,90.5912 101.5,90.5C 100.564,91.9744 99.2303,92.9744 97.5,93.5C 93.9175,95.3604 90.2508,97.0271 86.5,98.5C 84.2362,99.2186 81.9029,99.552 79.5,99.5C 78.2241,98.6136 78.2241,97.6136 79.5,96.5C 80.6199,97.8334 81.9532,98.3334 83.5,98C 82.4495,96.6152 81.1161,95.6152 79.5,95C 82.4194,93.7134 85.086,92.2134 87.5,90.5C 88.3635,91.463 89.0302,91.463 89.5,90.5C 88.624,89.7492 87.624,89.2492 86.5,89C 87.7101,87.9609 88.7101,86.7942 89.5,85.5C 91.3936,84.9524 93.0603,83.9524 94.5,82.5C 96.2563,84.5543 96.5897,86.721 95.5,89C 97.1075,88.9813 98.7741,88.8146 100.5,88.5 Z"/></g>
<g><path style="opacity:1" fill="#c68970" d="M 114.5,86.5 C 115.404,87.209 115.737,88.209 115.5,89.5C 113.222,91.1112 111.222,93.1112 109.5,95.5C 108.833,94.8333 108.167,94.1667 107.5,93.5C 108.167,93.1667 108.833,92.8333 109.5,92.5C 111.516,90.751 113.182,88.751 114.5,86.5 Z"/></g>
<g><path style="opacity:1" fill="#dfe8ea" d="M 53.5,79.5 C 53.8333,79.5 54.1667,79.5 54.5,79.5C 55.2778,80.1556 55.9444,80.9889 56.5,82C 55.3845,83.2349 55.3845,84.4016 56.5,85.5C 55.6872,86.8139 54.6872,87.9805 53.5,89C 54.448,89.4828 55.448,89.6495 56.5,89.5C 56.0391,93.1481 55.7058,96.4814 55.5,99.5C 53.3875,98.5604 51.3875,97.3937 49.5,96C 50.448,95.5172 51.448,95.3505 52.5,95.5C 52.5,94.1667 52.5,92.8333 52.5,91.5C 51.209,91.7373 50.209,91.404 49.5,90.5C 50.5,90.5 51.5,90.5 52.5,90.5C 52.33,89.1779 52.6634,88.0113 53.5,87C 51.9052,87.6171 50.5719,87.2837 49.5,86C 50.91,85.6322 51.91,84.7989 52.5,83.5C 50.7241,82.6852 50.0574,81.5185 50.5,80C 51.448,79.5172 52.448,79.3505 53.5,79.5 Z"/></g>
<g><path style="opacity:1" fill="#e2baa0" d="M 107.5,88.5 C 108.364,88.7024 109.364,89.0357 110.5,89.5C 109.873,90.4168 109.539,91.4168 109.5,92.5C 108.833,92.8333 108.167,93.1667 107.5,93.5C 104.135,92.512 101.468,93.512 99.5,96.5C 99.2178,95.2223 98.5511,94.2223 97.5,93.5C 99.2303,92.9744 100.564,91.9744 101.5,90.5C 103.886,90.7413 105.886,90.0746 107.5,88.5 Z"/></g>
<g><path style="opacity:1" fill="#deafab" d="M 127.5,85.5 C 127.5,86.5 127.5,87.5 127.5,88.5C 127.768,90.099 127.434,91.4324 126.5,92.5C 125.833,93.1667 125.167,93.8333 124.5,94.5C 124.631,93.7611 124.464,93.0944 124,92.5C 122.362,93.5273 120.529,95.0273 118.5,97C 119.706,98.0177 119.373,98.5177 117.5,98.5C 116.353,98.1822 115.519,97.5156 115,96.5C 114.601,96.7284 114.435,97.0618 114.5,97.5C 113.5,98.1667 112.5,98.8333 111.5,99.5C 110.833,98.8333 110.167,98.1667 109.5,97.5C 109.5,96.8333 109.5,96.1667 109.5,95.5C 111.222,93.1112 113.222,91.1112 115.5,89.5C 117.514,89.6085 119.18,88.9418 120.5,87.5C 121.479,88.7653 122.479,90.0986 123.5,91.5C 124.318,89.8917 124.985,88.2251 125.5,86.5C 125.957,85.7025 126.624,85.3691 127.5,85.5 Z"/></g>
<g><path style="opacity:1" fill="#dad8c9" d="M 87.5,90.5 C 85.086,92.2134 82.4194,93.7134 79.5,95C 81.1161,95.6152 82.4495,96.6152 83.5,98C 81.9532,98.3334 80.6199,97.8334 79.5,96.5C 78.2241,97.6136 78.2241,98.6136 79.5,99.5C 79.0679,100.71 78.4013,101.71 77.5,102.5C 77.5,101.833 77.1667,101.5 76.5,101.5C 76.2786,100.265 75.6119,99.2652 74.5,98.5C 75.7629,96.9713 76.7629,95.3046 77.5,93.5C 80.4182,91.3066 83.7515,90.3066 87.5,90.5 Z"/></g>
<g><path style="opacity:1" fill="#deb190" d="M 107.5,93.5 C 108.167,94.1667 108.833,94.8333 109.5,95.5C 106.625,96.1687 104.625,97.502 103.5,99.5C 103.331,98.6034 102.998,97.6034 102.5,96.5C 100.998,97.0831 99.6651,97.9164 98.5,99C 99.4491,99.6172 100.282,99.4506 101,98.5C 101.49,99.7932 101.657,101.127 101.5,102.5C 100.599,104.727 98.9328,105.727 96.5,105.5C 97.4293,104.685 98.4293,103.852 99.5,103C 99.5758,99.9992 98.4091,99.8325 96,102.5C 95.2496,101.874 94.4162,101.374 93.5,101C 95.1193,100.764 96.1193,99.9311 96.5,98.5C 96.8212,96.9519 97.8212,96.2852 99.5,96.5C 101.468,93.512 104.135,92.512 107.5,93.5 Z"/></g>
<g><path style="opacity:1" fill="#e0e6e5" d="M 63.5,88.5 C 65.5138,88.6085 67.1805,87.9418 68.5,86.5C 69.7994,88.1534 69.4661,89.6534 67.5,91C 68.6843,92.1455 68.6843,93.3121 67.5,94.5C 66.7777,93.4489 65.7777,92.7822 64.5,92.5C 63.2794,91.9717 62.1127,91.305 61,90.5C 60.5172,91.448 60.3505,92.448 60.5,93.5C 59.5,93.5 58.5,93.5 57.5,93.5C 57.3601,95.1238 58.0267,96.2904 59.5,97C 57.9632,98.1096 57.2965,99.6096 57.5,101.5C 57.1583,102.338 56.4916,102.672 55.5,102.5C 55.5,101.833 55.5,101.167 55.5,100.5C 55.5,100.167 55.5,99.8333 55.5,99.5C 55.7058,96.4814 56.0391,93.1481 56.5,89.5C 55.448,89.6495 54.448,89.4828 53.5,89C 54.6872,87.9805 55.6872,86.8139 56.5,85.5C 55.3845,84.4016 55.3845,83.2349 56.5,82C 55.9444,80.9889 55.2778,80.1556 54.5,79.5C 55.4959,79.5858 56.3292,79.2524 57,78.5C 57.6446,81.5589 58.478,84.5589 59.5,87.5C 60.086,87.2907 60.586,86.9574 61,86.5C 61.4169,87.756 62.2502,88.4226 63.5,88.5 Z"/></g>
<g><path style="opacity:1" fill="#d5beb3" d="M 64.5,92.5 C 65.7777,92.7822 66.7777,93.4489 67.5,94.5C 67.5,95.5 67.5,96.5 67.5,97.5C 66.8344,98.9122 66.5011,100.245 66.5,101.5C 66.1667,101.5 65.8333,101.5 65.5,101.5C 65.573,99.9731 64.9063,98.9731 63.5,98.5C 62.1919,96.3619 62.5252,94.3619 64.5,92.5 Z"/></g>
<g><path style="opacity:1" fill="#c4b1b3" d="M 126.5,92.5 C 126.5,93.5 126.5,94.5 126.5,95.5C 125.069,98.7009 123.403,101.701 121.5,104.5C 120.5,104.5 119.5,104.5 118.5,104.5C 119.209,103.596 120.209,103.263 121.5,103.5C 121.633,100.113 122.633,97.1135 124.5,94.5C 125.167,93.8333 125.833,93.1667 126.5,92.5 Z"/></g>
<g><path style="opacity:1" fill="#dbded8" d="M 64.5,92.5 C 62.5252,94.3619 62.1919,96.3619 63.5,98.5C 63.6495,99.552 63.4828,100.552 63,101.5C 61.3745,101.146 59.5412,101.146 57.5,101.5C 57.2965,99.6096 57.9632,98.1096 59.5,97C 58.0267,96.2904 57.3601,95.1238 57.5,93.5C 58.5,93.5 59.5,93.5 60.5,93.5C 60.3505,92.448 60.5172,91.448 61,90.5C 62.1127,91.305 63.2794,91.9717 64.5,92.5 Z"/></g>
<g><path style="opacity:1" fill="#e3d7d6" d="M 73.5,80.5 C 73.1778,81.8582 73.1778,83.5248 73.5,85.5C 69.3951,90.7287 69.0617,96.062 72.5,101.5C 70.0194,101.226 68.3527,99.8927 67.5,97.5C 67.5,96.5 67.5,95.5 67.5,94.5C 68.6843,93.3121 68.6843,92.1455 67.5,91C 69.4661,89.6534 69.7994,88.1534 68.5,86.5C 70.2501,84.9414 71.2501,82.9414 71.5,80.5C 72.1667,79.1667 72.8333,79.1667 73.5,80.5 Z"/></g>
<g><path style="opacity:1" fill="#e5edf1" d="M 49.5,90.5 C 50.209,91.404 51.209,91.7373 52.5,91.5C 52.5,92.8333 52.5,94.1667 52.5,95.5C 51.448,95.3505 50.448,95.5172 49.5,96C 51.3875,97.3937 53.3875,98.5604 55.5,99.5C 55.5,99.8333 55.5,100.167 55.5,100.5C 54.8501,100.804 54.1835,101.137 53.5,101.5C 52.3044,101.154 52.3044,100.654 53.5,100C 52.175,100.148 51.0084,99.9817 50,99.5C 49.2917,100.381 48.4584,101.047 47.5,101.5C 48.0759,98.607 48.0759,95.607 47.5,92.5C 46.9862,90.4884 46.8195,88.4884 47,86.5C 48.0946,87.6934 48.928,89.0267 49.5,90.5 Z"/></g>
<g><path style="opacity:1" fill="#e5c8a9" d="M 97.5,93.5 C 98.5511,94.2223 99.2178,95.2223 99.5,96.5C 97.8212,96.2852 96.8212,96.9519 96.5,98.5C 94.1417,98.2525 92.1417,98.9192 90.5,100.5C 88.6203,100.771 87.287,100.104 86.5,98.5C 90.2508,97.0271 93.9175,95.3604 97.5,93.5 Z"/></g>
<g><path style="opacity:1" fill="#cb9171" d="M 109.5,95.5 C 109.5,96.1667 109.5,96.8333 109.5,97.5C 106.816,99.1933 104.149,100.86 101.5,102.5C 101.657,101.127 101.49,99.7932 101,98.5C 100.282,99.4506 99.4491,99.6172 98.5,99C 99.6651,97.9164 100.998,97.0831 102.5,96.5C 102.998,97.6034 103.331,98.6034 103.5,99.5C 104.625,97.502 106.625,96.1687 109.5,95.5 Z"/></g>
<g><path style="opacity:1" fill="#d99691" d="M 124.5,94.5 C 122.633,97.1135 121.633,100.113 121.5,103.5C 120.209,103.263 119.209,103.596 118.5,104.5C 117.833,104.5 117.5,104.833 117.5,105.5C 117.167,105.5 116.833,105.5 116.5,105.5C 116.137,103.089 117.137,101.589 119.5,101C 118.216,100.316 117.049,100.483 116,101.5C 115.209,100.255 114.709,98.9217 114.5,97.5C 114.435,97.0618 114.601,96.7284 115,96.5C 115.519,97.5156 116.353,98.1822 117.5,98.5C 119.373,98.5177 119.706,98.0177 118.5,97C 120.529,95.0273 122.362,93.5273 124,92.5C 124.464,93.0944 124.631,93.7611 124.5,94.5 Z"/></g>
<g><path style="opacity:1" fill="#dcdfd7" d="M 63.5,98.5 C 64.9063,98.9731 65.573,99.9731 65.5,101.5C 64.7451,104.053 64.0784,106.72 63.5,109.5C 62.7784,109.918 62.2784,110.584 62,111.5C 61.1932,107.551 60.6932,107.551 60.5,111.5C 58.8212,111.285 57.8212,111.952 57.5,113.5C 56.8826,113.389 56.3826,113.056 56,112.5C 55.5017,109.183 55.335,105.85 55.5,102.5C 56.4916,102.672 57.1583,102.338 57.5,101.5C 59.5412,101.146 61.3745,101.146 63,101.5C 63.4828,100.552 63.6495,99.552 63.5,98.5 Z"/></g>
<g><path style="opacity:1" fill="#e3c69f" d="M 86.5,98.5 C 87.287,100.104 88.6203,100.771 90.5,100.5C 89.5,101.167 88.5,101.833 87.5,102.5C 85.4839,103.588 83.3172,104.588 81,105.5C 79.3576,105.022 78.1909,104.022 77.5,102.5C 78.4013,101.71 79.0679,100.71 79.5,99.5C 81.9029,99.552 84.2362,99.2186 86.5,98.5 Z"/></g>
<g><path style="opacity:1" fill="#e1c398" d="M 76.5,101.5 C 77.1667,101.5 77.5,101.833 77.5,102.5C 78.1909,104.022 79.3576,105.022 81,105.5C 83.3172,104.588 85.4839,103.588 87.5,102.5C 89.9424,102.354 90.6091,103.187 89.5,105C 90.2438,106.039 91.2438,106.539 92.5,106.5C 93.2389,106.369 93.9056,106.536 94.5,107C 92.845,109.498 90.5117,110.998 87.5,111.5C 86.8076,110.975 86.3076,110.308 86,109.5C 82.7554,114.618 80.0888,114.285 78,108.5C 77.6667,108.833 77.3333,109.167 77,109.5C 76.3923,107.846 75.8923,106.179 75.5,104.5C 75.2627,103.209 75.596,102.209 76.5,101.5 Z"/></g>
<g><path style="opacity:1" fill="#e3d7d7" d="M 67.5,97.5 C 68.3527,99.8927 70.0194,101.226 72.5,101.5C 73.9063,101.973 74.573,102.973 74.5,104.5C 74.5,105.5 74.5,106.5 74.5,107.5C 72.5842,109.116 71.0842,108.782 70,106.5C 69.2438,108.809 69.7438,110.809 71.5,112.5C 70.675,113.386 69.675,113.719 68.5,113.5C 66.7697,112.974 65.4363,111.974 64.5,110.5C 65.8221,110.33 66.9887,110.663 68,111.5C 68.1667,110.833 68.3333,110.167 68.5,109.5C 67.6221,106.87 66.9555,104.203 66.5,101.5C 66.5011,100.245 66.8344,98.9122 67.5,97.5 Z"/></g>
<g><path style="opacity:1" fill="#e3c29c" d="M 96.5,98.5 C 96.1193,99.9311 95.1193,100.764 93.5,101C 94.4162,101.374 95.2496,101.874 96,102.5C 98.4091,99.8325 99.5758,99.9992 99.5,103C 98.4293,103.852 97.4293,104.685 96.5,105.5C 94.901,105.232 93.5676,105.566 92.5,106.5C 91.2438,106.539 90.2438,106.039 89.5,105C 90.6091,103.187 89.9424,102.354 87.5,102.5C 88.5,101.833 89.5,101.167 90.5,100.5C 92.1417,98.9192 94.1417,98.2525 96.5,98.5 Z"/></g>
<g><path style="opacity:1" fill="#ebd0d1" d="M 109.5,97.5 C 110.167,98.1667 110.833,98.8333 111.5,99.5C 109.408,102.681 107.075,105.681 104.5,108.5C 102.183,109.82 100.183,111.486 98.5,113.5C 97.9856,111.302 96.9856,109.302 95.5,107.5C 95.8627,106.817 96.1961,106.15 96.5,105.5C 98.9328,105.727 100.599,104.727 101.5,102.5C 104.149,100.86 106.816,99.1933 109.5,97.5 Z"/></g>
<g><path style="opacity:1" fill="#de988f" d="M 114.5,97.5 C 114.709,98.9217 115.209,100.255 116,101.5C 117.049,100.483 118.216,100.316 119.5,101C 117.137,101.589 116.137,103.089 116.5,105.5C 114.819,107.008 112.819,108.008 110.5,108.5C 107.945,108.062 105.945,108.062 104.5,108.5C 107.075,105.681 109.408,102.681 111.5,99.5C 112.5,98.8333 113.5,98.1667 114.5,97.5 Z"/></g>
<g><path style="opacity:0.013" fill="#f7f3f3" d="M 118.5,104.5 C 119.5,104.5 120.5,104.5 121.5,104.5C 119.866,105.955 118.532,107.622 117.5,109.5C 117.5,108.167 117.5,106.833 117.5,105.5C 117.5,104.833 117.833,104.5 118.5,104.5 Z"/></g>
<g><path style="opacity:1" fill="#ebf0f6" d="M 65.5,101.5 C 65.8333,101.5 66.1667,101.5 66.5,101.5C 66.9555,104.203 67.6221,106.87 68.5,109.5C 68.3333,110.167 68.1667,110.833 68,111.5C 66.9887,110.663 65.8221,110.33 64.5,110.5C 63.8333,110.5 63.5,110.167 63.5,109.5C 64.0784,106.72 64.7451,104.053 65.5,101.5 Z"/></g>
<g><path style="opacity:1" fill="#e1eaf0" d="M 55.5,100.5 C 55.5,101.167 55.5,101.833 55.5,102.5C 55.335,105.85 55.5017,109.183 56,112.5C 56.3826,113.056 56.8826,113.389 57.5,113.5C 58.404,114.209 58.7373,115.209 58.5,116.5C 56.9557,116.297 55.6223,115.63 54.5,114.5C 52.3159,115.108 50.3159,114.441 48.5,112.5C 47.8933,112.624 47.56,112.957 47.5,113.5C 46.5028,113.53 45.8361,113.03 45.5,112C 44.9167,108.408 45.5834,104.908 47.5,101.5C 48.4584,101.047 49.2917,100.381 50,99.5C 51.0084,99.9817 52.175,100.148 53.5,100C 52.3044,100.654 52.3044,101.154 53.5,101.5C 54.1835,101.137 54.8501,100.804 55.5,100.5 Z"/></g>
<g><path style="opacity:1" fill="#bfa3a3" d="M 116.5,105.5 C 116.833,105.5 117.167,105.5 117.5,105.5C 117.5,106.833 117.5,108.167 117.5,109.5C 117.715,111.179 117.048,112.179 115.5,112.5C 114.5,112.833 113.833,113.5 113.5,114.5C 109.055,115.22 105.388,117.22 102.5,120.5C 101.833,120.5 101.167,120.5 100.5,120.5C 100.5,119.833 100.5,119.167 100.5,118.5C 103.455,116.06 106.789,114.227 110.5,113C 109.587,111.586 109.587,110.086 110.5,108.5C 112.819,108.008 114.819,107.008 116.5,105.5 Z"/></g>
<g><path style="opacity:0.95" fill="#e8f1f8" d="M 47.5,101.5 C 45.5834,104.908 44.9167,108.408 45.5,112C 45.8361,113.03 46.5028,113.53 47.5,113.5C 48.0989,118.679 49.4323,123.679 51.5,128.5C 49.6073,125.386 47.4407,122.386 45,119.5C 42.27,114.267 42.27,108.934 45,103.5C 45.4169,102.244 46.2502,101.577 47.5,101.5 Z"/></g>
<g><path style="opacity:1" fill="#d5b692" d="M 74.5,104.5 C 74.8333,104.5 75.1667,104.5 75.5,104.5C 75.8923,106.179 76.3923,107.846 77,109.5C 77.3333,109.167 77.6667,108.833 78,108.5C 80.0888,114.285 82.7554,114.618 86,109.5C 86.3076,110.308 86.8076,110.975 87.5,111.5C 90.5117,110.998 92.845,109.498 94.5,107C 93.9056,106.536 93.2389,106.369 92.5,106.5C 93.5676,105.566 94.901,105.232 96.5,105.5C 96.1961,106.15 95.8627,106.817 95.5,107.5C 96.9856,109.302 97.9856,111.302 98.5,113.5C 97.8333,113.833 97.1667,114.167 96.5,114.5C 95.5358,112.595 93.8691,111.595 91.5,111.5C 88.874,111.622 86.874,112.622 85.5,114.5C 84.2618,115.412 82.9285,115.579 81.5,115C 78.5858,112.974 76.2525,110.474 74.5,107.5C 74.5,106.5 74.5,105.5 74.5,104.5 Z"/></g>
<g><path style="opacity:0.01" fill="#e2fffe" d="M 115.5,112.5 C 116.66,114.203 115.993,114.869 113.5,114.5C 113.833,113.5 114.5,112.833 115.5,112.5 Z"/></g>
<g><path style="opacity:1" fill="#e8dddc" d="M 74.5,107.5 C 76.2525,110.474 78.5858,112.974 81.5,115C 82.9285,115.579 84.2618,115.412 85.5,114.5C 86.1331,114.88 86.7997,115.213 87.5,115.5C 84.5437,117.523 81.5437,118.523 78.5,118.5C 76.8333,118.5 75.1667,118.5 73.5,118.5C 71.6397,117.061 69.973,115.395 68.5,113.5C 69.675,113.719 70.675,113.386 71.5,112.5C 69.7438,110.809 69.2438,108.809 70,106.5C 71.0842,108.782 72.5842,109.116 74.5,107.5 Z"/></g>
<g><path style="opacity:1" fill="#e1b1a8" d="M 110.5,108.5 C 109.587,110.086 109.587,111.586 110.5,113C 106.789,114.227 103.455,116.06 100.5,118.5C 100.635,116.446 99.968,114.779 98.5,113.5C 100.183,111.486 102.183,109.82 104.5,108.5C 105.945,108.062 107.945,108.062 110.5,108.5 Z"/></g>
<g><path style="opacity:1" fill="#d6c0b5" d="M 63.5,109.5 C 63.5,110.167 63.8333,110.5 64.5,110.5C 65.4363,111.974 66.7697,112.974 68.5,113.5C 69.973,115.395 71.6397,117.061 73.5,118.5C 75.3713,119.797 77.3713,120.797 79.5,121.5C 75.6452,122.246 71.9785,121.579 68.5,119.5C 67.0859,117.189 65.2526,115.189 63,113.5C 62.805,114.819 62.9717,116.153 63.5,117.5C 61.8828,116.962 60.2161,116.629 58.5,116.5C 58.7373,115.209 58.404,114.209 57.5,113.5C 57.8212,111.952 58.8212,111.285 60.5,111.5C 60.6932,107.551 61.1932,107.551 62,111.5C 62.2784,110.584 62.7784,109.918 63.5,109.5 Z"/></g>
<g><path style="opacity:1" fill="#ebe8e9" d="M 96.5,114.5 C 91.9942,117.166 87.1609,119.166 82,120.5C 80.5405,120.192 79.3739,119.525 78.5,118.5C 81.5437,118.523 84.5437,117.523 87.5,115.5C 86.7997,115.213 86.1331,114.88 85.5,114.5C 86.874,112.622 88.874,111.622 91.5,111.5C 93.8691,111.595 95.5358,112.595 96.5,114.5 Z"/></g>
<g><path style="opacity:1" fill="#b5978c" d="M 68.5,119.5 C 67.1667,119.5 65.8333,119.5 64.5,119.5C 64.1667,118.833 63.8333,118.167 63.5,117.5C 62.9717,116.153 62.805,114.819 63,113.5C 65.2526,115.189 67.0859,117.189 68.5,119.5 Z"/></g>
<g><path style="opacity:1" fill="#c8d3df" d="M 58.5,116.5 C 60.2161,116.629 61.8828,116.962 63.5,117.5C 63.8333,118.167 64.1667,118.833 64.5,119.5C 62.2143,119.595 60.2143,120.262 58.5,121.5C 57.1797,120.47 55.6797,119.47 54,118.5C 53.5,120.333 52.3333,121.5 50.5,122C 51.3081,124.088 52.3081,126.088 53.5,128C 52.9056,128.464 52.2389,128.631 51.5,128.5C 49.4323,123.679 48.0989,118.679 47.5,113.5C 47.56,112.957 47.8933,112.624 48.5,112.5C 50.3159,114.441 52.3159,115.108 54.5,114.5C 55.6223,115.63 56.9557,116.297 58.5,116.5 Z"/></g>
<g><path style="opacity:1" fill="#ddb6ad" d="M 98.5,113.5 C 99.968,114.779 100.635,116.446 100.5,118.5C 99.7321,119.263 99.2321,120.263 99,121.5C 97.3182,121.193 95.6515,120.86 94,120.5C 90.5532,121.489 87.0532,122.156 83.5,122.5C 82.4324,121.566 81.099,121.232 79.5,121.5C 77.3713,120.797 75.3713,119.797 73.5,118.5C 75.1667,118.5 76.8333,118.5 78.5,118.5C 79.3739,119.525 80.5405,120.192 82,120.5C 87.1609,119.166 91.9942,117.166 96.5,114.5C 97.1667,114.167 97.8333,113.833 98.5,113.5 Z"/></g>
<g><path style="opacity:1" fill="#c9d5e4" d="M 64.5,119.5 C 65.8333,119.5 67.1667,119.5 68.5,119.5C 68.5,120.167 68.5,120.833 68.5,121.5C 67.325,121.281 66.325,121.614 65.5,122.5C 66.5,123.333 67.5,124.167 68.5,125C 66.8364,125.985 65.1697,127.151 63.5,128.5C 62.0488,126.441 60.0488,125.441 57.5,125.5C 58.2625,124.732 59.2625,124.232 60.5,124C 59.244,123.583 58.5774,122.75 58.5,121.5C 60.2143,120.262 62.2143,119.595 64.5,119.5 Z"/></g>
<g><path style="opacity:1" fill="#d0ddeb" d="M 58.5,121.5 C 58.5774,122.75 59.244,123.583 60.5,124C 59.2625,124.232 58.2625,124.732 57.5,125.5C 59.1443,126.924 60.6443,128.591 62,130.5C 62.3333,130.167 62.6667,129.833 63,129.5C 63.7202,131.056 64.8868,132.056 66.5,132.5C 67.9989,133.494 69.6656,133.494 71.5,132.5C 73.3469,133.573 75.3469,133.573 77.5,132.5C 67.857,138.561 59.1903,137.228 51.5,128.5C 52.2389,128.631 52.9056,128.464 53.5,128C 52.3081,126.088 51.3081,124.088 50.5,122C 52.3333,121.5 53.5,120.333 54,118.5C 55.6797,119.47 57.1797,120.47 58.5,121.5 Z"/></g>
<g><path style="opacity:1" fill="#c49c98" d="M 68.5,119.5 C 71.9785,121.579 75.6452,122.246 79.5,121.5C 81.099,121.232 82.4324,121.566 83.5,122.5C 84.2625,123.268 85.2625,123.768 86.5,124C 81.9279,124.326 77.5945,124.492 73.5,124.5C 71.326,124.25 69.6594,123.25 68.5,121.5C 68.5,120.833 68.5,120.167 68.5,119.5 Z"/></g>
<g><path style="opacity:0.047" fill="#eef0f1" d="M 100.5,120.5 C 101.167,120.5 101.833,120.5 102.5,120.5C 102.5,121.833 101.833,122.5 100.5,122.5C 100.5,121.833 100.5,121.167 100.5,120.5 Z"/></g>
<g><path style="opacity:0.004" fill="#eeecef" d="M 100.5,122.5 C 100.027,123.906 99.0269,124.573 97.5,124.5C 97.9731,123.094 98.9731,122.427 100.5,122.5 Z"/></g>
<g><path style="opacity:1" fill="#b58380" d="M 100.5,118.5 C 100.5,119.167 100.5,119.833 100.5,120.5C 100.5,121.167 100.5,121.833 100.5,122.5C 98.9731,122.427 97.9731,123.094 97.5,124.5C 96.2921,125.234 94.9587,125.567 93.5,125.5C 88.9902,125.886 84.6569,126.886 80.5,128.5C 79.7326,127.828 79.0659,126.995 78.5,126C 76.6183,125.802 74.9516,125.302 73.5,124.5C 77.5945,124.492 81.9279,124.326 86.5,124C 85.2625,123.768 84.2625,123.268 83.5,122.5C 87.0532,122.156 90.5532,121.489 94,120.5C 95.6515,120.86 97.3182,121.193 99,121.5C 99.2321,120.263 99.7321,119.263 100.5,118.5 Z"/></g>
<g><path style="opacity:1" fill="#d0dcec" d="M 68.5,121.5 C 69.6594,123.25 71.326,124.25 73.5,124.5C 74.9516,125.302 76.6183,125.802 78.5,126C 79.0659,126.995 79.7326,127.828 80.5,128.5C 80.5,129.833 79.8333,130.5 78.5,130.5C 78.631,129.761 78.4643,129.094 78,128.5C 74.5259,129.928 74.0259,129.428 76.5,127C 74.8988,126.727 73.3988,126.227 72,125.5C 71.3946,127.481 70.3946,127.815 69,126.5C 68.5439,127.744 69.0439,128.577 70.5,129C 68.4556,129.498 67.1223,130.665 66.5,132.5C 64.8868,132.056 63.7202,131.056 63,129.5C 62.6667,129.833 62.3333,130.167 62,130.5C 60.6443,128.591 59.1443,126.924 57.5,125.5C 60.0488,125.441 62.0488,126.441 63.5,128.5C 65.1697,127.151 66.8364,125.985 68.5,125C 67.5,124.167 66.5,123.333 65.5,122.5C 66.325,121.614 67.325,121.281 68.5,121.5 Z"/></g>
<g><path style="opacity:1" fill="#d1ddee" d="M 78.5,130.5 C 76.2986,131.566 73.9653,132.233 71.5,132.5C 69.6656,133.494 67.9989,133.494 66.5,132.5C 67.1223,130.665 68.4556,129.498 70.5,129C 69.0439,128.577 68.5439,127.744 69,126.5C 70.3946,127.815 71.3946,127.481 72,125.5C 73.3988,126.227 74.8988,126.727 76.5,127C 74.0259,129.428 74.5259,129.928 78,128.5C 78.4643,129.094 78.631,129.761 78.5,130.5 Z"/></g>
<g><path style="opacity:0.772" fill="#eca9b4" d="M 48.5,131.5 C 52.1916,133.344 55.5249,135.677 58.5,138.5C 56.7408,139.754 55.2408,139.421 54,137.5C 51.6667,140.5 49.3333,143.5 47,146.5C 46.5,146 46,145.5 45.5,145C 47.5,142 49.5,139 51.5,136C 48.7814,135.195 47.7814,133.695 48.5,131.5 Z"/></g>
<g><path style="opacity:0.263" fill="#ced4dd" d="M 93.5,125.5 C 90.2771,129.946 85.9438,132.613 80.5,133.5C 79.5832,132.873 78.5832,132.539 77.5,132.5C 75.3469,133.573 73.3469,133.573 71.5,132.5C 73.9653,132.233 76.2986,131.566 78.5,130.5C 79.8333,130.5 80.5,129.833 80.5,128.5C 84.6569,126.886 88.9902,125.886 93.5,125.5 Z"/></g>
<g><path style="opacity:0.789" fill="#eca8b3" d="M 118.5,143.5 C 118.045,140.797 117.378,138.13 116.5,135.5C 116.833,134.833 117.167,134.167 117.5,133.5C 119.555,137.328 121.221,141.328 122.5,145.5C 121.675,146.386 120.675,146.719 119.5,146.5C 119.737,145.209 119.404,144.209 118.5,143.5 Z"/></g>
<g><path style="opacity:0.779" fill="#eca9b4" d="M 118.5,143.5 C 118.703,145.39 118.037,146.89 116.5,148C 114.649,148.837 112.816,149.671 111,150.5C 108.454,146.388 107.287,142.055 107.5,137.5C 108.249,139.012 109.416,140.012 111,140.5C 114.551,138.886 117.051,139.886 118.5,143.5 Z M 110.5,142.5 C 112.167,142.5 113.833,142.5 115.5,142.5C 115.5,143.833 115.5,145.167 115.5,146.5C 111.918,148.161 110.252,146.827 110.5,142.5 Z"/></g>
<g><path style="opacity:0.752" fill="#eca9b5" d="M 62.5,139.5 C 69.0001,138.499 71.5001,141.165 70,147.5C 68.205,154.205 64.5383,155.205 59,150.5C 58.2571,148.559 58.4238,146.726 59.5,145C 62.2305,144.272 64.8971,144.438 67.5,145.5C 68.6069,143.231 67.7735,141.898 65,141.5C 62.0499,143.044 61.2166,142.378 62.5,139.5 Z M 61.5,146.5 C 63.6547,146.372 65.6547,146.872 67.5,148C 65.362,151.104 63.0287,151.27 60.5,148.5C 60.8627,147.817 61.1961,147.15 61.5,146.5 Z"/></g>
<g><path style="opacity:0.705" fill="#eca9b4" d="M 101.5,139.5 C 102.478,139.811 103.145,140.478 103.5,141.5C 101.955,142.452 100.288,142.785 98.5,142.5C 99.4603,146.195 99.4603,149.861 98.5,153.5C 96.9385,150.037 96.1051,146.37 96,142.5C 94.5064,143.747 93.0064,143.747 91.5,142.5C 91.7093,141.914 92.0426,141.414 92.5,141C 95.6946,140.819 98.6946,140.319 101.5,139.5 Z"/></g>
<g><path style="opacity:0.763" fill="#eca9b4" d="M 77.5,141.5 C 79.0358,143.025 80.0358,145.025 80.5,147.5C 81.941,146.135 83.2744,144.635 84.5,143C 85.635,142.251 86.635,142.417 87.5,143.5C 86.1667,145.167 84.8333,146.833 83.5,148.5C 84.5,150.5 85.5,152.5 86.5,154.5C 86,154.833 85.5,155.167 85,155.5C 83.3514,154.214 82.1847,152.547 81.5,150.5C 80.675,149.614 79.675,149.281 78.5,149.5C 78.7852,151.288 78.4519,152.955 77.5,154.5C 77.1667,153.167 76.8333,151.833 76.5,150.5C 76.9657,147.508 77.2991,144.508 77.5,141.5 Z"/></g>
</svg>
