<?xml version="1.0" encoding="UTF-8"?>
<!DOCTYPE svg PUBLIC "-//W3C//DTD SVG 1.1//EN" "http://www.w3.org/Graphics/SVG/1.1/DTD/svg11.dtd">
<svg xmlns="http://www.w3.org/2000/svg" version="1.1" width="175px" height="175px" style="shape-rendering:geometricPrecision; text-rendering:geometricPrecision; image-rendering:optimizeQuality; fill-rule:evenodd; clip-rule:evenodd" xmlns:xlink="http://www.w3.org/1999/xlink">
<g><path style="opacity:0.69" fill="#b3ebeb" d="M 88.5,14.5 C 89.4778,14.811 90.1445,15.4777 90.5,16.5C 88.2338,17.3142 85.9005,17.8142 83.5,18C 82.8333,18.6667 82.1667,19.3333 81.5,20C 89.4741,19.3091 92.3075,22.8091 90,30.5C 89.6258,31.4162 89.1258,32.2496 88.5,33C 79.1625,33.9675 75.9959,29.8008 79,20.5C 79.5831,18.9984 80.4164,17.6651 81.5,16.5C 83.9823,15.9329 86.3157,15.2663 88.5,14.5 Z M 82.5,22.5 C 88.6426,23.0262 89.9759,25.8595 86.5,31C 82.9305,32.1048 80.9305,30.7714 80.5,27C 81.2666,25.5295 81.9332,24.0295 82.5,22.5 Z"/></g>
<g><path style="opacity:0.702" fill="#b3ebea" d="M 62.5,22.5 C 68.4708,21.7995 71.8041,24.4662 72.5,30.5C 70.6908,36.7523 67.0241,38.0857 61.5,34.5C 58.6946,30.2075 59.0279,26.2075 62.5,22.5 Z M 64.5,24.5 C 69.2442,25.8522 70.5775,28.8522 68.5,33.5C 64.3824,34.752 62.0491,33.0853 61.5,28.5C 62.1716,26.8405 63.1716,25.5072 64.5,24.5 Z"/></g>
<g><path style="opacity:0.674" fill="#b3ebea" d="M 100.5,23.5 C 109.16,23.8136 111.326,27.8136 107,35.5C 101.673,38.7488 98.1731,37.4155 96.5,31.5C 96.7997,28.2335 98.1331,25.5669 100.5,23.5 Z M 101.5,25.5 C 106.213,25.4676 107.713,27.8009 106,32.5C 102.954,36.6372 100.454,36.3038 98.5,31.5C 99.1286,29.2592 100.129,27.2592 101.5,25.5 Z"/></g>
<g><path style="opacity:0.013" fill="#eeffee" d="M 90.5,42.5 C 89.1979,44.0276 87.5313,45.0276 85.5,45.5C 84.5,45.5 83.5,45.5 82.5,45.5C 78.9682,45.69 75.6348,45.0233 72.5,43.5C 72.3893,42.8826 72.056,42.3826 71.5,42C 72.8333,41.8333 74.1667,41.6667 75.5,41.5C 80.5978,41.5858 85.5978,41.9192 90.5,42.5 Z"/></g>
<g><path style="opacity:0.804" fill="#eaffec" d="M 99.5,45.5 C 97.1815,45.0075 95.1815,44.0075 93.5,42.5C 96.2039,41.535 98.2039,42.535 99.5,45.5 Z"/></g>
<g><path style="opacity:0.137" fill="#d3fed5" d="M 72.5,43.5 C 75.6348,45.0233 78.9682,45.69 82.5,45.5C 80.3926,46.4682 78.0593,46.8016 75.5,46.5C 73.5,45.8333 71.5,45.1667 69.5,44.5C 70.209,43.596 71.209,43.2627 72.5,43.5 Z"/></g>
<g><path style="opacity:1" fill="#d0fed0" d="M 90.5,42.5 C 91.5,42.5 92.5,42.5 93.5,42.5C 95.1815,44.0075 97.1815,45.0075 99.5,45.5C 99.5,46.1667 99.8333,46.5 100.5,46.5C 100.44,47.0431 100.107,47.3764 99.5,47.5C 94.9585,46.0155 90.2919,45.3488 85.5,45.5C 87.5313,45.0276 89.1979,44.0276 90.5,42.5 Z"/></g>
<g><path style="opacity:0.885" fill="#e3ffe7" d="M 132.5,51.5 C 129.254,51.8649 126.588,50.8649 124.5,48.5C 123.833,48.8333 123.167,49.1667 122.5,49.5C 122.511,48.5585 122.011,47.8919 121,47.5C 118.205,48.1852 115.372,48.6852 112.5,49C 112.833,49.3333 113.167,49.6667 113.5,50C 111.497,50.3345 109.83,51.1679 108.5,52.5C 108.575,49.7938 108.908,47.1272 109.5,44.5C 118.195,43.9585 125.862,46.2918 132.5,51.5 Z"/></g>
<g><path style="opacity:0.996" fill="#d9ffdc" d="M 132.5,51.5 C 134.54,53.1953 136.374,55.1953 138,57.5C 140.319,62.2871 142.152,67.2871 143.5,72.5C 142.115,71.4264 140.949,70.0931 140,68.5C 138.919,70.7671 137.419,70.9338 135.5,69C 136.167,67.6667 136.833,66.3333 137.5,65C 137.167,64.8333 136.833,64.6667 136.5,64.5C 134.902,65.4847 133.235,65.6514 131.5,65C 132.433,63.3923 131.767,62.559 129.5,62.5C 127.617,62.8757 126.117,63.8757 125,65.5C 125.932,63.1384 125.432,60.9718 123.5,59C 127.108,56.3821 127.108,55.5488 123.5,56.5C 122.483,53.972 121.316,53.972 120,56.5C 119.692,55.6919 119.192,55.0253 118.5,54.5C 116.585,54.3163 114.585,54.6497 112.5,55.5C 111.609,54.8902 110.609,54.5569 109.5,54.5C 108.833,53.8333 108.167,53.1667 107.5,52.5C 107.833,52.5 108.167,52.5 108.5,52.5C 109.83,51.1679 111.497,50.3345 113.5,50C 113.167,49.6667 112.833,49.3333 112.5,49C 115.372,48.6852 118.205,48.1852 121,47.5C 122.011,47.8919 122.511,48.5585 122.5,49.5C 123.167,49.1667 123.833,48.8333 124.5,48.5C 126.588,50.8649 129.254,51.8649 132.5,51.5 Z"/></g>
<g><path style="opacity:1" fill="#c7eaa9" d="M 82.5,45.5 C 83.5,45.5 84.5,45.5 85.5,45.5C 90.2919,45.3488 94.9585,46.0155 99.5,47.5C 100.107,47.3764 100.44,47.0431 100.5,46.5C 101.338,46.8417 101.672,47.5084 101.5,48.5C 100.89,49.391 100.557,50.391 100.5,51.5C 94.2473,47.7313 87.9139,47.7313 81.5,51.5C 81.1667,50.5 80.5,49.8333 79.5,49.5C 78.4097,48.1429 77.0764,47.1429 75.5,46.5C 78.0593,46.8016 80.3926,46.4682 82.5,45.5 Z"/></g>
<g><path style="opacity:1" fill="#d0fed3" d="M 143.5,72.5 C 143.53,73.4972 143.03,74.1639 142,74.5C 140.908,73.7039 139.741,73.0372 138.5,72.5C 136.61,73.6123 134.61,74.4456 132.5,75C 131.748,75.6708 131.414,76.5041 131.5,77.5C 129.527,74.8605 127.194,72.5272 124.5,70.5C 123.833,70.5 123.5,70.1667 123.5,69.5C 121.902,66.5637 119.902,63.8971 117.5,61.5C 116.311,60.5713 114.978,60.238 113.5,60.5C 113.634,58.7085 113.301,57.0418 112.5,55.5C 114.585,54.6497 116.585,54.3163 118.5,54.5C 119.192,55.0253 119.692,55.6919 120,56.5C 121.316,53.972 122.483,53.972 123.5,56.5C 127.108,55.5488 127.108,56.3821 123.5,59C 125.432,60.9718 125.932,63.1384 125,65.5C 126.117,63.8757 127.617,62.8757 129.5,62.5C 131.767,62.559 132.433,63.3923 131.5,65C 133.235,65.6514 134.902,65.4847 136.5,64.5C 136.833,64.6667 137.167,64.8333 137.5,65C 136.833,66.3333 136.167,67.6667 135.5,69C 137.419,70.9338 138.919,70.7671 140,68.5C 140.949,70.0931 142.115,71.4264 143.5,72.5 Z"/></g>
<g><path style="opacity:1" fill="#c7dea1" d="M 69.5,44.5 C 71.5,45.1667 73.5,45.8333 75.5,46.5C 71.9803,46.3955 68.8136,47.3955 66,49.5C 65.3123,50.3317 65.479,50.9984 66.5,51.5C 67.8844,48.8674 69.2178,48.8674 70.5,51.5C 66.9275,54.7809 62.9275,57.2809 58.5,59C 59.3081,59.3076 59.9747,59.8076 60.5,60.5C 59.8728,61.4168 59.5394,62.4168 59.5,63.5C 56.1403,65.5449 53.1403,67.8782 50.5,70.5C 50.5,70.8333 50.5,71.1667 50.5,71.5C 48.1667,73.1667 45.8333,74.8333 43.5,76.5C 41.0428,74.9991 41.0428,73.3324 43.5,71.5C 46.6599,69.5641 49.1599,66.8974 51,63.5C 53.5577,59.4523 55.391,55.119 56.5,50.5C 60.1443,47.1802 64.4776,45.1802 69.5,44.5 Z"/></g>
<g><path style="opacity:1" fill="#c8d695" d="M 75.5,46.5 C 77.0764,47.1429 78.4097,48.1429 79.5,49.5C 76.4135,49.4569 73.4135,49.2903 70.5,49C 73.7914,52.004 73.7914,54.6706 70.5,57C 71.7932,57.49 73.1266,57.6567 74.5,57.5C 73.1215,60.3681 70.7882,62.0348 67.5,62.5C 67.4464,61.3131 67.1131,59.9798 66.5,58.5C 63.8699,59.8037 61.5366,61.4704 59.5,63.5C 59.5394,62.4168 59.8728,61.4168 60.5,60.5C 59.9747,59.8076 59.3081,59.3076 58.5,59C 62.9275,57.2809 66.9275,54.7809 70.5,51.5C 69.2178,48.8674 67.8844,48.8674 66.5,51.5C 65.479,50.9984 65.3123,50.3317 66,49.5C 68.8136,47.3955 71.9803,46.3955 75.5,46.5 Z"/></g>
<g><path style="opacity:1" fill="#c3cd8e" d="M 79.5,49.5 C 80.5,49.8333 81.1667,50.5 81.5,51.5C 81.0629,53.0744 80.0629,54.2411 78.5,55C 79.6226,56.0437 80.9559,56.7104 82.5,57C 81.1667,58 79.8333,59 78.5,60C 80.0995,61.0658 81.0995,62.5658 81.5,64.5C 84.1588,65.1847 86.8255,64.8514 89.5,63.5C 90.1818,64.2427 90.8485,64.9094 91.5,65.5C 90.3588,66.339 89.0255,67.0057 87.5,67.5C 83.164,67.7452 78.8306,67.0785 74.5,65.5C 72.8653,66.0463 71.1986,66.3796 69.5,66.5C 70.7914,65.5272 70.7914,64.5272 69.5,63.5C 69.8333,63.1667 70.1667,62.8333 70.5,62.5C 71.1667,63.1667 71.8333,63.8333 72.5,64.5C 73.2432,63.0921 74.0766,61.7588 75,60.5C 75.7401,59.2506 75.5735,58.2506 74.5,57.5C 73.1266,57.6567 71.7932,57.49 70.5,57C 73.7914,54.6706 73.7914,52.004 70.5,49C 73.4135,49.2903 76.4135,49.4569 79.5,49.5 Z"/></g>
<g><path style="opacity:1" fill="#cce6b1" d="M 101.5,48.5 C 104.198,48.8449 106.198,50.1782 107.5,52.5C 108.167,53.1667 108.833,53.8333 109.5,54.5C 106.737,54.2562 104.571,52.9229 103,50.5C 104.199,54.7345 106.699,58.2345 110.5,61C 109.944,61.3826 109.611,61.8826 109.5,62.5C 110.059,65.8434 111.392,68.8434 113.5,71.5C 110.205,72.4015 106.872,72.4015 103.5,71.5C 103.665,67.8183 103.499,64.1516 103,60.5C 101.955,59.6266 101.122,58.6266 100.5,57.5C 101.833,55.5 101.833,53.5 100.5,51.5C 100.557,50.391 100.89,49.391 101.5,48.5 Z"/></g>
<g><path style="opacity:1" fill="#afbe8b" d="M 100.5,57.5 C 101.122,58.6266 101.955,59.6266 103,60.5C 103.499,64.1516 103.665,67.8183 103.5,71.5C 106.872,72.4015 110.205,72.4015 113.5,71.5C 111.392,68.8434 110.059,65.8434 109.5,62.5C 110.822,62.67 111.989,62.3366 113,61.5C 114.946,64.4202 117.113,67.0869 119.5,69.5C 118.542,69.9528 117.708,70.6195 117,71.5C 114.696,75.2671 113.196,79.2671 112.5,83.5C 112.631,82.6236 112.298,81.9569 111.5,81.5C 109.711,82.8772 107.711,83.8772 105.5,84.5C 104.304,84.1543 104.304,83.6543 105.5,83C 104.234,82.6905 103.067,82.1905 102,81.5C 100.509,83.6635 99.0092,85.6635 97.5,87.5C 98.2178,85.8632 98.3845,84.1966 98,82.5C 97.3292,83.2524 96.4959,83.5858 95.5,83.5C 95.1667,83.5 94.8333,83.5 94.5,83.5C 93.4324,82.5655 92.099,82.2322 90.5,82.5C 90.5,82.1667 90.5,81.8333 90.5,81.5C 91.1667,81.5 91.8333,81.5 92.5,81.5C 95.1667,81.5 97.8333,81.5 100.5,81.5C 100.5,80.5 100.5,79.5 100.5,78.5C 103.793,82.3992 106.126,82.0659 107.5,77.5C 106.257,75.8361 104.59,74.6695 102.5,74C 104.878,73.0255 104.544,72.3589 101.5,72C 101.665,70.8831 101.998,69.7164 102.5,68.5C 100.988,67.1375 99.488,66.8042 98,67.5C 97.4867,66.4734 96.9867,65.4734 96.5,64.5C 96.0702,62.38 96.0702,60.38 96.5,58.5C 97.7276,56.8241 99.0609,56.4908 100.5,57.5 Z"/></g>
<g><path style="opacity:1" fill="#c8d79c" d="M 100.5,51.5 C 101.833,53.5 101.833,55.5 100.5,57.5C 99.0609,56.4908 97.7276,56.8241 96.5,58.5C 96.0702,60.38 96.0702,62.38 96.5,64.5C 94.7085,64.366 93.0418,64.6993 91.5,65.5C 90.8485,64.9094 90.1818,64.2427 89.5,63.5C 86.8255,64.8514 84.1588,65.1847 81.5,64.5C 81.0995,62.5658 80.0995,61.0658 78.5,60C 79.8333,59 81.1667,58 82.5,57C 80.9559,56.7104 79.6226,56.0437 78.5,55C 80.0629,54.2411 81.0629,53.0744 81.5,51.5C 87.9139,47.7313 94.2473,47.7313 100.5,51.5 Z"/></g>
<g><path style="opacity:1" fill="#d0f5b7" d="M 86.5,50.5 C 87.8333,50.5 89.1667,50.5 90.5,50.5C 91.0138,52.5116 91.1805,54.5116 91,56.5C 89.414,57.376 87.914,58.376 86.5,59.5C 85.6663,57.1655 84.3329,55.1655 82.5,53.5C 83.9014,52.4793 85.2347,51.4793 86.5,50.5 Z"/></g>
<g><path style="opacity:1" fill="#b5d9a2" d="M 109.5,54.5 C 110.609,54.5569 111.609,54.8902 112.5,55.5C 113.301,57.0418 113.634,58.7085 113.5,60.5C 114.978,60.238 116.311,60.5713 117.5,61.5C 119.902,63.8971 121.902,66.5637 123.5,69.5C 122.167,69.5 120.833,69.5 119.5,69.5C 117.113,67.0869 114.946,64.4202 113,61.5C 111.989,62.3366 110.822,62.67 109.5,62.5C 109.611,61.8826 109.944,61.3826 110.5,61C 106.699,58.2345 104.199,54.7345 103,50.5C 104.571,52.9229 106.737,54.2562 109.5,54.5 Z"/></g>
<g><path style="opacity:1" fill="#c6d295" d="M 74.5,57.5 C 75.5735,58.2506 75.7401,59.2506 75,60.5C 74.0766,61.7588 73.2432,63.0921 72.5,64.5C 71.8333,63.8333 71.1667,63.1667 70.5,62.5C 70.1667,62.8333 69.8333,63.1667 69.5,63.5C 70.7914,64.5272 70.7914,65.5272 69.5,66.5C 65.6762,65.16 62.3429,65.9933 59.5,69C 56.5219,69.696 53.5219,70.196 50.5,70.5C 53.1403,67.8782 56.1403,65.5449 59.5,63.5C 61.5366,61.4704 63.8699,59.8037 66.5,58.5C 67.1131,59.9798 67.4464,61.3131 67.5,62.5C 70.7882,62.0348 73.1215,60.3681 74.5,57.5 Z"/></g>
<g><path style="opacity:1" fill="#cff9c9" d="M 56.5,50.5 C 55.391,55.119 53.5577,59.4523 51,63.5C 49.1599,66.8974 46.6599,69.5641 43.5,71.5C 42.391,71.5569 41.391,71.8902 40.5,72.5C 39.7611,72.631 39.0944,72.4643 38.5,72C 39.7736,71.0228 39.7736,70.1894 38.5,69.5C 40.0569,65.9335 42.0569,62.6002 44.5,59.5C 48.5681,56.4793 52.5681,53.4793 56.5,50.5 Z"/></g>
<g><path style="opacity:1" fill="#b8ba83" d="M 96.5,64.5 C 96.9867,65.4734 97.4867,66.4734 98,67.5C 99.488,66.8042 100.988,67.1375 102.5,68.5C 101.998,69.7164 101.665,70.8831 101.5,72C 104.544,72.3589 104.878,73.0255 102.5,74C 104.59,74.6695 106.257,75.8361 107.5,77.5C 101.657,74.1128 95.6571,71.1128 89.5,68.5C 84.2656,68.6211 78.9322,69.1211 73.5,70C 72.5842,70.2784 71.9175,70.7784 71.5,71.5C 67.591,74.4063 63.2577,76.4063 58.5,77.5C 55.4318,77.4533 52.4318,76.9533 49.5,76C 50.5,75.6667 51.5,75.3333 52.5,75C 51.1772,74.1841 50.5106,73.0174 50.5,71.5C 50.5,71.1667 50.5,70.8333 50.5,70.5C 53.5219,70.196 56.5219,69.696 59.5,69C 62.3429,65.9933 65.6762,65.16 69.5,66.5C 71.1986,66.3796 72.8653,66.0463 74.5,65.5C 78.8306,67.0785 83.164,67.7452 87.5,67.5C 89.0255,67.0057 90.3588,66.339 91.5,65.5C 93.0418,64.6993 94.7085,64.366 96.5,64.5 Z"/></g>
<g><path style="opacity:1" fill="#a4a471" d="M 107.5,77.5 C 106.126,82.0659 103.793,82.3992 100.5,78.5C 98.6161,77.6613 97.2828,76.328 96.5,74.5C 93.1126,72.8589 89.4459,72.5256 85.5,73.5C 84.1667,73.5 82.8333,73.5 81.5,73.5C 78.0678,73.2427 74.7345,72.576 71.5,71.5C 71.9175,70.7784 72.5842,70.2784 73.5,70C 78.9322,69.1211 84.2656,68.6211 89.5,68.5C 95.6571,71.1128 101.657,74.1128 107.5,77.5 Z"/></g>
<g><path style="opacity:0.022" fill="#f0ffee" d="M 28.5,70.5 C 28.3893,71.1174 28.056,71.6174 27.5,72C 24.854,72.4974 22.1873,72.6641 19.5,72.5C 19.7911,71.3509 20.6244,70.6842 22,70.5C 24.2074,71.7048 26.3741,71.7048 28.5,70.5 Z"/></g>
<g><path style="opacity:1" fill="#d6ffd7" d="M 143.5,72.5 C 146.639,76.2238 148.639,80.5572 149.5,85.5C 148.778,85.0825 148.278,84.4158 148,83.5C 147.303,85.9228 145.803,87.5895 143.5,88.5C 142.923,85.3551 140.923,83.8551 137.5,84C 136.406,82.2197 135.406,80.3864 134.5,78.5C 133.583,77.8728 132.583,77.5394 131.5,77.5C 131.414,76.5041 131.748,75.6708 132.5,75C 134.61,74.4456 136.61,73.6123 138.5,72.5C 139.741,73.0372 140.908,73.7039 142,74.5C 143.03,74.1639 143.53,73.4972 143.5,72.5 Z"/></g>
<g><path style="opacity:1" fill="#a8ddad" d="M 38.5,69.5 C 39.7736,70.1894 39.7736,71.0228 38.5,72C 39.0944,72.4643 39.7611,72.631 40.5,72.5C 40.0825,73.2216 39.4158,73.7216 38.5,74C 38.8333,74.3333 39.1667,74.6667 39.5,75C 38.0161,75.6622 36.6828,76.4955 35.5,77.5C 34.7375,76.7321 33.7375,76.2321 32.5,76C 33.4158,75.7216 34.0825,75.2216 34.5,74.5C 35.0431,74.44 35.3764,74.1067 35.5,73.5C 34.624,72.7492 33.624,72.2492 32.5,72C 33.4158,71.7216 34.0825,71.2216 34.5,70.5C 35.9621,71.4709 37.2954,71.1376 38.5,69.5 Z"/></g>
<g><path style="opacity:1" fill="#c9fdd3" d="M 34.5,74.5 C 34.0825,75.2216 33.4158,75.7216 32.5,76C 33.7375,76.2321 34.7375,76.7321 35.5,77.5C 34.5084,77.3284 33.8417,77.6618 33.5,78.5C 32.3646,80.2132 30.698,80.8799 28.5,80.5C 25.6874,80.7704 23.0208,81.2704 20.5,82C 17.93,79.0854 18.2634,76.4187 21.5,74C 26.0204,73.1864 30.3537,73.353 34.5,74.5 Z"/></g>
<g><path style="opacity:1" fill="#b5be89" d="M 50.5,71.5 C 50.5106,73.0174 51.1772,74.1841 52.5,75C 51.5,75.3333 50.5,75.6667 49.5,76C 52.4318,76.9533 55.4318,77.4533 58.5,77.5C 57.4324,78.4345 56.099,78.7678 54.5,78.5C 54.5,79.5 54.5,80.5 54.5,81.5C 56.8333,81.5 59.1667,81.5 61.5,81.5C 65.1667,82.1667 68.8333,82.8333 72.5,83.5C 72.5,83.8333 72.5,84.1667 72.5,84.5C 71.1667,84.5 69.8333,84.5 68.5,84.5C 64.607,84.2358 60.7736,83.5692 57,82.5C 56.1667,82.8333 55.3333,83.1667 54.5,83.5C 55.5896,84.6086 55.5896,85.6086 54.5,86.5C 52.5376,87.6345 50.5376,87.6345 48.5,86.5C 47.2867,86.7472 46.62,87.4138 46.5,88.5C 45.8333,88.5 45.5,88.1667 45.5,87.5C 44.2237,84.0888 45.557,82.0888 49.5,81.5C 47.9775,79.7175 45.9775,79.0508 43.5,79.5C 43.5,78.5 43.5,77.5 43.5,76.5C 45.8333,74.8333 48.1667,73.1667 50.5,71.5 Z"/></g>
<g><path style="opacity:1" fill="#94d1a0" d="M 71.5,71.5 C 74.7345,72.576 78.0678,73.2427 81.5,73.5C 81.5,75.5 81.5,77.5 81.5,79.5C 78.124,79.0484 74.7906,78.3818 71.5,77.5C 70.5713,78.6888 70.238,80.0222 70.5,81.5C 69.5,81.5 68.5,81.5 67.5,81.5C 67.4802,79.857 68.1468,78.5237 69.5,77.5C 67.6672,74.7096 66.6672,75.0429 66.5,78.5C 63.715,77.9162 62.0483,78.9162 61.5,81.5C 59.1667,81.5 56.8333,81.5 54.5,81.5C 54.5,80.5 54.5,79.5 54.5,78.5C 56.099,78.7678 57.4324,78.4345 58.5,77.5C 63.2577,76.4063 67.591,74.4063 71.5,71.5 Z"/></g>
<g><path style="opacity:1" fill="#a6daa6" d="M 124.5,70.5 C 127.194,72.5272 129.527,74.8605 131.5,77.5C 132.583,77.5394 133.583,77.8728 134.5,78.5C 135.406,80.3864 136.406,82.2197 137.5,84C 140.923,83.8551 142.923,85.3551 143.5,88.5C 141.283,89.3686 138.95,89.702 136.5,89.5C 136.396,91.7028 135.73,93.7028 134.5,95.5C 133.833,95.8333 133.167,96.1667 132.5,96.5C 133.749,94.3296 134.749,91.9963 135.5,89.5C 135.566,87.7336 134.732,86.7336 133,86.5C 131.726,87.5353 130.56,88.702 129.5,90C 129.966,91.2988 129.966,92.7988 129.5,94.5C 128.5,94.5 127.5,94.5 126.5,94.5C 126.784,96.4147 126.451,98.0813 125.5,99.5C 124.426,94.685 122.259,90.3517 119,86.5C 120.323,82.9603 119.489,79.9603 116.5,77.5C 117.795,75.6721 118.795,73.6721 119.5,71.5C 121.304,71.0143 122.971,70.681 124.5,70.5 Z"/></g>
<g><path style="opacity:1" fill="#9ce0b7" d="M 96.5,74.5 C 96.5674,75.9587 96.2341,77.2921 95.5,78.5C 91.1667,78.5 86.8333,78.5 82.5,78.5C 82.5,77.1667 82.5,75.8333 82.5,74.5C 83.791,74.7373 84.791,74.404 85.5,73.5C 89.4459,72.5256 93.1126,72.8589 96.5,74.5 Z"/></g>
<g><path style="opacity:0.424" fill="#e7ffe9" d="M 19.5,72.5 C 17.8736,75.2457 17.2069,78.2457 17.5,81.5C 15.67,79.524 15.0033,77.3573 15.5,75C 16.4709,73.5187 17.8042,72.6854 19.5,72.5 Z"/></g>
<g><path style="opacity:1" fill="#6db582" d="M 81.5,73.5 C 82.8333,73.5 84.1667,73.5 85.5,73.5C 84.791,74.404 83.791,74.7373 82.5,74.5C 82.5,75.8333 82.5,77.1667 82.5,78.5C 86.8333,78.5 91.1667,78.5 95.5,78.5C 96.0431,78.56 96.3764,78.8933 96.5,79.5C 95.0508,80.1719 93.7175,80.8386 92.5,81.5C 91.8333,81.5 91.1667,81.5 90.5,81.5C 86.164,79.8497 81.9973,80.1831 78,82.5C 75.9012,80.1724 73.7345,80.0058 71.5,82C 72.056,82.3826 72.3893,82.8826 72.5,83.5C 68.8333,82.8333 65.1667,82.1667 61.5,81.5C 62.0483,78.9162 63.715,77.9162 66.5,78.5C 66.6672,75.0429 67.6672,74.7096 69.5,77.5C 68.1468,78.5237 67.4802,79.857 67.5,81.5C 68.5,81.5 69.5,81.5 70.5,81.5C 70.238,80.0222 70.5713,78.6888 71.5,77.5C 74.7906,78.3818 78.124,79.0484 81.5,79.5C 81.5,77.5 81.5,75.5 81.5,73.5 Z"/></g>
<g><path style="opacity:1" fill="#91c18d" d="M 96.5,74.5 C 97.2828,76.328 98.6161,77.6613 100.5,78.5C 100.5,79.5 100.5,80.5 100.5,81.5C 97.8333,81.5 95.1667,81.5 92.5,81.5C 93.7175,80.8386 95.0508,80.1719 96.5,79.5C 96.3764,78.8933 96.0431,78.56 95.5,78.5C 96.2341,77.2921 96.5674,75.9587 96.5,74.5 Z"/></g>
<g><path style="opacity:1" fill="#85c895" d="M 90.5,81.5 C 90.5,81.8333 90.5,82.1667 90.5,82.5C 86.9899,84.1841 83.1566,85.1841 79,85.5C 76.863,84.9233 74.6963,84.59 72.5,84.5C 72.5,84.1667 72.5,83.8333 72.5,83.5C 72.3893,82.8826 72.056,82.3826 71.5,82C 73.7345,80.0058 75.9012,80.1724 78,82.5C 81.9973,80.1831 86.164,79.8497 90.5,81.5 Z"/></g>
<g><path style="opacity:0.014" fill="#eeffee" d="M 18.5,83.5 C 19.2891,83.7828 19.9558,84.2828 20.5,85C 19.6634,86.0113 19.33,87.1779 19.5,88.5C 18.7611,88.631 18.0944,88.4643 17.5,88C 17.4698,86.5707 17.8031,85.0707 18.5,83.5 Z"/></g>
<g><path style="opacity:1" fill="#c4c892" d="M 112.5,83.5 C 112.5,84.1667 112.5,84.8333 112.5,85.5C 110.815,86.1837 109.815,87.517 109.5,89.5C 107.116,90.0108 105.116,91.0108 103.5,92.5C 102.5,92.5 101.5,92.5 100.5,92.5C 100.5,91.5 100.5,90.5 100.5,89.5C 98.2646,89.7947 96.2646,89.4614 94.5,88.5C 95.209,87.596 96.209,87.2627 97.5,87.5C 99.0092,85.6635 100.509,83.6635 102,81.5C 103.067,82.1905 104.234,82.6905 105.5,83C 104.304,83.6543 104.304,84.1543 105.5,84.5C 107.711,83.8772 109.711,82.8772 111.5,81.5C 112.298,81.9569 112.631,82.6236 112.5,83.5 Z"/></g>
<g><path style="opacity:1" fill="#afe1b5" d="M 45.5,87.5 C 45.5,88.1667 45.8333,88.5 46.5,88.5C 48.5314,90.2492 48.8647,92.2492 47.5,94.5C 44.5642,91.2463 40.8975,89.2463 36.5,88.5C 34.4371,89.5118 32.4371,90.5118 30.5,91.5C 29.5987,90.7095 28.9321,89.7095 28.5,88.5C 30.0672,87.3192 30.9005,85.6526 31,83.5C 33.016,85.7914 35.1827,85.7914 37.5,83.5C 36.4425,83.0941 35.1092,83.0941 33.5,83.5C 33.3915,81.4862 34.0582,79.8195 35.5,78.5C 37.7224,78.822 39.5557,78.1554 41,76.5C 41.3036,78.4405 42.1369,80.1072 43.5,81.5C 41.8955,83.1789 41.2289,85.1789 41.5,87.5C 42.8333,87.5 44.1667,87.5 45.5,87.5 Z"/></g>
<g><path style="opacity:1" fill="#90c99b" d="M 33.5,78.5 C 34.1667,78.5 34.8333,78.5 35.5,78.5C 34.0582,79.8195 33.3915,81.4862 33.5,83.5C 35.1092,83.0941 36.4425,83.0941 37.5,83.5C 35.1827,85.7914 33.016,85.7914 31,83.5C 30.9005,85.6526 30.0672,87.3192 28.5,88.5C 26.1667,88.5 23.8333,88.5 21.5,88.5C 21.3433,87.1266 21.51,85.7932 22,84.5C 24.3013,83.2401 26.4679,81.9067 28.5,80.5C 30.698,80.8799 32.3646,80.2132 33.5,78.5 Z"/></g>
<g><path style="opacity:1" fill="#a2c697" d="M 43.5,71.5 C 41.0428,73.3324 41.0428,74.9991 43.5,76.5C 43.5,77.5 43.5,78.5 43.5,79.5C 45.9775,79.0508 47.9775,79.7175 49.5,81.5C 45.557,82.0888 44.2237,84.0888 45.5,87.5C 44.1667,87.5 42.8333,87.5 41.5,87.5C 41.2289,85.1789 41.8955,83.1789 43.5,81.5C 42.1369,80.1072 41.3036,78.4405 41,76.5C 39.5557,78.1554 37.7224,78.822 35.5,78.5C 34.8333,78.5 34.1667,78.5 33.5,78.5C 33.8417,77.6618 34.5084,77.3284 35.5,77.5C 36.6828,76.4955 38.0161,75.6622 39.5,75C 39.1667,74.6667 38.8333,74.3333 38.5,74C 39.4158,73.7216 40.0825,73.2216 40.5,72.5C 41.391,71.8902 42.391,71.5569 43.5,71.5 Z"/></g>
<g><path style="opacity:1" fill="#b6b87f" d="M 68.5,84.5 C 70.8333,87.1667 73.1667,89.8333 75.5,92.5C 73.139,92.3259 70.8056,91.9926 68.5,91.5C 63.0154,90.3483 57.3487,90.1816 51.5,91C 49.0688,92.4318 49.0688,93.9318 51.5,95.5C 51.1496,98.4534 52.1496,100.787 54.5,102.5C 52.7162,102.107 51.0495,101.441 49.5,100.5C 48.3702,98.6854 47.7036,96.6854 47.5,94.5C 48.8647,92.2492 48.5314,90.2492 46.5,88.5C 46.62,87.4138 47.2867,86.7472 48.5,86.5C 50.5376,87.6345 52.5376,87.6345 54.5,86.5C 55.5896,85.6086 55.5896,84.6086 54.5,83.5C 55.3333,83.1667 56.1667,82.8333 57,82.5C 60.7736,83.5692 64.607,84.2358 68.5,84.5 Z"/></g>
<g><path style="opacity:1" fill="#9c9353" d="M 90.5,82.5 C 92.099,82.2322 93.4324,82.5655 94.5,83.5C 91.6164,84.2655 88.7831,85.2655 86,86.5C 83.8273,85.8712 81.8273,86.5379 80,88.5C 78.1862,87.2404 76.3529,87.2404 74.5,88.5C 76.7249,89.8935 79.0582,91.0602 81.5,92C 80.4019,92.7697 80.4019,93.603 81.5,94.5C 79.1016,94.7406 77.1016,94.0739 75.5,92.5C 73.1667,89.8333 70.8333,87.1667 68.5,84.5C 69.8333,84.5 71.1667,84.5 72.5,84.5C 74.6963,84.59 76.863,84.9233 79,85.5C 83.1566,85.1841 86.9899,84.1841 90.5,82.5 Z"/></g>
<g><path style="opacity:1" fill="#b49f5c" d="M 94.5,83.5 C 94.8333,83.5 95.1667,83.5 95.5,83.5C 94.3192,85.0672 92.6526,85.9005 90.5,86C 89.8095,87.0674 89.3095,88.2341 89,89.5C 88.4387,88.9781 87.772,88.6448 87,88.5C 85.5,89.5 84,90.5 82.5,91.5C 83.5,92.8333 84.5,94.1667 85.5,95.5C 84.5,96.3333 83.5,97.1667 82.5,98C 83.3805,98.7083 84.0472,99.5416 84.5,100.5C 84.1583,101.338 83.4916,101.672 82.5,101.5C 81.5655,100.432 81.2322,99.099 81.5,97.5C 81.5,96.5 81.5,95.5 81.5,94.5C 80.4019,93.603 80.4019,92.7697 81.5,92C 79.0582,91.0602 76.7249,89.8935 74.5,88.5C 76.3529,87.2404 78.1862,87.2404 80,88.5C 81.8273,86.5379 83.8273,85.8712 86,86.5C 88.7831,85.2655 91.6164,84.2655 94.5,83.5 Z"/></g>
<g><path style="opacity:1" fill="#c9cb89" d="M 68.5,91.5 C 64.7606,92.914 60.9272,94.2473 57,95.5C 55.1132,94.2453 53.2799,94.2453 51.5,95.5C 49.0688,93.9318 49.0688,92.4318 51.5,91C 57.3487,90.1816 63.0154,90.3483 68.5,91.5 Z"/></g>
<g><path style="opacity:1" fill="#d2ffd5" d="M 149.5,85.5 C 150.117,85.6107 150.617,85.944 151,86.5C 151.808,90.0267 151.641,93.3601 150.5,96.5C 149.766,95.2921 149.433,93.9587 149.5,92.5C 147.396,92.2011 145.396,92.5344 143.5,93.5C 144.836,95.3746 144.336,96.7079 142,97.5C 140.246,103.951 139.08,103.618 138.5,96.5C 137.041,96.5674 135.708,96.2341 134.5,95.5C 135.73,93.7028 136.396,91.7028 136.5,89.5C 138.95,89.702 141.283,89.3686 143.5,88.5C 145.803,87.5895 147.303,85.9228 148,83.5C 148.278,84.4158 148.778,85.0825 149.5,85.5 Z"/></g>
<g><path style="opacity:1" fill="#bbf5c5" d="M 28.5,70.5 C 30.5,70.5 32.5,70.5 34.5,70.5C 34.0825,71.2216 33.4158,71.7216 32.5,72C 33.624,72.2492 34.624,72.7492 35.5,73.5C 35.3764,74.1067 35.0431,74.44 34.5,74.5C 30.3537,73.353 26.0204,73.1864 21.5,74C 18.2634,76.4187 17.93,79.0854 20.5,82C 23.0208,81.2704 25.6874,80.7704 28.5,80.5C 26.4679,81.9067 24.3013,83.2401 22,84.5C 21.51,85.7932 21.3433,87.1266 21.5,88.5C 23.8333,88.5 26.1667,88.5 28.5,88.5C 28.9321,89.7095 29.5987,90.7095 30.5,91.5C 32.0764,92.1429 33.4097,93.1429 34.5,94.5C 35.3627,96.4214 36.0293,98.4214 36.5,100.5C 36.1667,100.5 35.8333,100.5 35.5,100.5C 33.9674,98.7549 31.9674,97.7549 29.5,97.5C 25.9514,94.7326 22.6181,91.7326 19.5,88.5C 19.33,87.1779 19.6634,86.0113 20.5,85C 19.9558,84.2828 19.2891,83.7828 18.5,83.5C 18.1667,82.8333 17.8333,82.1667 17.5,81.5C 17.2069,78.2457 17.8736,75.2457 19.5,72.5C 22.1873,72.6641 24.854,72.4974 27.5,72C 28.056,71.6174 28.3893,71.1174 28.5,70.5 Z"/></g>
<g><path style="opacity:1" fill="#c5ae6d" d="M 97.5,87.5 C 96.209,87.2627 95.209,87.596 94.5,88.5C 93.6236,88.3691 92.9569,88.7025 92.5,89.5C 93.376,90.2508 94.376,90.7508 95.5,91C 95.1667,91.3333 94.8333,91.6667 94.5,92C 95.428,92.3879 96.0946,93.0546 96.5,94C 94.6041,95.4 93.2707,97.2334 92.5,99.5C 89.6482,98.2111 86.9815,98.5444 84.5,100.5C 84.0472,99.5416 83.3805,98.7083 82.5,98C 83.5,97.1667 84.5,96.3333 85.5,95.5C 84.5,94.1667 83.5,92.8333 82.5,91.5C 84,90.5 85.5,89.5 87,88.5C 87.772,88.6448 88.4387,88.9781 89,89.5C 89.3095,88.2341 89.8095,87.0674 90.5,86C 92.6526,85.9005 94.3192,85.0672 95.5,83.5C 96.4959,83.5858 97.3292,83.2524 98,82.5C 98.3845,84.1966 98.2178,85.8632 97.5,87.5 Z"/></g>
<g><path style="opacity:1" fill="#c5c277" d="M 68.5,91.5 C 70.8056,91.9926 73.139,92.3259 75.5,92.5C 77.1016,94.0739 79.1016,94.7406 81.5,94.5C 81.5,95.5 81.5,96.5 81.5,97.5C 80.8485,96.9094 80.1818,96.2427 79.5,95.5C 79.4464,96.6869 79.1131,98.0202 78.5,99.5C 77.8165,99.1373 77.1499,98.8039 76.5,98.5C 77.5624,97.4246 77.5624,96.4246 76.5,95.5C 73.1027,93.4782 69.4361,92.4782 65.5,92.5C 65.5123,95.142 64.179,96.4754 61.5,96.5C 60.1759,97.9346 58.5092,98.9346 56.5,99.5C 55.6143,100.325 55.281,101.325 55.5,102.5C 55.1667,102.5 54.8333,102.5 54.5,102.5C 52.1496,100.787 51.1496,98.4534 51.5,95.5C 53.2799,94.2453 55.1132,94.2453 57,95.5C 60.9272,94.2473 64.7606,92.914 68.5,91.5 Z"/></g>
<g><path style="opacity:1" fill="#c3be7b" d="M 94.5,88.5 C 96.2646,89.4614 98.2646,89.7947 100.5,89.5C 100.5,90.5 100.5,91.5 100.5,92.5C 101.5,92.5 102.5,92.5 103.5,92.5C 101.771,96.7553 99.1041,100.422 95.5,103.5C 95.2089,102.351 94.3756,101.684 93,101.5C 90.601,101.699 88.601,102.699 87,104.5C 85.5936,103.586 84.0936,102.92 82.5,102.5C 82.5,102.167 82.5,101.833 82.5,101.5C 83.4916,101.672 84.1583,101.338 84.5,100.5C 86.9815,98.5444 89.6482,98.2111 92.5,99.5C 93.2707,97.2334 94.6041,95.4 96.5,94C 96.0946,93.0546 95.428,92.3879 94.5,92C 94.8333,91.6667 95.1667,91.3333 95.5,91C 94.376,90.7508 93.376,90.2508 92.5,89.5C 92.9569,88.7025 93.6236,88.3691 94.5,88.5 Z"/></g>
<g><path style="opacity:1" fill="#c8fbc9" d="M 132.5,96.5 C 130.707,98.4261 129.707,100.759 129.5,103.5C 126.088,104.042 123.088,105.375 120.5,107.5C 119.518,108.141 118.518,108.807 117.5,109.5C 116.417,108.635 116.251,107.635 117,106.5C 119.067,104.587 121.234,102.92 123.5,101.5C 124.167,100.833 124.833,100.167 125.5,99.5C 126.451,98.0813 126.784,96.4147 126.5,94.5C 127.5,94.5 128.5,94.5 129.5,94.5C 129.966,92.7988 129.966,91.2988 129.5,90C 130.56,88.702 131.726,87.5353 133,86.5C 134.732,86.7336 135.566,87.7336 135.5,89.5C 134.749,91.9963 133.749,94.3296 132.5,96.5 Z"/></g>
<g><path style="opacity:0.997" fill="#d4fed8" d="M 150.5,96.5 C 148.707,98.6767 147.374,101.177 146.5,104C 141.294,106.351 135.961,108.517 130.5,110.5C 129.848,109.275 128.681,108.608 127,108.5C 123.391,109.222 120.224,110.889 117.5,113.5C 116.893,113.376 116.56,113.043 116.5,112.5C 118.555,111.441 119.889,109.775 120.5,107.5C 127.993,107.449 131.993,103.782 132.5,96.5C 133.167,96.1667 133.833,95.8333 134.5,95.5C 135.708,96.2341 137.041,96.5674 138.5,96.5C 139.08,103.618 140.246,103.951 142,97.5C 144.336,96.7079 144.836,95.3746 143.5,93.5C 145.396,92.5344 147.396,92.2011 149.5,92.5C 149.433,93.9587 149.766,95.2921 150.5,96.5 Z"/></g>
<g><path style="opacity:1" fill="#a6b685" d="M 119.5,69.5 C 120.833,69.5 122.167,69.5 123.5,69.5C 123.5,70.1667 123.833,70.5 124.5,70.5C 122.971,70.681 121.304,71.0143 119.5,71.5C 118.795,73.6721 117.795,75.6721 116.5,77.5C 119.489,79.9603 120.323,82.9603 119,86.5C 122.259,90.3517 124.426,94.685 125.5,99.5C 124.833,100.167 124.167,100.833 123.5,101.5C 120.721,101.279 118.054,101.612 115.5,102.5C 115.66,100.801 115.494,99.1341 115,97.5C 113.989,98.3366 112.822,98.67 111.5,98.5C 111.286,96.8561 111.62,95.3561 112.5,94C 111.484,93.4806 110.818,92.6473 110.5,91.5C 110.977,89.4035 111.643,87.4035 112.5,85.5C 112.5,84.8333 112.5,84.1667 112.5,83.5C 113.196,79.2671 114.696,75.2671 117,71.5C 117.708,70.6195 118.542,69.9528 119.5,69.5 Z"/></g>
<g><path style="opacity:0.008" fill="#f0ffee" d="M 29.5,97.5 C 31.9674,97.7549 33.9674,98.7549 35.5,100.5C 32.6874,100.975 30.6874,99.9754 29.5,97.5 Z"/></g>
<g><path style="opacity:1" fill="#a2dba3" d="M 132.5,96.5 C 131.993,103.782 127.993,107.449 120.5,107.5C 123.088,105.375 126.088,104.042 129.5,103.5C 129.707,100.759 130.707,98.4261 132.5,96.5 Z"/></g>
<g><path style="opacity:1" fill="#99d2aa" d="M 47.5,94.5 C 47.7036,96.6854 48.3702,98.6854 49.5,100.5C 48.8501,100.196 48.1835,99.8627 47.5,99.5C 46.3514,102.429 44.6847,102.929 42.5,101C 48.1382,95.7297 47.4716,94.5631 40.5,97.5C 38.3737,96.6299 36.3737,95.6299 34.5,94.5C 33.4097,93.1429 32.0764,92.1429 30.5,91.5C 32.4371,90.5118 34.4371,89.5118 36.5,88.5C 40.8975,89.2463 44.5642,91.2463 47.5,94.5 Z"/></g>
<g><path style="opacity:1" fill="#d6c05b" d="M 76.5,98.5 C 76.0113,99.9952 75.3446,101.329 74.5,102.5C 73.7494,101.427 72.7494,101.26 71.5,102C 70.9341,102.995 70.2674,103.828 69.5,104.5C 64.2002,104.618 61.5336,101.951 61.5,96.5C 64.179,96.4754 65.5123,95.142 65.5,92.5C 69.4361,92.4782 73.1027,93.4782 76.5,95.5C 77.5624,96.4246 77.5624,97.4246 76.5,98.5 Z"/></g>
<g><path style="opacity:0.005" fill="#ecffed" d="M 35.5,100.5 C 35.8333,100.5 36.1667,100.5 36.5,100.5C 38.698,100.12 40.3646,100.787 41.5,102.5C 41.5654,102.938 41.3988,103.272 41,103.5C 39.1239,102.391 37.2905,101.391 35.5,100.5 Z"/></g>
<g><path style="opacity:1" fill="#cad388" d="M 61.5,96.5 C 61.5336,101.951 64.2002,104.618 69.5,104.5C 69.3284,105.492 69.6618,106.158 70.5,106.5C 70.5,108.167 70.5,109.833 70.5,111.5C 68.9382,111.267 67.6049,110.6 66.5,109.5C 66.0472,108.542 65.3805,107.708 64.5,107C 62.0734,105.409 59.4067,104.575 56.5,104.5C 56.1667,103.833 55.8333,103.167 55.5,102.5C 55.281,101.325 55.6143,100.325 56.5,99.5C 58.5092,98.9346 60.1759,97.9346 61.5,96.5 Z"/></g>
<g><path style="opacity:1" fill="#a1dfb8" d="M 34.5,94.5 C 36.3737,95.6299 38.3737,96.6299 40.5,97.5C 47.4716,94.5631 48.1382,95.7297 42.5,101C 44.6847,102.929 46.3514,102.429 47.5,99.5C 48.1835,99.8627 48.8501,100.196 49.5,100.5C 51.0495,101.441 52.7162,102.107 54.5,102.5C 54.8333,102.5 55.1667,102.5 55.5,102.5C 55.8333,103.167 56.1667,103.833 56.5,104.5C 56.938,108.908 54.938,110.575 50.5,109.5C 47.7911,107.444 45.1244,105.444 42.5,103.5C 42.5,102.833 42.1667,102.5 41.5,102.5C 40.3646,100.787 38.698,100.12 36.5,100.5C 36.0293,98.4214 35.3627,96.4214 34.5,94.5 Z"/></g>
<g><path style="opacity:1" fill="#c7cc80" d="M 95.5,103.5 C 92.9528,104.934 90.6195,106.6 88.5,108.5C 86.1667,108.5 83.8333,108.5 81.5,108.5C 81.5,108.167 81.5,107.833 81.5,107.5C 81.5,107.167 81.5,106.833 81.5,106.5C 83.6204,105.597 83.9538,104.263 82.5,102.5C 84.0936,102.92 85.5936,103.586 87,104.5C 88.601,102.699 90.601,101.699 93,101.5C 94.3756,101.684 95.2089,102.351 95.5,103.5 Z"/></g>
<g><path style="opacity:1" fill="#a3a96d" d="M 112.5,85.5 C 111.643,87.4035 110.977,89.4035 110.5,91.5C 110.818,92.6473 111.484,93.4806 112.5,94C 111.62,95.3561 111.286,96.8561 111.5,98.5C 112.822,98.67 113.989,98.3366 115,97.5C 115.494,99.1341 115.66,100.801 115.5,102.5C 115.5,102.833 115.5,103.167 115.5,103.5C 111.14,104.295 107.14,105.962 103.5,108.5C 101.983,108.489 100.816,107.823 100,106.5C 97.9935,107.669 95.8268,108.335 93.5,108.5C 93.366,110.292 93.6993,111.958 94.5,113.5C 92.9731,113.427 91.9731,114.094 91.5,115.5C 91.5,115.833 91.5,116.167 91.5,116.5C 91.1667,116.5 90.8333,116.5 90.5,116.5C 90.5,115.833 90.1667,115.5 89.5,115.5C 89.1667,114.5 88.5,113.833 87.5,113.5C 89.4011,112.065 89.7345,110.398 88.5,108.5C 90.6195,106.6 92.9528,104.934 95.5,103.5C 99.1041,100.422 101.771,96.7553 103.5,92.5C 105.116,91.0108 107.116,90.0108 109.5,89.5C 109.815,87.517 110.815,86.1837 112.5,85.5 Z"/></g>
<g><path style="opacity:1" fill="#c2c96e" d="M 81.5,97.5 C 81.2322,99.099 81.5655,100.432 82.5,101.5C 82.5,101.833 82.5,102.167 82.5,102.5C 83.9538,104.263 83.6204,105.597 81.5,106.5C 78.6829,105.905 76.3495,104.572 74.5,102.5C 75.3446,101.329 76.0113,99.9952 76.5,98.5C 77.1499,98.8039 77.8165,99.1373 78.5,99.5C 79.1131,98.0202 79.4464,96.6869 79.5,95.5C 80.1818,96.2427 80.8485,96.9094 81.5,97.5 Z"/></g>
<g><path style="opacity:1" fill="#c7e68d" d="M 74.5,102.5 C 76.3495,104.572 78.6829,105.905 81.5,106.5C 81.5,106.833 81.5,107.167 81.5,107.5C 77.8019,107.448 74.1352,107.114 70.5,106.5C 69.6618,106.158 69.3284,105.492 69.5,104.5C 70.2674,103.828 70.9341,102.995 71.5,102C 72.7494,101.26 73.7494,101.427 74.5,102.5 Z"/></g>
<g><path style="opacity:0.016" fill="#e2ffe4" d="M 41.5,106.5 C 42.2891,106.783 42.9558,107.283 43.5,108C 42.184,108.528 41.5173,108.028 41.5,106.5 Z"/></g>
<g><path style="opacity:1" fill="#c1f2b0" d="M 70.5,106.5 C 74.1352,107.114 77.8019,107.448 81.5,107.5C 81.5,107.833 81.5,108.167 81.5,108.5C 81.5,108.833 81.5,109.167 81.5,109.5C 81.5,110.833 81.5,112.167 81.5,113.5C 77.4975,113.964 73.8309,113.298 70.5,111.5C 70.5,109.833 70.5,108.167 70.5,106.5 Z"/></g>
<g><path style="opacity:1" fill="#bef9cc" d="M 56.5,104.5 C 59.4067,104.575 62.0734,105.409 64.5,107C 65.3805,107.708 66.0472,108.542 66.5,109.5C 65.4151,111.582 63.9151,111.916 62,110.5C 60.9025,111.967 59.4025,112.801 57.5,113C 60.0037,113.698 62.337,114.531 64.5,115.5C 64.9175,116.222 65.5842,116.722 66.5,117C 64.4402,118.493 64.1068,120.326 65.5,122.5C 67.2004,123.61 68.5337,124.943 69.5,126.5C 66.9823,125.736 64.649,124.736 62.5,123.5C 61.755,119.266 59.4216,116.266 55.5,114.5C 55.7093,113.914 56.0426,113.414 56.5,113C 54.7427,111.25 52.7427,110.084 50.5,109.5C 54.938,110.575 56.938,108.908 56.5,104.5 Z"/></g>
<g><path style="opacity:1" fill="#b4c888" d="M 81.5,109.5 C 81.5,109.167 81.5,108.833 81.5,108.5C 83.8333,108.5 86.1667,108.5 88.5,108.5C 89.7345,110.398 89.4011,112.065 87.5,113.5C 85.9582,112.699 84.2915,112.366 82.5,112.5C 82.7373,111.209 82.404,110.209 81.5,109.5 Z"/></g>
<g><path style="opacity:1" fill="#acc38a" d="M 103.5,108.5 C 100.992,110.924 97.9922,112.59 94.5,113.5C 93.6993,111.958 93.366,110.292 93.5,108.5C 95.8268,108.335 97.9935,107.669 100,106.5C 100.816,107.823 101.983,108.489 103.5,108.5 Z"/></g>
<g><path style="opacity:1" fill="#cefed5" d="M 130.5,110.5 C 128.219,112.598 125.719,114.598 123,116.5C 122.517,117.448 122.351,118.448 122.5,119.5C 121.448,119.351 120.448,119.517 119.5,120C 119.833,120.333 120.167,120.667 120.5,121C 116.827,125.336 112.16,127.169 106.5,126.5C 106.953,125.542 107.619,124.708 108.5,124C 106.833,123.667 105.167,123.333 103.5,123C 106.5,121.333 109.5,119.667 112.5,118C 114.469,116.5 115.802,114.667 116.5,112.5C 116.56,113.043 116.893,113.376 117.5,113.5C 120.224,110.889 123.391,109.222 127,108.5C 128.681,108.608 129.848,109.275 130.5,110.5 Z"/></g>
<g><path style="opacity:1" fill="#a7daa1" d="M 66.5,109.5 C 67.6049,110.6 68.9382,111.267 70.5,111.5C 73.8309,113.298 77.4975,113.964 81.5,113.5C 81.5,112.167 81.5,110.833 81.5,109.5C 82.404,110.209 82.7373,111.209 82.5,112.5C 84.2915,112.366 85.9582,112.699 87.5,113.5C 88.5,113.833 89.1667,114.5 89.5,115.5C 81.4142,116.592 73.0809,116.592 64.5,115.5C 62.337,114.531 60.0037,113.698 57.5,113C 59.4025,112.801 60.9025,111.967 62,110.5C 63.9151,111.916 65.4151,111.582 66.5,109.5 Z"/></g>
<g><path style="opacity:1" fill="#9cd0a0" d="M 115.5,103.5 C 111.818,104.856 109.485,107.523 108.5,111.5C 107.675,112.386 106.675,112.719 105.5,112.5C 105.719,113.675 105.386,114.675 104.5,115.5C 100.244,115.064 95.9107,115.064 91.5,115.5C 91.9731,114.094 92.9731,113.427 94.5,113.5C 97.9922,112.59 100.992,110.924 103.5,108.5C 107.14,105.962 111.14,104.295 115.5,103.5 Z"/></g>
<g><path style="opacity:1" fill="#b0e9b9" d="M 123.5,101.5 C 121.234,102.92 119.067,104.587 117,106.5C 116.251,107.635 116.417,108.635 117.5,109.5C 118.518,108.807 119.518,108.141 120.5,107.5C 119.889,109.775 118.555,111.441 116.5,112.5C 115.802,114.667 114.469,116.5 112.5,118C 109.5,119.667 106.5,121.333 103.5,123C 105.167,123.333 106.833,123.667 108.5,124C 107.619,124.708 106.953,125.542 106.5,126.5C 103.977,127.801 101.31,128.801 98.5,129.5C 97.1779,129.33 96.0113,129.663 95,130.5C 94.8726,129.223 95.3726,128.057 96.5,127C 95.0557,123.775 95.7223,123.108 98.5,125C 100.167,125.667 101.833,125.667 103.5,125C 102.663,123.989 102.33,122.822 102.5,121.5C 101.178,121.33 100.011,121.663 99,122.5C 98.7679,121.263 98.2679,120.263 97.5,119.5C 95.7496,118.13 93.7496,117.13 91.5,116.5C 91.5,116.167 91.5,115.833 91.5,115.5C 95.9107,115.064 100.244,115.064 104.5,115.5C 105.386,114.675 105.719,113.675 105.5,112.5C 106.675,112.719 107.675,112.386 108.5,111.5C 109.485,107.523 111.818,104.856 115.5,103.5C 115.5,103.167 115.5,102.833 115.5,102.5C 118.054,101.612 120.721,101.279 123.5,101.5 Z"/></g>
<g><path style="opacity:0.878" fill="#d2fedf" d="M 42.5,103.5 C 45.1244,105.444 47.7911,107.444 50.5,109.5C 52.7427,110.084 54.7427,111.25 56.5,113C 56.0426,113.414 55.7093,113.914 55.5,114.5C 59.4216,116.266 61.755,119.266 62.5,123.5C 59.8894,121.855 57.2228,120.188 54.5,118.5C 52.5,114.5 49.5,111.5 45.5,109.5C 44.4867,107.473 43.4867,105.473 42.5,103.5 Z"/></g>
<g><path style="opacity:1" fill="#bef7c4" d="M 64.5,115.5 C 73.0809,116.592 81.4142,116.592 89.5,115.5C 90.1667,115.5 90.5,115.833 90.5,116.5C 90.5,116.833 90.5,117.167 90.5,117.5C 88.8333,117.5 87.1667,117.5 85.5,117.5C 85.5,119.5 85.5,121.5 85.5,123.5C 91.8138,121.362 92.6471,122.362 88,126.5C 87.2825,125.549 86.4491,125.383 85.5,126C 85.8333,129 87.5,130.667 90.5,131C 89.944,131.383 89.6107,131.883 89.5,132.5C 86.454,131.938 83.454,131.271 80.5,130.5C 78.8828,129.962 77.2161,129.629 75.5,129.5C 73.2504,128.87 71.2504,127.87 69.5,126.5C 68.5337,124.943 67.2004,123.61 65.5,122.5C 64.1068,120.326 64.4402,118.493 66.5,117C 65.5842,116.722 64.9175,116.222 64.5,115.5 Z"/></g>
<g><path style="opacity:1" fill="#7eba8d" d="M 90.5,117.5 C 90.5,117.167 90.5,116.833 90.5,116.5C 90.8333,116.5 91.1667,116.5 91.5,116.5C 93.7496,117.13 95.7496,118.13 97.5,119.5C 94.812,119.834 92.4786,119.168 90.5,117.5 Z"/></g>
<g><path style="opacity:1" fill="#c3fbcb" d="M 90.5,117.5 C 92.4786,119.168 94.812,119.834 97.5,119.5C 98.2679,120.263 98.7679,121.263 99,122.5C 100.011,121.663 101.178,121.33 102.5,121.5C 102.33,122.822 102.663,123.989 103.5,125C 101.833,125.667 100.167,125.667 98.5,125C 95.7223,123.108 95.0557,123.775 96.5,127C 95.3726,128.057 94.8726,129.223 95,130.5C 96.0113,129.663 97.1779,129.33 98.5,129.5C 96.1547,132.075 93.1547,133.075 89.5,132.5C 89.6107,131.883 89.944,131.383 90.5,131C 87.5,130.667 85.8333,129 85.5,126C 86.4491,125.383 87.2825,125.549 88,126.5C 92.6471,122.362 91.8138,121.362 85.5,123.5C 85.5,121.5 85.5,119.5 85.5,117.5C 87.1667,117.5 88.8333,117.5 90.5,117.5 Z"/></g>
<g><path style="opacity:0.09" fill="#e3ffee" d="M 75.5,129.5 C 77.2161,129.629 78.8828,129.962 80.5,130.5C 78.9699,132.847 76.9699,133.014 74.5,131C 75.056,130.617 75.3893,130.117 75.5,129.5 Z"/></g>
<g><path style="opacity:0.692" fill="#b3ebea" d="M 59.5,134.5 C 60.4959,134.414 61.3292,134.748 62,135.5C 62.413,138.232 63.0797,140.899 64,143.5C 65.8333,141.667 67.6667,139.833 69.5,138C 70.6001,137.568 71.2668,138.068 71.5,139.5C 70.9251,143.482 69.5917,147.149 67.5,150.5C 66.8153,148.219 66.6487,145.886 67,143.5C 65.7365,145.607 63.9032,146.607 61.5,146.5C 60.6059,139.944 59.6059,139.944 58.5,146.5C 58.1667,146.833 57.8333,147.167 57.5,147.5C 57.1667,146.833 56.8333,146.167 56.5,145.5C 57.3485,141.771 58.3485,138.104 59.5,134.5 Z"/></g>
<g><path style="opacity:0.678" fill="#b3ebeb" d="M 98.5,136.5 C 104.144,135.481 107.144,137.814 107.5,143.5C 104.679,143.539 102.012,144.205 99.5,145.5C 102.148,148.262 104.481,147.929 106.5,144.5C 107.347,147.866 105.847,149.866 102,150.5C 98.0549,149.142 95.8883,146.309 95.5,142C 96.1242,139.915 97.1242,138.082 98.5,136.5 Z M 100.5,138.5 C 102.346,138.222 103.68,138.889 104.5,140.5C 102.696,141.768 100.696,142.435 98.5,142.5C 98.5271,140.801 99.1938,139.467 100.5,138.5 Z"/></g>
<g><path style="opacity:0.639" fill="#b4eceb" d="M 77.5,138.5 C 78.5,138.5 79.5,138.5 80.5,138.5C 80.5,140.167 80.5,141.833 80.5,143.5C 82.4672,143.261 84.3005,143.594 86,144.5C 86.4955,142.527 86.6621,140.527 86.5,138.5C 87.5,138.5 88.5,138.5 89.5,138.5C 89.6653,142.182 89.4986,145.848 89,149.5C 88.6924,150.308 88.1924,150.975 87.5,151.5C 86.5481,149.955 86.2148,148.288 86.5,146.5C 84.5,146.5 82.5,146.5 80.5,146.5C 80.5,148.167 80.5,149.833 80.5,151.5C 79.5,151.5 78.5,151.5 77.5,151.5C 77.5,147.167 77.5,142.833 77.5,138.5 Z"/></g>
</svg>
