<?xml version="1.0" encoding="UTF-8"?>
<!DOCTYPE svg PUBLIC "-//W3C//DTD SVG 1.1//EN" "http://www.w3.org/Graphics/SVG/1.1/DTD/svg11.dtd">
<svg xmlns="http://www.w3.org/2000/svg" version="1.1" width="175px" height="175px" style="shape-rendering:geometricPrecision; text-rendering:geometricPrecision; image-rendering:optimizeQuality; fill-rule:evenodd; clip-rule:evenodd" xmlns:xlink="http://www.w3.org/1999/xlink">
<g><path style="opacity:0.634" fill="#bed2ff" d="M 88.5,14.5 C 89.4778,14.811 90.1445,15.4777 90.5,16.5C 88.2338,17.3142 85.9005,17.8142 83.5,18C 82.8333,18.6667 82.1667,19.3333 81.5,20C 89.4741,19.3091 92.3075,22.8091 90,30.5C 89.6258,31.4162 89.1258,32.2496 88.5,33C 79.1625,33.9675 75.9959,29.8008 79,20.5C 79.5831,18.9984 80.4164,17.6651 81.5,16.5C 83.9823,15.9329 86.3157,15.2663 88.5,14.5 Z M 82.5,22.5 C 88.6426,23.0262 89.9759,25.8595 86.5,31C 82.9305,32.1048 80.9305,30.7714 80.5,27C 81.2666,25.5295 81.9332,24.0295 82.5,22.5 Z"/></g>
<g><path style="opacity:0.644" fill="#bed2ff" d="M 62.5,22.5 C 68.4708,21.7995 71.8041,24.4662 72.5,30.5C 70.6908,36.7523 67.0241,38.0857 61.5,34.5C 58.6946,30.2075 59.0279,26.2075 62.5,22.5 Z M 64.5,24.5 C 69.2442,25.8522 70.5775,28.8522 68.5,33.5C 64.3824,34.752 62.0491,33.0853 61.5,28.5C 62.1716,26.8405 63.1716,25.5072 64.5,24.5 Z"/></g>
<g><path style="opacity:0.64" fill="#bed2ff" d="M 100.5,23.5 C 109.16,23.8136 111.326,27.8136 107,35.5C 101.673,38.7488 98.1731,37.4155 96.5,31.5C 96.7997,28.2335 98.1331,25.5669 100.5,23.5 Z M 101.5,25.5 C 106.213,25.4676 107.713,27.8009 106,32.5C 102.954,36.6372 100.454,36.3038 98.5,31.5C 99.1286,29.2592 100.129,27.2592 101.5,25.5 Z"/></g>
<g><path style="opacity:0.013" fill="#effafc" d="M 100.5,46.5 C 93.5954,45.4258 86.4288,45.4258 79,46.5C 75.3026,46.1449 71.8026,45.4782 68.5,44.5C 69.766,43.9101 71.0993,43.4101 72.5,43C 72.1667,42.6667 71.8333,42.3333 71.5,42C 72.8333,41.8333 74.1667,41.6667 75.5,41.5C 81.8418,41.6463 88.1751,41.6463 94.5,41.5C 97.4135,42.2096 99.4135,43.8763 100.5,46.5 Z"/></g>
<g><path style="opacity:1" fill="#d1c8ca" d="M 68.5,44.5 C 71.8026,45.4782 75.3026,46.1449 79,46.5C 86.4288,45.4258 93.5954,45.4258 100.5,46.5C 101.338,46.8417 101.672,47.5084 101.5,48.5C 101.5,48.8333 101.5,49.1667 101.5,49.5C 100.662,49.8417 100.328,50.5084 100.5,51.5C 94.5787,47.6486 88.5787,47.6486 82.5,51.5C 78.7923,49.9497 75.1256,48.283 71.5,46.5C 69.2392,47.5627 67.2392,48.896 65.5,50.5C 65.8333,50.8333 66.1667,51.1667 66.5,51.5C 67.8844,48.8674 69.2178,48.8674 70.5,51.5C 67.8957,54.636 64.5623,56.4693 60.5,57C 57.972,58.3159 57.972,59.4826 60.5,60.5C 60,61.5 59.5,62.5 59,63.5C 55.9772,65.6976 53.1438,68.031 50.5,70.5C 48.7656,73.2003 46.4323,75.2003 43.5,76.5C 41.0428,74.9991 41.0428,73.3324 43.5,71.5C 44.1667,71.5 44.5,71.1667 44.5,70.5C 45.4959,70.5858 46.3292,70.2524 47,69.5C 51.0374,63.5232 54.2041,57.1898 56.5,50.5C 59.9024,47.4654 63.9024,45.4654 68.5,44.5 Z"/></g>
<g><path style="opacity:0.994" fill="#e5fbfd" d="M 141.5,67.5 C 139.864,66.2511 138.697,64.5844 138,62.5C 136.414,63.376 134.914,64.376 133.5,65.5C 132.5,63.8333 131.167,62.5 129.5,61.5C 131.011,59.1625 130.677,58.4958 128.5,59.5C 126.418,57.8926 124.918,56.2259 124,54.5C 123.195,56.9011 122.362,56.7344 121.5,54C 124.993,52.9116 125.159,51.745 122,50.5C 121,51.8333 120,53.1667 119,54.5C 116.586,53.1443 114.419,53.4776 112.5,55.5C 108.366,55.3494 105.033,53.6827 102.5,50.5C 101.833,50.5 101.5,50.1667 101.5,49.5C 101.5,49.1667 101.5,48.8333 101.5,48.5C 104.195,48.933 106.362,50.2663 108,52.5C 108.567,49.8323 109.067,47.1656 109.5,44.5C 126.678,43.6021 137.345,51.2687 141.5,67.5 Z"/></g>
<g><path style="opacity:1" fill="#ddf5fb" d="M 141.5,67.5 C 145.268,73.3743 148.268,79.7076 150.5,86.5C 149.032,87.8691 147.365,89.0357 145.5,90C 146.711,90.8928 146.711,91.7261 145.5,92.5C 142.571,90.6726 139.571,90.3392 136.5,91.5C 137.949,89.8356 139.949,89.0023 142.5,89C 143.337,87.9887 143.67,86.8221 143.5,85.5C 138.908,86.0838 136.075,84.0838 135,79.5C 131.365,76.7014 127.865,73.7014 124.5,70.5C 123.833,70.5 123.5,70.1667 123.5,69.5C 121.517,66.8465 119.517,64.1798 117.5,61.5C 116.311,60.5713 114.978,60.238 113.5,60.5C 113.634,58.7085 113.301,57.0418 112.5,55.5C 114.419,53.4776 116.586,53.1443 119,54.5C 120,53.1667 121,51.8333 122,50.5C 125.159,51.745 124.993,52.9116 121.5,54C 122.362,56.7344 123.195,56.9011 124,54.5C 124.918,56.2259 126.418,57.8926 128.5,59.5C 130.677,58.4958 131.011,59.1625 129.5,61.5C 131.167,62.5 132.5,63.8333 133.5,65.5C 134.914,64.376 136.414,63.376 138,62.5C 138.697,64.5844 139.864,66.2511 141.5,67.5 Z"/></g>
<g><path style="opacity:1" fill="#d2babc" d="M 100.5,51.5 C 101.833,53.5 101.833,55.5 100.5,57.5C 99.0609,56.4908 97.7276,56.8241 96.5,58.5C 96.0702,60.38 96.0702,62.38 96.5,64.5C 93.359,64.949 90.359,65.949 87.5,67.5C 83.164,67.7452 78.8306,67.0785 74.5,65.5C 70.7435,65.9313 67.4102,67.2646 64.5,69.5C 63.3052,69.3225 62.1385,68.9891 61,68.5C 57.5532,69.4894 54.0532,70.1561 50.5,70.5C 53.1438,68.031 55.9772,65.6976 59,63.5C 59.5,62.5 60,61.5 60.5,60.5C 57.972,59.4826 57.972,58.3159 60.5,57C 64.5623,56.4693 67.8957,54.636 70.5,51.5C 69.2178,48.8674 67.8844,48.8674 66.5,51.5C 66.1667,51.1667 65.8333,50.8333 65.5,50.5C 67.2392,48.896 69.2392,47.5627 71.5,46.5C 75.1256,48.283 78.7923,49.9497 82.5,51.5C 88.5787,47.6486 94.5787,47.6486 100.5,51.5 Z"/></g>
<g><path style="opacity:1" fill="#dadbdd" d="M 86.5,50.5 C 87.8333,50.5 89.1667,50.5 90.5,50.5C 91.0138,52.5116 91.1805,54.5116 91,56.5C 89.414,57.376 87.914,58.376 86.5,59.5C 85.6663,57.1655 84.3329,55.1655 82.5,53.5C 83.9014,52.4793 85.2347,51.4793 86.5,50.5 Z"/></g>
<g><path style="opacity:1" fill="#d7cbd6" d="M 101.5,49.5 C 101.5,50.1667 101.833,50.5 102.5,50.5C 104.19,54.697 106.857,58.197 110.5,61C 109.944,61.3826 109.611,61.8826 109.5,62.5C 110.059,65.8434 111.392,68.8434 113.5,71.5C 111.955,72.4519 110.288,72.7852 108.5,72.5C 106.958,71.6993 105.292,71.366 103.5,71.5C 103.665,67.8183 103.499,64.1516 103,60.5C 101.955,59.6266 101.122,58.6266 100.5,57.5C 101.833,55.5 101.833,53.5 100.5,51.5C 100.328,50.5084 100.662,49.8417 101.5,49.5 Z"/></g>
<g><path style="opacity:1" fill="#c0c0c8" d="M 102.5,50.5 C 105.033,53.6827 108.366,55.3494 112.5,55.5C 113.301,57.0418 113.634,58.7085 113.5,60.5C 114.978,60.238 116.311,60.5713 117.5,61.5C 119.517,64.1798 121.517,66.8465 123.5,69.5C 122.167,69.5 120.833,69.5 119.5,69.5C 117.113,67.0869 114.946,64.4202 113,61.5C 111.989,62.3366 110.822,62.67 109.5,62.5C 109.611,61.8826 109.944,61.3826 110.5,61C 106.857,58.197 104.19,54.697 102.5,50.5 Z"/></g>
<g><path style="opacity:1" fill="#dfe8f1" d="M 56.5,50.5 C 54.2041,57.1898 51.0374,63.5232 47,69.5C 46.3292,70.2524 45.4959,70.5858 44.5,70.5C 44.6563,69.5018 44.1563,68.5018 43,67.5C 42.3333,68.1667 41.6667,68.8333 41,69.5C 40.2303,68.4019 39.397,68.4019 38.5,69.5C 40.0569,65.9335 42.0569,62.6002 44.5,59.5C 48.5681,56.4793 52.5681,53.4793 56.5,50.5 Z"/></g>
<g><path style="opacity:1" fill="#bcb1bb" d="M 119.5,69.5 C 117.31,70.9748 115.977,72.9748 115.5,75.5C 113.248,74.6669 111.081,74.6669 109,75.5C 108.517,74.552 108.351,73.552 108.5,72.5C 110.288,72.7852 111.955,72.4519 113.5,71.5C 111.392,68.8434 110.059,65.8434 109.5,62.5C 110.822,62.67 111.989,62.3366 113,61.5C 114.946,64.4202 117.113,67.0869 119.5,69.5 Z"/></g>
<g><path style="opacity:1" fill="#c19ea7" d="M 96.5,64.5 C 97.1098,65.391 97.4431,66.391 97.5,67.5C 93.2726,69.2805 88.6059,70.1138 83.5,70C 82.7476,70.6708 82.4142,71.5041 82.5,72.5C 79.9658,70.4077 77.2992,70.0744 74.5,71.5C 72.2972,71.6036 70.2972,72.2702 68.5,73.5C 64.8284,76.8283 60.495,78.1616 55.5,77.5C 53.7673,76.9924 53.434,76.159 54.5,75C 58.265,73.7505 61.5983,71.9172 64.5,69.5C 67.4102,67.2646 70.7435,65.9313 74.5,65.5C 78.8306,67.0785 83.164,67.7452 87.5,67.5C 90.359,65.949 93.359,64.949 96.5,64.5 Z"/></g>
<g><path style="opacity:1" fill="#9f7e8b" d="M 74.5,71.5 C 77.2992,70.0744 79.9658,70.4077 82.5,72.5C 86.163,71.8875 89.8297,71.7208 93.5,72C 92.5842,72.2784 91.9175,72.7784 91.5,73.5C 89.5,73.5 87.5,73.5 85.5,73.5C 84.1667,73.5 82.8333,73.5 81.5,73.5C 78.7892,73.8151 76.4559,73.1484 74.5,71.5 Z"/></g>
<g><path style="opacity:1" fill="#baa2af" d="M 100.5,57.5 C 101.122,58.6266 101.955,59.6266 103,60.5C 103.499,64.1516 103.665,67.8183 103.5,71.5C 105.292,71.366 106.958,71.6993 108.5,72.5C 108.351,73.552 108.517,74.552 109,75.5C 111.081,74.6669 113.248,74.6669 115.5,75.5C 114.082,78.0609 113.082,80.7276 112.5,83.5C 112.631,82.6236 112.298,81.9569 111.5,81.5C 109.063,82.9256 106.563,84.259 104,85.5C 103.333,84.8333 102.667,84.1667 102,83.5C 100.532,84.9893 99.0315,86.3226 97.5,87.5C 97.1667,86.1667 96.8333,84.8333 96.5,83.5C 97.3382,83.1583 97.6716,82.4916 97.5,81.5C 98.5,81.5 99.5,81.5 100.5,81.5C 100.5,80.5 100.5,79.5 100.5,78.5C 103.752,82.3703 106.085,82.037 107.5,77.5C 106.198,75.7988 104.531,74.6322 102.5,74C 104.878,73.0255 104.544,72.3589 101.5,72C 101.665,70.8831 101.998,69.7164 102.5,68.5C 100.831,67.0271 99.1645,66.6938 97.5,67.5C 97.4431,66.391 97.1098,65.391 96.5,64.5C 96.0702,62.38 96.0702,60.38 96.5,58.5C 97.7276,56.8241 99.0609,56.4908 100.5,57.5 Z"/></g>
<g><path style="opacity:1" fill="#b1c0cd" d="M 124.5,70.5 C 127.865,73.7014 131.365,76.7014 135,79.5C 136.075,84.0838 138.908,86.0838 143.5,85.5C 143.67,86.8221 143.337,87.9887 142.5,89C 139.949,89.0023 137.949,89.8356 136.5,91.5C 135.876,93.754 134.543,95.4206 132.5,96.5C 133.749,94.3296 134.749,91.9963 135.5,89.5C 135.566,87.7336 134.732,86.7336 133,86.5C 131.726,87.5353 130.56,88.702 129.5,90C 130.232,92.9505 128.899,94.4505 125.5,94.5C 122.849,92.84 120.849,90.5066 119.5,87.5C 118.264,85.6889 118.264,83.8556 119.5,82C 119.043,80.0598 118.043,78.5598 116.5,77.5C 117.794,75.704 118.794,73.704 119.5,71.5C 121.304,71.0143 122.971,70.681 124.5,70.5 Z"/></g>
<g><path style="opacity:1" fill="#bdcedc" d="M 44.5,70.5 C 44.5,71.1667 44.1667,71.5 43.5,71.5C 41.6854,72.6298 39.6854,73.2964 37.5,73.5C 37.7709,75.3797 37.1042,76.713 35.5,77.5C 34.7375,76.7321 33.7375,76.2321 32.5,76C 36.5437,74.1013 36.3771,72.9346 32,72.5C 28.5,73 25,73.5 21.5,74C 18.2486,77.1708 17.9153,76.8374 20.5,73C 22.8333,72.6667 25.1667,72.3333 27.5,72C 28.056,71.6174 28.3893,71.1174 28.5,70.5C 31.1194,70.2317 33.6194,70.565 36,71.5C 36.7083,70.6195 37.5416,69.9528 38.5,69.5C 39.397,68.4019 40.2303,68.4019 41,69.5C 41.6667,68.8333 42.3333,68.1667 43,67.5C 44.1563,68.5018 44.6563,69.5018 44.5,70.5 Z"/></g>
<g><path style="opacity:1" fill="#a0bcce" d="M 74.5,71.5 C 76.4559,73.1484 78.7892,73.8151 81.5,73.5C 81.5,75.5 81.5,77.5 81.5,79.5C 78.5448,78.8413 75.5448,78.5079 72.5,78.5C 71.4019,77.603 71.4019,76.7697 72.5,76C 70.563,75.8784 69.2297,75.045 68.5,73.5C 70.2972,72.2702 72.2972,71.6036 74.5,71.5 Z"/></g>
<g><path style="opacity:1" fill="#b392a1" d="M 100.5,78.5 C 99.1667,77.8333 97.8333,77.1667 96.5,76.5C 95.3947,74.7769 93.7281,73.7769 91.5,73.5C 91.9175,72.7784 92.5842,72.2784 93.5,72C 89.8297,71.7208 86.163,71.8875 82.5,72.5C 82.4142,71.5041 82.7476,70.6708 83.5,70C 88.6059,70.1138 93.2726,69.2805 97.5,67.5C 99.1645,66.6938 100.831,67.0271 102.5,68.5C 101.998,69.7164 101.665,70.8831 101.5,72C 104.544,72.3589 104.878,73.0255 102.5,74C 104.531,74.6322 106.198,75.7988 107.5,77.5C 106.085,82.037 103.752,82.3703 100.5,78.5 Z"/></g>
<g><path style="opacity:1" fill="#a6c9df" d="M 85.5,73.5 C 87.5,73.5 89.5,73.5 91.5,73.5C 93.7281,73.7769 95.3947,74.7769 96.5,76.5C 96.3893,77.1174 96.056,77.6174 95.5,78C 91.1794,78.499 86.8461,78.6657 82.5,78.5C 82.5,77.1667 82.5,75.8333 82.5,74.5C 83.791,74.7373 84.791,74.404 85.5,73.5 Z"/></g>
<g><path style="opacity:1" fill="#7b9ba8" d="M 81.5,73.5 C 82.8333,73.5 84.1667,73.5 85.5,73.5C 84.791,74.404 83.791,74.7373 82.5,74.5C 82.5,75.8333 82.5,77.1667 82.5,78.5C 86.8461,78.6657 91.1794,78.499 95.5,78C 96.056,77.6174 96.3893,77.1174 96.5,76.5C 97.8333,77.1667 99.1667,77.8333 100.5,78.5C 100.5,79.5 100.5,80.5 100.5,81.5C 99.5,81.5 98.5,81.5 97.5,81.5C 92.0256,82.0132 86.6923,83.0132 81.5,84.5C 82.9187,83.5489 84.5853,83.2155 86.5,83.5C 86.5,82.5 86.5,81.5 86.5,80.5C 82.8183,80.6653 79.1516,80.4986 75.5,80C 73.4936,79.9174 72.4936,79.4174 72.5,78.5C 75.5448,78.5079 78.5448,78.8413 81.5,79.5C 81.5,77.5 81.5,75.5 81.5,73.5 Z"/></g>
<g><path style="opacity:0.996" fill="#ddf1f9" d="M 28.5,70.5 C 28.3893,71.1174 28.056,71.6174 27.5,72C 25.1667,72.3333 22.8333,72.6667 20.5,73C 17.9153,76.8374 18.2486,77.1708 21.5,74C 25,73.5 28.5,73 32,72.5C 36.3771,72.9346 36.5437,74.1013 32.5,76C 33.7375,76.2321 34.7375,76.7321 35.5,77.5C 34.5084,77.3284 33.8417,77.6618 33.5,78.5C 32.3646,80.2132 30.698,80.8799 28.5,80.5C 25.0189,80.0675 22.6856,81.4008 21.5,84.5C 19.8958,85.287 19.2291,86.6203 19.5,88.5C 18.7611,88.631 18.0944,88.4643 17.5,88C 17.5012,86.6012 17.8346,85.1012 18.5,83.5C 17.4688,82.2997 16.6355,80.9663 16,79.5C 14.8072,74.93 16.8072,71.93 22,70.5C 24.2074,71.7048 26.3741,71.7048 28.5,70.5 Z"/></g>
<g><path style="opacity:1" fill="#aab4c6" d="M 43.5,71.5 C 41.0428,73.3324 41.0428,74.9991 43.5,76.5C 43.2852,78.1788 43.9519,79.1788 45.5,79.5C 45.043,82.3093 45.043,84.976 45.5,87.5C 44.8333,87.5 44.1667,87.5 43.5,87.5C 41.8235,86.8166 41.1568,85.4832 41.5,83.5C 38.8915,83.4003 36.5582,84.0669 34.5,85.5C 32.8323,83.0091 33.1656,80.8425 35.5,79C 34.9056,78.5357 34.2389,78.369 33.5,78.5C 33.8417,77.6618 34.5084,77.3284 35.5,77.5C 37.1042,76.713 37.7709,75.3797 37.5,73.5C 39.6854,73.2964 41.6854,72.6298 43.5,71.5 Z"/></g>
<g><path style="opacity:1" fill="#91acb8" d="M 68.5,73.5 C 69.2297,75.045 70.563,75.8784 72.5,76C 71.4019,76.7697 71.4019,77.603 72.5,78.5C 72.4936,79.4174 73.4936,79.9174 75.5,80C 79.1516,80.4986 82.8183,80.6653 86.5,80.5C 86.5,81.5 86.5,82.5 86.5,83.5C 84.5853,83.2155 82.9187,83.5489 81.5,84.5C 78.6727,85.3683 75.6727,85.3683 72.5,84.5C 66.4775,82.331 60.1441,80.9977 53.5,80.5C 54.1925,79.4822 54.8592,78.4822 55.5,77.5C 60.495,78.1616 64.8284,76.8283 68.5,73.5 Z"/></g>
<g><path style="opacity:1" fill="#8da0b4" d="M 33.5,78.5 C 34.2389,78.369 34.9056,78.5357 35.5,79C 33.1656,80.8425 32.8323,83.0091 34.5,85.5C 32.6716,84.2055 30.6716,83.2055 28.5,82.5C 28.762,83.9778 28.4287,85.3112 27.5,86.5C 26.2302,84.2432 26.5636,82.2432 28.5,80.5C 30.698,80.8799 32.3646,80.2132 33.5,78.5 Z"/></g>
<g><path style="opacity:1" fill="#d1b1ba" d="M 112.5,83.5 C 111.01,85.581 110.01,87.9143 109.5,90.5C 106.99,90.0535 104.99,90.7202 103.5,92.5C 101.589,92.5743 100.422,93.5743 100,95.5C 99.5,95 99,94.5 98.5,94C 100.037,92.8904 100.703,91.3904 100.5,89.5C 98.2646,89.7947 96.2646,89.4614 94.5,88.5C 95.209,87.596 96.209,87.2627 97.5,87.5C 99.0315,86.3226 100.532,84.9893 102,83.5C 102.667,84.1667 103.333,84.8333 104,85.5C 106.563,84.259 109.063,82.9256 111.5,81.5C 112.298,81.9569 112.631,82.6236 112.5,83.5 Z"/></g>
<g><path style="opacity:1" fill="#a08e9b" d="M 119.5,69.5 C 120.833,69.5 122.167,69.5 123.5,69.5C 123.5,70.1667 123.833,70.5 124.5,70.5C 122.971,70.681 121.304,71.0143 119.5,71.5C 118.794,73.704 117.794,75.704 116.5,77.5C 115.776,79.2184 115.109,81.0517 114.5,83C 118.361,83.5691 118.361,84.4024 114.5,85.5C 113.725,87.3964 112.725,89.063 111.5,90.5C 110.833,90.5 110.167,90.5 109.5,90.5C 110.01,87.9143 111.01,85.581 112.5,83.5C 113.082,80.7276 114.082,78.0609 115.5,75.5C 115.977,72.9748 117.31,70.9748 119.5,69.5 Z"/></g>
<g><path style="opacity:1" fill="#d0becb" d="M 45.5,79.5 C 47.3464,79.2222 48.6798,79.8888 49.5,81.5C 47.6726,83.4872 46.6726,85.8205 46.5,88.5C 51.7767,87.9165 52.4434,88.9165 48.5,91.5C 47.2112,90.3634 46.2112,89.0301 45.5,87.5C 45.043,84.976 45.043,82.3093 45.5,79.5 Z"/></g>
<g><path style="opacity:1" fill="#c0a2aa" d="M 64.5,69.5 C 61.5983,71.9172 58.265,73.7505 54.5,75C 53.434,76.159 53.7673,76.9924 55.5,77.5C 54.8592,78.4822 54.1925,79.4822 53.5,80.5C 60.1441,80.9977 66.4775,82.331 72.5,84.5C 70.8333,84.5 69.1667,84.5 67.5,84.5C 67.5,85.8333 67.5,87.1667 67.5,88.5C 65.7741,88.1854 64.1075,88.0187 62.5,88C 64.1749,88.9853 65.8415,89.8186 67.5,90.5C 61.7104,90.0962 56.0438,90.5962 50.5,92C 50.1667,92.3333 49.8333,92.6667 49.5,93C 51.0738,94.8259 51.9071,96.9925 52,99.5C 53.0113,100.337 54.1779,100.67 55.5,100.5C 55.5,101.5 55.5,102.5 55.5,103.5C 53.7105,102.123 51.7105,101.123 49.5,100.5C 48.3702,98.6854 47.7036,96.6854 47.5,94.5C 48.1098,93.609 48.4431,92.609 48.5,91.5C 52.4434,88.9165 51.7767,87.9165 46.5,88.5C 46.6726,85.8205 47.6726,83.4872 49.5,81.5C 48.6798,79.8888 47.3464,79.2222 45.5,79.5C 43.9519,79.1788 43.2852,78.1788 43.5,76.5C 46.4323,75.2003 48.7656,73.2003 50.5,70.5C 54.0532,70.1561 57.5532,69.4894 61,68.5C 62.1385,68.9891 63.3052,69.3225 64.5,69.5 Z"/></g>
<g><path style="opacity:1" fill="#aa7e80" d="M 97.5,81.5 C 97.6716,82.4916 97.3382,83.1583 96.5,83.5C 92.851,83.9542 89.351,84.9542 86,86.5C 83.8273,85.8712 81.8273,86.5379 80,88.5C 78.1862,87.2404 76.3529,87.2404 74.5,88.5C 76.7249,89.8935 79.0582,91.0602 81.5,92C 80.4019,92.7697 80.4019,93.603 81.5,94.5C 79.7085,94.634 78.0418,94.3007 76.5,93.5C 75.1993,92.0378 73.6993,90.7044 72,89.5C 70.5603,90.1476 69.0603,90.4809 67.5,90.5C 65.8415,89.8186 64.1749,88.9853 62.5,88C 64.1075,88.0187 65.7741,88.1854 67.5,88.5C 67.5,87.1667 67.5,85.8333 67.5,84.5C 69.1667,84.5 70.8333,84.5 72.5,84.5C 75.6727,85.3683 78.6727,85.3683 81.5,84.5C 86.6923,83.0132 92.0256,82.0132 97.5,81.5 Z"/></g>
<g><path style="opacity:1" fill="#acc1d1" d="M 28.5,80.5 C 26.5636,82.2432 26.2302,84.2432 27.5,86.5C 28.4287,85.3112 28.762,83.9778 28.5,82.5C 30.6716,83.2055 32.6716,84.2055 34.5,85.5C 36.5582,84.0669 38.8915,83.4003 41.5,83.5C 41.1568,85.4832 41.8235,86.8166 43.5,87.5C 43.5,88.8333 43.5,90.1667 43.5,91.5C 39.0065,87.851 34.6731,87.851 30.5,91.5C 29.7326,90.828 29.0659,89.9947 28.5,89C 26.1902,88.5034 23.8568,88.3367 21.5,88.5C 21.5,87.1667 21.5,85.8333 21.5,84.5C 22.6856,81.4008 25.0189,80.0675 28.5,80.5 Z"/></g>
<g><path style="opacity:1" fill="#dae9f9" d="M 43.5,87.5 C 44.1667,87.5 44.8333,87.5 45.5,87.5C 46.2112,89.0301 47.2112,90.3634 48.5,91.5C 48.4431,92.609 48.1098,93.609 47.5,94.5C 46.1667,93.5 44.8333,92.5 43.5,91.5C 43.5,90.1667 43.5,88.8333 43.5,87.5 Z"/></g>
<g><path style="opacity:1" fill="#d5b2ab" d="M 76.5,93.5 C 76.5,94.1667 76.5,94.8333 76.5,95.5C 73.2696,93.9772 69.9363,92.6439 66.5,91.5C 60.9965,94.517 60.1632,98.517 64,103.5C 65.6995,104.406 67.5328,104.739 69.5,104.5C 69.3284,105.492 69.6618,106.158 70.5,106.5C 70.5,108.167 70.5,109.833 70.5,111.5C 68.2459,110.585 66.2459,109.252 64.5,107.5C 61.9466,105.416 58.9466,104.083 55.5,103.5C 55.5,102.5 55.5,101.5 55.5,100.5C 54.1779,100.67 53.0113,100.337 52,99.5C 51.9071,96.9925 51.0738,94.8259 49.5,93C 49.8333,92.6667 50.1667,92.3333 50.5,92C 56.0438,90.5962 61.7104,90.0962 67.5,90.5C 69.0603,90.4809 70.5603,90.1476 72,89.5C 73.6993,90.7044 75.1993,92.0378 76.5,93.5 Z"/></g>
<g><path style="opacity:1" fill="#ddf4fb" d="M 150.5,86.5 C 151.641,89.6399 151.808,92.9733 151,96.5C 148.741,98.2462 147.408,100.58 147,103.5C 141.072,106.167 135.072,108.834 129,111.5C 127.312,113.519 125.312,115.186 123,116.5C 122.517,117.448 122.351,118.448 122.5,119.5C 121.448,119.351 120.448,119.517 119.5,120C 119.833,120.333 120.167,120.667 120.5,121C 116.827,125.336 112.16,127.169 106.5,126.5C 107.903,125.069 109.569,123.902 111.5,123C 110.922,121.583 109.922,120.75 108.5,120.5C 112.535,118.794 115.202,115.794 116.5,111.5C 118.833,111.167 120.167,109.833 120.5,107.5C 127.993,107.449 131.993,103.782 132.5,96.5C 134.543,95.4206 135.876,93.754 136.5,91.5C 139.571,90.3392 142.571,90.6726 145.5,92.5C 146.711,91.7261 146.711,90.8928 145.5,90C 147.365,89.0357 149.032,87.8691 150.5,86.5 Z"/></g>
<g><path style="opacity:1" fill="#a4b9d2" d="M 43.5,91.5 C 44.8333,92.5 46.1667,93.5 47.5,94.5C 47.7036,96.6854 48.3702,98.6854 49.5,100.5C 48.8501,100.196 48.1835,99.8627 47.5,99.5C 46.1233,102.726 44.4566,103.059 42.5,100.5C 42.8457,99.3044 43.3457,99.3044 44,100.5C 44.7494,99.365 44.5827,98.365 43.5,97.5C 41.4024,97.9572 39.7358,98.9572 38.5,100.5C 37.5,100.5 36.5,100.5 35.5,100.5C 35.6212,98.1303 35.1212,95.7969 34,93.5C 32.6976,92.9152 31.531,92.2485 30.5,91.5C 34.6731,87.851 39.0065,87.851 43.5,91.5 Z"/></g>
<g><path style="opacity:1" fill="#c9dfed" d="M 21.5,84.5 C 21.5,85.8333 21.5,87.1667 21.5,88.5C 23.8568,88.3367 26.1902,88.5034 28.5,89C 29.0659,89.9947 29.7326,90.828 30.5,91.5C 31.531,92.2485 32.6976,92.9152 34,93.5C 35.1212,95.7969 35.6212,98.1303 35.5,100.5C 34.1266,100.657 32.7932,100.49 31.5,100C 26.9218,96.5779 22.9218,92.7446 19.5,88.5C 19.2291,86.6203 19.8958,85.287 21.5,84.5 Z"/></g>
<g><path style="opacity:1" fill="#cb8f8f" d="M 96.5,83.5 C 96.8333,84.8333 97.1667,86.1667 97.5,87.5C 96.209,87.2627 95.209,87.596 94.5,88.5C 93.6236,88.3691 92.9569,88.7025 92.5,89.5C 93.376,90.2508 94.376,90.7508 95.5,91C 95.1667,91.3333 94.8333,91.6667 94.5,92C 96.9818,93.4606 96.9818,94.9606 94.5,96.5C 91.5547,97.4675 88.5547,97.6342 85.5,97C 83.563,96.8784 82.2297,96.045 81.5,94.5C 80.4019,93.603 80.4019,92.7697 81.5,92C 79.0582,91.0602 76.7249,89.8935 74.5,88.5C 76.3529,87.2404 78.1862,87.2404 80,88.5C 81.8273,86.5379 83.8273,85.8712 86,86.5C 89.351,84.9542 92.851,83.9542 96.5,83.5 Z"/></g>
<g><path style="opacity:1" fill="#d0a7a8" d="M 94.5,88.5 C 96.2646,89.4614 98.2646,89.7947 100.5,89.5C 100.703,91.3904 100.037,92.8904 98.5,94C 99,94.5 99.5,95 100,95.5C 100.422,93.5743 101.589,92.5743 103.5,92.5C 101.771,96.7553 99.1041,100.422 95.5,103.5C 95.5,102.833 95.5,102.167 95.5,101.5C 95.6243,99.4184 96.6243,97.9184 98.5,97C 96.8853,96.9378 95.5519,96.7711 94.5,96.5C 96.9818,94.9606 96.9818,93.4606 94.5,92C 94.8333,91.6667 95.1667,91.3333 95.5,91C 94.376,90.7508 93.376,90.2508 92.5,89.5C 92.9569,88.7025 93.6236,88.3691 94.5,88.5 Z"/></g>
<g><path style="opacity:1" fill="#b39ead" d="M 116.5,77.5 C 118.043,78.5598 119.043,80.0598 119.5,82C 118.264,83.8556 118.264,85.6889 119.5,87.5C 120.849,90.5066 122.849,92.84 125.5,94.5C 125.829,97.2282 125.163,99.5615 123.5,101.5C 120.721,101.279 118.054,101.612 115.5,102.5C 115.66,100.801 115.494,99.1341 115,97.5C 113.989,98.3366 112.822,98.67 111.5,98.5C 112.371,95.7284 112.371,93.0618 111.5,90.5C 112.725,89.063 113.725,87.3964 114.5,85.5C 118.361,84.4024 118.361,83.5691 114.5,83C 115.109,81.0517 115.776,79.2184 116.5,77.5 Z"/></g>
<g><path style="opacity:1" fill="#cbdfe9" d="M 132.5,96.5 C 131.993,103.782 127.993,107.449 120.5,107.5C 119.518,108.141 118.518,108.807 117.5,109.5C 116.417,108.635 116.251,107.635 117,106.5C 119.067,104.587 121.234,102.92 123.5,101.5C 125.163,99.5615 125.829,97.2282 125.5,94.5C 128.899,94.4505 130.232,92.9505 129.5,90C 130.56,88.702 131.726,87.5353 133,86.5C 134.732,86.7336 135.566,87.7336 135.5,89.5C 134.749,91.9963 133.749,94.3296 132.5,96.5 Z"/></g>
<g><path style="opacity:1" fill="#ca9c92" d="M 76.5,93.5 C 78.0418,94.3007 79.7085,94.634 81.5,94.5C 82.2297,96.045 83.563,96.8784 85.5,97C 88.5547,97.6342 91.5547,97.4675 94.5,96.5C 95.5519,96.7711 96.8853,96.9378 98.5,97C 96.6243,97.9184 95.6243,99.4184 95.5,101.5C 91.5368,101.662 87.8701,102.662 84.5,104.5C 82.3961,101.854 80.7294,98.8538 79.5,95.5C 79.2514,96.5821 79.0848,97.9154 79,99.5C 78.3292,98.7476 77.4959,98.4142 76.5,98.5C 76.5,97.5 76.5,96.5 76.5,95.5C 76.5,94.8333 76.5,94.1667 76.5,93.5 Z"/></g>
<g><path style="opacity:1" fill="#b09194" d="M 109.5,90.5 C 110.167,90.5 110.833,90.5 111.5,90.5C 112.371,93.0618 112.371,95.7284 111.5,98.5C 112.822,98.67 113.989,98.3366 115,97.5C 115.494,99.1341 115.66,100.801 115.5,102.5C 115.5,102.833 115.5,103.167 115.5,103.5C 111.14,104.295 107.14,105.962 103.5,108.5C 101.983,108.489 100.816,107.823 100,106.5C 97.9935,107.669 95.8268,108.335 93.5,108.5C 93.5,109.833 93.5,111.167 93.5,112.5C 91.5695,112.229 90.2362,111.229 89.5,109.5C 88.4502,109.095 88.4502,108.429 89.5,107.5C 91.5286,106.156 93.5286,104.823 95.5,103.5C 99.1041,100.422 101.771,96.7553 103.5,92.5C 104.99,90.7202 106.99,90.0535 109.5,90.5 Z"/></g>
<g><path style="opacity:1" fill="#e2a984" d="M 76.5,95.5 C 76.5,96.5 76.5,97.5 76.5,98.5C 76.0113,99.9952 75.3446,101.329 74.5,102.5C 73.7494,101.427 72.7494,101.26 71.5,102C 70.9341,102.995 70.2674,103.828 69.5,104.5C 67.5328,104.739 65.6995,104.406 64,103.5C 60.1632,98.517 60.9965,94.517 66.5,91.5C 69.9363,92.6439 73.2696,93.9772 76.5,95.5 Z"/></g>
<g><path style="opacity:0.005" fill="#f3feff" d="M 35.5,100.5 C 36.5,100.5 37.5,100.5 38.5,100.5C 40.1788,100.285 41.1788,100.952 41.5,102.5C 41.5654,102.938 41.3988,103.272 41,103.5C 39.1239,102.391 37.2905,101.391 35.5,100.5 Z"/></g>
<g><path style="opacity:1" fill="#aec8e1" d="M 49.5,100.5 C 51.7105,101.123 53.7105,102.123 55.5,103.5C 57.5929,108.416 55.9262,110.416 50.5,109.5C 47.7911,107.444 45.1244,105.444 42.5,103.5C 42.5,102.833 42.1667,102.5 41.5,102.5C 41.1788,100.952 40.1788,100.285 38.5,100.5C 39.7358,98.9572 41.4024,97.9572 43.5,97.5C 44.5827,98.365 44.7494,99.365 44,100.5C 43.3457,99.3044 42.8457,99.3044 42.5,100.5C 44.4566,103.059 46.1233,102.726 47.5,99.5C 48.1835,99.8627 48.8501,100.196 49.5,100.5 Z"/></g>
<g><path style="opacity:1" fill="#ceb096" d="M 84.5,104.5 C 83.5,105.167 82.5,105.833 81.5,106.5C 78.6829,105.905 76.3495,104.572 74.5,102.5C 75.3446,101.329 76.0113,99.9952 76.5,98.5C 77.4959,98.4142 78.3292,98.7476 79,99.5C 79.0848,97.9154 79.2514,96.5821 79.5,95.5C 80.7294,98.8538 82.3961,101.854 84.5,104.5 Z"/></g>
<g><path style="opacity:1" fill="#cdb5ad" d="M 95.5,101.5 C 95.5,102.167 95.5,102.833 95.5,103.5C 93.5286,104.823 91.5286,106.156 89.5,107.5C 88.4502,108.429 88.4502,109.095 89.5,109.5C 89.2671,111.062 88.6005,112.395 87.5,113.5C 85.9582,112.699 84.2915,112.366 82.5,112.5C 82.7373,111.209 82.404,110.209 81.5,109.5C 81.5,108.833 81.5,108.167 81.5,107.5C 81.5,107.167 81.5,106.833 81.5,106.5C 82.5,105.833 83.5,105.167 84.5,104.5C 87.8701,102.662 91.5368,101.662 95.5,101.5 Z"/></g>
<g><path style="opacity:1" fill="#d2ceb4" d="M 74.5,102.5 C 76.3495,104.572 78.6829,105.905 81.5,106.5C 81.5,106.833 81.5,107.167 81.5,107.5C 77.8019,107.448 74.1352,107.114 70.5,106.5C 69.6618,106.158 69.3284,105.492 69.5,104.5C 70.2674,103.828 70.9341,102.995 71.5,102C 72.7494,101.26 73.7494,101.427 74.5,102.5 Z"/></g>
<g><path style="opacity:0.016" fill="#edf7f9" d="M 41.5,106.5 C 42.2891,106.783 42.9558,107.283 43.5,108C 42.184,108.528 41.5173,108.028 41.5,106.5 Z"/></g>
<g><path style="opacity:1" fill="#cad9d9" d="M 70.5,106.5 C 74.1352,107.114 77.8019,107.448 81.5,107.5C 81.5,108.167 81.5,108.833 81.5,109.5C 81.5,110.833 81.5,112.167 81.5,113.5C 77.4975,113.964 73.8309,113.298 70.5,111.5C 70.5,109.833 70.5,108.167 70.5,106.5 Z"/></g>
<g><path style="opacity:1" fill="#b8abb1" d="M 103.5,108.5 C 100.992,110.924 97.9922,112.59 94.5,113.5C 94.5,112.833 94.1667,112.5 93.5,112.5C 93.5,111.167 93.5,109.833 93.5,108.5C 95.8268,108.335 97.9935,107.669 100,106.5C 100.816,107.823 101.983,108.489 103.5,108.5 Z"/></g>
<g><path style="opacity:1" fill="#97929e" d="M 89.5,109.5 C 90.2362,111.229 91.5695,112.229 93.5,112.5C 94.1667,112.5 94.5,112.833 94.5,113.5C 92.9731,113.427 91.9731,114.094 91.5,115.5C 93.364,117.014 95.364,118.347 97.5,119.5C 94.812,119.834 92.4786,119.168 90.5,117.5C 90.2624,115.596 89.2624,114.262 87.5,113.5C 88.6005,112.395 89.2671,111.062 89.5,109.5 Z"/></g>
<g><path style="opacity:1" fill="#a7b7c7" d="M 115.5,103.5 C 111.818,104.856 109.485,107.523 108.5,111.5C 107.675,112.386 106.675,112.719 105.5,112.5C 105.719,113.675 105.386,114.675 104.5,115.5C 100.244,115.064 95.9107,115.064 91.5,115.5C 91.9731,114.094 92.9731,113.427 94.5,113.5C 97.9922,112.59 100.992,110.924 103.5,108.5C 107.14,105.962 111.14,104.295 115.5,103.5 Z"/></g>
<g><path style="opacity:1" fill="#c9e0ee" d="M 55.5,103.5 C 58.9466,104.083 61.9466,105.416 64.5,107.5C 64.5394,108.583 64.8728,109.583 65.5,110.5C 64.3493,111.731 63.1827,111.731 62,110.5C 60.9025,111.967 59.4025,112.801 57.5,113C 66.2446,115.886 75.2446,117.386 84.5,117.5C 82.4973,119.982 79.8306,120.982 76.5,120.5C 76.67,121.822 76.3366,122.989 75.5,124C 76.448,124.483 77.448,124.649 78.5,124.5C 78.5,125.833 78.5,127.167 78.5,128.5C 76.1944,128.007 73.861,127.674 71.5,127.5C 68.3135,126.403 65.3135,125.07 62.5,123.5C 63.1408,122.518 63.8075,121.518 64.5,120.5C 61.4914,117.325 57.8247,115.158 53.5,114C 52.5301,112.32 51.5301,110.82 50.5,109.5C 55.9262,110.416 57.5929,108.416 55.5,103.5 Z"/></g>
<g><path style="opacity:1" fill="#b6c7d0" d="M 64.5,107.5 C 66.2459,109.252 68.2459,110.585 70.5,111.5C 73.8309,113.298 77.4975,113.964 81.5,113.5C 81.5,112.167 81.5,110.833 81.5,109.5C 82.404,110.209 82.7373,111.209 82.5,112.5C 84.2915,112.366 85.9582,112.699 87.5,113.5C 89.2624,114.262 90.2624,115.596 90.5,117.5C 88.5,117.5 86.5,117.5 84.5,117.5C 75.2446,117.386 66.2446,115.886 57.5,113C 59.4025,112.801 60.9025,111.967 62,110.5C 63.1827,111.731 64.3493,111.731 65.5,110.5C 64.8728,109.583 64.5394,108.583 64.5,107.5 Z"/></g>
<g><path style="opacity:0.826" fill="#ddf7fe" d="M 42.5,103.5 C 45.1244,105.444 47.7911,107.444 50.5,109.5C 51.5301,110.82 52.5301,112.32 53.5,114C 57.8247,115.158 61.4914,117.325 64.5,120.5C 63.8075,121.518 63.1408,122.518 62.5,123.5C 59.8894,121.855 57.2228,120.188 54.5,118.5C 52.5,114.5 49.5,111.5 45.5,109.5C 44.4867,107.473 43.4867,105.473 42.5,103.5 Z"/></g>
<g><path style="opacity:1" fill="#a5bbcb" d="M 116.5,111.5 C 115.202,115.794 112.535,118.794 108.5,120.5C 107.406,121.582 106.073,122.248 104.5,122.5C 102.28,121.596 100.28,121.263 98.5,121.5C 103.032,120.454 107.366,118.954 111.5,117C 113.254,115.064 114.921,113.23 116.5,111.5 Z"/></g>
<g><path style="opacity:1" fill="#cde3ef" d="M 84.5,117.5 C 86.5,117.5 88.5,117.5 90.5,117.5C 92.4786,119.168 94.812,119.834 97.5,119.5C 97.6198,122.205 96.6198,122.872 94.5,121.5C 91.9439,122.051 89.6106,123.051 87.5,124.5C 89.3435,124.755 91.3435,124.922 93.5,125C 94.3617,127.734 95.195,127.901 96,125.5C 95.9942,127.298 95.6609,128.965 95,130.5C 96.0113,129.663 97.1779,129.33 98.5,129.5C 97.9423,130.79 96.9423,131.623 95.5,132C 90.5298,132.607 85.6965,132.107 81,130.5C 79.1354,132.855 76.9688,133.022 74.5,131C 74.8333,130.667 75.1667,130.333 75.5,130C 74.1416,129.066 72.8083,128.232 71.5,127.5C 73.861,127.674 76.1944,128.007 78.5,128.5C 78.5,127.167 78.5,125.833 78.5,124.5C 77.448,124.649 76.448,124.483 75.5,124C 76.3366,122.989 76.67,121.822 76.5,120.5C 79.8306,120.982 82.4973,119.982 84.5,117.5 Z"/></g>
<g><path style="opacity:1" fill="#c3d8e8" d="M 123.5,101.5 C 121.234,102.92 119.067,104.587 117,106.5C 116.251,107.635 116.417,108.635 117.5,109.5C 118.518,108.807 119.518,108.141 120.5,107.5C 120.167,109.833 118.833,111.167 116.5,111.5C 114.921,113.23 113.254,115.064 111.5,117C 107.366,118.954 103.032,120.454 98.5,121.5C 100.28,121.263 102.28,121.596 104.5,122.5C 106.073,122.248 107.406,121.582 108.5,120.5C 109.922,120.75 110.922,121.583 111.5,123C 109.569,123.902 107.903,125.069 106.5,126.5C 103.977,127.801 101.31,128.801 98.5,129.5C 97.1779,129.33 96.0113,129.663 95,130.5C 95.6609,128.965 95.9942,127.298 96,125.5C 95.195,127.901 94.3617,127.734 93.5,125C 91.3435,124.922 89.3435,124.755 87.5,124.5C 89.6106,123.051 91.9439,122.051 94.5,121.5C 96.6198,122.872 97.6198,122.205 97.5,119.5C 95.364,118.347 93.364,117.014 91.5,115.5C 95.9107,115.064 100.244,115.064 104.5,115.5C 105.386,114.675 105.719,113.675 105.5,112.5C 106.675,112.719 107.675,112.386 108.5,111.5C 109.485,107.523 111.818,104.856 115.5,103.5C 115.5,103.167 115.5,102.833 115.5,102.5C 118.054,101.612 120.721,101.279 123.5,101.5 Z"/></g>
<g><path style="opacity:0.642" fill="#bed2ff" d="M 59.5,134.5 C 60.4959,134.414 61.3292,134.748 62,135.5C 62.413,138.232 63.0797,140.899 64,143.5C 65.8333,141.667 67.6667,139.833 69.5,138C 70.6001,137.568 71.2668,138.068 71.5,139.5C 70.9251,143.482 69.5917,147.149 67.5,150.5C 66.8153,148.219 66.6487,145.886 67,143.5C 65.7365,145.607 63.9032,146.607 61.5,146.5C 60.6059,139.944 59.6059,139.944 58.5,146.5C 58.1667,146.833 57.8333,147.167 57.5,147.5C 57.1667,146.833 56.8333,146.167 56.5,145.5C 57.3485,141.771 58.3485,138.104 59.5,134.5 Z"/></g>
<g><path style="opacity:0.593" fill="#bed2ff" d="M 98.5,136.5 C 104.144,135.481 107.144,137.814 107.5,143.5C 104.679,143.539 102.012,144.205 99.5,145.5C 102.148,148.262 104.481,147.929 106.5,144.5C 107.347,147.866 105.847,149.866 102,150.5C 98.0549,149.142 95.8883,146.309 95.5,142C 96.1242,139.915 97.1242,138.082 98.5,136.5 Z M 100.5,138.5 C 102.346,138.222 103.68,138.889 104.5,140.5C 102.696,141.768 100.696,142.435 98.5,142.5C 98.5271,140.801 99.1938,139.467 100.5,138.5 Z"/></g>
<g><path style="opacity:0.573" fill="#bfd3ff" d="M 77.5,138.5 C 78.5,138.5 79.5,138.5 80.5,138.5C 80.5,140.167 80.5,141.833 80.5,143.5C 82.4672,143.261 84.3005,143.594 86,144.5C 86.4955,142.527 86.6621,140.527 86.5,138.5C 87.5,138.5 88.5,138.5 89.5,138.5C 89.6653,142.182 89.4986,145.848 89,149.5C 88.6924,150.308 88.1924,150.975 87.5,151.5C 86.5481,149.955 86.2148,148.288 86.5,146.5C 84.5,146.5 82.5,146.5 80.5,146.5C 80.5,148.167 80.5,149.833 80.5,151.5C 79.5,151.5 78.5,151.5 77.5,151.5C 77.5,147.167 77.5,142.833 77.5,138.5 Z"/></g>
</svg>
