<?xml version="1.0" encoding="UTF-8"?>
<!DOCTYPE svg PUBLIC "-//W3C//DTD SVG 1.1//EN" "http://www.w3.org/Graphics/SVG/1.1/DTD/svg11.dtd">
<svg xmlns="http://www.w3.org/2000/svg" version="1.1" width="175px" height="175px" style="shape-rendering:geometricPrecision; text-rendering:geometricPrecision; image-rendering:optimizeQuality; fill-rule:evenodd; clip-rule:evenodd" xmlns:xlink="http://www.w3.org/1999/xlink">
<g><path style="opacity:0.734" fill="#e3dac5" d="M 88.5,14.5 C 89.4778,14.811 90.1445,15.4777 90.5,16.5C 88.2338,17.3142 85.9005,17.8142 83.5,18C 82.8333,18.6667 82.1667,19.3333 81.5,20C 89.4741,19.3091 92.3075,22.8091 90,30.5C 89.6258,31.4162 89.1258,32.2496 88.5,33C 79.1625,33.9675 75.9959,29.8008 79,20.5C 79.5831,18.9984 80.4164,17.6651 81.5,16.5C 83.9823,15.9329 86.3157,15.2663 88.5,14.5 Z M 82.5,22.5 C 88.6426,23.0262 89.9759,25.8595 86.5,31C 82.9305,32.1048 80.9305,30.7714 80.5,27C 81.2666,25.5295 81.9332,24.0295 82.5,22.5 Z"/></g>
<g><path style="opacity:0.724" fill="#e3dac4" d="M 62.5,22.5 C 68.4708,21.7995 71.8041,24.4662 72.5,30.5C 70.6908,36.7523 67.0241,38.0857 61.5,34.5C 58.6946,30.2075 59.0279,26.2075 62.5,22.5 Z M 64.5,24.5 C 69.2442,25.8522 70.5775,28.8522 68.5,33.5C 64.3824,34.752 62.0491,33.0853 61.5,28.5C 62.1716,26.8405 63.1716,25.5072 64.5,24.5 Z"/></g>
<g><path style="opacity:0.75" fill="#e3dac4" d="M 100.5,23.5 C 109.16,23.8136 111.326,27.8136 107,35.5C 101.673,38.7488 98.1731,37.4155 96.5,31.5C 96.7997,28.2335 98.1331,25.5669 100.5,23.5 Z M 101.5,25.5 C 106.213,25.4676 107.713,27.8009 106,32.5C 102.954,36.6372 100.454,36.3038 98.5,31.5C 99.1286,29.2592 100.129,27.2592 101.5,25.5 Z"/></g>
<g><path style="opacity:0.047" fill="#fdfcbc" d="M 101.5,48.5 C 94.0984,45.4663 86.4318,44.7996 78.5,46.5C 74.9758,46.0994 71.6424,45.4328 68.5,44.5C 69.766,43.9101 71.0993,43.4101 72.5,43C 72.1667,42.6667 71.8333,42.3333 71.5,42C 72.8333,41.8333 74.1667,41.6667 75.5,41.5C 81.8418,41.6463 88.1751,41.6463 94.5,41.5C 97.9507,42.7498 100.284,45.0832 101.5,48.5 Z"/></g>
<g><path style="opacity:0.99" fill="#fefeba" d="M 139.5,62.5 C 135.838,64.0707 133.172,62.904 131.5,59C 133.992,57.7508 133.825,56.5842 131,55.5C 129.561,57.0139 128.061,57.3473 126.5,56.5C 131.979,54.4918 131.812,53.1584 126,52.5C 125.667,52.8333 125.333,53.1667 125,53.5C 124.517,52.552 124.351,51.552 124.5,50.5C 122.019,50.3234 120.186,51.3234 119,53.5C 118.667,53.1667 118.333,52.8333 118,52.5C 115.379,53.9915 112.545,54.6582 109.5,54.5C 106.697,54.0387 104.363,52.7053 102.5,50.5C 101.662,50.1583 101.328,49.4916 101.5,48.5C 104.195,48.933 106.362,50.2663 108,52.5C 108.567,49.8323 109.067,47.1656 109.5,44.5C 121.585,43.5675 131.085,47.9008 138,57.5C 138.352,59.2475 138.852,60.9142 139.5,62.5 Z"/></g>
<g><path style="opacity:1" fill="#fefcb0" d="M 139.5,62.5 C 143.576,70.3211 147.409,78.3211 151,86.5C 151.808,90.0267 151.641,93.3601 150.5,96.5C 149.766,95.2921 149.433,93.9587 149.5,92.5C 144.964,92.5673 140.631,91.9006 136.5,90.5C 138.292,89.6909 140.292,89.1909 142.5,89C 143.337,87.9887 143.67,86.8221 143.5,85.5C 138.908,86.0838 136.075,84.0838 135,79.5C 131.365,76.7014 127.865,73.7014 124.5,70.5C 122.199,67.525 119.865,64.525 117.5,61.5C 116.311,60.5713 114.978,60.238 113.5,60.5C 114.067,57.0886 112.734,55.0886 109.5,54.5C 112.545,54.6582 115.379,53.9915 118,52.5C 118.333,52.8333 118.667,53.1667 119,53.5C 120.186,51.3234 122.019,50.3234 124.5,50.5C 124.351,51.552 124.517,52.552 125,53.5C 125.333,53.1667 125.667,52.8333 126,52.5C 131.812,53.1584 131.979,54.4918 126.5,56.5C 128.061,57.3473 129.561,57.0139 131,55.5C 133.825,56.5842 133.992,57.7508 131.5,59C 133.172,62.904 135.838,64.0707 139.5,62.5 Z"/></g>
<g><path style="opacity:1" fill="#f4bf6a" d="M 78.5,48.5 C 77.7611,48.369 77.0944,48.5357 76.5,49C 78.6526,49.0995 80.3192,49.9328 81.5,51.5C 81.0629,53.0744 80.0629,54.2411 78.5,55C 82.4314,57.1414 82.0981,58.8081 77.5,60C 78.448,60.4828 79.448,60.6495 80.5,60.5C 80.33,61.8221 80.6634,62.9887 81.5,64C 84.5716,64.4559 87.5716,64.4559 90.5,64C 89.3066,65.0946 87.9733,65.928 86.5,66.5C 86.2648,65.9033 85.7648,65.5699 85,65.5C 84,66.1667 83,66.8333 82,67.5C 76.6919,65.6919 71.3585,65.0253 66,65.5C 63.3999,65.9177 61.2332,67.0844 59.5,69C 56.5184,69.498 53.5184,69.6646 50.5,69.5C 53.0771,67.235 55.9105,65.235 59,63.5C 60.9338,61.5812 60.7671,60.0812 58.5,59C 62.8908,57.2953 66.8908,54.7953 70.5,51.5C 69.2178,48.8674 67.8844,48.8674 66.5,51.5C 65.2888,50.7261 65.2888,49.8928 66.5,49C 70.4426,46.165 74.4426,45.9984 78.5,48.5 Z"/></g>
<g><path style="opacity:1" fill="#fbeca2" d="M 56.5,50.5 C 55.391,55.119 53.5577,59.4523 51,63.5C 49.1599,66.8974 46.6599,69.5641 43.5,71.5C 42.391,71.5569 41.391,71.8902 40.5,72.5C 39.7611,72.631 39.0944,72.4643 38.5,72C 39.7736,71.0228 39.7736,70.1894 38.5,69.5C 40.0569,65.9335 42.0569,62.6002 44.5,59.5C 48.5681,56.4793 52.5681,53.4793 56.5,50.5 Z"/></g>
<g><path style="opacity:1" fill="#f6ce7b" d="M 68.5,44.5 C 71.6424,45.4328 74.9758,46.0994 78.5,46.5C 86.4318,44.7996 94.0984,45.4663 101.5,48.5C 101.328,49.4916 101.662,50.1583 102.5,50.5C 102.5,50.8333 102.5,51.1667 102.5,51.5C 101.833,51.5 101.167,51.5 100.5,51.5C 99.123,52.4962 97.623,53.4962 96,54.5C 94.8333,53 93.6667,51.5 92.5,50C 93.8333,49.6667 95.1667,49.3333 96.5,49C 94.5273,48.5045 92.5273,48.3379 90.5,48.5C 86.6579,47.4608 82.6579,47.4608 78.5,48.5C 74.4426,45.9984 70.4426,46.165 66.5,49C 65.2888,49.8928 65.2888,50.7261 66.5,51.5C 67.8844,48.8674 69.2178,48.8674 70.5,51.5C 66.8908,54.7953 62.8908,57.2953 58.5,59C 60.7671,60.0812 60.9338,61.5812 59,63.5C 55.9105,65.235 53.0771,67.235 50.5,69.5C 50.2671,71.0618 49.6005,72.3951 48.5,73.5C 46.326,73.7497 44.6594,74.7497 43.5,76.5C 41.0428,74.9991 41.0428,73.3324 43.5,71.5C 46.6599,69.5641 49.1599,66.8974 51,63.5C 53.5577,59.4523 55.391,55.119 56.5,50.5C 59.9024,47.4654 63.9024,45.4654 68.5,44.5 Z"/></g>
<g><path style="opacity:1" fill="#ffec95" d="M 90.5,48.5 C 87.2976,49.0468 84.2976,50.0468 81.5,51.5C 80.3192,49.9328 78.6526,49.0995 76.5,49C 77.0944,48.5357 77.7611,48.369 78.5,48.5C 82.6579,47.4608 86.6579,47.4608 90.5,48.5 Z"/></g>
<g><path style="opacity:1" fill="#f8c575" d="M 90.5,48.5 C 92.5273,48.3379 94.5273,48.5045 96.5,49C 95.1667,49.3333 93.8333,49.6667 92.5,50C 93.6667,51.5 94.8333,53 96,54.5C 97.623,53.4962 99.123,52.4962 100.5,51.5C 101.833,53.5 101.833,55.5 100.5,57.5C 99.5272,56.2086 98.5272,56.2086 97.5,57.5C 95.9893,59.8158 95.656,62.1491 96.5,64.5C 93.359,64.949 90.359,65.949 87.5,67.5C 86.8933,67.3764 86.56,67.0431 86.5,66.5C 87.9733,65.928 89.3066,65.0946 90.5,64C 87.5716,64.4559 84.5716,64.4559 81.5,64C 80.6634,62.9887 80.33,61.8221 80.5,60.5C 79.448,60.6495 78.448,60.4828 77.5,60C 82.0981,58.8081 82.4314,57.1414 78.5,55C 80.0629,54.2411 81.0629,53.0744 81.5,51.5C 84.2976,50.0468 87.2976,49.0468 90.5,48.5 Z"/></g>
<g><path style="opacity:1" fill="#fce08d" d="M 86.5,50.5 C 87.8333,50.5 89.1667,50.5 90.5,50.5C 91.0138,52.5116 91.1805,54.5116 91,56.5C 89.414,57.376 87.914,58.376 86.5,59.5C 85.6663,57.1655 84.3329,55.1655 82.5,53.5C 83.9014,52.4793 85.2347,51.4793 86.5,50.5 Z"/></g>
<g><path style="opacity:1" fill="#e2c579" d="M 102.5,50.5 C 104.363,52.7053 106.697,54.0387 109.5,54.5C 112.734,55.0886 114.067,57.0886 113.5,60.5C 114.978,60.238 116.311,60.5713 117.5,61.5C 119.865,64.525 122.199,67.525 124.5,70.5C 122.699,72.1378 121.033,73.9711 119.5,76C 119.314,77.8665 119.647,79.8665 120.5,82C 120.164,83.0299 119.497,83.5299 118.5,83.5C 118.283,78.7697 118.617,74.1031 119.5,69.5C 117.113,67.0869 114.946,64.4202 113,61.5C 111.989,62.3366 110.822,62.67 109.5,62.5C 109.611,61.8826 109.944,61.3826 110.5,61C 107.241,58.3054 104.575,55.1388 102.5,51.5C 102.5,51.1667 102.5,50.8333 102.5,50.5 Z"/></g>
<g><path style="opacity:1" fill="#fbd289" d="M 100.5,51.5 C 101.167,51.5 101.833,51.5 102.5,51.5C 104.575,55.1388 107.241,58.3054 110.5,61C 109.944,61.3826 109.611,61.8826 109.5,62.5C 110.059,65.8434 111.392,68.8434 113.5,71.5C 111.604,72.4656 109.604,72.7989 107.5,72.5C 106.432,71.5655 105.099,71.2322 103.5,71.5C 103.665,67.8183 103.499,64.1516 103,60.5C 102.148,59.4293 101.315,58.4293 100.5,57.5C 101.833,55.5 101.833,53.5 100.5,51.5 Z"/></g>
<g><path style="opacity:0.043" fill="#fffec8" d="M 28.5,70.5 C 28.3893,71.1174 28.056,71.6174 27.5,72C 24.854,72.4974 22.1873,72.6641 19.5,72.5C 19.7911,71.3509 20.6244,70.6842 22,70.5C 24.2074,71.7048 26.3741,71.7048 28.5,70.5 Z"/></g>
<g><path style="opacity:1" fill="#ddd88f" d="M 38.5,69.5 C 39.7736,70.1894 39.7736,71.0228 38.5,72C 39.0944,72.4643 39.7611,72.631 40.5,72.5C 40.0825,73.2216 39.4158,73.7216 38.5,74C 38.8333,74.3333 39.1667,74.6667 39.5,75C 38.0161,75.6622 36.6828,76.4955 35.5,77.5C 34.7375,76.7321 33.7375,76.2321 32.5,76C 36.5437,74.1013 36.3771,72.9346 32,72.5C 28.5,73 25,73.5 21.5,74C 19.8689,75.8356 19.2022,75.3356 19.5,72.5C 22.1873,72.6641 24.854,72.4974 27.5,72C 28.056,71.6174 28.3893,71.1174 28.5,70.5C 31.1194,70.2317 33.6194,70.565 36,71.5C 36.7083,70.6195 37.5416,69.9528 38.5,69.5 Z"/></g>
<g><path style="opacity:1" fill="#dfa861" d="M 100.5,57.5 C 101.315,58.4293 102.148,59.4293 103,60.5C 103.499,64.1516 103.665,67.8183 103.5,71.5C 105.099,71.2322 106.432,71.5655 107.5,72.5C 106.697,75.8303 108.03,78.4969 111.5,80.5C 110.114,82.7416 108.114,84.0749 105.5,84.5C 103.62,84.0702 101.62,84.0702 99.5,84.5C 99.2178,83.2223 98.5511,82.2223 97.5,81.5C 98.5,81.5 99.5,81.5 100.5,81.5C 100.5,80.5 100.5,79.5 100.5,78.5C 101.534,79.6871 102.867,80.5204 104.5,81C 102.405,81.5556 102.238,82.0556 104,82.5C 105.867,81.6233 107.034,80.1233 107.5,78C 103.064,76.332 99.731,73.4986 97.5,69.5C 96.6993,67.9582 96.366,66.2915 96.5,64.5C 95.656,62.1491 95.9893,59.8158 97.5,57.5C 98.5272,56.2086 99.5272,56.2086 100.5,57.5 Z"/></g>
<g><path style="opacity:1" fill="#c4c07c" d="M 74.5,71.5 C 79.8701,73.3787 85.5368,74.0454 91.5,73.5C 88.7131,74.4767 85.7131,74.81 82.5,74.5C 81.5489,75.9187 81.2155,77.5853 81.5,79.5C 78.5448,78.8413 75.5448,78.5079 72.5,78.5C 72.44,77.9569 72.1067,77.6236 71.5,77.5C 70.5713,78.6888 70.238,80.0222 70.5,81.5C 69.5,81.5 68.5,81.5 67.5,81.5C 67.4802,79.857 68.1468,78.5237 69.5,77.5C 68.7542,76.2638 68.4208,74.9305 68.5,73.5C 70.2972,72.2702 72.2972,71.6036 74.5,71.5 Z"/></g>
<g><path style="opacity:1" fill="#d0914b" d="M 97.5,69.5 C 99.731,73.4986 103.064,76.332 107.5,78C 107.034,80.1233 105.867,81.6233 104,82.5C 102.238,82.0556 102.405,81.5556 104.5,81C 102.867,80.5204 101.534,79.6871 100.5,78.5C 98.6161,77.6613 97.2828,76.328 96.5,74.5C 94.7085,74.634 93.0418,74.3007 91.5,73.5C 85.5368,74.0454 79.8701,73.3787 74.5,71.5C 77.1431,70.0209 79.6431,70.3542 82,72.5C 82.49,71.2068 82.6567,69.8734 82.5,68.5C 87.4816,70.0377 92.4816,70.371 97.5,69.5 Z"/></g>
<g><path style="opacity:1" fill="#f8f6af" d="M 19.5,72.5 C 19.2022,75.3356 19.8689,75.8356 21.5,74C 25,73.5 28.5,73 32,72.5C 36.3771,72.9346 36.5437,74.1013 32.5,76C 33.7375,76.2321 34.7375,76.7321 35.5,77.5C 32.8211,79.6044 29.8211,81.2711 26.5,82.5C 22.6531,82.8997 20.3198,84.8997 19.5,88.5C 18.7611,88.631 18.0944,88.4643 17.5,88C 17.5012,86.6012 17.8346,85.1012 18.5,83.5C 17.1117,81.891 16.1117,80.0577 15.5,78C 16.4239,76.85 16.4239,75.85 15.5,75C 16.4709,73.5187 17.8042,72.6854 19.5,72.5 Z"/></g>
<g><path style="opacity:1" fill="#cad294" d="M 91.5,73.5 C 93.0418,74.3007 94.7085,74.634 96.5,74.5C 96.5674,75.9587 96.2341,77.2921 95.5,78.5C 91.1667,78.5 86.8333,78.5 82.5,78.5C 82.5,77.1667 82.5,75.8333 82.5,74.5C 85.7131,74.81 88.7131,74.4767 91.5,73.5 Z"/></g>
<g><path style="opacity:1" fill="#c2af67" d="M 96.5,74.5 C 97.2828,76.328 98.6161,77.6613 100.5,78.5C 100.5,79.5 100.5,80.5 100.5,81.5C 99.5,81.5 98.5,81.5 97.5,81.5C 95.8333,81.5 94.1667,81.5 92.5,81.5C 93.7175,80.8386 95.0508,80.1719 96.5,79.5C 96.3764,78.8933 96.0431,78.56 95.5,78.5C 96.2341,77.2921 96.5674,75.9587 96.5,74.5 Z"/></g>
<g><path style="opacity:1" fill="#ecba71" d="M 48.5,73.5 C 48.5,74.8333 48.5,76.1667 48.5,77.5C 51.4867,77.4223 52.1534,78.589 50.5,81C 51.8561,82.5671 52.5228,84.4004 52.5,86.5C 45.4308,86.7433 45.0974,87.5766 51.5,89C 50.4982,90.1563 49.4982,90.6563 48.5,90.5C 46.8102,90.1436 45.8102,89.1436 45.5,87.5C 46.1458,83.7187 45.4791,80.052 43.5,76.5C 44.6594,74.7497 46.326,73.7497 48.5,73.5 Z"/></g>
<g><path style="opacity:1" fill="#d6ca81" d="M 124.5,70.5 C 127.865,73.7014 131.365,76.7014 135,79.5C 136.075,84.0838 138.908,86.0838 143.5,85.5C 143.67,86.8221 143.337,87.9887 142.5,89C 140.292,89.1909 138.292,89.6909 136.5,90.5C 134.018,94.8203 131.685,99.1537 129.5,103.5C 130.4,99.4665 131.734,95.6331 133.5,92C 130.833,91 130.833,90 133.5,89C 131.926,88.3013 130.593,88.6346 129.5,90C 129.833,90.3333 130.167,90.6667 130.5,91C 127.955,93.3864 126.288,96.2197 125.5,99.5C 125.68,95.1526 123.847,91.8193 120,89.5C 119.187,87.5643 118.687,85.5643 118.5,83.5C 119.497,83.5299 120.164,83.0299 120.5,82C 119.647,79.8665 119.314,77.8665 119.5,76C 121.033,73.9711 122.699,72.1378 124.5,70.5 Z"/></g>
<g><path style="opacity:1" fill="#929e58" d="M 82.5,74.5 C 82.5,75.8333 82.5,77.1667 82.5,78.5C 86.8333,78.5 91.1667,78.5 95.5,78.5C 96.0431,78.56 96.3764,78.8933 96.5,79.5C 95.0508,80.1719 93.7175,80.8386 92.5,81.5C 90.847,81.6596 89.5137,82.3263 88.5,83.5C 86.9519,83.1788 86.2852,82.1788 86.5,80.5C 83.8127,80.3359 81.146,80.5026 78.5,81C 79.8882,81.8893 79.7215,82.3893 78,82.5C 75.8748,80.5641 74.0415,79.2307 72.5,78.5C 75.5448,78.5079 78.5448,78.8413 81.5,79.5C 81.2155,77.5853 81.5489,75.9187 82.5,74.5 Z"/></g>
<g><path style="opacity:1" fill="#d2be76" d="M 61.5,77.5 C 61.5,78.8333 61.5,80.1667 61.5,81.5C 62.791,81.2627 63.791,81.596 64.5,82.5C 60.8455,82.0578 57.1788,81.7244 53.5,81.5C 53.33,80.1779 53.6634,79.0113 54.5,78C 56.8098,77.5034 59.1432,77.3367 61.5,77.5 Z"/></g>
<g><path style="opacity:1" fill="#c6af6c" d="M 43.5,71.5 C 41.0428,73.3324 41.0428,74.9991 43.5,76.5C 45.4791,80.052 46.1458,83.7187 45.5,87.5C 44.1667,87.5 42.8333,87.5 41.5,87.5C 41.5861,85.323 42.2528,83.323 43.5,81.5C 42.1369,80.1072 41.3036,78.4405 41,76.5C 39.5093,78.0037 37.676,78.8371 35.5,79C 33.9632,80.1096 33.2965,81.6096 33.5,83.5C 38.7187,82.6353 38.7187,83.302 33.5,85.5C 32.3348,84.5089 31.1681,83.5089 30,82.5C 28.7387,82.7591 27.7387,83.4258 27,84.5C 26.5357,83.9056 26.369,83.2389 26.5,82.5C 29.8211,81.2711 32.8211,79.6044 35.5,77.5C 36.6828,76.4955 38.0161,75.6622 39.5,75C 39.1667,74.6667 38.8333,74.3333 38.5,74C 39.4158,73.7216 40.0825,73.2216 40.5,72.5C 41.391,71.8902 42.391,71.5569 43.5,71.5 Z"/></g>
<g><path style="opacity:1" fill="#b6b56b" d="M 68.5,73.5 C 68.4208,74.9305 68.7542,76.2638 69.5,77.5C 68.1468,78.5237 67.4802,79.857 67.5,81.5C 68.5,81.5 69.5,81.5 70.5,81.5C 70.238,80.0222 70.5713,78.6888 71.5,77.5C 72.1067,77.6236 72.44,77.9569 72.5,78.5C 74.0415,79.2307 75.8748,80.5641 78,82.5C 79.7215,82.3893 79.8882,81.8893 78.5,81C 81.146,80.5026 83.8127,80.3359 86.5,80.5C 86.2852,82.1788 86.9519,83.1788 88.5,83.5C 83.3644,85.3806 78.0311,85.714 72.5,84.5C 70.1617,82.9605 67.4951,82.2938 64.5,82.5C 63.791,81.596 62.791,81.2627 61.5,81.5C 61.5,80.1667 61.5,78.8333 61.5,77.5C 63.9962,76.4196 66.3295,75.0862 68.5,73.5 Z"/></g>
<g><path style="opacity:1" fill="#dace8b" d="M 45.5,87.5 C 45.8102,89.1436 46.8102,90.1436 48.5,90.5C 48.5674,91.9587 48.2341,93.2921 47.5,94.5C 42.4153,88.5489 36.7487,87.5489 30.5,91.5C 29.7326,90.828 29.0659,89.9947 28.5,89C 25.854,88.5026 23.1873,88.3359 20.5,88.5C 20.1667,88.5 19.8333,88.5 19.5,88.5C 20.3198,84.8997 22.6531,82.8997 26.5,82.5C 26.369,83.2389 26.5357,83.9056 27,84.5C 27.7387,83.4258 28.7387,82.7591 30,82.5C 31.1681,83.5089 32.3348,84.5089 33.5,85.5C 38.7187,83.302 38.7187,82.6353 33.5,83.5C 33.2965,81.6096 33.9632,80.1096 35.5,79C 37.676,78.8371 39.5093,78.0037 41,76.5C 41.3036,78.4405 42.1369,80.1072 43.5,81.5C 42.2528,83.323 41.5861,85.323 41.5,87.5C 42.8333,87.5 44.1667,87.5 45.5,87.5 Z"/></g>
<g><path style="opacity:1" fill="#e6b76c" d="M 119.5,69.5 C 117.379,71.8939 115.546,74.5606 114,77.5C 113.667,79.5 113.333,81.5 113,83.5C 111.074,85.469 109.908,87.8024 109.5,90.5C 108.5,90.5 107.5,90.5 106.5,90.5C 106.047,89.5416 105.381,88.7083 104.5,88C 105.337,86.9887 105.67,85.8221 105.5,84.5C 108.114,84.0749 110.114,82.7416 111.5,80.5C 108.03,78.4969 106.697,75.8303 107.5,72.5C 109.604,72.7989 111.604,72.4656 113.5,71.5C 111.392,68.8434 110.059,65.8434 109.5,62.5C 110.822,62.67 111.989,62.3366 113,61.5C 114.946,64.4202 117.113,67.0869 119.5,69.5 Z"/></g>
<g><path style="opacity:1" fill="#e5a759" d="M 96.5,64.5 C 96.366,66.2915 96.6993,67.9582 97.5,69.5C 92.4816,70.371 87.4816,70.0377 82.5,68.5C 82.6567,69.8734 82.49,71.2068 82,72.5C 79.6431,70.3542 77.1431,70.0209 74.5,71.5C 72.2972,71.6036 70.2972,72.2702 68.5,73.5C 66.3295,75.0862 63.9962,76.4196 61.5,77.5C 59.1432,77.3367 56.8098,77.5034 54.5,78C 53.6634,79.0113 53.33,80.1779 53.5,81.5C 57.1788,81.7244 60.8455,82.0578 64.5,82.5C 67.4951,82.2938 70.1617,82.9605 72.5,84.5C 71.1266,84.3433 69.7932,84.51 68.5,85C 71.0386,87.3697 73.3719,89.8697 75.5,92.5C 73.139,92.3259 70.8056,91.9926 68.5,91.5C 62.9627,90.1922 57.2961,90.1922 51.5,91.5C 51.1667,92 50.8333,92.5 50.5,93C 51.1271,95.1351 51.6271,97.3018 52,99.5C 53.7286,99.9743 54.8953,100.974 55.5,102.5C 50.6166,102.076 47.95,99.4097 47.5,94.5C 48.2341,93.2921 48.5674,91.9587 48.5,90.5C 49.4982,90.6563 50.4982,90.1563 51.5,89C 45.0974,87.5766 45.4308,86.7433 52.5,86.5C 52.5228,84.4004 51.8561,82.5671 50.5,81C 52.1534,78.589 51.4867,77.4223 48.5,77.5C 48.5,76.1667 48.5,74.8333 48.5,73.5C 49.6005,72.3951 50.2671,71.0618 50.5,69.5C 53.5184,69.6646 56.5184,69.498 59.5,69C 61.2332,67.0844 63.3999,65.9177 66,65.5C 71.3585,65.0253 76.6919,65.6919 82,67.5C 83,66.8333 84,66.1667 85,65.5C 85.7648,65.5699 86.2648,65.9033 86.5,66.5C 86.56,67.0431 86.8933,67.3764 87.5,67.5C 90.359,65.949 93.359,64.949 96.5,64.5 Z"/></g>
<g><path style="opacity:1" fill="#f29a44" d="M 92.5,81.5 C 94.1667,81.5 95.8333,81.5 97.5,81.5C 98.5511,82.2223 99.2178,83.2223 99.5,84.5C 99.5,85.5 99.5,86.5 99.5,87.5C 96.8431,87.162 94.5098,87.8287 92.5,89.5C 93.376,90.2508 94.376,90.7508 95.5,91C 95.4814,92.5206 95.148,94.0206 94.5,95.5C 90.2779,97.0553 86.2779,99.0553 82.5,101.5C 81.5655,100.432 81.2322,99.099 81.5,97.5C 81.5,96.5 81.5,95.5 81.5,94.5C 80.7814,92.305 81.7814,90.805 84.5,90C 83.8333,89.6667 83.1667,89.3333 82.5,89C 83.646,88.3551 84.646,87.5217 85.5,86.5C 86.2935,86.9312 87.1268,87.2645 88,87.5C 90.0338,86.2779 92.2005,85.2779 94.5,84.5C 92.604,83.5344 90.604,83.2011 88.5,83.5C 89.5137,82.3263 90.847,81.6596 92.5,81.5 Z"/></g>
<g><path style="opacity:0.999" fill="#fdfcb1" d="M 136.5,90.5 C 140.631,91.9006 144.964,92.5673 149.5,92.5C 149.433,93.9587 149.766,95.2921 150.5,96.5C 148.707,98.6767 147.374,101.177 146.5,104C 141.727,106.368 136.727,108.368 131.5,110C 128.6,112.294 125.6,114.461 122.5,116.5C 121.292,117.234 119.959,117.567 118.5,117.5C 118.33,116.178 118.663,115.011 119.5,114C 118.256,113.544 117.423,114.044 117,115.5C 116.517,114.552 116.351,113.552 116.5,112.5C 116.5,112.167 116.5,111.833 116.5,111.5C 120.601,108.465 124.934,105.799 129.5,103.5C 131.685,99.1537 134.018,94.8203 136.5,90.5 Z"/></g>
<g><path style="opacity:1" fill="#ccc68a" d="M 47.5,94.5 C 47.95,99.4097 50.6166,102.076 55.5,102.5C 55.8333,103.167 56.1667,103.833 56.5,104.5C 56.5324,109.213 54.1991,110.713 49.5,109C 47.2482,106.898 44.9149,105.064 42.5,103.5C 42.5,102.833 42.1667,102.5 41.5,102.5C 40.8383,100.168 39.505,99.5009 37.5,100.5C 36.2997,99.4688 34.9663,98.6355 33.5,98C 35.2553,94.4949 34.2553,92.3282 30.5,91.5C 36.7487,87.5489 42.4153,88.5489 47.5,94.5 Z"/></g>
<g><path style="opacity:1" fill="#d48630" d="M 88.5,83.5 C 90.604,83.2011 92.604,83.5344 94.5,84.5C 92.2005,85.2779 90.0338,86.2779 88,87.5C 87.1268,87.2645 86.2935,86.9312 85.5,86.5C 84.646,87.5217 83.646,88.3551 82.5,89C 83.1667,89.3333 83.8333,89.6667 84.5,90C 81.7814,90.805 80.7814,92.305 81.5,94.5C 79.1016,94.7406 77.1016,94.0739 75.5,92.5C 73.3719,89.8697 71.0386,87.3697 68.5,85C 69.7932,84.51 71.1266,84.3433 72.5,84.5C 78.0311,85.714 83.3644,85.3806 88.5,83.5 Z"/></g>
<g><path style="opacity:1" fill="#f7ba5f" d="M 68.5,91.5 C 61.2393,93.1717 59.7393,97.1717 64,103.5C 65.5843,104.861 67.4176,105.528 69.5,105.5C 69.5,106.167 69.8333,106.5 70.5,106.5C 70.5,107.833 70.5,109.167 70.5,110.5C 69.0413,110.567 67.7079,110.234 66.5,109.5C 66.0472,108.542 65.3805,107.708 64.5,107C 62.0734,105.409 59.4067,104.575 56.5,104.5C 56.1667,103.833 55.8333,103.167 55.5,102.5C 54.8953,100.974 53.7286,99.9743 52,99.5C 51.6271,97.3018 51.1271,95.1351 50.5,93C 50.8333,92.5 51.1667,92 51.5,91.5C 57.2961,90.1922 62.9627,90.1922 68.5,91.5 Z"/></g>
<g><path style="opacity:1" fill="#d5a15a" d="M 119.5,69.5 C 118.617,74.1031 118.283,78.7697 118.5,83.5C 118.687,85.5643 119.187,87.5643 120,89.5C 123.847,91.8193 125.68,95.1526 125.5,99.5C 124.833,100.167 124.167,100.833 123.5,101.5C 120.017,100.916 117.017,101.749 114.5,104C 113.207,104.49 111.873,104.657 110.5,104.5C 111.091,103.849 111.757,103.182 112.5,102.5C 112.376,101.893 112.043,101.56 111.5,101.5C 110.505,97.5571 109.838,93.8904 109.5,90.5C 109.908,87.8024 111.074,85.469 113,83.5C 113.333,81.5 113.667,79.5 114,77.5C 115.546,74.5606 117.379,71.8939 119.5,69.5 Z"/></g>
<g><path style="opacity:1" fill="#ede9a6" d="M 20.5,88.5 C 23.1873,88.3359 25.854,88.5026 28.5,89C 29.0659,89.9947 29.7326,90.828 30.5,91.5C 34.2553,92.3282 35.2553,94.4949 33.5,98C 34.9663,98.6355 36.2997,99.4688 37.5,100.5C 39.505,99.5009 40.8383,100.168 41.5,102.5C 41.5654,102.938 41.3988,103.272 41,103.5C 38.0699,101.745 34.9033,100.578 31.5,100C 26.8993,96.9029 23.2326,93.0696 20.5,88.5 Z"/></g>
<g><path style="opacity:1" fill="#f5b160" d="M 105.5,84.5 C 105.67,85.8221 105.337,86.9887 104.5,88C 105.381,88.7083 106.047,89.5416 106.5,90.5C 105.504,90.4142 104.671,90.7476 104,91.5C 102.831,94.4491 101.331,97.1158 99.5,99.5C 99.2648,98.9033 98.7648,98.5699 98,98.5C 96.4928,99.5549 94.9928,100.555 93.5,101.5C 94.1495,99.5648 94.4828,97.5648 94.5,95.5C 95.148,94.0206 95.4814,92.5206 95.5,91C 94.376,90.7508 93.376,90.2508 92.5,89.5C 94.5098,87.8287 96.8431,87.162 99.5,87.5C 99.5,86.5 99.5,85.5 99.5,84.5C 101.62,84.0702 103.62,84.0702 105.5,84.5 Z"/></g>
<g><path style="opacity:1" fill="#d59543" d="M 106.5,90.5 C 107.5,90.5 108.5,90.5 109.5,90.5C 109.838,93.8904 110.505,97.5571 111.5,101.5C 109.198,99.9227 107.698,100.589 107,103.5C 104.533,102.628 101.7,101.962 98.5,101.5C 98.3284,100.508 98.6618,99.8417 99.5,99.5C 101.331,97.1158 102.831,94.4491 104,91.5C 104.671,90.7476 105.504,90.4142 106.5,90.5 Z"/></g>
<g><path style="opacity:1" fill="#f0a647" d="M 94.5,95.5 C 94.4828,97.5648 94.1495,99.5648 93.5,101.5C 90.9078,101.546 88.7411,102.546 87,104.5C 85.3336,103.652 83.8336,102.652 82.5,101.5C 86.2779,99.0553 90.2779,97.0553 94.5,95.5 Z"/></g>
<g><path style="opacity:1" fill="#f5b142" d="M 68.5,91.5 C 70.8056,91.9926 73.139,92.3259 75.5,92.5C 77.1016,94.0739 79.1016,94.7406 81.5,94.5C 81.5,95.5 81.5,96.5 81.5,97.5C 80.788,96.2613 79.788,95.7613 78.5,96C 79.713,98.6865 80.3797,101.52 80.5,104.5C 79.5,104.5 78.5,104.5 77.5,104.5C 75.9731,104.573 74.9731,103.906 74.5,102.5C 75.4805,100.604 76.4805,98.604 77.5,96.5C 73.9368,93.4174 69.9368,92.4174 65.5,93.5C 67.4755,94.7493 67.8088,96.2493 66.5,98C 68.2556,98.2022 69.9223,98.7022 71.5,99.5C 69.9466,100.439 68.6133,101.606 67.5,103C 67.8361,104.03 68.5028,104.53 69.5,104.5C 69.5,104.833 69.5,105.167 69.5,105.5C 67.4176,105.528 65.5843,104.861 64,103.5C 59.7393,97.1717 61.2393,93.1717 68.5,91.5 Z"/></g>
<g><path style="opacity:1" fill="#fdaa2f" d="M 74.5,102.5 C 73.7494,101.427 72.7494,101.26 71.5,102C 70.9341,102.995 70.2674,103.828 69.5,104.5C 68.5028,104.53 67.8361,104.03 67.5,103C 68.6133,101.606 69.9466,100.439 71.5,99.5C 69.9223,98.7022 68.2556,98.2022 66.5,98C 67.8088,96.2493 67.4755,94.7493 65.5,93.5C 69.9368,92.4174 73.9368,93.4174 77.5,96.5C 76.4805,98.604 75.4805,100.604 74.5,102.5 Z"/></g>
<g><path style="opacity:1" fill="#d19a48" d="M 111.5,101.5 C 112.043,101.56 112.376,101.893 112.5,102.5C 111.757,103.182 111.091,103.849 110.5,104.5C 108.071,105.551 105.738,106.884 103.5,108.5C 101.983,108.489 100.816,107.823 100,106.5C 97.9935,107.669 95.8268,108.335 93.5,108.5C 93.366,110.292 93.6993,111.958 94.5,113.5C 92.9731,113.427 91.9731,114.094 91.5,115.5C 91.5,115.833 91.5,116.167 91.5,116.5C 90.1667,115.5 88.8333,114.5 87.5,113.5C 89.4227,111.712 90.0893,109.712 89.5,107.5C 92.5178,105.474 95.5178,103.474 98.5,101.5C 101.7,101.962 104.533,102.628 107,103.5C 107.698,100.589 109.198,99.9227 111.5,101.5 Z"/></g>
<g><path style="opacity:1" fill="#f2b95a" d="M 81.5,97.5 C 81.2322,99.099 81.5655,100.432 82.5,101.5C 83.8336,102.652 85.3336,103.652 87,104.5C 88.7411,102.546 90.9078,101.546 93.5,101.5C 94.9928,100.555 96.4928,99.5549 98,98.5C 98.7648,98.5699 99.2648,98.9033 99.5,99.5C 98.6618,99.8417 98.3284,100.508 98.5,101.5C 95.5178,103.474 92.5178,105.474 89.5,107.5C 90.0893,109.712 89.4227,111.712 87.5,113.5C 85.9582,112.699 84.2915,112.366 82.5,112.5C 82.7373,111.209 82.404,110.209 81.5,109.5C 81.2178,108.222 80.5511,107.222 79.5,106.5C 79.9382,106.565 80.2716,106.399 80.5,106C 79.2625,105.768 78.2625,105.268 77.5,104.5C 78.5,104.5 79.5,104.5 80.5,104.5C 80.3797,101.52 79.713,98.6865 78.5,96C 79.788,95.7613 80.788,96.2613 81.5,97.5 Z"/></g>
<g><path style="opacity:1" fill="#d6c782" d="M 123.5,101.5 C 119.789,104.032 116.456,107.032 113.5,110.5C 109.302,111.215 105.969,113.215 103.5,116.5C 99.5705,115.567 95.5705,115.234 91.5,115.5C 91.9731,114.094 92.9731,113.427 94.5,113.5C 97.9484,112.61 100.948,110.943 103.5,108.5C 105.738,106.884 108.071,105.551 110.5,104.5C 111.873,104.657 113.207,104.49 114.5,104C 117.017,101.749 120.017,100.916 123.5,101.5 Z"/></g>
<g><path style="opacity:1" fill="#f1e89d" d="M 129.5,103.5 C 124.934,105.799 120.601,108.465 116.5,111.5C 115.25,111.577 114.417,112.244 114,113.5C 113.517,112.552 113.351,111.552 113.5,110.5C 116.456,107.032 119.789,104.032 123.5,101.5C 124.167,100.833 124.833,100.167 125.5,99.5C 126.288,96.2197 127.955,93.3864 130.5,91C 130.167,90.6667 129.833,90.3333 129.5,90C 130.593,88.6346 131.926,88.3013 133.5,89C 130.833,90 130.833,91 133.5,92C 131.734,95.6331 130.4,99.4665 129.5,103.5 Z"/></g>
<g><path style="opacity:1" fill="#fad664" d="M 74.5,102.5 C 74.9731,103.906 75.9731,104.573 77.5,104.5C 78.2625,105.268 79.2625,105.768 80.5,106C 80.2716,106.399 79.9382,106.565 79.5,106.5C 76.5,106.5 73.5,106.5 70.5,106.5C 69.8333,106.5 69.5,106.167 69.5,105.5C 69.5,105.167 69.5,104.833 69.5,104.5C 70.2674,103.828 70.9341,102.995 71.5,102C 72.7494,101.26 73.7494,101.427 74.5,102.5 Z"/></g>
<g><path style="opacity:0.025" fill="#fdfbbe" d="M 41.5,106.5 C 42.2891,106.783 42.9558,107.283 43.5,108C 42.184,108.528 41.5173,108.028 41.5,106.5 Z"/></g>
<g><path style="opacity:1" fill="#f1e189" d="M 70.5,106.5 C 73.5,106.5 76.5,106.5 79.5,106.5C 80.5511,107.222 81.2178,108.222 81.5,109.5C 81.5,110.833 81.5,112.167 81.5,113.5C 78.2136,113.071 75.0469,113.071 72,113.5C 71.4867,112.473 70.9867,111.473 70.5,110.5C 70.5,109.167 70.5,107.833 70.5,106.5 Z"/></g>
<g><path style="opacity:1" fill="#deb364" d="M 103.5,108.5 C 100.948,110.943 97.9484,112.61 94.5,113.5C 93.6993,111.958 93.366,110.292 93.5,108.5C 95.8268,108.335 97.9935,107.669 100,106.5C 100.816,107.823 101.983,108.489 103.5,108.5 Z"/></g>
<g><path style="opacity:1" fill="#d4c87c" d="M 66.5,109.5 C 67.7079,110.234 69.0413,110.567 70.5,110.5C 70.9867,111.473 71.4867,112.473 72,113.5C 75.0469,113.071 78.2136,113.071 81.5,113.5C 81.5,112.167 81.5,110.833 81.5,109.5C 82.404,110.209 82.7373,111.209 82.5,112.5C 84.2915,112.366 85.9582,112.699 87.5,113.5C 88.8333,114.5 90.1667,115.5 91.5,116.5C 93.7496,117.13 95.7496,118.13 97.5,119.5C 93.6404,118.356 89.6404,117.689 85.5,117.5C 76.0617,116.59 66.7284,115.09 57.5,113C 59.4025,112.801 60.9025,111.967 62,110.5C 63.9151,111.916 65.4151,111.582 66.5,109.5 Z"/></g>
<g><path style="opacity:1" fill="#dfd895" d="M 113.5,110.5 C 113.351,111.552 113.517,112.552 114,113.5C 114.417,112.244 115.25,111.577 116.5,111.5C 116.5,111.833 116.5,112.167 116.5,112.5C 115.802,114.667 114.469,116.5 112.5,118C 109.977,118.518 107.977,119.852 106.5,122C 103.772,121.798 101.105,121.964 98.5,122.5C 97.6143,121.675 97.281,120.675 97.5,119.5C 95.7496,118.13 93.7496,117.13 91.5,116.5C 91.5,116.167 91.5,115.833 91.5,115.5C 95.5705,115.234 99.5705,115.567 103.5,116.5C 105.969,113.215 109.302,111.215 113.5,110.5 Z"/></g>
<g><path style="opacity:1" fill="#ede8a1" d="M 42.5,103.5 C 44.9149,105.064 47.2482,106.898 49.5,109C 54.1991,110.713 56.5324,109.213 56.5,104.5C 59.4067,104.575 62.0734,105.409 64.5,107C 65.3805,107.708 66.0472,108.542 66.5,109.5C 65.4151,111.582 63.9151,111.916 62,110.5C 60.9025,111.967 59.4025,112.801 57.5,113C 66.7284,115.09 76.0617,116.59 85.5,117.5C 85.5,119.5 85.5,121.5 85.5,123.5C 90.9185,122.621 96.2518,123.288 101.5,125.5C 103.808,125.635 105.808,124.969 107.5,123.5C 107.833,123.667 108.167,123.833 108.5,124C 107.619,124.708 106.953,125.542 106.5,126.5C 102.488,127.591 98.8218,129.425 95.5,132C 90.5298,132.607 85.6965,132.107 81,130.5C 79.1354,132.855 76.9688,133.022 74.5,131C 75.8333,130.333 75.8333,129.667 74.5,129C 67.2348,126.531 60.5681,123.031 54.5,118.5C 52.5,114.5 49.5,111.5 45.5,109.5C 44.4867,107.473 43.4867,105.473 42.5,103.5 Z"/></g>
<g><path style="opacity:1" fill="#f8f1ab" d="M 116.5,112.5 C 116.351,113.552 116.517,114.552 117,115.5C 117.423,114.044 118.256,113.544 119.5,114C 118.663,115.011 118.33,116.178 118.5,117.5C 119.959,117.567 121.292,117.234 122.5,116.5C 122.5,117.5 122.5,118.5 122.5,119.5C 121.448,119.351 120.448,119.517 119.5,120C 119.833,120.333 120.167,120.667 120.5,121C 116.827,125.336 112.16,127.169 106.5,126.5C 106.953,125.542 107.619,124.708 108.5,124C 108.167,123.833 107.833,123.667 107.5,123.5C 105.808,124.969 103.808,125.635 101.5,125.5C 96.2518,123.288 90.9185,122.621 85.5,123.5C 85.5,121.5 85.5,119.5 85.5,117.5C 89.6404,117.689 93.6404,118.356 97.5,119.5C 97.281,120.675 97.6143,121.675 98.5,122.5C 101.105,121.964 103.772,121.798 106.5,122C 107.977,119.852 109.977,118.518 112.5,118C 114.469,116.5 115.802,114.667 116.5,112.5 Z"/></g>
<g><path style="opacity:0.722" fill="#e3dac4" d="M 59.5,134.5 C 60.4959,134.414 61.3292,134.748 62,135.5C 62.413,138.232 63.0797,140.899 64,143.5C 65.8333,141.667 67.6667,139.833 69.5,138C 70.6001,137.568 71.2668,138.068 71.5,139.5C 70.9251,143.482 69.5917,147.149 67.5,150.5C 66.8153,148.219 66.6487,145.886 67,143.5C 65.7365,145.607 63.9032,146.607 61.5,146.5C 60.6059,139.944 59.6059,139.944 58.5,146.5C 58.1667,146.833 57.8333,147.167 57.5,147.5C 57.1667,146.833 56.8333,146.167 56.5,145.5C 57.3485,141.771 58.3485,138.104 59.5,134.5 Z"/></g>
<g><path style="opacity:0.719" fill="#e3dac5" d="M 98.5,136.5 C 104.144,135.481 107.144,137.814 107.5,143.5C 104.679,143.539 102.012,144.205 99.5,145.5C 102.148,148.262 104.481,147.929 106.5,144.5C 107.347,147.866 105.847,149.866 102,150.5C 98.0549,149.142 95.8883,146.309 95.5,142C 96.1242,139.915 97.1242,138.082 98.5,136.5 Z M 100.5,138.5 C 102.346,138.222 103.68,138.889 104.5,140.5C 102.696,141.768 100.696,142.435 98.5,142.5C 98.5271,140.801 99.1938,139.467 100.5,138.5 Z"/></g>
<g><path style="opacity:0.795" fill="#e4dbc5" d="M 77.5,138.5 C 78.5,138.5 79.5,138.5 80.5,138.5C 80.5,140.167 80.5,141.833 80.5,143.5C 82.4672,143.261 84.3005,143.594 86,144.5C 86.4955,142.527 86.6621,140.527 86.5,138.5C 87.5,138.5 88.5,138.5 89.5,138.5C 89.6653,142.182 89.4986,145.848 89,149.5C 88.6924,150.308 88.1924,150.975 87.5,151.5C 86.5481,149.955 86.2148,148.288 86.5,146.5C 84.5,146.5 82.5,146.5 80.5,146.5C 80.5,148.167 80.5,149.833 80.5,151.5C 79.5,151.5 78.5,151.5 77.5,151.5C 77.5,147.167 77.5,142.833 77.5,138.5 Z"/></g>
</svg>
