<?xml version="1.0" encoding="UTF-8"?>
<!DOCTYPE svg PUBLIC "-//W3C//DTD SVG 1.1//EN" "http://www.w3.org/Graphics/SVG/1.1/DTD/svg11.dtd">
<svg xmlns="http://www.w3.org/2000/svg" version="1.1" width="175px" height="175px" style="shape-rendering:geometricPrecision; text-rendering:geometricPrecision; image-rendering:optimizeQuality; fill-rule:evenodd; clip-rule:evenodd" xmlns:xlink="http://www.w3.org/1999/xlink">
<g><path style="opacity:0.734" fill="#c6c7bf" d="M 92.5,16.5 C 93.4778,16.811 94.1445,17.4777 94.5,18.5C 92.2338,19.3142 89.9005,19.8142 87.5,20C 86.8333,20.6667 86.1667,21.3333 85.5,22C 93.4741,21.3091 96.3075,24.8091 94,32.5C 93.6258,33.4162 93.1258,34.2496 92.5,35C 83.1625,35.9675 79.9959,31.8008 83,22.5C 83.5831,20.9984 84.4164,19.6651 85.5,18.5C 87.9823,17.9329 90.3157,17.2663 92.5,16.5 Z M 86.5,24.5 C 92.6426,25.0262 93.9759,27.8595 90.5,33C 86.9305,34.1048 84.9305,32.7714 84.5,29C 85.2666,27.5295 85.9332,26.0295 86.5,24.5 Z"/></g>
<g><path style="opacity:0.724" fill="#c6c7be" d="M 66.5,24.5 C 72.4708,23.7995 75.8041,26.4662 76.5,32.5C 74.6908,38.7523 71.0241,40.0857 65.5,36.5C 62.6946,32.2075 63.0279,28.2075 66.5,24.5 Z M 68.5,26.5 C 73.2442,27.8522 74.5775,30.8522 72.5,35.5C 68.3824,36.752 66.0491,35.0853 65.5,30.5C 66.1716,28.8405 67.1716,27.5072 68.5,26.5 Z"/></g>
<g><path style="opacity:0.75" fill="#c6c7be" d="M 104.5,25.5 C 113.16,25.8136 115.326,29.8136 111,37.5C 105.673,40.7488 102.173,39.4155 100.5,33.5C 100.8,30.2335 102.133,27.5669 104.5,25.5 Z M 105.5,27.5 C 110.213,27.4676 111.713,29.8009 110,34.5C 106.954,38.6372 104.454,38.3038 102.5,33.5C 103.129,31.2592 104.129,29.2592 105.5,27.5 Z"/></g>
<g><path style="opacity:0.968" fill="#e1edad" d="M 82.5,42.5 C 88.7053,44.0069 94.8719,45.6735 101,47.5C 101.333,47.1667 101.667,46.8333 102,46.5C 104.871,48.7153 107.037,51.5486 108.5,55C 111.091,57.1168 113.758,58.9501 116.5,60.5C 113.478,60.196 110.478,59.696 107.5,59C 107.085,56.9737 106.085,55.4737 104.5,54.5C 103.833,54.1667 103.167,53.8333 102.5,53.5C 98.3254,52.2854 94.1588,50.952 90,49.5C 88.6124,50.5536 87.1124,50.7203 85.5,50C 86.566,48.841 86.2327,48.0076 84.5,47.5C 84.5858,46.5041 84.2524,45.6708 83.5,45C 82.062,44.7811 80.7287,44.2811 79.5,43.5C 80.325,42.6143 81.325,42.281 82.5,42.5 Z"/></g>
<g><path style="opacity:1" fill="#e4f1b1" d="M 82.5,42.5 C 81.325,42.281 80.325,42.6143 79.5,43.5C 80.7287,44.2811 82.062,44.7811 83.5,45C 84.2524,45.6708 84.5858,46.5041 84.5,47.5C 81.7147,47.067 79.3813,45.7337 77.5,43.5C 76.7025,43.9569 76.3691,44.6236 76.5,45.5C 72.9009,46.3439 69.2343,46.6773 65.5,46.5C 65.557,50.1331 64.557,50.2998 62.5,47C 64.087,46.1376 65.7536,45.4709 67.5,45C 68.6956,44.3457 68.6956,43.8457 67.5,43.5C 64.9795,44.7853 62.3128,45.4519 59.5,45.5C 62.7794,44.2041 65.9461,42.5375 69,40.5C 69.3333,40.8333 69.6667,41.1667 70,41.5C 74.5231,38.5172 78.6898,38.8506 82.5,42.5 Z"/></g>
<g><path style="opacity:1" fill="#e1eda8" d="M 84.5,47.5 C 86.2327,48.0076 86.566,48.841 85.5,50C 87.1124,50.7203 88.6124,50.5536 90,49.5C 94.1588,50.952 98.3254,52.2854 102.5,53.5C 100.152,53.3305 97.8183,52.9971 95.5,52.5C 92.108,54.3541 88.4414,55.3541 84.5,55.5C 84.0269,54.0937 83.0269,53.427 81.5,53.5C 80.6879,52.0069 79.3545,51.3402 77.5,51.5C 73.6763,52.8964 69.843,54.2298 66,55.5C 64.8615,55.0109 63.6948,54.6775 62.5,54.5C 65.0664,51.4855 68.233,50.8188 72,52.5C 72.5,52.1667 73,51.8333 73.5,51.5C 72.3112,50.5713 70.9778,50.238 69.5,50.5C 69.5,49.5 69.5,48.5 69.5,47.5C 71.0603,47.5191 72.5603,47.8524 74,48.5C 75.7491,48.2517 76.5824,47.2517 76.5,45.5C 76.3691,44.6236 76.7025,43.9569 77.5,43.5C 79.3813,45.7337 81.7147,47.067 84.5,47.5 Z"/></g>
<g><path style="opacity:1" fill="#e0eeaa" d="M 76.5,45.5 C 76.5824,47.2517 75.7491,48.2517 74,48.5C 72.5603,47.8524 71.0603,47.5191 69.5,47.5C 69.5,48.5 69.5,49.5 69.5,50.5C 70.9778,50.238 72.3112,50.5713 73.5,51.5C 73,51.8333 72.5,52.1667 72,52.5C 68.233,50.8188 65.0664,51.4855 62.5,54.5C 61.0413,54.5674 59.7079,54.2341 58.5,53.5C 58.6353,52.0369 57.6353,50.8702 55.5,50C 57.7801,49.7674 59.7801,48.934 61.5,47.5C 60.3984,46.8243 59.3984,46.1577 58.5,45.5C 58.8333,45.5 59.1667,45.5 59.5,45.5C 62.3128,45.4519 64.9795,44.7853 67.5,43.5C 68.6956,43.8457 68.6956,44.3457 67.5,45C 65.7536,45.4709 64.087,46.1376 62.5,47C 64.557,50.2998 65.557,50.1331 65.5,46.5C 69.2343,46.6773 72.9009,46.3439 76.5,45.5 Z"/></g>
<g><path style="opacity:1" fill="#e2edac" d="M 58.5,45.5 C 59.3984,46.1577 60.3984,46.8243 61.5,47.5C 59.7801,48.934 57.7801,49.7674 55.5,50C 57.6353,50.8702 58.6353,52.0369 58.5,53.5C 57.8333,54.5 57.1667,55.5 56.5,56.5C 53.994,57.7496 51.3274,58.4162 48.5,58.5C 48.6463,60.9424 47.813,61.6091 46,60.5C 45.3076,61.0253 44.8076,61.6919 44.5,62.5C 39.5347,63.643 34.8681,64.643 30.5,65.5C 30.9528,64.5416 31.6195,63.7083 32.5,63C 34.7654,61.8822 37.0987,61.0488 39.5,60.5C 39.5,59.5 39.5,58.5 39.5,57.5C 41.6188,57.5323 42.9522,56.5323 43.5,54.5C 48.6332,51.7648 53.6332,48.7648 58.5,45.5 Z"/></g>
<g><path style="opacity:1" fill="#dde59e" d="M 81.5,53.5 C 77.5752,53.4299 73.9085,54.0966 70.5,55.5C 65.7174,56.2759 62.384,58.9425 60.5,63.5C 58.7988,64.5543 57.1321,65.5543 55.5,66.5C 53.5887,67.075 51.922,68.075 50.5,69.5C 51.1886,66.6472 53.022,64.9806 56,64.5C 56.2301,60.7868 57.3968,60.1201 59.5,62.5C 59.8333,62.1667 60.1667,61.8333 60.5,61.5C 59.1763,60.0653 57.5096,59.0653 55.5,58.5C 55.8627,57.8165 56.1961,57.1499 56.5,56.5C 57.1667,55.5 57.8333,54.5 58.5,53.5C 59.7079,54.2341 61.0413,54.5674 62.5,54.5C 63.6948,54.6775 64.8615,55.0109 66,55.5C 69.843,54.2298 73.6763,52.8964 77.5,51.5C 79.3545,51.3402 80.6879,52.0069 81.5,53.5 Z"/></g>
<g><path style="opacity:1" fill="#d7d47c" d="M 81.5,53.5 C 83.0269,53.427 84.0269,54.0937 84.5,55.5C 83.8333,55.8333 83.1667,56.1667 82.5,56.5C 82.38,55.4138 81.7133,54.7472 80.5,54.5C 78.8333,55.5 77.1667,56.5 75.5,57.5C 74.1585,55.9951 72.4918,55.3285 70.5,55.5C 73.9085,54.0966 77.5752,53.4299 81.5,53.5 Z"/></g>
<g><path style="opacity:1" fill="#d0c064" d="M 82.5,56.5 C 85.0044,57.9196 87.3377,59.5863 89.5,61.5C 87.9687,63.6801 85.8021,64.6801 83,64.5C 81.2841,64.2517 79.7841,63.585 78.5,62.5C 77.0815,63.0047 76.4148,64.0047 76.5,65.5C 74.5043,67.3332 72.171,67.8332 69.5,67C 70.1667,66.6667 70.8333,66.3333 71.5,66C 70.7256,63.595 70.2256,61.095 70,58.5C 67.7237,60.3074 67.557,61.8074 69.5,63C 68.3709,65.1678 66.8709,65.6678 65,64.5C 62.2433,66.6034 59.4099,68.6034 56.5,70.5C 55.5,70 54.5,69.5 53.5,69C 54.3805,68.2917 55.0472,67.4584 55.5,66.5C 57.1321,65.5543 58.7988,64.5543 60.5,63.5C 62.384,58.9425 65.7174,56.2759 70.5,55.5C 72.4918,55.3285 74.1585,55.9951 75.5,57.5C 77.1667,56.5 78.8333,55.5 80.5,54.5C 81.7133,54.7472 82.38,55.4138 82.5,56.5 Z"/></g>
<g><path style="opacity:1" fill="#c3b769" d="M 104.5,54.5 C 106.085,55.4737 107.085,56.9737 107.5,59C 110.478,59.696 113.478,60.196 116.5,60.5C 116.5,61.1667 116.5,61.8333 116.5,62.5C 117.694,63.2719 118.694,64.2719 119.5,65.5C 119.5,66.1667 119.167,66.5 118.5,66.5C 116.571,70.199 115.404,69.5324 115,64.5C 114.184,63.1772 113.017,62.5106 111.5,62.5C 110.081,61.5489 108.415,61.2155 106.5,61.5C 103.805,61.3185 101.472,60.3185 99.5,58.5C 101.506,57.5149 103.173,56.1816 104.5,54.5 Z"/></g>
<g><path style="opacity:1" fill="#cdb960" d="M 102.5,53.5 C 103.167,53.8333 103.833,54.1667 104.5,54.5C 103.173,56.1816 101.506,57.5149 99.5,58.5C 97.8679,59.4457 96.2012,60.4457 94.5,61.5C 92.6837,60.2651 91.017,60.2651 89.5,61.5C 87.3377,59.5863 85.0044,57.9196 82.5,56.5C 83.1667,56.1667 83.8333,55.8333 84.5,55.5C 88.4414,55.3541 92.108,54.3541 95.5,52.5C 97.8183,52.9971 100.152,53.3305 102.5,53.5 Z"/></g>
<g><path style="opacity:0.969" fill="#f0f9b7" d="M 43.5,54.5 C 42.9522,56.5323 41.6188,57.5323 39.5,57.5C 39.5,58.5 39.5,59.5 39.5,60.5C 37.0987,61.0488 34.7654,61.8822 32.5,63C 31.6195,63.7083 30.9528,64.5416 30.5,65.5C 30.5,65.8333 30.5,66.1667 30.5,66.5C 27.0318,67.37 24.6985,69.37 23.5,72.5C 23.3797,69.5198 22.713,66.6865 21.5,64C 22.3366,62.9887 22.67,61.8221 22.5,60.5C 26.4724,59.8918 30.4724,59.3918 34.5,59C 37.3914,57.2734 40.3914,55.7734 43.5,54.5 Z"/></g>
<g><path style="opacity:1" fill="#dce5a2" d="M 56.5,56.5 C 56.1961,57.1499 55.8627,57.8165 55.5,58.5C 57.5096,59.0653 59.1763,60.0653 60.5,61.5C 60.1667,61.8333 59.8333,62.1667 59.5,62.5C 57.3968,60.1201 56.2301,60.7868 56,64.5C 53.022,64.9806 51.1886,66.6472 50.5,69.5C 49.609,70.1098 48.609,70.4431 47.5,70.5C 41.1667,70.5 34.8333,70.5 28.5,70.5C 29.1667,69.1667 29.8333,67.8333 30.5,66.5C 30.5,66.1667 30.5,65.8333 30.5,65.5C 34.8681,64.643 39.5347,63.643 44.5,62.5C 44.8076,61.6919 45.3076,61.0253 46,60.5C 47.813,61.6091 48.6463,60.9424 48.5,58.5C 51.3274,58.4162 53.994,57.7496 56.5,56.5 Z"/></g>
<g><path style="opacity:0.004" fill="#f0f9bc" d="M 122.5,67.5 C 121.833,67.1667 121.167,66.8333 120.5,66.5C 120.5,65.8333 120.167,65.5 119.5,65.5C 118.694,64.2719 117.694,63.2719 116.5,62.5C 120.068,61.6975 122.068,63.3641 122.5,67.5 Z"/></g>
<g><path style="opacity:1" fill="#cdb761" d="M 106.5,61.5 C 108.415,61.2155 110.081,61.5489 111.5,62.5C 112.791,63.4728 112.791,64.4728 111.5,65.5C 109.754,66.3953 107.92,67.062 106,67.5C 102.415,64.2459 99.0813,64.2459 96,67.5C 95.6258,68.4162 95.1258,69.2496 94.5,70C 94.7284,70.3988 95.0618,70.5654 95.5,70.5C 95.5,71.1667 95.1667,71.5 94.5,71.5C 93.4664,70.3129 92.133,69.4796 90.5,69C 89.7476,68.3292 89.4142,67.4959 89.5,66.5C 89.7565,64.2239 91.0898,63.0572 93.5,63C 98.1333,62.2097 102.467,61.7097 106.5,61.5 Z"/></g>
<g><path style="opacity:1" fill="#bea94f" d="M 99.5,58.5 C 101.472,60.3185 103.805,61.3185 106.5,61.5C 102.467,61.7097 98.1333,62.2097 93.5,63C 91.0898,63.0572 89.7565,64.2239 89.5,66.5C 87.2655,66.6199 85.0989,66.2865 83,65.5C 81.9889,66.0556 81.1556,66.7222 80.5,67.5C 79.5326,66.1938 78.1993,65.5271 76.5,65.5C 76.4148,64.0047 77.0815,63.0047 78.5,62.5C 79.7841,63.585 81.2841,64.2517 83,64.5C 85.8021,64.6801 87.9687,63.6801 89.5,61.5C 91.017,60.2651 92.6837,60.2651 94.5,61.5C 96.2012,60.4457 97.8679,59.4457 99.5,58.5 Z"/></g>
<g><path style="opacity:1" fill="#ae9347" d="M 111.5,74.5 C 110.391,74.4431 109.391,74.1098 108.5,73.5C 106.952,73.1788 106.285,72.1788 106.5,70.5C 100.295,70.5816 94.628,72.2482 89.5,75.5C 89.1667,75.5 88.8333,75.5 88.5,75.5C 90.1898,73.6583 92.1898,72.325 94.5,71.5C 95.1667,71.5 95.5,71.1667 95.5,70.5C 99.4761,69.6693 103.476,69.5027 107.5,70C 109.041,71.3712 110.375,72.8712 111.5,74.5 Z"/></g>
<g><path style="opacity:1" fill="#e1c877" d="M 111.5,62.5 C 113.017,62.5106 114.184,63.1772 115,64.5C 115.404,69.5324 116.571,70.199 118.5,66.5C 118.36,68.1238 119.027,69.2904 120.5,70C 119.549,70.7175 119.383,71.5509 120,72.5C 123.033,74.6984 125.533,77.365 127.5,80.5C 126.162,82.1128 124.495,82.6128 122.5,82C 120.994,79.6667 119.327,77.5 117.5,75.5C 117.167,75.8333 116.833,76.1667 116.5,76.5C 119.229,78.3671 118.896,79.3671 115.5,79.5C 115.631,76.6333 114.297,74.9666 111.5,74.5C 110.375,72.8712 109.041,71.3712 107.5,70C 103.476,69.5027 99.4761,69.6693 95.5,70.5C 95.0618,70.5654 94.7284,70.3988 94.5,70C 95.1258,69.2496 95.6258,68.4162 96,67.5C 99.0813,64.2459 102.415,64.2459 106,67.5C 107.92,67.062 109.754,66.3953 111.5,65.5C 112.791,64.4728 112.791,63.4728 111.5,62.5 Z"/></g>
<g><path style="opacity:1" fill="#d7dd9b" d="M 47.5,70.5 C 46.8333,71.5 46.1667,72.5 45.5,73.5C 43.6593,74.4023 42.326,75.7356 41.5,77.5C 37.2504,78.2725 32.9171,78.7725 28.5,79C 28.0426,79.414 27.7093,79.914 27.5,80.5C 31.5304,82.7208 35.8637,83.8875 40.5,84C 41.2524,84.6708 41.5858,85.5041 41.5,86.5C 41.5,88.1667 41.5,89.8333 41.5,91.5C 40.6909,89.7078 40.1909,87.7078 40,85.5C 39.2229,87.2148 37.8895,88.2148 36,88.5C 35.1193,87.1 33.2859,86.1 30.5,85.5C 28.5749,85.5904 27.4083,86.5904 27,88.5C 26.586,88.0426 26.086,87.7093 25.5,87.5C 24.8316,85.0743 24.4982,82.741 24.5,80.5C 25.3128,79.1861 26.3128,78.0195 27.5,77C 26.6919,76.6924 26.0253,76.1924 25.5,75.5C 26.9524,74.0603 27.9524,72.3936 28.5,70.5C 34.8333,70.5 41.1667,70.5 47.5,70.5 Z"/></g>
<g><path style="opacity:1" fill="#d7c873" d="M 76.5,65.5 C 78.1993,65.5271 79.5326,66.1938 80.5,67.5C 79.2347,68.4793 77.9014,69.4793 76.5,70.5C 75.452,69.6171 74.2853,68.9504 73,68.5C 68.2676,70.3934 63.4342,72.06 58.5,73.5C 57.5489,74.9187 57.2155,76.5853 57.5,78.5C 55.5148,77.0756 52.8482,76.0756 49.5,75.5C 49.719,74.325 49.3857,73.325 48.5,72.5C 47.5832,73.1272 46.5832,73.4606 45.5,73.5C 46.1667,72.5 46.8333,71.5 47.5,70.5C 48.609,70.4431 49.609,70.1098 50.5,69.5C 51.922,68.075 53.5887,67.075 55.5,66.5C 55.0472,67.4584 54.3805,68.2917 53.5,69C 54.5,69.5 55.5,70 56.5,70.5C 59.4099,68.6034 62.2433,66.6034 65,64.5C 66.8709,65.6678 68.3709,65.1678 69.5,63C 67.557,61.8074 67.7237,60.3074 70,58.5C 70.2256,61.095 70.7256,63.595 71.5,66C 70.8333,66.3333 70.1667,66.6667 69.5,67C 72.171,67.8332 74.5043,67.3332 76.5,65.5 Z"/></g>
<g><path style="opacity:1" fill="#c4b571" d="M 89.5,66.5 C 89.4142,67.4959 89.7476,68.3292 90.5,69C 92.133,69.4796 93.4664,70.3129 94.5,71.5C 92.1898,72.325 90.1898,73.6583 88.5,75.5C 87.8333,75.5 87.1667,75.5 86.5,75.5C 82.906,74.8399 79.2394,74.6732 75.5,75C 76.9928,73.8438 76.8261,73.0104 75,72.5C 71.8921,73.1932 68.8921,74.1932 66,75.5C 64.1178,74.394 62.2844,74.394 60.5,75.5C 61.9023,76.8425 61.5689,77.6758 59.5,78C 60.1712,78.9862 60.1712,80.1529 59.5,81.5C 58.5269,79.0521 58.1936,76.3854 58.5,73.5C 63.4342,72.06 68.2676,70.3934 73,68.5C 74.2853,68.9504 75.452,69.6171 76.5,70.5C 77.9014,69.4793 79.2347,68.4793 80.5,67.5C 81.1556,66.7222 81.9889,66.0556 83,65.5C 85.0989,66.2865 87.2655,66.6199 89.5,66.5 Z"/></g>
<g><path style="opacity:1" fill="#e6eda7" d="M 153.5,93.5 C 150.119,93.4595 146.786,93.7929 143.5,94.5C 143.389,93.8826 143.056,93.3826 142.5,93C 143.737,92.7679 144.737,92.2679 145.5,91.5C 152.167,89.5 152.167,87.5 145.5,85.5C 144.306,84.3865 142.973,83.3865 141.5,82.5C 142.381,81.0295 143.714,80.1962 145.5,80C 143.945,78.3542 142.279,78.0209 140.5,79C 139.756,76.5172 139.756,73.8506 140.5,71C 139.258,70.6886 138.258,71.1886 137.5,72.5C 136.583,71.8728 135.583,71.5394 134.5,71.5C 140.278,68.615 145.612,69.615 150.5,74.5C 152.539,76.7419 154.205,79.2419 155.5,82C 154.862,85.9352 154.196,89.7685 153.5,93.5 Z"/></g>
<g><path style="opacity:0.914" fill="#c3c98a" d="M 120.5,66.5 C 121.167,66.8333 121.833,67.1667 122.5,67.5C 125.025,69.1771 127.691,70.6771 130.5,72C 129.402,72.7697 129.402,73.603 130.5,74.5C 130.5,74.8333 130.5,75.1667 130.5,75.5C 128.518,75.0046 126.518,74.5046 124.5,74C 125.167,73.6667 125.833,73.3333 126.5,73C 125.149,71.3829 123.482,70.2162 121.5,69.5C 120.873,68.5832 120.539,67.5832 120.5,66.5 Z"/></g>
<g><path style="opacity:1" fill="#dfe6a6" d="M 30.5,66.5 C 29.8333,67.8333 29.1667,69.1667 28.5,70.5C 27.9524,72.3936 26.9524,74.0603 25.5,75.5C 26.0253,76.1924 26.6919,76.6924 27.5,77C 26.3128,78.0195 25.3128,79.1861 24.5,80.5C 24.4982,82.741 24.8316,85.0743 25.5,87.5C 26.086,87.7093 26.586,88.0426 27,88.5C 27.4083,86.5904 28.5749,85.5904 30.5,85.5C 33.2859,86.1 35.1193,87.1 36,88.5C 37.8895,88.2148 39.2229,87.2148 40,85.5C 40.1909,87.7078 40.6909,89.7078 41.5,91.5C 43.1635,94.1586 44.8302,96.8252 46.5,99.5C 43.3384,97.8579 40.6718,95.5246 38.5,92.5C 37.8333,92.8333 37.1667,93.1667 36.5,93.5C 35.3974,91.8964 33.8974,90.8964 32,90.5C 30.4886,91.674 29.3219,93.0073 28.5,94.5C 27.3859,91.5512 25.3859,89.3845 22.5,88C 22.8333,87.6667 23.1667,87.3333 23.5,87C 22.1984,83.7253 20.5317,80.7253 18.5,78C 18.9312,75.0678 20.5978,73.2345 23.5,72.5C 24.6985,69.37 27.0318,67.37 30.5,66.5 Z"/></g>
<g><path style="opacity:1" fill="#cfc071" d="M 58.5,73.5 C 58.1936,76.3854 58.5269,79.0521 59.5,81.5C 59.5,82.1667 59.5,82.8333 59.5,83.5C 56.4881,84.9948 54.1548,84.1615 52.5,81C 48.7808,80.6116 45.1141,79.9449 41.5,79C 42.7383,78.31 42.7383,77.81 41.5,77.5C 42.326,75.7356 43.6593,74.4023 45.5,73.5C 46.5832,73.4606 47.5832,73.1272 48.5,72.5C 49.3857,73.325 49.719,74.325 49.5,75.5C 52.8482,76.0756 55.5148,77.0756 57.5,78.5C 57.2155,76.5853 57.5489,74.9187 58.5,73.5 Z"/></g>
<g><path style="opacity:1" fill="#c6ac66" d="M 108.5,73.5 C 106.88,75.4132 104.88,76.7466 102.5,77.5C 102.5,78.5 102.5,79.5 102.5,80.5C 101.833,80.5 101.167,80.5 100.5,80.5C 100.5,79.5 100.5,78.5 100.5,77.5C 96.7487,75.9481 93.0821,75.2814 89.5,75.5C 94.628,72.2482 100.295,70.5816 106.5,70.5C 106.285,72.1788 106.952,73.1788 108.5,73.5 Z"/></g>
<g><path style="opacity:1" fill="#c2b57a" d="M 86.5,75.5 C 84.3085,76.8686 81.9752,77.8686 79.5,78.5C 77.9414,80.2501 75.9414,81.2501 73.5,81.5C 68.784,81.846 64.1173,82.5127 59.5,83.5C 59.5,82.8333 59.5,82.1667 59.5,81.5C 60.1712,80.1529 60.1712,78.9862 59.5,78C 61.5689,77.6758 61.9023,76.8425 60.5,75.5C 62.2844,74.394 64.1178,74.394 66,75.5C 68.8921,74.1932 71.8921,73.1932 75,72.5C 76.8261,73.0104 76.9928,73.8438 75.5,75C 79.2394,74.6732 82.906,74.8399 86.5,75.5 Z"/></g>
<g><path style="opacity:1" fill="#a89863" d="M 86.5,75.5 C 87.1667,75.5 87.8333,75.5 88.5,75.5C 88.596,77.5959 88.596,79.7626 88.5,82C 91.5314,82.4954 94.5314,82.3287 97.5,81.5C 96.3646,83.2132 94.698,83.8799 92.5,83.5C 89.1501,83.665 85.8168,83.4983 82.5,83C 82.8333,82.6667 83.1667,82.3333 83.5,82C 82.552,81.5172 81.552,81.3505 80.5,81.5C 80.7373,80.209 80.404,79.209 79.5,78.5C 81.9752,77.8686 84.3085,76.8686 86.5,75.5 Z"/></g>
<g><path style="opacity:1" fill="#dfe399" d="M 145.5,85.5 C 145.167,85.5 144.833,85.5 144.5,85.5C 142.379,85.6747 140.379,85.3414 138.5,84.5C 138.167,83.5 137.5,82.8333 136.5,82.5C 134.927,79.7348 132.927,77.4014 130.5,75.5C 130.5,75.1667 130.5,74.8333 130.5,74.5C 131.404,73.791 131.737,72.791 131.5,71.5C 132.5,71.5 133.5,71.5 134.5,71.5C 135.583,71.5394 136.583,71.8728 137.5,72.5C 138.258,71.1886 139.258,70.6886 140.5,71C 139.756,73.8506 139.756,76.5172 140.5,79C 142.279,78.0209 143.945,78.3542 145.5,80C 143.714,80.1962 142.381,81.0295 141.5,82.5C 142.973,83.3865 144.306,84.3865 145.5,85.5 Z"/></g>
<g><path style="opacity:1" fill="#baa36f" d="M 88.5,75.5 C 88.8333,75.5 89.1667,75.5 89.5,75.5C 93.0821,75.2814 96.7487,75.9481 100.5,77.5C 100.5,78.5 100.5,79.5 100.5,80.5C 99.791,81.404 98.791,81.7373 97.5,81.5C 94.5314,82.3287 91.5314,82.4954 88.5,82C 88.596,79.7626 88.596,77.5959 88.5,75.5 Z"/></g>
<g><path style="opacity:1" fill="#c99f58" d="M 108.5,73.5 C 109.391,74.1098 110.391,74.4431 111.5,74.5C 114.297,74.9666 115.631,76.6333 115.5,79.5C 118.896,79.3671 119.229,78.3671 116.5,76.5C 116.833,76.1667 117.167,75.8333 117.5,75.5C 119.327,77.5 120.994,79.6667 122.5,82C 124.495,82.6128 126.162,82.1128 127.5,80.5C 127.5,81.1667 127.5,81.8333 127.5,82.5C 126.662,82.8417 126.328,83.5084 126.5,84.5C 125.417,84.4606 124.417,84.1272 123.5,83.5C 122.614,84.325 122.281,85.325 122.5,86.5C 121.5,86.5 120.5,86.5 119.5,86.5C 119.431,83.9158 118.265,81.9158 116,80.5C 115.837,82.3867 116.671,83.8867 118.5,85C 117.737,85.9435 116.737,86.4435 115.5,86.5C 111.664,84.5774 107.664,83.244 103.5,82.5C 103.672,81.5084 103.338,80.8417 102.5,80.5C 102.5,79.5 102.5,78.5 102.5,77.5C 104.88,76.7466 106.88,75.4132 108.5,73.5 Z"/></g>
<g><path style="opacity:1" fill="#b1a661" d="M 41.5,77.5 C 42.7383,77.81 42.7383,78.31 41.5,79C 45.1141,79.9449 48.7808,80.6116 52.5,81C 54.1548,84.1615 56.4881,84.9948 59.5,83.5C 64.1173,82.5127 68.784,81.846 73.5,81.5C 72.7659,82.7079 72.4326,84.0413 72.5,85.5C 73.3065,86.7281 74.3065,87.7281 75.5,88.5C 74.5084,88.3284 73.8417,88.6618 73.5,89.5C 66.7941,87.1867 59.7941,85.8534 52.5,85.5C 52.2172,84.7109 51.7172,84.0442 51,83.5C 47.9789,84.9751 44.8123,85.9751 41.5,86.5C 41.5858,85.5041 41.2524,84.6708 40.5,84C 35.8637,83.8875 31.5304,82.7208 27.5,80.5C 27.7093,79.914 28.0426,79.414 28.5,79C 32.9171,78.7725 37.2504,78.2725 41.5,77.5 Z"/></g>
<g><path style="opacity:1" fill="#d8d083" d="M 119.5,65.5 C 120.167,65.5 120.5,65.8333 120.5,66.5C 120.539,67.5832 120.873,68.5832 121.5,69.5C 123.482,70.2162 125.149,71.3829 126.5,73C 125.833,73.3333 125.167,73.6667 124.5,74C 126.518,74.5046 128.518,75.0046 130.5,75.5C 132.927,77.4014 134.927,79.7348 136.5,82.5C 133.5,83.8333 130.5,83.8333 127.5,82.5C 127.5,81.8333 127.5,81.1667 127.5,80.5C 125.533,77.365 123.033,74.6984 120,72.5C 119.383,71.5509 119.549,70.7175 120.5,70C 119.027,69.2904 118.36,68.1238 118.5,66.5C 119.167,66.5 119.5,66.1667 119.5,65.5 Z"/></g>
<g><path style="opacity:1" fill="#697839" d="M 79.5,78.5 C 80.404,79.209 80.7373,80.209 80.5,81.5C 81.552,81.3505 82.552,81.5172 83.5,82C 83.1667,82.3333 82.8333,82.6667 82.5,83C 85.8168,83.4983 89.1501,83.665 92.5,83.5C 91.5707,84.3149 90.5707,85.1482 89.5,86C 90.9423,86.3768 91.9423,87.2101 92.5,88.5C 85.6901,88.3648 79.0235,87.3648 72.5,85.5C 72.4326,84.0413 72.7659,82.7079 73.5,81.5C 75.9414,81.2501 77.9414,80.2501 79.5,78.5 Z"/></g>
<g><path style="opacity:1" fill="#636529" d="M 100.5,80.5 C 101.167,80.5 101.833,80.5 102.5,80.5C 103.338,80.8417 103.672,81.5084 103.5,82.5C 102.833,83.8333 102.167,85.1667 101.5,86.5C 99.847,86.6596 98.5137,87.3263 97.5,88.5C 96.1667,88.8333 94.8333,89.1667 93.5,89.5C 92.8333,89.5 92.5,89.1667 92.5,88.5C 91.9423,87.2101 90.9423,86.3768 89.5,86C 90.5707,85.1482 91.5707,84.3149 92.5,83.5C 94.698,83.8799 96.3646,83.2132 97.5,81.5C 98.791,81.7373 99.791,81.404 100.5,80.5 Z"/></g>
<g><path style="opacity:1" fill="#ccc97e" d="M 52.5,85.5 C 52.1667,85.5 51.8333,85.5 51.5,85.5C 50.9033,85.7352 50.5699,86.2352 50.5,87C 51.9533,91.8572 53.2867,96.6905 54.5,101.5C 54.8333,102.833 55.1667,104.167 55.5,105.5C 54.0755,103.969 53.4088,104.302 53.5,106.5C 51.5272,103.861 49.1939,101.527 46.5,99.5C 44.8302,96.8252 43.1635,94.1586 41.5,91.5C 41.5,89.8333 41.5,88.1667 41.5,86.5C 44.8123,85.9751 47.9789,84.9751 51,83.5C 51.7172,84.0442 52.2172,84.7109 52.5,85.5 Z"/></g>
<g><path style="opacity:1" fill="#f6eba6" d="M 51.5,85.5 C 51.8333,85.5 52.1667,85.5 52.5,85.5C 59.7941,85.8534 66.7941,87.1867 73.5,89.5C 74.1157,90.7978 74.1157,91.7978 73.5,92.5C 72.8333,92.5 72.1667,92.5 71.5,92.5C 66.8313,90.4214 61.8313,89.4214 56.5,89.5C 55.0158,87.9263 53.3492,86.593 51.5,85.5 Z"/></g>
<g><path style="opacity:1" fill="#b98939" d="M 126.5,84.5 C 126.634,86.2915 126.301,87.9582 125.5,89.5C 124.07,89.5792 122.736,89.2458 121.5,88.5C 120.702,88.9569 120.369,89.6236 120.5,90.5C 119.833,90.5 119.167,90.5 118.5,90.5C 119.234,89.2921 119.567,87.9587 119.5,86.5C 120.5,86.5 121.5,86.5 122.5,86.5C 122.281,85.325 122.614,84.325 123.5,83.5C 124.417,84.1272 125.417,84.4606 126.5,84.5 Z"/></g>
<g><path style="opacity:1" fill="#ab9342" d="M 138.5,84.5 C 140.379,85.3414 142.379,85.6747 144.5,85.5C 144.5,86.5 144.5,87.5 144.5,88.5C 141.848,88.4095 139.515,89.0762 137.5,90.5C 137.167,90.5 136.833,90.5 136.5,90.5C 135.292,89.7659 133.959,89.4326 132.5,89.5C 132.862,86.1134 134.862,84.4467 138.5,84.5 Z"/></g>
<g><path style="opacity:1" fill="#766c28" d="M 72.5,85.5 C 79.0235,87.3648 85.6901,88.3648 92.5,88.5C 92.5,89.1667 92.8333,89.5 93.5,89.5C 92.791,90.404 91.791,90.7373 90.5,90.5C 85.5296,89.6471 80.5296,88.9805 75.5,88.5C 74.3065,87.7281 73.3065,86.7281 72.5,85.5 Z"/></g>
<g><path style="opacity:1" fill="#c9a569" d="M 105.5,91.5 C 104.07,92.5375 102.403,93.2041 100.5,93.5C 97.8127,93.6641 95.146,93.4974 92.5,93C 96.9333,92.5788 100.933,91.0788 104.5,88.5C 104,88.1667 103.5,87.8333 103,87.5C 101.234,88.2335 99.4008,88.5668 97.5,88.5C 98.5137,87.3263 99.847,86.6596 101.5,86.5C 106.98,85.1534 108.314,86.8201 105.5,91.5 Z"/></g>
<g><path style="opacity:1" fill="#b99556" d="M 119.5,86.5 C 119.567,87.9587 119.234,89.2921 118.5,90.5C 117.833,90.5 117.5,90.8333 117.5,91.5C 115.723,91.2137 114.056,90.5471 112.5,89.5C 110.238,90.4669 107.905,91.1336 105.5,91.5C 108.314,86.8201 106.98,85.1534 101.5,86.5C 102.167,85.1667 102.833,83.8333 103.5,82.5C 107.664,83.244 111.664,84.5774 115.5,86.5C 116.737,86.4435 117.737,85.9435 118.5,85C 116.671,83.8867 115.837,82.3867 116,80.5C 118.265,81.9158 119.431,83.9158 119.5,86.5 Z"/></g>
<g><path style="opacity:1" fill="#d8ba67" d="M 127.5,82.5 C 130.5,83.8333 133.5,83.8333 136.5,82.5C 137.5,82.8333 138.167,83.5 138.5,84.5C 134.862,84.4467 132.862,86.1134 132.5,89.5C 133.959,89.4326 135.292,89.7659 136.5,90.5C 135.599,92.7271 133.933,93.7271 131.5,93.5C 131.81,96.7131 131.477,99.7131 130.5,102.5C 130.663,100.143 130.497,97.8098 130,95.5C 129.583,94.244 128.75,93.5774 127.5,93.5C 126.194,92.5326 125.527,91.1993 125.5,89.5C 126.301,87.9582 126.634,86.2915 126.5,84.5C 126.328,83.5084 126.662,82.8417 127.5,82.5 Z"/></g>
<g><path style="opacity:1" fill="#bb9154" d="M 100.5,93.5 C 98.6505,94.8366 96.4839,95.5033 94,95.5C 91.9919,95.6932 90.4919,95.0265 89.5,93.5C 90.404,92.791 90.7373,91.791 90.5,90.5C 91.791,90.7373 92.791,90.404 93.5,89.5C 94.8333,89.1667 96.1667,88.8333 97.5,88.5C 99.4008,88.5668 101.234,88.2335 103,87.5C 103.5,87.8333 104,88.1667 104.5,88.5C 100.933,91.0788 96.9333,92.5788 92.5,93C 95.146,93.4974 97.8127,93.6641 100.5,93.5 Z"/></g>
<g><path style="opacity:1" fill="#b5b363" d="M 144.5,85.5 C 144.833,85.5 145.167,85.5 145.5,85.5C 152.167,87.5 152.167,89.5 145.5,91.5C 142.794,91.4249 140.127,91.0916 137.5,90.5C 139.515,89.0762 141.848,88.4095 144.5,88.5C 144.5,87.5 144.5,86.5 144.5,85.5 Z"/></g>
<g><path style="opacity:1" fill="#d6be6d" d="M 56.5,89.5 C 61.8313,89.4214 66.8313,90.4214 71.5,92.5C 69.847,92.6596 68.5137,93.3263 67.5,94.5C 65.079,94.1218 62.7457,93.4552 60.5,92.5C 59.0783,92.2914 57.745,91.7914 56.5,91C 55.2617,90.31 55.2617,89.81 56.5,89.5 Z"/></g>
<g><path style="opacity:1" fill="#bb7d32" d="M 73.5,89.5 C 73.8417,88.6618 74.5084,88.3284 75.5,88.5C 80.5296,88.9805 85.5296,89.6471 90.5,90.5C 90.7373,91.791 90.404,92.791 89.5,93.5C 89.1667,93.5 88.8333,93.5 88.5,93.5C 84.0153,90.7951 79.0153,89.4618 73.5,89.5 Z"/></g>
<g><path style="opacity:1" fill="#e7b861" d="M 125.5,89.5 C 125.527,91.1993 126.194,92.5326 127.5,93.5C 125.914,94.4132 124.414,94.4132 123,93.5C 122.506,95.1341 122.34,96.8008 122.5,98.5C 121.469,96.0392 120.802,93.3725 120.5,90.5C 120.369,89.6236 120.702,88.9569 121.5,88.5C 122.736,89.2458 124.07,89.5792 125.5,89.5 Z"/></g>
<g><path style="opacity:1" fill="#fccc76" d="M 73.5,89.5 C 79.0153,89.4618 84.0153,90.7951 88.5,93.5C 87.2524,95.69 85.5857,96.0234 83.5,94.5C 81.4086,94.3184 79.4086,94.6518 77.5,95.5C 75.739,94.9649 74.4057,93.9649 73.5,92.5C 74.1157,91.7978 74.1157,90.7978 73.5,89.5 Z"/></g>
<g><path style="opacity:1" fill="#e5c680" d="M 117.5,91.5 C 118.604,92.9974 119.604,94.664 120.5,96.5C 120.167,97.1667 119.833,97.8333 119.5,98.5C 119.167,97.8333 118.833,97.1667 118.5,96.5C 116.972,97.8613 115.305,99.028 113.5,100C 113.833,100.333 114.167,100.667 114.5,101C 113.421,103.043 111.754,104.376 109.5,105C 110.696,105.654 110.696,106.154 109.5,106.5C 107.596,102.961 105.262,102.628 102.5,105.5C 101.508,105.328 100.842,105.662 100.5,106.5C 97.7559,105.509 95.0893,105.843 92.5,107.5C 90.2376,103.815 91.5709,101.815 96.5,101.5C 96.67,100.178 96.3366,99.0113 95.5,98C 92.6492,96.7114 89.6492,96.2114 86.5,96.5C 84.8212,96.7148 83.8212,96.0481 83.5,94.5C 85.5857,96.0234 87.2524,95.69 88.5,93.5C 88.8333,93.5 89.1667,93.5 89.5,93.5C 90.4919,95.0265 91.9919,95.6932 94,95.5C 96.4839,95.5033 98.6505,94.8366 100.5,93.5C 102.403,93.2041 104.07,92.5375 105.5,91.5C 107.905,91.1336 110.238,90.4669 112.5,89.5C 114.056,90.5471 115.723,91.2137 117.5,91.5 Z"/></g>
<g><path style="opacity:1" fill="#e2e69c" d="M 136.5,90.5 C 136.833,90.5 137.167,90.5 137.5,90.5C 140.127,91.0916 142.794,91.4249 145.5,91.5C 144.737,92.2679 143.737,92.7679 142.5,93C 143.056,93.3826 143.389,93.8826 143.5,94.5C 140.698,96.3401 137.698,98.0068 134.5,99.5C 133.705,102.126 133.705,103.793 134.5,104.5C 132.684,105.735 131.017,105.735 129.5,104.5C 129.833,103.833 130.167,103.167 130.5,102.5C 131.477,99.7131 131.81,96.7131 131.5,93.5C 133.933,93.7271 135.599,92.7271 136.5,90.5 Z"/></g>
<g><path style="opacity:1" fill="#d8db9f" d="M 51.5,85.5 C 53.3492,86.593 55.0158,87.9263 56.5,89.5C 55.2617,89.81 55.2617,90.31 56.5,91C 57.745,91.7914 59.0783,92.2914 60.5,92.5C 62.4773,94.8138 64.4773,97.1472 66.5,99.5C 64.3869,101.626 62.2202,103.626 60,105.5C 59.1253,102.785 57.2919,101.452 54.5,101.5C 53.2867,96.6905 51.9533,91.8572 50.5,87C 50.5699,86.2352 50.9033,85.7352 51.5,85.5 Z"/></g>
<g><path style="opacity:1" fill="#e3ebaa" d="M 46.5,99.5 C 46.4142,100.496 46.7476,101.329 47.5,102C 45.1703,103.075 43.837,104.575 43.5,106.5C 45.3636,109.196 47.697,111.196 50.5,112.5C 43.2359,110.712 38.2359,106.379 35.5,99.5C 32.4268,98.7225 30.0935,97.0558 28.5,94.5C 29.3219,93.0073 30.4886,91.674 32,90.5C 33.8974,90.8964 35.3974,91.8964 36.5,93.5C 37.1667,93.1667 37.8333,92.8333 38.5,92.5C 40.6718,95.5246 43.3384,97.8579 46.5,99.5 Z"/></g>
<g><path style="opacity:1" fill="#cf9640" d="M 71.5,92.5 C 72.1667,92.5 72.8333,92.5 73.5,92.5C 74.4057,93.9649 75.739,94.9649 77.5,95.5C 79.4086,94.6518 81.4086,94.3184 83.5,94.5C 83.8212,96.0481 84.8212,96.7148 86.5,96.5C 85.8166,98.1765 84.4832,98.8432 82.5,98.5C 82.33,99.8221 82.6634,100.989 83.5,102C 79.2332,102.987 78.8998,103.821 82.5,104.5C 82.2627,105.791 82.596,106.791 83.5,107.5C 83.3893,108.117 83.056,108.617 82.5,109C 84.5064,109.083 85.5064,109.583 85.5,110.5C 82.7718,110.171 80.4385,110.837 78.5,112.5C 77.5041,112.586 76.6708,112.252 76,111.5C 75.8019,109.618 75.3019,107.952 74.5,106.5C 75.9094,104.695 76.4094,102.695 76,100.5C 74.6967,99.8878 73.5301,99.5545 72.5,99.5C 75.2508,96.9453 74.5841,95.9453 70.5,96.5C 70.5,95.1667 69.8333,94.5 68.5,94.5C 68.1667,94.5 67.8333,94.5 67.5,94.5C 68.5137,93.3263 69.847,92.6596 71.5,92.5 Z"/></g>
<g><path style="opacity:1" fill="#e3c47b" d="M 117.5,91.5 C 117.5,90.8333 117.833,90.5 118.5,90.5C 119.167,90.5 119.833,90.5 120.5,90.5C 120.802,93.3725 121.469,96.0392 122.5,98.5C 122.167,100.5 121.833,102.5 121.5,104.5C 116.695,105.022 112.695,107.022 109.5,110.5C 107.381,108.6 105.047,106.934 102.5,105.5C 105.262,102.628 107.596,102.961 109.5,106.5C 110.696,106.154 110.696,105.654 109.5,105C 111.754,104.376 113.421,103.043 114.5,101C 114.167,100.667 113.833,100.333 113.5,100C 115.305,99.028 116.972,97.8613 118.5,96.5C 118.833,97.1667 119.167,97.8333 119.5,98.5C 119.833,97.8333 120.167,97.1667 120.5,96.5C 119.604,94.664 118.604,92.9974 117.5,91.5 Z"/></g>
<g><path style="opacity:1" fill="#d5a955" d="M 70.5,96.5 C 74.5841,95.9453 75.2508,96.9453 72.5,99.5C 73.5301,99.5545 74.6967,99.8878 76,100.5C 76.4094,102.695 75.9094,104.695 74.5,106.5C 72.8036,103.417 71.4702,100.083 70.5,96.5 Z"/></g>
<g><path style="opacity:1" fill="#d3a75c" d="M 86.5,96.5 C 89.6492,96.2114 92.6492,96.7114 95.5,98C 96.3366,99.0113 96.67,100.178 96.5,101.5C 91.5709,101.815 90.2376,103.815 92.5,107.5C 89.4215,108.372 86.4215,108.372 83.5,107.5C 82.596,106.791 82.2627,105.791 82.5,104.5C 78.8998,103.821 79.2332,102.987 83.5,102C 82.6634,100.989 82.33,99.8221 82.5,98.5C 84.4832,98.8432 85.8166,98.1765 86.5,96.5 Z"/></g>
<g><path style="opacity:1" fill="#dee59e" d="M 153.5,93.5 C 150.903,96.3557 149.07,99.6891 148,103.5C 145.486,105.004 142.986,106.338 140.5,107.5C 136.094,106.547 131.761,106.214 127.5,106.5C 127.833,105.5 128.5,104.833 129.5,104.5C 131.017,105.735 132.684,105.735 134.5,104.5C 133.705,103.793 133.705,102.126 134.5,99.5C 137.698,98.0068 140.698,96.3401 143.5,94.5C 146.786,93.7929 150.119,93.4595 153.5,93.5 Z"/></g>
<g><path style="opacity:1" fill="#d7da9b" d="M 60.5,92.5 C 62.7457,93.4552 65.079,94.1218 67.5,94.5C 67.8333,94.5 68.1667,94.5 68.5,94.5C 70.6108,100.724 69.2774,106.057 64.5,110.5C 63.0603,109.048 61.3936,108.048 59.5,107.5C 57.6203,107.771 56.287,107.104 55.5,105.5C 55.1667,104.167 54.8333,102.833 54.5,101.5C 57.2919,101.452 59.1253,102.785 60,105.5C 62.2202,103.626 64.3869,101.626 66.5,99.5C 64.4773,97.1472 62.4773,94.8138 60.5,92.5 Z"/></g>
<g><path style="opacity:1" fill="#e5ab4c" d="M 127.5,93.5 C 128.75,93.5774 129.583,94.244 130,95.5C 130.497,97.8098 130.663,100.143 130.5,102.5C 130.167,103.167 129.833,103.833 129.5,104.5C 128.5,104.833 127.833,105.5 127.5,106.5C 127.167,106.5 126.833,106.5 126.5,106.5C 125.533,105.194 124.199,104.527 122.5,104.5C 122.167,104.5 121.833,104.5 121.5,104.5C 121.833,102.5 122.167,100.5 122.5,98.5C 122.34,96.8008 122.506,95.1341 123,93.5C 124.414,94.4132 125.914,94.4132 127.5,93.5 Z"/></g>
<g><path style="opacity:1" fill="#e4e69e" d="M 46.5,99.5 C 49.1939,101.527 51.5272,103.861 53.5,106.5C 54.3382,106.842 54.6716,107.508 54.5,108.5C 55.1383,110.46 55.1383,112.293 54.5,114C 55.3805,114.708 56.0472,115.542 56.5,116.5C 54.2228,115.551 52.2228,114.218 50.5,112.5C 47.697,111.196 45.3636,109.196 43.5,106.5C 43.837,104.575 45.1703,103.075 47.5,102C 46.7476,101.329 46.4142,100.496 46.5,99.5 Z"/></g>
<g><path style="opacity:1" fill="#d2ab5c" d="M 121.5,104.5 C 121.833,104.5 122.167,104.5 122.5,104.5C 120.12,106.042 118.12,108.042 116.5,110.5C 114.484,107.837 113.151,108.17 112.5,111.5C 111.391,111.443 110.391,111.11 109.5,110.5C 112.695,107.022 116.695,105.022 121.5,104.5 Z"/></g>
<g><path style="opacity:1" fill="#d49e4b" d="M 83.5,107.5 C 86.4215,108.372 89.4215,108.372 92.5,107.5C 93.9488,109.164 95.9488,109.998 98.5,110C 97.9221,111.417 96.9221,112.25 95.5,112.5C 94.2502,112.423 93.4169,111.756 93,110.5C 92.5172,111.448 92.3505,112.448 92.5,113.5C 91.5,113.5 90.5,113.5 89.5,113.5C 88.4097,112.143 87.0764,111.143 85.5,110.5C 85.5064,109.583 84.5064,109.083 82.5,109C 83.056,108.617 83.3893,108.117 83.5,107.5 Z"/></g>
<g><path style="opacity:1" fill="#ebf9b9" d="M 126.5,106.5 C 126.833,106.5 127.167,106.5 127.5,106.5C 131.761,106.214 136.094,106.547 140.5,107.5C 137.008,109.645 133.341,111.645 129.5,113.5C 130.706,115.516 130.706,117.516 129.5,119.5C 127.205,120.432 124.871,121.265 122.5,122C 121.663,123.011 121.33,124.178 121.5,125.5C 120.5,125.5 119.5,125.5 118.5,125.5C 115.345,125.977 112.345,126.977 109.5,128.5C 109.511,126.983 110.177,125.816 111.5,125C 110.2,123.421 110.534,122.255 112.5,121.5C 117.274,119.607 122.107,117.94 127,116.5C 127.167,116.167 127.333,115.833 127.5,115.5C 125.694,113.493 123.694,111.826 121.5,110.5C 122.9,109.9 123.9,108.9 124.5,107.5C 125.492,107.672 126.158,107.338 126.5,106.5 Z"/></g>
<g><path style="opacity:1" fill="#bba252" d="M 124.5,107.5 C 123.9,108.9 122.9,109.9 121.5,110.5C 119.144,112.345 116.477,113.678 113.5,114.5C 116.629,111.38 120.296,109.047 124.5,107.5 Z"/></g>
<g><path style="opacity:1" fill="#cea547" d="M 55.5,105.5 C 56.287,107.104 57.6203,107.771 59.5,107.5C 60.8121,109.479 62.4788,111.145 64.5,112.5C 65.8069,113.865 65.8069,115.198 64.5,116.5C 63.8333,116.5 63.1667,116.5 62.5,116.5C 61.2921,115.766 59.9587,115.433 58.5,115.5C 58.0023,112.674 56.6689,110.34 54.5,108.5C 54.6716,107.508 54.3382,106.842 53.5,106.5C 53.4088,104.302 54.0755,103.969 55.5,105.5 Z"/></g>
<g><path style="opacity:1" fill="#dcd586" d="M 68.5,94.5 C 69.8333,94.5 70.5,95.1667 70.5,96.5C 71.4702,100.083 72.8036,103.417 74.5,106.5C 75.3019,107.952 75.8019,109.618 76,111.5C 76.6708,112.252 77.5041,112.586 78.5,112.5C 79.404,113.209 79.7373,114.209 79.5,115.5C 77.8007,115.527 76.4674,116.194 75.5,117.5C 72.9407,117.198 70.6074,117.532 68.5,118.5C 68.1667,118.5 67.8333,118.5 67.5,118.5C 66.7095,117.599 65.7095,116.932 64.5,116.5C 65.8069,115.198 65.8069,113.865 64.5,112.5C 62.4788,111.145 60.8121,109.479 59.5,107.5C 61.3936,108.048 63.0603,109.048 64.5,110.5C 69.2774,106.057 70.6108,100.724 68.5,94.5 Z"/></g>
<g><path style="opacity:1" fill="#eac474" d="M 122.5,104.5 C 124.199,104.527 125.533,105.194 126.5,106.5C 126.158,107.338 125.492,107.672 124.5,107.5C 120.296,109.047 116.629,111.38 113.5,114.5C 112.486,115.674 111.153,116.34 109.5,116.5C 106.464,119.542 103.131,122.376 99.5,125C 95.5138,125.499 91.5138,125.666 87.5,125.5C 86.8333,125.5 86.5,125.167 86.5,124.5C 90.1817,124.665 93.8484,124.499 97.5,124C 99.727,123.296 100.06,122.129 98.5,120.5C 101.765,120.701 104.431,119.534 106.5,117C 102.543,117.525 98.5425,117.359 94.5,116.5C 93.7375,115.732 92.7375,115.232 91.5,115C 93.0664,114.392 94.3998,113.558 95.5,112.5C 96.9221,112.25 97.9221,111.417 98.5,110C 95.9488,109.998 93.9488,109.164 92.5,107.5C 95.0893,105.843 97.7559,105.509 100.5,106.5C 101.239,106.369 101.906,106.536 102.5,107C 101.257,108.154 100.257,109.488 99.5,111C 102.383,111.683 105.05,112.85 107.5,114.5C 109.922,113.521 111.588,112.521 112.5,111.5C 113.151,108.17 114.484,107.837 116.5,110.5C 118.12,108.042 120.12,106.042 122.5,104.5 Z"/></g>
<g><path style="opacity:1" fill="#f5da8e" d="M 100.5,106.5 C 100.842,105.662 101.508,105.328 102.5,105.5C 105.047,106.934 107.381,108.6 109.5,110.5C 110.391,111.11 111.391,111.443 112.5,111.5C 111.588,112.521 109.922,113.521 107.5,114.5C 105.05,112.85 102.383,111.683 99.5,111C 100.257,109.488 101.257,108.154 102.5,107C 101.906,106.536 101.239,106.369 100.5,106.5 Z"/></g>
<g><path style="opacity:1" fill="#e5bb67" d="M 85.5,110.5 C 87.0764,111.143 88.4097,112.143 89.5,113.5C 86.7816,114.043 84.115,114.709 81.5,115.5C 80.8333,115.5 80.1667,115.5 79.5,115.5C 79.7373,114.209 79.404,113.209 78.5,112.5C 80.4385,110.837 82.7718,110.171 85.5,110.5 Z"/></g>
<g><path style="opacity:1" fill="#d8c569" d="M 54.5,108.5 C 56.6689,110.34 58.0023,112.674 58.5,115.5C 59.9587,115.433 61.2921,115.766 62.5,116.5C 62.5,116.833 62.5,117.167 62.5,117.5C 60.2646,117.795 58.2646,117.461 56.5,116.5C 56.0472,115.542 55.3805,114.708 54.5,114C 55.1383,112.293 55.1383,110.46 54.5,108.5 Z"/></g>
<g><path style="opacity:1" fill="#de9537" d="M 95.5,112.5 C 94.3998,113.558 93.0664,114.392 91.5,115C 92.7375,115.232 93.7375,115.732 94.5,116.5C 95.4054,117.964 95.4054,119.298 94.5,120.5C 93.8333,120.5 93.1667,120.5 92.5,120.5C 93.7914,119.527 93.7914,118.527 92.5,117.5C 88.6875,116.833 85.0208,116.166 81.5,115.5C 84.115,114.709 86.7816,114.043 89.5,113.5C 90.5,113.5 91.5,113.5 92.5,113.5C 92.3505,112.448 92.5172,111.448 93,110.5C 93.4169,111.756 94.2502,112.423 95.5,112.5 Z"/></g>
<g><path style="opacity:1" fill="#e1efb0" d="M 121.5,110.5 C 123.694,111.826 125.694,113.493 127.5,115.5C 127.333,115.833 127.167,116.167 127,116.5C 122.107,117.94 117.274,119.607 112.5,121.5C 112.918,120.778 113.584,120.278 114.5,120C 113.354,119.355 112.354,118.522 111.5,117.5C 110.056,118.981 109.389,118.648 109.5,116.5C 111.153,116.34 112.486,115.674 113.5,114.5C 116.477,113.678 119.144,112.345 121.5,110.5 Z"/></g>
<g><path style="opacity:1" fill="#afa44f" d="M 68.5,118.5 C 70.6074,117.532 72.9407,117.198 75.5,117.5C 76.9002,118.1 77.9002,119.1 78.5,120.5C 75.2949,118.528 71.9615,117.861 68.5,118.5 Z"/></g>
<g><path style="opacity:1" fill="#d29b46" d="M 94.5,116.5 C 98.5425,117.359 102.543,117.525 106.5,117C 104.431,119.534 101.765,120.701 98.5,120.5C 97.1667,120.5 95.8333,120.5 94.5,120.5C 95.4054,119.298 95.4054,117.964 94.5,116.5 Z"/></g>
<g><path style="opacity:1" fill="#d7811a" d="M 79.5,115.5 C 80.1667,115.5 80.8333,115.5 81.5,115.5C 85.0208,116.166 88.6875,116.833 92.5,117.5C 93.7914,118.527 93.7914,119.527 92.5,120.5C 88.1667,120.5 83.8333,120.5 79.5,120.5C 79.1667,120.5 78.8333,120.5 78.5,120.5C 77.9002,119.1 76.9002,118.1 75.5,117.5C 76.4674,116.194 77.8007,115.527 79.5,115.5 Z"/></g>
<g><path style="opacity:0.997" fill="#e7f3b6" d="M 62.5,117.5 C 62.5,117.167 62.5,116.833 62.5,116.5C 63.1667,116.5 63.8333,116.5 64.5,116.5C 65.7095,116.932 66.7095,117.599 67.5,118.5C 65.6182,119.237 64.9515,120.404 65.5,122C 66.7604,123.113 67.927,123.28 69,122.5C 70,123.5 71,124.5 72,125.5C 73.9754,125.512 76.1421,125.178 78.5,124.5C 78.5,125.5 78.5,126.5 78.5,127.5C 81.2298,127.473 83.7298,128.14 86,129.5C 88.8448,129.345 91.6781,129.345 94.5,129.5C 94.5,130.167 94.8333,130.5 95.5,130.5C 91.3537,131.647 87.0204,131.814 82.5,131C 77.6049,130.06 72.9382,128.56 68.5,126.5C 66.5548,127.128 64.8881,128.128 63.5,129.5C 60.4611,127.544 57.6278,125.21 55,122.5C 54.5172,121.552 54.3505,120.552 54.5,119.5C 58.6493,119.277 61.316,118.61 62.5,117.5 Z"/></g>
<g><path style="opacity:1" fill="#ebad54" d="M 79.5,120.5 C 83.8333,120.5 88.1667,120.5 92.5,120.5C 93.1667,120.5 93.8333,120.5 94.5,120.5C 95.8333,120.5 97.1667,120.5 98.5,120.5C 100.06,122.129 99.727,123.296 97.5,124C 93.8484,124.499 90.1817,124.665 86.5,124.5C 84.3195,122.909 81.9861,121.576 79.5,120.5 Z"/></g>
<g><path style="opacity:1" fill="#dce8ae" d="M 67.5,118.5 C 67.8333,118.5 68.1667,118.5 68.5,118.5C 71.9615,117.861 75.2949,118.528 78.5,120.5C 78.8333,120.5 79.1667,120.5 79.5,120.5C 81.9861,121.576 84.3195,122.909 86.5,124.5C 86.5,125.167 86.8333,125.5 87.5,125.5C 90.0571,126.485 92.7237,127.485 95.5,128.5C 95.3764,129.107 95.0431,129.44 94.5,129.5C 91.6781,129.345 88.8448,129.345 86,129.5C 83.7298,128.14 81.2298,127.473 78.5,127.5C 78.5,126.5 78.5,125.5 78.5,124.5C 76.1421,125.178 73.9754,125.512 72,125.5C 71,124.5 70,123.5 69,122.5C 67.927,123.28 66.7604,123.113 65.5,122C 64.9515,120.404 65.6182,119.237 67.5,118.5 Z"/></g>
<g><path style="opacity:1" fill="#e0e9ab" d="M 109.5,116.5 C 109.389,118.648 110.056,118.981 111.5,117.5C 112.354,118.522 113.354,119.355 114.5,120C 113.584,120.278 112.918,120.778 112.5,121.5C 110.534,122.255 110.2,123.421 111.5,125C 110.177,125.816 109.511,126.983 109.5,128.5C 105.146,130.348 100.48,131.015 95.5,130.5C 94.8333,130.5 94.5,130.167 94.5,129.5C 95.0431,129.44 95.3764,129.107 95.5,128.5C 92.7237,127.485 90.0571,126.485 87.5,125.5C 91.5138,125.666 95.5138,125.499 99.5,125C 103.131,122.376 106.464,119.542 109.5,116.5 Z"/></g>
<g><path style="opacity:0.972" fill="#edf8b8" d="M 118.5,125.5 C 116.24,128.007 114.24,130.84 112.5,134C 105.894,135.939 99.227,136.439 92.5,135.5C 89.5588,136.203 86.7255,137.203 84,138.5C 79.0665,135.147 73.5665,133.647 67.5,134C 65.9586,132.629 64.6253,131.129 63.5,129.5C 64.8881,128.128 66.5548,127.128 68.5,126.5C 72.9382,128.56 77.6049,130.06 82.5,131C 87.0204,131.814 91.3537,131.647 95.5,130.5C 100.48,131.015 105.146,130.348 109.5,128.5C 112.345,126.977 115.345,125.977 118.5,125.5 Z"/></g>
<g><path style="opacity:0.734" fill="#c6c7be" d="M 63.5,136.5 C 64.4959,136.414 65.3292,136.748 66,137.5C 66.413,140.232 67.0797,142.899 68,145.5C 69.8333,143.667 71.6667,141.833 73.5,140C 74.6001,139.568 75.2668,140.068 75.5,141.5C 74.9251,145.482 73.5917,149.149 71.5,152.5C 70.8153,150.219 70.6487,147.886 71,145.5C 69.7365,147.607 67.9032,148.607 65.5,148.5C 64.6059,141.944 63.6059,141.944 62.5,148.5C 62.1667,148.833 61.8333,149.167 61.5,149.5C 61.1667,148.833 60.8333,148.167 60.5,147.5C 61.3485,143.771 62.3485,140.104 63.5,136.5 Z"/></g>
<g><path style="opacity:0.719" fill="#c6c7bf" d="M 102.5,138.5 C 108.144,137.481 111.144,139.814 111.5,145.5C 108.679,145.539 106.012,146.205 103.5,147.5C 106.148,150.262 108.481,149.929 110.5,146.5C 111.347,149.866 109.847,151.866 106,152.5C 102.055,151.142 99.8883,148.309 99.5,144C 100.124,141.915 101.124,140.082 102.5,138.5 Z M 104.5,140.5 C 106.346,140.222 107.68,140.889 108.5,142.5C 106.696,143.768 104.696,144.435 102.5,144.5C 102.527,142.801 103.194,141.467 104.5,140.5 Z"/></g>
<g><path style="opacity:0.795" fill="#c7c8bf" d="M 81.5,140.5 C 82.5,140.5 83.5,140.5 84.5,140.5C 84.5,142.167 84.5,143.833 84.5,145.5C 86.4672,145.261 88.3005,145.594 90,146.5C 90.4955,144.527 90.6621,142.527 90.5,140.5C 91.5,140.5 92.5,140.5 93.5,140.5C 93.6653,144.182 93.4986,147.848 93,151.5C 92.6924,152.308 92.1924,152.975 91.5,153.5C 90.5481,151.955 90.2148,150.288 90.5,148.5C 88.5,148.5 86.5,148.5 84.5,148.5C 84.5,150.167 84.5,151.833 84.5,153.5C 83.5,153.5 82.5,153.5 81.5,153.5C 81.5,149.167 81.5,144.833 81.5,140.5 Z"/></g>
</svg>
