<?xml version="1.0" encoding="UTF-8"?>
<!DOCTYPE svg PUBLIC "-//W3C//DTD SVG 1.1//EN" "http://www.w3.org/Graphics/SVG/1.1/DTD/svg11.dtd">
<svg xmlns="http://www.w3.org/2000/svg" version="1.1" width="175px" height="175px" style="shape-rendering:geometricPrecision; text-rendering:geometricPrecision; image-rendering:optimizeQuality; fill-rule:evenodd; clip-rule:evenodd" xmlns:xlink="http://www.w3.org/1999/xlink">
<g><path style="opacity:0.679" fill="#a2c5ff" d="M 92.5,16.5 C 93.4778,16.811 94.1445,17.4777 94.5,18.5C 92.2338,19.3142 89.9005,19.8142 87.5,20C 86.8333,20.6667 86.1667,21.3333 85.5,22C 93.4741,21.3091 96.3075,24.8091 94,32.5C 93.6258,33.4162 93.1258,34.2496 92.5,35C 83.1625,35.9675 79.9959,31.8008 83,22.5C 83.5831,20.9984 84.4164,19.6651 85.5,18.5C 87.9823,17.9329 90.3157,17.2663 92.5,16.5 Z M 86.5,24.5 C 92.6426,25.0262 93.9759,27.8595 90.5,33C 86.9305,34.1048 84.9305,32.7714 84.5,29C 85.2666,27.5295 85.9332,26.0295 86.5,24.5 Z"/></g>
<g><path style="opacity:0.675" fill="#a2c5ff" d="M 66.5,24.5 C 72.4708,23.7995 75.8041,26.4662 76.5,32.5C 74.6908,38.7523 71.0241,40.0857 65.5,36.5C 62.6946,32.2075 63.0279,28.2075 66.5,24.5 Z M 68.5,26.5 C 73.2442,27.8522 74.5775,30.8522 72.5,35.5C 68.3824,36.752 66.0491,35.0853 65.5,30.5C 66.1716,28.8405 67.1716,27.5072 68.5,26.5 Z"/></g>
<g><path style="opacity:0.704" fill="#a2c5ff" d="M 104.5,25.5 C 113.16,25.8136 115.326,29.8136 111,37.5C 105.673,40.7488 102.173,39.4155 100.5,33.5C 100.8,30.2335 102.133,27.5669 104.5,25.5 Z M 105.5,27.5 C 110.213,27.4676 111.713,29.8009 110,34.5C 106.954,38.6372 104.454,38.3038 102.5,33.5C 103.129,31.2592 104.129,29.2592 105.5,27.5 Z"/></g>
<g><path style="opacity:0.999" fill="#c6edf6" d="M 72.5,40.5 C 71.4019,41.397 71.4019,42.2303 72.5,43C 69.999,44.4177 70.3323,45.4177 73.5,46C 71.8659,46.4935 70.1992,46.6602 68.5,46.5C 68.5,47.8333 68.5,49.1667 68.5,50.5C 66.0876,50.244 64.4209,51.244 63.5,53.5C 61.9291,52.6906 60.2624,52.3573 58.5,52.5C 58.2648,51.9033 57.7648,51.5699 57,51.5C 54.1439,52.2557 51.3106,53.089 48.5,54C 48.8333,54.3333 49.1667,54.6667 49.5,55C 45.2847,56.7194 42.2847,59.5527 40.5,63.5C 38.2188,63.0773 36.5521,63.744 35.5,65.5C 32.5754,64.1341 30.9087,65.1341 30.5,68.5C 29.1667,68.5 27.8333,68.5 26.5,68.5C 26.5106,66.9826 27.1772,65.8159 28.5,65C 33.2535,62.3212 37.9201,59.6546 42.5,57C 43.2524,56.3292 43.5858,55.4959 43.5,54.5C 52.5166,47.8202 62.1833,43.1535 72.5,40.5 Z"/></g>
<g><path style="opacity:1" fill="#c4ecf4" d="M 108.5,55.5 C 107.5,56.8333 106.5,56.8333 105.5,55.5C 103.898,53.9261 101.898,53.2594 99.5,53.5C 98.2579,52.9566 96.9245,52.6233 95.5,52.5C 92.108,54.3541 88.4414,55.3541 84.5,55.5C 84.0269,54.0937 83.0269,53.427 81.5,53.5C 80.3591,51.7573 78.6924,50.7573 76.5,50.5C 73.6988,52.5261 70.6988,52.8594 67.5,51.5C 64.8333,52.5 64.8333,53.5 67.5,54.5C 67,54.8333 66.5,55.1667 66,55.5C 63.5661,54.6777 61.0661,54.3444 58.5,54.5C 57.1667,53.8333 57.1667,53.1667 58.5,52.5C 60.2624,52.3573 61.9291,52.6906 63.5,53.5C 64.4209,51.244 66.0876,50.244 68.5,50.5C 68.5,49.1667 68.5,47.8333 68.5,46.5C 70.1992,46.6602 71.8659,46.4935 73.5,46C 70.3323,45.4177 69.999,44.4177 72.5,43C 71.4019,42.2303 71.4019,41.397 72.5,40.5C 77.566,39.5024 82.2327,40.6691 86.5,44C 91.5204,44.5361 96.3537,45.7027 101,47.5C 101.333,47.1667 101.667,46.8333 102,46.5C 105.095,48.7718 107.262,51.7718 108.5,55.5 Z"/></g>
<g><path style="opacity:1" fill="#c0e8f1" d="M 58.5,52.5 C 57.1667,53.1667 57.1667,53.8333 58.5,54.5C 56.9062,55.983 55.2395,57.483 53.5,59C 56.2785,59.1492 56.7785,59.9826 55,61.5C 53.9383,60.9032 52.7716,60.5698 51.5,60.5C 48.5896,61.5534 45.7563,62.8867 43,64.5C 42.0979,64.2568 41.2646,63.9234 40.5,63.5C 42.2847,59.5527 45.2847,56.7194 49.5,55C 49.1667,54.6667 48.8333,54.3333 48.5,54C 51.3106,53.089 54.1439,52.2557 57,51.5C 57.7648,51.5699 58.2648,51.9033 58.5,52.5 Z"/></g>
<g><path style="opacity:1" fill="#bee3e9" d="M 81.5,53.5 C 75.8786,53.59 70.5453,54.7567 65.5,57C 62.4571,60.7093 59.1238,63.876 55.5,66.5C 52.8333,67.8333 50.1667,69.1667 47.5,70.5C 47.6309,69.6236 47.2975,68.9569 46.5,68.5C 43.5788,69.4066 40.5788,69.7399 37.5,69.5C 36.8333,68.1667 36.1667,66.8333 35.5,65.5C 36.5521,63.744 38.2188,63.0773 40.5,63.5C 41.2646,63.9234 42.0979,64.2568 43,64.5C 45.7563,62.8867 48.5896,61.5534 51.5,60.5C 52.7716,60.5698 53.9383,60.9032 55,61.5C 56.7785,59.9826 56.2785,59.1492 53.5,59C 55.2395,57.483 56.9062,55.983 58.5,54.5C 61.0661,54.3444 63.5661,54.6777 66,55.5C 66.5,55.1667 67,54.8333 67.5,54.5C 64.8333,53.5 64.8333,52.5 67.5,51.5C 70.6988,52.8594 73.6988,52.5261 76.5,50.5C 78.6924,50.7573 80.3591,51.7573 81.5,53.5 Z"/></g>
<g><path style="opacity:1" fill="#979c99" d="M 99.5,53.5 C 94.5254,53.4602 90.5254,55.4602 87.5,59.5C 85.07,58.6114 83.4034,57.6114 82.5,56.5C 83.1667,56.1667 83.8333,55.8333 84.5,55.5C 88.4414,55.3541 92.108,54.3541 95.5,52.5C 96.9245,52.6233 98.2579,52.9566 99.5,53.5 Z"/></g>
<g><path style="opacity:1" fill="#a7b9be" d="M 105.5,55.5 C 106.5,56.8333 107.5,56.8333 108.5,55.5C 109.031,57.6237 110.365,59.1237 112.5,60C 113.793,60.49 115.127,60.6567 116.5,60.5C 116.5,60.8333 116.5,61.1667 116.5,61.5C 111.308,61.9088 106.308,61.2421 101.5,59.5C 101.389,58.8826 101.056,58.3826 100.5,58C 102.744,57.9504 104.411,57.1171 105.5,55.5 Z"/></g>
<g><path style="opacity:0.011" fill="#d9f8fe" d="M 108.5,55.5 C 111.192,57.2056 113.859,58.8722 116.5,60.5C 115.127,60.6567 113.793,60.49 112.5,60C 110.365,59.1237 109.031,57.6237 108.5,55.5 Z"/></g>
<g><path style="opacity:1" fill="#abafad" d="M 99.5,53.5 C 101.898,53.2594 103.898,53.9261 105.5,55.5C 104.411,57.1171 102.744,57.9504 100.5,58C 101.056,58.3826 101.389,58.8826 101.5,59.5C 100.417,59.4606 99.4168,59.1272 98.5,58.5C 97.4495,59.8848 96.1161,60.8848 94.5,61.5C 92.6837,60.2651 91.017,60.2651 89.5,61.5C 88.7611,61.631 88.0944,61.4643 87.5,61C 88.7383,60.31 88.7383,59.81 87.5,59.5C 90.5254,55.4602 94.5254,53.4602 99.5,53.5 Z"/></g>
<g><path style="opacity:0.973" fill="#d3f8fe" d="M 43.5,54.5 C 43.5858,55.4959 43.2524,56.3292 42.5,57C 37.9201,59.6546 33.2535,62.3212 28.5,65C 27.1772,65.8159 26.5106,66.9826 26.5,68.5C 25.0221,69.4475 24.0221,70.7809 23.5,72.5C 23.3797,69.5198 22.713,66.6865 21.5,64C 22.3366,62.9887 22.67,61.8221 22.5,60.5C 26.4724,59.8918 30.4724,59.3918 34.5,59C 37.3914,57.2734 40.3914,55.7734 43.5,54.5 Z"/></g>
<g><path style="opacity:1" fill="#abb0aa" d="M 82.5,56.5 C 83.4034,57.6114 85.07,58.6114 87.5,59.5C 88.7383,59.81 88.7383,60.31 87.5,61C 88.0944,61.4643 88.7611,61.631 89.5,61.5C 87.9687,63.6801 85.8021,64.6801 83,64.5C 81.2841,64.2517 79.7841,63.585 78.5,62.5C 77.0815,63.0047 76.4148,64.0047 76.5,65.5C 74.5043,67.3332 72.171,67.8332 69.5,67C 70.1667,66.6667 70.8333,66.3333 71.5,66C 70.7476,65.3292 70.4142,64.4959 70.5,63.5C 70.2865,61.8561 70.6198,60.3561 71.5,59C 75.0433,58.5507 78.0433,57.0507 80.5,54.5C 81.7133,54.7472 82.38,55.4138 82.5,56.5 Z"/></g>
<g><path style="opacity:1" fill="#adb6b2" d="M 81.5,53.5 C 83.0269,53.427 84.0269,54.0937 84.5,55.5C 83.8333,55.8333 83.1667,56.1667 82.5,56.5C 82.38,55.4138 81.7133,54.7472 80.5,54.5C 78.0433,57.0507 75.0433,58.5507 71.5,59C 70.6198,60.3561 70.2865,61.8561 70.5,63.5C 68.9098,65.424 67.0765,65.7573 65,64.5C 62.3449,66.4087 59.8449,68.4087 57.5,70.5C 53.4988,70.2631 52.8321,68.9297 55.5,66.5C 59.1238,63.876 62.4571,60.7093 65.5,57C 70.5453,54.7567 75.8786,53.59 81.5,53.5 Z"/></g>
<g><path style="opacity:1" fill="#a2a6a5" d="M 101.5,59.5 C 106.308,61.2421 111.308,61.9088 116.5,61.5C 116.5,61.8333 116.5,62.1667 116.5,62.5C 117.66,63.265 118.66,64.265 119.5,65.5C 118.754,66.7362 118.421,68.0695 118.5,69.5C 117.504,69.5858 116.671,69.2524 116,68.5C 115.995,65.7708 114.829,63.7708 112.5,62.5C 112.436,63.3652 112.103,64.3652 111.5,65.5C 109.754,66.3953 107.92,67.062 106,67.5C 100.976,63.2953 97.1431,64.2953 94.5,70.5C 92.3621,70.019 90.6955,68.8524 89.5,67C 87.3018,66.6271 85.1351,66.1271 83,65.5C 81.9889,66.0556 81.1556,66.7222 80.5,67.5C 79.5326,66.1938 78.1993,65.5271 76.5,65.5C 76.4148,64.0047 77.0815,63.0047 78.5,62.5C 79.7841,63.585 81.2841,64.2517 83,64.5C 85.8021,64.6801 87.9687,63.6801 89.5,61.5C 91.017,60.2651 92.6837,60.2651 94.5,61.5C 96.1161,60.8848 97.4495,59.8848 98.5,58.5C 99.4168,59.1272 100.417,59.4606 101.5,59.5 Z"/></g>
<g><path style="opacity:1" fill="#b5bcb9" d="M 70.5,63.5 C 70.4142,64.4959 70.7476,65.3292 71.5,66C 70.8333,66.3333 70.1667,66.6667 69.5,67C 72.171,67.8332 74.5043,67.3332 76.5,65.5C 78.1993,65.5271 79.5326,66.1938 80.5,67.5C 78.7354,68.4614 76.7354,68.7947 74.5,68.5C 71.4127,70.017 68.0794,70.6837 64.5,70.5C 62.1667,70.5 59.8333,70.5 57.5,70.5C 59.8449,68.4087 62.3449,66.4087 65,64.5C 67.0765,65.7573 68.9098,65.424 70.5,63.5 Z"/></g>
<g><path style="opacity:0.992" fill="#bedee4" d="M 125.5,69.5 C 123.708,69.366 122.042,69.6993 120.5,70.5C 120.158,69.6618 119.492,69.3284 118.5,69.5C 118.421,68.0695 118.754,66.7362 119.5,65.5C 118.66,64.265 117.66,63.265 116.5,62.5C 117.496,62.5858 118.329,62.2524 119,61.5C 120.946,64.4202 123.113,67.0869 125.5,69.5 Z"/></g>
<g><path style="opacity:1" fill="#b8dbe5" d="M 47.5,70.5 C 45.448,72.878 43.448,75.2113 41.5,77.5C 37.2504,78.2725 32.9171,78.7725 28.5,79C 27.3909,80.813 28.0576,81.6463 30.5,81.5C 32.5145,82.9238 34.8478,83.5905 37.5,83.5C 39.9726,83.0882 41.3059,84.0882 41.5,86.5C 41.5,88.1667 41.5,89.8333 41.5,91.5C 38.6925,90.7839 36.6925,89.7839 35.5,88.5C 32.5646,89.4516 30.2312,91.1183 28.5,93.5C 27.6618,93.1583 27.3284,92.4916 27.5,91.5C 25.5032,87.8666 24.1698,83.8666 23.5,79.5C 25.1376,78.2954 25.4709,76.9621 24.5,75.5C 26.829,73.9895 28.829,72.1562 30.5,70C 32.8462,70.7916 35.1795,70.6249 37.5,69.5C 40.5788,69.7399 43.5788,69.4066 46.5,68.5C 47.2975,68.9569 47.6309,69.6236 47.5,70.5 Z"/></g>
<g><path style="opacity:1" fill="#aeb9bd" d="M 55.5,66.5 C 52.8321,68.9297 53.4988,70.2631 57.5,70.5C 59.8333,70.5 62.1667,70.5 64.5,70.5C 58.9364,72.6735 57.2698,76.6735 59.5,82.5C 58.9953,83.9185 57.9953,84.5852 56.5,84.5C 55.0384,83.5423 53.7051,82.3756 52.5,81C 48.7808,80.6116 45.1141,79.9449 41.5,79C 42.7383,78.31 42.7383,77.81 41.5,77.5C 43.448,75.2113 45.448,72.878 47.5,70.5C 50.1667,69.1667 52.8333,67.8333 55.5,66.5 Z"/></g>
<g><path style="opacity:1" fill="#a8b0ba" d="M 94.5,70.5 C 94.8333,70.5 95.1667,70.5 95.5,70.5C 93.4649,72.1947 91.1316,73.528 88.5,74.5C 86.4947,73.746 85.828,72.5793 86.5,71C 82.496,69.766 78.496,69.266 74.5,69.5C 74.5,69.1667 74.5,68.8333 74.5,68.5C 76.7354,68.7947 78.7354,68.4614 80.5,67.5C 81.1556,66.7222 81.9889,66.0556 83,65.5C 85.1351,66.1271 87.3018,66.6271 89.5,67C 90.6955,68.8524 92.3621,70.019 94.5,70.5 Z"/></g>
<g><path style="opacity:1" fill="#96a5b5" d="M 74.5,68.5 C 74.5,68.8333 74.5,69.1667 74.5,69.5C 71.5567,71.2657 68.7234,73.2657 66,75.5C 63.9011,74.7135 61.7345,74.3801 59.5,74.5C 59.5,75.5 59.5,76.5 59.5,77.5C 63.7954,77.2787 64.4621,78.6121 61.5,81.5C 61.9569,82.2975 62.6236,82.6309 63.5,82.5C 62.7375,83.2679 61.7375,83.7679 60.5,84C 59.7476,84.6708 59.4142,85.5041 59.5,86.5C 57.901,86.7678 56.5676,86.4345 55.5,85.5C 56.1667,85.5 56.5,85.1667 56.5,84.5C 57.9953,84.5852 58.9953,83.9185 59.5,82.5C 57.2698,76.6735 58.9364,72.6735 64.5,70.5C 68.0794,70.6837 71.4127,70.017 74.5,68.5 Z"/></g>
<g><path style="opacity:1" fill="#9fa1b1" d="M 102.5,80.5 C 101.833,80.5 101.167,80.5 100.5,80.5C 100.804,79.8501 101.137,79.1835 101.5,78.5C 99.8872,77.5726 98.2205,76.7393 96.5,76C 93.6308,75.991 90.9641,75.8243 88.5,75.5C 91.4665,75.0114 94.1332,73.8448 96.5,72C 99.8273,71.3897 103.161,70.8897 106.5,70.5C 104.22,73.318 102.886,76.6513 102.5,80.5 Z"/></g>
<g><path style="opacity:1" fill="#bdbcc0" d="M 118.5,69.5 C 119.492,69.3284 120.158,69.6618 120.5,70.5C 119.475,70.8966 119.308,71.5632 120,72.5C 123.568,74.1114 125.735,76.778 126.5,80.5C 125.686,82.2726 124.352,82.7726 122.5,82C 121.277,79.0392 119.277,77.3725 116.5,77C 119.113,78.0712 119.113,78.9045 116.5,79.5C 115.833,78.5 115.167,77.5 114.5,76.5C 112.063,74.567 109.729,72.4003 107.5,70C 103.476,69.5027 99.4761,69.6693 95.5,70.5C 95.1667,70.5 94.8333,70.5 94.5,70.5C 97.1431,64.2953 100.976,63.2953 106,67.5C 107.92,67.062 109.754,66.3953 111.5,65.5C 112.103,64.3652 112.436,63.3652 112.5,62.5C 114.829,63.7708 115.995,65.7708 116,68.5C 116.671,69.2524 117.504,69.5858 118.5,69.5 Z"/></g>
<g><path style="opacity:0.914" fill="#abc8d2" d="M 125.5,69.5 C 126.882,70.8005 128.548,71.6339 130.5,72C 129.402,72.7697 129.402,73.603 130.5,74.5C 130.5,74.8333 130.5,75.1667 130.5,75.5C 129.248,77.0009 128.248,78.6675 127.5,80.5C 127.167,80.5 126.833,80.5 126.5,80.5C 125.735,76.778 123.568,74.1114 120,72.5C 119.308,71.5632 119.475,70.8966 120.5,70.5C 122.042,69.6993 123.708,69.366 125.5,69.5 Z"/></g>
<g><path style="opacity:1" fill="#9d939f" d="M 114.5,76.5 C 113.849,77.0906 113.182,77.7573 112.5,78.5C 111.15,77.0499 109.484,76.3832 107.5,76.5C 107.649,77.552 107.483,78.552 107,79.5C 104.553,78.0036 103.719,78.3369 104.5,80.5C 104.167,80.5 103.833,80.5 103.5,80.5C 103.167,80.5 102.833,80.5 102.5,80.5C 102.886,76.6513 104.22,73.318 106.5,70.5C 103.161,70.8897 99.8273,71.3897 96.5,72C 94.1332,73.8448 91.4665,75.0114 88.5,75.5C 88.5,75.1667 88.5,74.8333 88.5,74.5C 91.1316,73.528 93.4649,72.1947 95.5,70.5C 99.4761,69.6693 103.476,69.5027 107.5,70C 109.729,72.4003 112.063,74.567 114.5,76.5 Z"/></g>
<g><path style="opacity:1" fill="#c2e6f0" d="M 35.5,65.5 C 36.1667,66.8333 36.8333,68.1667 37.5,69.5C 35.1795,70.6249 32.8462,70.7916 30.5,70C 28.829,72.1562 26.829,73.9895 24.5,75.5C 25.4709,76.9621 25.1376,78.2954 23.5,79.5C 24.1698,83.8666 25.5032,87.8666 27.5,91.5C 25.8624,90.343 24.1957,89.1764 22.5,88C 22.8333,87.6667 23.1667,87.3333 23.5,87C 22.1984,83.7253 20.5317,80.7253 18.5,78C 18.9312,75.0678 20.5978,73.2345 23.5,72.5C 24.0221,70.7809 25.0221,69.4475 26.5,68.5C 27.8333,68.5 29.1667,68.5 30.5,68.5C 30.9087,65.1341 32.5754,64.1341 35.5,65.5 Z"/></g>
<g><path style="opacity:1" fill="#c2e5e8" d="M 146.5,85.5 C 146.167,85.5 145.833,85.5 145.5,85.5C 145.225,83.2417 144.225,82.9084 142.5,84.5C 141.261,82.9928 141.595,81.8261 143.5,81C 142.062,80.7811 140.729,80.2811 139.5,79.5C 139.833,78.8333 140.167,78.1667 140.5,77.5C 139.092,76.7568 137.759,75.9234 136.5,75C 137.167,74.6667 137.833,74.3333 138.5,74C 137.584,73.7216 136.918,73.2216 136.5,72.5C 137.735,72.2786 138.735,71.6119 139.5,70.5C 140.736,71.2458 142.07,71.5792 143.5,71.5C 144.111,74.7209 145.278,77.7209 147,80.5C 148.255,81.2106 149.421,82.044 150.5,83C 148.563,83.1216 147.23,83.955 146.5,85.5 Z"/></g>
<g><path style="opacity:1" fill="#9eacc1" d="M 74.5,69.5 C 78.496,69.266 82.496,69.766 86.5,71C 85.828,72.5793 86.4947,73.746 88.5,74.5C 88.5,74.8333 88.5,75.1667 88.5,75.5C 85.4435,76.6326 82.4435,77.6326 79.5,78.5C 78.8333,79.1667 78.1667,79.8333 77.5,80.5C 76.0413,80.4326 74.7079,80.7659 73.5,81.5C 70.1401,81.6159 66.8067,81.9492 63.5,82.5C 62.6236,82.6309 61.9569,82.2975 61.5,81.5C 64.4621,78.6121 63.7954,77.2787 59.5,77.5C 59.5,76.5 59.5,75.5 59.5,74.5C 61.7345,74.3801 63.9011,74.7135 66,75.5C 68.7234,73.2657 71.5567,71.2657 74.5,69.5 Z"/></g>
<g><path style="opacity:1" fill="#9f8c9c" d="M 114.5,76.5 C 115.167,77.5 115.833,78.5 116.5,79.5C 116.5,79.8333 116.5,80.1667 116.5,80.5C 115.957,80.56 115.624,80.8933 115.5,81.5C 116.313,82.8139 117.313,83.9805 118.5,85C 117.737,85.9435 116.737,86.4435 115.5,86.5C 111.255,85.2178 107.589,83.2178 104.5,80.5C 103.719,78.3369 104.553,78.0036 107,79.5C 107.483,78.552 107.649,77.552 107.5,76.5C 109.484,76.3832 111.15,77.0499 112.5,78.5C 113.182,77.7573 113.849,77.0906 114.5,76.5 Z"/></g>
<g><path style="opacity:1" fill="#8a92af" d="M 88.5,75.5 C 90.9641,75.8243 93.6308,75.991 96.5,76C 98.2205,76.7393 99.8872,77.5726 101.5,78.5C 101.137,79.1835 100.804,79.8501 100.5,80.5C 97.3996,82.9651 93.7329,83.9651 89.5,83.5C 87.1667,83.3333 84.8333,83.1667 82.5,83C 82.8333,82.6667 83.1667,82.3333 83.5,82C 82.552,81.5172 81.552,81.3505 80.5,81.5C 80.7373,80.209 80.404,79.209 79.5,78.5C 82.4435,77.6326 85.4435,76.6326 88.5,75.5 Z"/></g>
<g><path style="opacity:0.951" fill="#c9ecf1" d="M 153.5,93.5 C 150.482,93.6646 147.482,93.498 144.5,93C 146.32,92.7996 147.653,91.9663 148.5,90.5C 149.478,90.189 150.145,89.5223 150.5,88.5C 149.376,87.1408 148.042,86.1408 146.5,85.5C 147.23,83.955 148.563,83.1216 150.5,83C 149.421,82.044 148.255,81.2106 147,80.5C 145.278,77.7209 144.111,74.7209 143.5,71.5C 142.07,71.5792 140.736,71.2458 139.5,70.5C 138.735,71.6119 137.735,72.2786 136.5,72.5C 136.158,71.6618 135.492,71.3284 134.5,71.5C 140.278,68.615 145.612,69.615 150.5,74.5C 152.539,76.7419 154.205,79.2419 155.5,82C 154.862,85.9352 154.196,89.7685 153.5,93.5 Z"/></g>
<g><path style="opacity:1" fill="#728f99" d="M 37.5,83.5 C 34.8478,83.5905 32.5145,82.9238 30.5,81.5C 31.5145,80.2353 33.0145,79.5687 35,79.5C 36.5,79.6667 38,79.8333 39.5,80C 38.1772,80.8159 37.5106,81.9826 37.5,83.5 Z"/></g>
<g><path style="opacity:1" fill="#8da0ac" d="M 41.5,77.5 C 42.7383,77.81 42.7383,78.31 41.5,79C 45.1141,79.9449 48.7808,80.6116 52.5,81C 53.7051,82.3756 55.0384,83.5423 56.5,84.5C 56.5,85.1667 56.1667,85.5 55.5,85.5C 54.5,85.5 53.5,85.5 52.5,85.5C 52.2172,84.7109 51.7172,84.0442 51,83.5C 48.1125,85.184 44.9458,86.184 41.5,86.5C 41.3059,84.0882 39.9726,83.0882 37.5,83.5C 37.5106,81.9826 38.1772,80.8159 39.5,80C 38,79.8333 36.5,79.6667 35,79.5C 33.0145,79.5687 31.5145,80.2353 30.5,81.5C 28.0576,81.6463 27.3909,80.813 28.5,79C 32.9171,78.7725 37.2504,78.2725 41.5,77.5 Z"/></g>
<g><path style="opacity:1" fill="#bedee1" d="M 134.5,71.5 C 135.492,71.3284 136.158,71.6618 136.5,72.5C 136.918,73.2216 137.584,73.7216 138.5,74C 137.833,74.3333 137.167,74.6667 136.5,75C 137.759,75.9234 139.092,76.7568 140.5,77.5C 140.167,78.1667 139.833,78.8333 139.5,79.5C 140.729,80.2811 142.062,80.7811 143.5,81C 141.595,81.8261 141.261,82.9928 142.5,84.5C 144.225,82.9084 145.225,83.2417 145.5,85.5C 145.167,85.5 144.833,85.5 144.5,85.5C 142.379,85.6747 140.379,85.3414 138.5,84.5C 138.167,83.5 137.5,82.8333 136.5,82.5C 134.927,79.7348 132.927,77.4014 130.5,75.5C 130.5,75.1667 130.5,74.8333 130.5,74.5C 131.404,73.791 131.737,72.791 131.5,71.5C 132.5,71.5 133.5,71.5 134.5,71.5 Z"/></g>
<g><path style="opacity:1" fill="#b3c1c6" d="M 130.5,75.5 C 132.927,77.4014 134.927,79.7348 136.5,82.5C 134.626,83.2852 132.626,83.9518 130.5,84.5C 126.814,84.87 125.814,83.5367 127.5,80.5C 128.248,78.6675 129.248,77.0009 130.5,75.5 Z"/></g>
<g><path style="opacity:1" fill="#8f9cb0" d="M 73.5,81.5 C 71.8486,84.5682 72.5152,86.9016 75.5,88.5C 74.5084,88.3284 73.8417,88.6618 73.5,89.5C 68.8006,88.4316 64.1339,87.4316 59.5,86.5C 59.4142,85.5041 59.7476,84.6708 60.5,84C 61.7375,83.7679 62.7375,83.2679 63.5,82.5C 66.8067,81.9492 70.1401,81.6159 73.5,81.5 Z"/></g>
<g><path style="opacity:1" fill="#8b7a8c" d="M 103.5,80.5 C 103.833,80.5 104.167,80.5 104.5,80.5C 107.589,83.2178 111.255,85.2178 115.5,86.5C 116.737,86.4435 117.737,85.9435 118.5,85C 117.313,83.9805 116.313,82.8139 115.5,81.5C 115.624,80.8933 115.957,80.56 116.5,80.5C 118.385,82.0532 119.385,84.0532 119.5,86.5C 122.067,86.7215 124.401,87.3882 126.5,88.5C 125.833,88.5 125.5,88.8333 125.5,89.5C 124.07,89.5792 122.736,89.2458 121.5,88.5C 120.702,88.9569 120.369,89.6236 120.5,90.5C 119.833,90.5 119.167,90.5 118.5,90.5C 113.592,88.3267 108.592,85.9933 103.5,83.5C 103.5,82.5 103.5,81.5 103.5,80.5 Z"/></g>
<g><path style="opacity:1" fill="#ab98a1" d="M 126.5,80.5 C 126.833,80.5 127.167,80.5 127.5,80.5C 125.814,83.5367 126.814,84.87 130.5,84.5C 130.5,85.8333 130.5,87.1667 130.5,88.5C 129.167,88.5 127.833,88.5 126.5,88.5C 124.401,87.3882 122.067,86.7215 119.5,86.5C 119.385,84.0532 118.385,82.0532 116.5,80.5C 116.5,80.1667 116.5,79.8333 116.5,79.5C 119.113,78.9045 119.113,78.0712 116.5,77C 119.277,77.3725 121.277,79.0392 122.5,82C 124.352,82.7726 125.686,82.2726 126.5,80.5 Z"/></g>
<g><path style="opacity:1" fill="#4a757f" d="M 77.5,80.5 C 81.1366,83.601 85.47,85.101 90.5,85C 90.0426,85.414 89.7093,85.914 89.5,86.5C 90.6016,87.1757 91.6016,87.8423 92.5,88.5C 88.5213,87.3749 84.5213,87.3749 80.5,88.5C 78.8333,88.5 77.1667,88.5 75.5,88.5C 72.5152,86.9016 71.8486,84.5682 73.5,81.5C 74.7079,80.7659 76.0413,80.4326 77.5,80.5 Z"/></g>
<g><path style="opacity:1" fill="#48697a" d="M 79.5,78.5 C 80.404,79.209 80.7373,80.209 80.5,81.5C 81.552,81.3505 82.552,81.5172 83.5,82C 83.1667,82.3333 82.8333,82.6667 82.5,83C 84.8333,83.1667 87.1667,83.3333 89.5,83.5C 93.7329,83.9651 97.3996,82.9651 100.5,80.5C 101.167,80.5 101.833,80.5 102.5,80.5C 102.833,80.5 103.167,80.5 103.5,80.5C 103.5,81.5 103.5,82.5 103.5,83.5C 103.167,83.5 102.833,83.5 102.5,83.5C 102.565,83.0618 102.399,82.7284 102,82.5C 101.626,83.4162 101.126,84.2496 100.5,85C 97.6642,85.9211 94.9976,87.0877 92.5,88.5C 91.6016,87.8423 90.6016,87.1757 89.5,86.5C 89.7093,85.914 90.0426,85.414 90.5,85C 85.47,85.101 81.1366,83.601 77.5,80.5C 78.1667,79.8333 78.8333,79.1667 79.5,78.5 Z"/></g>
<g><path style="opacity:1" fill="#86878c" d="M 138.5,84.5 C 140.379,85.3414 142.379,85.6747 144.5,85.5C 144.5,86.5 144.5,87.5 144.5,88.5C 141.848,88.4095 139.515,89.0762 137.5,90.5C 137.167,90.5 136.833,90.5 136.5,90.5C 135.292,89.7659 133.959,89.4326 132.5,89.5C 132.862,86.1134 134.862,84.4467 138.5,84.5 Z"/></g>
<g><path style="opacity:1" fill="#d2deeb" d="M 51.5,86.5 C 51.5,85.8333 51.8333,85.5 52.5,85.5C 53.5,85.5 54.5,85.5 55.5,85.5C 56.5676,86.4345 57.901,86.7678 59.5,86.5C 64.1339,87.4316 68.8006,88.4316 73.5,89.5C 74.625,90.6522 74.625,91.6522 73.5,92.5C 72.8333,92.5 72.1667,92.5 71.5,92.5C 66.8313,90.4214 61.8313,89.4214 56.5,89.5C 55.3406,87.7497 53.674,86.7497 51.5,86.5 Z"/></g>
<g><path style="opacity:1" fill="#4c5d6c" d="M 102.5,83.5 C 102.586,84.4959 102.252,85.3292 101.5,86C 98.0288,88.0719 94.3621,89.5719 90.5,90.5C 86.9891,90.1006 83.6557,89.4339 80.5,88.5C 84.5213,87.3749 88.5213,87.3749 92.5,88.5C 94.9976,87.0877 97.6642,85.9211 100.5,85C 101.126,84.2496 101.626,83.4162 102,82.5C 102.399,82.7284 102.565,83.0618 102.5,83.5 Z"/></g>
<g><path style="opacity:1" fill="#9b8fa6" d="M 102.5,83.5 C 102.833,83.5 103.167,83.5 103.5,83.5C 108.592,85.9933 113.592,88.3267 118.5,90.5C 117.292,91.2341 115.959,91.5674 114.5,91.5C 114.38,90.4138 113.713,89.7472 112.5,89.5C 106.416,91.8059 100.249,93.8059 94,95.5C 91.9919,95.6932 90.4919,95.0265 89.5,93.5C 90.404,92.791 90.7373,91.791 90.5,90.5C 94.3621,89.5719 98.0288,88.0719 101.5,86C 102.252,85.3292 102.586,84.4959 102.5,83.5 Z"/></g>
<g><path style="opacity:1" fill="#91aaac" d="M 144.5,85.5 C 144.833,85.5 145.167,85.5 145.5,85.5C 145.833,85.5 146.167,85.5 146.5,85.5C 148.042,86.1408 149.376,87.1408 150.5,88.5C 150.145,89.5223 149.478,90.189 148.5,90.5C 144.85,91.7278 141.184,91.7278 137.5,90.5C 139.515,89.0762 141.848,88.4095 144.5,88.5C 144.5,87.5 144.5,86.5 144.5,85.5 Z"/></g>
<g><path style="opacity:1" fill="#b4acb0" d="M 136.5,82.5 C 137.5,82.8333 138.167,83.5 138.5,84.5C 134.862,84.4467 132.862,86.1134 132.5,89.5C 133.959,89.4326 135.292,89.7659 136.5,90.5C 136.167,91.5 135.5,92.1667 134.5,92.5C 131.648,91.7417 128.981,91.7417 126.5,92.5C 125.596,91.791 125.263,90.791 125.5,89.5C 125.5,88.8333 125.833,88.5 126.5,88.5C 127.833,88.5 129.167,88.5 130.5,88.5C 130.5,87.1667 130.5,85.8333 130.5,84.5C 132.626,83.9518 134.626,83.2852 136.5,82.5 Z"/></g>
<g><path style="opacity:1" fill="#966d7a" d="M 73.5,89.5 C 73.8417,88.6618 74.5084,88.3284 75.5,88.5C 77.1667,88.5 78.8333,88.5 80.5,88.5C 83.6557,89.4339 86.9891,90.1006 90.5,90.5C 90.7373,91.791 90.404,92.791 89.5,93.5C 89.1667,93.5 88.8333,93.5 88.5,93.5C 84.0153,90.7951 79.0153,89.4618 73.5,89.5 Z"/></g>
<g><path style="opacity:1" fill="#c4a8a9" d="M 125.5,89.5 C 125.263,90.791 125.596,91.791 126.5,92.5C 127.167,92.5 127.5,92.8333 127.5,93.5C 125.563,94.9541 123.897,96.6207 122.5,98.5C 121.469,96.0392 120.802,93.3725 120.5,90.5C 120.369,89.6236 120.702,88.9569 121.5,88.5C 122.736,89.2458 124.07,89.5792 125.5,89.5 Z"/></g>
<g><path style="opacity:1" fill="#b7d7e7" d="M 51.5,86.5 C 53.674,86.7497 55.3406,87.7497 56.5,89.5C 55.2617,89.81 55.2617,90.31 56.5,91C 57.745,91.7914 59.0783,92.2914 60.5,92.5C 62.3439,94.6719 64.0105,97.0053 65.5,99.5C 64.9879,102.351 63.3213,103.684 60.5,103.5C 60.4729,105.199 59.8062,106.533 58.5,107.5C 56.9731,107.573 55.9731,106.906 55.5,105.5C 54.1013,99.1876 52.768,92.8543 51.5,86.5 Z"/></g>
<g><path style="opacity:1" fill="#b4b8bc" d="M 56.5,89.5 C 61.8313,89.4214 66.8313,90.4214 71.5,92.5C 70.0783,92.7086 68.745,93.2086 67.5,94C 69.1193,94.2355 70.1193,95.0689 70.5,96.5C 70.5,97.1667 70.5,97.8333 70.5,98.5C 69.8333,97.5 69.1667,96.5 68.5,95.5C 65.8069,94.4485 63.1402,93.4485 60.5,92.5C 59.0783,92.2914 57.745,91.7914 56.5,91C 55.2617,90.31 55.2617,89.81 56.5,89.5 Z"/></g>
<g><path style="opacity:1" fill="#dbc1c5" d="M 73.5,89.5 C 79.0153,89.4618 84.0153,90.7951 88.5,93.5C 87.2524,95.69 85.5857,96.0234 83.5,94.5C 81.4086,94.3184 79.4086,94.6518 77.5,95.5C 75.739,94.9649 74.4057,93.9649 73.5,92.5C 74.625,91.6522 74.625,90.6522 73.5,89.5 Z"/></g>
<g><path style="opacity:1" fill="#a7c0c7" d="M 52.5,85.5 C 51.8333,85.5 51.5,85.8333 51.5,86.5C 52.768,92.8543 54.1013,99.1876 55.5,105.5C 54.0755,103.969 53.4088,104.302 53.5,106.5C 48.779,102.047 44.779,97.0475 41.5,91.5C 41.5,89.8333 41.5,88.1667 41.5,86.5C 44.9458,86.184 48.1125,85.184 51,83.5C 51.7172,84.0442 52.2172,84.7109 52.5,85.5 Z"/></g>
<g><path style="opacity:1" fill="#b5c2c2" d="M 126.5,92.5 C 128.981,91.7417 131.648,91.7417 134.5,92.5C 134.5,93.1667 134.167,93.5 133.5,93.5C 131.621,93.3932 131.288,93.8932 132.5,95C 131.877,97.6073 131.21,100.107 130.5,102.5C 130.663,100.143 130.497,97.8098 130,95.5C 129.583,94.244 128.75,93.5774 127.5,93.5C 127.5,92.8333 127.167,92.5 126.5,92.5 Z"/></g>
<g><path style="opacity:1" fill="#c2e4e8" d="M 136.5,90.5 C 136.833,90.5 137.167,90.5 137.5,90.5C 141.184,91.7278 144.85,91.7278 148.5,90.5C 147.653,91.9663 146.32,92.7996 144.5,93C 147.482,93.498 150.482,93.6646 153.5,93.5C 150.903,96.3557 149.07,99.6891 148,103.5C 147.329,104.252 146.496,104.586 145.5,104.5C 144.525,102.807 143.192,101.307 141.5,100C 142.551,98.6152 143.884,97.6152 145.5,97C 142.758,96.9528 140.258,97.1195 138,97.5C 135.901,96.7219 134.401,95.3886 133.5,93.5C 134.167,93.5 134.5,93.1667 134.5,92.5C 135.5,92.1667 136.167,91.5 136.5,90.5 Z"/></g>
<g><path style="opacity:1" fill="#c2e4ed" d="M 41.5,91.5 C 44.779,97.0475 48.779,102.047 53.5,106.5C 54.3382,106.842 54.6716,107.508 54.5,108.5C 55.1383,110.46 55.1383,112.293 54.5,114C 55.3805,114.708 56.0472,115.542 56.5,116.5C 54.1838,115.194 51.8505,113.861 49.5,112.5C 49.1193,111.069 48.1193,110.236 46.5,110C 49.3064,108.695 50.1397,106.528 49,103.5C 46.1308,106.318 44.6308,105.652 44.5,101.5C 43.1779,101.33 42.0113,101.663 41,102.5C 39.887,101.24 39.7203,100.073 40.5,99C 38.8034,98.6155 37.1368,98.7822 35.5,99.5C 33.5939,98.5176 31.5939,97.5176 29.5,96.5C 28.8728,95.5832 28.5394,94.5832 28.5,93.5C 30.2312,91.1183 32.5646,89.4516 35.5,88.5C 36.6925,89.7839 38.6925,90.7839 41.5,91.5 Z"/></g>
<g><path style="opacity:1" fill="#ac8786" d="M 71.5,92.5 C 72.1667,92.5 72.8333,92.5 73.5,92.5C 74.4057,93.9649 75.739,94.9649 77.5,95.5C 79.4086,94.6518 81.4086,94.3184 83.5,94.5C 83.8212,96.0481 84.8212,96.7148 86.5,96.5C 85.8166,98.1765 84.4832,98.8432 82.5,98.5C 82.0831,97.8761 81.4164,97.5427 80.5,97.5C 78.1083,98.7253 75.6083,99.7253 73,100.5C 72.4926,99.0039 72.9926,97.8373 74.5,97C 73.2068,96.51 71.8734,96.3433 70.5,96.5C 70.1193,95.0689 69.1193,94.2355 67.5,94C 68.745,93.2086 70.0783,92.7086 71.5,92.5 Z"/></g>
<g><path style="opacity:1" fill="#bfe0e4" d="M 133.5,93.5 C 134.401,95.3886 135.901,96.7219 138,97.5C 140.258,97.1195 142.758,96.9528 145.5,97C 143.884,97.6152 142.551,98.6152 141.5,100C 143.192,101.307 144.525,102.807 145.5,104.5C 143.928,105.687 142.261,106.687 140.5,107.5C 136.094,106.547 131.761,106.214 127.5,106.5C 128.5,105.167 129.5,103.833 130.5,102.5C 131.21,100.107 131.877,97.6073 132.5,95C 131.288,93.8932 131.621,93.3932 133.5,93.5 Z"/></g>
<g><path style="opacity:1" fill="#bfb8c7" d="M 114.5,91.5 C 113.624,91.3691 112.957,91.7025 112.5,92.5C 113.95,93.8498 114.617,95.5165 114.5,97.5C 110.71,97.9923 110.044,97.159 112.5,95C 104.525,94.2639 103.858,95.5972 110.5,99C 109.167,100 109.167,101 110.5,102C 111.833,101.667 113.167,101.333 114.5,101C 113.421,103.043 111.754,104.376 109.5,105C 110.696,105.654 110.696,106.154 109.5,106.5C 108.614,105.675 108.281,104.675 108.5,103.5C 106.214,103.595 104.214,104.262 102.5,105.5C 101.508,105.328 100.842,105.662 100.5,106.5C 98.3209,104.836 96.4875,105.17 95,107.5C 93.0126,106.782 91.1792,105.782 89.5,104.5C 91.6564,102.991 93.9897,101.991 96.5,101.5C 96.67,100.178 96.3366,99.0113 95.5,98C 92.6492,96.7114 89.6492,96.2114 86.5,96.5C 84.8212,96.7148 83.8212,96.0481 83.5,94.5C 85.5857,96.0234 87.2524,95.69 88.5,93.5C 88.8333,93.5 89.1667,93.5 89.5,93.5C 90.4919,95.0265 91.9919,95.6932 94,95.5C 100.249,93.8059 106.416,91.8059 112.5,89.5C 113.713,89.7472 114.38,90.4138 114.5,91.5 Z"/></g>
<g><path style="opacity:1" fill="#c29994" d="M 127.5,93.5 C 128.75,93.5774 129.583,94.244 130,95.5C 130.497,97.8098 130.663,100.143 130.5,102.5C 129.5,103.833 128.5,105.167 127.5,106.5C 127.167,106.5 126.833,106.5 126.5,106.5C 125.533,105.194 124.199,104.527 122.5,104.5C 121.375,103.652 121.375,102.652 122.5,101.5C 122.5,100.5 122.5,99.5 122.5,98.5C 123.897,96.6207 125.563,94.9541 127.5,93.5 Z"/></g>
<g><path style="opacity:1" fill="#c0bcc9" d="M 118.5,90.5 C 119.167,90.5 119.833,90.5 120.5,90.5C 120.802,93.3725 121.469,96.0392 122.5,98.5C 122.5,99.5 122.5,100.5 122.5,101.5C 119.133,102.897 115.8,104.23 112.5,105.5C 112.5,106.5 112.5,107.5 112.5,108.5C 111.167,108.5 109.833,108.5 108.5,108.5C 106.216,108.025 104.216,107.025 102.5,105.5C 104.214,104.262 106.214,103.595 108.5,103.5C 108.281,104.675 108.614,105.675 109.5,106.5C 110.696,106.154 110.696,105.654 109.5,105C 111.754,104.376 113.421,103.043 114.5,101C 113.167,101.333 111.833,101.667 110.5,102C 109.167,101 109.167,100 110.5,99C 103.858,95.5972 104.525,94.2639 112.5,95C 110.044,97.159 110.71,97.9923 114.5,97.5C 114.617,95.5165 113.95,93.8498 112.5,92.5C 112.957,91.7025 113.624,91.3691 114.5,91.5C 115.959,91.5674 117.292,91.2341 118.5,90.5 Z"/></g>
<g><path style="opacity:1" fill="#c6e9f1" d="M 49.5,112.5 C 42.6311,110.421 37.9644,106.088 35.5,99.5C 37.1368,98.7822 38.8034,98.6155 40.5,99C 39.7203,100.073 39.887,101.24 41,102.5C 42.0113,101.663 43.1779,101.33 44.5,101.5C 44.6308,105.652 46.1308,106.318 49,103.5C 50.1397,106.528 49.3064,108.695 46.5,110C 48.1193,110.236 49.1193,111.069 49.5,112.5 Z"/></g>
<g><path style="opacity:1" fill="#ab9094" d="M 70.5,96.5 C 71.8734,96.3433 73.2068,96.51 74.5,97C 72.9926,97.8373 72.4926,99.0039 73,100.5C 75.6083,99.7253 78.1083,98.7253 80.5,97.5C 81.4164,97.5427 82.0831,97.8761 82.5,98.5C 82.33,99.8221 82.6634,100.989 83.5,102C 82.0993,102.41 80.766,102.91 79.5,103.5C 78.4324,102.566 77.099,102.232 75.5,102.5C 75.5674,103.959 75.2341,105.292 74.5,106.5C 73.8333,105.167 73.1667,103.833 72.5,102.5C 71.8333,101.167 71.1667,99.8333 70.5,98.5C 70.5,97.8333 70.5,97.1667 70.5,96.5 Z"/></g>
<g><path style="opacity:1" fill="#b09ca7" d="M 86.5,96.5 C 89.6492,96.2114 92.6492,96.7114 95.5,98C 96.3366,99.0113 96.67,100.178 96.5,101.5C 93.9897,101.991 91.6564,102.991 89.5,104.5C 91.1792,105.782 93.0126,106.782 95,107.5C 96.4875,105.17 98.3209,104.836 100.5,106.5C 101.239,106.369 101.906,106.536 102.5,107C 101.307,108.095 99.9733,108.928 98.5,109.5C 93.2612,107.569 88.2612,106.903 83.5,107.5C 82.596,106.791 82.2627,105.791 82.5,104.5C 81.209,104.737 80.209,104.404 79.5,103.5C 80.766,102.91 82.0993,102.41 83.5,102C 82.6634,100.989 82.33,99.8221 82.5,98.5C 84.4832,98.8432 85.8166,98.1765 86.5,96.5 Z"/></g>
<g><path style="opacity:1" fill="#b6d1da" d="M 68.5,95.5 C 69.1667,96.5 69.8333,97.5 70.5,98.5C 71.1667,99.8333 71.8333,101.167 72.5,102.5C 72.3902,106.151 71.0568,109.151 68.5,111.5C 69.2617,113.781 68.2617,115.114 65.5,115.5C 63.9345,112.204 61.6012,109.537 58.5,107.5C 61.7584,107.201 65.0918,107.201 68.5,107.5C 69.7752,103.75 69.7752,99.7505 68.5,95.5 Z"/></g>
<g><path style="opacity:1" fill="#b6d7e5" d="M 60.5,92.5 C 63.1402,93.4485 65.8069,94.4485 68.5,95.5C 69.7752,99.7505 69.7752,103.75 68.5,107.5C 65.0918,107.201 61.7584,107.201 58.5,107.5C 59.8062,106.533 60.4729,105.199 60.5,103.5C 63.3213,103.684 64.9879,102.351 65.5,99.5C 64.0105,97.0053 62.3439,94.6719 60.5,92.5 Z"/></g>
<g><path style="opacity:1" fill="#b2a5ad" d="M 122.5,101.5 C 121.375,102.652 121.375,103.652 122.5,104.5C 119.793,106.2 117.46,108.367 115.5,111C 112.306,112.081 109.973,111.247 108.5,108.5C 109.833,108.5 111.167,108.5 112.5,108.5C 112.5,107.5 112.5,106.5 112.5,105.5C 115.8,104.23 119.133,102.897 122.5,101.5 Z"/></g>
<g><path style="opacity:1" fill="#b7c8cb" d="M 72.5,102.5 C 73.1667,103.833 73.8333,105.167 74.5,106.5C 75.3019,107.952 75.8019,109.618 76,111.5C 76.6708,112.252 77.5041,112.586 78.5,112.5C 80.7957,112.804 81.129,113.804 79.5,115.5C 77.8007,115.527 76.4674,116.194 75.5,117.5C 72.9407,117.198 70.6074,117.532 68.5,118.5C 68.1667,118.5 67.8333,118.5 67.5,118.5C 66.7095,117.599 65.7095,116.932 64.5,116.5C 64.5,115.833 64.8333,115.5 65.5,115.5C 68.2617,115.114 69.2617,113.781 68.5,111.5C 71.0568,109.151 72.3902,106.151 72.5,102.5 Z"/></g>
<g><path style="opacity:1" fill="#af9095" d="M 83.5,107.5 C 88.2612,106.903 93.2612,107.569 98.5,109.5C 98.5,109.833 98.5,110.167 98.5,110.5C 97.7777,111.551 96.7777,112.218 95.5,112.5C 94.2502,112.423 93.4169,111.756 93,110.5C 91.6976,111.085 90.531,111.751 89.5,112.5C 88.0048,112.011 86.6715,111.345 85.5,110.5C 86.2389,110.631 86.9056,110.464 87.5,110C 85.8333,109.667 84.1667,109.333 82.5,109C 83.056,108.617 83.3893,108.117 83.5,107.5 Z"/></g>
<g><path style="opacity:0.987" fill="#cdf8fe" d="M 126.5,106.5 C 126.833,106.5 127.167,106.5 127.5,106.5C 131.761,106.214 136.094,106.547 140.5,107.5C 137.008,109.645 133.341,111.645 129.5,113.5C 131.368,118.316 129.702,120.983 124.5,121.5C 124.5,120.5 124.5,119.5 124.5,118.5C 126.559,115.662 125.892,113.162 122.5,111C 123.056,110.617 123.389,110.117 123.5,109.5C 124.338,109.158 124.672,108.492 124.5,107.5C 125.492,107.672 126.158,107.338 126.5,106.5 Z"/></g>
<g><path style="opacity:1" fill="#a57d82" d="M 79.5,103.5 C 80.209,104.404 81.209,104.737 82.5,104.5C 82.2627,105.791 82.596,106.791 83.5,107.5C 83.3893,108.117 83.056,108.617 82.5,109C 84.1667,109.333 85.8333,109.667 87.5,110C 86.9056,110.464 86.2389,110.631 85.5,110.5C 82.7718,110.171 80.4385,110.837 78.5,112.5C 77.5041,112.586 76.6708,112.252 76,111.5C 75.8019,109.618 75.3019,107.952 74.5,106.5C 75.2341,105.292 75.5674,103.959 75.5,102.5C 77.099,102.232 78.4324,102.566 79.5,103.5 Z"/></g>
<g><path style="opacity:1" fill="#cfc9d1" d="M 122.5,104.5 C 124.199,104.527 125.533,105.194 126.5,106.5C 126.158,107.338 125.492,107.672 124.5,107.5C 118.374,111.089 112.04,114.089 105.5,116.5C 104.833,116.5 104.167,116.5 103.5,116.5C 102.626,114.31 100.959,113.31 98.5,113.5C 98.5,112.5 98.5,111.5 98.5,110.5C 98.5,110.167 98.5,109.833 98.5,109.5C 99.9733,108.928 101.307,108.095 102.5,107C 101.906,106.536 101.239,106.369 100.5,106.5C 100.842,105.662 101.508,105.328 102.5,105.5C 104.216,107.025 106.216,108.025 108.5,108.5C 109.973,111.247 112.306,112.081 115.5,111C 117.46,108.367 119.793,106.2 122.5,104.5 Z"/></g>
<g><path style="opacity:1" fill="#a9958f" d="M 55.5,105.5 C 55.9731,106.906 56.9731,107.573 58.5,107.5C 61.6012,109.537 63.9345,112.204 65.5,115.5C 64.8333,115.5 64.5,115.833 64.5,116.5C 63.8333,116.5 63.1667,116.5 62.5,116.5C 61.2921,115.766 59.9587,115.433 58.5,115.5C 58.0023,112.674 56.6689,110.34 54.5,108.5C 54.6716,107.508 54.3382,106.842 53.5,106.5C 53.4088,104.302 54.0755,103.969 55.5,105.5 Z"/></g>
<g><path style="opacity:1" fill="#b6b9b3" d="M 54.5,108.5 C 56.6689,110.34 58.0023,112.674 58.5,115.5C 59.9587,115.433 61.2921,115.766 62.5,116.5C 62.5,116.833 62.5,117.167 62.5,117.5C 60.2646,117.795 58.2646,117.461 56.5,116.5C 56.0472,115.542 55.3805,114.708 54.5,114C 55.1383,112.293 55.1383,110.46 54.5,108.5 Z"/></g>
<g><path style="opacity:1" fill="#c0acb1" d="M 85.5,110.5 C 86.6715,111.345 88.0048,112.011 89.5,112.5C 87.0977,113.993 84.431,114.993 81.5,115.5C 80.8333,115.5 80.1667,115.5 79.5,115.5C 81.129,113.804 80.7957,112.804 78.5,112.5C 80.4385,110.837 82.7718,110.171 85.5,110.5 Z"/></g>
<g><path style="opacity:1" fill="#b88684" d="M 95.5,112.5 C 94.1667,113.5 92.8333,114.5 91.5,115.5C 88.1667,116.833 84.8333,116.833 81.5,115.5C 84.431,114.993 87.0977,113.993 89.5,112.5C 90.531,111.751 91.6976,111.085 93,110.5C 93.4169,111.756 94.2502,112.423 95.5,112.5 Z"/></g>
<g><path style="opacity:1" fill="#c1ecf8" d="M 123.5,109.5 C 123.389,110.117 123.056,110.617 122.5,111C 125.892,113.162 126.559,115.662 124.5,118.5C 122.669,119.052 121.003,119.052 119.5,118.5C 118.5,119 117.5,119.5 116.5,120C 117.833,120.667 117.833,121.333 116.5,122C 114.934,122.765 113.601,122.598 112.5,121.5C 114.986,120.538 114.986,119.705 112.5,119C 114.037,117.89 114.703,116.39 114.5,114.5C 117.517,112.805 120.517,111.139 123.5,109.5 Z"/></g>
<g><path style="opacity:1" fill="#d1b8be" d="M 98.5,110.5 C 98.5,111.5 98.5,112.5 98.5,113.5C 100.959,113.31 102.626,114.31 103.5,116.5C 100.234,117.264 96.9002,116.931 93.5,115.5C 92.8333,115.5 92.1667,115.5 91.5,115.5C 92.8333,114.5 94.1667,113.5 95.5,112.5C 96.7777,112.218 97.7777,111.551 98.5,110.5 Z"/></g>
<g><path style="opacity:1" fill="#8b9795" d="M 68.5,118.5 C 70.6074,117.532 72.9407,117.198 75.5,117.5C 76.9002,118.1 77.9002,119.1 78.5,120.5C 75.2949,118.528 71.9615,117.861 68.5,118.5 Z"/></g>
<g><path style="opacity:1" fill="#b28a8d" d="M 93.5,115.5 C 96.9002,116.931 100.234,117.264 103.5,116.5C 104.167,116.5 104.833,116.5 105.5,116.5C 106.332,117.329 105.999,118.162 104.5,119C 102.655,120.128 100.655,120.628 98.5,120.5C 96.8333,120.5 95.1667,120.5 93.5,120.5C 92.1667,118.833 92.1667,117.167 93.5,115.5 Z"/></g>
<g><path style="opacity:1" fill="#c2eaf7" d="M 114.5,114.5 C 114.703,116.39 114.037,117.89 112.5,119C 114.986,119.705 114.986,120.538 112.5,121.5C 112.083,123.922 110.749,126.088 108.5,128C 104.702,129.783 100.702,130.616 96.5,130.5C 100.036,128.147 103.869,126.147 108,124.5C 107.807,122.918 106.974,121.584 105.5,120.5C 107.852,117.599 110.852,115.599 114.5,114.5 Z"/></g>
<g><path style="opacity:1" fill="#b06a61" d="M 79.5,115.5 C 80.1667,115.5 80.8333,115.5 81.5,115.5C 84.8333,116.833 88.1667,116.833 91.5,115.5C 92.1667,115.5 92.8333,115.5 93.5,115.5C 92.1667,117.167 92.1667,118.833 93.5,120.5C 88.8333,120.5 84.1667,120.5 79.5,120.5C 79.1667,120.5 78.8333,120.5 78.5,120.5C 77.9002,119.1 76.9002,118.1 75.5,117.5C 76.4674,116.194 77.8007,115.527 79.5,115.5 Z"/></g>
<g><path style="opacity:1" fill="#b6a9af" d="M 124.5,107.5 C 124.672,108.492 124.338,109.158 123.5,109.5C 120.517,111.139 117.517,112.805 114.5,114.5C 110.852,115.599 107.852,117.599 105.5,120.5C 103.475,122.196 101.475,123.863 99.5,125.5C 98.8333,125.5 98.1667,125.5 97.5,125.5C 97.7214,124.265 98.3881,123.265 99.5,122.5C 99.1373,121.817 98.8039,121.15 98.5,120.5C 100.655,120.628 102.655,120.128 104.5,119C 105.999,118.162 106.332,117.329 105.5,116.5C 112.04,114.089 118.374,111.089 124.5,107.5 Z"/></g>
<g><path style="opacity:1" fill="#c3ecfb" d="M 67.5,118.5 C 67.8333,118.5 68.1667,118.5 68.5,118.5C 70.5519,122.537 73.8852,124.537 78.5,124.5C 78.5,125.5 78.5,126.5 78.5,127.5C 81.4877,127.439 84.3211,128.105 87,129.5C 89.8053,128.793 92.6387,129.127 95.5,130.5C 95.5,131.167 95.1667,131.5 94.5,131.5C 88.2204,130.818 81.8871,129.985 75.5,129C 72,126.833 68.5,124.667 65,122.5C 64.3333,121.833 64.3333,121.167 65,120.5C 65.9947,119.934 66.828,119.267 67.5,118.5 Z"/></g>
<g><path style="opacity:1" fill="#bde5f6" d="M 68.5,118.5 C 71.9615,117.861 75.2949,118.528 78.5,120.5C 78.8333,120.5 79.1667,120.5 79.5,120.5C 81.9679,121.568 84.3012,122.902 86.5,124.5C 89.6424,125.433 92.9758,126.099 96.5,126.5C 97.7261,126.48 98.7261,126.147 99.5,125.5C 101.475,123.863 103.475,122.196 105.5,120.5C 106.974,121.584 107.807,122.918 108,124.5C 103.869,126.147 100.036,128.147 96.5,130.5C 96.1667,130.5 95.8333,130.5 95.5,130.5C 92.6387,129.127 89.8053,128.793 87,129.5C 84.3211,128.105 81.4877,127.439 78.5,127.5C 78.5,126.5 78.5,125.5 78.5,124.5C 73.8852,124.537 70.5519,122.537 68.5,118.5 Z"/></g>
<g><path style="opacity:1" fill="#c0c6d2" d="M 86.5,124.5 C 90.2148,124.423 93.8815,124.756 97.5,125.5C 98.1667,125.5 98.8333,125.5 99.5,125.5C 98.7261,126.147 97.7261,126.48 96.5,126.5C 92.9758,126.099 89.6424,125.433 86.5,124.5 Z"/></g>
<g><path style="opacity:1" fill="#c89c9d" d="M 79.5,120.5 C 84.1667,120.5 88.8333,120.5 93.5,120.5C 95.1667,120.5 96.8333,120.5 98.5,120.5C 98.8039,121.15 99.1373,121.817 99.5,122.5C 98.3881,123.265 97.7214,124.265 97.5,125.5C 93.8815,124.756 90.2148,124.423 86.5,124.5C 84.3012,122.902 81.9679,121.568 79.5,120.5 Z"/></g>
<g><path style="opacity:1" fill="#ccf4fe" d="M 62.5,117.5 C 62.5,117.167 62.5,116.833 62.5,116.5C 63.1667,116.5 63.8333,116.5 64.5,116.5C 65.7095,116.932 66.7095,117.599 67.5,118.5C 66.828,119.267 65.9947,119.934 65,120.5C 64.3333,121.167 64.3333,121.833 65,122.5C 68.5,124.667 72,126.833 75.5,129C 81.8871,129.985 88.2204,130.818 94.5,131.5C 94.0825,132.222 93.4158,132.722 92.5,133C 94.5444,133.498 95.8777,134.665 96.5,136.5C 92.1245,135.334 87.9579,136.001 84,138.5C 79.0665,135.147 73.5665,133.647 67.5,134C 63.9595,129.458 59.7928,125.625 55,122.5C 54.5172,121.552 54.3505,120.552 54.5,119.5C 58.6493,119.277 61.316,118.61 62.5,117.5 Z"/></g>
<g><path style="opacity:0.994" fill="#cff6fe" d="M 124.5,118.5 C 124.5,119.5 124.5,120.5 124.5,121.5C 122.088,121.694 121.088,123.027 121.5,125.5C 119.692,125.491 118.025,125.991 116.5,127C 115.686,129.627 114.353,131.96 112.5,134C 107.208,135.16 101.875,135.993 96.5,136.5C 95.8777,134.665 94.5444,133.498 92.5,133C 93.4158,132.722 94.0825,132.222 94.5,131.5C 95.1667,131.5 95.5,131.167 95.5,130.5C 95.8333,130.5 96.1667,130.5 96.5,130.5C 100.702,130.616 104.702,129.783 108.5,128C 110.749,126.088 112.083,123.922 112.5,121.5C 113.601,122.598 114.934,122.765 116.5,122C 117.833,121.333 117.833,120.667 116.5,120C 117.5,119.5 118.5,119 119.5,118.5C 121.003,119.052 122.669,119.052 124.5,118.5 Z"/></g>
<g><path style="opacity:0.675" fill="#a2c5ff" d="M 63.5,136.5 C 64.4959,136.414 65.3292,136.748 66,137.5C 66.413,140.232 67.0797,142.899 68,145.5C 69.8333,143.667 71.6667,141.833 73.5,140C 74.6001,139.568 75.2668,140.068 75.5,141.5C 74.9251,145.482 73.5917,149.149 71.5,152.5C 70.8153,150.219 70.6487,147.886 71,145.5C 69.7365,147.607 67.9032,148.607 65.5,148.5C 64.6059,141.944 63.6059,141.944 62.5,148.5C 62.1667,148.833 61.8333,149.167 61.5,149.5C 61.1667,148.833 60.8333,148.167 60.5,147.5C 61.3485,143.771 62.3485,140.104 63.5,136.5 Z"/></g>
<g><path style="opacity:0.633" fill="#a2c5ff" d="M 102.5,138.5 C 108.144,137.481 111.144,139.814 111.5,145.5C 108.679,145.539 106.012,146.205 103.5,147.5C 106.148,150.262 108.481,149.929 110.5,146.5C 111.347,149.866 109.847,151.866 106,152.5C 102.055,151.142 99.8883,148.309 99.5,144C 100.124,141.915 101.124,140.082 102.5,138.5 Z M 104.5,140.5 C 106.346,140.222 107.68,140.889 108.5,142.5C 106.696,143.768 104.696,144.435 102.5,144.5C 102.527,142.801 103.194,141.467 104.5,140.5 Z"/></g>
<g><path style="opacity:0.739" fill="#a3c6ff" d="M 81.5,140.5 C 82.5,140.5 83.5,140.5 84.5,140.5C 84.5,142.167 84.5,143.833 84.5,145.5C 86.4672,145.261 88.3005,145.594 90,146.5C 90.4955,144.527 90.6621,142.527 90.5,140.5C 91.5,140.5 92.5,140.5 93.5,140.5C 93.6653,144.182 93.4986,147.848 93,151.5C 92.6924,152.308 92.1924,152.975 91.5,153.5C 90.5481,151.955 90.2148,150.288 90.5,148.5C 88.5,148.5 86.5,148.5 84.5,148.5C 84.5,150.167 84.5,151.833 84.5,153.5C 83.5,153.5 82.5,153.5 81.5,153.5C 81.5,149.167 81.5,144.833 81.5,140.5 Z"/></g>
</svg>
