<?xml version="1.0" encoding="UTF-8"?>
<!DOCTYPE svg PUBLIC "-//W3C//DTD SVG 1.1//EN" "http://www.w3.org/Graphics/SVG/1.1/DTD/svg11.dtd">
<svg xmlns="http://www.w3.org/2000/svg" version="1.1" width="940px" height="359px" style="shape-rendering:geometricPrecision; text-rendering:geometricPrecision; image-rendering:optimizeQuality; fill-rule:evenodd; clip-rule:evenodd" xmlns:xlink="http://www.w3.org/1999/xlink">
<g><path style="opacity:0.999" fill="#554378" d="M 182.5,54.5 C 181.596,55.209 181.263,56.209 181.5,57.5C 182.791,57.7373 183.791,57.404 184.5,56.5C 209.531,48.3294 235.198,45.1628 261.5,47C 297.216,50.7194 318.05,70.2194 324,105.5C 325.352,126.409 321.685,146.409 313,165.5C 296.302,201.879 271.802,232.045 239.5,256C 216.946,272.28 192.613,285.447 166.5,295.5C 174.949,305.224 185.616,309.724 198.5,309C 200.5,307.667 202.5,306.333 204.5,305C 209.182,303.422 212.182,304.922 213.5,309.5C 213.124,311.383 212.124,312.883 210.5,314C 188.506,322.225 170.673,316.725 157,297.5C 136.404,304.337 115.571,305.17 94.5,300C 91.7613,298.974 89.428,297.474 87.5,295.5C 87.0269,294.094 86.0269,293.427 84.5,293.5C 77.9307,288.041 75.764,281.041 78,272.5C 81.8215,261.367 88.6548,252.533 98.5,246C 109.765,238.2 121.765,231.7 134.5,226.5C 131.668,174.821 139.668,124.821 158.5,76.5C 126.248,91.2371 99.5817,113.404 78.5,143C 70.1742,145.668 67.6742,142.835 71,134.5C 80.3698,119.461 92.2032,106.627 106.5,96C 124.035,83.665 142.701,73.165 162.5,64.5C 165.925,57.3134 169.091,49.9801 172,42.5C 173.871,37.9188 176.371,33.7522 179.5,30C 184.956,28.8948 188.289,31.0615 189.5,36.5C 187.16,42.5231 184.827,48.5231 182.5,54.5 Z M 260.5,222.5 C 259.094,222.973 258.427,223.973 258.5,225.5C 252.5,230.833 246.833,236.5 241.5,242.5C 239.251,243.08 237.585,244.413 236.5,246.5C 213.987,264.849 189.154,279.516 162,290.5C 149.053,272.656 142.719,252.656 143,230.5C 169.302,219.673 196.635,215.673 225,218.5C 228.552,218.359 232.052,217.859 235.5,217C 236.925,215.286 236.592,213.953 234.5,213C 206.505,210.389 179.172,213.222 152.5,221.5C 149.848,221.41 147.515,222.076 145.5,223.5C 144.5,223.5 143.5,223.5 142.5,223.5C 145.185,169.428 157.018,117.428 178,67.5C 205.227,55.8959 233.393,52.7293 262.5,58C 284.071,64.5716 297.905,78.7383 304,100.5C 308.385,125.2 305.051,148.867 294,171.5C 285.309,190.24 274.142,207.24 260.5,222.5 Z M 132.5,234.5 C 133.778,234.782 134.778,235.449 135.5,236.5C 136.891,256.672 142.891,275.339 153.5,292.5C 137.409,297.94 121.409,297.773 105.5,292C 94.8434,285.697 92.0101,276.863 97,265.5C 100.028,259.466 104.195,254.299 109.5,250C 116.798,244.187 124.465,239.02 132.5,234.5 Z"/></g>
<g><path style="opacity:0.671" fill="#d8d7d4" d="M 182.5,54.5 C 182.5,55.8333 183.167,56.5 184.5,56.5C 183.791,57.404 182.791,57.7373 181.5,57.5C 181.263,56.209 181.596,55.209 182.5,54.5 Z"/></g>
<g><path style="opacity:0.999" fill="#564479" d="M 346.5,226.5 C 344.219,226.923 342.552,226.256 341.5,224.5C 348.097,219.062 353.93,212.729 359,205.5C 363.388,198.971 364.721,191.971 363,184.5C 360.215,179.806 356.715,179.306 352.5,183C 345.083,190.227 340.917,199.06 340,209.5C 336.798,224.851 336.798,240.185 340,255.5C 345.813,274.103 356.646,277.936 372.5,267C 376.369,263.466 379.869,259.633 383,255.5C 394.808,235.55 405.308,214.884 414.5,193.5C 410.179,175.299 415.179,160.132 429.5,148C 435.135,146.464 438.135,148.631 438.5,154.5C 435.651,165.534 431.151,175.867 425,185.5C 424.505,187.473 424.338,189.473 424.5,191.5C 426.199,191.66 427.866,191.494 429.5,191C 433.696,188.739 437.696,186.239 441.5,183.5C 445.436,181.234 448.769,178.234 451.5,174.5C 460.106,169.917 463.606,172.583 462,182.5C 457.836,190.995 452.502,198.661 446,205.5C 436.866,219.102 429.866,233.769 425,249.5C 423.277,256.395 422.444,263.395 422.5,270.5C 422.171,273.228 422.837,275.562 424.5,277.5C 428.791,289.932 436.125,292.265 446.5,284.5C 450.167,282.833 452.833,280.167 454.5,276.5C 455.124,274.246 456.457,272.579 458.5,271.5C 459.906,271.027 460.573,270.027 460.5,268.5C 466.505,258.982 472.338,249.315 478,239.5C 476.7,224.374 477.7,209.374 481,194.5C 483.794,185.071 488.961,177.238 496.5,171C 506.105,164.354 514.938,165.188 523,173.5C 527.059,184.763 525.725,195.43 519,205.5C 513.931,214.736 506.765,221.736 497.5,226.5C 495.219,226.923 493.552,226.256 492.5,224.5C 494.219,221.781 496.553,219.781 499.5,218.5C 502.167,217.833 503.833,216.167 504.5,213.5C 510.174,206.649 513.841,198.816 515.5,190C 512.925,178.819 507.758,177.652 500,186.5C 495.974,192.24 493.307,198.574 492,205.5C 486.613,225.506 487.447,245.173 494.5,264.5C 494.427,266.027 495.094,267.027 496.5,267.5C 505.497,275.49 514.497,275.324 523.5,267C 527.398,263.271 531.065,259.438 534.5,255.5C 535.906,255.027 536.573,254.027 536.5,252.5C 540.943,244.451 545.276,236.284 549.5,228C 546.085,196.01 547.252,164.176 553,132.5C 556.012,115.947 561.845,100.613 570.5,86.5C 571.906,86.0269 572.573,85.0269 572.5,83.5C 578.605,73.8897 586.939,67.0563 597.5,63C 605.725,61.3628 611.892,64.1962 616,71.5C 619.954,85.7523 619.954,100.086 616,114.5C 612.929,128.12 608.929,141.453 604,154.5C 595.819,173.863 586.819,192.863 577,211.5C 576.092,213.439 574.592,214.439 572.5,214.5C 572.34,212.801 572.506,211.134 573,209.5C 595.6,169.769 605.933,127.103 604,81.5C 602.713,71.9405 597.88,69.4405 589.5,74C 581.204,82.0843 575.038,91.5843 571,102.5C 562.599,127.638 558.766,153.472 559.5,180C 559.262,223.674 566.096,266.174 580,307.5C 583.163,316.993 589.33,323.493 598.5,327C 599.833,328 599.833,329 598.5,330C 593.684,331.027 589.35,330.027 585.5,327C 572.667,313.51 563.834,297.677 559,279.5C 555.439,267.362 552.772,255.029 551,242.5C 544.795,256.437 535.628,267.937 523.5,277C 509.003,285.053 496.836,282.553 487,269.5C 483.885,264.156 481.552,258.489 480,252.5C 473.283,269.127 462.45,282.293 447.5,292C 430.859,297.377 420.359,291.544 416,274.5C 413.444,259.386 415.111,244.719 421,230.5C 425.572,218.856 431.072,207.689 437.5,197C 431.446,197.487 425.446,197.653 419.5,197.5C 413.569,210.792 407.736,224.125 402,237.5C 395.994,252.018 387.16,264.518 375.5,275C 354.589,287.363 339.756,282.196 331,259.5C 325.879,238.983 325.212,218.316 329,197.5C 331.861,186.928 337.361,178.095 345.5,171C 354.467,164.667 362.967,165.167 371,172.5C 375.844,183.088 375.178,193.421 369,203.5C 363.897,211.601 357.73,218.768 350.5,225C 349.255,225.791 347.922,226.291 346.5,226.5 Z"/></g>
<g><path style="opacity:0.494" fill="#9e96ab" d="M 572.5,83.5 C 572.573,85.0269 571.906,86.0269 570.5,86.5C 570.427,84.9731 571.094,83.9731 572.5,83.5 Z"/></g>
<g><path style="opacity:0.997" fill="#554378" d="M 736.5,263.5 C 737.451,264.919 737.784,266.585 737.5,268.5C 735.546,277.977 729.88,282.144 720.5,281C 716.634,277.748 714.467,273.581 714,268.5C 713.333,258.5 713.333,248.5 714,238.5C 717.463,210.892 721.629,183.392 726.5,156C 725.467,145.898 720.8,143.898 712.5,150C 693.421,170.336 682.587,194.503 680,222.5C 679.5,229 679,235.5 678.5,242C 679.405,251.502 679.905,261.002 680,270.5C 678.789,273.759 676.956,276.592 674.5,279C 670.056,279.25 667.222,277.084 666,272.5C 663.489,262.611 661.489,252.611 660,242.5C 654.378,257.928 645.211,270.762 632.5,281C 623.643,286.49 614.643,286.823 605.5,282C 600.039,274.279 597.373,265.613 597.5,256C 598.853,235.9 603.02,216.4 610,197.5C 612.9,189.512 617.4,182.679 623.5,177C 629.485,175.806 632.818,178.306 633.5,184.5C 632.76,188.935 631.593,193.269 630,197.5C 620.055,213.673 613.055,231.006 609,249.5C 608.333,256.5 608.333,263.5 609,270.5C 609.695,279.543 614.195,282.376 622.5,279C 626.558,276.642 630.225,273.808 633.5,270.5C 634.906,270.027 635.573,269.027 635.5,267.5C 637.273,264.94 639.273,262.607 641.5,260.5C 642.906,260.027 643.573,259.027 643.5,257.5C 648.89,248.553 653.89,239.386 658.5,230C 656.689,214.936 652.856,200.436 647,186.5C 645.22,184.707 643.387,183.04 641.5,181.5C 647.209,178.666 651.876,180 655.5,185.5C 655.427,187.027 656.094,188.027 657.5,188.5C 657.427,190.027 658.094,191.027 659.5,191.5C 664.918,201.906 669.084,212.906 672,224.5C 674.917,209.416 679.25,194.75 685,180.5C 687.861,172.847 691.695,165.847 696.5,159.5C 697.906,159.027 698.573,158.027 698.5,156.5C 698.932,155.29 699.599,154.29 700.5,153.5C 703.764,151.906 706.431,149.573 708.5,146.5C 710.8,143.676 713.8,141.843 717.5,141C 733.495,136.155 742.162,141.988 743.5,158.5C 742.733,163.825 741.9,169.159 741,174.5C 735.62,191.595 729.953,208.595 724,225.5C 720.213,240.021 719.213,254.688 721,269.5C 722.816,273.663 725.649,274.497 729.5,272C 732.21,269.372 734.544,266.539 736.5,263.5 Z"/></g>
<g><path style="opacity:0.998" fill="#544277" d="M 637.5,165.5 C 635.097,165.552 632.764,165.219 630.5,164.5C 627.706,156.69 629.373,149.857 635.5,144C 645.354,140.853 649.188,144.353 647,154.5C 645.38,159.612 642.213,163.279 637.5,165.5 Z"/></g>
<g><path style="opacity:1" fill="#867a9b" d="M 708.5,146.5 C 706.431,149.573 703.764,151.906 700.5,153.5C 702.569,150.427 705.236,148.094 708.5,146.5 Z"/></g>
<g><path style="opacity:0.494" fill="#9b91a9" d="M 698.5,156.5 C 698.573,158.027 697.906,159.027 696.5,159.5C 696.427,157.973 697.094,156.973 698.5,156.5 Z"/></g>
<g><path style="opacity:0.757" fill="#948ba5" d="M 630.5,164.5 C 632.764,165.219 635.097,165.552 637.5,165.5C 636.726,166.147 635.726,166.48 634.5,166.5C 632.645,166.66 631.312,165.993 630.5,164.5 Z"/></g>
<g><path style="opacity:0.999" fill="#57457a" d="M 846.5,251.5 C 846.027,250.094 845.027,249.427 843.5,249.5C 836.812,244.812 831.146,239.146 826.5,232.5C 826.217,231.711 825.717,231.044 825,230.5C 824.506,232.134 824.34,233.801 824.5,235.5C 818.436,253.818 807.436,268.318 791.5,279C 778.401,284.615 767.568,281.782 759,270.5C 755.703,265.615 753.369,260.282 752,254.5C 746.564,231.827 747.564,209.494 755,187.5C 759.779,175.88 768.279,168.88 780.5,166.5C 794.251,169.312 799.417,177.645 796,191.5C 791.33,206.834 782.163,218.668 768.5,227C 766.421,227.808 764.421,227.641 762.5,226.5C 763.855,223.145 766.189,220.811 769.5,219.5C 772.167,218.833 773.833,217.167 774.5,214.5C 782.784,206.598 786.617,196.932 786,185.5C 784.68,181.818 782.18,180.318 778.5,181C 773.191,183.767 769.358,187.933 767,193.5C 758.835,216.401 758.169,239.401 765,262.5C 772.799,275.165 782.632,276.831 794.5,267.5C 797.5,266.5 799.5,264.5 800.5,261.5C 807.843,252.825 813.677,243.159 818,232.5C 819.129,230.859 820.629,229.859 822.5,229.5C 824.557,229.043 824.557,228.043 822.5,226.5C 811.991,206.357 813.491,187.024 827,168.5C 838.171,154.75 852.505,146.75 870,144.5C 877.094,144.864 883.427,147.197 889,151.5C 892.734,158.119 892.068,164.119 887,169.5C 885.415,168.624 884.415,167.291 884,165.5C 883.12,151.799 876.287,147.966 863.5,154C 838.474,168.547 826.974,190.38 829,219.5C 831.029,226.561 834.363,232.894 839,238.5C 845.475,245.064 852.142,251.398 859,257.5C 863.521,251.8 869.021,247.466 875.5,244.5C 876.167,244.833 876.833,245.167 877.5,245.5C 873.206,251.129 868.539,256.463 863.5,261.5C 872.289,274.44 869.623,284.273 855.5,291C 844.004,292.491 840.171,287.658 844,276.5C 847.642,271.358 851.475,266.358 855.5,261.5C 853.161,257.498 850.161,254.165 846.5,251.5 Z M 858.5,266.5 C 859.748,267.334 860.415,268.667 860.5,270.5C 860.225,275.051 858.391,278.717 855,281.5C 853.699,280.902 852.865,279.902 852.5,278.5C 853.986,274.194 855.986,270.194 858.5,266.5 Z"/></g>
<g><path style="opacity:1" fill="#877a9b" d="M 451.5,174.5 C 448.769,178.234 445.436,181.234 441.5,183.5C 444.231,179.766 447.564,176.766 451.5,174.5 Z"/></g>
<g><path style="opacity:0.498" fill="#a29aae" d="M 655.5,185.5 C 656.906,185.973 657.573,186.973 657.5,188.5C 656.094,188.027 655.427,187.027 655.5,185.5 Z"/></g>
<g><path style="opacity:0.498" fill="#9e94ab" d="M 657.5,188.5 C 658.906,188.973 659.573,189.973 659.5,191.5C 658.094,191.027 657.427,190.027 657.5,188.5 Z"/></g>
<g><path style="opacity:1" fill="#867a9b" d="M 504.5,213.5 C 503.833,216.167 502.167,217.833 499.5,218.5C 500.833,216.5 502.5,214.833 504.5,213.5 Z"/></g>
<g><path style="opacity:1" fill="#8b7f9e" d="M 774.5,214.5 C 773.833,217.167 772.167,218.833 769.5,219.5C 770.833,217.5 772.5,215.833 774.5,214.5 Z"/></g>
<g><path style="opacity:1" fill="#867a9b" d="M 152.5,221.5 C 150.485,222.924 148.152,223.59 145.5,223.5C 147.515,222.076 149.848,221.41 152.5,221.5 Z"/></g>
<g><path style="opacity:1" fill="#9b91a9" d="M 260.5,222.5 C 260.573,224.027 259.906,225.027 258.5,225.5C 258.427,223.973 259.094,222.973 260.5,222.5 Z"/></g>
<g><path style="opacity:0.62" fill="#847899" d="M 341.5,224.5 C 342.552,226.256 344.219,226.923 346.5,226.5C 344.735,227.461 342.735,227.795 340.5,227.5C 340.263,226.209 340.596,225.209 341.5,224.5 Z"/></g>
<g><path style="opacity:0.745" fill="#9086a2" d="M 492.5,224.5 C 493.552,226.256 495.219,226.923 497.5,226.5C 495.735,227.461 493.735,227.795 491.5,227.5C 491.263,226.209 491.596,225.209 492.5,224.5 Z"/></g>
<g><path style="opacity:0.4" fill="#cecccd" d="M 822.5,226.5 C 824.557,228.043 824.557,229.043 822.5,229.5C 822.5,228.5 822.5,227.5 822.5,226.5 Z"/></g>
<g><path style="opacity:1" fill="#ada6b6" d="M 826.5,232.5 C 825.833,233.5 825.167,234.5 824.5,235.5C 824.34,233.801 824.506,232.134 825,230.5C 825.717,231.044 826.217,231.711 826.5,232.5 Z"/></g>
<g><path style="opacity:0.753" fill="#c8c5c8" d="M 132.5,234.5 C 133.209,233.596 134.209,233.263 135.5,233.5C 135.5,234.5 135.5,235.5 135.5,236.5C 134.778,235.449 133.778,234.782 132.5,234.5 Z"/></g>
<g><path style="opacity:1" fill="#85799a" d="M 241.5,242.5 C 240.415,244.587 238.749,245.92 236.5,246.5C 237.585,244.413 239.251,243.08 241.5,242.5 Z"/></g>
<g><path style="opacity:0.498" fill="#9f97ac" d="M 843.5,249.5 C 845.027,249.427 846.027,250.094 846.5,251.5C 844.973,251.573 843.973,250.906 843.5,249.5 Z"/></g>
<g><path style="opacity:0.494" fill="#9d94ab" d="M 536.5,252.5 C 536.573,254.027 535.906,255.027 534.5,255.5C 534.427,253.973 535.094,252.973 536.5,252.5 Z"/></g>
<g><path style="opacity:0.494" fill="#a097ac" d="M 643.5,257.5 C 643.573,259.027 642.906,260.027 641.5,260.5C 641.427,258.973 642.094,257.973 643.5,257.5 Z"/></g>
<g><path style="opacity:0.751" fill="#b6b1bc" d="M 736.5,263.5 C 736.56,262.957 736.893,262.624 737.5,262.5C 738.793,264.636 738.793,266.636 737.5,268.5C 737.784,266.585 737.451,264.919 736.5,263.5 Z"/></g>
<g><path style="opacity:0.498" fill="#9e94ab" d="M 494.5,264.5 C 495.906,264.973 496.573,265.973 496.5,267.5C 495.094,267.027 494.427,266.027 494.5,264.5 Z"/></g>
<g><path style="opacity:1" fill="#8a7f9e" d="M 800.5,261.5 C 799.5,264.5 797.5,266.5 794.5,267.5C 796.167,265.167 798.167,263.167 800.5,261.5 Z"/></g>
<g><path style="opacity:1" fill="#9d94aa" d="M 635.5,267.5 C 635.573,269.027 634.906,270.027 633.5,270.5C 633.427,268.973 634.094,267.973 635.5,267.5 Z"/></g>
<g><path style="opacity:0.494" fill="#a097ac" d="M 460.5,268.5 C 460.573,270.027 459.906,271.027 458.5,271.5C 458.427,269.973 459.094,268.973 460.5,268.5 Z"/></g>
<g><path style="opacity:1" fill="#9b91a9" d="M 422.5,270.5 C 423.612,272.599 424.279,274.933 424.5,277.5C 422.837,275.562 422.171,273.228 422.5,270.5 Z"/></g>
<g><path style="opacity:1" fill="#847799" d="M 454.5,276.5 C 452.833,280.167 450.167,282.833 446.5,284.5C 448.833,281.5 451.5,278.833 454.5,276.5 Z"/></g>
<g><path style="opacity:0.498" fill="#9a91a9" d="M 84.5,293.5 C 86.0269,293.427 87.0269,294.094 87.5,295.5C 85.9731,295.573 84.9731,294.906 84.5,293.5 Z"/></g>
</svg>
