<?xml version="1.0" encoding="UTF-8"?>
<!DOCTYPE svg PUBLIC "-//W3C//DTD SVG 1.1//EN" "http://www.w3.org/Graphics/SVG/1.1/DTD/svg11.dtd">
<svg xmlns="http://www.w3.org/2000/svg" version="1.1" width="940px" height="396px" style="shape-rendering:geometricPrecision; text-rendering:geometricPrecision; image-rendering:optimizeQuality; fill-rule:evenodd; clip-rule:evenodd" xmlns:xlink="http://www.w3.org/1999/xlink">
<g><path style="opacity:0.999" fill="#4f3d74" d="M 156.5,31.5 C 161.367,31.8634 164.034,34.5301 164.5,39.5C 162.243,46.5106 159.576,53.344 156.5,60C 157.416,60.3742 158.25,60.8742 159,61.5C 188.692,50.7351 219.192,47.5684 250.5,52C 286.786,60.9773 305.453,84.3107 306.5,122C 304.007,151.144 294.84,177.978 279,202.5C 244.399,252.756 198.399,288.423 141,309.5C 142.288,313.139 144.788,315.972 148.5,318C 157.197,323.511 166.531,325.511 176.5,324C 179.694,320.48 183.361,319.48 187.5,321C 188.743,322.154 189.743,323.488 190.5,325C 184.491,331.062 177.157,333.895 168.5,333.5C 160.529,332.898 153.195,330.398 146.5,326C 141.032,321.533 135.865,316.7 131,311.5C 110.527,318.815 89.6938,319.982 68.5,315C 45.8588,305.542 42.0254,291.042 57,271.5C 71.0647,257.208 87.5647,246.542 106.5,239.5C 107.415,238.672 108.081,237.672 108.5,236.5C 107.537,226.716 106.871,216.882 106.5,207C 108.621,165.153 117.621,123.487 133.5,82C 132.874,81.2496 132.374,80.4162 132,79.5C 98.3963,96.0987 70.563,119.599 48.5,150C 44.2623,152.527 41.2623,151.527 39.5,147C 47.4847,130.671 58.818,117.004 73.5,106C 93.23,91.1271 114.563,78.7938 137.5,69C 142.275,57.3498 147.441,45.8498 153,34.5C 154.518,33.8366 155.685,32.8366 156.5,31.5 Z M 234.5,239.5 C 229.833,243.5 225.5,247.833 221.5,252.5C 196.816,274.19 169.149,291.357 138.5,304C 136.505,304.613 134.838,304.113 133.5,302.5C 133.573,300.973 132.906,299.973 131.5,299.5C 121.175,281.534 116.509,262.201 117.5,241.5C 144.991,230.391 173.491,226.391 203,229.5C 206.207,229.259 209.374,228.759 212.5,228C 215.167,226.667 215.167,225.333 212.5,224C 179.788,220.735 147.955,224.568 117,235.5C 117.676,193.783 124.676,153.117 138,113.5C 142.778,99.1634 147.945,84.9968 153.5,71C 179.885,60.1576 207.218,56.491 235.5,60C 269.931,68.657 287.264,90.8236 287.5,126.5C 285.861,153.919 277.694,179.252 263,202.5C 254.46,215.585 244.96,227.918 234.5,239.5 Z M 127.5,306.5 C 126.833,307.167 126.167,307.833 125.5,308.5C 117.394,309.92 109.228,310.92 101,311.5C 91.0416,311.72 81.8749,309.22 73.5,304C 63.3869,294.104 62.8869,283.604 72,272.5C 81.7843,260.244 93.951,251.244 108.5,245.5C 109.818,267.452 116.152,287.785 127.5,306.5 Z"/></g>
<g><path style="opacity:0.998" fill="#4a3870" d="M 544.5,255.5 C 544.263,251.711 543.596,251.711 542.5,255.5C 535.783,271.764 524.783,284.264 509.5,293C 495.167,297.554 484.001,293.387 476,280.5C 473.604,275.311 471.604,269.977 470,264.5C 465.584,272.333 460.918,280 456,287.5C 451.833,293 447,297.833 441.5,302C 429.476,311.357 418.309,310.524 408,299.5C 403.641,291.163 401.141,282.33 400.5,273C 404.763,249.306 413.097,227.139 425.5,206.5C 426.043,206.44 426.376,206.107 426.5,205.5C 425.743,204.227 425.077,204.227 424.5,205.5C 421.399,205.692 418.399,206.358 415.5,207.5C 412.569,206.727 409.736,205.727 407,204.5C 397.924,224.983 388.591,245.317 379,265.5C 372.875,275.59 365.042,284.09 355.5,291C 339.209,298.873 326.376,295.039 317,279.5C 313.987,272.794 311.987,265.794 311,258.5C 307.172,239.155 308.172,220.155 314,201.5C 317.664,191.181 324.164,183.348 333.5,178C 348.242,173.05 356.575,178.383 358.5,194C 355.674,210.645 347.674,224.312 334.5,235C 331.562,237.257 328.229,238.424 324.5,238.5C 324.351,237.448 324.517,236.448 325,235.5C 337.55,226.629 345.717,214.796 349.5,200C 349.168,194.492 346.502,190.659 341.5,188.5C 330.903,194.33 324.737,203.33 323,215.5C 319.427,231.725 318.76,248.058 321,264.5C 326.872,288.704 339.705,293.537 359.5,279C 365.274,272.615 370.441,265.782 375,258.5C 383.939,240.956 392.605,223.29 401,205.5C 400.454,199.972 399.621,194.472 398.5,189C 401.03,178.105 405.864,168.272 413,159.5C 418.891,153.857 423.058,154.857 425.5,162.5C 421.811,175.213 416.478,187.213 409.5,198.5C 409.96,200.786 411.293,202.119 413.5,202.5C 423.02,198.892 431.02,193.059 437.5,185C 440.438,182.575 443.772,181.575 447.5,182C 451.162,186.61 451.329,191.444 448,196.5C 431.542,216.072 419.209,238.072 411,262.5C 406.892,274.972 407.892,286.972 414,298.5C 418.512,304.677 424.012,305.844 430.5,302C 441.485,292.684 450.652,281.85 458,269.5C 461.881,263.071 465.215,256.404 468,249.5C 468.196,243.293 467.696,237.126 466.5,231C 468.495,226.73 468.828,222.397 467.5,218C 469.409,208.28 472.909,199.113 478,190.5C 484.771,179.861 494.271,175.361 506.5,177C 513.175,180.676 516.842,186.343 517.5,194C 513.748,211.076 505.081,225.076 491.5,236C 488.688,237.549 485.688,238.382 482.5,238.5C 482.351,237.448 482.517,236.448 483,235.5C 493.252,228.252 500.919,218.918 506,207.5C 508.582,201.16 507.748,195.326 503.5,190C 502.128,189.598 500.795,189.098 499.5,188.5C 490.671,192.796 485.171,199.796 483,209.5C 476.866,229.695 476.199,250.028 481,270.5C 488.167,288.334 499.667,291.834 515.5,281C 526.675,269.817 535.509,256.983 542,242.5C 541.699,225.019 541.199,207.519 540.5,190C 540.33,183.235 540.997,176.569 542.5,170C 543.57,151.958 547.07,133.792 553,115.5C 558.439,99.4446 567.272,85.6113 579.5,74C 584.803,70.2652 590.636,67.7652 597,66.5C 604.648,67.1441 609.648,71.1441 612,78.5C 613.121,83.8465 614.287,89.1798 615.5,94.5C 612.398,122.241 605.231,148.908 594,174.5C 585.859,191.45 577.192,208.116 568,224.5C 567.13,223.892 566.63,223.059 566.5,222C 589.092,182.029 600.592,139.863 601,95.5C 600.677,88.5366 598.843,82.0366 595.5,76C 591.139,74.1115 587.139,74.7782 583.5,78C 574.867,86.7584 568.367,96.9251 564,108.5C 555.749,134.505 551.582,161.172 551.5,188.5C 551.761,235.066 559.261,280.4 574,324.5C 577.39,334.388 583.89,341.055 593.5,344.5C 592.441,345.696 591.107,346.363 589.5,346.5C 582.766,344.275 577.266,340.275 573,334.5C 562.615,320.706 555.282,305.372 551,288.5C 548.254,277.602 546.087,266.602 544.5,255.5 Z"/></g>
<g><path style="opacity:0.998" fill="#4b3971" d="M 725.5,146.5 C 738.633,147.474 744.967,154.641 744.5,168C 743.946,175.269 742.779,182.436 741,189.5C 734.734,205.965 729.067,222.632 724,239.5C 722.034,249.597 720.534,259.764 719.5,270C 719.77,275.518 720.77,280.852 722.5,286C 725.5,288 728.5,288 731.5,286C 734.192,283.443 736.525,280.609 738.5,277.5C 739.006,284.327 736.339,289.827 730.5,294C 725.361,296.506 721.194,295.339 718,290.5C 716.25,287.754 715.25,284.754 715,281.5C 713.321,271.26 713.488,261.093 715.5,251C 715.355,249.774 715.022,248.607 714.5,247.5C 715.832,242.926 716.832,238.426 717.5,234C 716.892,231.722 717.225,229.388 718.5,227C 717.892,224.722 718.225,222.388 719.5,220C 718.771,218.013 719.104,216.013 720.5,214C 719.771,212.013 720.104,210.013 721.5,208C 720.771,206.013 721.104,204.013 722.5,202C 722.355,201.228 722.022,200.561 721.5,200C 722.804,197.125 723.804,194.125 724.5,191C 724.761,188.406 724.761,185.74 724.5,183C 725.43,181.806 726.097,180.473 726.5,179C 726.887,175.753 726.887,172.42 726.5,169C 728.738,164.452 728.405,159.952 725.5,155.5C 724.562,154.447 723.395,153.78 722,153.5C 715.572,155.049 710.239,158.382 706,163.5C 681.432,198.5 672.598,237.167 679.5,279.5C 678.559,283.384 677.059,287.051 675,290.5C 672.627,292.85 670.127,293.017 667.5,291C 666.206,288.913 665.039,286.746 664,284.5C 661.786,274.549 659.786,264.549 658,254.5C 650.902,271.925 639.736,286.091 624.5,297C 609.872,302.599 600.039,298.099 595,283.5C 592.738,275.132 592.571,266.798 594.5,258.5C 594.379,257.106 594.046,255.772 593.5,254.5C 596.673,239.164 600.839,223.831 606,208.5C 608.993,201.845 612.493,195.512 616.5,189.5C 623.803,183.474 628.137,185.308 629.5,195C 629,197.5 628.5,200 628,202.5C 618.117,219.594 610.451,237.594 605,256.5C 604.399,262.204 603.566,267.87 602.5,273.5C 603.18,279.617 604.346,285.617 606,291.5C 609.237,295.249 613.07,296.082 617.5,294C 624.908,289.927 631.075,284.427 636,277.5C 643.858,267.289 650.525,256.289 656,244.5C 655.151,227.102 651.151,210.436 644,194.5C 642.59,193.213 641.09,192.046 639.5,191C 642.236,188.401 645.236,188.401 648.5,191C 654.615,196.719 659.115,203.553 662,211.5C 664.537,219.612 667.371,227.612 670.5,235.5C 675.641,213.25 683.474,191.917 694,171.5C 700.907,158.405 711.407,150.072 725.5,146.5 Z"/></g>
<g><path style="opacity:1" fill="#4c3a72" d="M 635.5,150.5 C 640.891,150.26 644.224,152.76 645.5,158C 643.556,166.077 638.889,171.91 631.5,175.5C 627.145,173.298 625.145,169.631 625.5,164.5C 627.016,158.349 630.349,153.683 635.5,150.5 Z"/></g>
<g><path style="opacity:0.999" fill="#584679" d="M 881.5,257.5 C 883.179,257.285 884.179,257.952 884.5,259.5C 880.037,264.465 875.37,269.298 870.5,274C 880.31,286.995 877.977,297.328 863.5,305C 855.543,308.355 850.543,305.855 848.5,297.5C 850.027,289.799 853.86,283.465 860,278.5C 861.751,276.788 862.418,274.788 862,272.5C 857.474,267.494 852.307,263.327 846.5,260C 841.234,255.241 836.567,250.075 832.5,244.5C 832.167,243.5 831.5,242.833 830.5,242.5C 830.5,242.167 830.5,241.833 830.5,241.5C 830.201,239.545 829.201,238.211 827.5,237.5C 816.492,215.468 818.658,194.801 834,175.5C 848.258,158.111 866.424,150.945 888.5,154C 899.392,157.998 902.559,165.498 898,176.5C 896.506,177.747 895.006,177.747 893.5,176.5C 894.024,161.937 887.358,156.77 873.5,161C 849.104,173.264 835.771,193.097 833.5,220.5C 833.844,229.218 836.344,237.218 841,244.5C 848.914,253.417 857.247,262.084 866,270.5C 870.474,265.18 875.641,260.846 881.5,257.5 Z"/></g>
<g><path style="opacity:0.998" fill="#4e3c73" d="M 826.5,241.5 C 827.833,241.5 829.167,241.5 830.5,241.5C 830.5,241.833 830.5,242.167 830.5,242.5C 830.5,243.5 830.5,244.5 830.5,245.5C 825.008,262.818 815.341,277.318 801.5,289C 784.933,299.567 771.1,296.734 760,280.5C 757.781,276.729 756.115,272.729 755,268.5C 752.901,256.746 751.401,244.913 750.5,233C 750.567,216.896 755.067,201.729 764,187.5C 770.938,178.767 779.772,175.267 790.5,177C 797.146,180.599 800.812,186.265 801.5,194C 798.326,209.349 790.992,222.349 779.5,233C 776.04,235.814 772.207,237.98 768,239.5C 767.167,238.667 766.333,237.833 765.5,237C 775.544,229.762 783.377,220.596 789,209.5C 792.567,202.931 792.233,196.598 788,190.5C 786.667,189.833 785.333,189.167 784,188.5C 776.603,191.564 771.603,196.898 769,204.5C 762.458,224.482 760.792,244.816 764,265.5C 765.201,277.958 771.868,285.291 784,287.5C 787.281,287.045 790.448,286.211 793.5,285C 807.078,273.744 817.244,259.91 824,243.5C 824.708,242.619 825.542,241.953 826.5,241.5 Z"/></g>
<g><path style="opacity:1" fill="#a49aac" d="M 425.5,206.5 C 424.833,206.5 424.5,206.167 424.5,205.5C 425.077,204.227 425.743,204.227 426.5,205.5C 426.376,206.107 426.043,206.44 425.5,206.5 Z"/></g>
<g><path style="opacity:0.749" fill="#a59aac" d="M 827.5,237.5 C 829.201,238.211 830.201,239.545 830.5,241.5C 829.167,241.5 827.833,241.5 826.5,241.5C 828.493,240.528 828.826,239.195 827.5,237.5 Z"/></g>
<g><path style="opacity:1" fill="#d5cfcc" d="M 830.5,242.5 C 831.5,242.833 832.167,243.5 832.5,244.5C 831.833,244.833 831.167,245.167 830.5,245.5C 830.5,244.5 830.5,243.5 830.5,242.5 Z"/></g>
<g><path style="opacity:1" fill="#8a7c9b" d="M 234.5,239.5 C 231.167,244.833 226.833,249.167 221.5,252.5C 225.5,247.833 229.833,243.5 234.5,239.5 Z"/></g>
<g><path style="opacity:1" fill="#c9c1c3" d="M 544.5,255.5 C 543.833,255.5 543.167,255.5 542.5,255.5C 543.596,251.711 544.263,251.711 544.5,255.5 Z"/></g>
<g><path style="opacity:0.6" fill="#c9c3c4" d="M 881.5,257.5 C 882.568,256.566 883.901,256.232 885.5,256.5C 885.737,257.791 885.404,258.791 884.5,259.5C 884.179,257.952 883.179,257.285 881.5,257.5 Z"/></g>
<g><path style="opacity:1" fill="#f4f0df" d="M 865.5,278.5 C 866.496,278.414 867.329,278.748 868,279.5C 868.751,284.834 867.751,289.834 865,294.5C 863.604,296.527 861.938,296.86 860,295.5C 859.333,293.167 859.333,290.833 860,288.5C 861.592,284.979 863.425,281.646 865.5,278.5 Z"/></g>
<g><path style="opacity:0.498" fill="#a49aac" d="M 131.5,299.5 C 132.906,299.973 133.573,300.973 133.5,302.5C 132.094,302.027 131.427,301.027 131.5,299.5 Z"/></g>
<g><path style="opacity:1" fill="#a69cad" d="M 127.5,306.5 C 128.043,306.56 128.376,306.893 128.5,307.5C 127.675,308.386 126.675,308.719 125.5,308.5C 126.167,307.833 126.833,307.167 127.5,306.5 Z"/></g>
</svg>
